<?xml version="1.0" encoding="UTF-8" standalone="no"?><svg xmlns="http://www.w3.org/2000/svg" xmlns:xlink="http://www.w3.org/1999/xlink" contentScriptType="application/ecmascript" contentStyleType="text/css" height="907px" preserveAspectRatio="none" style="width:1429px;height:907px;" version="1.1" viewBox="0 0 1429 907" width="1429px" zoomAndPan="magnify"><defs><filter height="300%" id="fj2bvjtq7mx8z" width="300%" x="-1" y="-1"><feGaussianBlur result="blurOut" stdDeviation="2.0"/><feColorMatrix in="blurOut" result="blurOut2" type="matrix" values="0 0 0 0 0 0 0 0 0 0 0 0 0 0 0 0 0 0 .4 0"/><feOffset dx="4.0" dy="4.0" in="blurOut2" result="blurOut3"/><feBlend in="SourceGraphic" in2="blurOut3" mode="normal"/></filter></defs><g><rect fill="#FFFFFF" filter="url(#fj2bvjtq7mx8z)" height="692.5313" style="stroke: #A80036; stroke-width: 1.0;" width="10" x="260" y="117.4297"/><rect fill="#FFFFFF" filter="url(#fj2bvjtq7mx8z)" height="87.3984" style="stroke: #A80036; stroke-width: 1.0;" width="10" x="457" y="185.6953"/><rect fill="#FFFFFF" filter="url(#fj2bvjtq7mx8z)" height="29.1328" style="stroke: #A80036; stroke-width: 1.0;" width="10" x="608.5" y="214.8281"/><rect fill="#FFFFFF" filter="url(#fj2bvjtq7mx8z)" height="29.1328" style="stroke: #A80036; stroke-width: 1.0;" width="10" x="737.5" y="496.1563"/><rect fill="#FFFFFF" filter="url(#fj2bvjtq7mx8z)" height="29.1328" style="stroke: #A80036; stroke-width: 1.0;" width="10" x="737.5" y="656.625"/><rect fill="#FFFFFF" filter="url(#fj2bvjtq7mx8z)" height="29.1328" style="stroke: #A80036; stroke-width: 1.0;" width="10" x="737.5" y="765.8281"/><rect fill="#FFFFFF" filter="url(#fj2bvjtq7mx8z)" height="53.2656" style="stroke: #A80036; stroke-width: 1.0;" width="10" x="927.5" y="273.0938"/><rect fill="#FFFFFF" filter="url(#fj2bvjtq7mx8z)" height="111.5313" style="stroke: #A80036; stroke-width: 1.0;" width="10" x="1126.5" y="326.3594"/><rect fill="#FFFFFF" filter="url(#fj2bvjtq7mx8z)" height="53.2656" style="stroke: #A80036; stroke-width: 1.0;" width="10" x="1341.5" y="355.4922"/><rect fill="#FFFFFF" filter="url(#fj2bvjtq7mx8z)" height="514.8672" style="stroke: #000000; stroke-width: 2.0;" width="1212.5" x="204.5" y="288.0938"/><rect fill="#FFFFFF" filter="url(#fj2bvjtq7mx8z)" height="323.2656" style="stroke: #000000; stroke-width: 2.0;" width="1192.5" x="214.5" y="370.4922"/><rect fill="#FFFFFF" height="160.4688" style="stroke: none; stroke-width: 1.0;" width="1192.5" x="214.5" y="533.2891"/><rect fill="#FFFFFF" height="102.2031" style="stroke: none; stroke-width: 1.0;" width="1212.5" x="204.5" y="700.7578"/><line style="stroke: #A80036; stroke-width: 1.0; stroke-dasharray: 5.0,5.0;" x1="27" x2="27" y1="86.2969" y2="819.9609"/><line style="stroke: #A80036; stroke-width: 1.0; stroke-dasharray: 5.0,5.0;" x1="264.5" x2="264.5" y1="86.2969" y2="819.9609"/><line style="stroke: #A80036; stroke-width: 1.0; stroke-dasharray: 5.0,5.0;" x1="462" x2="462" y1="86.2969" y2="819.9609"/><line style="stroke: #A80036; stroke-width: 1.0; stroke-dasharray: 5.0,5.0;" x1="613" x2="613" y1="86.2969" y2="819.9609"/><line style="stroke: #A80036; stroke-width: 1.0; stroke-dasharray: 5.0,5.0;" x1="742" x2="742" y1="86.2969" y2="819.9609"/><line style="stroke: #A80036; stroke-width: 1.0; stroke-dasharray: 5.0,5.0;" x1="932" x2="932" y1="86.2969" y2="819.9609"/><line style="stroke: #A80036; stroke-width: 1.0; stroke-dasharray: 5.0,5.0;" x1="1131.5" x2="1131.5" y1="86.2969" y2="819.9609"/><line style="stroke: #A80036; stroke-width: 1.0; stroke-dasharray: 5.0,5.0;" x1="1346" x2="1346" y1="86.2969" y2="819.9609"/><text fill="#000000" font-family="sans-serif" font-size="14" lengthAdjust="spacingAndGlyphs" textLength="32" x="8" y="82.9951">User</text><ellipse cx="27" cy="13" fill="#FEFECE" filter="url(#fj2bvjtq7mx8z)" rx="8" ry="8" style="stroke: #A80036; stroke-width: 2.0;"/><path d="M27,21 L27,48 M14,29 L40,29 M27,48 L14,63 M27,48 L40,63 " fill="none" filter="url(#fj2bvjtq7mx8z)" style="stroke: #A80036; stroke-width: 2.0;"/><text fill="#000000" font-family="sans-serif" font-size="14" lengthAdjust="spacingAndGlyphs" textLength="32" x="8" y="831.9561">User</text><ellipse cx="27" cy="845.2578" fill="#FEFECE" filter="url(#fj2bvjtq7mx8z)" rx="8" ry="8" style="stroke: #A80036; stroke-width: 2.0;"/><path d="M27,853.2578 L27,880.2578 M14,861.2578 L40,861.2578 M27,880.2578 L14,895.2578 M27,880.2578 L40,895.2578 " fill="none" filter="url(#fj2bvjtq7mx8z)" style="stroke: #A80036; stroke-width: 2.0;"/><rect fill="#FEFECE" filter="url(#fj2bvjtq7mx8z)" height="46.5938" style="stroke: #A80036; stroke-width: 1.5;" width="77" x="224.5" y="34.7031"/><text fill="#000000" font-family="sans-serif" font-size="14" lengthAdjust="spacingAndGlyphs" textLength="63" x="231.5" y="54.6982">Frontend</text><text fill="#000000" font-family="sans-serif" font-size="14" lengthAdjust="spacingAndGlyphs" textLength="62" x="232" y="70.9951">(Angular)</text><rect fill="#FEFECE" filter="url(#fj2bvjtq7mx8z)" height="46.5938" style="stroke: #A80036; stroke-width: 1.5;" width="77" x="224.5" y="818.9609"/><text fill="#000000" font-family="sans-serif" font-size="14" lengthAdjust="spacingAndGlyphs" textLength="63" x="231.5" y="838.9561">Frontend</text><text fill="#000000" font-family="sans-serif" font-size="14" lengthAdjust="spacingAndGlyphs" textLength="62" x="232" y="855.2529">(Angular)</text><rect fill="#FEFECE" filter="url(#fj2bvjtq7mx8z)" height="46.5938" style="stroke: #A80036; stroke-width: 1.5;" width="172" x="374" y="34.7031"/><text fill="#000000" font-family="sans-serif" font-size="14" font-style="italic" lengthAdjust="spacingAndGlyphs" textLength="81" x="419.5" y="54.6982">«Frontend»</text><text fill="#000000" font-family="sans-serif" font-size="14" lengthAdjust="spacingAndGlyphs" textLength="158" x="381" y="70.9951">AuthInterceptorService</text><rect fill="#FEFECE" filter="url(#fj2bvjtq7mx8z)" height="46.5938" style="stroke: #A80036; stroke-width: 1.5;" width="172" x="374" y="818.9609"/><text fill="#000000" font-family="sans-serif" font-size="14" font-style="italic" lengthAdjust="spacingAndGlyphs" textLength="81" x="419.5" y="838.9561">«Frontend»</text><text fill="#000000" font-family="sans-serif" font-size="14" lengthAdjust="spacingAndGlyphs" textLength="158" x="381" y="855.2529">AuthInterceptorService</text><rect fill="#FEFECE" filter="url(#fj2bvjtq7mx8z)" height="46.5938" style="stroke: #A80036; stroke-width: 1.5;" width="103" x="560" y="34.7031"/><text fill="#000000" font-family="sans-serif" font-size="14" font-style="italic" lengthAdjust="spacingAndGlyphs" textLength="81" x="571" y="54.6982">«Frontend»</text><text fill="#000000" font-family="sans-serif" font-size="14" lengthAdjust="spacingAndGlyphs" textLength="89" x="567" y="70.9951">LocalStorage</text><rect fill="#FEFECE" filter="url(#fj2bvjtq7mx8z)" height="46.5938" style="stroke: #A80036; stroke-width: 1.5;" width="103" x="560" y="818.9609"/><text fill="#000000" font-family="sans-serif" font-size="14" font-style="italic" lengthAdjust="spacingAndGlyphs" textLength="81" x="571" y="838.9561">«Frontend»</text><text fill="#000000" font-family="sans-serif" font-size="14" lengthAdjust="spacingAndGlyphs" textLength="89" x="567" y="855.2529">LocalStorage</text><rect fill="#FEFECE" filter="url(#fj2bvjtq7mx8z)" height="46.5938" style="stroke: #A80036; stroke-width: 1.5;" width="127" x="677" y="34.7031"/><text fill="#000000" font-family="sans-serif" font-size="14" font-style="italic" lengthAdjust="spacingAndGlyphs" textLength="81" x="700" y="54.6982">«Frontend»</text><text fill="#000000" font-family="sans-serif" font-size="14" lengthAdjust="spacingAndGlyphs" textLength="113" x="684" y="70.9951">MessageService</text><rect fill="#FEFECE" filter="url(#fj2bvjtq7mx8z)" height="46.5938" style="stroke: #A80036; stroke-width: 1.5;" width="127" x="677" y="818.9609"/><text fill="#000000" font-family="sans-serif" font-size="14" font-style="italic" lengthAdjust="spacingAndGlyphs" textLength="81" x="700" y="838.9561">«Frontend»</text><text fill="#000000" font-family="sans-serif" font-size="14" lengthAdjust="spacingAndGlyphs" textLength="113" x="684" y="855.2529">MessageService</text><rect fill="#FEFECE" filter="url(#fj2bvjtq7mx8z)" height="46.5938" style="stroke: #A80036; stroke-width: 1.5;" width="225" x="818" y="34.7031"/><text fill="#000000" font-family="sans-serif" font-size="14" font-style="italic" lengthAdjust="spacingAndGlyphs" textLength="79" x="891" y="54.6982">«Backend»</text><text fill="#000000" font-family="sans-serif" font-size="14" lengthAdjust="spacingAndGlyphs" textLength="211" x="825" y="70.9951">JWT Authentication Middleware</text><rect fill="#FEFECE" filter="url(#fj2bvjtq7mx8z)" height="46.5938" style="stroke: #A80036; stroke-width: 1.5;" width="225" x="818" y="818.9609"/><text fill="#000000" font-family="sans-serif" font-size="14" font-style="italic" lengthAdjust="spacingAndGlyphs" textLength="79" x="891" y="838.9561">«Backend»</text><text fill="#000000" font-family="sans-serif" font-size="14" lengthAdjust="spacingAndGlyphs" textLength="211" x="825" y="855.2529">JWT Authentication Middleware</text><rect fill="#FEFECE" filter="url(#fj2bvjtq7mx8z)" height="46.5938" style="stroke: #A80036; stroke-width: 1.5;" width="114" x="1072.5" y="34.7031"/><text fill="#000000" font-family="sans-serif" font-size="14" font-style="italic" lengthAdjust="spacingAndGlyphs" textLength="79" x="1090" y="54.6982">«Backend»</text><text fill="#000000" font-family="sans-serif" font-size="14" lengthAdjust="spacingAndGlyphs" textLength="100" x="1079.5" y="70.9951">TaskController</text><rect fill="#FEFECE" filter="url(#fj2bvjtq7mx8z)" height="46.5938" style="stroke: #A80036; stroke-width: 1.5;" width="114" x="1072.5" y="818.9609"/><text fill="#000000" font-family="sans-serif" font-size="14" font-style="italic" lengthAdjust="spacingAndGlyphs" textLength="79" x="1090" y="838.9561">«Backend»</text><text fill="#000000" font-family="sans-serif" font-size="14" lengthAdjust="spacingAndGlyphs" textLength="100" x="1079.5" y="855.2529">TaskController</text><rect fill="#FEFECE" filter="url(#fj2bvjtq7mx8z)" height="46.5938" style="stroke: #A80036; stroke-width: 1.5;" width="97" x="1296" y="34.7031"/><text fill="#000000" font-family="sans-serif" font-size="14" font-style="italic" lengthAdjust="spacingAndGlyphs" textLength="79" x="1305" y="54.6982">«Backend»</text><text fill="#000000" font-family="sans-serif" font-size="14" lengthAdjust="spacingAndGlyphs" textLength="83" x="1303" y="70.9951">TaskService</text><rect fill="#FEFECE" filter="url(#fj2bvjtq7mx8z)" height="46.5938" style="stroke: #A80036; stroke-width: 1.5;" width="97" x="1296" y="818.9609"/><text fill="#000000" font-family="sans-serif" font-size="14" font-style="italic" lengthAdjust="spacingAndGlyphs" textLength="79" x="1305" y="838.9561">«Backend»</text><text fill="#000000" font-family="sans-serif" font-size="14" lengthAdjust="spacingAndGlyphs" textLength="83" x="1303" y="855.2529">TaskService</text><rect fill="#FFFFFF" filter="url(#fj2bvjtq7mx8z)" height="692.5313" style="stroke: #A80036; stroke-width: 1.0;" width="10" x="260" y="117.4297"/><rect fill="#FFFFFF" filter="url(#fj2bvjtq7mx8z)" height="87.3984" style="stroke: #A80036; stroke-width: 1.0;" width="10" x="457" y="185.6953"/><rect fill="#FFFFFF" filter="url(#fj2bvjtq7mx8z)" height="29.1328" style="stroke: #A80036; stroke-width: 1.0;" width="10" x="608.5" y="214.8281"/><rect fill="#FFFFFF" filter="url(#fj2bvjtq7mx8z)" height="29.1328" style="stroke: #A80036; stroke-width: 1.0;" width="10" x="737.5" y="496.1563"/><rect fill="#FFFFFF" filter="url(#fj2bvjtq7mx8z)" height="29.1328" style="stroke: #A80036; stroke-width: 1.0;" width="10" x="737.5" y="656.625"/><rect fill="#FFFFFF" filter="url(#fj2bvjtq7mx8z)" height="29.1328" style="stroke: #A80036; stroke-width: 1.0;" width="10" x="737.5" y="765.8281"/><rect fill="#FFFFFF" filter="url(#fj2bvjtq7mx8z)" height="53.2656" style="stroke: #A80036; stroke-width: 1.0;" width="10" x="927.5" y="273.0938"/><rect fill="#FFFFFF" filter="url(#fj2bvjtq7mx8z)" height="111.5313" style="stroke: #A80036; stroke-width: 1.0;" width="10" x="1126.5" y="326.3594"/><rect fill="#FFFFFF" filter="url(#fj2bvjtq7mx8z)" height="53.2656" style="stroke: #A80036; stroke-width: 1.0;" width="10" x="1341.5" y="355.4922"/><polygon fill="#A80036" points="248,113.4297,258,117.4297,248,121.4297,252,117.4297" style="stroke: #A80036; stroke-width: 1.0;"/><line style="stroke: #A80036; stroke-width: 1.0;" x1="27" x2="254" y1="117.4297" y2="117.4297"/><text fill="#000000" font-family="sans-serif" font-size="13" lengthAdjust="spacingAndGlyphs" textLength="214" x="34" y="112.3638">Access View Non-Approved Tasks</text><path d="M32,130.4297 L32,155.4297 L202,155.4297 L202,140.4297 L192,130.4297 L32,130.4297 " fill="#FBFB77" filter="url(#fj2bvjtq7mx8z)" style="stroke: #A80036; stroke-width: 1.0;"/><path d="M192,130.4297 L192,140.4297 L202,140.4297 L192,130.4297 " fill="#FBFB77" style="stroke: #A80036; stroke-width: 1.0;"/><text fill="#000000" font-family="sans-serif" font-size="13" lengthAdjust="spacingAndGlyphs" textLength="149" x="38" y="147.4966">User must be logged in</text><polygon fill="#A80036" points="445,181.6953,455,185.6953,445,189.6953,449,185.6953" style="stroke: #A80036; stroke-width: 1.0;"/><line style="stroke: #A80036; stroke-width: 1.0;" x1="270" x2="451" y1="185.6953" y2="185.6953"/><text fill="#000000" font-family="sans-serif" font-size="13" lengthAdjust="spacingAndGlyphs" textLength="168" x="277" y="180.6294">Prepare HTTP GET request</text><polygon fill="#A80036" points="596.5,210.8281,606.5,214.8281,596.5,218.8281,600.5,214.8281" style="stroke: #A80036; stroke-width: 1.0;"/><line style="stroke: #A80036; stroke-width: 1.0;" x1="467" x2="602.5" y1="214.8281" y2="214.8281"/><text fill="#000000" font-family="sans-serif" font-size="13" lengthAdjust="spacingAndGlyphs" textLength="119" x="474" y="209.7622">Retrieve JWT Token</text><polygon fill="#A80036" points="478,239.9609,468,243.9609,478,247.9609,474,243.9609" style="stroke: #A80036; stroke-width: 1.0;"/><line style="stroke: #A80036; stroke-width: 1.0; stroke-dasharray: 2.0,2.0;" x1="472" x2="612.5" y1="243.9609" y2="243.9609"/><text fill="#000000" font-family="sans-serif" font-size="13" lengthAdjust="spacingAndGlyphs" textLength="63" x="484" y="238.895">JWT Token</text><polygon fill="#A80036" points="915.5,269.0938,925.5,273.0938,915.5,277.0938,919.5,273.0938" style="stroke: #A80036; stroke-width: 1.0;"/><line style="stroke: #A80036; stroke-width: 1.0;" x1="462" x2="921.5" y1="273.0938" y2="273.0938"/><text fill="#000000" font-family="sans-serif" font-size="13" lengthAdjust="spacingAndGlyphs" textLength="270" x="469" y="268.0278">Forward request with Authorization header</text><path d="M204.5,288.0938 L268.5,288.0938 L268.5,295.0938 L258.5,305.0938 L204.5,305.0938 L204.5,288.0938 " fill="#EEEEEE" style="stroke: #000000; stroke-width: 1.0;"/><rect fill="none" height="514.8672" style="stroke: #000000; stroke-width: 2.0;" width="1212.5" x="204.5" y="288.0938"/><text fill="#000000" font-family="sans-serif" font-size="13" font-weight="bold" lengthAdjust="spacingAndGlyphs" textLength="19" x="219.5" y="301.1606">alt</text><text fill="#000000" font-family="sans-serif" font-size="11" font-weight="bold" lengthAdjust="spacingAndGlyphs" textLength="114" x="283.5" y="300.3042">[JWT Token Valid]</text><polygon fill="#A80036" points="1114.5,322.3594,1124.5,326.3594,1114.5,330.3594,1118.5,326.3594" style="stroke: #A80036; stroke-width: 1.0;"/><line style="stroke: #A80036; stroke-width: 1.0;" x1="932.5" x2="1120.5" y1="326.3594" y2="326.3594"/><text fill="#000000" font-family="sans-serif" font-size="13" lengthAdjust="spacingAndGlyphs" textLength="170" x="939.5" y="321.2935">Forward Validated Request</text><polygon fill="#A80036" points="1329.5,351.4922,1339.5,355.4922,1329.5,359.4922,1333.5,355.4922" style="stroke: #A80036; stroke-width: 1.0;"/><line style="stroke: #A80036; stroke-width: 1.0;" x1="1136.5" x2="1335.5" y1="355.4922" y2="355.4922"/><text fill="#000000" font-family="sans-serif" font-size="13" lengthAdjust="spacingAndGlyphs" textLength="186" x="1143.5" y="350.4263">GetTasksNonAprovedAsync()</text><path d="M214.5,370.4922 L278.5,370.4922 L278.5,377.4922 L268.5,387.4922 L214.5,387.4922 L214.5,370.4922 " fill="#EEEEEE" style="stroke: #000000; stroke-width: 1.0;"/><rect fill="none" height="323.2656" style="stroke: #000000; stroke-width: 2.0;" width="1192.5" x="214.5" y="370.4922"/><text fill="#000000" font-family="sans-serif" font-size="13" font-weight="bold" lengthAdjust="spacingAndGlyphs" textLength="19" x="229.5" y="383.5591">alt</text><text fill="#000000" font-family="sans-serif" font-size="11" font-weight="bold" lengthAdjust="spacingAndGlyphs" textLength="100" x="293.5" y="382.7026">[Backend Error]</text><polygon fill="#A80036" points="1147.5,404.7578,1137.5,408.7578,1147.5,412.7578,1143.5,408.7578" style="stroke: #A80036; stroke-width: 1.0;"/><line style="stroke: #A80036; stroke-width: 1.0; stroke-dasharray: 2.0,2.0;" x1="1141.5" x2="1345.5" y1="408.7578" y2="408.7578"/><text fill="#000000" font-family="sans-serif" font-size="13" lengthAdjust="spacingAndGlyphs" textLength="97" x="1153.5" y="403.6919">Error Response</text><polygon fill="#A80036" points="943.5,433.8906,933.5,437.8906,943.5,441.8906,939.5,437.8906" style="stroke: #A80036; stroke-width: 1.0;"/><line style="stroke: #A80036; stroke-width: 1.0; stroke-dasharray: 2.0,2.0;" x1="937.5" x2="1130.5" y1="437.8906" y2="437.8906"/><text fill="#000000" font-family="sans-serif" font-size="13" lengthAdjust="spacingAndGlyphs" textLength="97" x="949.5" y="432.8247">Error Response</text><polygon fill="#A80036" points="281,463.0234,271,467.0234,281,471.0234,277,467.0234" style="stroke: #A80036; stroke-width: 1.0;"/><line style="stroke: #A80036; stroke-width: 1.0; stroke-dasharray: 2.0,2.0;" x1="275" x2="931.5" y1="467.0234" y2="467.0234"/><text fill="#000000" font-family="sans-serif" font-size="13" lengthAdjust="spacingAndGlyphs" textLength="97" x="287" y="461.9575">Error Response</text><polygon fill="#A80036" points="725.5,492.1563,735.5,496.1563,725.5,500.1563,729.5,496.1563" style="stroke: #A80036; stroke-width: 1.0;"/><line style="stroke: #A80036; stroke-width: 1.0;" x1="270" x2="731.5" y1="496.1563" y2="496.1563"/><text fill="#000000" font-family="sans-serif" font-size="13" lengthAdjust="spacingAndGlyphs" textLength="147" x="277" y="491.0903">"Server error occurred"</text><polygon fill="#A80036" points="281,521.2891,271,525.2891,281,529.2891,277,525.2891" style="stroke: #A80036; stroke-width: 1.0;"/><line style="stroke: #A80036; stroke-width: 1.0;" x1="275" x2="741.5" y1="525.2891" y2="525.2891"/><text fill="#000000" font-family="sans-serif" font-size="13" lengthAdjust="spacingAndGlyphs" textLength="144" x="287" y="520.2231">Display error message</text><line style="stroke: #000000; stroke-width: 1.0; stroke-dasharray: 2.0,2.0;" x1="214.5" x2="1407" y1="534.2891" y2="534.2891"/><text fill="#000000" font-family="sans-serif" font-size="11" font-weight="bold" lengthAdjust="spacingAndGlyphs" textLength="121" x="219.5" y="544.4995">[No Backend Error]</text><polygon fill="#A80036" points="1142.5,565.2266,1132.5,569.2266,1142.5,573.2266,1138.5,569.2266" style="stroke: #A80036; stroke-width: 1.0;"/><line style="stroke: #A80036; stroke-width: 1.0; stroke-dasharray: 2.0,2.0;" x1="1136.5" x2="1345.5" y1="569.2266" y2="569.2266"/><text fill="#000000" font-family="sans-serif" font-size="13" lengthAdjust="spacingAndGlyphs" textLength="132" x="1148.5" y="564.1606">Non-Approved Tasks</text><polygon fill="#A80036" points="943.5,594.3594,933.5,598.3594,943.5,602.3594,939.5,598.3594" style="stroke: #A80036; stroke-width: 1.0;"/><line style="stroke: #A80036; stroke-width: 1.0; stroke-dasharray: 2.0,2.0;" x1="937.5" x2="1130.5" y1="598.3594" y2="598.3594"/><text fill="#000000" font-family="sans-serif" font-size="13" lengthAdjust="spacingAndGlyphs" textLength="64" x="949.5" y="593.2935">Task Data</text><polygon fill="#A80036" points="281,623.4922,271,627.4922,281,631.4922,277,627.4922" style="stroke: #A80036; stroke-width: 1.0;"/><line style="stroke: #A80036; stroke-width: 1.0; stroke-dasharray: 2.0,2.0;" x1="275" x2="931.5" y1="627.4922" y2="627.4922"/><text fill="#000000" font-family="sans-serif" font-size="13" lengthAdjust="spacingAndGlyphs" textLength="64" x="287" y="622.4263">Task Data</text><polygon fill="#A80036" points="725.5,652.625,735.5,656.625,725.5,660.625,729.5,656.625" style="stroke: #A80036; stroke-width: 1.0;"/><line style="stroke: #A80036; stroke-width: 1.0;" x1="270" x2="731.5" y1="656.625" y2="656.625"/><text fill="#000000" font-family="sans-serif" font-size="13" lengthAdjust="spacingAndGlyphs" textLength="173" x="277" y="651.5591">"Tasks loaded successfully"</text><polygon fill="#A80036" points="281,681.7578,271,685.7578,281,689.7578,277,685.7578" style="stroke: #A80036; stroke-width: 1.0;"/><line style="stroke: #A80036; stroke-width: 1.0;" x1="275" x2="741.5" y1="685.7578" y2="685.7578"/><text fill="#000000" font-family="sans-serif" font-size="13" lengthAdjust="spacingAndGlyphs" textLength="164" x="287" y="680.6919">Display success message</text><line style="stroke: #000000; stroke-width: 1.0; stroke-dasharray: 2.0,2.0;" x1="204.5" x2="1417" y1="701.7578" y2="701.7578"/><text fill="#000000" font-family="sans-serif" font-size="11" font-weight="bold" lengthAdjust="spacingAndGlyphs" textLength="125" x="209.5" y="711.9683">[JWT Token Invalid]</text><polygon fill="#A80036" points="281,732.6953,271,736.6953,281,740.6953,277,736.6953" style="stroke: #A80036; stroke-width: 1.0;"/><line style="stroke: #A80036; stroke-width: 1.0; stroke-dasharray: 2.0,2.0;" x1="275" x2="931.5" y1="736.6953" y2="736.6953"/><text fill="#000000" font-family="sans-serif" font-size="13" lengthAdjust="spacingAndGlyphs" textLength="152" x="287" y="731.6294">Unauthorized Response</text><polygon fill="#A80036" points="725.5,761.8281,735.5,765.8281,725.5,769.8281,729.5,765.8281" style="stroke: #A80036; stroke-width: 1.0;"/><line style="stroke: #A80036; stroke-width: 1.0;" x1="270" x2="731.5" y1="765.8281" y2="765.8281"/><text fill="#000000" font-family="sans-serif" font-size="13" lengthAdjust="spacingAndGlyphs" textLength="138" x="277" y="760.7622">"Authentication error"</text><polygon fill="#A80036" points="281,790.9609,271,794.9609,281,798.9609,277,794.9609" style="stroke: #A80036; stroke-width: 1.0;"/><line style="stroke: #A80036; stroke-width: 1.0;" x1="275" x2="741.5" y1="794.9609" y2="794.9609"/><text fill="#000000" font-family="sans-serif" font-size="13" lengthAdjust="spacingAndGlyphs" textLength="240" x="287" y="789.895">Display authentication error message</text><!--MD5=[d259f0de89d5fdb796cddb3da6fbfcaf]
@startuml
actor User
participant "Frontend\n(Angular)" as Frontend
participant "AuthInterceptorService" as AuthInterceptor <<Frontend>>
participant "LocalStorage" as LocalStorage <<Frontend>>
participant "MessageService" as MessageService <<Frontend>>
participant "JWT Authentication Middleware" as JwtAuth <<Backend>>
participant "TaskController" as Controller <<Backend>>
participant "TaskService" as TaskService <<Backend>>

User -> Frontend: Access View Non-Approved Tasks
note right of User: User must be logged in
activate Frontend

Frontend -> AuthInterceptor: Prepare HTTP GET request
activate AuthInterceptor
AuthInterceptor -> LocalStorage: Retrieve JWT Token
activate LocalStorage
LocalStorage - -> AuthInterceptor: JWT Token
deactivate LocalStorage

AuthInterceptor -> JwtAuth: Forward request with Authorization header
deactivate AuthInterceptor
activate JwtAuth

alt JWT Token Valid
    JwtAuth -> Controller: Forward Validated Request
    deactivate JwtAuth
    activate Controller

    Controller -> TaskService: GetTasksNonAprovedAsync()
    activate TaskService

    alt Backend Error
        TaskService - -> Controller: Error Response
        deactivate TaskService

        Controller - -> JwtAuth: Error Response
        deactivate Controller

        JwtAuth - -> Frontend: Error Response
        deactivate JwtAuth

        Frontend -> MessageService: "Server error occurred"
        activate MessageService
        MessageService -> Frontend: Display error message
        deactivate MessageService
    else No Backend Error
        TaskService - -> Controller: Non-Approved Tasks
        deactivate TaskService

        Controller - -> JwtAuth: Task Data
        deactivate Controller

        JwtAuth - -> Frontend: Task Data
        deactivate JwtAuth

        Frontend -> MessageService: "Tasks loaded successfully"
        activate MessageService
        MessageService -> Frontend: Display success message
        deactivate MessageService
    end

else JWT Token Invalid
    JwtAuth - -> Frontend: Unauthorized Response
    deactivate JwtAuth

    Frontend -> MessageService: "Authentication error"
    activate MessageService
    MessageService -> Frontend: Display authentication error message
    deactivate MessageService
end

deactivate Frontend
@enduml

PlantUML version 1.2020.02(Sun Mar 01 10:22:07 UTC 2020)
(GPL source distribution)
Java Runtime: OpenJDK Runtime Environment
JVM: OpenJDK 64-Bit Server VM
Java Version: 11.0.21+9
Operating System: Linux
Default Encoding: UTF-8
Language: en
Country: null
--></g></svg>