<?xml version="1.0" encoding="UTF-8" standalone="no"?><svg xmlns="http://www.w3.org/2000/svg" xmlns:xlink="http://www.w3.org/1999/xlink" contentScriptType="application/ecmascript" contentStyleType="text/css" height="1346px" preserveAspectRatio="none" style="width:3350px;height:1346px;" version="1.1" viewBox="0 0 3350 1346" width="3350px" zoomAndPan="magnify"><defs><filter height="300%" id="fd71837gnc3th" width="300%" x="-1" y="-1"><feGaussianBlur result="blurOut" stdDeviation="2.0"/><feColorMatrix in="blurOut" result="blurOut2" type="matrix" values="0 0 0 0 0 0 0 0 0 0 0 0 0 0 0 0 0 0 .4 0"/><feOffset dx="4.0" dy="4.0" in="blurOut2" result="blurOut3"/><feBlend in="SourceGraphic" in2="blurOut3" mode="normal"/></filter></defs><g><rect fill="#FFFFFF" filter="url(#fd71837gnc3th)" height="1129.5234" style="stroke: #A80036; stroke-width: 1.0;" width="10" x="260" y="117.4297"/><rect fill="#FFFFFF" filter="url(#fd71837gnc3th)" height="718.3203" style="stroke: #A80036; stroke-width: 1.0;" width="10" x="476" y="185.6953"/><rect fill="#FFFFFF" filter="url(#fd71837gnc3th)" height="87.3984" style="stroke: #A80036; stroke-width: 1.0;" width="10" x="815" y="214.8281"/><rect fill="#FFFFFF" filter="url(#fd71837gnc3th)" height="29.1328" style="stroke: #A80036; stroke-width: 1.0;" width="10" x="966.5" y="243.9609"/><rect fill="#FFFFFF" filter="url(#fd71837gnc3th)" height="29.1328" style="stroke: #A80036; stroke-width: 1.0;" width="10" x="1095.5" y="933.1484"/><rect fill="#FFFFFF" filter="url(#fd71837gnc3th)" height="29.1328" style="stroke: #A80036; stroke-width: 1.0;" width="10" x="1095.5" y="1064.4844"/><rect fill="#FFFFFF" filter="url(#fd71837gnc3th)" height="29.1328" style="stroke: #A80036; stroke-width: 1.0;" width="10" x="1095.5" y="1202.8203"/><rect fill="#FFFFFF" filter="url(#fd71837gnc3th)" height="53.2656" style="stroke: #A80036; stroke-width: 1.0;" width="10" x="1285.5" y="302.2266"/><rect fill="#FFFFFF" filter="url(#fd71837gnc3th)" height="519.3906" style="stroke: #A80036; stroke-width: 1.0;" width="10" x="1484.5" y="355.4922"/><rect fill="#FFFFFF" filter="url(#fd71837gnc3th)" height="436.9922" style="stroke: #A80036; stroke-width: 1.0;" width="10" x="1825.5" y="408.7578"/><rect fill="#FFFFFF" filter="url(#fd71837gnc3th)" height="378.7266" style="stroke: #A80036; stroke-width: 1.0;" width="10" x="2202.5" y="437.8906"/><rect fill="#FFFFFF" filter="url(#fd71837gnc3th)" height="145.6641" style="stroke: #A80036; stroke-width: 1.0;" width="10" x="2366.5" y="467.0234"/><rect fill="#FFFFFF" filter="url(#fd71837gnc3th)" height="87.3984" style="stroke: #A80036; stroke-width: 1.0;" width="10" x="2562.5" y="496.1563"/><rect fill="#FFFFFF" filter="url(#fd71837gnc3th)" height="145.6641" style="stroke: #A80036; stroke-width: 1.0;" width="10" x="2769" y="641.8203"/><rect fill="#FFFFFF" filter="url(#fd71837gnc3th)" height="87.3984" style="stroke: #A80036; stroke-width: 1.0;" width="10" x="2986" y="670.9531"/><rect fill="#FFFFFF" filter="url(#fd71837gnc3th)" height="29.1328" style="stroke: #A80036; stroke-width: 1.0;" width="10" x="3269" y="525.2891"/><rect fill="#FFFFFF" filter="url(#fd71837gnc3th)" height="29.1328" style="stroke: #A80036; stroke-width: 1.0;" width="10" x="3269" y="700.0859"/><rect fill="#FFFFFF" filter="url(#fd71837gnc3th)" height="922.7266" style="stroke: #000000; stroke-width: 2.0;" width="3235.5" x="103" y="317.2266"/><rect fill="#FFFFFF" filter="url(#fd71837gnc3th)" height="731.125" style="stroke: #000000; stroke-width: 2.0;" width="3215.5" x="113" y="370.4922"/><rect fill="#FFFFFF" height="131.3359" style="stroke: none; stroke-width: 1.0;" width="3215.5" x="113" y="970.2813"/><rect fill="#FFFFFF" height="131.3359" style="stroke: none; stroke-width: 1.0;" width="3235.5" x="103" y="1108.6172"/><line style="stroke: #A80036; stroke-width: 1.0; stroke-dasharray: 5.0,5.0;" x1="27" x2="27" y1="86.2969" y2="1256.9531"/><line style="stroke: #A80036; stroke-width: 1.0; stroke-dasharray: 5.0,5.0;" x1="265" x2="265" y1="86.2969" y2="1256.9531"/><line style="stroke: #A80036; stroke-width: 1.0; stroke-dasharray: 5.0,5.0;" x1="480.5" x2="480.5" y1="86.2969" y2="1256.9531"/><line style="stroke: #A80036; stroke-width: 1.0; stroke-dasharray: 5.0,5.0;" x1="820" x2="820" y1="86.2969" y2="1256.9531"/><line style="stroke: #A80036; stroke-width: 1.0; stroke-dasharray: 5.0,5.0;" x1="971" x2="971" y1="86.2969" y2="1256.9531"/><line style="stroke: #A80036; stroke-width: 1.0; stroke-dasharray: 5.0,5.0;" x1="1100" x2="1100" y1="86.2969" y2="1256.9531"/><line style="stroke: #A80036; stroke-width: 1.0; stroke-dasharray: 5.0,5.0;" x1="1290" x2="1290" y1="86.2969" y2="1256.9531"/><line style="stroke: #A80036; stroke-width: 1.0; stroke-dasharray: 5.0,5.0;" x1="1489.5" x2="1489.5" y1="86.2969" y2="1256.9531"/><line style="stroke: #A80036; stroke-width: 1.0; stroke-dasharray: 5.0,5.0;" x1="1830.5" x2="1830.5" y1="86.2969" y2="1256.9531"/><line style="stroke: #A80036; stroke-width: 1.0; stroke-dasharray: 5.0,5.0;" x1="2207" x2="2207" y1="86.2969" y2="1256.9531"/><line style="stroke: #A80036; stroke-width: 1.0; stroke-dasharray: 5.0,5.0;" x1="2371.5" x2="2371.5" y1="86.2969" y2="1256.9531"/><line style="stroke: #A80036; stroke-width: 1.0; stroke-dasharray: 5.0,5.0;" x1="2567.5" x2="2567.5" y1="86.2969" y2="1256.9531"/><line style="stroke: #A80036; stroke-width: 1.0; stroke-dasharray: 5.0,5.0;" x1="2773.5" x2="2773.5" y1="86.2969" y2="1256.9531"/><line style="stroke: #A80036; stroke-width: 1.0; stroke-dasharray: 5.0,5.0;" x1="2990.5" x2="2990.5" y1="86.2969" y2="1256.9531"/><line style="stroke: #A80036; stroke-width: 1.0; stroke-dasharray: 5.0,5.0;" x1="3273.5" x2="3273.5" y1="86.2969" y2="1256.9531"/><text fill="#000000" font-family="sans-serif" font-size="14" lengthAdjust="spacingAndGlyphs" textLength="32" x="8" y="82.9951">User</text><ellipse cx="27" cy="13" fill="#FEFECE" filter="url(#fd71837gnc3th)" rx="8" ry="8" style="stroke: #A80036; stroke-width: 2.0;"/><path d="M27,21 L27,48 M14,29 L40,29 M27,48 L14,63 M27,48 L40,63 " fill="none" filter="url(#fd71837gnc3th)" style="stroke: #A80036; stroke-width: 2.0;"/><text fill="#000000" font-family="sans-serif" font-size="14" lengthAdjust="spacingAndGlyphs" textLength="32" x="8" y="1268.9482">User</text><ellipse cx="27" cy="1282.25" fill="#FEFECE" filter="url(#fd71837gnc3th)" rx="8" ry="8" style="stroke: #A80036; stroke-width: 2.0;"/><path d="M27,1290.25 L27,1317.25 M14,1298.25 L40,1298.25 M27,1317.25 L14,1332.25 M27,1317.25 L40,1332.25 " fill="none" filter="url(#fd71837gnc3th)" style="stroke: #A80036; stroke-width: 2.0;"/><rect fill="#FEFECE" filter="url(#fd71837gnc3th)" height="62.8906" style="stroke: #A80036; stroke-width: 1.5;" width="280" x="123" y="18.4063"/><text fill="#000000" font-family="sans-serif" font-size="14" font-style="italic" lengthAdjust="spacingAndGlyphs" textLength="81" x="222.5" y="38.4014">«Frontend»</text><text fill="#000000" font-family="sans-serif" font-size="14" lengthAdjust="spacingAndGlyphs" textLength="52" x="237" y="54.6982">Angular</text><text fill="#000000" font-family="sans-serif" font-size="14" lengthAdjust="spacingAndGlyphs" textLength="266" x="130" y="70.9951">View Non-Approved Tasks Component</text><rect fill="#FEFECE" filter="url(#fd71837gnc3th)" height="62.8906" style="stroke: #A80036; stroke-width: 1.5;" width="280" x="123" y="1255.9531"/><text fill="#000000" font-family="sans-serif" font-size="14" font-style="italic" lengthAdjust="spacingAndGlyphs" textLength="81" x="222.5" y="1275.9482">«Frontend»</text><text fill="#000000" font-family="sans-serif" font-size="14" lengthAdjust="spacingAndGlyphs" textLength="52" x="237" y="1292.2451">Angular</text><text fill="#000000" font-family="sans-serif" font-size="14" lengthAdjust="spacingAndGlyphs" textLength="266" x="130" y="1308.542">View Non-Approved Tasks Component</text><rect fill="#FEFECE" filter="url(#fd71837gnc3th)" height="46.5938" style="stroke: #A80036; stroke-width: 1.5;" width="95" x="431.5" y="34.7031"/><text fill="#000000" font-family="sans-serif" font-size="14" font-style="italic" lengthAdjust="spacingAndGlyphs" textLength="81" x="438.5" y="54.6982">«Frontend»</text><text fill="#000000" font-family="sans-serif" font-size="14" lengthAdjust="spacingAndGlyphs" textLength="80" x="439" y="70.9951">HTTP Client</text><rect fill="#FEFECE" filter="url(#fd71837gnc3th)" height="46.5938" style="stroke: #A80036; stroke-width: 1.5;" width="95" x="431.5" y="1255.9531"/><text fill="#000000" font-family="sans-serif" font-size="14" font-style="italic" lengthAdjust="spacingAndGlyphs" textLength="81" x="438.5" y="1275.9482">«Frontend»</text><text fill="#000000" font-family="sans-serif" font-size="14" lengthAdjust="spacingAndGlyphs" textLength="80" x="439" y="1292.2451">HTTP Client</text><rect fill="#FEFECE" filter="url(#fd71837gnc3th)" height="46.5938" style="stroke: #A80036; stroke-width: 1.5;" width="172" x="732" y="34.7031"/><text fill="#000000" font-family="sans-serif" font-size="14" font-style="italic" lengthAdjust="spacingAndGlyphs" textLength="81" x="777.5" y="54.6982">«Frontend»</text><text fill="#000000" font-family="sans-serif" font-size="14" lengthAdjust="spacingAndGlyphs" textLength="158" x="739" y="70.9951">AuthInterceptorService</text><rect fill="#FEFECE" filter="url(#fd71837gnc3th)" height="46.5938" style="stroke: #A80036; stroke-width: 1.5;" width="172" x="732" y="1255.9531"/><text fill="#000000" font-family="sans-serif" font-size="14" font-style="italic" lengthAdjust="spacingAndGlyphs" textLength="81" x="777.5" y="1275.9482">«Frontend»</text><text fill="#000000" font-family="sans-serif" font-size="14" lengthAdjust="spacingAndGlyphs" textLength="158" x="739" y="1292.2451">AuthInterceptorService</text><rect fill="#FEFECE" filter="url(#fd71837gnc3th)" height="46.5938" style="stroke: #A80036; stroke-width: 1.5;" width="103" x="918" y="34.7031"/><text fill="#000000" font-family="sans-serif" font-size="14" font-style="italic" lengthAdjust="spacingAndGlyphs" textLength="81" x="929" y="54.6982">«Frontend»</text><text fill="#000000" font-family="sans-serif" font-size="14" lengthAdjust="spacingAndGlyphs" textLength="89" x="925" y="70.9951">LocalStorage</text><rect fill="#FEFECE" filter="url(#fd71837gnc3th)" height="46.5938" style="stroke: #A80036; stroke-width: 1.5;" width="103" x="918" y="1255.9531"/><text fill="#000000" font-family="sans-serif" font-size="14" font-style="italic" lengthAdjust="spacingAndGlyphs" textLength="81" x="929" y="1275.9482">«Frontend»</text><text fill="#000000" font-family="sans-serif" font-size="14" lengthAdjust="spacingAndGlyphs" textLength="89" x="925" y="1292.2451">LocalStorage</text><rect fill="#FEFECE" filter="url(#fd71837gnc3th)" height="46.5938" style="stroke: #A80036; stroke-width: 1.5;" width="127" x="1035" y="34.7031"/><text fill="#000000" font-family="sans-serif" font-size="14" font-style="italic" lengthAdjust="spacingAndGlyphs" textLength="81" x="1058" y="54.6982">«Frontend»</text><text fill="#000000" font-family="sans-serif" font-size="14" lengthAdjust="spacingAndGlyphs" textLength="113" x="1042" y="70.9951">MessageService</text><rect fill="#FEFECE" filter="url(#fd71837gnc3th)" height="46.5938" style="stroke: #A80036; stroke-width: 1.5;" width="127" x="1035" y="1255.9531"/><text fill="#000000" font-family="sans-serif" font-size="14" font-style="italic" lengthAdjust="spacingAndGlyphs" textLength="81" x="1058" y="1275.9482">«Frontend»</text><text fill="#000000" font-family="sans-serif" font-size="14" lengthAdjust="spacingAndGlyphs" textLength="113" x="1042" y="1292.2451">MessageService</text><rect fill="#FEFECE" filter="url(#fd71837gnc3th)" height="46.5938" style="stroke: #A80036; stroke-width: 1.5;" width="225" x="1176" y="34.7031"/><text fill="#000000" font-family="sans-serif" font-size="14" font-style="italic" lengthAdjust="spacingAndGlyphs" textLength="79" x="1249" y="54.6982">«Backend»</text><text fill="#000000" font-family="sans-serif" font-size="14" lengthAdjust="spacingAndGlyphs" textLength="211" x="1183" y="70.9951">JWT Authentication Middleware</text><rect fill="#FEFECE" filter="url(#fd71837gnc3th)" height="46.5938" style="stroke: #A80036; stroke-width: 1.5;" width="225" x="1176" y="1255.9531"/><text fill="#000000" font-family="sans-serif" font-size="14" font-style="italic" lengthAdjust="spacingAndGlyphs" textLength="79" x="1249" y="1275.9482">«Backend»</text><text fill="#000000" font-family="sans-serif" font-size="14" lengthAdjust="spacingAndGlyphs" textLength="211" x="1183" y="1292.2451">JWT Authentication Middleware</text><rect fill="#FEFECE" filter="url(#fd71837gnc3th)" height="46.5938" style="stroke: #A80036; stroke-width: 1.5;" width="114" x="1430.5" y="34.7031"/><text fill="#000000" font-family="sans-serif" font-size="14" font-style="italic" lengthAdjust="spacingAndGlyphs" textLength="79" x="1448" y="54.6982">«Backend»</text><text fill="#000000" font-family="sans-serif" font-size="14" lengthAdjust="spacingAndGlyphs" textLength="100" x="1437.5" y="70.9951">TaskController</text><rect fill="#FEFECE" filter="url(#fd71837gnc3th)" height="46.5938" style="stroke: #A80036; stroke-width: 1.5;" width="114" x="1430.5" y="1255.9531"/><text fill="#000000" font-family="sans-serif" font-size="14" font-style="italic" lengthAdjust="spacingAndGlyphs" textLength="79" x="1448" y="1275.9482">«Backend»</text><text fill="#000000" font-family="sans-serif" font-size="14" lengthAdjust="spacingAndGlyphs" textLength="100" x="1437.5" y="1292.2451">TaskController</text><rect fill="#FEFECE" filter="url(#fd71837gnc3th)" height="46.5938" style="stroke: #A80036; stroke-width: 1.5;" width="100" x="1778.5" y="34.7031"/><text fill="#000000" font-family="sans-serif" font-size="14" font-style="italic" lengthAdjust="spacingAndGlyphs" textLength="79" x="1789" y="54.6982">«Backend»</text><text fill="#000000" font-family="sans-serif" font-size="14" lengthAdjust="spacingAndGlyphs" textLength="86" x="1785.5" y="70.9951">ITaskService</text><rect fill="#FEFECE" filter="url(#fd71837gnc3th)" height="46.5938" style="stroke: #A80036; stroke-width: 1.5;" width="100" x="1778.5" y="1255.9531"/><text fill="#000000" font-family="sans-serif" font-size="14" font-style="italic" lengthAdjust="spacingAndGlyphs" textLength="79" x="1789" y="1275.9482">«Backend»</text><text fill="#000000" font-family="sans-serif" font-size="14" lengthAdjust="spacingAndGlyphs" textLength="86" x="1785.5" y="1292.2451">ITaskService</text><rect fill="#FEFECE" filter="url(#fd71837gnc3th)" height="46.5938" style="stroke: #A80036; stroke-width: 1.5;" width="97" x="2157" y="34.7031"/><text fill="#000000" font-family="sans-serif" font-size="14" font-style="italic" lengthAdjust="spacingAndGlyphs" textLength="79" x="2166" y="54.6982">«Backend»</text><text fill="#000000" font-family="sans-serif" font-size="14" lengthAdjust="spacingAndGlyphs" textLength="83" x="2164" y="70.9951">TaskService</text><rect fill="#FEFECE" filter="url(#fd71837gnc3th)" height="46.5938" style="stroke: #A80036; stroke-width: 1.5;" width="97" x="2157" y="1255.9531"/><text fill="#000000" font-family="sans-serif" font-size="14" font-style="italic" lengthAdjust="spacingAndGlyphs" textLength="79" x="2166" y="1275.9482">«Backend»</text><text fill="#000000" font-family="sans-serif" font-size="14" lengthAdjust="spacingAndGlyphs" textLength="83" x="2164" y="1292.2451">TaskService</text><rect fill="#FEFECE" filter="url(#fd71837gnc3th)" height="62.8906" style="stroke: #A80036; stroke-width: 1.5;" width="182" x="2278.5" y="18.4063"/><text fill="#000000" font-family="sans-serif" font-size="14" font-style="italic" lengthAdjust="spacingAndGlyphs" textLength="79" x="2330" y="38.4014">«Backend»</text><text fill="#000000" font-family="sans-serif" font-size="14" lengthAdjust="spacingAndGlyphs" textLength="168" x="2285.5" y="54.6982">TaskVigilanceRepository</text><text fill="#000000" font-family="sans-serif" font-size="14" lengthAdjust="spacingAndGlyphs" textLength="60" x="2339.5" y="70.9951">Interface</text><rect fill="#FEFECE" filter="url(#fd71837gnc3th)" height="62.8906" style="stroke: #A80036; stroke-width: 1.5;" width="182" x="2278.5" y="1255.9531"/><text fill="#000000" font-family="sans-serif" font-size="14" font-style="italic" lengthAdjust="spacingAndGlyphs" textLength="79" x="2330" y="1275.9482">«Backend»</text><text fill="#000000" font-family="sans-serif" font-size="14" lengthAdjust="spacingAndGlyphs" textLength="168" x="2285.5" y="1292.2451">TaskVigilanceRepository</text><text fill="#000000" font-family="sans-serif" font-size="14" lengthAdjust="spacingAndGlyphs" textLength="60" x="2339.5" y="1308.542">Interface</text><rect fill="#FEFECE" filter="url(#fd71837gnc3th)" height="46.5938" style="stroke: #A80036; stroke-width: 1.5;" width="182" x="2474.5" y="34.7031"/><text fill="#000000" font-family="sans-serif" font-size="14" font-style="italic" lengthAdjust="spacingAndGlyphs" textLength="79" x="2526" y="54.6982">«Backend»</text><text fill="#000000" font-family="sans-serif" font-size="14" lengthAdjust="spacingAndGlyphs" textLength="168" x="2481.5" y="70.9951">TaskVigilanceRepository</text><rect fill="#FEFECE" filter="url(#fd71837gnc3th)" height="46.5938" style="stroke: #A80036; stroke-width: 1.5;" width="182" x="2474.5" y="1255.9531"/><text fill="#000000" font-family="sans-serif" font-size="14" font-style="italic" lengthAdjust="spacingAndGlyphs" textLength="79" x="2526" y="1275.9482">«Backend»</text><text fill="#000000" font-family="sans-serif" font-size="14" lengthAdjust="spacingAndGlyphs" textLength="168" x="2481.5" y="1292.2451">TaskVigilanceRepository</text><rect fill="#FEFECE" filter="url(#fd71837gnc3th)" height="62.8906" style="stroke: #A80036; stroke-width: 1.5;" width="203" x="2670.5" y="18.4063"/><text fill="#000000" font-family="sans-serif" font-size="14" font-style="italic" lengthAdjust="spacingAndGlyphs" textLength="79" x="2732.5" y="38.4014">«Backend»</text><text fill="#000000" font-family="sans-serif" font-size="14" lengthAdjust="spacingAndGlyphs" textLength="189" x="2677.5" y="54.6982">TaskPickDeliveryRepository</text><text fill="#000000" font-family="sans-serif" font-size="14" lengthAdjust="spacingAndGlyphs" textLength="60" x="2742" y="70.9951">Interface</text><rect fill="#FEFECE" filter="url(#fd71837gnc3th)" height="62.8906" style="stroke: #A80036; stroke-width: 1.5;" width="203" x="2670.5" y="1255.9531"/><text fill="#000000" font-family="sans-serif" font-size="14" font-style="italic" lengthAdjust="spacingAndGlyphs" textLength="79" x="2732.5" y="1275.9482">«Backend»</text><text fill="#000000" font-family="sans-serif" font-size="14" lengthAdjust="spacingAndGlyphs" textLength="189" x="2677.5" y="1292.2451">TaskPickDeliveryRepository</text><text fill="#000000" font-family="sans-serif" font-size="14" lengthAdjust="spacingAndGlyphs" textLength="60" x="2742" y="1308.542">Interface</text><rect fill="#FEFECE" filter="url(#fd71837gnc3th)" height="46.5938" style="stroke: #A80036; stroke-width: 1.5;" width="203" x="2887.5" y="34.7031"/><text fill="#000000" font-family="sans-serif" font-size="14" font-style="italic" lengthAdjust="spacingAndGlyphs" textLength="79" x="2949.5" y="54.6982">«Backend»</text><text fill="#000000" font-family="sans-serif" font-size="14" lengthAdjust="spacingAndGlyphs" textLength="189" x="2894.5" y="70.9951">TaskPickDeliveryRepository</text><rect fill="#FEFECE" filter="url(#fd71837gnc3th)" height="46.5938" style="stroke: #A80036; stroke-width: 1.5;" width="203" x="2887.5" y="1255.9531"/><text fill="#000000" font-family="sans-serif" font-size="14" font-style="italic" lengthAdjust="spacingAndGlyphs" textLength="79" x="2949.5" y="1275.9482">«Backend»</text><text fill="#000000" font-family="sans-serif" font-size="14" lengthAdjust="spacingAndGlyphs" textLength="189" x="2894.5" y="1292.2451">TaskPickDeliveryRepository</text><text fill="#000000" font-family="sans-serif" font-size="14" font-style="italic" lengthAdjust="spacingAndGlyphs" textLength="83" x="3229.5" y="66.6982">«Database»</text><text fill="#000000" font-family="sans-serif" font-size="14" lengthAdjust="spacingAndGlyphs" textLength="69" x="3236.5" y="82.9951">MongoDB</text><path d="M3256,17.7031 C3256,7.7031 3274,7.7031 3274,7.7031 C3274,7.7031 3292,7.7031 3292,17.7031 L3292,43.7031 C3292,53.7031 3274,53.7031 3274,53.7031 C3274,53.7031 3256,53.7031 3256,43.7031 L3256,17.7031 " fill="#FEFECE" filter="url(#fd71837gnc3th)" style="stroke: #000000; stroke-width: 1.5;"/><path d="M3256,17.7031 C3256,27.7031 3274,27.7031 3274,27.7031 C3274,27.7031 3292,27.7031 3292,17.7031 " fill="none" style="stroke: #000000; stroke-width: 1.5;"/><text fill="#000000" font-family="sans-serif" font-size="14" font-style="italic" lengthAdjust="spacingAndGlyphs" textLength="83" x="3229.5" y="1268.9482">«Database»</text><text fill="#000000" font-family="sans-serif" font-size="14" lengthAdjust="spacingAndGlyphs" textLength="69" x="3236.5" y="1285.2451">MongoDB</text><path d="M3256,1298.5469 C3256,1288.5469 3274,1288.5469 3274,1288.5469 C3274,1288.5469 3292,1288.5469 3292,1298.5469 L3292,1324.5469 C3292,1334.5469 3274,1334.5469 3274,1334.5469 C3274,1334.5469 3256,1334.5469 3256,1324.5469 L3256,1298.5469 " fill="#FEFECE" filter="url(#fd71837gnc3th)" style="stroke: #000000; stroke-width: 1.5;"/><path d="M3256,1298.5469 C3256,1308.5469 3274,1308.5469 3274,1308.5469 C3274,1308.5469 3292,1308.5469 3292,1298.5469 " fill="none" style="stroke: #000000; stroke-width: 1.5;"/><rect fill="#FFFFFF" filter="url(#fd71837gnc3th)" height="1129.5234" style="stroke: #A80036; stroke-width: 1.0;" width="10" x="260" y="117.4297"/><rect fill="#FFFFFF" filter="url(#fd71837gnc3th)" height="718.3203" style="stroke: #A80036; stroke-width: 1.0;" width="10" x="476" y="185.6953"/><rect fill="#FFFFFF" filter="url(#fd71837gnc3th)" height="87.3984" style="stroke: #A80036; stroke-width: 1.0;" width="10" x="815" y="214.8281"/><rect fill="#FFFFFF" filter="url(#fd71837gnc3th)" height="29.1328" style="stroke: #A80036; stroke-width: 1.0;" width="10" x="966.5" y="243.9609"/><rect fill="#FFFFFF" filter="url(#fd71837gnc3th)" height="29.1328" style="stroke: #A80036; stroke-width: 1.0;" width="10" x="1095.5" y="933.1484"/><rect fill="#FFFFFF" filter="url(#fd71837gnc3th)" height="29.1328" style="stroke: #A80036; stroke-width: 1.0;" width="10" x="1095.5" y="1064.4844"/><rect fill="#FFFFFF" filter="url(#fd71837gnc3th)" height="29.1328" style="stroke: #A80036; stroke-width: 1.0;" width="10" x="1095.5" y="1202.8203"/><rect fill="#FFFFFF" filter="url(#fd71837gnc3th)" height="53.2656" style="stroke: #A80036; stroke-width: 1.0;" width="10" x="1285.5" y="302.2266"/><rect fill="#FFFFFF" filter="url(#fd71837gnc3th)" height="519.3906" style="stroke: #A80036; stroke-width: 1.0;" width="10" x="1484.5" y="355.4922"/><rect fill="#FFFFFF" filter="url(#fd71837gnc3th)" height="436.9922" style="stroke: #A80036; stroke-width: 1.0;" width="10" x="1825.5" y="408.7578"/><rect fill="#FFFFFF" filter="url(#fd71837gnc3th)" height="378.7266" style="stroke: #A80036; stroke-width: 1.0;" width="10" x="2202.5" y="437.8906"/><rect fill="#FFFFFF" filter="url(#fd71837gnc3th)" height="145.6641" style="stroke: #A80036; stroke-width: 1.0;" width="10" x="2366.5" y="467.0234"/><rect fill="#FFFFFF" filter="url(#fd71837gnc3th)" height="87.3984" style="stroke: #A80036; stroke-width: 1.0;" width="10" x="2562.5" y="496.1563"/><rect fill="#FFFFFF" filter="url(#fd71837gnc3th)" height="145.6641" style="stroke: #A80036; stroke-width: 1.0;" width="10" x="2769" y="641.8203"/><rect fill="#FFFFFF" filter="url(#fd71837gnc3th)" height="87.3984" style="stroke: #A80036; stroke-width: 1.0;" width="10" x="2986" y="670.9531"/><rect fill="#FFFFFF" filter="url(#fd71837gnc3th)" height="29.1328" style="stroke: #A80036; stroke-width: 1.0;" width="10" x="3269" y="525.2891"/><rect fill="#FFFFFF" filter="url(#fd71837gnc3th)" height="29.1328" style="stroke: #A80036; stroke-width: 1.0;" width="10" x="3269" y="700.0859"/><polygon fill="#A80036" points="248,113.4297,258,117.4297,248,121.4297,252,117.4297" style="stroke: #A80036; stroke-width: 1.0;"/><line style="stroke: #A80036; stroke-width: 1.0;" x1="27" x2="254" y1="117.4297" y2="117.4297"/><text fill="#000000" font-family="sans-serif" font-size="13" lengthAdjust="spacingAndGlyphs" textLength="214" x="34" y="112.3638">Access View Non-Approved Tasks</text><path d="M32,130.4297 L32,155.4297 L202,155.4297 L202,140.4297 L192,130.4297 L32,130.4297 " fill="#FBFB77" filter="url(#fd71837gnc3th)" style="stroke: #A80036; stroke-width: 1.0;"/><path d="M192,130.4297 L192,140.4297 L202,140.4297 L192,130.4297 " fill="#FBFB77" style="stroke: #A80036; stroke-width: 1.0;"/><text fill="#000000" font-family="sans-serif" font-size="13" lengthAdjust="spacingAndGlyphs" textLength="149" x="38" y="147.4966">User must be logged in</text><polygon fill="#A80036" points="464,181.6953,474,185.6953,464,189.6953,468,185.6953" style="stroke: #A80036; stroke-width: 1.0;"/><line style="stroke: #A80036; stroke-width: 1.0;" x1="270" x2="470" y1="185.6953" y2="185.6953"/><text fill="#000000" font-family="sans-serif" font-size="13" lengthAdjust="spacingAndGlyphs" textLength="183" x="277" y="180.6294">Request GetAllNonAproved()</text><polygon fill="#A80036" points="803,210.8281,813,214.8281,803,218.8281,807,214.8281" style="stroke: #A80036; stroke-width: 1.0;"/><line style="stroke: #A80036; stroke-width: 1.0;" x1="486" x2="809" y1="214.8281" y2="214.8281"/><text fill="#000000" font-family="sans-serif" font-size="13" lengthAdjust="spacingAndGlyphs" textLength="310" x="493" y="209.7622">Prepare HTTP GET request to /GetAllNonAproved</text><polygon fill="#A80036" points="954.5,239.9609,964.5,243.9609,954.5,247.9609,958.5,243.9609" style="stroke: #A80036; stroke-width: 1.0;"/><line style="stroke: #A80036; stroke-width: 1.0;" x1="825" x2="960.5" y1="243.9609" y2="243.9609"/><text fill="#000000" font-family="sans-serif" font-size="13" lengthAdjust="spacingAndGlyphs" textLength="119" x="832" y="238.895">Retrieve JWT Token</text><polygon fill="#A80036" points="836,269.0938,826,273.0938,836,277.0938,832,273.0938" style="stroke: #A80036; stroke-width: 1.0;"/><line style="stroke: #A80036; stroke-width: 1.0; stroke-dasharray: 2.0,2.0;" x1="830" x2="970.5" y1="273.0938" y2="273.0938"/><text fill="#000000" font-family="sans-serif" font-size="13" lengthAdjust="spacingAndGlyphs" textLength="63" x="842" y="268.0278">JWT Token</text><polygon fill="#A80036" points="1273.5,298.2266,1283.5,302.2266,1273.5,306.2266,1277.5,302.2266" style="stroke: #A80036; stroke-width: 1.0;"/><line style="stroke: #A80036; stroke-width: 1.0;" x1="820" x2="1279.5" y1="302.2266" y2="302.2266"/><text fill="#000000" font-family="sans-serif" font-size="13" lengthAdjust="spacingAndGlyphs" textLength="270" x="827" y="297.1606">Forward request with Authorization header</text><path d="M103,317.2266 L167,317.2266 L167,324.2266 L157,334.2266 L103,334.2266 L103,317.2266 " fill="#EEEEEE" style="stroke: #000000; stroke-width: 1.0;"/><rect fill="none" height="922.7266" style="stroke: #000000; stroke-width: 2.0;" width="3235.5" x="103" y="317.2266"/><text fill="#000000" font-family="sans-serif" font-size="13" font-weight="bold" lengthAdjust="spacingAndGlyphs" textLength="19" x="118" y="330.2935">alt</text><text fill="#000000" font-family="sans-serif" font-size="11" font-weight="bold" lengthAdjust="spacingAndGlyphs" textLength="129" x="182" y="329.437">[JWT Token is Valid]</text><polygon fill="#A80036" points="1472.5,351.4922,1482.5,355.4922,1472.5,359.4922,1476.5,355.4922" style="stroke: #A80036; stroke-width: 1.0;"/><line style="stroke: #A80036; stroke-width: 1.0;" x1="1290.5" x2="1478.5" y1="355.4922" y2="355.4922"/><text fill="#000000" font-family="sans-serif" font-size="13" lengthAdjust="spacingAndGlyphs" textLength="170" x="1297.5" y="350.4263">Forward Validated Request</text><path d="M113,370.4922 L177,370.4922 L177,377.4922 L167,387.4922 L113,387.4922 L113,370.4922 " fill="#EEEEEE" style="stroke: #000000; stroke-width: 1.0;"/><rect fill="none" height="731.125" style="stroke: #000000; stroke-width: 2.0;" width="3215.5" x="113" y="370.4922"/><text fill="#000000" font-family="sans-serif" font-size="13" font-weight="bold" lengthAdjust="spacingAndGlyphs" textLength="19" x="128" y="383.5591">alt</text><text fill="#000000" font-family="sans-serif" font-size="11" font-weight="bold" lengthAdjust="spacingAndGlyphs" textLength="153" x="192" y="382.7026">[No Backend Exception]</text><polygon fill="#A80036" points="1813.5,404.7578,1823.5,408.7578,1813.5,412.7578,1817.5,408.7578" style="stroke: #A80036; stroke-width: 1.0;"/><line style="stroke: #A80036; stroke-width: 1.0;" x1="1494.5" x2="1819.5" y1="408.7578" y2="408.7578"/><text fill="#000000" font-family="sans-serif" font-size="13" lengthAdjust="spacingAndGlyphs" textLength="186" x="1501.5" y="403.6919">GetTasksNonAprovedAsync()</text><polygon fill="#A80036" points="2190.5,433.8906,2200.5,437.8906,2190.5,441.8906,2194.5,437.8906" style="stroke: #A80036; stroke-width: 1.0;"/><line style="stroke: #A80036; stroke-width: 1.0;" x1="1835.5" x2="2196.5" y1="437.8906" y2="437.8906"/><text fill="#000000" font-family="sans-serif" font-size="13" lengthAdjust="spacingAndGlyphs" textLength="186" x="1842.5" y="432.8247">GetTasksNonAprovedAsync()</text><polygon fill="#A80036" points="2354.5,463.0234,2364.5,467.0234,2354.5,471.0234,2358.5,467.0234" style="stroke: #A80036; stroke-width: 1.0;"/><line style="stroke: #A80036; stroke-width: 1.0;" x1="2212.5" x2="2360.5" y1="467.0234" y2="467.0234"/><text fill="#000000" font-family="sans-serif" font-size="13" lengthAdjust="spacingAndGlyphs" textLength="135" x="2219.5" y="461.9575">GetAllNonApproved()</text><polygon fill="#A80036" points="2550.5,492.1563,2560.5,496.1563,2550.5,500.1563,2554.5,496.1563" style="stroke: #A80036; stroke-width: 1.0;"/><line style="stroke: #A80036; stroke-width: 1.0;" x1="2376.5" x2="2556.5" y1="496.1563" y2="496.1563"/><text fill="#000000" font-family="sans-serif" font-size="13" lengthAdjust="spacingAndGlyphs" textLength="135" x="2383.5" y="491.0903">GetAllNonApproved()</text><polygon fill="#A80036" points="3257,521.2891,3267,525.2891,3257,529.2891,3261,525.2891" style="stroke: #A80036; stroke-width: 1.0;"/><line style="stroke: #A80036; stroke-width: 1.0;" x1="2572.5" x2="3263" y1="525.2891" y2="525.2891"/><text fill="#000000" font-family="sans-serif" font-size="13" lengthAdjust="spacingAndGlyphs" textLength="235" x="2579.5" y="520.2231">Query Non-Approved Vigilance Tasks</text><polygon fill="#A80036" points="2583.5,550.4219,2573.5,554.4219,2583.5,558.4219,2579.5,554.4219" style="stroke: #A80036; stroke-width: 1.0;"/><line style="stroke: #A80036; stroke-width: 1.0; stroke-dasharray: 2.0,2.0;" x1="2577.5" x2="3273" y1="554.4219" y2="554.4219"/><text fill="#000000" font-family="sans-serif" font-size="13" lengthAdjust="spacingAndGlyphs" textLength="130" x="2589.5" y="549.356">List&lt;TaskVigilance&gt;</text><polygon fill="#A80036" points="2387.5,579.5547,2377.5,583.5547,2387.5,587.5547,2383.5,583.5547" style="stroke: #A80036; stroke-width: 1.0;"/><line style="stroke: #A80036; stroke-width: 1.0; stroke-dasharray: 2.0,2.0;" x1="2381.5" x2="2566.5" y1="583.5547" y2="583.5547"/><text fill="#000000" font-family="sans-serif" font-size="13" lengthAdjust="spacingAndGlyphs" textLength="130" x="2393.5" y="578.4888">List&lt;TaskVigilance&gt;</text><polygon fill="#A80036" points="2223.5,608.6875,2213.5,612.6875,2223.5,616.6875,2219.5,612.6875" style="stroke: #A80036; stroke-width: 1.0;"/><line style="stroke: #A80036; stroke-width: 1.0; stroke-dasharray: 2.0,2.0;" x1="2217.5" x2="2370.5" y1="612.6875" y2="612.6875"/><text fill="#000000" font-family="sans-serif" font-size="13" lengthAdjust="spacingAndGlyphs" textLength="130" x="2229.5" y="607.6216">List&lt;TaskVigilance&gt;</text><polygon fill="#A80036" points="2757,637.8203,2767,641.8203,2757,645.8203,2761,641.8203" style="stroke: #A80036; stroke-width: 1.0;"/><line style="stroke: #A80036; stroke-width: 1.0;" x1="2212.5" x2="2763" y1="641.8203" y2="641.8203"/><text fill="#000000" font-family="sans-serif" font-size="13" lengthAdjust="spacingAndGlyphs" textLength="135" x="2219.5" y="636.7544">GetAllNonApproved()</text><polygon fill="#A80036" points="2974,666.9531,2984,670.9531,2974,674.9531,2978,670.9531" style="stroke: #A80036; stroke-width: 1.0;"/><line style="stroke: #A80036; stroke-width: 1.0;" x1="2779" x2="2980" y1="670.9531" y2="670.9531"/><text fill="#000000" font-family="sans-serif" font-size="13" lengthAdjust="spacingAndGlyphs" textLength="135" x="2786" y="665.8872">GetAllNonApproved()</text><polygon fill="#A80036" points="3257,696.0859,3267,700.0859,3257,704.0859,3261,700.0859" style="stroke: #A80036; stroke-width: 1.0;"/><line style="stroke: #A80036; stroke-width: 1.0;" x1="2996" x2="3263" y1="700.0859" y2="700.0859"/><text fill="#000000" font-family="sans-serif" font-size="13" lengthAdjust="spacingAndGlyphs" textLength="254" x="3003" y="695.02">Query Non-Approved PickDelivery Tasks</text><polygon fill="#A80036" points="3007,725.2188,2997,729.2188,3007,733.2188,3003,729.2188" style="stroke: #A80036; stroke-width: 1.0;"/><line style="stroke: #A80036; stroke-width: 1.0; stroke-dasharray: 2.0,2.0;" x1="3001" x2="3273" y1="729.2188" y2="729.2188"/><text fill="#000000" font-family="sans-serif" font-size="13" lengthAdjust="spacingAndGlyphs" textLength="149" x="3013" y="724.1528">List&lt;TaskPickDelivery&gt;</text><polygon fill="#A80036" points="2790,754.3516,2780,758.3516,2790,762.3516,2786,758.3516" style="stroke: #A80036; stroke-width: 1.0;"/><line style="stroke: #A80036; stroke-width: 1.0; stroke-dasharray: 2.0,2.0;" x1="2784" x2="2990" y1="758.3516" y2="758.3516"/><text fill="#000000" font-family="sans-serif" font-size="13" lengthAdjust="spacingAndGlyphs" textLength="149" x="2796" y="753.2856">List&lt;TaskPickDelivery&gt;</text><polygon fill="#A80036" points="2223.5,783.4844,2213.5,787.4844,2223.5,791.4844,2219.5,787.4844" style="stroke: #A80036; stroke-width: 1.0;"/><line style="stroke: #A80036; stroke-width: 1.0; stroke-dasharray: 2.0,2.0;" x1="2217.5" x2="2773" y1="787.4844" y2="787.4844"/><text fill="#000000" font-family="sans-serif" font-size="13" lengthAdjust="spacingAndGlyphs" textLength="149" x="2229.5" y="782.4185">List&lt;TaskPickDelivery&gt;</text><polygon fill="#A80036" points="1846.5,812.6172,1836.5,816.6172,1846.5,820.6172,1842.5,816.6172" style="stroke: #A80036; stroke-width: 1.0;"/><line style="stroke: #A80036; stroke-width: 1.0; stroke-dasharray: 2.0,2.0;" x1="1840.5" x2="2206.5" y1="816.6172" y2="816.6172"/><text fill="#000000" font-family="sans-serif" font-size="13" lengthAdjust="spacingAndGlyphs" textLength="343" x="1852.5" y="811.5513">(List&lt;TaskVigilanceDto&gt;, List&lt;TaskPickDeliveryDto&gt;)</text><polygon fill="#A80036" points="1505.5,841.75,1495.5,845.75,1505.5,849.75,1501.5,845.75" style="stroke: #A80036; stroke-width: 1.0;"/><line style="stroke: #A80036; stroke-width: 1.0; stroke-dasharray: 2.0,2.0;" x1="1499.5" x2="1829.5" y1="845.75" y2="845.75"/><text fill="#000000" font-family="sans-serif" font-size="13" lengthAdjust="spacingAndGlyphs" textLength="307" x="1511.5" y="840.6841">Return result (vigilanceTasks, pickDeliveryTasks)</text><polygon fill="#A80036" points="497,870.8828,487,874.8828,497,878.8828,493,874.8828" style="stroke: #A80036; stroke-width: 1.0;"/><line style="stroke: #A80036; stroke-width: 1.0; stroke-dasharray: 2.0,2.0;" x1="491" x2="1488.5" y1="874.8828" y2="874.8828"/><text fill="#000000" font-family="sans-serif" font-size="13" lengthAdjust="spacingAndGlyphs" textLength="162" x="503" y="869.8169">HTTP Response with Data</text><polygon fill="#A80036" points="281,900.0156,271,904.0156,281,908.0156,277,904.0156" style="stroke: #A80036; stroke-width: 1.0;"/><line style="stroke: #A80036; stroke-width: 1.0; stroke-dasharray: 2.0,2.0;" x1="275" x2="480" y1="904.0156" y2="904.0156"/><text fill="#000000" font-family="sans-serif" font-size="13" lengthAdjust="spacingAndGlyphs" textLength="182" x="287" y="898.9497">Display Non-Approved Tasks</text><polygon fill="#A80036" points="1083.5,929.1484,1093.5,933.1484,1083.5,937.1484,1087.5,933.1484" style="stroke: #A80036; stroke-width: 1.0;"/><line style="stroke: #A80036; stroke-width: 1.0;" x1="270" x2="1089.5" y1="933.1484" y2="933.1484"/><text fill="#000000" font-family="sans-serif" font-size="13" lengthAdjust="spacingAndGlyphs" textLength="173" x="277" y="928.0825">"Tasks loaded successfully"</text><polygon fill="#A80036" points="281,958.2813,271,962.2813,281,966.2813,277,962.2813" style="stroke: #A80036; stroke-width: 1.0;"/><line style="stroke: #A80036; stroke-width: 1.0;" x1="275" x2="1099.5" y1="962.2813" y2="962.2813"/><text fill="#000000" font-family="sans-serif" font-size="13" lengthAdjust="spacingAndGlyphs" textLength="164" x="287" y="957.2153">Display success message</text><line style="stroke: #000000; stroke-width: 1.0; stroke-dasharray: 2.0,2.0;" x1="113" x2="3328.5" y1="971.2813" y2="971.2813"/><text fill="#000000" font-family="sans-serif" font-size="11" font-weight="bold" lengthAdjust="spacingAndGlyphs" textLength="132" x="118" y="981.4917">[Backend Exception]</text><polygon fill="#A80036" points="492,1002.2188,482,1006.2188,492,1010.2188,488,1006.2188" style="stroke: #A80036; stroke-width: 1.0;"/><line style="stroke: #A80036; stroke-width: 1.0; stroke-dasharray: 2.0,2.0;" x1="486" x2="1488.5" y1="1006.2188" y2="1006.2188"/><text fill="#000000" font-family="sans-serif" font-size="13" lengthAdjust="spacingAndGlyphs" textLength="209" x="498" y="1001.1528">HTTP Error Response (Exception)</text><polygon fill="#A80036" points="281,1031.3516,271,1035.3516,281,1039.3516,277,1035.3516" style="stroke: #A80036; stroke-width: 1.0;"/><line style="stroke: #A80036; stroke-width: 1.0; stroke-dasharray: 2.0,2.0;" x1="275" x2="480" y1="1035.3516" y2="1035.3516"/><text fill="#000000" font-family="sans-serif" font-size="13" lengthAdjust="spacingAndGlyphs" textLength="140" x="287" y="1030.2856">Display Backend Error</text><polygon fill="#A80036" points="1083.5,1060.4844,1093.5,1064.4844,1083.5,1068.4844,1087.5,1064.4844" style="stroke: #A80036; stroke-width: 1.0;"/><line style="stroke: #A80036; stroke-width: 1.0;" x1="270" x2="1089.5" y1="1064.4844" y2="1064.4844"/><text fill="#000000" font-family="sans-serif" font-size="13" lengthAdjust="spacingAndGlyphs" textLength="147" x="277" y="1059.4185">"Server error occurred"</text><polygon fill="#A80036" points="281,1089.6172,271,1093.6172,281,1097.6172,277,1093.6172" style="stroke: #A80036; stroke-width: 1.0;"/><line style="stroke: #A80036; stroke-width: 1.0;" x1="275" x2="1099.5" y1="1093.6172" y2="1093.6172"/><text fill="#000000" font-family="sans-serif" font-size="13" lengthAdjust="spacingAndGlyphs" textLength="144" x="287" y="1088.5513">Display error message</text><line style="stroke: #000000; stroke-width: 1.0; stroke-dasharray: 2.0,2.0;" x1="103" x2="3338.5" y1="1109.6172" y2="1109.6172"/><text fill="#000000" font-family="sans-serif" font-size="11" font-weight="bold" lengthAdjust="spacingAndGlyphs" textLength="140" x="108" y="1119.8276">[JWT Token is Invalid]</text><polygon fill="#A80036" points="492,1140.5547,482,1144.5547,492,1148.5547,488,1144.5547" style="stroke: #A80036; stroke-width: 1.0;"/><line style="stroke: #A80036; stroke-width: 1.0; stroke-dasharray: 2.0,2.0;" x1="486" x2="1289.5" y1="1144.5547" y2="1144.5547"/><text fill="#000000" font-family="sans-serif" font-size="13" lengthAdjust="spacingAndGlyphs" textLength="188" x="498" y="1139.4888">HTTP Unauthorized Response</text><polygon fill="#A80036" points="281,1169.6875,271,1173.6875,281,1177.6875,277,1173.6875" style="stroke: #A80036; stroke-width: 1.0;"/><line style="stroke: #A80036; stroke-width: 1.0; stroke-dasharray: 2.0,2.0;" x1="275" x2="480" y1="1173.6875" y2="1173.6875"/><text fill="#000000" font-family="sans-serif" font-size="13" lengthAdjust="spacingAndGlyphs" textLength="178" x="287" y="1168.6216">Display Authentication Error</text><polygon fill="#A80036" points="1083.5,1198.8203,1093.5,1202.8203,1083.5,1206.8203,1087.5,1202.8203" style="stroke: #A80036; stroke-width: 1.0;"/><line style="stroke: #A80036; stroke-width: 1.0;" x1="270" x2="1089.5" y1="1202.8203" y2="1202.8203"/><text fill="#000000" font-family="sans-serif" font-size="13" lengthAdjust="spacingAndGlyphs" textLength="138" x="277" y="1197.7544">"Authentication error"</text><polygon fill="#A80036" points="281,1227.9531,271,1231.9531,281,1235.9531,277,1231.9531" style="stroke: #A80036; stroke-width: 1.0;"/><line style="stroke: #A80036; stroke-width: 1.0;" x1="275" x2="1099.5" y1="1231.9531" y2="1231.9531"/><text fill="#000000" font-family="sans-serif" font-size="13" lengthAdjust="spacingAndGlyphs" textLength="144" x="287" y="1226.8872">Display error message</text><!--MD5=[f528540f6a67cd57696441541266c149]
@startuml
actor User

participant "Angular\nView Non-Approved Tasks Component" as Frontend <<Frontend>>
participant "HTTP Client" as HttpClient <<Frontend>>
participant "AuthInterceptorService" as AuthInterceptor <<Frontend>>
participant "LocalStorage" as LocalStorage <<Frontend>>
participant "MessageService" as MessageService <<Frontend>>

participant "JWT Authentication Middleware" as JwtAuth <<Backend>>
participant "TaskController" as Controller <<Backend>>
participant "ITaskService" as ITaskService <<Backend>>
participant "TaskService" as TaskService <<Backend>>
participant "TaskVigilanceRepository\nInterface" as VigilanceRepoInterface <<Backend>>
participant "TaskVigilanceRepository" as VigilanceRepo <<Backend>>
participant "TaskPickDeliveryRepository\nInterface" as PickDeliveryRepoInterface <<Backend>>
participant "TaskPickDeliveryRepository" as PickDeliveryRepo <<Backend>>
database "MongoDB" as Database <<Database>>

User -> Frontend: Access View Non-Approved Tasks
note right of User: User must be logged in
activate Frontend

Frontend -> HttpClient: Request GetAllNonAproved()
activate HttpClient

HttpClient -> AuthInterceptor: Prepare HTTP GET request to /GetAllNonAproved
activate AuthInterceptor
AuthInterceptor -> LocalStorage: Retrieve JWT Token
activate LocalStorage
LocalStorage - -> AuthInterceptor: JWT Token
deactivate LocalStorage

AuthInterceptor -> JwtAuth: Forward request with Authorization header
deactivate AuthInterceptor
activate JwtAuth

alt JWT Token is Valid
    JwtAuth -> Controller: Forward Validated Request
    deactivate JwtAuth
    activate Controller

    alt No Backend Exception
        Controller -> ITaskService: GetTasksNonAprovedAsync()
        activate ITaskService

        ITaskService -> TaskService: GetTasksNonAprovedAsync()
        activate TaskService

        TaskService -> VigilanceRepoInterface: GetAllNonApproved()
        activate VigilanceRepoInterface
        VigilanceRepoInterface -> VigilanceRepo: GetAllNonApproved()
        activate VigilanceRepo

        VigilanceRepo -> Database: Query Non-Approved Vigilance Tasks
        activate Database
        Database - -> VigilanceRepo: List<TaskVigilance>
        deactivate Database
        VigilanceRepo - -> VigilanceRepoInterface: List<TaskVigilance>
        deactivate VigilanceRepo
        VigilanceRepoInterface - -> TaskService: List<TaskVigilance>
        deactivate VigilanceRepoInterface

        TaskService -> PickDeliveryRepoInterface: GetAllNonApproved()
        activate PickDeliveryRepoInterface
        PickDeliveryRepoInterface -> PickDeliveryRepo: GetAllNonApproved()
        activate PickDeliveryRepo

        PickDeliveryRepo -> Database: Query Non-Approved PickDelivery Tasks
        activate Database
        Database - -> PickDeliveryRepo: List<TaskPickDelivery>
        deactivate Database
        PickDeliveryRepo - -> PickDeliveryRepoInterface: List<TaskPickDelivery>
        deactivate PickDeliveryRepo
        PickDeliveryRepoInterface - -> TaskService: List<TaskPickDelivery>
        deactivate PickDeliveryRepoInterface

        TaskService - -> ITaskService: (List<TaskVigilanceDto>, List<TaskPickDeliveryDto>)
        deactivate TaskService

        ITaskService - -> Controller: Return result (vigilanceTasks, pickDeliveryTasks)
        deactivate ITaskService

        Controller - -> HttpClient: HTTP Response with Data
        deactivate Controller

        HttpClient - -> Frontend: Display Non-Approved Tasks
        deactivate HttpClient

        Frontend -> MessageService: "Tasks loaded successfully"
        activate MessageService
        MessageService -> Frontend: Display success message
        deactivate MessageService
    else Backend Exception
        Controller - -> HttpClient: HTTP Error Response (Exception)
        deactivate Controller

        HttpClient - -> Frontend: Display Backend Error
        deactivate HttpClient

        Frontend -> MessageService: "Server error occurred"
        activate MessageService
        MessageService -> Frontend: Display error message
        deactivate MessageService
    end

else JWT Token is Invalid
    JwtAuth - -> HttpClient: HTTP Unauthorized Response
    deactivate JwtAuth

    HttpClient - -> Frontend: Display Authentication Error
    deactivate HttpClient

    Frontend -> MessageService: "Authentication error"
    activate MessageService
    MessageService -> Frontend: Display error message
    deactivate MessageService
end

deactivate Frontend
@enduml

PlantUML version 1.2020.02(Sun Mar 01 10:22:07 UTC 2020)
(GPL source distribution)
Java Runtime: OpenJDK Runtime Environment
JVM: OpenJDK 64-Bit Server VM
Java Version: 11.0.21+9
Operating System: Linux
Default Encoding: UTF-8
Language: en
Country: null
--></g></svg>