<?xml version="1.0" encoding="UTF-8" standalone="no"?><svg xmlns="http://www.w3.org/2000/svg" xmlns:xlink="http://www.w3.org/1999/xlink" contentScriptType="application/ecmascript" contentStyleType="text/css" height="1262px" preserveAspectRatio="none" style="width:2263px;height:1262px;" version="1.1" viewBox="0 0 2263 1262" width="2263px" zoomAndPan="magnify"><defs><filter height="300%" id="f1fmdv376m0x1z" width="300%" x="-1" y="-1"><feGaussianBlur result="blurOut" stdDeviation="2.0"/><feColorMatrix in="blurOut" result="blurOut2" type="matrix" values="0 0 0 0 0 0 0 0 0 0 0 0 0 0 0 0 0 0 .4 0"/><feOffset dx="4.0" dy="4.0" in="blurOut2" result="blurOut3"/><feBlend in="SourceGraphic" in2="blurOut3" mode="normal"/></filter></defs><g><rect fill="#FFFFFF" filter="url(#f1fmdv376m0x1z)" height="1068.6484" style="stroke: #A80036; stroke-width: 1.0;" width="10" x="42.5" y="96.2969"/><rect fill="#FFFFFF" filter="url(#f1fmdv376m0x1z)" height="1047.5156" style="stroke: #A80036; stroke-width: 1.0;" width="10" x="284.5" y="117.4297"/><rect fill="#FFFFFF" filter="url(#f1fmdv376m0x1z)" height="989.25" style="stroke: #A80036; stroke-width: 1.0;" width="10" x="428.5" y="175.6953"/><rect fill="#FFFFFF" filter="url(#f1fmdv376m0x1z)" height="785.3203" style="stroke: #A80036; stroke-width: 1.0;" width="10" x="606.5" y="379.625"/><rect fill="#FFFFFF" filter="url(#f1fmdv376m0x1z)" height="145.6641" style="stroke: #A80036; stroke-width: 1.0;" width="10" x="751" y="204.8281"/><rect fill="#FFFFFF" filter="url(#f1fmdv376m0x1z)" height="116.5313" style="stroke: #A80036; stroke-width: 1.0;" width="10" x="877" y="233.9609"/><rect fill="#FFFFFF" filter="url(#f1fmdv376m0x1z)" height="756.1875" style="stroke: #A80036; stroke-width: 1.0;" width="10" x="877" y="408.7578"/><rect fill="#FFFFFF" filter="url(#f1fmdv376m0x1z)" height="727.0547" style="stroke: #A80036; stroke-width: 1.0;" width="10" x="1047" y="437.8906"/><rect fill="#FFFFFF" filter="url(#f1fmdv376m0x1z)" height="87.3984" style="stroke: #A80036; stroke-width: 1.0;" width="10" x="1184.5" y="263.0938"/><rect fill="#FFFFFF" filter="url(#f1fmdv376m0x1z)" height="58.2656" style="stroke: #A80036; stroke-width: 1.0;" width="10" x="1310" y="292.2266"/><rect fill="#FFFFFF" filter="url(#f1fmdv376m0x1z)" height="698.9219" style="stroke: #A80036; stroke-width: 1.0;" width="10" x="1430.5" y="467.0234"/><rect fill="#FFFFFF" filter="url(#f1fmdv376m0x1z)" height="29.1328" style="stroke: #A80036; stroke-width: 1.0;" width="10" x="1589.5" y="321.3594"/><rect fill="#FFFFFF" filter="url(#f1fmdv376m0x1z)" height="640.6563" style="stroke: #A80036; stroke-width: 1.0;" width="10" x="1589.5" y="525.2891"/><rect fill="#FFFFFF" filter="url(#f1fmdv376m0x1z)" height="580.5234" style="stroke: #A80036; stroke-width: 1.0;" width="10" x="1753.5" y="584.4219"/><rect fill="#FFFFFF" filter="url(#f1fmdv376m0x1z)" height="1068.6484" style="stroke: #A80036; stroke-width: 1.0;" width="10" x="2000.5" y="96.2969"/><rect fill="#FFFFFF" filter="url(#f1fmdv376m0x1z)" height="395.7266" style="stroke: #A80036; stroke-width: 1.0;" width="10" x="2117" y="769.2188"/><rect fill="#FFFFFF" filter="url(#f1fmdv376m0x1z)" height="59.1328" style="stroke: #A80036; stroke-width: 1.0;" width="10" x="2219" y="496.1563"/><rect fill="#FFFFFF" filter="url(#f1fmdv376m0x1z)" height="59.2656" style="stroke: #000000; stroke-width: 2.0;" width="307.5" x="1698" y="657.6875"/><rect fill="#FFFFFF" filter="url(#f1fmdv376m0x1z)" height="426.9922" style="stroke: #000000; stroke-width: 2.0;" width="2179" x="13" y="730.9531"/><rect fill="#FFFFFF" height="176.7969" style="stroke: none; stroke-width: 1.0;" width="2179" x="13" y="981.1484"/><line style="stroke: #A80036; stroke-width: 1.0; stroke-dasharray: 5.0,5.0;" x1="47" x2="47" y1="86.2969" y2="1174.9453"/><line style="stroke: #A80036; stroke-width: 1.0; stroke-dasharray: 5.0,5.0;" x1="289" x2="289" y1="86.2969" y2="1174.9453"/><line style="stroke: #A80036; stroke-width: 1.0; stroke-dasharray: 5.0,5.0;" x1="433" x2="433" y1="86.2969" y2="1174.9453"/><line style="stroke: #A80036; stroke-width: 1.0; stroke-dasharray: 5.0,5.0;" x1="611.5" x2="611.5" y1="86.2969" y2="1174.9453"/><line style="stroke: #A80036; stroke-width: 1.0; stroke-dasharray: 5.0,5.0;" x1="755.5" x2="755.5" y1="86.2969" y2="1174.9453"/><line style="stroke: #A80036; stroke-width: 1.0; stroke-dasharray: 5.0,5.0;" x1="881.5" x2="881.5" y1="86.2969" y2="1174.9453"/><line style="stroke: #A80036; stroke-width: 1.0; stroke-dasharray: 5.0,5.0;" x1="1051.5" x2="1051.5" y1="86.2969" y2="1174.9453"/><line style="stroke: #A80036; stroke-width: 1.0; stroke-dasharray: 5.0,5.0;" x1="1189.5" x2="1189.5" y1="86.2969" y2="1174.9453"/><line style="stroke: #A80036; stroke-width: 1.0; stroke-dasharray: 5.0,5.0;" x1="1314.5" x2="1314.5" y1="86.2969" y2="1174.9453"/><line style="stroke: #A80036; stroke-width: 1.0; stroke-dasharray: 5.0,5.0;" x1="1435.5" x2="1435.5" y1="86.2969" y2="1174.9453"/><line style="stroke: #A80036; stroke-width: 1.0; stroke-dasharray: 5.0,5.0;" x1="1594.5" x2="1594.5" y1="86.2969" y2="1174.9453"/><line style="stroke: #A80036; stroke-width: 1.0; stroke-dasharray: 5.0,5.0;" x1="1758" x2="1758" y1="86.2969" y2="1174.9453"/><line style="stroke: #A80036; stroke-width: 1.0; stroke-dasharray: 5.0,5.0;" x1="2005" x2="2005" y1="86.2969" y2="1174.9453"/><line style="stroke: #A80036; stroke-width: 1.0; stroke-dasharray: 5.0,5.0;" x1="2122" x2="2122" y1="86.2969" y2="1174.9453"/><line style="stroke: #A80036; stroke-width: 1.0; stroke-dasharray: 5.0,5.0;" x1="2224" x2="2224" y1="86.2969" y2="1174.9453"/><text fill="#000000" font-family="sans-serif" font-size="14" lengthAdjust="spacingAndGlyphs" textLength="43" x="23" y="82.9951">Admin</text><ellipse cx="47.5" cy="13" fill="#FEFECE" filter="url(#f1fmdv376m0x1z)" rx="8" ry="8" style="stroke: #A80036; stroke-width: 2.0;"/><path d="M47.5,21 L47.5,48 M34.5,29 L60.5,29 M47.5,48 L34.5,63 M47.5,48 L60.5,63 " fill="none" filter="url(#f1fmdv376m0x1z)" style="stroke: #A80036; stroke-width: 2.0;"/><text fill="#000000" font-family="sans-serif" font-size="14" lengthAdjust="spacingAndGlyphs" textLength="43" x="23" y="1186.9404">Admin</text><ellipse cx="47.5" cy="1200.2422" fill="#FEFECE" filter="url(#f1fmdv376m0x1z)" rx="8" ry="8" style="stroke: #A80036; stroke-width: 2.0;"/><path d="M47.5,1208.2422 L47.5,1235.2422 M34.5,1216.2422 L60.5,1216.2422 M47.5,1235.2422 L34.5,1250.2422 M47.5,1235.2422 L60.5,1250.2422 " fill="none" filter="url(#f1fmdv376m0x1z)" style="stroke: #A80036; stroke-width: 2.0;"/><rect fill="#FEFECE" filter="url(#f1fmdv376m0x1z)" height="30.2969" style="stroke: #A80036; stroke-width: 1.5;" width="51" x="262" y="51"/><text fill="#000000" font-family="sans-serif" font-size="14" lengthAdjust="spacingAndGlyphs" textLength="37" x="269" y="70.9951">:View</text><rect fill="#FEFECE" filter="url(#f1fmdv376m0x1z)" height="30.2969" style="stroke: #A80036; stroke-width: 1.5;" width="51" x="262" y="1173.9453"/><text fill="#000000" font-family="sans-serif" font-size="14" lengthAdjust="spacingAndGlyphs" textLength="37" x="269" y="1193.9404">:View</text><rect fill="#FEFECE" filter="url(#f1fmdv376m0x1z)" height="30.2969" style="stroke: #A80036; stroke-width: 1.5;" width="125" x="369" y="51"/><text fill="#000000" font-family="sans-serif" font-size="14" lengthAdjust="spacingAndGlyphs" textLength="111" x="376" y="70.9951">:FE_Component</text><rect fill="#FEFECE" filter="url(#f1fmdv376m0x1z)" height="30.2969" style="stroke: #A80036; stroke-width: 1.5;" width="125" x="369" y="1173.9453"/><text fill="#000000" font-family="sans-serif" font-size="14" lengthAdjust="spacingAndGlyphs" textLength="111" x="376" y="1193.9404">:FE_Component</text><rect fill="#FEFECE" filter="url(#f1fmdv376m0x1z)" height="30.2969" style="stroke: #A80036; stroke-width: 1.5;" width="134" x="542.5" y="51"/><text fill="#000000" font-family="sans-serif" font-size="14" lengthAdjust="spacingAndGlyphs" textLength="120" x="549.5" y="70.9951">:FE_RoomService</text><rect fill="#FEFECE" filter="url(#f1fmdv376m0x1z)" height="30.2969" style="stroke: #A80036; stroke-width: 1.5;" width="134" x="542.5" y="1173.9453"/><text fill="#000000" font-family="sans-serif" font-size="14" lengthAdjust="spacingAndGlyphs" textLength="120" x="549.5" y="1193.9404">:FE_RoomService</text><rect fill="#FEFECE" filter="url(#f1fmdv376m0x1z)" height="30.2969" style="stroke: #A80036; stroke-width: 1.5;" width="127" x="690.5" y="51"/><text fill="#000000" font-family="sans-serif" font-size="14" lengthAdjust="spacingAndGlyphs" textLength="113" x="697.5" y="70.9951">:FE_FloorService</text><rect fill="#FEFECE" filter="url(#f1fmdv376m0x1z)" height="30.2969" style="stroke: #A80036; stroke-width: 1.5;" width="127" x="690.5" y="1173.9453"/><text fill="#000000" font-family="sans-serif" font-size="14" lengthAdjust="spacingAndGlyphs" textLength="113" x="697.5" y="1193.9404">:FE_FloorService</text><rect fill="#FEFECE" filter="url(#f1fmdv376m0x1z)" height="30.2969" style="stroke: #A80036; stroke-width: 1.5;" width="73" x="843.5" y="51"/><text fill="#000000" font-family="sans-serif" font-size="14" lengthAdjust="spacingAndGlyphs" textLength="59" x="850.5" y="70.9951">:Routing</text><rect fill="#FEFECE" filter="url(#f1fmdv376m0x1z)" height="30.2969" style="stroke: #A80036; stroke-width: 1.5;" width="73" x="843.5" y="1173.9453"/><text fill="#000000" font-family="sans-serif" font-size="14" lengthAdjust="spacingAndGlyphs" textLength="59" x="850.5" y="1193.9404">:Routing</text><rect fill="#FEFECE" filter="url(#f1fmdv376m0x1z)" height="30.2969" style="stroke: #A80036; stroke-width: 1.5;" width="127" x="986.5" y="51"/><text fill="#000000" font-family="sans-serif" font-size="14" lengthAdjust="spacingAndGlyphs" textLength="113" x="993.5" y="70.9951">:RoomController</text><rect fill="#FEFECE" filter="url(#f1fmdv376m0x1z)" height="30.2969" style="stroke: #A80036; stroke-width: 1.5;" width="127" x="986.5" y="1173.9453"/><text fill="#000000" font-family="sans-serif" font-size="14" lengthAdjust="spacingAndGlyphs" textLength="113" x="993.5" y="1193.9404">:RoomController</text><rect fill="#FEFECE" filter="url(#f1fmdv376m0x1z)" height="30.2969" style="stroke: #A80036; stroke-width: 1.5;" width="120" x="1127.5" y="51"/><text fill="#000000" font-family="sans-serif" font-size="14" lengthAdjust="spacingAndGlyphs" textLength="106" x="1134.5" y="70.9951">:FloorController</text><rect fill="#FEFECE" filter="url(#f1fmdv376m0x1z)" height="30.2969" style="stroke: #A80036; stroke-width: 1.5;" width="120" x="1127.5" y="1173.9453"/><text fill="#000000" font-family="sans-serif" font-size="14" lengthAdjust="spacingAndGlyphs" textLength="106" x="1134.5" y="1193.9404">:FloorController</text><rect fill="#FEFECE" filter="url(#f1fmdv376m0x1z)" height="30.2969" style="stroke: #A80036; stroke-width: 1.5;" width="103" x="1261.5" y="51"/><text fill="#000000" font-family="sans-serif" font-size="14" lengthAdjust="spacingAndGlyphs" textLength="89" x="1268.5" y="70.9951">:FloorService</text><rect fill="#FEFECE" filter="url(#f1fmdv376m0x1z)" height="30.2969" style="stroke: #A80036; stroke-width: 1.5;" width="103" x="1261.5" y="1173.9453"/><text fill="#000000" font-family="sans-serif" font-size="14" lengthAdjust="spacingAndGlyphs" textLength="89" x="1268.5" y="1193.9404">:FloorService</text><rect fill="#FEFECE" filter="url(#f1fmdv376m0x1z)" height="30.2969" style="stroke: #A80036; stroke-width: 1.5;" width="110" x="1378.5" y="51"/><text fill="#000000" font-family="sans-serif" font-size="14" lengthAdjust="spacingAndGlyphs" textLength="96" x="1385.5" y="70.9951">:RoomService</text><rect fill="#FEFECE" filter="url(#f1fmdv376m0x1z)" height="30.2969" style="stroke: #A80036; stroke-width: 1.5;" width="110" x="1378.5" y="1173.9453"/><text fill="#000000" font-family="sans-serif" font-size="14" lengthAdjust="spacingAndGlyphs" textLength="96" x="1385.5" y="1193.9404">:RoomService</text><rect fill="#FEFECE" filter="url(#f1fmdv376m0x1z)" height="30.2969" style="stroke: #A80036; stroke-width: 1.5;" width="90" x="1547.5" y="51"/><text fill="#000000" font-family="sans-serif" font-size="14" lengthAdjust="spacingAndGlyphs" textLength="76" x="1554.5" y="70.9951">:FloorRepo</text><rect fill="#FEFECE" filter="url(#f1fmdv376m0x1z)" height="30.2969" style="stroke: #A80036; stroke-width: 1.5;" width="90" x="1547.5" y="1173.9453"/><text fill="#000000" font-family="sans-serif" font-size="14" lengthAdjust="spacingAndGlyphs" textLength="76" x="1554.5" y="1193.9404">:FloorRepo</text><rect fill="#FEFECE" filter="url(#f1fmdv376m0x1z)" height="30.2969" style="stroke: #A80036; stroke-width: 1.5;" width="97" x="1708" y="51"/><text fill="#000000" font-family="sans-serif" font-size="14" lengthAdjust="spacingAndGlyphs" textLength="83" x="1715" y="70.9951">:RoomRepo</text><rect fill="#FEFECE" filter="url(#f1fmdv376m0x1z)" height="30.2969" style="stroke: #A80036; stroke-width: 1.5;" width="97" x="1708" y="1173.9453"/><text fill="#000000" font-family="sans-serif" font-size="14" lengthAdjust="spacingAndGlyphs" textLength="83" x="1715" y="1193.9404">:RoomRepo</text><rect fill="#FEFECE" filter="url(#f1fmdv376m0x1z)" height="30.2969" style="stroke: #A80036; stroke-width: 1.5;" width="89" x="1959" y="51"/><text fill="#000000" font-family="sans-serif" font-size="14" lengthAdjust="spacingAndGlyphs" textLength="75" x="1966" y="70.9951">:RoomMap</text><rect fill="#FEFECE" filter="url(#f1fmdv376m0x1z)" height="30.2969" style="stroke: #A80036; stroke-width: 1.5;" width="89" x="1959" y="1173.9453"/><text fill="#000000" font-family="sans-serif" font-size="14" lengthAdjust="spacingAndGlyphs" textLength="75" x="1966" y="1193.9404">:RoomMap</text><rect fill="#FEFECE" filter="url(#f1fmdv376m0x1z)" height="30.2969" style="stroke: #A80036; stroke-width: 1.5;" width="116" x="2062" y="51"/><text fill="#000000" font-family="sans-serif" font-size="14" lengthAdjust="spacingAndGlyphs" textLength="102" x="2069" y="70.9951">:RoomSchema</text><rect fill="#FEFECE" filter="url(#f1fmdv376m0x1z)" height="30.2969" style="stroke: #A80036; stroke-width: 1.5;" width="116" x="2062" y="1173.9453"/><text fill="#000000" font-family="sans-serif" font-size="14" lengthAdjust="spacingAndGlyphs" textLength="102" x="2069" y="1193.9404">:RoomSchema</text><rect fill="#FEFECE" filter="url(#f1fmdv376m0x1z)" height="30.2969" style="stroke: #A80036; stroke-width: 1.5;" width="60" x="2192" y="51"/><text fill="#000000" font-family="sans-serif" font-size="14" lengthAdjust="spacingAndGlyphs" textLength="46" x="2199" y="70.9951">:Room</text><rect fill="#FEFECE" filter="url(#f1fmdv376m0x1z)" height="30.2969" style="stroke: #A80036; stroke-width: 1.5;" width="60" x="2192" y="1173.9453"/><text fill="#000000" font-family="sans-serif" font-size="14" lengthAdjust="spacingAndGlyphs" textLength="46" x="2199" y="1193.9404">:Room</text><rect fill="#FFFFFF" filter="url(#f1fmdv376m0x1z)" height="1068.6484" style="stroke: #A80036; stroke-width: 1.0;" width="10" x="42.5" y="96.2969"/><rect fill="#FFFFFF" filter="url(#f1fmdv376m0x1z)" height="1047.5156" style="stroke: #A80036; stroke-width: 1.0;" width="10" x="284.5" y="117.4297"/><rect fill="#FFFFFF" filter="url(#f1fmdv376m0x1z)" height="989.25" style="stroke: #A80036; stroke-width: 1.0;" width="10" x="428.5" y="175.6953"/><rect fill="#FFFFFF" filter="url(#f1fmdv376m0x1z)" height="785.3203" style="stroke: #A80036; stroke-width: 1.0;" width="10" x="606.5" y="379.625"/><rect fill="#FFFFFF" filter="url(#f1fmdv376m0x1z)" height="145.6641" style="stroke: #A80036; stroke-width: 1.0;" width="10" x="751" y="204.8281"/><rect fill="#FFFFFF" filter="url(#f1fmdv376m0x1z)" height="116.5313" style="stroke: #A80036; stroke-width: 1.0;" width="10" x="877" y="233.9609"/><rect fill="#FFFFFF" filter="url(#f1fmdv376m0x1z)" height="756.1875" style="stroke: #A80036; stroke-width: 1.0;" width="10" x="877" y="408.7578"/><rect fill="#FFFFFF" filter="url(#f1fmdv376m0x1z)" height="727.0547" style="stroke: #A80036; stroke-width: 1.0;" width="10" x="1047" y="437.8906"/><rect fill="#FFFFFF" filter="url(#f1fmdv376m0x1z)" height="87.3984" style="stroke: #A80036; stroke-width: 1.0;" width="10" x="1184.5" y="263.0938"/><rect fill="#FFFFFF" filter="url(#f1fmdv376m0x1z)" height="58.2656" style="stroke: #A80036; stroke-width: 1.0;" width="10" x="1310" y="292.2266"/><rect fill="#FFFFFF" filter="url(#f1fmdv376m0x1z)" height="698.9219" style="stroke: #A80036; stroke-width: 1.0;" width="10" x="1430.5" y="467.0234"/><rect fill="#FFFFFF" filter="url(#f1fmdv376m0x1z)" height="29.1328" style="stroke: #A80036; stroke-width: 1.0;" width="10" x="1589.5" y="321.3594"/><rect fill="#FFFFFF" filter="url(#f1fmdv376m0x1z)" height="640.6563" style="stroke: #A80036; stroke-width: 1.0;" width="10" x="1589.5" y="525.2891"/><rect fill="#FFFFFF" filter="url(#f1fmdv376m0x1z)" height="580.5234" style="stroke: #A80036; stroke-width: 1.0;" width="10" x="1753.5" y="584.4219"/><rect fill="#FFFFFF" filter="url(#f1fmdv376m0x1z)" height="1068.6484" style="stroke: #A80036; stroke-width: 1.0;" width="10" x="2000.5" y="96.2969"/><rect fill="#FFFFFF" filter="url(#f1fmdv376m0x1z)" height="395.7266" style="stroke: #A80036; stroke-width: 1.0;" width="10" x="2117" y="769.2188"/><rect fill="#FFFFFF" filter="url(#f1fmdv376m0x1z)" height="59.1328" style="stroke: #A80036; stroke-width: 1.0;" width="10" x="2219" y="496.1563"/><polygon fill="#A80036" points="272.5,113.4297,282.5,117.4297,272.5,121.4297,276.5,117.4297" style="stroke: #A80036; stroke-width: 1.0;"/><line style="stroke: #A80036; stroke-width: 1.0;" x1="52.5" x2="278.5" y1="117.4297" y2="117.4297"/><text fill="#000000" font-family="sans-serif" font-size="13" font-weight="bold" lengthAdjust="spacingAndGlyphs" textLength="9" x="59.5" y="112.3638">1</text><text fill="#000000" font-family="sans-serif" font-size="13" lengthAdjust="spacingAndGlyphs" textLength="200" x="72.5" y="112.3638">wants to update floor passages</text><polygon fill="#A80036" points="63.5,142.5625,53.5,146.5625,63.5,150.5625,59.5,146.5625" style="stroke: #A80036; stroke-width: 1.0;"/><line style="stroke: #A80036; stroke-width: 1.0; stroke-dasharray: 2.0,2.0;" x1="57.5" x2="283.5" y1="146.5625" y2="146.5625"/><text fill="#000000" font-family="sans-serif" font-size="13" font-weight="bold" lengthAdjust="spacingAndGlyphs" textLength="9" x="69.5" y="141.4966">2</text><text fill="#000000" font-family="sans-serif" font-size="13" lengthAdjust="spacingAndGlyphs" textLength="161" x="82.5" y="141.4966">request necessary data()</text><polygon fill="#A80036" points="272.5,171.6953,282.5,175.6953,272.5,179.6953,276.5,175.6953" style="stroke: #A80036; stroke-width: 1.0;"/><line style="stroke: #A80036; stroke-width: 1.0;" x1="52.5" x2="278.5" y1="175.6953" y2="175.6953"/><text fill="#000000" font-family="sans-serif" font-size="13" font-weight="bold" lengthAdjust="spacingAndGlyphs" textLength="9" x="59.5" y="170.6294">3</text><text fill="#000000" font-family="sans-serif" font-size="13" lengthAdjust="spacingAndGlyphs" textLength="112" x="72.5" y="170.6294">insert all the data</text><polygon fill="#A80036" points="416.5,200.8281,426.5,204.8281,416.5,208.8281,420.5,204.8281" style="stroke: #A80036; stroke-width: 1.0;"/><line style="stroke: #A80036; stroke-width: 1.0;" x1="294.5" x2="422.5" y1="204.8281" y2="204.8281"/><text fill="#000000" font-family="sans-serif" font-size="13" font-weight="bold" lengthAdjust="spacingAndGlyphs" textLength="9" x="301.5" y="199.7622">4</text><text fill="#000000" font-family="sans-serif" font-size="13" lengthAdjust="spacingAndGlyphs" textLength="69" x="314.5" y="199.7622">getFloors()</text><polygon fill="#A80036" points="739,229.9609,749,233.9609,739,237.9609,743,233.9609" style="stroke: #A80036; stroke-width: 1.0;"/><line style="stroke: #A80036; stroke-width: 1.0;" x1="438.5" x2="745" y1="233.9609" y2="233.9609"/><text fill="#000000" font-family="sans-serif" font-size="13" font-weight="bold" lengthAdjust="spacingAndGlyphs" textLength="9" x="445.5" y="228.895">5</text><text fill="#000000" font-family="sans-serif" font-size="13" lengthAdjust="spacingAndGlyphs" textLength="66" x="458.5" y="228.895">listFloors()</text><polygon fill="#A80036" points="865,259.0938,875,263.0938,865,267.0938,869,263.0938" style="stroke: #A80036; stroke-width: 1.0;"/><line style="stroke: #A80036; stroke-width: 1.0;" x1="761" x2="871" y1="263.0938" y2="263.0938"/><text fill="#000000" font-family="sans-serif" font-size="13" font-weight="bold" lengthAdjust="spacingAndGlyphs" textLength="9" x="768" y="258.0278">6</text><text fill="#000000" font-family="sans-serif" font-size="13" lengthAdjust="spacingAndGlyphs" textLength="79" x="781" y="258.0278">GET route{}</text><polygon fill="#A80036" points="1172.5,288.2266,1182.5,292.2266,1172.5,296.2266,1176.5,292.2266" style="stroke: #A80036; stroke-width: 1.0;"/><line style="stroke: #A80036; stroke-width: 1.0;" x1="887" x2="1178.5" y1="292.2266" y2="292.2266"/><text fill="#000000" font-family="sans-serif" font-size="13" font-weight="bold" lengthAdjust="spacingAndGlyphs" textLength="9" x="894" y="287.1606">7</text><text fill="#000000" font-family="sans-serif" font-size="13" lengthAdjust="spacingAndGlyphs" textLength="81" x="907" y="287.1606">listAllFloors()</text><polygon fill="#A80036" points="1298,317.3594,1308,321.3594,1298,325.3594,1302,321.3594" style="stroke: #A80036; stroke-width: 1.0;"/><line style="stroke: #A80036; stroke-width: 1.0;" x1="1052" x2="1304" y1="321.3594" y2="321.3594"/><text fill="#000000" font-family="sans-serif" font-size="13" font-weight="bold" lengthAdjust="spacingAndGlyphs" textLength="9" x="1059" y="316.2935">8</text><text fill="#000000" font-family="sans-serif" font-size="13" lengthAdjust="spacingAndGlyphs" textLength="48" x="1072" y="316.2935">findAll()</text><polygon fill="#A80036" points="1582.5,346.4922,1592.5,350.4922,1582.5,354.4922,1586.5,350.4922" style="stroke: #A80036; stroke-width: 1.0;"/><line style="stroke: #A80036; stroke-width: 1.0;" x1="1315" x2="1588.5" y1="350.4922" y2="350.4922"/><text fill="#000000" font-family="sans-serif" font-size="13" font-weight="bold" lengthAdjust="spacingAndGlyphs" textLength="9" x="1322" y="345.4263">9</text><text fill="#000000" font-family="sans-serif" font-size="13" lengthAdjust="spacingAndGlyphs" textLength="48" x="1335" y="345.4263">findAll()</text><polygon fill="#A80036" points="416.5,375.625,426.5,379.625,416.5,383.625,420.5,379.625" style="stroke: #A80036; stroke-width: 1.0;"/><line style="stroke: #A80036; stroke-width: 1.0;" x1="294.5" x2="422.5" y1="379.625" y2="379.625"/><text fill="#000000" font-family="sans-serif" font-size="13" font-weight="bold" lengthAdjust="spacingAndGlyphs" textLength="18" x="301.5" y="374.5591">10</text><text fill="#000000" font-family="sans-serif" font-size="13" lengthAdjust="spacingAndGlyphs" textLength="88" x="323.5" y="374.5591">createRoom()</text><polygon fill="#A80036" points="594.5,404.7578,604.5,408.7578,594.5,412.7578,598.5,408.7578" style="stroke: #A80036; stroke-width: 1.0;"/><line style="stroke: #A80036; stroke-width: 1.0;" x1="438.5" x2="600.5" y1="408.7578" y2="408.7578"/><text fill="#000000" font-family="sans-serif" font-size="13" font-weight="bold" lengthAdjust="spacingAndGlyphs" textLength="18" x="445.5" y="403.6919">11</text><text fill="#000000" font-family="sans-serif" font-size="13" lengthAdjust="spacingAndGlyphs" textLength="122" x="467.5" y="403.6919">createRoom(room)</text><polygon fill="#A80036" points="865,433.8906,875,437.8906,865,441.8906,869,437.8906" style="stroke: #A80036; stroke-width: 1.0;"/><line style="stroke: #A80036; stroke-width: 1.0;" x1="616.5" x2="871" y1="437.8906" y2="437.8906"/><text fill="#000000" font-family="sans-serif" font-size="13" font-weight="bold" lengthAdjust="spacingAndGlyphs" textLength="18" x="623.5" y="432.8247">12</text><text fill="#000000" font-family="sans-serif" font-size="13" lengthAdjust="spacingAndGlyphs" textLength="114" x="645.5" y="432.8247">POST route{json}</text><polygon fill="#A80036" points="1035,463.0234,1045,467.0234,1035,471.0234,1039,467.0234" style="stroke: #A80036; stroke-width: 1.0;"/><line style="stroke: #A80036; stroke-width: 1.0;" x1="887" x2="1041" y1="467.0234" y2="467.0234"/><text fill="#000000" font-family="sans-serif" font-size="13" font-weight="bold" lengthAdjust="spacingAndGlyphs" textLength="18" x="894" y="461.9575">13</text><text fill="#000000" font-family="sans-serif" font-size="13" lengthAdjust="spacingAndGlyphs" textLength="114" x="916" y="461.9575">createRoom(json)</text><polygon fill="#A80036" points="1418.5,492.1563,1428.5,496.1563,1418.5,500.1563,1422.5,496.1563" style="stroke: #A80036; stroke-width: 1.0;"/><line style="stroke: #A80036; stroke-width: 1.0;" x1="1057" x2="1424.5" y1="496.1563" y2="496.1563"/><text fill="#000000" font-family="sans-serif" font-size="13" font-weight="bold" lengthAdjust="spacingAndGlyphs" textLength="18" x="1064" y="491.0903">14</text><text fill="#000000" font-family="sans-serif" font-size="13" lengthAdjust="spacingAndGlyphs" textLength="155" x="1086" y="491.0903">createRoom(IRoomDTO)</text><polygon fill="#A80036" points="2207,521.2891,2217,525.2891,2207,529.2891,2211,525.2891" style="stroke: #A80036; stroke-width: 1.0;"/><line style="stroke: #A80036; stroke-width: 1.0;" x1="1440.5" x2="2213" y1="525.2891" y2="525.2891"/><text fill="#000000" font-family="sans-serif" font-size="13" font-weight="bold" lengthAdjust="spacingAndGlyphs" textLength="18" x="1447.5" y="520.2231">15</text><text fill="#000000" font-family="sans-serif" font-size="13" lengthAdjust="spacingAndGlyphs" textLength="51" x="1469.5" y="520.2231">create()</text><polygon fill="#A80036" points="1577.5,580.4219,1587.5,584.4219,1577.5,588.4219,1581.5,584.4219" style="stroke: #A80036; stroke-width: 1.0;"/><line style="stroke: #A80036; stroke-width: 1.0;" x1="1440.5" x2="1583.5" y1="584.4219" y2="584.4219"/><text fill="#000000" font-family="sans-serif" font-size="13" font-weight="bold" lengthAdjust="spacingAndGlyphs" textLength="18" x="1447.5" y="579.356">16</text><text fill="#000000" font-family="sans-serif" font-size="13" lengthAdjust="spacingAndGlyphs" textLength="103" x="1469.5" y="579.356">findById(floor.id)</text><polygon fill="#A80036" points="1741.5,609.5547,1751.5,613.5547,1741.5,617.5547,1745.5,613.5547" style="stroke: #A80036; stroke-width: 1.0;"/><line style="stroke: #A80036; stroke-width: 1.0;" x1="1440.5" x2="1747.5" y1="613.5547" y2="613.5547"/><text fill="#000000" font-family="sans-serif" font-size="13" font-weight="bold" lengthAdjust="spacingAndGlyphs" textLength="18" x="1447.5" y="608.4888">17</text><text fill="#000000" font-family="sans-serif" font-size="13" lengthAdjust="spacingAndGlyphs" textLength="68" x="1469.5" y="608.4888">save(floor)</text><polygon fill="#A80036" points="2110,638.6875,2120,642.6875,2110,646.6875,2114,642.6875" style="stroke: #A80036; stroke-width: 1.0;"/><line style="stroke: #A80036; stroke-width: 1.0;" x1="1763.5" x2="2116" y1="642.6875" y2="642.6875"/><text fill="#000000" font-family="sans-serif" font-size="13" font-weight="bold" lengthAdjust="spacingAndGlyphs" textLength="18" x="1770.5" y="637.6216">18</text><text fill="#000000" font-family="sans-serif" font-size="13" lengthAdjust="spacingAndGlyphs" textLength="114" x="1792.5" y="637.6216">find(room.floor.id)</text><path d="M1698,657.6875 L1775,657.6875 L1775,664.6875 L1765,674.6875 L1698,674.6875 L1698,657.6875 " fill="#EEEEEE" style="stroke: #000000; stroke-width: 1.0;"/><rect fill="none" height="59.2656" style="stroke: #000000; stroke-width: 2.0;" width="307.5" x="1698" y="657.6875"/><text fill="#000000" font-family="sans-serif" font-size="13" font-weight="bold" lengthAdjust="spacingAndGlyphs" textLength="32" x="1713" y="670.7544">loop</text><text fill="#000000" font-family="sans-serif" font-size="11" font-weight="bold" lengthAdjust="spacingAndGlyphs" textLength="148" x="1790" y="669.8979">[All Rooms Same Floor]</text><line style="stroke: #A80036; stroke-width: 1.0;" x1="1763.5" x2="1805.5" y1="695.9531" y2="695.9531"/><line style="stroke: #A80036; stroke-width: 1.0;" x1="1805.5" x2="1805.5" y1="695.9531" y2="708.9531"/><line style="stroke: #A80036; stroke-width: 1.0;" x1="1764.5" x2="1805.5" y1="708.9531" y2="708.9531"/><polygon fill="#A80036" points="1774.5,704.9531,1764.5,708.9531,1774.5,712.9531,1770.5,708.9531" style="stroke: #A80036; stroke-width: 1.0;"/><text fill="#000000" font-family="sans-serif" font-size="13" font-weight="bold" lengthAdjust="spacingAndGlyphs" textLength="18" x="1770.5" y="690.8872">19</text><text fill="#000000" font-family="sans-serif" font-size="13" lengthAdjust="spacingAndGlyphs" textLength="201" x="1792.5" y="690.8872">doRoomsOverlap(Room, Room)</text><path d="M13,730.9531 L77,730.9531 L77,737.9531 L67,747.9531 L13,747.9531 L13,730.9531 " fill="#EEEEEE" style="stroke: #000000; stroke-width: 1.0;"/><rect fill="none" height="426.9922" style="stroke: #000000; stroke-width: 2.0;" width="2179" x="13" y="730.9531"/><text fill="#000000" font-family="sans-serif" font-size="13" font-weight="bold" lengthAdjust="spacingAndGlyphs" textLength="19" x="28" y="744.02">alt</text><text fill="#000000" font-family="sans-serif" font-size="11" font-weight="bold" lengthAdjust="spacingAndGlyphs" textLength="78" x="92" y="743.1636">[no overlap]</text><polygon fill="#A80036" points="1988.5,765.2188,1998.5,769.2188,1988.5,773.2188,1992.5,769.2188" style="stroke: #A80036; stroke-width: 1.0;"/><line style="stroke: #A80036; stroke-width: 1.0;" x1="1763.5" x2="1994.5" y1="769.2188" y2="769.2188"/><text fill="#000000" font-family="sans-serif" font-size="13" font-weight="bold" lengthAdjust="spacingAndGlyphs" textLength="18" x="1770.5" y="764.1528">20</text><text fill="#000000" font-family="sans-serif" font-size="13" lengthAdjust="spacingAndGlyphs" textLength="125" x="1792.5" y="764.1528">toPersistance(floor)</text><polygon fill="#A80036" points="2105,794.3516,2115,798.3516,2105,802.3516,2109,798.3516" style="stroke: #A80036; stroke-width: 1.0;"/><line style="stroke: #A80036; stroke-width: 1.0;" x1="1763.5" x2="2111" y1="798.3516" y2="798.3516"/><text fill="#000000" font-family="sans-serif" font-size="13" font-weight="bold" lengthAdjust="spacingAndGlyphs" textLength="18" x="1770.5" y="793.2856">21</text><text fill="#000000" font-family="sans-serif" font-size="13" lengthAdjust="spacingAndGlyphs" textLength="79" x="1792.5" y="793.2856">create(floor)</text><polygon fill="#A80036" points="1451.5,823.4844,1441.5,827.4844,1451.5,831.4844,1447.5,827.4844" style="stroke: #A80036; stroke-width: 1.0;"/><line style="stroke: #A80036; stroke-width: 1.0; stroke-dasharray: 2.0,2.0;" x1="1445.5" x2="1752.5" y1="827.4844" y2="827.4844"/><text fill="#000000" font-family="sans-serif" font-size="13" font-weight="bold" lengthAdjust="spacingAndGlyphs" textLength="18" x="1457.5" y="822.4185">22</text><text fill="#000000" font-family="sans-serif" font-size="13" lengthAdjust="spacingAndGlyphs" textLength="28" x="1479.5" y="822.4185">floor</text><polygon fill="#A80036" points="898,852.6172,888,856.6172,898,860.6172,894,856.6172" style="stroke: #A80036; stroke-width: 1.0;"/><line style="stroke: #A80036; stroke-width: 1.0; stroke-dasharray: 2.0,2.0;" x1="892" x2="1046" y1="856.6172" y2="856.6172"/><text fill="#000000" font-family="sans-serif" font-size="13" font-weight="bold" lengthAdjust="spacingAndGlyphs" textLength="18" x="904" y="851.5513">23</text><text fill="#000000" font-family="sans-serif" font-size="13" lengthAdjust="spacingAndGlyphs" textLength="64" x="926" y="851.5513">HTTP: 201</text><polygon fill="#A80036" points="627.5,881.75,617.5,885.75,627.5,889.75,623.5,885.75" style="stroke: #A80036; stroke-width: 1.0;"/><line style="stroke: #A80036; stroke-width: 1.0; stroke-dasharray: 2.0,2.0;" x1="621.5" x2="876" y1="885.75" y2="885.75"/><text fill="#000000" font-family="sans-serif" font-size="13" font-weight="bold" lengthAdjust="spacingAndGlyphs" textLength="18" x="633.5" y="880.6841">24</text><text fill="#000000" font-family="sans-serif" font-size="13" lengthAdjust="spacingAndGlyphs" textLength="64" x="655.5" y="880.6841">HTTP: 201</text><polygon fill="#A80036" points="449.5,910.8828,439.5,914.8828,449.5,918.8828,445.5,914.8828" style="stroke: #A80036; stroke-width: 1.0;"/><line style="stroke: #A80036; stroke-width: 1.0; stroke-dasharray: 2.0,2.0;" x1="443.5" x2="605.5" y1="914.8828" y2="914.8828"/><text fill="#000000" font-family="sans-serif" font-size="13" font-weight="bold" lengthAdjust="spacingAndGlyphs" textLength="18" x="455.5" y="909.8169">25</text><text fill="#000000" font-family="sans-serif" font-size="13" lengthAdjust="spacingAndGlyphs" textLength="64" x="477.5" y="909.8169">HTTP: 201</text><polygon fill="#A80036" points="305.5,940.0156,295.5,944.0156,305.5,948.0156,301.5,944.0156" style="stroke: #A80036; stroke-width: 1.0;"/><line style="stroke: #A80036; stroke-width: 1.0; stroke-dasharray: 2.0,2.0;" x1="299.5" x2="427.5" y1="944.0156" y2="944.0156"/><text fill="#000000" font-family="sans-serif" font-size="13" font-weight="bold" lengthAdjust="spacingAndGlyphs" textLength="18" x="311.5" y="938.9497">26</text><text fill="#000000" font-family="sans-serif" font-size="13" lengthAdjust="spacingAndGlyphs" textLength="64" x="333.5" y="938.9497">HTTP: 201</text><polygon fill="#A80036" points="63.5,969.1484,53.5,973.1484,63.5,977.1484,59.5,973.1484" style="stroke: #A80036; stroke-width: 1.0;"/><line style="stroke: #A80036; stroke-width: 1.0; stroke-dasharray: 2.0,2.0;" x1="57.5" x2="283.5" y1="973.1484" y2="973.1484"/><text fill="#000000" font-family="sans-serif" font-size="13" font-weight="bold" lengthAdjust="spacingAndGlyphs" textLength="18" x="69.5" y="968.0825">27</text><text fill="#000000" font-family="sans-serif" font-size="13" lengthAdjust="spacingAndGlyphs" textLength="150" x="91.5" y="968.0825">show success message</text><line style="stroke: #000000; stroke-width: 1.0; stroke-dasharray: 2.0,2.0;" x1="13" x2="2192" y1="982.1484" y2="982.1484"/><polygon fill="#A80036" points="1451.5,1000.2813,1441.5,1004.2813,1451.5,1008.2813,1447.5,1004.2813" style="stroke: #A80036; stroke-width: 1.0;"/><line style="stroke: #A80036; stroke-width: 1.0; stroke-dasharray: 2.0,2.0;" x1="1445.5" x2="1752.5" y1="1004.2813" y2="1004.2813"/><text fill="#000000" font-family="sans-serif" font-size="13" font-weight="bold" lengthAdjust="spacingAndGlyphs" textLength="18" x="1457.5" y="999.2153">28</text><text fill="#000000" font-family="sans-serif" font-size="13" lengthAdjust="spacingAndGlyphs" textLength="267" x="1479.5" y="999.2153">Error(Room overlaps with existing rooms.)</text><polygon fill="#A80036" points="898,1029.4141,888,1033.4141,898,1037.4141,894,1033.4141" style="stroke: #A80036; stroke-width: 1.0;"/><line style="stroke: #A80036; stroke-width: 1.0; stroke-dasharray: 2.0,2.0;" x1="892" x2="1046" y1="1033.4141" y2="1033.4141"/><text fill="#000000" font-family="sans-serif" font-size="13" font-weight="bold" lengthAdjust="spacingAndGlyphs" textLength="18" x="904" y="1028.3481">29</text><text fill="#000000" font-family="sans-serif" font-size="13" lengthAdjust="spacingAndGlyphs" textLength="64" x="926" y="1028.3481">HTTP: 400</text><polygon fill="#A80036" points="627.5,1058.5469,617.5,1062.5469,627.5,1066.5469,623.5,1062.5469" style="stroke: #A80036; stroke-width: 1.0;"/><line style="stroke: #A80036; stroke-width: 1.0; stroke-dasharray: 2.0,2.0;" x1="621.5" x2="876" y1="1062.5469" y2="1062.5469"/><text fill="#000000" font-family="sans-serif" font-size="13" font-weight="bold" lengthAdjust="spacingAndGlyphs" textLength="18" x="633.5" y="1057.481">30</text><text fill="#000000" font-family="sans-serif" font-size="13" lengthAdjust="spacingAndGlyphs" textLength="64" x="655.5" y="1057.481">HTTP: 400</text><polygon fill="#A80036" points="449.5,1087.6797,439.5,1091.6797,449.5,1095.6797,445.5,1091.6797" style="stroke: #A80036; stroke-width: 1.0;"/><line style="stroke: #A80036; stroke-width: 1.0; stroke-dasharray: 2.0,2.0;" x1="443.5" x2="605.5" y1="1091.6797" y2="1091.6797"/><text fill="#000000" font-family="sans-serif" font-size="13" font-weight="bold" lengthAdjust="spacingAndGlyphs" textLength="18" x="455.5" y="1086.6138">31</text><text fill="#000000" font-family="sans-serif" font-size="13" lengthAdjust="spacingAndGlyphs" textLength="64" x="477.5" y="1086.6138">HTTP: 400</text><polygon fill="#A80036" points="305.5,1116.8125,295.5,1120.8125,305.5,1124.8125,301.5,1120.8125" style="stroke: #A80036; stroke-width: 1.0;"/><line style="stroke: #A80036; stroke-width: 1.0; stroke-dasharray: 2.0,2.0;" x1="299.5" x2="427.5" y1="1120.8125" y2="1120.8125"/><text fill="#000000" font-family="sans-serif" font-size="13" font-weight="bold" lengthAdjust="spacingAndGlyphs" textLength="18" x="311.5" y="1115.7466">32</text><text fill="#000000" font-family="sans-serif" font-size="13" lengthAdjust="spacingAndGlyphs" textLength="64" x="333.5" y="1115.7466">HTTP: 400</text><polygon fill="#A80036" points="63.5,1145.9453,53.5,1149.9453,63.5,1153.9453,59.5,1149.9453" style="stroke: #A80036; stroke-width: 1.0;"/><line style="stroke: #A80036; stroke-width: 1.0; stroke-dasharray: 2.0,2.0;" x1="57.5" x2="283.5" y1="1149.9453" y2="1149.9453"/><text fill="#000000" font-family="sans-serif" font-size="13" font-weight="bold" lengthAdjust="spacingAndGlyphs" textLength="18" x="69.5" y="1144.8794">33</text><text fill="#000000" font-family="sans-serif" font-size="13" lengthAdjust="spacingAndGlyphs" textLength="138" x="91.5" y="1144.8794">show failure message</text><!--MD5=[6a681908ad0589d597404d7fd50f2d06]
@startuml
autonumber
actor "Admin" as admin

participant ":View" as sys
participant ":FE_Component" as comp
participant ":FE_RoomService" as FEsrvc
participant ":FE_FloorService" as FFEsrvc
participant ":Routing" as route
participant ":RoomController" as ctrl
participant ":FloorController" as Fctrl
participant ":FloorService" as Fsrvc
participant ":RoomService" as srvc
participant ":FloorRepo" as Frepo
participant ":RoomRepo" as repo
participant ":RoomMap" as rtMap
participant ":RoomSchema" as rtSchema
participant ":Room" as r

activate admin

admin -> sys: wants to update floor passages
activate sys
sys - -> admin: request necessary data()
admin -> sys : insert all the data
activate comp

sys -> comp : getFloors()
activate FFEsrvc
comp -> FFEsrvc : listFloors()
activate route
FFEsrvc -> route: GET route{}
activate Fctrl
route -> Fctrl: listAllFloors()
activate Fsrvc
ctrl -> Fsrvc: findAll()
activate Frepo
Fsrvc -> Frepo: findAll()
deactivate FFEsrvc
deactivate route
deactivate Fctrl
deactivate Fsrvc
deactivate Frepo

sys -> comp : createRoom()
activate FEsrvc
comp -> FEsrvc : createRoom(room)
activate route
FEsrvc -> route: POST route{json}
activate ctrl
route -> ctrl: createRoom(json)
activate srvc
ctrl -> srvc: createRoom(IRoomDTO)
activate r
srvc -> r: create()
activate Frepo
deactivate r
srvc -> Frepo: findById(floor.id)
activate repo
srvc -> repo: save(floor)
repo -> rtSchema: find(room.floor.id)
loop All Rooms Same Floor
    repo -> repo: doRoomsOverlap(Room, Room)
end
alt no overlap
    activate rtMap
    repo -> rtMap: toPersistance(floor)
    activate rtSchema
    repo -> rtSchema: create(floor)
    repo - -> srvc: floor
    ctrl - -> route : HTTP: 201
    route - -> FEsrvc: HTTP: 201
    FEsrvc - -> comp: HTTP: 201
    comp - -> sys: HTTP: 201
    sys - -> admin: show success message
else
    repo - -> srvc: Error(Room overlaps with existing rooms.)
    ctrl - -> route : HTTP: 400
    route - -> FEsrvc: HTTP: 400
    FEsrvc - -> comp: HTTP: 400
    comp - -> sys: HTTP: 400
    sys - -> admin: show failure message
end

deactivate rtSchema
deactivate rtMap
deactivate repo
deactivate ctrl
deactivate route
deactivate FEsrvc
deactivate comp
deactivate sys
deactivate admin
@enduml

PlantUML version 1.2020.02(Sun Mar 01 10:22:07 UTC 2020)
(GPL source distribution)
Java Runtime: OpenJDK Runtime Environment
JVM: OpenJDK 64-Bit Server VM
Java Version: 11.0.21+9
Operating System: Linux
Default Encoding: UTF-8
Language: en
Country: null
--></g></svg>