<?xml version="1.0" encoding="windows-1252" standalone="no"?>
<svg xmlns="http://www.w3.org/2000/svg" xmlns:xlink="http://www.w3.org/1999/xlink" contentStyleType="text/css" height="972px" preserveAspectRatio="none" style="width:2099px;height:972px;background:#FFFFFF;" version="1.1" viewBox="0 0 2099 972" width="2099px" zoomAndPan="magnify"><defs/><g><rect fill="#FFFFFF" height="790.5859" style="stroke:#181818;stroke-width:1.0;" width="10" x="41" y="91.2969"/><rect fill="#FFFFFF" height="769.4531" style="stroke:#181818;stroke-width:1.0;" width="10" x="285" y="112.4297"/><rect fill="#FFFFFF" height="711.1875" style="stroke:#181818;stroke-width:1.0;" width="10" x="453" y="170.6953"/><rect fill="#FFFFFF" height="682.0547" style="stroke:#181818;stroke-width:1.0;" width="10" x="655" y="199.8281"/><rect fill="#FFFFFF" height="652.9219" style="stroke:#181818;stroke-width:1.0;" width="10" x="818" y="228.9609"/><rect fill="#FFFFFF" height="623.7891" style="stroke:#181818;stroke-width:1.0;" width="10" x="1012" y="258.0938"/><rect fill="#FFFFFF" height="595.6563" style="stroke:#181818;stroke-width:1.0;" width="10" x="1281" y="287.2266"/><rect fill="#FFFFFF" height="203.9297" style="stroke:#181818;stroke-width:1.0;" width="10" x="1528" y="316.3594"/><rect fill="#FFFFFF" height="87.3984" style="stroke:#181818;stroke-width:1.0;" width="10" x="1746" y="432.8906"/><rect fill="#FFFFFF" height="145.6641" style="stroke:#181818;stroke-width:1.0;" width="10" x="1899.5" y="374.625"/><rect fill="#FFFFFF" height="537.3906" style="stroke:#181818;stroke-width:1.0;" width="10" x="2038" y="345.4922"/><rect fill="none" height="310.4609" style="stroke:#000000;stroke-width:1.5;" width="1085.5" x="10" y="564.4219"/><line style="stroke:#181818;stroke-width:0.5;stroke-dasharray:5.0,5.0;" x1="46" x2="46" y1="81.2969" y2="891.8828"/><line style="stroke:#181818;stroke-width:0.5;stroke-dasharray:5.0,5.0;" x1="289.5" x2="289.5" y1="81.2969" y2="891.8828"/><line style="stroke:#181818;stroke-width:0.5;stroke-dasharray:5.0,5.0;" x1="457.5" x2="457.5" y1="81.2969" y2="891.8828"/><line style="stroke:#181818;stroke-width:0.5;stroke-dasharray:5.0,5.0;" x1="660" x2="660" y1="81.2969" y2="891.8828"/><line style="stroke:#181818;stroke-width:0.5;stroke-dasharray:5.0,5.0;" x1="822.5" x2="822.5" y1="81.2969" y2="891.8828"/><line style="stroke:#181818;stroke-width:0.5;stroke-dasharray:5.0,5.0;" x1="1016.5" x2="1016.5" y1="81.2969" y2="891.8828"/><line style="stroke:#181818;stroke-width:0.5;stroke-dasharray:5.0,5.0;" x1="1285.5" x2="1285.5" y1="81.2969" y2="891.8828"/><line style="stroke:#181818;stroke-width:0.5;stroke-dasharray:5.0,5.0;" x1="1533" x2="1533" y1="81.2969" y2="891.8828"/><line style="stroke:#181818;stroke-width:0.5;stroke-dasharray:5.0,5.0;" x1="1751" x2="1751" y1="81.2969" y2="891.8828"/><line style="stroke:#181818;stroke-width:0.5;stroke-dasharray:5.0,5.0;" x1="1904" x2="1904" y1="81.2969" y2="891.8828"/><line style="stroke:#181818;stroke-width:0.5;stroke-dasharray:5.0,5.0;" x1="2043" x2="2043" y1="81.2969" y2="891.8828"/><text fill="#000000" font-family="sans-serif" font-size="14" lengthAdjust="spacing" textLength="46" x="20" y="77.9951">Admin</text><ellipse cx="46" cy="13.5" fill="#E2E2F0" rx="8" ry="8" style="stroke:#181818;stroke-width:0.5;"/><path d="M46,21.5 L46,48.5 M33,29.5 L59,29.5 M46,48.5 L33,63.5 M46,48.5 L59,63.5 " fill="none" style="stroke:#181818;stroke-width:0.5;"/><text fill="#000000" font-family="sans-serif" font-size="14" lengthAdjust="spacing" textLength="46" x="20" y="903.8779">Admin</text><ellipse cx="46" cy="915.6797" fill="#E2E2F0" rx="8" ry="8" style="stroke:#181818;stroke-width:0.5;"/><path d="M46,923.6797 L46,950.6797 M33,931.6797 L59,931.6797 M46,950.6797 L33,965.6797 M46,950.6797 L59,965.6797 " fill="none" style="stroke:#181818;stroke-width:0.5;"/><rect fill="#E2E2F0" height="30.2969" rx="2.5" ry="2.5" style="stroke:#181818;stroke-width:0.5;" width="53" x="263.5" y="50"/><text fill="#000000" font-family="sans-serif" font-size="14" lengthAdjust="spacing" textLength="39" x="270.5" y="69.9951">:View</text><rect fill="#E2E2F0" height="30.2969" rx="2.5" ry="2.5" style="stroke:#181818;stroke-width:0.5;" width="53" x="263.5" y="890.8828"/><text fill="#000000" font-family="sans-serif" font-size="14" lengthAdjust="spacing" textLength="39" x="270.5" y="910.8779">:View</text><rect fill="#E2E2F0" height="30.2969" rx="2.5" ry="2.5" style="stroke:#181818;stroke-width:0.5;" width="129" x="393.5" y="50"/><text fill="#000000" font-family="sans-serif" font-size="14" lengthAdjust="spacing" textLength="115" x="400.5" y="69.9951">:FE_Component</text><rect fill="#E2E2F0" height="30.2969" rx="2.5" ry="2.5" style="stroke:#181818;stroke-width:0.5;" width="129" x="393.5" y="890.8828"/><text fill="#000000" font-family="sans-serif" font-size="14" lengthAdjust="spacing" textLength="115" x="400.5" y="910.8779">:FE_Component</text><rect fill="#E2E2F0" height="30.2969" rx="2.5" ry="2.5" style="stroke:#181818;stroke-width:0.5;" width="96" x="612" y="50"/><text fill="#000000" font-family="sans-serif" font-size="14" lengthAdjust="spacing" textLength="82" x="619" y="69.9951">:FE_Service</text><rect fill="#E2E2F0" height="30.2969" rx="2.5" ry="2.5" style="stroke:#181818;stroke-width:0.5;" width="96" x="612" y="890.8828"/><text fill="#000000" font-family="sans-serif" font-size="14" lengthAdjust="spacing" textLength="82" x="619" y="910.8779">:FE_Service</text><rect fill="#E2E2F0" height="30.2969" rx="2.5" ry="2.5" style="stroke:#181818;stroke-width:0.5;" width="75" x="785.5" y="50"/><text fill="#000000" font-family="sans-serif" font-size="14" lengthAdjust="spacing" textLength="61" x="792.5" y="69.9951">:Routing</text><rect fill="#E2E2F0" height="30.2969" rx="2.5" ry="2.5" style="stroke:#181818;stroke-width:0.5;" width="75" x="785.5" y="890.8828"/><text fill="#000000" font-family="sans-serif" font-size="14" lengthAdjust="spacing" textLength="61" x="792.5" y="910.8779">:Routing</text><rect fill="#E2E2F0" height="30.2969" rx="2.5" ry="2.5" style="stroke:#181818;stroke-width:0.5;" width="137" x="948.5" y="50"/><text fill="#000000" font-family="sans-serif" font-size="14" lengthAdjust="spacing" textLength="123" x="955.5" y="69.9951">:RobotController</text><rect fill="#E2E2F0" height="30.2969" rx="2.5" ry="2.5" style="stroke:#181818;stroke-width:0.5;" width="137" x="948.5" y="890.8828"/><text fill="#000000" font-family="sans-serif" font-size="14" lengthAdjust="spacing" textLength="123" x="955.5" y="910.8779">:RobotController</text><rect fill="#E2E2F0" height="30.2969" rx="2.5" ry="2.5" style="stroke:#181818;stroke-width:0.5;" width="117" x="1227.5" y="50"/><text fill="#000000" font-family="sans-serif" font-size="14" lengthAdjust="spacing" textLength="103" x="1234.5" y="69.9951">:RobotService</text><rect fill="#E2E2F0" height="30.2969" rx="2.5" ry="2.5" style="stroke:#181818;stroke-width:0.5;" width="117" x="1227.5" y="890.8828"/><text fill="#000000" font-family="sans-serif" font-size="14" lengthAdjust="spacing" textLength="103" x="1234.5" y="910.8779">:RobotService</text><rect fill="#E2E2F0" height="30.2969" rx="2.5" ry="2.5" style="stroke:#181818;stroke-width:0.5;" width="138" x="1464" y="50"/><text fill="#000000" font-family="sans-serif" font-size="14" lengthAdjust="spacing" textLength="124" x="1471" y="69.9951">:RobotTypeRepo</text><rect fill="#E2E2F0" height="30.2969" rx="2.5" ry="2.5" style="stroke:#181818;stroke-width:0.5;" width="138" x="1464" y="890.8828"/><text fill="#000000" font-family="sans-serif" font-size="14" lengthAdjust="spacing" textLength="124" x="1471" y="910.8779">:RobotTypeRepo</text><rect fill="#E2E2F0" height="30.2969" rx="2.5" ry="2.5" style="stroke:#181818;stroke-width:0.5;" width="130" x="1686" y="50"/><text fill="#000000" font-family="sans-serif" font-size="14" lengthAdjust="spacing" textLength="116" x="1693" y="69.9951">:RobotTypeMap</text><rect fill="#E2E2F0" height="30.2969" rx="2.5" ry="2.5" style="stroke:#181818;stroke-width:0.5;" width="130" x="1686" y="890.8828"/><text fill="#000000" font-family="sans-serif" font-size="14" lengthAdjust="spacing" textLength="116" x="1693" y="910.8779">:RobotTypeMap</text><rect fill="#E2E2F0" height="30.2969" rx="2.5" ry="2.5" style="stroke:#181818;stroke-width:0.5;" width="157" x="1826" y="50"/><text fill="#000000" font-family="sans-serif" font-size="14" lengthAdjust="spacing" textLength="143" x="1833" y="69.9951">:RobotTypeSchema</text><rect fill="#E2E2F0" height="30.2969" rx="2.5" ry="2.5" style="stroke:#181818;stroke-width:0.5;" width="157" x="1826" y="890.8828"/><text fill="#000000" font-family="sans-serif" font-size="14" lengthAdjust="spacing" textLength="143" x="1833" y="910.8779">:RobotTypeSchema</text><rect fill="#E2E2F0" height="30.2969" rx="2.5" ry="2.5" style="stroke:#181818;stroke-width:0.5;" width="100" x="1993" y="50"/><text fill="#000000" font-family="sans-serif" font-size="14" lengthAdjust="spacing" textLength="86" x="2000" y="69.9951">:RobotType</text><rect fill="#E2E2F0" height="30.2969" rx="2.5" ry="2.5" style="stroke:#181818;stroke-width:0.5;" width="100" x="1993" y="890.8828"/><text fill="#000000" font-family="sans-serif" font-size="14" lengthAdjust="spacing" textLength="86" x="2000" y="910.8779">:RobotType</text><rect fill="#FFFFFF" height="790.5859" style="stroke:#181818;stroke-width:1.0;" width="10" x="41" y="91.2969"/><rect fill="#FFFFFF" height="769.4531" style="stroke:#181818;stroke-width:1.0;" width="10" x="285" y="112.4297"/><rect fill="#FFFFFF" height="711.1875" style="stroke:#181818;stroke-width:1.0;" width="10" x="453" y="170.6953"/><rect fill="#FFFFFF" height="682.0547" style="stroke:#181818;stroke-width:1.0;" width="10" x="655" y="199.8281"/><rect fill="#FFFFFF" height="652.9219" style="stroke:#181818;stroke-width:1.0;" width="10" x="818" y="228.9609"/><rect fill="#FFFFFF" height="623.7891" style="stroke:#181818;stroke-width:1.0;" width="10" x="1012" y="258.0938"/><rect fill="#FFFFFF" height="595.6563" style="stroke:#181818;stroke-width:1.0;" width="10" x="1281" y="287.2266"/><rect fill="#FFFFFF" height="203.9297" style="stroke:#181818;stroke-width:1.0;" width="10" x="1528" y="316.3594"/><rect fill="#FFFFFF" height="87.3984" style="stroke:#181818;stroke-width:1.0;" width="10" x="1746" y="432.8906"/><rect fill="#FFFFFF" height="145.6641" style="stroke:#181818;stroke-width:1.0;" width="10" x="1899.5" y="374.625"/><rect fill="#FFFFFF" height="537.3906" style="stroke:#181818;stroke-width:1.0;" width="10" x="2038" y="345.4922"/><polygon fill="#181818" points="273,108.4297,283,112.4297,273,116.4297,277,112.4297" style="stroke:#181818;stroke-width:1.0;"/><line style="stroke:#181818;stroke-width:1.0;" x1="51" x2="279" y1="112.4297" y2="112.4297"/><text fill="#000000" font-family="sans-serif" font-size="13" font-weight="bold" lengthAdjust="spacing" textLength="9" x="58" y="107.3638">1</text><text fill="#000000" font-family="sans-serif" font-size="13" lengthAdjust="spacing" textLength="202" x="71" y="107.3638">wants to introduce a robotType</text><polygon fill="#181818" points="62,137.5625,52,141.5625,62,145.5625,58,141.5625" style="stroke:#181818;stroke-width:1.0;"/><line style="stroke:#181818;stroke-width:1.0;stroke-dasharray:2.0,2.0;" x1="56" x2="284" y1="141.5625" y2="141.5625"/><text fill="#000000" font-family="sans-serif" font-size="13" font-weight="bold" lengthAdjust="spacing" textLength="9" x="68" y="136.4966">2</text><text fill="#000000" font-family="sans-serif" font-size="13" lengthAdjust="spacing" textLength="162" x="81" y="136.4966">request necessary data()</text><polygon fill="#181818" points="273,166.6953,283,170.6953,273,174.6953,277,170.6953" style="stroke:#181818;stroke-width:1.0;"/><line style="stroke:#181818;stroke-width:1.0;" x1="51" x2="279" y1="170.6953" y2="170.6953"/><text fill="#000000" font-family="sans-serif" font-size="13" font-weight="bold" lengthAdjust="spacing" textLength="8" x="58" y="165.6294">3</text><text fill="#000000" font-family="sans-serif" font-size="13" lengthAdjust="spacing" textLength="112" x="70" y="165.6294">insert all the data</text><polygon fill="#181818" points="441,195.8281,451,199.8281,441,203.8281,445,199.8281" style="stroke:#181818;stroke-width:1.0;"/><line style="stroke:#181818;stroke-width:1.0;" x1="295" x2="447" y1="199.8281" y2="199.8281"/><text fill="#000000" font-family="sans-serif" font-size="13" font-weight="bold" lengthAdjust="spacing" textLength="9" x="302" y="194.7622">4</text><text fill="#000000" font-family="sans-serif" font-size="13" lengthAdjust="spacing" textLength="121" x="315" y="194.7622">createRobotType()</text><polygon fill="#181818" points="643,224.9609,653,228.9609,643,232.9609,647,228.9609" style="stroke:#181818;stroke-width:1.0;"/><line style="stroke:#181818;stroke-width:1.0;" x1="463" x2="649" y1="228.9609" y2="228.9609"/><text fill="#000000" font-family="sans-serif" font-size="13" font-weight="bold" lengthAdjust="spacing" textLength="9" x="470" y="223.895">5</text><text fill="#000000" font-family="sans-serif" font-size="13" lengthAdjust="spacing" textLength="155" x="483" y="223.895">createRobot(robotType)</text><polygon fill="#181818" points="806,254.0938,816,258.0938,806,262.0938,810,258.0938" style="stroke:#181818;stroke-width:1.0;"/><line style="stroke:#181818;stroke-width:1.0;" x1="665" x2="812" y1="258.0938" y2="258.0938"/><text fill="#000000" font-family="sans-serif" font-size="13" font-weight="bold" lengthAdjust="spacing" textLength="9" x="672" y="253.0278">6</text><text fill="#000000" font-family="sans-serif" font-size="13" lengthAdjust="spacing" textLength="116" x="685" y="253.0278">POST route{json}</text><polygon fill="#181818" points="1000,283.2266,1010,287.2266,1000,291.2266,1004,287.2266" style="stroke:#181818;stroke-width:1.0;"/><line style="stroke:#181818;stroke-width:1.0;" x1="828" x2="1006" y1="287.2266" y2="287.2266"/><text fill="#000000" font-family="sans-serif" font-size="13" font-weight="bold" lengthAdjust="spacing" textLength="9" x="835" y="282.1606">7</text><text fill="#000000" font-family="sans-serif" font-size="13" lengthAdjust="spacing" textLength="147" x="848" y="282.1606">createRobotType(json)</text><polygon fill="#181818" points="1269,312.3594,1279,316.3594,1269,320.3594,1273,316.3594" style="stroke:#181818;stroke-width:1.0;"/><line style="stroke:#181818;stroke-width:1.0;" x1="1022" x2="1275" y1="316.3594" y2="316.3594"/><text fill="#000000" font-family="sans-serif" font-size="13" font-weight="bold" lengthAdjust="spacing" textLength="9" x="1029" y="311.2935">8</text><text fill="#000000" font-family="sans-serif" font-size="13" lengthAdjust="spacing" textLength="222" x="1042" y="311.2935">createRobotType(IRobotTypeDTO)</text><polygon fill="#181818" points="1516,341.4922,1526,345.4922,1516,349.4922,1520,345.4922" style="stroke:#181818;stroke-width:1.0;"/><line style="stroke:#181818;stroke-width:1.0;" x1="1291" x2="1522" y1="345.4922" y2="345.4922"/><text fill="#000000" font-family="sans-serif" font-size="13" font-weight="bold" lengthAdjust="spacing" textLength="9" x="1298" y="340.4263">9</text><text fill="#000000" font-family="sans-serif" font-size="13" lengthAdjust="spacing" textLength="200" x="1311" y="340.4263">findByDesignation(designation)</text><polygon fill="#181818" points="2026,370.625,2036,374.625,2026,378.625,2030,374.625" style="stroke:#181818;stroke-width:1.0;"/><line style="stroke:#181818;stroke-width:1.0;" x1="1291" x2="2032" y1="374.625" y2="374.625"/><text fill="#000000" font-family="sans-serif" font-size="13" font-weight="bold" lengthAdjust="spacing" textLength="19" x="1298" y="369.5591">10</text><text fill="#000000" font-family="sans-serif" font-size="13" lengthAdjust="spacing" textLength="51" x="1321" y="369.5591">create()</text><polygon fill="#181818" points="1516,399.7578,1526,403.7578,1516,407.7578,1520,403.7578" style="stroke:#181818;stroke-width:1.0;"/><line style="stroke:#181818;stroke-width:1.0;" x1="1291" x2="1522" y1="403.7578" y2="403.7578"/><text fill="#000000" font-family="sans-serif" font-size="13" font-weight="bold" lengthAdjust="spacing" textLength="18" x="1298" y="398.6919">11</text><text fill="#000000" font-family="sans-serif" font-size="13" lengthAdjust="spacing" textLength="107" x="1320" y="398.6919">save(robotType)</text><polygon fill="#181818" points="1887.5,428.8906,1897.5,432.8906,1887.5,436.8906,1891.5,432.8906" style="stroke:#181818;stroke-width:1.0;"/><line style="stroke:#181818;stroke-width:1.0;" x1="1538" x2="1893.5" y1="432.8906" y2="432.8906"/><text fill="#000000" font-family="sans-serif" font-size="13" font-weight="bold" lengthAdjust="spacing" textLength="18" x="1545" y="427.8247">12</text><text fill="#000000" font-family="sans-serif" font-size="13" lengthAdjust="spacing" textLength="71" x="1567" y="427.8247">findOne(id)</text><polygon fill="#181818" points="1734,458.0234,1744,462.0234,1734,466.0234,1738,462.0234" style="stroke:#181818;stroke-width:1.0;"/><line style="stroke:#181818;stroke-width:1.0;" x1="1538" x2="1740" y1="462.0234" y2="462.0234"/><text fill="#000000" font-family="sans-serif" font-size="13" font-weight="bold" lengthAdjust="spacing" textLength="17" x="1545" y="456.9575">13</text><text fill="#000000" font-family="sans-serif" font-size="13" lengthAdjust="spacing" textLength="163" x="1566" y="456.9575">toPersistance(robotType)</text><polygon fill="#181818" points="1887.5,487.1563,1897.5,491.1563,1887.5,495.1563,1891.5,491.1563" style="stroke:#181818;stroke-width:1.0;"/><line style="stroke:#181818;stroke-width:1.0;" x1="1538" x2="1893.5" y1="491.1563" y2="491.1563"/><text fill="#000000" font-family="sans-serif" font-size="13" font-weight="bold" lengthAdjust="spacing" textLength="18" x="1545" y="486.0903">14</text><text fill="#000000" font-family="sans-serif" font-size="13" lengthAdjust="spacing" textLength="117" x="1567" y="486.0903">create(robotType)</text><polygon fill="#181818" points="1302,516.2891,1292,520.2891,1302,524.2891,1298,520.2891" style="stroke:#181818;stroke-width:1.0;"/><line style="stroke:#181818;stroke-width:1.0;stroke-dasharray:2.0,2.0;" x1="1296" x2="1532" y1="520.2891" y2="520.2891"/><text fill="#000000" font-family="sans-serif" font-size="13" font-weight="bold" lengthAdjust="spacing" textLength="18" x="1308" y="515.2231">15</text><text fill="#000000" font-family="sans-serif" font-size="13" lengthAdjust="spacing" textLength="66" x="1330" y="515.2231">robotType</text><polygon fill="#181818" points="1033,545.4219,1023,549.4219,1033,553.4219,1029,549.4219" style="stroke:#181818;stroke-width:1.0;"/><line style="stroke:#181818;stroke-width:1.0;stroke-dasharray:2.0,2.0;" x1="1027" x2="1280" y1="549.4219" y2="549.4219"/><text fill="#000000" font-family="sans-serif" font-size="13" font-weight="bold" lengthAdjust="spacing" textLength="18" x="1039" y="544.356">16</text><text fill="#000000" font-family="sans-serif" font-size="13" lengthAdjust="spacing" textLength="36" x="1061" y="544.356">result</text><path d="M10,564.4219 L76,564.4219 L76,571.5547 L66,581.5547 L10,581.5547 L10,564.4219 " fill="#EEEEEE" style="stroke:#000000;stroke-width:1.5;"/><rect fill="none" height="310.4609" style="stroke:#000000;stroke-width:1.5;" width="1085.5" x="10" y="564.4219"/><text fill="#000000" font-family="sans-serif" font-size="13" font-weight="bold" lengthAdjust="spacing" textLength="21" x="25" y="577.4888">alt</text><text fill="#000000" font-family="sans-serif" font-size="11" font-weight="bold" lengthAdjust="spacing" textLength="114" x="91" y="576.6323">[successful case]</text><polygon fill="#181818" points="839,598.6875,829,602.6875,839,606.6875,835,602.6875" style="stroke:#181818;stroke-width:1.0;"/><line style="stroke:#181818;stroke-width:1.0;stroke-dasharray:2.0,2.0;" x1="833" x2="1011" y1="602.6875" y2="602.6875"/><text fill="#000000" font-family="sans-serif" font-size="13" font-weight="bold" lengthAdjust="spacing" textLength="18" x="845" y="597.6216">17</text><text fill="#000000" font-family="sans-serif" font-size="13" lengthAdjust="spacing" textLength="66" x="867" y="597.6216">HTTP: 201</text><polygon fill="#181818" points="676,627.8203,666,631.8203,676,635.8203,672,631.8203" style="stroke:#181818;stroke-width:1.0;"/><line style="stroke:#181818;stroke-width:1.0;stroke-dasharray:2.0,2.0;" x1="670" x2="817" y1="631.8203" y2="631.8203"/><text fill="#000000" font-family="sans-serif" font-size="13" font-weight="bold" lengthAdjust="spacing" textLength="18" x="682" y="626.7544">18</text><text fill="#000000" font-family="sans-serif" font-size="13" lengthAdjust="spacing" textLength="66" x="704" y="626.7544">HTTP: 201</text><polygon fill="#181818" points="474,656.9531,464,660.9531,474,664.9531,470,660.9531" style="stroke:#181818;stroke-width:1.0;"/><line style="stroke:#181818;stroke-width:1.0;stroke-dasharray:2.0,2.0;" x1="468" x2="654" y1="660.9531" y2="660.9531"/><text fill="#000000" font-family="sans-serif" font-size="13" font-weight="bold" lengthAdjust="spacing" textLength="18" x="480" y="655.8872">19</text><text fill="#000000" font-family="sans-serif" font-size="13" lengthAdjust="spacing" textLength="66" x="502" y="655.8872">HTTP: 201</text><polygon fill="#181818" points="306,686.0859,296,690.0859,306,694.0859,302,690.0859" style="stroke:#181818;stroke-width:1.0;"/><line style="stroke:#181818;stroke-width:1.0;stroke-dasharray:2.0,2.0;" x1="300" x2="452" y1="690.0859" y2="690.0859"/><text fill="#000000" font-family="sans-serif" font-size="13" font-weight="bold" lengthAdjust="spacing" textLength="19" x="312" y="685.02">20</text><text fill="#000000" font-family="sans-serif" font-size="13" lengthAdjust="spacing" textLength="66" x="335" y="685.02">HTTP: 201</text><polygon fill="#181818" points="62,715.2188,52,719.2188,62,723.2188,58,719.2188" style="stroke:#181818;stroke-width:1.0;"/><line style="stroke:#181818;stroke-width:1.0;stroke-dasharray:2.0,2.0;" x1="56" x2="284" y1="719.2188" y2="719.2188"/><text fill="#000000" font-family="sans-serif" font-size="13" font-weight="bold" lengthAdjust="spacing" textLength="18" x="68" y="714.1528">21</text><text fill="#000000" font-family="sans-serif" font-size="13" lengthAdjust="spacing" textLength="152" x="90" y="714.1528">show success message</text><line style="stroke:#000000;stroke-width:1.0;stroke-dasharray:2.0,2.0;" x1="10" x2="1095.5" y1="728.2188" y2="728.2188"/><polygon fill="#181818" points="839,746.3516,829,750.3516,839,754.3516,835,750.3516" style="stroke:#181818;stroke-width:1.0;"/><line style="stroke:#181818;stroke-width:1.0;stroke-dasharray:2.0,2.0;" x1="833" x2="1011" y1="750.3516" y2="750.3516"/><text fill="#000000" font-family="sans-serif" font-size="13" font-weight="bold" lengthAdjust="spacing" textLength="18" x="845" y="745.2856">22</text><text fill="#000000" font-family="sans-serif" font-size="13" lengthAdjust="spacing" textLength="66" x="867" y="745.2856">HTTP: 400</text><polygon fill="#181818" points="676,775.4844,666,779.4844,676,783.4844,672,779.4844" style="stroke:#181818;stroke-width:1.0;"/><line style="stroke:#181818;stroke-width:1.0;stroke-dasharray:2.0,2.0;" x1="670" x2="817" y1="779.4844" y2="779.4844"/><text fill="#000000" font-family="sans-serif" font-size="13" font-weight="bold" lengthAdjust="spacing" textLength="17" x="682" y="774.4185">23</text><text fill="#000000" font-family="sans-serif" font-size="13" lengthAdjust="spacing" textLength="66" x="703" y="774.4185">HTTP: 400</text><polygon fill="#181818" points="474,804.6172,464,808.6172,474,812.6172,470,808.6172" style="stroke:#181818;stroke-width:1.0;"/><line style="stroke:#181818;stroke-width:1.0;stroke-dasharray:2.0,2.0;" x1="468" x2="654" y1="808.6172" y2="808.6172"/><text fill="#000000" font-family="sans-serif" font-size="13" font-weight="bold" lengthAdjust="spacing" textLength="18" x="480" y="803.5513">24</text><text fill="#000000" font-family="sans-serif" font-size="13" lengthAdjust="spacing" textLength="66" x="502" y="803.5513">HTTP: 400</text><polygon fill="#181818" points="306,833.75,296,837.75,306,841.75,302,837.75" style="stroke:#181818;stroke-width:1.0;"/><line style="stroke:#181818;stroke-width:1.0;stroke-dasharray:2.0,2.0;" x1="300" x2="452" y1="837.75" y2="837.75"/><text fill="#000000" font-family="sans-serif" font-size="13" font-weight="bold" lengthAdjust="spacing" textLength="18" x="312" y="832.6841">25</text><text fill="#000000" font-family="sans-serif" font-size="13" lengthAdjust="spacing" textLength="66" x="334" y="832.6841">HTTP: 400</text><polygon fill="#181818" points="62,862.8828,52,866.8828,62,870.8828,58,866.8828" style="stroke:#181818;stroke-width:1.0;"/><line style="stroke:#181818;stroke-width:1.0;stroke-dasharray:2.0,2.0;" x1="56" x2="284" y1="866.8828" y2="866.8828"/><text fill="#000000" font-family="sans-serif" font-size="13" font-weight="bold" lengthAdjust="spacing" textLength="18" x="68" y="861.8169">26</text><text fill="#000000" font-family="sans-serif" font-size="13" lengthAdjust="spacing" textLength="141" x="90" y="861.8169">show failure message</text><!--SRC=[XLHDZnen3BtFhx2ub1vMebLFSrYftG-rXmgqe5wha36GQaYcYGUAglxtEibyP6PW5mbXny_sI_oCgCde-hX5cxqxg09XPmnjpPzCI38MPf-Bez8p40w4jxAi4fQKL9NG1BFyXy9pYBgB6uMUdtu-c6DbD6eA4CdU5BD6Ur8I0-BvoTcJ765UJ4rAxmF0iesJ-DRGWz5aJLcYZQt8bjTWQREhhHYpkLJuWfM93Tcu1VekgeWXjcw1rlA0Hz7WedCBse0o__Jg90ZR9my_S7Vl7pc7CwSv80FANxce9UFuOPeYVRAV27_XZXD3XPnlyxj6Hw1HedF2Ng0G9ERl1nqWvyeEBO4eIw031b1VDumn5BuFDkEbHOvq5_45MtGpqW3aXEWEK-OT-IGlJhg1SsBmSrWjrvje__tbZFwNqF8Z3v50ZBqfBv-Iz8ZC61bkpiuqurjdFcwMAJslYuuREpdib2w-N1xHgRqMf8oU5xsTfbAVI6t7-G3Gw6HOtuaJfa_bJsEH28yCbXhdgXXKy-himUpbh9uLMgSS2ItVADhmcs2w9-kbL-3q3eCppoGzw1-n6vb5LvT-1qe2LqklqrrTWXGEC-1F75Sh21RIryrcbSF7nOSGRWJGAMqSRmNLQ7SSZZ9jDsqO6-sIEvXpon2EVftsc67vEirFYyMhDDlu3Pfj-1hDDdQDvaweihROqzH5EeUmEkbSmkub1yqIfod-Jo3n_PzDueRc_m40]--></g></svg>