<?xml version="1.0" encoding="UTF-8" standalone="no"?><svg xmlns="http://www.w3.org/2000/svg" xmlns:xlink="http://www.w3.org/1999/xlink" contentScriptType="application/ecmascript" contentStyleType="text/css" height="574px" preserveAspectRatio="none" style="width:1006px;height:574px;" version="1.1" viewBox="0 0 1006 574" width="1006px" zoomAndPan="magnify"><defs><filter height="300%" id="fzrc8xeekn60u" width="300%" x="-1" y="-1"><feGaussianBlur result="blurOut" stdDeviation="2.0"/><feColorMatrix in="blurOut" result="blurOut2" type="matrix" values="0 0 0 0 0 0 0 0 0 0 0 0 0 0 0 0 0 0 .4 0"/><feOffset dx="4.0" dy="4.0" in="blurOut2" result="blurOut3"/><feBlend in="SourceGraphic" in2="blurOut3" mode="normal"/></filter></defs><g><rect fill="#FFFFFF" filter="url(#fzrc8xeekn60u)" height="349.5938" style="stroke: #A80036; stroke-width: 1.0;" width="10" x="215" y="117.4297"/><rect fill="#FFFFFF" filter="url(#fzrc8xeekn60u)" height="29.1328" style="stroke: #A80036; stroke-width: 1.0;" width="10" x="381" y="146.5625"/><rect fill="#FFFFFF" filter="url(#fzrc8xeekn60u)" height="29.1328" style="stroke: #A80036; stroke-width: 1.0;" width="10" x="490.5" y="204.8281"/><rect fill="#FFFFFF" filter="url(#fzrc8xeekn60u)" height="203.9297" style="stroke: #A80036; stroke-width: 1.0;" width="10" x="626.5" y="233.9609"/><rect fill="#FFFFFF" filter="url(#fzrc8xeekn60u)" height="87.3984" style="stroke: #A80036; stroke-width: 1.0;" width="10" x="791.5" y="263.0938"/><rect fill="#FFFFFF" filter="url(#fzrc8xeekn60u)" height="29.1328" style="stroke: #A80036; stroke-width: 1.0;" width="10" x="950.5" y="292.2266"/><rect fill="#FFFFFF" filter="url(#fzrc8xeekn60u)" height="29.1328" style="stroke: #A80036; stroke-width: 1.0;" width="10" x="950.5" y="379.625"/><line style="stroke: #A80036; stroke-width: 1.0; stroke-dasharray: 5.0,5.0;" x1="27" x2="27" y1="86.2969" y2="485.0234"/><line style="stroke: #A80036; stroke-width: 1.0; stroke-dasharray: 5.0,5.0;" x1="220" x2="220" y1="86.2969" y2="485.0234"/><line style="stroke: #A80036; stroke-width: 1.0; stroke-dasharray: 5.0,5.0;" x1="386" x2="386" y1="86.2969" y2="485.0234"/><line style="stroke: #A80036; stroke-width: 1.0; stroke-dasharray: 5.0,5.0;" x1="495" x2="495" y1="86.2969" y2="485.0234"/><line style="stroke: #A80036; stroke-width: 1.0; stroke-dasharray: 5.0,5.0;" x1="631" x2="631" y1="86.2969" y2="485.0234"/><line style="stroke: #A80036; stroke-width: 1.0; stroke-dasharray: 5.0,5.0;" x1="796" x2="796" y1="86.2969" y2="485.0234"/><line style="stroke: #A80036; stroke-width: 1.0; stroke-dasharray: 5.0,5.0;" x1="955" x2="955" y1="86.2969" y2="485.0234"/><text fill="#000000" font-family="sans-serif" font-size="14" lengthAdjust="spacingAndGlyphs" textLength="32" x="8" y="82.9951">User</text><ellipse cx="27" cy="13" fill="#FEFECE" filter="url(#fzrc8xeekn60u)" rx="8" ry="8" style="stroke: #A80036; stroke-width: 2.0;"/><path d="M27,21 L27,48 M14,29 L40,29 M27,48 L14,63 M27,48 L40,63 " fill="none" filter="url(#fzrc8xeekn60u)" style="stroke: #A80036; stroke-width: 2.0;"/><text fill="#000000" font-family="sans-serif" font-size="14" lengthAdjust="spacingAndGlyphs" textLength="32" x="8" y="497.0186">User</text><ellipse cx="27" cy="510.3203" fill="#FEFECE" filter="url(#fzrc8xeekn60u)" rx="8" ry="8" style="stroke: #A80036; stroke-width: 2.0;"/><path d="M27,518.3203 L27,545.3203 M14,526.3203 L40,526.3203 M27,545.3203 L14,560.3203 M27,545.3203 L40,560.3203 " fill="none" filter="url(#fzrc8xeekn60u)" style="stroke: #A80036; stroke-width: 2.0;"/><rect fill="#FEFECE" filter="url(#fzrc8xeekn60u)" height="46.5938" style="stroke: #A80036; stroke-width: 1.5;" width="208" x="114" y="34.7031"/><text fill="#000000" font-family="sans-serif" font-size="14" lengthAdjust="spacingAndGlyphs" textLength="52" x="192" y="54.6982">Angular</text><text fill="#000000" font-family="sans-serif" font-size="14" lengthAdjust="spacingAndGlyphs" textLength="194" x="121" y="70.9951">Account Details Component</text><rect fill="#FEFECE" filter="url(#fzrc8xeekn60u)" height="46.5938" style="stroke: #A80036; stroke-width: 1.5;" width="208" x="114" y="484.0234"/><text fill="#000000" font-family="sans-serif" font-size="14" lengthAdjust="spacingAndGlyphs" textLength="52" x="192" y="504.0186">Angular</text><text fill="#000000" font-family="sans-serif" font-size="14" lengthAdjust="spacingAndGlyphs" textLength="194" x="121" y="520.3154">Account Details Component</text><rect fill="#FEFECE" filter="url(#fzrc8xeekn60u)" height="46.5938" style="stroke: #A80036; stroke-width: 1.5;" width="96" x="336" y="34.7031"/><text fill="#000000" font-family="sans-serif" font-size="14" font-style="italic" lengthAdjust="spacingAndGlyphs" textLength="81" x="343.5" y="54.6982">«Frontend»</text><text fill="#000000" font-family="sans-serif" font-size="14" lengthAdjust="spacingAndGlyphs" textLength="82" x="343" y="70.9951">AuthService</text><rect fill="#FEFECE" filter="url(#fzrc8xeekn60u)" height="46.5938" style="stroke: #A80036; stroke-width: 1.5;" width="96" x="336" y="484.0234"/><text fill="#000000" font-family="sans-serif" font-size="14" font-style="italic" lengthAdjust="spacingAndGlyphs" textLength="81" x="343.5" y="504.0186">«Frontend»</text><text fill="#000000" font-family="sans-serif" font-size="14" lengthAdjust="spacingAndGlyphs" textLength="82" x="343" y="520.3154">AuthService</text><rect fill="#FEFECE" filter="url(#fzrc8xeekn60u)" height="46.5938" style="stroke: #A80036; stroke-width: 1.5;" width="95" x="446" y="34.7031"/><text fill="#000000" font-family="sans-serif" font-size="14" font-style="italic" lengthAdjust="spacingAndGlyphs" textLength="81" x="453" y="54.6982">«Frontend»</text><text fill="#000000" font-family="sans-serif" font-size="14" lengthAdjust="spacingAndGlyphs" textLength="80" x="453.5" y="70.9951">HTTP Client</text><rect fill="#FEFECE" filter="url(#fzrc8xeekn60u)" height="46.5938" style="stroke: #A80036; stroke-width: 1.5;" width="95" x="446" y="484.0234"/><text fill="#000000" font-family="sans-serif" font-size="14" font-style="italic" lengthAdjust="spacingAndGlyphs" textLength="81" x="453" y="504.0186">«Frontend»</text><text fill="#000000" font-family="sans-serif" font-size="14" lengthAdjust="spacingAndGlyphs" textLength="80" x="453.5" y="520.3154">HTTP Client</text><rect fill="#FEFECE" filter="url(#fzrc8xeekn60u)" height="46.5938" style="stroke: #A80036; stroke-width: 1.5;" width="113" x="573" y="34.7031"/><text fill="#000000" font-family="sans-serif" font-size="14" font-style="italic" lengthAdjust="spacingAndGlyphs" textLength="79" x="590" y="54.6982">«Backend»</text><text fill="#000000" font-family="sans-serif" font-size="14" lengthAdjust="spacingAndGlyphs" textLength="99" x="580" y="70.9951">UserController</text><rect fill="#FEFECE" filter="url(#fzrc8xeekn60u)" height="46.5938" style="stroke: #A80036; stroke-width: 1.5;" width="113" x="573" y="484.0234"/><text fill="#000000" font-family="sans-serif" font-size="14" font-style="italic" lengthAdjust="spacingAndGlyphs" textLength="79" x="590" y="504.0186">«Backend»</text><text fill="#000000" font-family="sans-serif" font-size="14" lengthAdjust="spacingAndGlyphs" textLength="99" x="580" y="520.3154">UserController</text><rect fill="#FEFECE" filter="url(#fzrc8xeekn60u)" height="46.5938" style="stroke: #A80036; stroke-width: 1.5;" width="123" x="733" y="34.7031"/><text fill="#000000" font-family="sans-serif" font-size="14" font-style="italic" lengthAdjust="spacingAndGlyphs" textLength="79" x="755" y="54.6982">«Backend»</text><text fill="#000000" font-family="sans-serif" font-size="14" lengthAdjust="spacingAndGlyphs" textLength="109" x="740" y="70.9951">UserAppService</text><rect fill="#FEFECE" filter="url(#fzrc8xeekn60u)" height="46.5938" style="stroke: #A80036; stroke-width: 1.5;" width="123" x="733" y="484.0234"/><text fill="#000000" font-family="sans-serif" font-size="14" font-style="italic" lengthAdjust="spacingAndGlyphs" textLength="79" x="755" y="504.0186">«Backend»</text><text fill="#000000" font-family="sans-serif" font-size="14" lengthAdjust="spacingAndGlyphs" textLength="109" x="740" y="520.3154">UserAppService</text><text fill="#000000" font-family="sans-serif" font-size="14" font-style="italic" lengthAdjust="spacingAndGlyphs" textLength="83" x="911" y="66.6982">«Database»</text><text fill="#000000" font-family="sans-serif" font-size="14" lengthAdjust="spacingAndGlyphs" textLength="69" x="918" y="82.9951">MongoDB</text><path d="M937.5,17.7031 C937.5,7.7031 955.5,7.7031 955.5,7.7031 C955.5,7.7031 973.5,7.7031 973.5,17.7031 L973.5,43.7031 C973.5,53.7031 955.5,53.7031 955.5,53.7031 C955.5,53.7031 937.5,53.7031 937.5,43.7031 L937.5,17.7031 " fill="#FEFECE" filter="url(#fzrc8xeekn60u)" style="stroke: #000000; stroke-width: 1.5;"/><path d="M937.5,17.7031 C937.5,27.7031 955.5,27.7031 955.5,27.7031 C955.5,27.7031 973.5,27.7031 973.5,17.7031 " fill="none" style="stroke: #000000; stroke-width: 1.5;"/><text fill="#000000" font-family="sans-serif" font-size="14" font-style="italic" lengthAdjust="spacingAndGlyphs" textLength="83" x="911" y="497.0186">«Database»</text><text fill="#000000" font-family="sans-serif" font-size="14" lengthAdjust="spacingAndGlyphs" textLength="69" x="918" y="513.3154">MongoDB</text><path d="M937.5,526.6172 C937.5,516.6172 955.5,516.6172 955.5,516.6172 C955.5,516.6172 973.5,516.6172 973.5,526.6172 L973.5,552.6172 C973.5,562.6172 955.5,562.6172 955.5,562.6172 C955.5,562.6172 937.5,562.6172 937.5,552.6172 L937.5,526.6172 " fill="#FEFECE" filter="url(#fzrc8xeekn60u)" style="stroke: #000000; stroke-width: 1.5;"/><path d="M937.5,526.6172 C937.5,536.6172 955.5,536.6172 955.5,536.6172 C955.5,536.6172 973.5,536.6172 973.5,526.6172 " fill="none" style="stroke: #000000; stroke-width: 1.5;"/><rect fill="#FFFFFF" filter="url(#fzrc8xeekn60u)" height="349.5938" style="stroke: #A80036; stroke-width: 1.0;" width="10" x="215" y="117.4297"/><rect fill="#FFFFFF" filter="url(#fzrc8xeekn60u)" height="29.1328" style="stroke: #A80036; stroke-width: 1.0;" width="10" x="381" y="146.5625"/><rect fill="#FFFFFF" filter="url(#fzrc8xeekn60u)" height="29.1328" style="stroke: #A80036; stroke-width: 1.0;" width="10" x="490.5" y="204.8281"/><rect fill="#FFFFFF" filter="url(#fzrc8xeekn60u)" height="203.9297" style="stroke: #A80036; stroke-width: 1.0;" width="10" x="626.5" y="233.9609"/><rect fill="#FFFFFF" filter="url(#fzrc8xeekn60u)" height="87.3984" style="stroke: #A80036; stroke-width: 1.0;" width="10" x="791.5" y="263.0938"/><rect fill="#FFFFFF" filter="url(#fzrc8xeekn60u)" height="29.1328" style="stroke: #A80036; stroke-width: 1.0;" width="10" x="950.5" y="292.2266"/><rect fill="#FFFFFF" filter="url(#fzrc8xeekn60u)" height="29.1328" style="stroke: #A80036; stroke-width: 1.0;" width="10" x="950.5" y="379.625"/><polygon fill="#A80036" points="203,113.4297,213,117.4297,203,121.4297,207,117.4297" style="stroke: #A80036; stroke-width: 1.0;"/><line style="stroke: #A80036; stroke-width: 1.0;" x1="27" x2="209" y1="117.4297" y2="117.4297"/><text fill="#000000" font-family="sans-serif" font-size="13" lengthAdjust="spacingAndGlyphs" textLength="135" x="34" y="112.3638">Clicks delete account</text><polygon fill="#A80036" points="369,142.5625,379,146.5625,369,150.5625,373,146.5625" style="stroke: #A80036; stroke-width: 1.0;"/><line style="stroke: #A80036; stroke-width: 1.0;" x1="225" x2="375" y1="146.5625" y2="146.5625"/><text fill="#000000" font-family="sans-serif" font-size="13" lengthAdjust="spacingAndGlyphs" textLength="136" x="232" y="141.4966">Validate user session</text><polygon fill="#A80036" points="236,171.6953,226,175.6953,236,179.6953,232,175.6953" style="stroke: #A80036; stroke-width: 1.0;"/><line style="stroke: #A80036; stroke-width: 1.0; stroke-dasharray: 2.0,2.0;" x1="230" x2="385" y1="175.6953" y2="175.6953"/><text fill="#000000" font-family="sans-serif" font-size="13" lengthAdjust="spacingAndGlyphs" textLength="83" x="242" y="170.6294">Session valid</text><polygon fill="#A80036" points="478.5,200.8281,488.5,204.8281,478.5,208.8281,482.5,204.8281" style="stroke: #A80036; stroke-width: 1.0;"/><line style="stroke: #A80036; stroke-width: 1.0;" x1="225" x2="484.5" y1="204.8281" y2="204.8281"/><text fill="#000000" font-family="sans-serif" font-size="13" lengthAdjust="spacingAndGlyphs" textLength="196" x="232" y="199.7622">Send account deletion request</text><polygon fill="#A80036" points="614.5,229.9609,624.5,233.9609,614.5,237.9609,618.5,233.9609" style="stroke: #A80036; stroke-width: 1.0;"/><line style="stroke: #A80036; stroke-width: 1.0;" x1="495.5" x2="620.5" y1="233.9609" y2="233.9609"/><text fill="#000000" font-family="sans-serif" font-size="13" lengthAdjust="spacingAndGlyphs" textLength="107" x="502.5" y="228.895">Request deletion</text><polygon fill="#A80036" points="779.5,259.0938,789.5,263.0938,779.5,267.0938,783.5,263.0938" style="stroke: #A80036; stroke-width: 1.0;"/><line style="stroke: #A80036; stroke-width: 1.0;" x1="636.5" x2="785.5" y1="263.0938" y2="263.0938"/><text fill="#000000" font-family="sans-serif" font-size="13" lengthAdjust="spacingAndGlyphs" textLength="136" x="643.5" y="258.0278">Check user existence</text><polygon fill="#A80036" points="938.5,288.2266,948.5,292.2266,938.5,296.2266,942.5,292.2266" style="stroke: #A80036; stroke-width: 1.0;"/><line style="stroke: #A80036; stroke-width: 1.0;" x1="801.5" x2="944.5" y1="292.2266" y2="292.2266"/><text fill="#000000" font-family="sans-serif" font-size="13" lengthAdjust="spacingAndGlyphs" textLength="130" x="808.5" y="287.1606">Query User by Email</text><polygon fill="#A80036" points="812.5,317.3594,802.5,321.3594,812.5,325.3594,808.5,321.3594" style="stroke: #A80036; stroke-width: 1.0;"/><line style="stroke: #A80036; stroke-width: 1.0; stroke-dasharray: 2.0,2.0;" x1="806.5" x2="954.5" y1="321.3594" y2="321.3594"/><text fill="#000000" font-family="sans-serif" font-size="13" lengthAdjust="spacingAndGlyphs" textLength="76" x="818.5" y="316.2935">User details</text><polygon fill="#A80036" points="647.5,346.4922,637.5,350.4922,647.5,354.4922,643.5,350.4922" style="stroke: #A80036; stroke-width: 1.0;"/><line style="stroke: #A80036; stroke-width: 1.0; stroke-dasharray: 2.0,2.0;" x1="641.5" x2="795.5" y1="350.4922" y2="350.4922"/><text fill="#000000" font-family="sans-serif" font-size="13" lengthAdjust="spacingAndGlyphs" textLength="71" x="653.5" y="345.4263">User exists</text><polygon fill="#A80036" points="938.5,375.625,948.5,379.625,938.5,383.625,942.5,379.625" style="stroke: #A80036; stroke-width: 1.0;"/><line style="stroke: #A80036; stroke-width: 1.0;" x1="636.5" x2="944.5" y1="379.625" y2="379.625"/><text fill="#000000" font-family="sans-serif" font-size="13" lengthAdjust="spacingAndGlyphs" textLength="76" x="643.5" y="374.5591">Delete User</text><polygon fill="#A80036" points="647.5,404.7578,637.5,408.7578,647.5,412.7578,643.5,408.7578" style="stroke: #A80036; stroke-width: 1.0;"/><line style="stroke: #A80036; stroke-width: 1.0; stroke-dasharray: 2.0,2.0;" x1="641.5" x2="954.5" y1="408.7578" y2="408.7578"/><text fill="#000000" font-family="sans-serif" font-size="13" lengthAdjust="spacingAndGlyphs" textLength="108" x="653.5" y="403.6919">Deletion success</text><polygon fill="#A80036" points="236,433.8906,226,437.8906,236,441.8906,232,437.8906" style="stroke: #A80036; stroke-width: 1.0;"/><line style="stroke: #A80036; stroke-width: 1.0; stroke-dasharray: 2.0,2.0;" x1="230" x2="630.5" y1="437.8906" y2="437.8906"/><text fill="#000000" font-family="sans-serif" font-size="13" lengthAdjust="spacingAndGlyphs" textLength="105" x="242" y="432.8247">Confirm deletion</text><polygon fill="#A80036" points="38,463.0234,28,467.0234,38,471.0234,34,467.0234" style="stroke: #A80036; stroke-width: 1.0;"/><line style="stroke: #A80036; stroke-width: 1.0; stroke-dasharray: 2.0,2.0;" x1="32" x2="219" y1="467.0234" y2="467.0234"/><text fill="#000000" font-family="sans-serif" font-size="13" lengthAdjust="spacingAndGlyphs" textLength="164" x="44" y="461.9575">Display success message</text><!--MD5=[39e50898619c02beb77716d4be43f399]
@startuml
actor User
participant "Angular\nAccount Details Component" as Frontend
participant "AuthService" as AuthService <<Frontend>>
participant "HTTP Client" as HttpClient <<Frontend>>

participant "UserController" as Controller <<Backend>>
participant "UserAppService" as UserAppService <<Backend>>
database "MongoDB" as Database <<Database>>

User -> Frontend: Clicks delete account
activate Frontend

Frontend -> AuthService: Validate user session
activate AuthService
AuthService - -> Frontend: Session valid
deactivate AuthService

Frontend -> HttpClient: Send account deletion request
activate HttpClient
HttpClient -> Controller: Request deletion
deactivate HttpClient

activate Controller
Controller -> UserAppService: Check user existence
activate UserAppService
UserAppService -> Database: Query User by Email
activate Database
Database - -> UserAppService: User details
deactivate Database
UserAppService - -> Controller: User exists
deactivate UserAppService

Controller -> Database: Delete User
activate Database
Database - -> Controller: Deletion success
deactivate Database

Controller - -> Frontend: Confirm deletion
deactivate Controller

Frontend - -> User: Display success message
deactivate Frontend
@enduml

PlantUML version 1.2020.02(Sun Mar 01 10:22:07 UTC 2020)
(GPL source distribution)
Java Runtime: OpenJDK Runtime Environment
JVM: OpenJDK 64-Bit Server VM
Java Version: 11.0.21+9
Operating System: Linux
Default Encoding: UTF-8
Language: en
Country: null
--></g></svg>