<?xml version="1.0" encoding="UTF-8" standalone="no"?><svg xmlns="http://www.w3.org/2000/svg" xmlns:xlink="http://www.w3.org/1999/xlink" contentScriptType="application/ecmascript" contentStyleType="text/css" height="368px" preserveAspectRatio="none" style="width:587px;height:368px;" version="1.1" viewBox="0 0 587 368" width="587px" zoomAndPan="magnify"><defs><filter height="300%" id="f10p08bhzynq9o" width="300%" x="-1" y="-1"><feGaussianBlur result="blurOut" stdDeviation="2.0"/><feColorMatrix in="blurOut" result="blurOut2" type="matrix" values="0 0 0 0 0 0 0 0 0 0 0 0 0 0 0 0 0 0 .4 0"/><feOffset dx="4.0" dy="4.0" in="blurOut2" result="blurOut3"/><feBlend in="SourceGraphic" in2="blurOut3" mode="normal"/></filter></defs><g><rect fill="#FFFFFF" filter="url(#f10p08bhzynq9o)" height="145.6641" style="stroke: #A80036; stroke-width: 1.0;" width="10" x="197" y="117.4297"/><rect fill="#FFFFFF" filter="url(#f10p08bhzynq9o)" height="87.3984" style="stroke: #A80036; stroke-width: 1.0;" width="10" x="373" y="146.5625"/><rect fill="#FFFFFF" filter="url(#f10p08bhzynq9o)" height="29.1328" style="stroke: #A80036; stroke-width: 1.0;" width="10" x="533" y="175.6953"/><line style="stroke: #A80036; stroke-width: 1.0; stroke-dasharray: 5.0,5.0;" x1="27" x2="27" y1="86.2969" y2="281.0938"/><line style="stroke: #A80036; stroke-width: 1.0; stroke-dasharray: 5.0,5.0;" x1="201.5" x2="201.5" y1="86.2969" y2="281.0938"/><line style="stroke: #A80036; stroke-width: 1.0; stroke-dasharray: 5.0,5.0;" x1="377.5" x2="377.5" y1="86.2969" y2="281.0938"/><line style="stroke: #A80036; stroke-width: 1.0; stroke-dasharray: 5.0,5.0;" x1="538" x2="538" y1="86.2969" y2="281.0938"/><text fill="#000000" font-family="sans-serif" font-size="14" lengthAdjust="spacingAndGlyphs" textLength="32" x="8" y="82.9951">User</text><ellipse cx="27" cy="13" fill="#FEFECE" filter="url(#f10p08bhzynq9o)" rx="8" ry="8" style="stroke: #A80036; stroke-width: 2.0;"/><path d="M27,21 L27,48 M14,29 L40,29 M27,48 L14,63 M27,48 L40,63 " fill="none" filter="url(#f10p08bhzynq9o)" style="stroke: #A80036; stroke-width: 2.0;"/><text fill="#000000" font-family="sans-serif" font-size="14" lengthAdjust="spacingAndGlyphs" textLength="32" x="8" y="293.0889">User</text><ellipse cx="27" cy="306.3906" fill="#FEFECE" filter="url(#f10p08bhzynq9o)" rx="8" ry="8" style="stroke: #A80036; stroke-width: 2.0;"/><path d="M27,314.3906 L27,341.3906 M14,322.3906 L40,322.3906 M27,341.3906 L14,356.3906 M27,341.3906 L40,356.3906 " fill="none" filter="url(#f10p08bhzynq9o)" style="stroke: #A80036; stroke-width: 2.0;"/><rect fill="#FEFECE" filter="url(#f10p08bhzynq9o)" height="30.2969" style="stroke: #A80036; stroke-width: 1.5;" width="77" x="161.5" y="51"/><text fill="#000000" font-family="sans-serif" font-size="14" lengthAdjust="spacingAndGlyphs" textLength="63" x="168.5" y="70.9951">Frontend</text><rect fill="#FEFECE" filter="url(#f10p08bhzynq9o)" height="30.2969" style="stroke: #A80036; stroke-width: 1.5;" width="77" x="161.5" y="280.0938"/><text fill="#000000" font-family="sans-serif" font-size="14" lengthAdjust="spacingAndGlyphs" textLength="63" x="168.5" y="300.0889">Frontend</text><rect fill="#FEFECE" filter="url(#f10p08bhzynq9o)" height="30.2969" style="stroke: #A80036; stroke-width: 1.5;" width="75" x="338.5" y="51"/><text fill="#000000" font-family="sans-serif" font-size="14" lengthAdjust="spacingAndGlyphs" textLength="61" x="345.5" y="70.9951">Backend</text><rect fill="#FEFECE" filter="url(#f10p08bhzynq9o)" height="30.2969" style="stroke: #A80036; stroke-width: 1.5;" width="75" x="338.5" y="280.0938"/><text fill="#000000" font-family="sans-serif" font-size="14" lengthAdjust="spacingAndGlyphs" textLength="61" x="345.5" y="300.0889">Backend</text><rect fill="#FEFECE" filter="url(#f10p08bhzynq9o)" height="30.2969" style="stroke: #A80036; stroke-width: 1.5;" width="80" x="496" y="51"/><text fill="#000000" font-family="sans-serif" font-size="14" lengthAdjust="spacingAndGlyphs" textLength="66" x="503" y="70.9951">Database</text><rect fill="#FEFECE" filter="url(#f10p08bhzynq9o)" height="30.2969" style="stroke: #A80036; stroke-width: 1.5;" width="80" x="496" y="280.0938"/><text fill="#000000" font-family="sans-serif" font-size="14" lengthAdjust="spacingAndGlyphs" textLength="66" x="503" y="300.0889">Database</text><rect fill="#FFFFFF" filter="url(#f10p08bhzynq9o)" height="145.6641" style="stroke: #A80036; stroke-width: 1.0;" width="10" x="197" y="117.4297"/><rect fill="#FFFFFF" filter="url(#f10p08bhzynq9o)" height="87.3984" style="stroke: #A80036; stroke-width: 1.0;" width="10" x="373" y="146.5625"/><rect fill="#FFFFFF" filter="url(#f10p08bhzynq9o)" height="29.1328" style="stroke: #A80036; stroke-width: 1.0;" width="10" x="533" y="175.6953"/><polygon fill="#A80036" points="185,113.4297,195,117.4297,185,121.4297,189,117.4297" style="stroke: #A80036; stroke-width: 1.0;"/><line style="stroke: #A80036; stroke-width: 1.0;" x1="27" x2="191" y1="117.4297" y2="117.4297"/><text fill="#000000" font-family="sans-serif" font-size="13" lengthAdjust="spacingAndGlyphs" textLength="151" x="34" y="112.3638">Request delete account</text><polygon fill="#A80036" points="361,142.5625,371,146.5625,361,150.5625,365,146.5625" style="stroke: #A80036; stroke-width: 1.0;"/><line style="stroke: #A80036; stroke-width: 1.0;" x1="207" x2="367" y1="146.5625" y2="146.5625"/><text fill="#000000" font-family="sans-serif" font-size="13" lengthAdjust="spacingAndGlyphs" textLength="147" x="214" y="141.4966">Forward delete request</text><polygon fill="#A80036" points="521,171.6953,531,175.6953,521,179.6953,525,175.6953" style="stroke: #A80036; stroke-width: 1.0;"/><line style="stroke: #A80036; stroke-width: 1.0;" x1="383" x2="527" y1="175.6953" y2="175.6953"/><text fill="#000000" font-family="sans-serif" font-size="13" lengthAdjust="spacingAndGlyphs" textLength="131" x="390" y="170.6294">Delete User account</text><polygon fill="#A80036" points="394,200.8281,384,204.8281,394,208.8281,390,204.8281" style="stroke: #A80036; stroke-width: 1.0;"/><line style="stroke: #A80036; stroke-width: 1.0; stroke-dasharray: 2.0,2.0;" x1="388" x2="537" y1="204.8281" y2="204.8281"/><text fill="#000000" font-family="sans-serif" font-size="13" lengthAdjust="spacingAndGlyphs" textLength="82" x="400" y="199.7622">Confirmation</text><polygon fill="#A80036" points="218,229.9609,208,233.9609,218,237.9609,214,233.9609" style="stroke: #A80036; stroke-width: 1.0;"/><line style="stroke: #A80036; stroke-width: 1.0; stroke-dasharray: 2.0,2.0;" x1="212" x2="377" y1="233.9609" y2="233.9609"/><text fill="#000000" font-family="sans-serif" font-size="13" lengthAdjust="spacingAndGlyphs" textLength="62" x="224" y="228.895">Response</text><polygon fill="#A80036" points="38,259.0938,28,263.0938,38,267.0938,34,263.0938" style="stroke: #A80036; stroke-width: 1.0;"/><line style="stroke: #A80036; stroke-width: 1.0; stroke-dasharray: 2.0,2.0;" x1="32" x2="201" y1="263.0938" y2="263.0938"/><text fill="#000000" font-family="sans-serif" font-size="13" lengthAdjust="spacingAndGlyphs" textLength="98" x="44" y="258.0278">Notify outcome</text><!--MD5=[8bd7bd0da7b39d94c0d9c10d81575b9a]
@startuml
actor User
participant "Frontend" as Frontend
participant "Backend" as Backend
participant "Database" as Database

User -> Frontend: Request delete account
activate Frontend

Frontend -> Backend: Forward delete request
activate Backend

Backend -> Database: Delete User account
activate Database
Database - -> Backend: Confirmation
deactivate Database

Backend - -> Frontend: Response
deactivate Backend

Frontend - -> User: Notify outcome
deactivate Frontend
@enduml

PlantUML version 1.2020.02(Sun Mar 01 10:22:07 UTC 2020)
(GPL source distribution)
Java Runtime: OpenJDK Runtime Environment
JVM: OpenJDK 64-Bit Server VM
Java Version: 11.0.21+9
Operating System: Linux
Default Encoding: UTF-8
Language: en
Country: null
--></g></svg>