<?xml version="1.0" encoding="UTF-8" standalone="no"?><svg xmlns="http://www.w3.org/2000/svg" xmlns:xlink="http://www.w3.org/1999/xlink" contentScriptType="application/ecmascript" contentStyleType="text/css" height="1396px" preserveAspectRatio="none" style="width:2547px;height:1396px;" version="1.1" viewBox="0 0 2547 1396" width="2547px" zoomAndPan="magnify"><defs><filter height="300%" id="f1w5r2glq76wzz" width="300%" x="-1" y="-1"><feGaussianBlur result="blurOut" stdDeviation="2.0"/><feColorMatrix in="blurOut" result="blurOut2" type="matrix" values="0 0 0 0 0 0 0 0 0 0 0 0 0 0 0 0 0 0 .4 0"/><feOffset dx="4.0" dy="4.0" in="blurOut2" result="blurOut3"/><feBlend in="SourceGraphic" in2="blurOut3" mode="normal"/></filter></defs><g><rect fill="#FFFFFF" filter="url(#f1w5r2glq76wzz)" height="1179.3281" style="stroke: #A80036; stroke-width: 1.0;" width="10" x="181" y="117.4297"/><rect fill="#FFFFFF" filter="url(#f1w5r2glq76wzz)" height="29.1328" style="stroke: #A80036; stroke-width: 1.0;" width="10" x="399" y="185.6953"/><rect fill="#FFFFFF" filter="url(#f1w5r2glq76wzz)" height="903.7891" style="stroke: #A80036; stroke-width: 1.0;" width="10" x="399" y="243.9609"/><rect fill="#FFFFFF" filter="url(#f1w5r2glq76wzz)" height="87.3984" style="stroke: #A80036; stroke-width: 1.0;" width="10" x="881" y="273.0938"/><rect fill="#FFFFFF" filter="url(#f1w5r2glq76wzz)" height="604.4609" style="stroke: #A80036; stroke-width: 1.0;" width="10" x="1180" y="360.4922"/><rect fill="#FFFFFF" filter="url(#f1w5r2glq76wzz)" height="29.1328" style="stroke: #A80036; stroke-width: 1.0;" width="10" x="1305" y="1018.2188"/><rect fill="#FFFFFF" filter="url(#f1w5r2glq76wzz)" height="29.1328" style="stroke: #A80036; stroke-width: 1.0;" width="10" x="1305" y="1191.6875"/><rect fill="#FFFFFF" filter="url(#f1w5r2glq76wzz)" height="29.1328" style="stroke: #A80036; stroke-width: 1.0;" width="10" x="1434" y="302.2266"/><rect fill="#FFFFFF" filter="url(#f1w5r2glq76wzz)" height="522.0625" style="stroke: #A80036; stroke-width: 1.0;" width="10" x="1707" y="413.7578"/><rect fill="#FFFFFF" filter="url(#f1w5r2glq76wzz)" height="424.6641" style="stroke: #A80036; stroke-width: 1.0;" width="10" x="1907" y="482.0234"/><rect fill="#FFFFFF" filter="url(#f1w5r2glq76wzz)" height="374.3984" style="stroke: #A80036; stroke-width: 1.0;" width="10" x="2075" y="511.1563"/><rect fill="#FFFFFF" filter="url(#f1w5r2glq76wzz)" height="111.5313" style="stroke: #A80036; stroke-width: 1.0;" width="10" x="2291" y="540.2891"/><rect fill="#FFFFFF" filter="url(#f1w5r2glq76wzz)" height="87.3984" style="stroke: #A80036; stroke-width: 1.0;" width="10" x="2291" y="680.9531"/><rect fill="#FFFFFF" filter="url(#f1w5r2glq76wzz)" height="29.1328" style="stroke: #A80036; stroke-width: 1.0;" width="10" x="2466" y="569.4219"/><rect fill="#FFFFFF" filter="url(#f1w5r2glq76wzz)" height="29.1328" style="stroke: #A80036; stroke-width: 1.0;" width="10" x="2466" y="710.0859"/><rect fill="#FFFFFF" filter="url(#f1w5r2glq76wzz)" height="914.2656" style="stroke: #000000; stroke-width: 2.0;" width="2475.5" x="60" y="375.4922"/><rect fill="#FFFFFF" filter="url(#f1w5r2glq76wzz)" height="265" style="stroke: #000000; stroke-width: 2.0;" width="688.5" x="1837" y="613.5547"/><rect fill="#FFFFFF" height="73.0703" style="stroke: none; stroke-width: 1.0;" width="688.5" x="1837" y="805.4844"/><rect fill="#FFFFFF" filter="url(#f1w5r2glq76wzz)" height="248.8672" style="stroke: #000000; stroke-width: 2.0;" width="1583.5" x="70" y="979.9531"/><rect fill="#FFFFFF" height="73.0703" style="stroke: none; stroke-width: 1.0;" width="1583.5" x="70" y="1155.75"/><rect fill="#FFFFFF" height="53.9375" style="stroke: none; stroke-width: 1.0;" width="2475.5" x="60" y="1235.8203"/><line style="stroke: #A80036; stroke-width: 1.0; stroke-dasharray: 5.0,5.0;" x1="27" x2="27" y1="86.2969" y2="1306.7578"/><line style="stroke: #A80036; stroke-width: 1.0; stroke-dasharray: 5.0,5.0;" x1="186" x2="186" y1="86.2969" y2="1306.7578"/><line style="stroke: #A80036; stroke-width: 1.0; stroke-dasharray: 5.0,5.0;" x1="404" x2="404" y1="86.2969" y2="1306.7578"/><line style="stroke: #A80036; stroke-width: 1.0; stroke-dasharray: 5.0,5.0;" x1="886" x2="886" y1="86.2969" y2="1306.7578"/><line style="stroke: #A80036; stroke-width: 1.0; stroke-dasharray: 5.0,5.0;" x1="1184.5" x2="1184.5" y1="86.2969" y2="1306.7578"/><line style="stroke: #A80036; stroke-width: 1.0; stroke-dasharray: 5.0,5.0;" x1="1309.5" x2="1309.5" y1="86.2969" y2="1306.7578"/><line style="stroke: #A80036; stroke-width: 1.0; stroke-dasharray: 5.0,5.0;" x1="1438.5" x2="1438.5" y1="86.2969" y2="1306.7578"/><line style="stroke: #A80036; stroke-width: 1.0; stroke-dasharray: 5.0,5.0;" x1="1572.5" x2="1572.5" y1="86.2969" y2="1306.7578"/><line style="stroke: #A80036; stroke-width: 1.0; stroke-dasharray: 5.0,5.0;" x1="1711.5" x2="1711.5" y1="86.2969" y2="1306.7578"/><line style="stroke: #A80036; stroke-width: 1.0; stroke-dasharray: 5.0,5.0;" x1="1912" x2="1912" y1="86.2969" y2="1306.7578"/><line style="stroke: #A80036; stroke-width: 1.0; stroke-dasharray: 5.0,5.0;" x1="2079.5" x2="2079.5" y1="86.2969" y2="1306.7578"/><line style="stroke: #A80036; stroke-width: 1.0; stroke-dasharray: 5.0,5.0;" x1="2295.5" x2="2295.5" y1="86.2969" y2="1306.7578"/><line style="stroke: #A80036; stroke-width: 1.0; stroke-dasharray: 5.0,5.0;" x1="2470.5" x2="2470.5" y1="86.2969" y2="1306.7578"/><text fill="#000000" font-family="sans-serif" font-size="14" lengthAdjust="spacingAndGlyphs" textLength="32" x="8" y="82.9951">User</text><ellipse cx="27" cy="13" fill="#FEFECE" filter="url(#f1w5r2glq76wzz)" rx="8" ry="8" style="stroke: #A80036; stroke-width: 2.0;"/><path d="M27,21 L27,48 M14,29 L40,29 M27,48 L14,63 M27,48 L40,63 " fill="none" filter="url(#f1w5r2glq76wzz)" style="stroke: #A80036; stroke-width: 2.0;"/><text fill="#000000" font-family="sans-serif" font-size="14" lengthAdjust="spacingAndGlyphs" textLength="32" x="8" y="1318.7529">User</text><ellipse cx="27" cy="1332.0547" fill="#FEFECE" filter="url(#f1w5r2glq76wzz)" rx="8" ry="8" style="stroke: #A80036; stroke-width: 2.0;"/><path d="M27,1340.0547 L27,1367.0547 M14,1348.0547 L40,1348.0547 M27,1367.0547 L14,1382.0547 M27,1367.0547 L40,1382.0547 " fill="none" filter="url(#f1w5r2glq76wzz)" style="stroke: #A80036; stroke-width: 2.0;"/><rect fill="#FEFECE" filter="url(#f1w5r2glq76wzz)" height="62.8906" style="stroke: #A80036; stroke-width: 1.5;" width="208" x="80" y="18.4063"/><text fill="#000000" font-family="sans-serif" font-size="14" font-style="italic" lengthAdjust="spacingAndGlyphs" textLength="81" x="143.5" y="38.4014">«Frontend»</text><text fill="#000000" font-family="sans-serif" font-size="14" lengthAdjust="spacingAndGlyphs" textLength="52" x="158" y="54.6982">Angular</text><text fill="#000000" font-family="sans-serif" font-size="14" lengthAdjust="spacingAndGlyphs" textLength="194" x="87" y="70.9951">Account Details Component</text><rect fill="#FEFECE" filter="url(#f1w5r2glq76wzz)" height="62.8906" style="stroke: #A80036; stroke-width: 1.5;" width="208" x="80" y="1305.7578"/><text fill="#000000" font-family="sans-serif" font-size="14" font-style="italic" lengthAdjust="spacingAndGlyphs" textLength="81" x="143.5" y="1325.7529">«Frontend»</text><text fill="#000000" font-family="sans-serif" font-size="14" lengthAdjust="spacingAndGlyphs" textLength="52" x="158" y="1342.0498">Angular</text><text fill="#000000" font-family="sans-serif" font-size="14" lengthAdjust="spacingAndGlyphs" textLength="194" x="87" y="1358.3467">Account Details Component</text><rect fill="#FEFECE" filter="url(#f1w5r2glq76wzz)" height="46.5938" style="stroke: #A80036; stroke-width: 1.5;" width="96" x="354" y="34.7031"/><text fill="#000000" font-family="sans-serif" font-size="14" font-style="italic" lengthAdjust="spacingAndGlyphs" textLength="81" x="361.5" y="54.6982">«Frontend»</text><text fill="#000000" font-family="sans-serif" font-size="14" lengthAdjust="spacingAndGlyphs" textLength="82" x="361" y="70.9951">AuthService</text><rect fill="#FEFECE" filter="url(#f1w5r2glq76wzz)" height="46.5938" style="stroke: #A80036; stroke-width: 1.5;" width="96" x="354" y="1305.7578"/><text fill="#000000" font-family="sans-serif" font-size="14" font-style="italic" lengthAdjust="spacingAndGlyphs" textLength="81" x="361.5" y="1325.7529">«Frontend»</text><text fill="#000000" font-family="sans-serif" font-size="14" lengthAdjust="spacingAndGlyphs" textLength="82" x="361" y="1342.0498">AuthService</text><rect fill="#FEFECE" filter="url(#f1w5r2glq76wzz)" height="46.5938" style="stroke: #A80036; stroke-width: 1.5;" width="172" x="798" y="34.7031"/><text fill="#000000" font-family="sans-serif" font-size="14" font-style="italic" lengthAdjust="spacingAndGlyphs" textLength="81" x="843.5" y="54.6982">«Frontend»</text><text fill="#000000" font-family="sans-serif" font-size="14" lengthAdjust="spacingAndGlyphs" textLength="158" x="805" y="70.9951">AuthInterceptorService</text><rect fill="#FEFECE" filter="url(#f1w5r2glq76wzz)" height="46.5938" style="stroke: #A80036; stroke-width: 1.5;" width="172" x="798" y="1305.7578"/><text fill="#000000" font-family="sans-serif" font-size="14" font-style="italic" lengthAdjust="spacingAndGlyphs" textLength="81" x="843.5" y="1325.7529">«Frontend»</text><text fill="#000000" font-family="sans-serif" font-size="14" lengthAdjust="spacingAndGlyphs" textLength="158" x="805" y="1342.0498">AuthInterceptorService</text><rect fill="#FEFECE" filter="url(#f1w5r2glq76wzz)" height="46.5938" style="stroke: #A80036; stroke-width: 1.5;" width="95" x="1135.5" y="34.7031"/><text fill="#000000" font-family="sans-serif" font-size="14" font-style="italic" lengthAdjust="spacingAndGlyphs" textLength="81" x="1142.5" y="54.6982">«Frontend»</text><text fill="#000000" font-family="sans-serif" font-size="14" lengthAdjust="spacingAndGlyphs" textLength="80" x="1143" y="70.9951">HTTP Client</text><rect fill="#FEFECE" filter="url(#f1w5r2glq76wzz)" height="46.5938" style="stroke: #A80036; stroke-width: 1.5;" width="95" x="1135.5" y="1305.7578"/><text fill="#000000" font-family="sans-serif" font-size="14" font-style="italic" lengthAdjust="spacingAndGlyphs" textLength="81" x="1142.5" y="1325.7529">«Frontend»</text><text fill="#000000" font-family="sans-serif" font-size="14" lengthAdjust="spacingAndGlyphs" textLength="80" x="1143" y="1342.0498">HTTP Client</text><rect fill="#FEFECE" filter="url(#f1w5r2glq76wzz)" height="46.5938" style="stroke: #A80036; stroke-width: 1.5;" width="127" x="1244.5" y="34.7031"/><text fill="#000000" font-family="sans-serif" font-size="14" font-style="italic" lengthAdjust="spacingAndGlyphs" textLength="81" x="1267.5" y="54.6982">«Frontend»</text><text fill="#000000" font-family="sans-serif" font-size="14" lengthAdjust="spacingAndGlyphs" textLength="113" x="1251.5" y="70.9951">MessageService</text><rect fill="#FEFECE" filter="url(#f1w5r2glq76wzz)" height="46.5938" style="stroke: #A80036; stroke-width: 1.5;" width="127" x="1244.5" y="1305.7578"/><text fill="#000000" font-family="sans-serif" font-size="14" font-style="italic" lengthAdjust="spacingAndGlyphs" textLength="81" x="1267.5" y="1325.7529">«Frontend»</text><text fill="#000000" font-family="sans-serif" font-size="14" lengthAdjust="spacingAndGlyphs" textLength="113" x="1251.5" y="1342.0498">MessageService</text><rect fill="#FEFECE" filter="url(#f1w5r2glq76wzz)" height="46.5938" style="stroke: #A80036; stroke-width: 1.5;" width="103" x="1385.5" y="34.7031"/><text fill="#000000" font-family="sans-serif" font-size="14" font-style="italic" lengthAdjust="spacingAndGlyphs" textLength="81" x="1396.5" y="54.6982">«Frontend»</text><text fill="#000000" font-family="sans-serif" font-size="14" lengthAdjust="spacingAndGlyphs" textLength="89" x="1392.5" y="70.9951">LocalStorage</text><rect fill="#FEFECE" filter="url(#f1w5r2glq76wzz)" height="46.5938" style="stroke: #A80036; stroke-width: 1.5;" width="103" x="1385.5" y="1305.7578"/><text fill="#000000" font-family="sans-serif" font-size="14" font-style="italic" lengthAdjust="spacingAndGlyphs" textLength="81" x="1396.5" y="1325.7529">«Frontend»</text><text fill="#000000" font-family="sans-serif" font-size="14" lengthAdjust="spacingAndGlyphs" textLength="89" x="1392.5" y="1342.0498">LocalStorage</text><rect fill="#FEFECE" filter="url(#f1w5r2glq76wzz)" height="46.5938" style="stroke: #A80036; stroke-width: 1.5;" width="137" x="1502.5" y="34.7031"/><text fill="#000000" font-family="sans-serif" font-size="14" font-style="italic" lengthAdjust="spacingAndGlyphs" textLength="81" x="1530.5" y="54.6982">«Frontend»</text><text fill="#000000" font-family="sans-serif" font-size="14" lengthAdjust="spacingAndGlyphs" textLength="123" x="1509.5" y="70.9951">Login Component</text><rect fill="#FEFECE" filter="url(#f1w5r2glq76wzz)" height="46.5938" style="stroke: #A80036; stroke-width: 1.5;" width="137" x="1502.5" y="1305.7578"/><text fill="#000000" font-family="sans-serif" font-size="14" font-style="italic" lengthAdjust="spacingAndGlyphs" textLength="81" x="1530.5" y="1325.7529">«Frontend»</text><text fill="#000000" font-family="sans-serif" font-size="14" lengthAdjust="spacingAndGlyphs" textLength="123" x="1509.5" y="1342.0498">Login Component</text><rect fill="#FEFECE" filter="url(#f1w5r2glq76wzz)" height="46.5938" style="stroke: #A80036; stroke-width: 1.5;" width="113" x="1653.5" y="34.7031"/><text fill="#000000" font-family="sans-serif" font-size="14" font-style="italic" lengthAdjust="spacingAndGlyphs" textLength="79" x="1670.5" y="54.6982">«Backend»</text><text fill="#000000" font-family="sans-serif" font-size="14" lengthAdjust="spacingAndGlyphs" textLength="99" x="1660.5" y="70.9951">UserController</text><rect fill="#FEFECE" filter="url(#f1w5r2glq76wzz)" height="46.5938" style="stroke: #A80036; stroke-width: 1.5;" width="113" x="1653.5" y="1305.7578"/><text fill="#000000" font-family="sans-serif" font-size="14" font-style="italic" lengthAdjust="spacingAndGlyphs" textLength="79" x="1670.5" y="1325.7529">«Backend»</text><text fill="#000000" font-family="sans-serif" font-size="14" lengthAdjust="spacingAndGlyphs" textLength="99" x="1660.5" y="1342.0498">UserController</text><rect fill="#FEFECE" filter="url(#f1w5r2glq76wzz)" height="46.5938" style="stroke: #A80036; stroke-width: 1.5;" width="126" x="1847" y="34.7031"/><text fill="#000000" font-family="sans-serif" font-size="14" font-style="italic" lengthAdjust="spacingAndGlyphs" textLength="79" x="1870.5" y="54.6982">«Backend»</text><text fill="#000000" font-family="sans-serif" font-size="14" lengthAdjust="spacingAndGlyphs" textLength="112" x="1854" y="70.9951">IUserAppService</text><rect fill="#FEFECE" filter="url(#f1w5r2glq76wzz)" height="46.5938" style="stroke: #A80036; stroke-width: 1.5;" width="126" x="1847" y="1305.7578"/><text fill="#000000" font-family="sans-serif" font-size="14" font-style="italic" lengthAdjust="spacingAndGlyphs" textLength="79" x="1870.5" y="1325.7529">«Backend»</text><text fill="#000000" font-family="sans-serif" font-size="14" lengthAdjust="spacingAndGlyphs" textLength="112" x="1854" y="1342.0498">IUserAppService</text><rect fill="#FEFECE" filter="url(#f1w5r2glq76wzz)" height="46.5938" style="stroke: #A80036; stroke-width: 1.5;" width="123" x="2016.5" y="34.7031"/><text fill="#000000" font-family="sans-serif" font-size="14" font-style="italic" lengthAdjust="spacingAndGlyphs" textLength="79" x="2038.5" y="54.6982">«Backend»</text><text fill="#000000" font-family="sans-serif" font-size="14" lengthAdjust="spacingAndGlyphs" textLength="109" x="2023.5" y="70.9951">UserAppService</text><rect fill="#FEFECE" filter="url(#f1w5r2glq76wzz)" height="46.5938" style="stroke: #A80036; stroke-width: 1.5;" width="123" x="2016.5" y="1305.7578"/><text fill="#000000" font-family="sans-serif" font-size="14" font-style="italic" lengthAdjust="spacingAndGlyphs" textLength="79" x="2038.5" y="1325.7529">«Backend»</text><text fill="#000000" font-family="sans-serif" font-size="14" lengthAdjust="spacingAndGlyphs" textLength="109" x="2023.5" y="1342.0498">UserAppService</text><rect fill="#FEFECE" filter="url(#f1w5r2glq76wzz)" height="46.5938" style="stroke: #A80036; stroke-width: 1.5;" width="237" x="2175.5" y="34.7031"/><text fill="#000000" font-family="sans-serif" font-size="14" font-style="italic" lengthAdjust="spacingAndGlyphs" textLength="79" x="2254.5" y="54.6982">«Backend»</text><text fill="#000000" font-family="sans-serif" font-size="14" lengthAdjust="spacingAndGlyphs" textLength="223" x="2182.5" y="70.9951">UserManager&lt;ApplicationUser&gt;</text><rect fill="#FEFECE" filter="url(#f1w5r2glq76wzz)" height="46.5938" style="stroke: #A80036; stroke-width: 1.5;" width="237" x="2175.5" y="1305.7578"/><text fill="#000000" font-family="sans-serif" font-size="14" font-style="italic" lengthAdjust="spacingAndGlyphs" textLength="79" x="2254.5" y="1325.7529">«Backend»</text><text fill="#000000" font-family="sans-serif" font-size="14" lengthAdjust="spacingAndGlyphs" textLength="223" x="2182.5" y="1342.0498">UserManager&lt;ApplicationUser&gt;</text><text fill="#000000" font-family="sans-serif" font-size="14" font-style="italic" lengthAdjust="spacingAndGlyphs" textLength="83" x="2426.5" y="66.6982">«Database»</text><text fill="#000000" font-family="sans-serif" font-size="14" lengthAdjust="spacingAndGlyphs" textLength="69" x="2433.5" y="82.9951">MongoDB</text><path d="M2453,17.7031 C2453,7.7031 2471,7.7031 2471,7.7031 C2471,7.7031 2489,7.7031 2489,17.7031 L2489,43.7031 C2489,53.7031 2471,53.7031 2471,53.7031 C2471,53.7031 2453,53.7031 2453,43.7031 L2453,17.7031 " fill="#FEFECE" filter="url(#f1w5r2glq76wzz)" style="stroke: #000000; stroke-width: 1.5;"/><path d="M2453,17.7031 C2453,27.7031 2471,27.7031 2471,27.7031 C2471,27.7031 2489,27.7031 2489,17.7031 " fill="none" style="stroke: #000000; stroke-width: 1.5;"/><text fill="#000000" font-family="sans-serif" font-size="14" font-style="italic" lengthAdjust="spacingAndGlyphs" textLength="83" x="2426.5" y="1318.7529">«Database»</text><text fill="#000000" font-family="sans-serif" font-size="14" lengthAdjust="spacingAndGlyphs" textLength="69" x="2433.5" y="1335.0498">MongoDB</text><path d="M2453,1348.3516 C2453,1338.3516 2471,1338.3516 2471,1338.3516 C2471,1338.3516 2489,1338.3516 2489,1348.3516 L2489,1374.3516 C2489,1384.3516 2471,1384.3516 2471,1384.3516 C2471,1384.3516 2453,1384.3516 2453,1374.3516 L2453,1348.3516 " fill="#FEFECE" filter="url(#f1w5r2glq76wzz)" style="stroke: #000000; stroke-width: 1.5;"/><path d="M2453,1348.3516 C2453,1358.3516 2471,1358.3516 2471,1358.3516 C2471,1358.3516 2489,1358.3516 2489,1348.3516 " fill="none" style="stroke: #000000; stroke-width: 1.5;"/><rect fill="#FFFFFF" filter="url(#f1w5r2glq76wzz)" height="1179.3281" style="stroke: #A80036; stroke-width: 1.0;" width="10" x="181" y="117.4297"/><rect fill="#FFFFFF" filter="url(#f1w5r2glq76wzz)" height="29.1328" style="stroke: #A80036; stroke-width: 1.0;" width="10" x="399" y="185.6953"/><rect fill="#FFFFFF" filter="url(#f1w5r2glq76wzz)" height="903.7891" style="stroke: #A80036; stroke-width: 1.0;" width="10" x="399" y="243.9609"/><rect fill="#FFFFFF" filter="url(#f1w5r2glq76wzz)" height="87.3984" style="stroke: #A80036; stroke-width: 1.0;" width="10" x="881" y="273.0938"/><rect fill="#FFFFFF" filter="url(#f1w5r2glq76wzz)" height="604.4609" style="stroke: #A80036; stroke-width: 1.0;" width="10" x="1180" y="360.4922"/><rect fill="#FFFFFF" filter="url(#f1w5r2glq76wzz)" height="29.1328" style="stroke: #A80036; stroke-width: 1.0;" width="10" x="1305" y="1018.2188"/><rect fill="#FFFFFF" filter="url(#f1w5r2glq76wzz)" height="29.1328" style="stroke: #A80036; stroke-width: 1.0;" width="10" x="1305" y="1191.6875"/><rect fill="#FFFFFF" filter="url(#f1w5r2glq76wzz)" height="29.1328" style="stroke: #A80036; stroke-width: 1.0;" width="10" x="1434" y="302.2266"/><rect fill="#FFFFFF" filter="url(#f1w5r2glq76wzz)" height="522.0625" style="stroke: #A80036; stroke-width: 1.0;" width="10" x="1707" y="413.7578"/><rect fill="#FFFFFF" filter="url(#f1w5r2glq76wzz)" height="424.6641" style="stroke: #A80036; stroke-width: 1.0;" width="10" x="1907" y="482.0234"/><rect fill="#FFFFFF" filter="url(#f1w5r2glq76wzz)" height="374.3984" style="stroke: #A80036; stroke-width: 1.0;" width="10" x="2075" y="511.1563"/><rect fill="#FFFFFF" filter="url(#f1w5r2glq76wzz)" height="111.5313" style="stroke: #A80036; stroke-width: 1.0;" width="10" x="2291" y="540.2891"/><rect fill="#FFFFFF" filter="url(#f1w5r2glq76wzz)" height="87.3984" style="stroke: #A80036; stroke-width: 1.0;" width="10" x="2291" y="680.9531"/><rect fill="#FFFFFF" filter="url(#f1w5r2glq76wzz)" height="29.1328" style="stroke: #A80036; stroke-width: 1.0;" width="10" x="2466" y="569.4219"/><rect fill="#FFFFFF" filter="url(#f1w5r2glq76wzz)" height="29.1328" style="stroke: #A80036; stroke-width: 1.0;" width="10" x="2466" y="710.0859"/><polygon fill="#A80036" points="169,113.4297,179,117.4297,169,121.4297,173,117.4297" style="stroke: #A80036; stroke-width: 1.0;"/><line style="stroke: #A80036; stroke-width: 1.0;" x1="27" x2="175" y1="117.4297" y2="117.4297"/><text fill="#000000" font-family="sans-serif" font-size="13" lengthAdjust="spacingAndGlyphs" textLength="135" x="34" y="112.3638">Clicks delete account</text><path d="M32,130.4297 L32,155.4297 L202,155.4297 L202,140.4297 L192,130.4297 L32,130.4297 " fill="#FBFB77" filter="url(#f1w5r2glq76wzz)" style="stroke: #A80036; stroke-width: 1.0;"/><path d="M192,130.4297 L192,140.4297 L202,140.4297 L192,130.4297 " fill="#FBFB77" style="stroke: #A80036; stroke-width: 1.0;"/><text fill="#000000" font-family="sans-serif" font-size="13" lengthAdjust="spacingAndGlyphs" textLength="149" x="38" y="147.4966">User must be logged in</text><polygon fill="#A80036" points="387,181.6953,397,185.6953,387,189.6953,391,185.6953" style="stroke: #A80036; stroke-width: 1.0;"/><line style="stroke: #A80036; stroke-width: 1.0;" x1="191" x2="393" y1="185.6953" y2="185.6953"/><text fill="#000000" font-family="sans-serif" font-size="13" lengthAdjust="spacingAndGlyphs" textLength="132" x="198" y="180.6294">getUserFromToken()</text><polygon fill="#A80036" points="202,210.8281,192,214.8281,202,218.8281,198,214.8281" style="stroke: #A80036; stroke-width: 1.0;"/><line style="stroke: #A80036; stroke-width: 1.0; stroke-dasharray: 2.0,2.0;" x1="196" x2="403" y1="214.8281" y2="214.8281"/><text fill="#000000" font-family="sans-serif" font-size="13" lengthAdjust="spacingAndGlyphs" textLength="124" x="208" y="209.7622">User (name, email)</text><polygon fill="#A80036" points="387,239.9609,397,243.9609,387,247.9609,391,243.9609" style="stroke: #A80036; stroke-width: 1.0;"/><line style="stroke: #A80036; stroke-width: 1.0;" x1="191" x2="393" y1="243.9609" y2="243.9609"/><text fill="#000000" font-family="sans-serif" font-size="13" lengthAdjust="spacingAndGlyphs" textLength="189" x="198" y="238.895">onDeleteAccount(User.email)</text><polygon fill="#A80036" points="869,269.0938,879,273.0938,869,277.0938,873,273.0938" style="stroke: #A80036; stroke-width: 1.0;"/><line style="stroke: #A80036; stroke-width: 1.0;" x1="409" x2="875" y1="273.0938" y2="273.0938"/><text fill="#000000" font-family="sans-serif" font-size="13" lengthAdjust="spacingAndGlyphs" textLength="453" x="416" y="268.0278">Prepare HTTP DELETE request to /User/DeleteAcc?email={User.email}</text><polygon fill="#A80036" points="1422,298.2266,1432,302.2266,1422,306.2266,1426,302.2266" style="stroke: #A80036; stroke-width: 1.0;"/><line style="stroke: #A80036; stroke-width: 1.0;" x1="891" x2="1428" y1="302.2266" y2="302.2266"/><text fill="#000000" font-family="sans-serif" font-size="13" lengthAdjust="spacingAndGlyphs" textLength="119" x="898" y="297.1606">Retrieve JWT Token</text><polygon fill="#A80036" points="902,327.3594,892,331.3594,902,335.3594,898,331.3594" style="stroke: #A80036; stroke-width: 1.0;"/><line style="stroke: #A80036; stroke-width: 1.0; stroke-dasharray: 2.0,2.0;" x1="896" x2="1438" y1="331.3594" y2="331.3594"/><text fill="#000000" font-family="sans-serif" font-size="13" lengthAdjust="spacingAndGlyphs" textLength="63" x="908" y="326.2935">JWT Token</text><polygon fill="#A80036" points="1168,356.4922,1178,360.4922,1168,364.4922,1172,360.4922" style="stroke: #A80036; stroke-width: 1.0;"/><line style="stroke: #A80036; stroke-width: 1.0;" x1="886" x2="1174" y1="360.4922" y2="360.4922"/><text fill="#000000" font-family="sans-serif" font-size="13" lengthAdjust="spacingAndGlyphs" textLength="270" x="893" y="355.4263">Forward request with Authorization header</text><path d="M60,375.4922 L124,375.4922 L124,382.4922 L114,392.4922 L60,392.4922 L60,375.4922 " fill="#EEEEEE" style="stroke: #000000; stroke-width: 1.0;"/><rect fill="none" height="914.2656" style="stroke: #000000; stroke-width: 2.0;" width="2475.5" x="60" y="375.4922"/><text fill="#000000" font-family="sans-serif" font-size="13" font-weight="bold" lengthAdjust="spacingAndGlyphs" textLength="19" x="75" y="388.5591">alt</text><text fill="#000000" font-family="sans-serif" font-size="11" font-weight="bold" lengthAdjust="spacingAndGlyphs" textLength="168" x="139" y="387.7026">[HTTP request successful]</text><polygon fill="#A80036" points="1695,409.7578,1705,413.7578,1695,417.7578,1699,413.7578" style="stroke: #A80036; stroke-width: 1.0;"/><line style="stroke: #A80036; stroke-width: 1.0;" x1="1190" x2="1701" y1="413.7578" y2="413.7578"/><text fill="#000000" font-family="sans-serif" font-size="13" lengthAdjust="spacingAndGlyphs" textLength="203" x="1197" y="408.6919">DeleteAcc(AccountDeletionDto)</text><path d="M1722,426.7578 L1722,451.7578 L1945,451.7578 L1945,436.7578 L1935,426.7578 L1722,426.7578 " fill="#FBFB77" filter="url(#f1w5r2glq76wzz)" style="stroke: #A80036; stroke-width: 1.0;"/><path d="M1935,426.7578 L1935,436.7578 L1945,436.7578 L1935,426.7578 " fill="#FBFB77" style="stroke: #A80036; stroke-width: 1.0;"/><text fill="#000000" font-family="sans-serif" font-size="13" lengthAdjust="spacingAndGlyphs" textLength="202" x="1728" y="443.8247">Check if user exists in database</text><polygon fill="#A80036" points="1895,478.0234,1905,482.0234,1895,486.0234,1899,482.0234" style="stroke: #A80036; stroke-width: 1.0;"/><line style="stroke: #A80036; stroke-width: 1.0;" x1="1717" x2="1901" y1="482.0234" y2="482.0234"/><text fill="#000000" font-family="sans-serif" font-size="13" lengthAdjust="spacingAndGlyphs" textLength="171" x="1724" y="476.9575">DeleteAccount(user.Email)</text><polygon fill="#A80036" points="2063,507.1563,2073,511.1563,2063,515.1563,2067,511.1563" style="stroke: #A80036; stroke-width: 1.0;"/><line style="stroke: #A80036; stroke-width: 1.0;" x1="1917" x2="2069" y1="511.1563" y2="511.1563"/><text fill="#000000" font-family="sans-serif" font-size="13" lengthAdjust="spacingAndGlyphs" textLength="139" x="1924" y="506.0903">DeleteAccount(Email)</text><polygon fill="#A80036" points="2279,536.2891,2289,540.2891,2279,544.2891,2283,540.2891" style="stroke: #A80036; stroke-width: 1.0;"/><line style="stroke: #A80036; stroke-width: 1.0;" x1="2085" x2="2285" y1="540.2891" y2="540.2891"/><text fill="#000000" font-family="sans-serif" font-size="13" lengthAdjust="spacingAndGlyphs" textLength="160" x="2092" y="535.2231">FindByEmailAsync(Email)</text><polygon fill="#A80036" points="2454,565.4219,2464,569.4219,2454,573.4219,2458,569.4219" style="stroke: #A80036; stroke-width: 1.0;"/><line style="stroke: #A80036; stroke-width: 1.0;" x1="2301" x2="2460" y1="569.4219" y2="569.4219"/><text fill="#000000" font-family="sans-serif" font-size="13" lengthAdjust="spacingAndGlyphs" textLength="130" x="2308" y="564.356">Query User by Email</text><polygon fill="#A80036" points="2312,594.5547,2302,598.5547,2312,602.5547,2308,598.5547" style="stroke: #A80036; stroke-width: 1.0;"/><line style="stroke: #A80036; stroke-width: 1.0; stroke-dasharray: 2.0,2.0;" x1="2306" x2="2470" y1="598.5547" y2="598.5547"/><text fill="#000000" font-family="sans-serif" font-size="13" lengthAdjust="spacingAndGlyphs" textLength="134" x="2318" y="593.4888">ApplicationUser / null</text><path d="M1837,613.5547 L1901,613.5547 L1901,620.5547 L1891,630.5547 L1837,630.5547 L1837,613.5547 " fill="#EEEEEE" style="stroke: #000000; stroke-width: 1.0;"/><rect fill="none" height="265" style="stroke: #000000; stroke-width: 2.0;" width="688.5" x="1837" y="613.5547"/><text fill="#000000" font-family="sans-serif" font-size="13" font-weight="bold" lengthAdjust="spacingAndGlyphs" textLength="19" x="1852" y="626.6216">alt</text><text fill="#000000" font-family="sans-serif" font-size="11" font-weight="bold" lengthAdjust="spacingAndGlyphs" textLength="109" x="1916" y="625.7651">[appUser != null]</text><polygon fill="#A80036" points="2096,647.8203,2086,651.8203,2096,655.8203,2092,651.8203" style="stroke: #A80036; stroke-width: 1.0;"/><line style="stroke: #A80036; stroke-width: 1.0;" x1="2090" x2="2295" y1="651.8203" y2="651.8203"/><text fill="#000000" font-family="sans-serif" font-size="13" lengthAdjust="spacingAndGlyphs" textLength="54" x="2102" y="646.7544">appUser</text><polygon fill="#A80036" points="2279,676.9531,2289,680.9531,2279,684.9531,2283,680.9531" style="stroke: #A80036; stroke-width: 1.0;"/><line style="stroke: #A80036; stroke-width: 1.0;" x1="2085" x2="2285" y1="680.9531" y2="680.9531"/><text fill="#000000" font-family="sans-serif" font-size="13" lengthAdjust="spacingAndGlyphs" textLength="144" x="2092" y="675.8872">DeleteAsync(appUser)</text><polygon fill="#A80036" points="2454,706.0859,2464,710.0859,2454,714.0859,2458,710.0859" style="stroke: #A80036; stroke-width: 1.0;"/><line style="stroke: #A80036; stroke-width: 1.0;" x1="2301" x2="2460" y1="710.0859" y2="710.0859"/><text fill="#000000" font-family="sans-serif" font-size="13" lengthAdjust="spacingAndGlyphs" textLength="76" x="2308" y="705.02">Delete User</text><polygon fill="#A80036" points="2312,735.2188,2302,739.2188,2312,743.2188,2308,739.2188" style="stroke: #A80036; stroke-width: 1.0;"/><line style="stroke: #A80036; stroke-width: 1.0; stroke-dasharray: 2.0,2.0;" x1="2306" x2="2470" y1="739.2188" y2="739.2188"/><text fill="#000000" font-family="sans-serif" font-size="13" lengthAdjust="spacingAndGlyphs" textLength="96" x="2318" y="734.1528">Deletion Result</text><polygon fill="#A80036" points="2096,764.3516,2086,768.3516,2096,772.3516,2092,768.3516" style="stroke: #A80036; stroke-width: 1.0;"/><line style="stroke: #A80036; stroke-width: 1.0; stroke-dasharray: 2.0,2.0;" x1="2090" x2="2295" y1="768.3516" y2="768.3516"/><text fill="#000000" font-family="sans-serif" font-size="13" lengthAdjust="spacingAndGlyphs" textLength="182" x="2102" y="763.2856">IdentityResult(Success / Fail)</text><polygon fill="#A80036" points="1928,793.4844,1918,797.4844,1928,801.4844,1924,797.4844" style="stroke: #A80036; stroke-width: 1.0;"/><line style="stroke: #A80036; stroke-width: 1.0; stroke-dasharray: 2.0,2.0;" x1="1922" x2="2074" y1="797.4844" y2="797.4844"/><text fill="#000000" font-family="sans-serif" font-size="13" lengthAdjust="spacingAndGlyphs" textLength="86" x="1934" y="792.4185">IdentityResult</text><line style="stroke: #000000; stroke-width: 1.0; stroke-dasharray: 2.0,2.0;" x1="1837" x2="2525.5" y1="806.4844" y2="806.4844"/><text fill="#000000" font-family="sans-serif" font-size="11" font-weight="bold" lengthAdjust="spacingAndGlyphs" textLength="104" x="1842" y="816.6948">[user not found]</text><polygon fill="#A80036" points="2096,837.4219,2086,841.4219,2096,845.4219,2092,841.4219" style="stroke: #A80036; stroke-width: 1.0;"/><line style="stroke: #A80036; stroke-width: 1.0; stroke-dasharray: 2.0,2.0;" x1="2090" x2="2295" y1="841.4219" y2="841.4219"/><text fill="#000000" font-family="sans-serif" font-size="13" lengthAdjust="spacingAndGlyphs" textLength="95" x="2102" y="836.356">User not found</text><polygon fill="#A80036" points="1928,866.5547,1918,870.5547,1928,874.5547,1924,870.5547" style="stroke: #A80036; stroke-width: 1.0;"/><line style="stroke: #A80036; stroke-width: 1.0; stroke-dasharray: 2.0,2.0;" x1="1922" x2="2074" y1="870.5547" y2="870.5547"/><text fill="#000000" font-family="sans-serif" font-size="13" lengthAdjust="spacingAndGlyphs" textLength="133" x="1934" y="865.4888">IdentityResult(Failed)</text><polygon fill="#A80036" points="1728,902.6875,1718,906.6875,1728,910.6875,1724,906.6875" style="stroke: #A80036; stroke-width: 1.0;"/><line style="stroke: #A80036; stroke-width: 1.0; stroke-dasharray: 2.0,2.0;" x1="1722" x2="1911" y1="906.6875" y2="906.6875"/><text fill="#000000" font-family="sans-serif" font-size="13" lengthAdjust="spacingAndGlyphs" textLength="86" x="1734" y="901.6216">IdentityResult</text><polygon fill="#A80036" points="1201,931.8203,1191,935.8203,1201,939.8203,1197,935.8203" style="stroke: #A80036; stroke-width: 1.0;"/><line style="stroke: #A80036; stroke-width: 1.0; stroke-dasharray: 2.0,2.0;" x1="1195" x2="1711" y1="935.8203" y2="935.8203"/><text fill="#000000" font-family="sans-serif" font-size="13" lengthAdjust="spacingAndGlyphs" textLength="86" x="1207" y="930.7544">IdentityResult</text><polygon fill="#A80036" points="420,960.9531,410,964.9531,420,968.9531,416,964.9531" style="stroke: #A80036; stroke-width: 1.0;"/><line style="stroke: #A80036; stroke-width: 1.0; stroke-dasharray: 2.0,2.0;" x1="414" x2="1184" y1="964.9531" y2="964.9531"/><text fill="#000000" font-family="sans-serif" font-size="13" lengthAdjust="spacingAndGlyphs" textLength="102" x="426" y="959.8872">response / error</text><path d="M70,979.9531 L134,979.9531 L134,986.9531 L124,996.9531 L70,996.9531 L70,979.9531 " fill="#EEEEEE" style="stroke: #000000; stroke-width: 1.0;"/><rect fill="none" height="248.8672" style="stroke: #000000; stroke-width: 2.0;" width="1583.5" x="70" y="979.9531"/><text fill="#000000" font-family="sans-serif" font-size="13" font-weight="bold" lengthAdjust="spacingAndGlyphs" textLength="19" x="85" y="993.02">alt</text><text fill="#000000" font-family="sans-serif" font-size="11" font-weight="bold" lengthAdjust="spacingAndGlyphs" textLength="141" x="149" y="992.1636">[response successful]</text><polygon fill="#A80036" points="1293,1014.2188,1303,1018.2188,1293,1022.2188,1297,1018.2188" style="stroke: #A80036; stroke-width: 1.0;"/><line style="stroke: #A80036; stroke-width: 1.0;" x1="409" x2="1299" y1="1018.2188" y2="1018.2188"/><text fill="#000000" font-family="sans-serif" font-size="13" lengthAdjust="spacingAndGlyphs" textLength="223" x="416" y="1013.1528">Add "Account deleted successfully"</text><polygon fill="#A80036" points="202,1043.3516,192,1047.3516,202,1051.3516,198,1047.3516" style="stroke: #A80036; stroke-width: 1.0;"/><line style="stroke: #A80036; stroke-width: 1.0;" x1="196" x2="1309" y1="1047.3516" y2="1047.3516"/><text fill="#000000" font-family="sans-serif" font-size="13" lengthAdjust="spacingAndGlyphs" textLength="164" x="208" y="1042.2856">Display success message</text><line style="stroke: #A80036; stroke-width: 1.0;" x1="409" x2="451" y1="1076.4844" y2="1076.4844"/><line style="stroke: #A80036; stroke-width: 1.0;" x1="451" x2="451" y1="1076.4844" y2="1089.4844"/><line style="stroke: #A80036; stroke-width: 1.0;" x1="410" x2="451" y1="1089.4844" y2="1089.4844"/><polygon fill="#A80036" points="420,1085.4844,410,1089.4844,420,1093.4844,416,1089.4844" style="stroke: #A80036; stroke-width: 1.0;"/><text fill="#000000" font-family="sans-serif" font-size="13" lengthAdjust="spacingAndGlyphs" textLength="50" x="416" y="1071.4185">logout()</text><polygon fill="#A80036" points="1427,1114.6172,1437,1118.6172,1427,1122.6172,1431,1118.6172" style="stroke: #A80036; stroke-width: 1.0;"/><line style="stroke: #A80036; stroke-width: 1.0;" x1="409" x2="1433" y1="1118.6172" y2="1118.6172"/><text fill="#000000" font-family="sans-serif" font-size="13" lengthAdjust="spacingAndGlyphs" textLength="66" x="416" y="1113.5513">Clear data</text><polygon fill="#A80036" points="1561,1143.75,1571,1147.75,1561,1151.75,1565,1147.75" style="stroke: #A80036; stroke-width: 1.0;"/><line style="stroke: #A80036; stroke-width: 1.0;" x1="404" x2="1567" y1="1147.75" y2="1147.75"/><text fill="#000000" font-family="sans-serif" font-size="13" lengthAdjust="spacingAndGlyphs" textLength="103" x="411" y="1142.6841">Redirect to login</text><line style="stroke: #000000; stroke-width: 1.0; stroke-dasharray: 2.0,2.0;" x1="70" x2="1653.5" y1="1156.75" y2="1156.75"/><text fill="#000000" font-family="sans-serif" font-size="11" font-weight="bold" lengthAdjust="spacingAndGlyphs" textLength="41" x="75" y="1166.9604">[error]</text><polygon fill="#A80036" points="1293,1187.6875,1303,1191.6875,1293,1195.6875,1297,1191.6875" style="stroke: #A80036; stroke-width: 1.0;"/><line style="stroke: #A80036; stroke-width: 1.0;" x1="404" x2="1299" y1="1191.6875" y2="1191.6875"/><text fill="#000000" font-family="sans-serif" font-size="13" lengthAdjust="spacingAndGlyphs" textLength="123" x="411" y="1186.6216">Add error message</text><polygon fill="#A80036" points="202,1216.8203,192,1220.8203,202,1224.8203,198,1220.8203" style="stroke: #A80036; stroke-width: 1.0;"/><line style="stroke: #A80036; stroke-width: 1.0;" x1="196" x2="1309" y1="1220.8203" y2="1220.8203"/><text fill="#000000" font-family="sans-serif" font-size="13" lengthAdjust="spacingAndGlyphs" textLength="144" x="208" y="1215.7544">Display error message</text><line style="stroke: #000000; stroke-width: 1.0; stroke-dasharray: 2.0,2.0;" x1="60" x2="2535.5" y1="1236.8203" y2="1236.8203"/><text fill="#000000" font-family="sans-serif" font-size="11" font-weight="bold" lengthAdjust="spacingAndGlyphs" textLength="137" x="65" y="1247.0308">[HTTP request failed]</text><path d="M1075,1255.625 L1075,1280.625 L1291,1280.625 L1291,1265.625 L1281,1255.625 L1075,1255.625 " fill="#FBFB77" filter="url(#f1w5r2glq76wzz)" style="stroke: #A80036; stroke-width: 1.0;"/><path d="M1281,1255.625 L1281,1265.625 L1291,1265.625 L1281,1255.625 " fill="#FBFB77" style="stroke: #A80036; stroke-width: 1.0;"/><text fill="#000000" font-family="sans-serif" font-size="13" lengthAdjust="spacingAndGlyphs" textLength="195" x="1081" y="1272.6919">Handle network or server error</text><!--MD5=[4e9ed452807e439ea1e9d3909be7de32]
@startuml
actor User

participant "Angular\nAccount Details Component" as Frontend <<Frontend>>
participant "AuthService" as AuthService <<Frontend>>
participant "AuthInterceptorService" as AuthInterceptor <<Frontend>>
participant "HTTP Client" as HttpClient <<Frontend>>
participant "MessageService" as MessageService <<Frontend>>
participant "LocalStorage" as LocalStorage <<Frontend>>
participant "Login Component" as LoginComponent <<Frontend>>

participant "UserController" as Controller <<Backend>>
participant "IUserAppService" as IUserAppService <<Backend>>
participant "UserAppService" as UserAppService <<Backend>>
participant "UserManager<ApplicationUser>" as UserManager <<Backend>>
database "MongoDB" as Database <<Database>>

User -> Frontend: Clicks delete account
note right of User: User must be logged in
activate Frontend

Frontend -> AuthService: getUserFromToken()
activate AuthService
AuthService - -> Frontend: User (name, email)
deactivate AuthService

Frontend -> AuthService: onDeleteAccount(User.email)
activate AuthService

AuthService -> AuthInterceptor: Prepare HTTP DELETE request to /User/DeleteAcc?email={User.email}
activate AuthInterceptor
AuthInterceptor -> LocalStorage: Retrieve JWT Token
activate LocalStorage
LocalStorage - -> AuthInterceptor: JWT Token
deactivate LocalStorage

AuthInterceptor -> HttpClient: Forward request with Authorization header
deactivate AuthInterceptor
activate HttpClient

alt HTTP request successful
    HttpClient -> Controller: DeleteAcc(AccountDeletionDto)
    activate Controller
    note right of Controller: Check if user exists in database
    Controller -> IUserAppService: DeleteAccount(user.Email)
    activate IUserAppService
    IUserAppService -> UserAppService: DeleteAccount(Email)
    activate UserAppService
    UserAppService -> UserManager: FindByEmailAsync(Email)
    activate UserManager

    UserManager -> Database: Query User by Email
    activate Database
    Database - -> UserManager: ApplicationUser / null
    deactivate Database

    alt appUser != null
        UserManager -> UserAppService: appUser
        deactivate UserManager

        UserAppService -> UserManager: DeleteAsync(appUser)
        activate UserManager

        UserManager -> Database: Delete User
        activate Database
        Database - -> UserManager: Deletion Result
        deactivate Database

        UserManager - -> UserAppService: IdentityResult(Success / Fail)
        deactivate UserManager

        UserAppService - -> IUserAppService: IdentityResult
    else user not found
        UserManager - -> UserAppService: User not found
        deactivate UserManager

        UserAppService - -> IUserAppService: IdentityResult(Failed)
    end
    deactivate UserAppService

    IUserAppService - -> Controller: IdentityResult
    deactivate IUserAppService

    Controller - -> HttpClient: IdentityResult
    deactivate Controller

    HttpClient - -> AuthService: response / error
    deactivate HttpClient

    alt response successful
        AuthService -> MessageService: Add "Account deleted successfully"
        activate MessageService

        MessageService -> Frontend: Display success message
        deactivate MessageService

        AuthService -> AuthService: logout()
        AuthService -> LocalStorage: Clear data
        AuthService -> LoginComponent: Redirect to login
        deactivate AuthService
        deactivate LocalStorage
    else error
        AuthService -> MessageService: Add error message
        activate MessageService

        MessageService -> Frontend: Display error message
        deactivate MessageService

        deactivate AuthService
    end
else HTTP request failed
    note over HttpClient: Handle network or server error
    deactivate HttpClient
end
deactivate Frontend
@enduml

PlantUML version 1.2020.02(Sun Mar 01 10:22:07 UTC 2020)
(GPL source distribution)
Java Runtime: OpenJDK Runtime Environment
JVM: OpenJDK 64-Bit Server VM
Java Version: 11.0.21+9
Operating System: Linux
Default Encoding: UTF-8
Language: en
Country: null
--></g></svg>