<?xml version="1.0" encoding="UTF-8" standalone="no"?><svg xmlns="http://www.w3.org/2000/svg" xmlns:xlink="http://www.w3.org/1999/xlink" contentStyleType="text/css" height="416px" preserveAspectRatio="none" style="width:684px;height:416px;background:#FFFFFF;" version="1.1" viewBox="0 0 684 416" width="684px" zoomAndPan="magnify"><defs/><g><rect fill="#FFFFFF" height="205.1738" style="stroke:#181818;stroke-width:1.0;" width="10" x="192.5" y="112.7988"/><rect fill="#FFFFFF" height="146.5527" style="stroke:#181818;stroke-width:1.0;" width="10" x="382.5" y="142.1094"/><rect fill="#FFFFFF" height="87.9316" style="stroke:#181818;stroke-width:1.0;" width="10" x="509.5" y="171.4199"/><line style="stroke:#181818;stroke-width:0.5;stroke-dasharray:5.0,5.0;" x1="23" x2="23" y1="81.4883" y2="335.9727"/><line style="stroke:#181818;stroke-width:0.5;stroke-dasharray:5.0,5.0;" x1="197" x2="197" y1="81.4883" y2="335.9727"/><line style="stroke:#181818;stroke-width:0.5;stroke-dasharray:5.0,5.0;" x1="387.5" x2="387.5" y1="81.4883" y2="335.9727"/><line style="stroke:#181818;stroke-width:0.5;stroke-dasharray:5.0,5.0;" x1="514.5" x2="514.5" y1="81.4883" y2="335.9727"/><line style="stroke:#181818;stroke-width:0.5;stroke-dasharray:5.0,5.0;" x1="648" x2="648" y1="81.4883" y2="335.9727"/><text fill="#000000" font-family="sans-serif" font-size="14" lengthAdjust="spacing" textLength="31" x="5" y="78.5352">User</text><ellipse cx="23.5" cy="13.5" fill="#E2E2F0" rx="8" ry="8" style="stroke:#181818;stroke-width:0.5;"/><path d="M23.5,21.5 L23.5,48.5 M10.5,29.5 L36.5,29.5 M23.5,48.5 L10.5,63.5 M23.5,48.5 L36.5,63.5 " fill="none" style="stroke:#181818;stroke-width:0.5;"/><text fill="#000000" font-family="sans-serif" font-size="14" lengthAdjust="spacing" textLength="31" x="5" y="348.5078">User</text><ellipse cx="23.5" cy="359.9609" fill="#E2E2F0" rx="8" ry="8" style="stroke:#181818;stroke-width:0.5;"/><path d="M23.5,367.9609 L23.5,394.9609 M10.5,375.9609 L36.5,375.9609 M23.5,394.9609 L10.5,409.9609 M23.5,394.9609 L36.5,409.9609 " fill="none" style="stroke:#181818;stroke-width:0.5;"/><rect fill="#E2E2F0" height="30.4883" rx="2.5" ry="2.5" style="stroke:#181818;stroke-width:0.5;" width="81" x="157" y="50"/><text fill="#000000" font-family="sans-serif" font-size="14" lengthAdjust="spacing" textLength="67" x="164" y="70.5352">:FrontEnd</text><rect fill="#E2E2F0" height="30.4883" rx="2.5" ry="2.5" style="stroke:#181818;stroke-width:0.5;" width="81" x="157" y="334.9727"/><text fill="#000000" font-family="sans-serif" font-size="14" lengthAdjust="spacing" textLength="67" x="164" y="355.5078">:FrontEnd</text><rect fill="#E2E2F0" height="30.4883" rx="2.5" ry="2.5" style="stroke:#181818;stroke-width:0.5;" width="124" x="325.5" y="50"/><text fill="#000000" font-family="sans-serif" font-size="14" lengthAdjust="spacing" textLength="110" x="332.5" y="70.5352">:FloorController</text><rect fill="#E2E2F0" height="30.4883" rx="2.5" ry="2.5" style="stroke:#181818;stroke-width:0.5;" width="124" x="325.5" y="334.9727"/><text fill="#000000" font-family="sans-serif" font-size="14" lengthAdjust="spacing" textLength="110" x="332.5" y="355.5078">:FloorController</text><rect fill="#E2E2F0" height="30.4883" rx="2.5" ry="2.5" style="stroke:#181818;stroke-width:0.5;" width="102" x="463.5" y="50"/><text fill="#000000" font-family="sans-serif" font-size="14" lengthAdjust="spacing" textLength="88" x="470.5" y="70.5352">:FloorService</text><rect fill="#E2E2F0" height="30.4883" rx="2.5" ry="2.5" style="stroke:#181818;stroke-width:0.5;" width="102" x="463.5" y="334.9727"/><text fill="#000000" font-family="sans-serif" font-size="14" lengthAdjust="spacing" textLength="88" x="470.5" y="355.5078">:FloorService</text><text fill="#000000" font-family="sans-serif" font-size="14" lengthAdjust="spacing" textLength="63" x="614" y="78.5352">Database</text><path d="M630.5,29 C630.5,19 648.5,19 648.5,19 C648.5,19 666.5,19 666.5,29 L666.5,55 C666.5,65 648.5,65 648.5,65 C648.5,65 630.5,65 630.5,55 L630.5,29 " fill="#E2E2F0" style="stroke:#181818;stroke-width:1.5;"/><path d="M630.5,29 C630.5,39 648.5,39 648.5,39 C648.5,39 666.5,39 666.5,29 " fill="none" style="stroke:#181818;stroke-width:1.5;"/><text fill="#000000" font-family="sans-serif" font-size="14" lengthAdjust="spacing" textLength="63" x="614" y="348.5078">Database</text><path d="M630.5,361.4609 C630.5,351.4609 648.5,351.4609 648.5,351.4609 C648.5,351.4609 666.5,351.4609 666.5,361.4609 L666.5,387.4609 C666.5,397.4609 648.5,397.4609 648.5,397.4609 C648.5,397.4609 630.5,397.4609 630.5,387.4609 L630.5,361.4609 " fill="#E2E2F0" style="stroke:#181818;stroke-width:1.5;"/><path d="M630.5,361.4609 C630.5,371.4609 648.5,371.4609 648.5,371.4609 C648.5,371.4609 666.5,371.4609 666.5,361.4609 " fill="none" style="stroke:#181818;stroke-width:1.5;"/><rect fill="#FFFFFF" height="205.1738" style="stroke:#181818;stroke-width:1.0;" width="10" x="192.5" y="112.7988"/><rect fill="#FFFFFF" height="146.5527" style="stroke:#181818;stroke-width:1.0;" width="10" x="382.5" y="142.1094"/><rect fill="#FFFFFF" height="87.9316" style="stroke:#181818;stroke-width:1.0;" width="10" x="509.5" y="171.4199"/><polygon fill="#181818" points="180.5,108.7988,190.5,112.7988,180.5,116.7988,184.5,112.7988" style="stroke:#181818;stroke-width:1.0;"/><line style="stroke:#181818;stroke-width:1.0;" x1="23.5" x2="186.5" y1="112.7988" y2="112.7988"/><text fill="#000000" font-family="sans-serif" font-size="13" lengthAdjust="spacing" textLength="150" x="30.5" y="108.0566">HTTP POST /createFloor</text><polygon fill="#181818" points="370.5,138.1094,380.5,142.1094,370.5,146.1094,374.5,142.1094" style="stroke:#181818;stroke-width:1.0;"/><line style="stroke:#181818;stroke-width:1.0;" x1="202.5" x2="376.5" y1="142.1094" y2="142.1094"/><text fill="#000000" font-family="sans-serif" font-size="13" lengthAdjust="spacing" textLength="135" x="209.5" y="137.3672">Handle HTTP Request</text><polygon fill="#181818" points="497.5,167.4199,507.5,171.4199,497.5,175.4199,501.5,171.4199" style="stroke:#181818;stroke-width:1.0;"/><line style="stroke:#181818;stroke-width:1.0;" x1="392.5" x2="503.5" y1="171.4199" y2="171.4199"/><text fill="#000000" font-family="sans-serif" font-size="13" lengthAdjust="spacing" textLength="98" x="399.5" y="166.6777">Handle Request</text><polygon fill="#181818" points="636.5,196.7305,646.5,200.7305,636.5,204.7305,640.5,200.7305" style="stroke:#181818;stroke-width:1.0;"/><line style="stroke:#181818;stroke-width:1.0;" x1="519.5" x2="642.5" y1="200.7305" y2="200.7305"/><text fill="#000000" font-family="sans-serif" font-size="13" lengthAdjust="spacing" textLength="105" x="526.5" y="195.9883">Insert Floor Data</text><polygon fill="#181818" points="530.5,226.041,520.5,230.041,530.5,234.041,526.5,230.041" style="stroke:#181818;stroke-width:1.0;"/><line style="stroke:#181818;stroke-width:1.0;stroke-dasharray:2.0,2.0;" x1="524.5" x2="647.5" y1="230.041" y2="230.041"/><text fill="#000000" font-family="sans-serif" font-size="13" lengthAdjust="spacing" textLength="39" x="536.5" y="225.2988">Result</text><polygon fill="#181818" points="403.5,255.3516,393.5,259.3516,403.5,263.3516,399.5,259.3516" style="stroke:#181818;stroke-width:1.0;"/><line style="stroke:#181818;stroke-width:1.0;stroke-dasharray:2.0,2.0;" x1="397.5" x2="513.5" y1="259.3516" y2="259.3516"/><text fill="#000000" font-family="sans-serif" font-size="13" lengthAdjust="spacing" textLength="39" x="409.5" y="254.6094">Result</text><polygon fill="#181818" points="213.5,284.6621,203.5,288.6621,213.5,292.6621,209.5,288.6621" style="stroke:#181818;stroke-width:1.0;"/><line style="stroke:#181818;stroke-width:1.0;stroke-dasharray:2.0,2.0;" x1="207.5" x2="386.5" y1="288.6621" y2="288.6621"/><text fill="#000000" font-family="sans-serif" font-size="13" lengthAdjust="spacing" textLength="156" x="219.5" y="283.9199">Generate HTTP Response</text><polygon fill="#181818" points="34.5,313.9727,24.5,317.9727,34.5,321.9727,30.5,317.9727" style="stroke:#181818;stroke-width:1.0;"/><line style="stroke:#181818;stroke-width:1.0;stroke-dasharray:2.0,2.0;" x1="28.5" x2="196.5" y1="317.9727" y2="317.9727"/><text fill="#000000" font-family="sans-serif" font-size="13" lengthAdjust="spacing" textLength="97" x="40.5" y="313.2305">HTTP Response</text><!--MD5=[3143aa9419cdf129d8e94cc9918ed973]
@startuml
actor "User" as user
participant ":FrontEnd" as frontend
participant ":FloorController" as controller
participant ":FloorService" as service
database "Database" as db

user -> frontend: HTTP POST /createFloor
activate frontend
frontend -> controller: Handle HTTP Request
activate controller
controller -> service: Handle Request
activate service
service -> db: Insert Floor Data
db - -> service: Result
service - -> controller: Result
deactivate service
controller - -> frontend: Generate HTTP Response
deactivate controller
frontend - -> user: HTTP Response
deactivate frontend
@enduml

PlantUML version 1.2022.7(Mon Aug 22 18:01:30 WEST 2022)
(GPL source distribution)
Java Runtime: OpenJDK Runtime Environment
JVM: OpenJDK 64-Bit Server VM
Default Encoding: UTF-8
Language: pt
Country: PT
--></g></svg>