<?xml version="1.0" encoding="UTF-8" standalone="no"?><svg xmlns="http://www.w3.org/2000/svg" xmlns:xlink="http://www.w3.org/1999/xlink" contentScriptType="application/ecmascript" contentStyleType="text/css" height="1016px" preserveAspectRatio="none" style="width:1273px;height:1016px;" version="1.1" viewBox="0 0 1273 1016" width="1273px" zoomAndPan="magnify"><defs><filter height="300%" id="f11p7z7wsw2qyi" width="300%" x="-1" y="-1"><feGaussianBlur result="blurOut" stdDeviation="2.0"/><feColorMatrix in="blurOut" result="blurOut2" type="matrix" values="0 0 0 0 0 0 0 0 0 0 0 0 0 0 0 0 0 0 .4 0"/><feOffset dx="4.0" dy="4.0" in="blurOut2" result="blurOut3"/><feBlend in="SourceGraphic" in2="blurOut3" mode="normal"/></filter></defs><g><rect fill="#FFFFFF" filter="url(#f11p7z7wsw2qyi)" height="821.3906" style="stroke: #A80036; stroke-width: 1.0;" width="10" x="47" y="96.2969"/><rect fill="#FFFFFF" filter="url(#f11p7z7wsw2qyi)" height="799.2578" style="stroke: #A80036; stroke-width: 1.0;" width="10" x="236" y="117.4297"/><rect fill="#FFFFFF" filter="url(#f11p7z7wsw2qyi)" height="550.5234" style="stroke: #A80036; stroke-width: 1.0;" width="10" x="415" y="271.0938"/><rect fill="#FFFFFF" filter="url(#f11p7z7wsw2qyi)" height="492.2578" style="stroke: #A80036; stroke-width: 1.0;" width="10" x="546" y="300.2266"/><rect fill="#FFFFFF" filter="url(#f11p7z7wsw2qyi)" height="433.9922" style="stroke: #A80036; stroke-width: 1.0;" width="10" x="705" y="329.3594"/><rect fill="#FFFFFF" filter="url(#f11p7z7wsw2qyi)" height="375.7266" style="stroke: #A80036; stroke-width: 1.0;" width="10" x="864" y="358.4922"/><rect fill="#FFFFFF" filter="url(#f11p7z7wsw2qyi)" height="317.4609" style="stroke: #A80036; stroke-width: 1.0;" width="10" x="1023" y="387.625"/><rect fill="#FFFFFF" filter="url(#f11p7z7wsw2qyi)" height="259.1953" style="stroke: #A80036; stroke-width: 1.0;" width="10" x="1192" y="416.7578"/><rect fill="#FFFFFF" filter="url(#f11p7z7wsw2qyi)" height="676.8594" style="stroke: #000000; stroke-width: 2.0;" width="1248.5" x="13" y="232.8281"/><rect fill="#FFFFFF" filter="url(#f11p7z7wsw2qyi)" height="426.9922" style="stroke: #000000; stroke-width: 2.0;" width="1228.5" x="23" y="431.7578"/><rect fill="#FFFFFF" height="205.9297" style="stroke: none; stroke-width: 1.0;" width="1228.5" x="23" y="652.8203"/><rect fill="#FFFFFF" height="43.9375" style="stroke: none; stroke-width: 1.0;" width="1248.5" x="13" y="865.75"/><line style="stroke: #A80036; stroke-width: 1.0; stroke-dasharray: 5.0,5.0;" x1="52" x2="52" y1="86.2969" y2="926.6875"/><line style="stroke: #A80036; stroke-width: 1.0; stroke-dasharray: 5.0,5.0;" x1="240.5" x2="240.5" y1="86.2969" y2="926.6875"/><line style="stroke: #A80036; stroke-width: 1.0; stroke-dasharray: 5.0,5.0;" x1="419.5" x2="419.5" y1="86.2969" y2="926.6875"/><line style="stroke: #A80036; stroke-width: 1.0; stroke-dasharray: 5.0,5.0;" x1="551" x2="551" y1="86.2969" y2="926.6875"/><line style="stroke: #A80036; stroke-width: 1.0; stroke-dasharray: 5.0,5.0;" x1="710" x2="710" y1="86.2969" y2="926.6875"/><line style="stroke: #A80036; stroke-width: 1.0; stroke-dasharray: 5.0,5.0;" x1="868.5" x2="868.5" y1="86.2969" y2="926.6875"/><line style="stroke: #A80036; stroke-width: 1.0; stroke-dasharray: 5.0,5.0;" x1="1027.5" x2="1027.5" y1="86.2969" y2="926.6875"/><line style="stroke: #A80036; stroke-width: 1.0; stroke-dasharray: 5.0,5.0;" x1="1196.5" x2="1196.5" y1="86.2969" y2="926.6875"/><text fill="#000000" font-family="sans-serif" font-size="14" lengthAdjust="spacingAndGlyphs" textLength="32" x="33" y="82.9951">User</text><ellipse cx="52" cy="13" fill="#FEFECE" filter="url(#f11p7z7wsw2qyi)" rx="8" ry="8" style="stroke: #A80036; stroke-width: 2.0;"/><path d="M52,21 L52,48 M39,29 L65,29 M52,48 L39,63 M52,48 L65,63 " fill="none" filter="url(#f11p7z7wsw2qyi)" style="stroke: #A80036; stroke-width: 2.0;"/><text fill="#000000" font-family="sans-serif" font-size="14" lengthAdjust="spacingAndGlyphs" textLength="32" x="33" y="938.6826">User</text><ellipse cx="52" cy="951.9844" fill="#FEFECE" filter="url(#f11p7z7wsw2qyi)" rx="8" ry="8" style="stroke: #A80036; stroke-width: 2.0;"/><path d="M52,959.9844 L52,986.9844 M39,967.9844 L65,967.9844 M52,986.9844 L39,1001.9844 M52,986.9844 L65,1001.9844 " fill="none" filter="url(#f11p7z7wsw2qyi)" style="stroke: #A80036; stroke-width: 2.0;"/><rect fill="#FEFECE" filter="url(#f11p7z7wsw2qyi)" height="62.8906" style="stroke: #A80036; stroke-width: 1.5;" width="175" x="151.5" y="18.4063"/><text fill="#000000" font-family="sans-serif" font-size="14" font-style="italic" lengthAdjust="spacingAndGlyphs" textLength="81" x="198.5" y="38.4014">«Frontend»</text><text fill="#000000" font-family="sans-serif" font-size="14" lengthAdjust="spacingAndGlyphs" textLength="52" x="213" y="54.6982">Angular</text><text fill="#000000" font-family="sans-serif" font-size="14" lengthAdjust="spacingAndGlyphs" textLength="161" x="158.5" y="70.9951">CreateTaskComponent</text><rect fill="#FEFECE" filter="url(#f11p7z7wsw2qyi)" height="62.8906" style="stroke: #A80036; stroke-width: 1.5;" width="175" x="151.5" y="925.6875"/><text fill="#000000" font-family="sans-serif" font-size="14" font-style="italic" lengthAdjust="spacingAndGlyphs" textLength="81" x="198.5" y="945.6826">«Frontend»</text><text fill="#000000" font-family="sans-serif" font-size="14" lengthAdjust="spacingAndGlyphs" textLength="52" x="213" y="961.9795">Angular</text><text fill="#000000" font-family="sans-serif" font-size="14" lengthAdjust="spacingAndGlyphs" textLength="161" x="158.5" y="978.2764">CreateTaskComponent</text><rect fill="#FEFECE" filter="url(#f11p7z7wsw2qyi)" height="46.5938" style="stroke: #A80036; stroke-width: 1.5;" width="97" x="369.5" y="34.7031"/><text fill="#000000" font-family="sans-serif" font-size="14" font-style="italic" lengthAdjust="spacingAndGlyphs" textLength="81" x="377.5" y="54.6982">«Frontend»</text><text fill="#000000" font-family="sans-serif" font-size="14" lengthAdjust="spacingAndGlyphs" textLength="83" x="376.5" y="70.9951">TaskService</text><rect fill="#FEFECE" filter="url(#f11p7z7wsw2qyi)" height="46.5938" style="stroke: #A80036; stroke-width: 1.5;" width="97" x="369.5" y="925.6875"/><text fill="#000000" font-family="sans-serif" font-size="14" font-style="italic" lengthAdjust="spacingAndGlyphs" textLength="81" x="377.5" y="945.6826">«Frontend»</text><text fill="#000000" font-family="sans-serif" font-size="14" lengthAdjust="spacingAndGlyphs" textLength="83" x="376.5" y="961.9795">TaskService</text><rect fill="#FEFECE" filter="url(#f11p7z7wsw2qyi)" height="46.5938" style="stroke: #A80036; stroke-width: 1.5;" width="114" x="492" y="34.7031"/><text fill="#000000" font-family="sans-serif" font-size="14" font-style="italic" lengthAdjust="spacingAndGlyphs" textLength="79" x="509.5" y="54.6982">«Backend»</text><text fill="#000000" font-family="sans-serif" font-size="14" lengthAdjust="spacingAndGlyphs" textLength="100" x="499" y="70.9951">TaskController</text><rect fill="#FEFECE" filter="url(#f11p7z7wsw2qyi)" height="46.5938" style="stroke: #A80036; stroke-width: 1.5;" width="114" x="492" y="925.6875"/><text fill="#000000" font-family="sans-serif" font-size="14" font-style="italic" lengthAdjust="spacingAndGlyphs" textLength="79" x="509.5" y="945.6826">«Backend»</text><text fill="#000000" font-family="sans-serif" font-size="14" lengthAdjust="spacingAndGlyphs" textLength="100" x="499" y="961.9795">TaskController</text><rect fill="#FEFECE" filter="url(#f11p7z7wsw2qyi)" height="46.5938" style="stroke: #A80036; stroke-width: 1.5;" width="100" x="658" y="34.7031"/><text fill="#000000" font-family="sans-serif" font-size="14" font-style="italic" lengthAdjust="spacingAndGlyphs" textLength="79" x="668.5" y="54.6982">«Backend»</text><text fill="#000000" font-family="sans-serif" font-size="14" lengthAdjust="spacingAndGlyphs" textLength="86" x="665" y="70.9951">ITaskService</text><rect fill="#FEFECE" filter="url(#f11p7z7wsw2qyi)" height="46.5938" style="stroke: #A80036; stroke-width: 1.5;" width="100" x="658" y="925.6875"/><text fill="#000000" font-family="sans-serif" font-size="14" font-style="italic" lengthAdjust="spacingAndGlyphs" textLength="79" x="668.5" y="945.6826">«Backend»</text><text fill="#000000" font-family="sans-serif" font-size="14" lengthAdjust="spacingAndGlyphs" textLength="86" x="665" y="961.9795">ITaskService</text><rect fill="#FEFECE" filter="url(#f11p7z7wsw2qyi)" height="46.5938" style="stroke: #A80036; stroke-width: 1.5;" width="97" x="818.5" y="34.7031"/><text fill="#000000" font-family="sans-serif" font-size="14" font-style="italic" lengthAdjust="spacingAndGlyphs" textLength="79" x="827.5" y="54.6982">«Backend»</text><text fill="#000000" font-family="sans-serif" font-size="14" lengthAdjust="spacingAndGlyphs" textLength="83" x="825.5" y="70.9951">TaskService</text><rect fill="#FEFECE" filter="url(#f11p7z7wsw2qyi)" height="46.5938" style="stroke: #A80036; stroke-width: 1.5;" width="97" x="818.5" y="925.6875"/><text fill="#000000" font-family="sans-serif" font-size="14" font-style="italic" lengthAdjust="spacingAndGlyphs" textLength="79" x="827.5" y="945.6826">«Backend»</text><text fill="#000000" font-family="sans-serif" font-size="14" lengthAdjust="spacingAndGlyphs" textLength="83" x="825.5" y="961.9795">TaskService</text><rect fill="#FEFECE" filter="url(#f11p7z7wsw2qyi)" height="46.5938" style="stroke: #A80036; stroke-width: 1.5;" width="121" x="965.5" y="34.7031"/><text fill="#000000" font-family="sans-serif" font-size="14" font-style="italic" lengthAdjust="spacingAndGlyphs" textLength="79" x="986.5" y="54.6982">«Backend»</text><text fill="#000000" font-family="sans-serif" font-size="14" lengthAdjust="spacingAndGlyphs" textLength="107" x="972.5" y="70.9951">TaskRepository</text><rect fill="#FEFECE" filter="url(#f11p7z7wsw2qyi)" height="46.5938" style="stroke: #A80036; stroke-width: 1.5;" width="121" x="965.5" y="925.6875"/><text fill="#000000" font-family="sans-serif" font-size="14" font-style="italic" lengthAdjust="spacingAndGlyphs" textLength="79" x="986.5" y="945.6826">«Backend»</text><text fill="#000000" font-family="sans-serif" font-size="14" lengthAdjust="spacingAndGlyphs" textLength="107" x="972.5" y="961.9795">TaskRepository</text><text fill="#000000" font-family="sans-serif" font-size="14" font-style="italic" lengthAdjust="spacingAndGlyphs" textLength="83" x="1152.5" y="66.6982">«Database»</text><text fill="#000000" font-family="sans-serif" font-size="14" lengthAdjust="spacingAndGlyphs" textLength="69" x="1159.5" y="82.9951">MongoDB</text><path d="M1179,17.7031 C1179,7.7031 1197,7.7031 1197,7.7031 C1197,7.7031 1215,7.7031 1215,17.7031 L1215,43.7031 C1215,53.7031 1197,53.7031 1197,53.7031 C1197,53.7031 1179,53.7031 1179,43.7031 L1179,17.7031 " fill="#FEFECE" filter="url(#f11p7z7wsw2qyi)" style="stroke: #000000; stroke-width: 1.5;"/><path d="M1179,17.7031 C1179,27.7031 1197,27.7031 1197,27.7031 C1197,27.7031 1215,27.7031 1215,17.7031 " fill="none" style="stroke: #000000; stroke-width: 1.5;"/><text fill="#000000" font-family="sans-serif" font-size="14" font-style="italic" lengthAdjust="spacingAndGlyphs" textLength="83" x="1152.5" y="938.6826">«Database»</text><text fill="#000000" font-family="sans-serif" font-size="14" lengthAdjust="spacingAndGlyphs" textLength="69" x="1159.5" y="954.9795">MongoDB</text><path d="M1179,968.2813 C1179,958.2813 1197,958.2813 1197,958.2813 C1197,958.2813 1215,958.2813 1215,968.2813 L1215,994.2813 C1215,1004.2813 1197,1004.2813 1197,1004.2813 C1197,1004.2813 1179,1004.2813 1179,994.2813 L1179,968.2813 " fill="#FEFECE" filter="url(#f11p7z7wsw2qyi)" style="stroke: #000000; stroke-width: 1.5;"/><path d="M1179,968.2813 C1179,978.2813 1197,978.2813 1197,978.2813 C1197,978.2813 1215,978.2813 1215,968.2813 " fill="none" style="stroke: #000000; stroke-width: 1.5;"/><rect fill="#FFFFFF" filter="url(#f11p7z7wsw2qyi)" height="821.3906" style="stroke: #A80036; stroke-width: 1.0;" width="10" x="47" y="96.2969"/><rect fill="#FFFFFF" filter="url(#f11p7z7wsw2qyi)" height="799.2578" style="stroke: #A80036; stroke-width: 1.0;" width="10" x="236" y="117.4297"/><rect fill="#FFFFFF" filter="url(#f11p7z7wsw2qyi)" height="550.5234" style="stroke: #A80036; stroke-width: 1.0;" width="10" x="415" y="271.0938"/><rect fill="#FFFFFF" filter="url(#f11p7z7wsw2qyi)" height="492.2578" style="stroke: #A80036; stroke-width: 1.0;" width="10" x="546" y="300.2266"/><rect fill="#FFFFFF" filter="url(#f11p7z7wsw2qyi)" height="433.9922" style="stroke: #A80036; stroke-width: 1.0;" width="10" x="705" y="329.3594"/><rect fill="#FFFFFF" filter="url(#f11p7z7wsw2qyi)" height="375.7266" style="stroke: #A80036; stroke-width: 1.0;" width="10" x="864" y="358.4922"/><rect fill="#FFFFFF" filter="url(#f11p7z7wsw2qyi)" height="317.4609" style="stroke: #A80036; stroke-width: 1.0;" width="10" x="1023" y="387.625"/><rect fill="#FFFFFF" filter="url(#f11p7z7wsw2qyi)" height="259.1953" style="stroke: #A80036; stroke-width: 1.0;" width="10" x="1192" y="416.7578"/><polygon fill="#A80036" points="224,113.4297,234,117.4297,224,121.4297,228,117.4297" style="stroke: #A80036; stroke-width: 1.0;"/><line style="stroke: #A80036; stroke-width: 1.0;" x1="57" x2="230" y1="117.4297" y2="117.4297"/><text fill="#000000" font-family="sans-serif" font-size="13" lengthAdjust="spacingAndGlyphs" textLength="74" x="64" y="112.3638">Create task</text><polygon fill="#A80036" points="68,142.5625,58,146.5625,68,150.5625,64,146.5625" style="stroke: #A80036; stroke-width: 1.0;"/><line style="stroke: #A80036; stroke-width: 1.0;" x1="62" x2="235" y1="146.5625" y2="146.5625"/><text fill="#000000" font-family="sans-serif" font-size="13" lengthAdjust="spacingAndGlyphs" textLength="84" x="74" y="141.4966">Asks for data</text><polygon fill="#A80036" points="224,171.6953,234,175.6953,224,179.6953,228,175.6953" style="stroke: #A80036; stroke-width: 1.0;"/><line style="stroke: #A80036; stroke-width: 1.0;" x1="57" x2="230" y1="175.6953" y2="175.6953"/><text fill="#000000" font-family="sans-serif" font-size="13" lengthAdjust="spacingAndGlyphs" textLength="100" x="64" y="170.6294">Introduces data</text><line style="stroke: #A80036; stroke-width: 1.0;" x1="246" x2="288" y1="204.8281" y2="204.8281"/><line style="stroke: #A80036; stroke-width: 1.0;" x1="288" x2="288" y1="204.8281" y2="217.8281"/><line style="stroke: #A80036; stroke-width: 1.0;" x1="247" x2="288" y1="217.8281" y2="217.8281"/><polygon fill="#A80036" points="257,213.8281,247,217.8281,257,221.8281,253,217.8281" style="stroke: #A80036; stroke-width: 1.0;"/><text fill="#000000" font-family="sans-serif" font-size="13" lengthAdjust="spacingAndGlyphs" textLength="155" x="253" y="199.7622">"Validate input (HTML5)"</text><path d="M13,232.8281 L77,232.8281 L77,239.8281 L67,249.8281 L13,249.8281 L13,232.8281 " fill="#EEEEEE" style="stroke: #000000; stroke-width: 1.0;"/><rect fill="none" height="676.8594" style="stroke: #000000; stroke-width: 2.0;" width="1248.5" x="13" y="232.8281"/><text fill="#000000" font-family="sans-serif" font-size="13" font-weight="bold" lengthAdjust="spacingAndGlyphs" textLength="19" x="28" y="245.895">alt</text><text fill="#000000" font-family="sans-serif" font-size="11" font-weight="bold" lengthAdjust="spacingAndGlyphs" textLength="148" x="92" y="245.0386">[Validation Successful]</text><polygon fill="#A80036" points="403,267.0938,413,271.0938,403,275.0938,407,271.0938" style="stroke: #A80036; stroke-width: 1.0;"/><line style="stroke: #A80036; stroke-width: 1.0;" x1="246" x2="409" y1="271.0938" y2="271.0938"/><text fill="#000000" font-family="sans-serif" font-size="13" lengthAdjust="spacingAndGlyphs" textLength="107" x="253" y="266.0278">createTask(task)</text><polygon fill="#A80036" points="534,296.2266,544,300.2266,534,304.2266,538,300.2266" style="stroke: #A80036; stroke-width: 1.0;"/><line style="stroke: #A80036; stroke-width: 1.0;" x1="425" x2="540" y1="300.2266" y2="300.2266"/><text fill="#000000" font-family="sans-serif" font-size="13" lengthAdjust="spacingAndGlyphs" textLength="102" x="432" y="295.1606">POST /tasl(task)</text><polygon fill="#A80036" points="693,325.3594,703,329.3594,693,333.3594,697,329.3594" style="stroke: #A80036; stroke-width: 1.0;"/><line style="stroke: #A80036; stroke-width: 1.0;" x1="556" x2="699" y1="329.3594" y2="329.3594"/><text fill="#000000" font-family="sans-serif" font-size="13" lengthAdjust="spacingAndGlyphs" textLength="130" x="563" y="324.2935">createTask(taskDto)</text><polygon fill="#A80036" points="852,354.4922,862,358.4922,852,362.4922,856,358.4922" style="stroke: #A80036; stroke-width: 1.0;"/><line style="stroke: #A80036; stroke-width: 1.0;" x1="715" x2="858" y1="358.4922" y2="358.4922"/><text fill="#000000" font-family="sans-serif" font-size="13" lengthAdjust="spacingAndGlyphs" textLength="130" x="722" y="353.4263">createTask(taskDto)</text><polygon fill="#A80036" points="1011,383.625,1021,387.625,1011,391.625,1015,387.625" style="stroke: #A80036; stroke-width: 1.0;"/><line style="stroke: #A80036; stroke-width: 1.0;" x1="874" x2="1017" y1="387.625" y2="387.625"/><text fill="#000000" font-family="sans-serif" font-size="13" lengthAdjust="spacingAndGlyphs" textLength="130" x="881" y="382.5591">createTask(taskDto)</text><polygon fill="#A80036" points="1180,412.7578,1190,416.7578,1180,420.7578,1184,416.7578" style="stroke: #A80036; stroke-width: 1.0;"/><line style="stroke: #A80036; stroke-width: 1.0;" x1="1033" x2="1186" y1="416.7578" y2="416.7578"/><text fill="#000000" font-family="sans-serif" font-size="13" lengthAdjust="spacingAndGlyphs" textLength="140" x="1040" y="411.6919">InsertTaskAsync(task)</text><path d="M23,431.7578 L87,431.7578 L87,438.7578 L77,448.7578 L23,448.7578 L23,431.7578 " fill="#EEEEEE" style="stroke: #000000; stroke-width: 1.0;"/><rect fill="none" height="426.9922" style="stroke: #000000; stroke-width: 2.0;" width="1228.5" x="23" y="431.7578"/><text fill="#000000" font-family="sans-serif" font-size="13" font-weight="bold" lengthAdjust="spacingAndGlyphs" textLength="19" x="38" y="444.8247">alt</text><text fill="#000000" font-family="sans-serif" font-size="11" font-weight="bold" lengthAdjust="spacingAndGlyphs" textLength="183" x="102" y="443.9683">[task is added with success]</text><polygon fill="#A80036" points="1044,466.0234,1034,470.0234,1044,474.0234,1040,470.0234" style="stroke: #A80036; stroke-width: 1.0;"/><line style="stroke: #A80036; stroke-width: 1.0; stroke-dasharray: 2.0,2.0;" x1="1038" x2="1191" y1="470.0234" y2="470.0234"/><text fill="#000000" font-family="sans-serif" font-size="13" lengthAdjust="spacingAndGlyphs" textLength="50" x="1050" y="464.9575">taskDto</text><polygon fill="#A80036" points="885,495.1563,875,499.1563,885,503.1563,881,499.1563" style="stroke: #A80036; stroke-width: 1.0;"/><line style="stroke: #A80036; stroke-width: 1.0; stroke-dasharray: 2.0,2.0;" x1="879" x2="1022" y1="499.1563" y2="499.1563"/><text fill="#000000" font-family="sans-serif" font-size="13" lengthAdjust="spacingAndGlyphs" textLength="50" x="891" y="494.0903">taskDto</text><polygon fill="#A80036" points="726,524.2891,716,528.2891,726,532.2891,722,528.2891" style="stroke: #A80036; stroke-width: 1.0;"/><line style="stroke: #A80036; stroke-width: 1.0; stroke-dasharray: 2.0,2.0;" x1="720" x2="863" y1="528.2891" y2="528.2891"/><text fill="#000000" font-family="sans-serif" font-size="13" lengthAdjust="spacingAndGlyphs" textLength="50" x="732" y="523.2231">taskDto</text><polygon fill="#A80036" points="567,553.4219,557,557.4219,567,561.4219,563,557.4219" style="stroke: #A80036; stroke-width: 1.0;"/><line style="stroke: #A80036; stroke-width: 1.0; stroke-dasharray: 2.0,2.0;" x1="561" x2="704" y1="557.4219" y2="557.4219"/><text fill="#000000" font-family="sans-serif" font-size="13" lengthAdjust="spacingAndGlyphs" textLength="50" x="573" y="552.356">taskDto</text><polygon fill="#A80036" points="436,582.5547,426,586.5547,436,590.5547,432,586.5547" style="stroke: #A80036; stroke-width: 1.0;"/><line style="stroke: #A80036; stroke-width: 1.0; stroke-dasharray: 2.0,2.0;" x1="430" x2="545" y1="586.5547" y2="586.5547"/><text fill="#000000" font-family="sans-serif" font-size="13" lengthAdjust="spacingAndGlyphs" textLength="50" x="442" y="581.4888">taskDto</text><polygon fill="#A80036" points="257,611.6875,247,615.6875,257,619.6875,253,615.6875" style="stroke: #A80036; stroke-width: 1.0;"/><line style="stroke: #A80036; stroke-width: 1.0; stroke-dasharray: 2.0,2.0;" x1="251" x2="414" y1="615.6875" y2="615.6875"/><text fill="#000000" font-family="sans-serif" font-size="13" lengthAdjust="spacingAndGlyphs" textLength="50" x="263" y="610.6216">taskDto</text><polygon fill="#A80036" points="68,640.8203,58,644.8203,68,648.8203,64,644.8203" style="stroke: #A80036; stroke-width: 1.0;"/><line style="stroke: #A80036; stroke-width: 1.0; stroke-dasharray: 2.0,2.0;" x1="62" x2="235" y1="644.8203" y2="644.8203"/><text fill="#000000" font-family="sans-serif" font-size="13" lengthAdjust="spacingAndGlyphs" textLength="155" x="74" y="639.7544">"Success task creation!"</text><line style="stroke: #000000; stroke-width: 1.0; stroke-dasharray: 2.0,2.0;" x1="23" x2="1251.5" y1="653.8203" y2="653.8203"/><polygon fill="#A80036" points="1044,671.9531,1034,675.9531,1044,679.9531,1040,675.9531" style="stroke: #A80036; stroke-width: 1.0;"/><line style="stroke: #A80036; stroke-width: 1.0; stroke-dasharray: 2.0,2.0;" x1="1038" x2="1196" y1="675.9531" y2="675.9531"/><text fill="#000000" font-family="sans-serif" font-size="13" lengthAdjust="spacingAndGlyphs" textLength="22" x="1050" y="670.8872">null</text><polygon fill="#A80036" points="885,701.0859,875,705.0859,885,709.0859,881,705.0859" style="stroke: #A80036; stroke-width: 1.0;"/><line style="stroke: #A80036; stroke-width: 1.0; stroke-dasharray: 2.0,2.0;" x1="879" x2="1027" y1="705.0859" y2="705.0859"/><text fill="#000000" font-family="sans-serif" font-size="13" lengthAdjust="spacingAndGlyphs" textLength="22" x="891" y="700.02">null</text><polygon fill="#A80036" points="726,730.2188,716,734.2188,726,738.2188,722,734.2188" style="stroke: #A80036; stroke-width: 1.0;"/><line style="stroke: #A80036; stroke-width: 1.0; stroke-dasharray: 2.0,2.0;" x1="720" x2="868" y1="734.2188" y2="734.2188"/><text fill="#000000" font-family="sans-serif" font-size="13" lengthAdjust="spacingAndGlyphs" textLength="22" x="732" y="729.1528">null</text><polygon fill="#A80036" points="567,759.3516,557,763.3516,567,767.3516,563,763.3516" style="stroke: #A80036; stroke-width: 1.0;"/><line style="stroke: #A80036; stroke-width: 1.0; stroke-dasharray: 2.0,2.0;" x1="561" x2="709" y1="763.3516" y2="763.3516"/><text fill="#000000" font-family="sans-serif" font-size="13" lengthAdjust="spacingAndGlyphs" textLength="22" x="573" y="758.2856">null</text><polygon fill="#A80036" points="436,788.4844,426,792.4844,436,796.4844,432,792.4844" style="stroke: #A80036; stroke-width: 1.0;"/><line style="stroke: #A80036; stroke-width: 1.0; stroke-dasharray: 2.0,2.0;" x1="430" x2="550" y1="792.4844" y2="792.4844"/><text fill="#000000" font-family="sans-serif" font-size="13" lengthAdjust="spacingAndGlyphs" textLength="22" x="442" y="787.4185">null</text><polygon fill="#A80036" points="257,817.6172,247,821.6172,257,825.6172,253,821.6172" style="stroke: #A80036; stroke-width: 1.0;"/><line style="stroke: #A80036; stroke-width: 1.0; stroke-dasharray: 2.0,2.0;" x1="251" x2="419" y1="821.6172" y2="821.6172"/><text fill="#000000" font-family="sans-serif" font-size="13" lengthAdjust="spacingAndGlyphs" textLength="22" x="263" y="816.5513">null</text><polygon fill="#A80036" points="68,846.75,58,850.75,68,854.75,64,850.75" style="stroke: #A80036; stroke-width: 1.0;"/><line style="stroke: #A80036; stroke-width: 1.0; stroke-dasharray: 2.0,2.0;" x1="62" x2="235" y1="850.75" y2="850.75"/><text fill="#000000" font-family="sans-serif" font-size="13" lengthAdjust="spacingAndGlyphs" textLength="94" x="74" y="845.6841">Error message</text><line style="stroke: #000000; stroke-width: 1.0; stroke-dasharray: 2.0,2.0;" x1="13" x2="1261.5" y1="866.75" y2="866.75"/><text fill="#000000" font-family="sans-serif" font-size="11" font-weight="bold" lengthAdjust="spacingAndGlyphs" textLength="119" x="18" y="876.9604">[Validation Failed]</text><polygon fill="#A80036" points="68,897.6875,58,901.6875,68,905.6875,64,901.6875" style="stroke: #A80036; stroke-width: 1.0;"/><line style="stroke: #A80036; stroke-width: 1.0;" x1="62" x2="235" y1="901.6875" y2="901.6875"/><text fill="#000000" font-family="sans-serif" font-size="13" lengthAdjust="spacingAndGlyphs" textLength="98" x="74" y="896.6216">Validation Error</text><!--MD5=[3cb725858247d4455e513387a192e549]
@startuml
actor User

participant "Angular\nCreateTaskComponent" as Frontend <<Frontend>>
participant "TaskService" as FTaskSrvc <<Frontend>>
participant "TaskController" as Controller <<Backend>>
participant "ITaskService" as ITaskSrvc <<Backend>>
participant "TaskService" as taskSrvc <<Backend>>
participant "TaskRepository" as repo <<Backend>>
database "MongoDB" as MongoDB <<Database>>

activate User
User -> Frontend: Create task
activate Frontend
Frontend -> User: Asks for data
User -> Frontend: Introduces data
Frontend -> Frontend: "Validate input (HTML5)"
alt Validation Successful
    Frontend -> FTaskSrvc: createTask(task)
    activate FTaskSrvc
    FTaskSrvc -> Controller: POST /tasl(task)
    activate Controller

    Controller -> ITaskSrvc: createTask(taskDto)
    activate ITaskSrvc

    ITaskSrvc -> taskSrvc: createTask(taskDto)
    activate taskSrvc
    taskSrvc -> repo: createTask(taskDto)
    activate repo
    repo -> MongoDB: InsertTaskAsync(task)
    activate MongoDB

    alt task is added with success
      MongoDB - -> repo: taskDto
      repo - -> taskSrvc: taskDto
      taskSrvc - -> ITaskSrvc: taskDto
      ITaskSrvc - -> Controller: taskDto
      Controller - -> FTaskSrvc: taskDto
      FTaskSrvc - -> Frontend: taskDto
      Frontend - -> User: "Success task creation!"
    else
      MongoDB - -> repo: null
      deactivate MongoDB
      repo - -> taskSrvc: null
      deactivate repo
      taskSrvc - -> ITaskSrvc: null
      deactivate taskSrvc
      ITaskSrvc - -> Controller: null
      deactivate ITaskSrvc
      Controller - -> FTaskSrvc: null
      deactivate Controller
      FTaskSrvc - -> Frontend: null
      deactivate FTaskSrvc
      Frontend - -> User: Error message
    end
else Validation Failed
    Frontend -> User: Validation Error
end
deactivate Frontend
@enduml

PlantUML version 1.2020.02(Sun Mar 01 10:22:07 UTC 2020)
(GPL source distribution)
Java Runtime: OpenJDK Runtime Environment
JVM: OpenJDK 64-Bit Server VM
Java Version: 11.0.21+9
Operating System: Linux
Default Encoding: UTF-8
Language: en
Country: null
--></g></svg>