<?xml version="1.0" encoding="windows-1252" standalone="no"?>
<svg xmlns="http://www.w3.org/2000/svg" xmlns:xlink="http://www.w3.org/1999/xlink" contentStyleType="text/css" height="1176px" preserveAspectRatio="none" style="width:2002px;height:1176px;background:#FFFFFF;" version="1.1" viewBox="0 0 2002 1176" width="2002px" zoomAndPan="magnify"><defs/><g><rect fill="#FFFFFF" height="994.5156" style="stroke:#181818;stroke-width:1.0;" width="10" x="41" y="91.2969"/><rect fill="#FFFFFF" height="973.3828" style="stroke:#181818;stroke-width:1.0;" width="10" x="253" y="112.4297"/><rect fill="#FFFFFF" height="915.1172" style="stroke:#181818;stroke-width:1.0;" width="10" x="401" y="170.6953"/><rect fill="#FFFFFF" height="145.6641" style="stroke:#181818;stroke-width:1.0;" width="10" x="563" y="199.8281"/><rect fill="#FFFFFF" height="711.1875" style="stroke:#181818;stroke-width:1.0;" width="10" x="563" y="374.625"/><rect fill="#FFFFFF" height="116.5313" style="stroke:#181818;stroke-width:1.0;" width="10" x="735" y="228.9609"/><rect fill="#FFFFFF" height="682.0547" style="stroke:#181818;stroke-width:1.0;" width="10" x="735" y="403.7578"/><rect fill="#FFFFFF" height="87.3984" style="stroke:#181818;stroke-width:1.0;" width="10" x="902" y="258.0938"/><rect fill="#FFFFFF" height="652.9219" style="stroke:#181818;stroke-width:1.0;" width="10" x="902" y="432.8906"/><rect fill="#FFFFFF" height="58.2656" style="stroke:#181818;stroke-width:1.0;" width="10" x="1131" y="287.2266"/><rect fill="#FFFFFF" height="624.7891" style="stroke:#181818;stroke-width:1.0;" width="10" x="1131" y="462.0234"/><rect fill="#FFFFFF" height="594.6563" style="stroke:#181818;stroke-width:1.0;" width="10" x="1483" y="491.1563"/><rect fill="#FFFFFF" height="29.1328" style="stroke:#181818;stroke-width:1.0;" width="10" x="1613" y="316.3594"/><rect fill="#FFFFFF" height="448.9922" style="stroke:#181818;stroke-width:1.0;" width="10" x="1739" y="636.8203"/><rect fill="#FFFFFF" height="536.3906" style="stroke:#181818;stroke-width:1.0;" width="10" x="1856.5" y="549.4219"/><rect fill="#FFFFFF" height="566.5234" style="stroke:#181818;stroke-width:1.0;" width="10" x="1959" y="520.2891"/><rect fill="none" height="426.9922" style="stroke:#000000;stroke-width:1.5;" width="1922" x="10" y="651.8203"/><line style="stroke:#181818;stroke-width:0.5;stroke-dasharray:5.0,5.0;" x1="46" x2="46" y1="81.2969" y2="1095.8125"/><line style="stroke:#181818;stroke-width:0.5;stroke-dasharray:5.0,5.0;" x1="257.5" x2="257.5" y1="81.2969" y2="1095.8125"/><line style="stroke:#181818;stroke-width:0.5;stroke-dasharray:5.0,5.0;" x1="405.5" x2="405.5" y1="81.2969" y2="1095.8125"/><line style="stroke:#181818;stroke-width:0.5;stroke-dasharray:5.0,5.0;" x1="568" x2="568" y1="81.2969" y2="1095.8125"/><line style="stroke:#181818;stroke-width:0.5;stroke-dasharray:5.0,5.0;" x1="739.5" x2="739.5" y1="81.2969" y2="1095.8125"/><line style="stroke:#181818;stroke-width:0.5;stroke-dasharray:5.0,5.0;" x1="906.5" x2="906.5" y1="81.2969" y2="1095.8125"/><line style="stroke:#181818;stroke-width:0.5;stroke-dasharray:5.0,5.0;" x1="1135.5" x2="1135.5" y1="81.2969" y2="1095.8125"/><line style="stroke:#181818;stroke-width:0.5;stroke-dasharray:5.0,5.0;" x1="1488" x2="1488" y1="81.2969" y2="1095.8125"/><line style="stroke:#181818;stroke-width:0.5;stroke-dasharray:5.0,5.0;" x1="1618" x2="1618" y1="81.2969" y2="1095.8125"/><line style="stroke:#181818;stroke-width:0.5;stroke-dasharray:5.0,5.0;" x1="1744" x2="1744" y1="81.2969" y2="1095.8125"/><line style="stroke:#181818;stroke-width:0.5;stroke-dasharray:5.0,5.0;" x1="1861" x2="1861" y1="81.2969" y2="1095.8125"/><line style="stroke:#181818;stroke-width:0.5;stroke-dasharray:5.0,5.0;" x1="1964" x2="1964" y1="81.2969" y2="1095.8125"/><text fill="#000000" font-family="sans-serif" font-size="14" lengthAdjust="spacing" textLength="46" x="20" y="77.9951">Admin</text><ellipse cx="46" cy="13.5" fill="#E2E2F0" rx="8" ry="8" style="stroke:#181818;stroke-width:0.5;"/><path d="M46,21.5 L46,48.5 M33,29.5 L59,29.5 M46,48.5 L33,63.5 M46,48.5 L59,63.5 " fill="none" style="stroke:#181818;stroke-width:0.5;"/><text fill="#000000" font-family="sans-serif" font-size="14" lengthAdjust="spacing" textLength="46" x="20" y="1107.8076">Admin</text><ellipse cx="46" cy="1119.6094" fill="#E2E2F0" rx="8" ry="8" style="stroke:#181818;stroke-width:0.5;"/><path d="M46,1127.6094 L46,1154.6094 M33,1135.6094 L59,1135.6094 M46,1154.6094 L33,1169.6094 M46,1154.6094 L59,1169.6094 " fill="none" style="stroke:#181818;stroke-width:0.5;"/><rect fill="#E2E2F0" height="30.2969" rx="2.5" ry="2.5" style="stroke:#181818;stroke-width:0.5;" width="53" x="231.5" y="50"/><text fill="#000000" font-family="sans-serif" font-size="14" lengthAdjust="spacing" textLength="39" x="238.5" y="69.9951">:View</text><rect fill="#E2E2F0" height="30.2969" rx="2.5" ry="2.5" style="stroke:#181818;stroke-width:0.5;" width="53" x="231.5" y="1094.8125"/><text fill="#000000" font-family="sans-serif" font-size="14" lengthAdjust="spacing" textLength="39" x="238.5" y="1114.8076">:View</text><rect fill="#E2E2F0" height="30.2969" rx="2.5" ry="2.5" style="stroke:#181818;stroke-width:0.5;" width="129" x="341.5" y="50"/><text fill="#000000" font-family="sans-serif" font-size="14" lengthAdjust="spacing" textLength="115" x="348.5" y="69.9951">:FE_Component</text><rect fill="#E2E2F0" height="30.2969" rx="2.5" ry="2.5" style="stroke:#181818;stroke-width:0.5;" width="129" x="341.5" y="1094.8125"/><text fill="#000000" font-family="sans-serif" font-size="14" lengthAdjust="spacing" textLength="115" x="348.5" y="1114.8076">:FE_Component</text><rect fill="#E2E2F0" height="30.2969" rx="2.5" ry="2.5" style="stroke:#181818;stroke-width:0.5;" width="96" x="520" y="50"/><text fill="#000000" font-family="sans-serif" font-size="14" lengthAdjust="spacing" textLength="82" x="527" y="69.9951">:FE_Service</text><rect fill="#E2E2F0" height="30.2969" rx="2.5" ry="2.5" style="stroke:#181818;stroke-width:0.5;" width="96" x="520" y="1094.8125"/><text fill="#000000" font-family="sans-serif" font-size="14" lengthAdjust="spacing" textLength="82" x="527" y="1114.8076">:FE_Service</text><rect fill="#E2E2F0" height="30.2969" rx="2.5" ry="2.5" style="stroke:#181818;stroke-width:0.5;" width="75" x="702.5" y="50"/><text fill="#000000" font-family="sans-serif" font-size="14" lengthAdjust="spacing" textLength="61" x="709.5" y="69.9951">:Routing</text><rect fill="#E2E2F0" height="30.2969" rx="2.5" ry="2.5" style="stroke:#181818;stroke-width:0.5;" width="75" x="702.5" y="1094.8125"/><text fill="#000000" font-family="sans-serif" font-size="14" lengthAdjust="spacing" textLength="61" x="709.5" y="1114.8076">:Routing</text><rect fill="#E2E2F0" height="30.2969" rx="2.5" ry="2.5" style="stroke:#181818;stroke-width:0.5;" width="137" x="838.5" y="50"/><text fill="#000000" font-family="sans-serif" font-size="14" lengthAdjust="spacing" textLength="123" x="845.5" y="69.9951">:RobotController</text><rect fill="#E2E2F0" height="30.2969" rx="2.5" ry="2.5" style="stroke:#181818;stroke-width:0.5;" width="137" x="838.5" y="1094.8125"/><text fill="#000000" font-family="sans-serif" font-size="14" lengthAdjust="spacing" textLength="123" x="845.5" y="1114.8076">:RobotController</text><rect fill="#E2E2F0" height="30.2969" rx="2.5" ry="2.5" style="stroke:#181818;stroke-width:0.5;" width="117" x="1077.5" y="50"/><text fill="#000000" font-family="sans-serif" font-size="14" lengthAdjust="spacing" textLength="103" x="1084.5" y="69.9951">:RobotService</text><rect fill="#E2E2F0" height="30.2969" rx="2.5" ry="2.5" style="stroke:#181818;stroke-width:0.5;" width="117" x="1077.5" y="1094.8125"/><text fill="#000000" font-family="sans-serif" font-size="14" lengthAdjust="spacing" textLength="103" x="1084.5" y="1114.8076">:RobotService</text><rect fill="#E2E2F0" height="30.2969" rx="2.5" ry="2.5" style="stroke:#181818;stroke-width:0.5;" width="102" x="1437" y="50"/><text fill="#000000" font-family="sans-serif" font-size="14" lengthAdjust="spacing" textLength="88" x="1444" y="69.9951">:RobotRepo</text><rect fill="#E2E2F0" height="30.2969" rx="2.5" ry="2.5" style="stroke:#181818;stroke-width:0.5;" width="102" x="1437" y="1094.8125"/><text fill="#000000" font-family="sans-serif" font-size="14" lengthAdjust="spacing" textLength="88" x="1444" y="1114.8076">:RobotRepo</text><rect fill="#E2E2F0" height="30.2969" rx="2.5" ry="2.5" style="stroke:#181818;stroke-width:0.5;" width="138" x="1549" y="50"/><text fill="#000000" font-family="sans-serif" font-size="14" lengthAdjust="spacing" textLength="124" x="1556" y="69.9951">:RobotTypeRepo</text><rect fill="#E2E2F0" height="30.2969" rx="2.5" ry="2.5" style="stroke:#181818;stroke-width:0.5;" width="138" x="1549" y="1094.8125"/><text fill="#000000" font-family="sans-serif" font-size="14" lengthAdjust="spacing" textLength="124" x="1556" y="1114.8076">:RobotTypeRepo</text><rect fill="#E2E2F0" height="30.2969" rx="2.5" ry="2.5" style="stroke:#181818;stroke-width:0.5;" width="94" x="1697" y="50"/><text fill="#000000" font-family="sans-serif" font-size="14" lengthAdjust="spacing" textLength="80" x="1704" y="69.9951">:RobotMap</text><rect fill="#E2E2F0" height="30.2969" rx="2.5" ry="2.5" style="stroke:#181818;stroke-width:0.5;" width="94" x="1697" y="1094.8125"/><text fill="#000000" font-family="sans-serif" font-size="14" lengthAdjust="spacing" textLength="80" x="1704" y="1114.8076">:RobotMap</text><rect fill="#E2E2F0" height="30.2969" rx="2.5" ry="2.5" style="stroke:#181818;stroke-width:0.5;" width="121" x="1801" y="50"/><text fill="#000000" font-family="sans-serif" font-size="14" lengthAdjust="spacing" textLength="107" x="1808" y="69.9951">:RobotSchema</text><rect fill="#E2E2F0" height="30.2969" rx="2.5" ry="2.5" style="stroke:#181818;stroke-width:0.5;" width="121" x="1801" y="1094.8125"/><text fill="#000000" font-family="sans-serif" font-size="14" lengthAdjust="spacing" textLength="107" x="1808" y="1114.8076">:RobotSchema</text><rect fill="#E2E2F0" height="30.2969" rx="2.5" ry="2.5" style="stroke:#181818;stroke-width:0.5;" width="64" x="1932" y="50"/><text fill="#000000" font-family="sans-serif" font-size="14" lengthAdjust="spacing" textLength="50" x="1939" y="69.9951">:Robot</text><rect fill="#E2E2F0" height="30.2969" rx="2.5" ry="2.5" style="stroke:#181818;stroke-width:0.5;" width="64" x="1932" y="1094.8125"/><text fill="#000000" font-family="sans-serif" font-size="14" lengthAdjust="spacing" textLength="50" x="1939" y="1114.8076">:Robot</text><rect fill="#FFFFFF" height="994.5156" style="stroke:#181818;stroke-width:1.0;" width="10" x="41" y="91.2969"/><rect fill="#FFFFFF" height="973.3828" style="stroke:#181818;stroke-width:1.0;" width="10" x="253" y="112.4297"/><rect fill="#FFFFFF" height="915.1172" style="stroke:#181818;stroke-width:1.0;" width="10" x="401" y="170.6953"/><rect fill="#FFFFFF" height="145.6641" style="stroke:#181818;stroke-width:1.0;" width="10" x="563" y="199.8281"/><rect fill="#FFFFFF" height="711.1875" style="stroke:#181818;stroke-width:1.0;" width="10" x="563" y="374.625"/><rect fill="#FFFFFF" height="116.5313" style="stroke:#181818;stroke-width:1.0;" width="10" x="735" y="228.9609"/><rect fill="#FFFFFF" height="682.0547" style="stroke:#181818;stroke-width:1.0;" width="10" x="735" y="403.7578"/><rect fill="#FFFFFF" height="87.3984" style="stroke:#181818;stroke-width:1.0;" width="10" x="902" y="258.0938"/><rect fill="#FFFFFF" height="652.9219" style="stroke:#181818;stroke-width:1.0;" width="10" x="902" y="432.8906"/><rect fill="#FFFFFF" height="58.2656" style="stroke:#181818;stroke-width:1.0;" width="10" x="1131" y="287.2266"/><rect fill="#FFFFFF" height="624.7891" style="stroke:#181818;stroke-width:1.0;" width="10" x="1131" y="462.0234"/><rect fill="#FFFFFF" height="594.6563" style="stroke:#181818;stroke-width:1.0;" width="10" x="1483" y="491.1563"/><rect fill="#FFFFFF" height="29.1328" style="stroke:#181818;stroke-width:1.0;" width="10" x="1613" y="316.3594"/><rect fill="#FFFFFF" height="448.9922" style="stroke:#181818;stroke-width:1.0;" width="10" x="1739" y="636.8203"/><rect fill="#FFFFFF" height="536.3906" style="stroke:#181818;stroke-width:1.0;" width="10" x="1856.5" y="549.4219"/><rect fill="#FFFFFF" height="566.5234" style="stroke:#181818;stroke-width:1.0;" width="10" x="1959" y="520.2891"/><polygon fill="#181818" points="241,108.4297,251,112.4297,241,116.4297,245,112.4297" style="stroke:#181818;stroke-width:1.0;"/><line style="stroke:#181818;stroke-width:1.0;" x1="51" x2="247" y1="112.4297" y2="112.4297"/><text fill="#000000" font-family="sans-serif" font-size="13" font-weight="bold" lengthAdjust="spacing" textLength="9" x="58" y="107.3638">1</text><text fill="#000000" font-family="sans-serif" font-size="13" lengthAdjust="spacing" textLength="170" x="71" y="107.3638">wants to introduce a robot</text><polygon fill="#181818" points="62,137.5625,52,141.5625,62,145.5625,58,141.5625" style="stroke:#181818;stroke-width:1.0;"/><line style="stroke:#181818;stroke-width:1.0;stroke-dasharray:2.0,2.0;" x1="56" x2="252" y1="141.5625" y2="141.5625"/><text fill="#000000" font-family="sans-serif" font-size="13" font-weight="bold" lengthAdjust="spacing" textLength="9" x="68" y="136.4966">2</text><text fill="#000000" font-family="sans-serif" font-size="13" lengthAdjust="spacing" textLength="162" x="81" y="136.4966">request necessary data()</text><polygon fill="#181818" points="241,166.6953,251,170.6953,241,174.6953,245,170.6953" style="stroke:#181818;stroke-width:1.0;"/><line style="stroke:#181818;stroke-width:1.0;" x1="51" x2="247" y1="170.6953" y2="170.6953"/><text fill="#000000" font-family="sans-serif" font-size="13" font-weight="bold" lengthAdjust="spacing" textLength="8" x="58" y="165.6294">3</text><text fill="#000000" font-family="sans-serif" font-size="13" lengthAdjust="spacing" textLength="112" x="70" y="165.6294">insert all the data</text><polygon fill="#181818" points="389,195.8281,399,199.8281,389,203.8281,393,199.8281" style="stroke:#181818;stroke-width:1.0;"/><line style="stroke:#181818;stroke-width:1.0;" x1="263" x2="395" y1="199.8281" y2="199.8281"/><text fill="#000000" font-family="sans-serif" font-size="13" font-weight="bold" lengthAdjust="spacing" textLength="9" x="270" y="194.7622">4</text><text fill="#000000" font-family="sans-serif" font-size="13" lengthAdjust="spacing" textLength="101" x="283" y="194.7622">getRobotType()</text><polygon fill="#181818" points="551,224.9609,561,228.9609,551,232.9609,555,228.9609" style="stroke:#181818;stroke-width:1.0;"/><line style="stroke:#181818;stroke-width:1.0;" x1="411" x2="557" y1="228.9609" y2="228.9609"/><text fill="#000000" font-family="sans-serif" font-size="13" font-weight="bold" lengthAdjust="spacing" textLength="9" x="418" y="223.895">5</text><text fill="#000000" font-family="sans-serif" font-size="13" lengthAdjust="spacing" textLength="98" x="431" y="223.895">listRobotType()</text><polygon fill="#181818" points="723,254.0938,733,258.0938,723,262.0938,727,258.0938" style="stroke:#181818;stroke-width:1.0;"/><line style="stroke:#181818;stroke-width:1.0;" x1="573" x2="729" y1="258.0938" y2="258.0938"/><text fill="#000000" font-family="sans-serif" font-size="13" font-weight="bold" lengthAdjust="spacing" textLength="9" x="580" y="253.0278">6</text><text fill="#000000" font-family="sans-serif" font-size="13" lengthAdjust="spacing" textLength="82" x="593" y="253.0278">GET route{}</text><polygon fill="#181818" points="890,283.2266,900,287.2266,890,291.2266,894,287.2266" style="stroke:#181818;stroke-width:1.0;"/><line style="stroke:#181818;stroke-width:1.0;" x1="745" x2="896" y1="287.2266" y2="287.2266"/><text fill="#000000" font-family="sans-serif" font-size="13" font-weight="bold" lengthAdjust="spacing" textLength="9" x="752" y="282.1606">7</text><text fill="#000000" font-family="sans-serif" font-size="13" lengthAdjust="spacing" textLength="120" x="765" y="282.1606">listAllRobotTypes()</text><polygon fill="#181818" points="1119,312.3594,1129,316.3594,1119,320.3594,1123,316.3594" style="stroke:#181818;stroke-width:1.0;"/><line style="stroke:#181818;stroke-width:1.0;" x1="912" x2="1125" y1="316.3594" y2="316.3594"/><text fill="#000000" font-family="sans-serif" font-size="13" font-weight="bold" lengthAdjust="spacing" textLength="9" x="919" y="311.2935">8</text><text fill="#000000" font-family="sans-serif" font-size="13" lengthAdjust="spacing" textLength="120" x="932" y="311.2935">listAllRobotTypes()</text><polygon fill="#181818" points="1606,341.4922,1616,345.4922,1606,349.4922,1610,345.4922" style="stroke:#181818;stroke-width:1.0;"/><line style="stroke:#181818;stroke-width:1.0;" x1="1136" x2="1612" y1="345.4922" y2="345.4922"/><text fill="#000000" font-family="sans-serif" font-size="13" font-weight="bold" lengthAdjust="spacing" textLength="9" x="1143" y="340.4263">9</text><text fill="#000000" font-family="sans-serif" font-size="13" lengthAdjust="spacing" textLength="43" x="1156" y="340.4263">listAll()</text><polygon fill="#181818" points="389,370.625,399,374.625,389,378.625,393,374.625" style="stroke:#181818;stroke-width:1.0;"/><line style="stroke:#181818;stroke-width:1.0;" x1="263" x2="395" y1="374.625" y2="374.625"/><text fill="#000000" font-family="sans-serif" font-size="13" font-weight="bold" lengthAdjust="spacing" textLength="19" x="270" y="369.5591">10</text><text fill="#000000" font-family="sans-serif" font-size="13" lengthAdjust="spacing" textLength="72" x="293" y="369.5591">addRobot()</text><polygon fill="#181818" points="551,399.7578,561,403.7578,551,407.7578,555,403.7578" style="stroke:#181818;stroke-width:1.0;"/><line style="stroke:#181818;stroke-width:1.0;" x1="411" x2="557" y1="403.7578" y2="403.7578"/><text fill="#000000" font-family="sans-serif" font-size="13" font-weight="bold" lengthAdjust="spacing" textLength="18" x="418" y="398.6919">11</text><text fill="#000000" font-family="sans-serif" font-size="13" lengthAdjust="spacing" textLength="106" x="440" y="398.6919">addRobot(robot)</text><polygon fill="#181818" points="723,428.8906,733,432.8906,723,436.8906,727,432.8906" style="stroke:#181818;stroke-width:1.0;"/><line style="stroke:#181818;stroke-width:1.0;" x1="573" x2="729" y1="432.8906" y2="432.8906"/><text fill="#000000" font-family="sans-serif" font-size="13" font-weight="bold" lengthAdjust="spacing" textLength="18" x="580" y="427.8247">12</text><text fill="#000000" font-family="sans-serif" font-size="13" lengthAdjust="spacing" textLength="116" x="602" y="427.8247">POST route{json}</text><polygon fill="#181818" points="890,458.0234,900,462.0234,890,466.0234,894,462.0234" style="stroke:#181818;stroke-width:1.0;"/><line style="stroke:#181818;stroke-width:1.0;" x1="745" x2="896" y1="462.0234" y2="462.0234"/><text fill="#000000" font-family="sans-serif" font-size="13" font-weight="bold" lengthAdjust="spacing" textLength="17" x="752" y="456.9575">13</text><text fill="#000000" font-family="sans-serif" font-size="13" lengthAdjust="spacing" textLength="98" x="773" y="456.9575">addRobot(json)</text><polygon fill="#181818" points="1119,487.1563,1129,491.1563,1119,495.1563,1123,491.1563" style="stroke:#181818;stroke-width:1.0;"/><line style="stroke:#181818;stroke-width:1.0;" x1="912" x2="1125" y1="491.1563" y2="491.1563"/><text fill="#000000" font-family="sans-serif" font-size="13" font-weight="bold" lengthAdjust="spacing" textLength="18" x="919" y="486.0903">14</text><text fill="#000000" font-family="sans-serif" font-size="13" lengthAdjust="spacing" textLength="173" x="941" y="486.0903">addRobot(IRobotTypeDTO)</text><polygon fill="#181818" points="1606,516.2891,1616,520.2891,1606,524.2891,1610,520.2891" style="stroke:#181818;stroke-width:1.0;"/><line style="stroke:#181818;stroke-width:1.0;" x1="1141" x2="1612" y1="520.2891" y2="520.2891"/><text fill="#000000" font-family="sans-serif" font-size="13" font-weight="bold" lengthAdjust="spacing" textLength="18" x="1148" y="515.2231">15</text><text fill="#000000" font-family="sans-serif" font-size="13" lengthAdjust="spacing" textLength="178" x="1170" y="515.2231">findByDomainId(robot.type)</text><polygon fill="#181818" points="1947,545.4219,1957,549.4219,1947,553.4219,1951,549.4219" style="stroke:#181818;stroke-width:1.0;"/><line style="stroke:#181818;stroke-width:1.0;" x1="1141" x2="1953" y1="549.4219" y2="549.4219"/><text fill="#000000" font-family="sans-serif" font-size="13" font-weight="bold" lengthAdjust="spacing" textLength="18" x="1148" y="544.356">16</text><text fill="#000000" font-family="sans-serif" font-size="13" lengthAdjust="spacing" textLength="51" x="1170" y="544.356">create()</text><polygon fill="#181818" points="1471,574.5547,1481,578.5547,1471,582.5547,1475,578.5547" style="stroke:#181818;stroke-width:1.0;"/><line style="stroke:#181818;stroke-width:1.0;" x1="1141" x2="1477" y1="578.5547" y2="578.5547"/><text fill="#000000" font-family="sans-serif" font-size="13" font-weight="bold" lengthAdjust="spacing" textLength="18" x="1148" y="573.4888">17</text><text fill="#000000" font-family="sans-serif" font-size="13" lengthAdjust="spacing" textLength="75" x="1170" y="573.4888">save(robot)</text><polygon fill="#181818" points="1844.5,603.6875,1854.5,607.6875,1844.5,611.6875,1848.5,607.6875" style="stroke:#181818;stroke-width:1.0;"/><line style="stroke:#181818;stroke-width:1.0;" x1="1493" x2="1850.5" y1="607.6875" y2="607.6875"/><text fill="#000000" font-family="sans-serif" font-size="13" font-weight="bold" lengthAdjust="spacing" textLength="18" x="1500" y="602.6216">18</text><text fill="#000000" font-family="sans-serif" font-size="13" lengthAdjust="spacing" textLength="122" x="1522" y="602.6216">findOne(nickname)</text><polygon fill="#181818" points="1844.5,632.8203,1854.5,636.8203,1844.5,640.8203,1848.5,636.8203" style="stroke:#181818;stroke-width:1.0;"/><line style="stroke:#181818;stroke-width:1.0;" x1="1493" x2="1850.5" y1="636.8203" y2="636.8203"/><text fill="#000000" font-family="sans-serif" font-size="13" font-weight="bold" lengthAdjust="spacing" textLength="18" x="1500" y="631.7544">19</text><text fill="#000000" font-family="sans-serif" font-size="13" lengthAdjust="spacing" textLength="145" x="1522" y="631.7544">findOne(serialNumber)</text><path d="M10,651.8203 L76,651.8203 L76,658.9531 L66,668.9531 L10,668.9531 L10,651.8203 " fill="#EEEEEE" style="stroke:#000000;stroke-width:1.5;"/><rect fill="none" height="426.9922" style="stroke:#000000;stroke-width:1.5;" width="1922" x="10" y="651.8203"/><text fill="#000000" font-family="sans-serif" font-size="13" font-weight="bold" lengthAdjust="spacing" textLength="21" x="25" y="664.8872">alt</text><text fill="#000000" font-family="sans-serif" font-size="11" font-weight="bold" lengthAdjust="spacing" textLength="266" x="91" y="664.0308">[nickname and serialNumber are unique]</text><polygon fill="#181818" points="1727,686.0859,1737,690.0859,1727,694.0859,1731,690.0859" style="stroke:#181818;stroke-width:1.0;"/><line style="stroke:#181818;stroke-width:1.0;" x1="1493" x2="1733" y1="690.0859" y2="690.0859"/><text fill="#000000" font-family="sans-serif" font-size="13" font-weight="bold" lengthAdjust="spacing" textLength="19" x="1500" y="685.02">20</text><text fill="#000000" font-family="sans-serif" font-size="13" lengthAdjust="spacing" textLength="131" x="1523" y="685.02">toPersistance(robot)</text><polygon fill="#181818" points="1844.5,715.2188,1854.5,719.2188,1844.5,723.2188,1848.5,719.2188" style="stroke:#181818;stroke-width:1.0;"/><line style="stroke:#181818;stroke-width:1.0;" x1="1493" x2="1850.5" y1="719.2188" y2="719.2188"/><text fill="#000000" font-family="sans-serif" font-size="13" font-weight="bold" lengthAdjust="spacing" textLength="18" x="1500" y="714.1528">21</text><text fill="#000000" font-family="sans-serif" font-size="13" lengthAdjust="spacing" textLength="85" x="1522" y="714.1528">create(robot)</text><polygon fill="#181818" points="1152,744.3516,1142,748.3516,1152,752.3516,1148,748.3516" style="stroke:#181818;stroke-width:1.0;"/><line style="stroke:#181818;stroke-width:1.0;stroke-dasharray:2.0,2.0;" x1="1146" x2="1482" y1="748.3516" y2="748.3516"/><text fill="#000000" font-family="sans-serif" font-size="13" font-weight="bold" lengthAdjust="spacing" textLength="18" x="1158" y="743.2856">22</text><text fill="#000000" font-family="sans-serif" font-size="13" lengthAdjust="spacing" textLength="34" x="1180" y="743.2856">robot</text><polygon fill="#181818" points="756,773.4844,746,777.4844,756,781.4844,752,777.4844" style="stroke:#181818;stroke-width:1.0;"/><line style="stroke:#181818;stroke-width:1.0;stroke-dasharray:2.0,2.0;" x1="750" x2="901" y1="777.4844" y2="777.4844"/><text fill="#000000" font-family="sans-serif" font-size="13" font-weight="bold" lengthAdjust="spacing" textLength="17" x="762" y="772.4185">23</text><text fill="#000000" font-family="sans-serif" font-size="13" lengthAdjust="spacing" textLength="66" x="783" y="772.4185">HTTP: 201</text><polygon fill="#181818" points="584,802.6172,574,806.6172,584,810.6172,580,806.6172" style="stroke:#181818;stroke-width:1.0;"/><line style="stroke:#181818;stroke-width:1.0;stroke-dasharray:2.0,2.0;" x1="578" x2="734" y1="806.6172" y2="806.6172"/><text fill="#000000" font-family="sans-serif" font-size="13" font-weight="bold" lengthAdjust="spacing" textLength="18" x="590" y="801.5513">24</text><text fill="#000000" font-family="sans-serif" font-size="13" lengthAdjust="spacing" textLength="66" x="612" y="801.5513">HTTP: 201</text><polygon fill="#181818" points="422,831.75,412,835.75,422,839.75,418,835.75" style="stroke:#181818;stroke-width:1.0;"/><line style="stroke:#181818;stroke-width:1.0;stroke-dasharray:2.0,2.0;" x1="416" x2="562" y1="835.75" y2="835.75"/><text fill="#000000" font-family="sans-serif" font-size="13" font-weight="bold" lengthAdjust="spacing" textLength="18" x="428" y="830.6841">25</text><text fill="#000000" font-family="sans-serif" font-size="13" lengthAdjust="spacing" textLength="66" x="450" y="830.6841">HTTP: 201</text><polygon fill="#181818" points="274,860.8828,264,864.8828,274,868.8828,270,864.8828" style="stroke:#181818;stroke-width:1.0;"/><line style="stroke:#181818;stroke-width:1.0;stroke-dasharray:2.0,2.0;" x1="268" x2="400" y1="864.8828" y2="864.8828"/><text fill="#000000" font-family="sans-serif" font-size="13" font-weight="bold" lengthAdjust="spacing" textLength="18" x="280" y="859.8169">26</text><text fill="#000000" font-family="sans-serif" font-size="13" lengthAdjust="spacing" textLength="66" x="302" y="859.8169">HTTP: 201</text><polygon fill="#181818" points="62,890.0156,52,894.0156,62,898.0156,58,894.0156" style="stroke:#181818;stroke-width:1.0;"/><line style="stroke:#181818;stroke-width:1.0;stroke-dasharray:2.0,2.0;" x1="56" x2="252" y1="894.0156" y2="894.0156"/><text fill="#000000" font-family="sans-serif" font-size="13" font-weight="bold" lengthAdjust="spacing" textLength="18" x="68" y="888.9497">27</text><text fill="#000000" font-family="sans-serif" font-size="13" lengthAdjust="spacing" textLength="152" x="90" y="888.9497">show success message</text><line style="stroke:#000000;stroke-width:1.0;stroke-dasharray:2.0,2.0;" x1="10" x2="1932" y1="903.0156" y2="903.0156"/><polygon fill="#181818" points="1152,921.1484,1142,925.1484,1152,929.1484,1148,925.1484" style="stroke:#181818;stroke-width:1.0;"/><line style="stroke:#181818;stroke-width:1.0;stroke-dasharray:2.0,2.0;" x1="1146" x2="1482" y1="925.1484" y2="925.1484"/><text fill="#000000" font-family="sans-serif" font-size="13" font-weight="bold" lengthAdjust="spacing" textLength="18" x="1158" y="920.0825">28</text><text fill="#000000" font-family="sans-serif" font-size="13" lengthAdjust="spacing" textLength="296" x="1180" y="920.0825">Error(nickname or serialNumber already exist)</text><polygon fill="#181818" points="756,950.2813,746,954.2813,756,958.2813,752,954.2813" style="stroke:#181818;stroke-width:1.0;"/><line style="stroke:#181818;stroke-width:1.0;stroke-dasharray:2.0,2.0;" x1="750" x2="901" y1="954.2813" y2="954.2813"/><text fill="#000000" font-family="sans-serif" font-size="13" font-weight="bold" lengthAdjust="spacing" textLength="18" x="762" y="949.2153">29</text><text fill="#000000" font-family="sans-serif" font-size="13" lengthAdjust="spacing" textLength="66" x="784" y="949.2153">HTTP: 400</text><polygon fill="#181818" points="584,979.4141,574,983.4141,584,987.4141,580,983.4141" style="stroke:#181818;stroke-width:1.0;"/><line style="stroke:#181818;stroke-width:1.0;stroke-dasharray:2.0,2.0;" x1="578" x2="734" y1="983.4141" y2="983.4141"/><text fill="#000000" font-family="sans-serif" font-size="13" font-weight="bold" lengthAdjust="spacing" textLength="18" x="590" y="978.3481">30</text><text fill="#000000" font-family="sans-serif" font-size="13" lengthAdjust="spacing" textLength="66" x="612" y="978.3481">HTTP: 400</text><polygon fill="#181818" points="422,1008.5469,412,1012.5469,422,1016.5469,418,1012.5469" style="stroke:#181818;stroke-width:1.0;"/><line style="stroke:#181818;stroke-width:1.0;stroke-dasharray:2.0,2.0;" x1="416" x2="562" y1="1012.5469" y2="1012.5469"/><text fill="#000000" font-family="sans-serif" font-size="13" font-weight="bold" lengthAdjust="spacing" textLength="17" x="428" y="1007.481">31</text><text fill="#000000" font-family="sans-serif" font-size="13" lengthAdjust="spacing" textLength="66" x="449" y="1007.481">HTTP: 400</text><polygon fill="#181818" points="274,1037.6797,264,1041.6797,274,1045.6797,270,1041.6797" style="stroke:#181818;stroke-width:1.0;"/><line style="stroke:#181818;stroke-width:1.0;stroke-dasharray:2.0,2.0;" x1="268" x2="400" y1="1041.6797" y2="1041.6797"/><text fill="#000000" font-family="sans-serif" font-size="13" font-weight="bold" lengthAdjust="spacing" textLength="17" x="280" y="1036.6138">32</text><text fill="#000000" font-family="sans-serif" font-size="13" lengthAdjust="spacing" textLength="66" x="301" y="1036.6138">HTTP: 400</text><polygon fill="#181818" points="62,1066.8125,52,1070.8125,62,1074.8125,58,1070.8125" style="stroke:#181818;stroke-width:1.0;"/><line style="stroke:#181818;stroke-width:1.0;stroke-dasharray:2.0,2.0;" x1="56" x2="252" y1="1070.8125" y2="1070.8125"/><text fill="#000000" font-family="sans-serif" font-size="13" font-weight="bold" lengthAdjust="spacing" textLength="16" x="68" y="1065.7466">33</text><text fill="#000000" font-family="sans-serif" font-size="13" lengthAdjust="spacing" textLength="141" x="88" y="1065.7466">show failure message</text><!--SRC=[ZLLBRnen4BxlhnXnQN98HQkUzX0fJKYRGmjAKA-LsHt0hTUcjXU2glxtZksrsLUXI0YFvvlND-E1rLR9kbgXpjviUOcmLigkr6l62giqJExAYii9C0FCdR9inxJb1TynQM6IV-Duy5fpD3tLu-pxlQfsIgAq7bAGDCIyeDxp0ZtYSMRqlkXXdbLjkTnuWAOp3lGhPU-Lj5e9WJg4ibgCmTh1HaCHvXbtAWIZmnXWUTnX1xGSGtrXkm1mfz5SYYrMhC44OGpM03BN4Bvd5cCZ_0_St3hgSpYGYG6hW3iYoheW7D553aw6haVqXHioyjOvfV-hHcD1Oe76C7s4abbsTTtn3ZbvDQWjC270Rj63JdvzOuFdMo-GmGPj8ikvYzYcnHv5w20INd0pRX1Qtk38miivV9ejm_7tdrOYhkt-rcT2Kd1y9qJoRThEGow4yvMIS04VkfrISLAo85o9_JfRDw6GreNFjYKF37om7g-iB7rg_yDfmlevkCpfOluIIVrXbBn0RFBkiESvJT2dHEl3SjxZjK_hcilou_51LOpBfpBKyDQIQTlEdgni3eL6kkqqBBwijlCS3DjZPCNT10S16YBF9Lv9NloKhC9p67eMd8clVeDsuhfNpmIzhCO9C5b26mrC8zIIqmFCW3wd66IQqrDUe3OqMamMATSkBkRIb3t09Fx37d2Aq9VOSfgHpylb8eVtqtV1BhGu3L5V7qUccSU-EanWN4bTNM_ncAqwWAaBjtQWShjdWnaAWsFvpxHMEhK3w7-fIwGW0ieZu2lHTNskpW_JwTawe_uVTKRrM9rHDrRdcd5HKxTJdRBCEYyzJcddparGRnsSMn-3_J9SGNvHjpSE_I6qH9_oNm00]--></g></svg>