<?xml version="1.0" encoding="UTF-8" standalone="no"?><svg xmlns="http://www.w3.org/2000/svg" xmlns:xlink="http://www.w3.org/1999/xlink" contentScriptType="application/ecmascript" contentStyleType="text/css" height="892px" preserveAspectRatio="none" style="width:1501px;height:892px;" version="1.1" viewBox="0 0 1501 892" width="1501px" zoomAndPan="magnify"><defs><filter height="300%" id="f1te6lek981yg0" width="300%" x="-1" y="-1"><feGaussianBlur result="blurOut" stdDeviation="2.0"/><feColorMatrix in="blurOut" result="blurOut2" type="matrix" values="0 0 0 0 0 0 0 0 0 0 0 0 0 0 0 0 0 0 .4 0"/><feOffset dx="4.0" dy="4.0" in="blurOut2" result="blurOut3"/><feBlend in="SourceGraphic" in2="blurOut3" mode="normal"/></filter></defs><g><rect fill="#FFFFFF" filter="url(#f1te6lek981yg0)" height="670.0547" style="stroke: #A80036; stroke-width: 1.0;" width="10" x="303.5" y="117.4297"/><rect fill="#FFFFFF" filter="url(#f1te6lek981yg0)" height="262.1953" style="stroke: #A80036; stroke-width: 1.0;" width="10" x="498.5" y="146.5625"/><rect fill="#FFFFFF" filter="url(#f1te6lek981yg0)" height="262.1953" style="stroke: #A80036; stroke-width: 1.0;" width="10" x="498.5" y="496.1563"/><rect fill="#FFFFFF" filter="url(#f1te6lek981yg0)" height="203.9297" style="stroke: #A80036; stroke-width: 1.0;" width="10" x="731.5" y="175.6953"/><rect fill="#FFFFFF" filter="url(#f1te6lek981yg0)" height="203.9297" style="stroke: #A80036; stroke-width: 1.0;" width="10" x="731.5" y="525.2891"/><rect fill="#FFFFFF" filter="url(#f1te6lek981yg0)" height="145.6641" style="stroke: #A80036; stroke-width: 1.0;" width="10" x="1022.5" y="204.8281"/><rect fill="#FFFFFF" filter="url(#f1te6lek981yg0)" height="145.6641" style="stroke: #A80036; stroke-width: 1.0;" width="10" x="1022.5" y="554.4219"/><rect fill="#FFFFFF" filter="url(#f1te6lek981yg0)" height="87.3984" style="stroke: #A80036; stroke-width: 1.0;" width="10" x="1237.5" y="233.9609"/><rect fill="#FFFFFF" filter="url(#f1te6lek981yg0)" height="87.3984" style="stroke: #A80036; stroke-width: 1.0;" width="10" x="1237.5" y="583.5547"/><rect fill="#FFFFFF" filter="url(#f1te6lek981yg0)" height="29.1328" style="stroke: #A80036; stroke-width: 1.0;" width="10" x="1452.5" y="612.6875"/><line style="stroke: #A80036; stroke-width: 1.0; stroke-dasharray: 5.0,5.0;" x1="59" x2="59" y1="86.2969" y2="805.4844"/><line style="stroke: #A80036; stroke-width: 1.0; stroke-dasharray: 5.0,5.0;" x1="308.5" x2="308.5" y1="86.2969" y2="805.4844"/><line style="stroke: #A80036; stroke-width: 1.0; stroke-dasharray: 5.0,5.0;" x1="503.5" x2="503.5" y1="86.2969" y2="805.4844"/><line style="stroke: #A80036; stroke-width: 1.0; stroke-dasharray: 5.0,5.0;" x1="736" x2="736" y1="86.2969" y2="805.4844"/><line style="stroke: #A80036; stroke-width: 1.0; stroke-dasharray: 5.0,5.0;" x1="1027.5" x2="1027.5" y1="86.2969" y2="805.4844"/><line style="stroke: #A80036; stroke-width: 1.0; stroke-dasharray: 5.0,5.0;" x1="1242" x2="1242" y1="86.2969" y2="805.4844"/><line style="stroke: #A80036; stroke-width: 1.0; stroke-dasharray: 5.0,5.0;" x1="1457" x2="1457" y1="86.2969" y2="805.4844"/><text fill="#000000" font-family="sans-serif" font-size="14" lengthAdjust="spacingAndGlyphs" textLength="97" x="8" y="82.9951">Task Manager</text><ellipse cx="59.5" cy="13" fill="#FEFECE" filter="url(#f1te6lek981yg0)" rx="8" ry="8" style="stroke: #A80036; stroke-width: 2.0;"/><path d="M59.5,21 L59.5,48 M46.5,29 L72.5,29 M59.5,48 L46.5,63 M59.5,48 L72.5,63 " fill="none" filter="url(#f1te6lek981yg0)" style="stroke: #A80036; stroke-width: 2.0;"/><text fill="#000000" font-family="sans-serif" font-size="14" lengthAdjust="spacingAndGlyphs" textLength="97" x="8" y="817.4795">Task Manager</text><ellipse cx="59.5" cy="830.7813" fill="#FEFECE" filter="url(#f1te6lek981yg0)" rx="8" ry="8" style="stroke: #A80036; stroke-width: 2.0;"/><path d="M59.5,838.7813 L59.5,865.7813 M46.5,846.7813 L72.5,846.7813 M59.5,865.7813 L46.5,880.7813 M59.5,865.7813 L72.5,880.7813 " fill="none" filter="url(#f1te6lek981yg0)" style="stroke: #A80036; stroke-width: 2.0;"/><rect fill="#FEFECE" filter="url(#f1te6lek981yg0)" height="30.2969" style="stroke: #A80036; stroke-width: 1.5;" width="150" x="231.5" y="51"/><text fill="#000000" font-family="sans-serif" font-size="14" lengthAdjust="spacingAndGlyphs" textLength="136" x="238.5" y="70.9951">ApproveTasksHTML</text><rect fill="#FEFECE" filter="url(#f1te6lek981yg0)" height="30.2969" style="stroke: #A80036; stroke-width: 1.5;" width="150" x="231.5" y="804.4844"/><text fill="#000000" font-family="sans-serif" font-size="14" lengthAdjust="spacingAndGlyphs" textLength="136" x="238.5" y="824.4795">ApproveTasksHTML</text><rect fill="#FEFECE" filter="url(#f1te6lek981yg0)" height="30.2969" style="stroke: #A80036; stroke-width: 1.5;" width="194" x="404.5" y="51"/><text fill="#000000" font-family="sans-serif" font-size="14" lengthAdjust="spacingAndGlyphs" textLength="180" x="411.5" y="70.9951">ApproveTasksComponent</text><rect fill="#FEFECE" filter="url(#f1te6lek981yg0)" height="30.2969" style="stroke: #A80036; stroke-width: 1.5;" width="194" x="404.5" y="804.4844"/><text fill="#000000" font-family="sans-serif" font-size="14" lengthAdjust="spacingAndGlyphs" textLength="180" x="411.5" y="824.4795">ApproveTasksComponent</text><rect fill="#FEFECE" filter="url(#f1te6lek981yg0)" height="46.5938" style="stroke: #A80036; stroke-width: 1.5;" width="97" x="686" y="34.7031"/><text fill="#000000" font-family="sans-serif" font-size="14" font-style="italic" lengthAdjust="spacingAndGlyphs" textLength="81" x="694" y="54.6982">«FrontEnd»</text><text fill="#000000" font-family="sans-serif" font-size="14" lengthAdjust="spacingAndGlyphs" textLength="83" x="693" y="70.9951">TaskService</text><rect fill="#FEFECE" filter="url(#f1te6lek981yg0)" height="46.5938" style="stroke: #A80036; stroke-width: 1.5;" width="97" x="686" y="804.4844"/><text fill="#000000" font-family="sans-serif" font-size="14" font-style="italic" lengthAdjust="spacingAndGlyphs" textLength="81" x="694" y="824.4795">«FrontEnd»</text><text fill="#000000" font-family="sans-serif" font-size="14" lengthAdjust="spacingAndGlyphs" textLength="83" x="693" y="840.7764">TaskService</text><rect fill="#FEFECE" filter="url(#f1te6lek981yg0)" height="30.2969" style="stroke: #A80036; stroke-width: 1.5;" width="122" x="964.5" y="51"/><text fill="#000000" font-family="sans-serif" font-size="14" lengthAdjust="spacingAndGlyphs" textLength="108" x="971.5" y="70.9951">TasksController</text><rect fill="#FEFECE" filter="url(#f1te6lek981yg0)" height="30.2969" style="stroke: #A80036; stroke-width: 1.5;" width="122" x="964.5" y="804.4844"/><text fill="#000000" font-family="sans-serif" font-size="14" lengthAdjust="spacingAndGlyphs" textLength="108" x="971.5" y="824.4795">TasksController</text><rect fill="#FEFECE" filter="url(#f1te6lek981yg0)" height="46.5938" style="stroke: #A80036; stroke-width: 1.5;" width="97" x="1192" y="34.7031"/><text fill="#000000" font-family="sans-serif" font-size="14" font-style="italic" lengthAdjust="spacingAndGlyphs" textLength="79" x="1201" y="54.6982">«BackEnd»</text><text fill="#000000" font-family="sans-serif" font-size="14" lengthAdjust="spacingAndGlyphs" textLength="83" x="1199" y="70.9951">TaskService</text><rect fill="#FEFECE" filter="url(#f1te6lek981yg0)" height="46.5938" style="stroke: #A80036; stroke-width: 1.5;" width="97" x="1192" y="804.4844"/><text fill="#000000" font-family="sans-serif" font-size="14" font-style="italic" lengthAdjust="spacingAndGlyphs" textLength="79" x="1201" y="824.4795">«BackEnd»</text><text fill="#000000" font-family="sans-serif" font-size="14" lengthAdjust="spacingAndGlyphs" textLength="83" x="1199" y="840.7764">TaskService</text><text fill="#000000" font-family="sans-serif" font-size="14" lengthAdjust="spacingAndGlyphs" textLength="69" x="1420" y="82.9951">MongoDB</text><path d="M1439.5,34 C1439.5,24 1457.5,24 1457.5,24 C1457.5,24 1475.5,24 1475.5,34 L1475.5,60 C1475.5,70 1457.5,70 1457.5,70 C1457.5,70 1439.5,70 1439.5,60 L1439.5,34 " fill="#FEFECE" filter="url(#f1te6lek981yg0)" style="stroke: #000000; stroke-width: 1.5;"/><path d="M1439.5,34 C1439.5,44 1457.5,44 1457.5,44 C1457.5,44 1475.5,44 1475.5,34 " fill="none" style="stroke: #000000; stroke-width: 1.5;"/><text fill="#000000" font-family="sans-serif" font-size="14" lengthAdjust="spacingAndGlyphs" textLength="69" x="1420" y="817.4795">MongoDB</text><path d="M1439.5,830.7813 C1439.5,820.7813 1457.5,820.7813 1457.5,820.7813 C1457.5,820.7813 1475.5,820.7813 1475.5,830.7813 L1475.5,856.7813 C1475.5,866.7813 1457.5,866.7813 1457.5,866.7813 C1457.5,866.7813 1439.5,866.7813 1439.5,856.7813 L1439.5,830.7813 " fill="#FEFECE" filter="url(#f1te6lek981yg0)" style="stroke: #000000; stroke-width: 1.5;"/><path d="M1439.5,830.7813 C1439.5,840.7813 1457.5,840.7813 1457.5,840.7813 C1457.5,840.7813 1475.5,840.7813 1475.5,830.7813 " fill="none" style="stroke: #000000; stroke-width: 1.5;"/><rect fill="#FFFFFF" filter="url(#f1te6lek981yg0)" height="670.0547" style="stroke: #A80036; stroke-width: 1.0;" width="10" x="303.5" y="117.4297"/><rect fill="#FFFFFF" filter="url(#f1te6lek981yg0)" height="262.1953" style="stroke: #A80036; stroke-width: 1.0;" width="10" x="498.5" y="146.5625"/><rect fill="#FFFFFF" filter="url(#f1te6lek981yg0)" height="262.1953" style="stroke: #A80036; stroke-width: 1.0;" width="10" x="498.5" y="496.1563"/><rect fill="#FFFFFF" filter="url(#f1te6lek981yg0)" height="203.9297" style="stroke: #A80036; stroke-width: 1.0;" width="10" x="731.5" y="175.6953"/><rect fill="#FFFFFF" filter="url(#f1te6lek981yg0)" height="203.9297" style="stroke: #A80036; stroke-width: 1.0;" width="10" x="731.5" y="525.2891"/><rect fill="#FFFFFF" filter="url(#f1te6lek981yg0)" height="145.6641" style="stroke: #A80036; stroke-width: 1.0;" width="10" x="1022.5" y="204.8281"/><rect fill="#FFFFFF" filter="url(#f1te6lek981yg0)" height="145.6641" style="stroke: #A80036; stroke-width: 1.0;" width="10" x="1022.5" y="554.4219"/><rect fill="#FFFFFF" filter="url(#f1te6lek981yg0)" height="87.3984" style="stroke: #A80036; stroke-width: 1.0;" width="10" x="1237.5" y="233.9609"/><rect fill="#FFFFFF" filter="url(#f1te6lek981yg0)" height="87.3984" style="stroke: #A80036; stroke-width: 1.0;" width="10" x="1237.5" y="583.5547"/><rect fill="#FFFFFF" filter="url(#f1te6lek981yg0)" height="29.1328" style="stroke: #A80036; stroke-width: 1.0;" width="10" x="1452.5" y="612.6875"/><polygon fill="#A80036" points="291.5,113.4297,301.5,117.4297,291.5,121.4297,295.5,117.4297" style="stroke: #A80036; stroke-width: 1.0;"/><line style="stroke: #A80036; stroke-width: 1.0;" x1="59.5" x2="297.5" y1="117.4297" y2="117.4297"/><text fill="#000000" font-family="sans-serif" font-size="13" lengthAdjust="spacingAndGlyphs" textLength="164" x="66.5" y="112.3638">Request to Approve tasks</text><polygon fill="#A80036" points="486.5,142.5625,496.5,146.5625,486.5,150.5625,490.5,146.5625" style="stroke: #A80036; stroke-width: 1.0;"/><line style="stroke: #A80036; stroke-width: 1.0;" x1="313.5" x2="492.5" y1="146.5625" y2="146.5625"/><text fill="#000000" font-family="sans-serif" font-size="13" lengthAdjust="spacingAndGlyphs" textLength="166" x="320.5" y="141.4966">Receive the HTTP Request</text><polygon fill="#A80036" points="719.5,171.6953,729.5,175.6953,719.5,179.6953,723.5,175.6953" style="stroke: #A80036; stroke-width: 1.0;"/><line style="stroke: #A80036; stroke-width: 1.0;" x1="508.5" x2="725.5" y1="175.6953" y2="175.6953"/><text fill="#000000" font-family="sans-serif" font-size="13" lengthAdjust="spacingAndGlyphs" textLength="146" x="515.5" y="170.6294">getNonAprovedTasks()</text><polygon fill="#A80036" points="1010.5,200.8281,1020.5,204.8281,1010.5,208.8281,1014.5,204.8281" style="stroke: #A80036; stroke-width: 1.0;"/><line style="stroke: #A80036; stroke-width: 1.0;" x1="741.5" x2="1016.5" y1="204.8281" y2="204.8281"/><text fill="#000000" font-family="sans-serif" font-size="13" lengthAdjust="spacingAndGlyphs" textLength="182" x="748.5" y="199.7622">HTTP GET GetAllNonAproved</text><polygon fill="#A80036" points="1225.5,229.9609,1235.5,233.9609,1225.5,237.9609,1229.5,233.9609" style="stroke: #A80036; stroke-width: 1.0;"/><line style="stroke: #A80036; stroke-width: 1.0;" x1="1032.5" x2="1231.5" y1="233.9609" y2="233.9609"/><text fill="#000000" font-family="sans-serif" font-size="13" lengthAdjust="spacingAndGlyphs" textLength="186" x="1039.5" y="228.895">GetTasksNonAprovedAsync()</text><polygon fill="#A80036" points="1445.5,259.0938,1455.5,263.0938,1445.5,267.0938,1449.5,263.0938" style="stroke: #A80036; stroke-width: 1.0;"/><line style="stroke: #A80036; stroke-width: 1.0;" x1="1247.5" x2="1451.5" y1="263.0938" y2="263.0938"/><text fill="#000000" font-family="sans-serif" font-size="13" lengthAdjust="spacingAndGlyphs" textLength="186" x="1254.5" y="258.0278">GetTasksNonAprovedAsync()</text><polygon fill="#A80036" points="1258.5,288.2266,1248.5,292.2266,1258.5,296.2266,1254.5,292.2266" style="stroke: #A80036; stroke-width: 1.0;"/><line style="stroke: #A80036; stroke-width: 1.0; stroke-dasharray: 2.0,2.0;" x1="1252.5" x2="1456.5" y1="292.2266" y2="292.2266"/><text fill="#000000" font-family="sans-serif" font-size="13" lengthAdjust="spacingAndGlyphs" textLength="170" x="1264.5" y="287.1606">List of non approved Tasks</text><polygon fill="#A80036" points="1043.5,317.3594,1033.5,321.3594,1043.5,325.3594,1039.5,321.3594" style="stroke: #A80036; stroke-width: 1.0;"/><line style="stroke: #A80036; stroke-width: 1.0; stroke-dasharray: 2.0,2.0;" x1="1037.5" x2="1241.5" y1="321.3594" y2="321.3594"/><text fill="#000000" font-family="sans-serif" font-size="13" lengthAdjust="spacingAndGlyphs" textLength="170" x="1049.5" y="316.2935">List of non approved Tasks</text><polygon fill="#A80036" points="752.5,346.4922,742.5,350.4922,752.5,354.4922,748.5,350.4922" style="stroke: #A80036; stroke-width: 1.0;"/><line style="stroke: #A80036; stroke-width: 1.0; stroke-dasharray: 2.0,2.0;" x1="746.5" x2="1026.5" y1="350.4922" y2="350.4922"/><text fill="#000000" font-family="sans-serif" font-size="13" lengthAdjust="spacingAndGlyphs" textLength="257" x="758.5" y="345.4263">HTTP OK with List of non approved Tasks</text><polygon fill="#A80036" points="519.5,375.625,509.5,379.625,519.5,383.625,515.5,379.625" style="stroke: #A80036; stroke-width: 1.0;"/><line style="stroke: #A80036; stroke-width: 1.0;" x1="513.5" x2="735.5" y1="379.625" y2="379.625"/><text fill="#000000" font-family="sans-serif" font-size="13" lengthAdjust="spacingAndGlyphs" textLength="114" x="525.5" y="374.5591">Console.log Tasks</text><polygon fill="#A80036" points="324.5,404.7578,314.5,408.7578,324.5,412.7578,320.5,408.7578" style="stroke: #A80036; stroke-width: 1.0;"/><line style="stroke: #A80036; stroke-width: 1.0;" x1="318.5" x2="502.5" y1="408.7578" y2="408.7578"/><text fill="#000000" font-family="sans-serif" font-size="13" lengthAdjust="spacingAndGlyphs" textLength="36" x="330.5" y="403.6919">Tasks</text><polygon fill="#A80036" points="70.5,433.8906,60.5,437.8906,70.5,441.8906,66.5,437.8906" style="stroke: #A80036; stroke-width: 1.0;"/><line style="stroke: #A80036; stroke-width: 1.0; stroke-dasharray: 2.0,2.0;" x1="64.5" x2="302.5" y1="437.8906" y2="437.8906"/><text fill="#000000" font-family="sans-serif" font-size="13" lengthAdjust="spacingAndGlyphs" textLength="220" x="76.5" y="432.8247">Display List of non approved Tasks</text><polygon fill="#A80036" points="291.5,463.0234,301.5,467.0234,291.5,471.0234,295.5,467.0234" style="stroke: #A80036; stroke-width: 1.0;"/><line style="stroke: #A80036; stroke-width: 1.0; stroke-dasharray: 2.0,2.0;" x1="59.5" x2="297.5" y1="467.0234" y2="467.0234"/><text fill="#000000" font-family="sans-serif" font-size="13" lengthAdjust="spacingAndGlyphs" textLength="138" x="66.5" y="461.9575">Change a task Status</text><polygon fill="#A80036" points="486.5,492.1563,496.5,496.1563,486.5,500.1563,490.5,496.1563" style="stroke: #A80036; stroke-width: 1.0;"/><line style="stroke: #A80036; stroke-width: 1.0;" x1="313.5" x2="492.5" y1="496.1563" y2="496.1563"/><text fill="#000000" font-family="sans-serif" font-size="13" lengthAdjust="spacingAndGlyphs" textLength="128" x="320.5" y="491.0903">Change Task Status</text><polygon fill="#A80036" points="719.5,521.2891,729.5,525.2891,719.5,529.2891,723.5,525.2891" style="stroke: #A80036; stroke-width: 1.0;"/><line style="stroke: #A80036; stroke-width: 1.0;" x1="508.5" x2="725.5" y1="525.2891" y2="525.2891"/><text fill="#000000" font-family="sans-serif" font-size="13" lengthAdjust="spacingAndGlyphs" textLength="204" x="515.5" y="520.2231">HTTP PATCH Approve/Deny task</text><polygon fill="#A80036" points="1010.5,550.4219,1020.5,554.4219,1010.5,558.4219,1014.5,554.4219" style="stroke: #A80036; stroke-width: 1.0;"/><line style="stroke: #A80036; stroke-width: 1.0;" x1="741.5" x2="1016.5" y1="554.4219" y2="554.4219"/><text fill="#000000" font-family="sans-serif" font-size="13" lengthAdjust="spacingAndGlyphs" textLength="121" x="748.5" y="549.356">Approve/Deny task</text><polygon fill="#A80036" points="1225.5,579.5547,1235.5,583.5547,1225.5,587.5547,1229.5,583.5547" style="stroke: #A80036; stroke-width: 1.0;"/><line style="stroke: #A80036; stroke-width: 1.0;" x1="1032.5" x2="1231.5" y1="583.5547" y2="583.5547"/><text fill="#000000" font-family="sans-serif" font-size="13" lengthAdjust="spacingAndGlyphs" textLength="121" x="1039.5" y="578.4888">Approve/Deny task</text><polygon fill="#A80036" points="1440.5,608.6875,1450.5,612.6875,1440.5,616.6875,1444.5,612.6875" style="stroke: #A80036; stroke-width: 1.0;"/><line style="stroke: #A80036; stroke-width: 1.0;" x1="1247.5" x2="1446.5" y1="612.6875" y2="612.6875"/><text fill="#000000" font-family="sans-serif" font-size="13" lengthAdjust="spacingAndGlyphs" textLength="149" x="1254.5" y="607.6216">Change the task status</text><polygon fill="#A80036" points="1258.5,637.8203,1248.5,641.8203,1258.5,645.8203,1254.5,641.8203" style="stroke: #A80036; stroke-width: 1.0;"/><line style="stroke: #A80036; stroke-width: 1.0;" x1="1252.5" x2="1456.5" y1="641.8203" y2="641.8203"/><text fill="#000000" font-family="sans-serif" font-size="13" lengthAdjust="spacingAndGlyphs" textLength="114" x="1264.5" y="636.7544">Success Message</text><polygon fill="#A80036" points="1043.5,666.9531,1033.5,670.9531,1043.5,674.9531,1039.5,670.9531" style="stroke: #A80036; stroke-width: 1.0;"/><line style="stroke: #A80036; stroke-width: 1.0;" x1="1037.5" x2="1241.5" y1="670.9531" y2="670.9531"/><text fill="#000000" font-family="sans-serif" font-size="13" lengthAdjust="spacingAndGlyphs" textLength="114" x="1049.5" y="665.8872">Success Message</text><polygon fill="#A80036" points="752.5,696.0859,742.5,700.0859,752.5,704.0859,748.5,700.0859" style="stroke: #A80036; stroke-width: 1.0;"/><line style="stroke: #A80036; stroke-width: 1.0;" x1="746.5" x2="1026.5" y1="700.0859" y2="700.0859"/><text fill="#000000" font-family="sans-serif" font-size="13" lengthAdjust="spacingAndGlyphs" textLength="114" x="758.5" y="695.02">Success Message</text><polygon fill="#A80036" points="519.5,725.2188,509.5,729.2188,519.5,733.2188,515.5,729.2188" style="stroke: #A80036; stroke-width: 1.0;"/><line style="stroke: #A80036; stroke-width: 1.0;" x1="513.5" x2="735.5" y1="729.2188" y2="729.2188"/><text fill="#000000" font-family="sans-serif" font-size="13" lengthAdjust="spacingAndGlyphs" textLength="114" x="525.5" y="724.1528">Success Message</text><polygon fill="#A80036" points="324.5,754.3516,314.5,758.3516,324.5,762.3516,320.5,758.3516" style="stroke: #A80036; stroke-width: 1.0;"/><line style="stroke: #A80036; stroke-width: 1.0;" x1="318.5" x2="502.5" y1="758.3516" y2="758.3516"/><text fill="#000000" font-family="sans-serif" font-size="13" lengthAdjust="spacingAndGlyphs" textLength="114" x="330.5" y="753.2856">Success Message</text><polygon fill="#A80036" points="70.5,783.4844,60.5,787.4844,70.5,791.4844,66.5,787.4844" style="stroke: #A80036; stroke-width: 1.0;"/><line style="stroke: #A80036; stroke-width: 1.0;" x1="64.5" x2="307.5" y1="787.4844" y2="787.4844"/><text fill="#000000" font-family="sans-serif" font-size="13" lengthAdjust="spacingAndGlyphs" textLength="162" x="76.5" y="782.4185">display Success Message</text><!--MD5=[3fa9506c407e29c1cb8352790d9aa2bb]
@startuml
actor "Task Manager" as user
participant "ApproveTasksHTML" as ui
participant "ApproveTasksComponent" as component
participant "TaskService" as servicefe <<FrontEnd>>
participant "TasksController" as controller
participant "TaskService" as service <<BackEnd>>


database "MongoDB" as db

user -> ui: Request to Approve tasks
activate ui
ui -> component: Receive the HTTP Request
activate component
component -> servicefe: getNonAprovedTasks()
activate servicefe
servicefe -> controller: HTTP GET GetAllNonAproved
activate controller
controller -> service: GetTasksNonAprovedAsync()
activate service
service -> db: GetTasksNonAprovedAsync()
db - -> service: List of non approved Tasks
service - -> controller: List of non approved Tasks
deactivate service
controller - -> servicefe: HTTP OK with List of non approved Tasks
deactivate controller
servicefe -> component: Console.log Tasks
deactivate servicefe
component -> ui: Tasks
deactivate component
ui - -> user: Display List of non approved Tasks
user - -> ui: Change a task Status

ui -> component:Change Task Status
activate component

component -> servicefe: HTTP PATCH Approve/Deny task
activate servicefe

servicefe -> controller: Approve/Deny task
activate controller

controller -> service: Approve/Deny task
activate service

service -> db: Change the task status 
activate db

db -> service: Success Message
deactivate db

service -> controller: Success Message
deactivate service

controller -> servicefe: Success Message
deactivate controller

servicefe -> component: Success Message
deactivate servicefe

component -> ui: Success Message
deactivate component

ui -> user: display Success Message
deactivate ui

@enduml

PlantUML version 1.2020.02(Sun Mar 01 10:22:07 UTC 2020)
(GPL source distribution)
Java Runtime: OpenJDK Runtime Environment
JVM: OpenJDK 64-Bit Server VM
Java Version: 11.0.21+9
Operating System: Linux
Default Encoding: UTF-8
Language: en
Country: null
--></g></svg>