<?xml version="1.0" encoding="UTF-8" standalone="no"?><svg xmlns="http://www.w3.org/2000/svg" xmlns:xlink="http://www.w3.org/1999/xlink" contentScriptType="application/ecmascript" contentStyleType="text/css" height="1457px" preserveAspectRatio="none" style="width:1621px;height:1457px;" version="1.1" viewBox="0 0 1621 1457" width="1621px" zoomAndPan="magnify"><defs><filter height="300%" id="f1heams3io7o7r" width="300%" x="-1" y="-1"><feGaussianBlur result="blurOut" stdDeviation="2.0"/><feColorMatrix in="blurOut" result="blurOut2" type="matrix" values="0 0 0 0 0 0 0 0 0 0 0 0 0 0 0 0 0 0 .4 0"/><feOffset dx="4.0" dy="4.0" in="blurOut2" result="blurOut3"/><feBlend in="SourceGraphic" in2="blurOut3" mode="normal"/></filter></defs><g><rect fill="#FFFFFF" filter="url(#f1heams3io7o7r)" height="1240.7891" style="stroke: #A80036; stroke-width: 1.0;" width="10" x="234" y="117.4297"/><rect fill="#FFFFFF" filter="url(#f1heams3io7o7r)" height="87.3984" style="stroke: #A80036; stroke-width: 1.0;" width="10" x="449" y="185.6953"/><rect fill="#FFFFFF" filter="url(#f1heams3io7o7r)" height="87.3984" style="stroke: #A80036; stroke-width: 1.0;" width="10" x="449" y="891.4219"/><rect fill="#FFFFFF" filter="url(#f1heams3io7o7r)" height="29.1328" style="stroke: #A80036; stroke-width: 1.0;" width="10" x="600.5" y="214.8281"/><rect fill="#FFFFFF" filter="url(#f1heams3io7o7r)" height="29.1328" style="stroke: #A80036; stroke-width: 1.0;" width="10" x="600.5" y="920.5547"/><rect fill="#FFFFFF" filter="url(#f1heams3io7o7r)" height="29.1328" style="stroke: #A80036; stroke-width: 1.0;" width="10" x="729.5" y="554.4219"/><rect fill="#FFFFFF" filter="url(#f1heams3io7o7r)" height="29.1328" style="stroke: #A80036; stroke-width: 1.0;" width="10" x="729.5" y="804.0234"/><rect fill="#FFFFFF" filter="url(#f1heams3io7o7r)" height="29.1328" style="stroke: #A80036; stroke-width: 1.0;" width="10" x="729.5" y="1211.8828"/><rect fill="#FFFFFF" filter="url(#f1heams3io7o7r)" height="29.1328" style="stroke: #A80036; stroke-width: 1.0;" width="10" x="729.5" y="1314.0859"/><rect fill="#FFFFFF" filter="url(#f1heams3io7o7r)" height="53.2656" style="stroke: #A80036; stroke-width: 1.0;" width="10" x="919.5" y="273.0938"/><rect fill="#FFFFFF" filter="url(#f1heams3io7o7r)" height="29.1328" style="stroke: #A80036; stroke-width: 1.0;" width="10" x="919.5" y="978.8203"/><rect fill="#FFFFFF" filter="url(#f1heams3io7o7r)" height="169.7969" style="stroke: #A80036; stroke-width: 1.0;" width="10" x="1118.5" y="326.3594"/><rect fill="#FFFFFF" filter="url(#f1heams3io7o7r)" height="59.1328" style="stroke: #A80036; stroke-width: 1.0;" width="10" x="1118.5" y="686.625"/><rect fill="#FFFFFF" filter="url(#f1heams3io7o7r)" height="145.6641" style="stroke: #A80036; stroke-width: 1.0;" width="10" x="1118.5" y="1007.9531"/><rect fill="#FFFFFF" filter="url(#f1heams3io7o7r)" height="111.5313" style="stroke: #A80036; stroke-width: 1.0;" width="10" x="1339.5" y="355.4922"/><rect fill="#FFFFFF" filter="url(#f1heams3io7o7r)" height="89.1328" style="stroke: #A80036; stroke-width: 1.0;" width="10" x="1339.5" y="627.4922"/><rect fill="#FFFFFF" filter="url(#f1heams3io7o7r)" height="87.3984" style="stroke: #A80036; stroke-width: 1.0;" width="10" x="1339.5" y="1037.0859"/><rect fill="#FFFFFF" filter="url(#f1heams3io7o7r)" height="53.2656" style="stroke: #A80036; stroke-width: 1.0;" width="10" x="1549.5" y="384.625"/><rect fill="#FFFFFF" filter="url(#f1heams3io7o7r)" height="73.9375" style="stroke: #A80036; stroke-width: 1.0;" width="10" x="1549.5" y="583.5547"/><rect fill="#FFFFFF" filter="url(#f1heams3io7o7r)" height="29.1328" style="stroke: #A80036; stroke-width: 1.0;" width="10" x="1549.5" y="1066.2188"/><rect fill="#FFFFFF" filter="url(#f1heams3io7o7r)" height="951.5938" style="stroke: #000000; stroke-width: 2.0;" width="1586" x="23" y="399.625"/><rect fill="#FFFFFF" height="657.4609" style="stroke: none; stroke-width: 1.0;" width="1586" x="23" y="591.5547"/><rect fill="#FFFFFF" height="102.2031" style="stroke: none; stroke-width: 1.0;" width="1586" x="23" y="1249.0156"/><line style="stroke: #A80036; stroke-width: 1.0; stroke-dasharray: 5.0,5.0;" x1="52" x2="52" y1="86.2969" y2="1368.2188"/><line style="stroke: #A80036; stroke-width: 1.0; stroke-dasharray: 5.0,5.0;" x1="238.5" x2="238.5" y1="86.2969" y2="1368.2188"/><line style="stroke: #A80036; stroke-width: 1.0; stroke-dasharray: 5.0,5.0;" x1="454" x2="454" y1="86.2969" y2="1368.2188"/><line style="stroke: #A80036; stroke-width: 1.0; stroke-dasharray: 5.0,5.0;" x1="605" x2="605" y1="86.2969" y2="1368.2188"/><line style="stroke: #A80036; stroke-width: 1.0; stroke-dasharray: 5.0,5.0;" x1="734" x2="734" y1="86.2969" y2="1368.2188"/><line style="stroke: #A80036; stroke-width: 1.0; stroke-dasharray: 5.0,5.0;" x1="924" x2="924" y1="86.2969" y2="1368.2188"/><line style="stroke: #A80036; stroke-width: 1.0; stroke-dasharray: 5.0,5.0;" x1="1123.5" x2="1123.5" y1="86.2969" y2="1368.2188"/><line style="stroke: #A80036; stroke-width: 1.0; stroke-dasharray: 5.0,5.0;" x1="1344" x2="1344" y1="86.2969" y2="1368.2188"/><line style="stroke: #A80036; stroke-width: 1.0; stroke-dasharray: 5.0,5.0;" x1="1554" x2="1554" y1="86.2969" y2="1368.2188"/><text fill="#000000" font-family="sans-serif" font-size="14" lengthAdjust="spacingAndGlyphs" textLength="32" x="33" y="82.9951">User</text><ellipse cx="52" cy="13" fill="#FEFECE" filter="url(#f1heams3io7o7r)" rx="8" ry="8" style="stroke: #A80036; stroke-width: 2.0;"/><path d="M52,21 L52,48 M39,29 L65,29 M52,48 L39,63 M52,48 L65,63 " fill="none" filter="url(#f1heams3io7o7r)" style="stroke: #A80036; stroke-width: 2.0;"/><text fill="#000000" font-family="sans-serif" font-size="14" lengthAdjust="spacingAndGlyphs" textLength="32" x="33" y="1380.2139">User</text><ellipse cx="52" cy="1393.5156" fill="#FEFECE" filter="url(#f1heams3io7o7r)" rx="8" ry="8" style="stroke: #A80036; stroke-width: 2.0;"/><path d="M52,1401.5156 L52,1428.5156 M39,1409.5156 L65,1409.5156 M52,1428.5156 L39,1443.5156 M52,1428.5156 L65,1443.5156 " fill="none" filter="url(#f1heams3io7o7r)" style="stroke: #A80036; stroke-width: 2.0;"/><rect fill="#FEFECE" filter="url(#f1heams3io7o7r)" height="46.5938" style="stroke: #A80036; stroke-width: 1.5;" width="77" x="198.5" y="34.7031"/><text fill="#000000" font-family="sans-serif" font-size="14" lengthAdjust="spacingAndGlyphs" textLength="63" x="205.5" y="54.6982">Frontend</text><text fill="#000000" font-family="sans-serif" font-size="14" lengthAdjust="spacingAndGlyphs" textLength="62" x="206" y="70.9951">(Angular)</text><rect fill="#FEFECE" filter="url(#f1heams3io7o7r)" height="46.5938" style="stroke: #A80036; stroke-width: 1.5;" width="77" x="198.5" y="1367.2188"/><text fill="#000000" font-family="sans-serif" font-size="14" lengthAdjust="spacingAndGlyphs" textLength="63" x="205.5" y="1387.2139">Frontend</text><text fill="#000000" font-family="sans-serif" font-size="14" lengthAdjust="spacingAndGlyphs" textLength="62" x="206" y="1403.5107">(Angular)</text><rect fill="#FEFECE" filter="url(#f1heams3io7o7r)" height="46.5938" style="stroke: #A80036; stroke-width: 1.5;" width="172" x="366" y="34.7031"/><text fill="#000000" font-family="sans-serif" font-size="14" font-style="italic" lengthAdjust="spacingAndGlyphs" textLength="81" x="411.5" y="54.6982">«Frontend»</text><text fill="#000000" font-family="sans-serif" font-size="14" lengthAdjust="spacingAndGlyphs" textLength="158" x="373" y="70.9951">AuthInterceptorService</text><rect fill="#FEFECE" filter="url(#f1heams3io7o7r)" height="46.5938" style="stroke: #A80036; stroke-width: 1.5;" width="172" x="366" y="1367.2188"/><text fill="#000000" font-family="sans-serif" font-size="14" font-style="italic" lengthAdjust="spacingAndGlyphs" textLength="81" x="411.5" y="1387.2139">«Frontend»</text><text fill="#000000" font-family="sans-serif" font-size="14" lengthAdjust="spacingAndGlyphs" textLength="158" x="373" y="1403.5107">AuthInterceptorService</text><rect fill="#FEFECE" filter="url(#f1heams3io7o7r)" height="46.5938" style="stroke: #A80036; stroke-width: 1.5;" width="103" x="552" y="34.7031"/><text fill="#000000" font-family="sans-serif" font-size="14" font-style="italic" lengthAdjust="spacingAndGlyphs" textLength="81" x="563" y="54.6982">«Frontend»</text><text fill="#000000" font-family="sans-serif" font-size="14" lengthAdjust="spacingAndGlyphs" textLength="89" x="559" y="70.9951">LocalStorage</text><rect fill="#FEFECE" filter="url(#f1heams3io7o7r)" height="46.5938" style="stroke: #A80036; stroke-width: 1.5;" width="103" x="552" y="1367.2188"/><text fill="#000000" font-family="sans-serif" font-size="14" font-style="italic" lengthAdjust="spacingAndGlyphs" textLength="81" x="563" y="1387.2139">«Frontend»</text><text fill="#000000" font-family="sans-serif" font-size="14" lengthAdjust="spacingAndGlyphs" textLength="89" x="559" y="1403.5107">LocalStorage</text><rect fill="#FEFECE" filter="url(#f1heams3io7o7r)" height="46.5938" style="stroke: #A80036; stroke-width: 1.5;" width="127" x="669" y="34.7031"/><text fill="#000000" font-family="sans-serif" font-size="14" font-style="italic" lengthAdjust="spacingAndGlyphs" textLength="81" x="692" y="54.6982">«Frontend»</text><text fill="#000000" font-family="sans-serif" font-size="14" lengthAdjust="spacingAndGlyphs" textLength="113" x="676" y="70.9951">MessageService</text><rect fill="#FEFECE" filter="url(#f1heams3io7o7r)" height="46.5938" style="stroke: #A80036; stroke-width: 1.5;" width="127" x="669" y="1367.2188"/><text fill="#000000" font-family="sans-serif" font-size="14" font-style="italic" lengthAdjust="spacingAndGlyphs" textLength="81" x="692" y="1387.2139">«Frontend»</text><text fill="#000000" font-family="sans-serif" font-size="14" lengthAdjust="spacingAndGlyphs" textLength="113" x="676" y="1403.5107">MessageService</text><rect fill="#FEFECE" filter="url(#f1heams3io7o7r)" height="46.5938" style="stroke: #A80036; stroke-width: 1.5;" width="225" x="810" y="34.7031"/><text fill="#000000" font-family="sans-serif" font-size="14" font-style="italic" lengthAdjust="spacingAndGlyphs" textLength="79" x="883" y="54.6982">«Backend»</text><text fill="#000000" font-family="sans-serif" font-size="14" lengthAdjust="spacingAndGlyphs" textLength="211" x="817" y="70.9951">JWT Authentication Middleware</text><rect fill="#FEFECE" filter="url(#f1heams3io7o7r)" height="46.5938" style="stroke: #A80036; stroke-width: 1.5;" width="225" x="810" y="1367.2188"/><text fill="#000000" font-family="sans-serif" font-size="14" font-style="italic" lengthAdjust="spacingAndGlyphs" textLength="79" x="883" y="1387.2139">«Backend»</text><text fill="#000000" font-family="sans-serif" font-size="14" lengthAdjust="spacingAndGlyphs" textLength="211" x="817" y="1403.5107">JWT Authentication Middleware</text><rect fill="#FEFECE" filter="url(#f1heams3io7o7r)" height="46.5938" style="stroke: #A80036; stroke-width: 1.5;" width="114" x="1064.5" y="34.7031"/><text fill="#000000" font-family="sans-serif" font-size="14" font-style="italic" lengthAdjust="spacingAndGlyphs" textLength="79" x="1082" y="54.6982">«Backend»</text><text fill="#000000" font-family="sans-serif" font-size="14" lengthAdjust="spacingAndGlyphs" textLength="100" x="1071.5" y="70.9951">TaskController</text><rect fill="#FEFECE" filter="url(#f1heams3io7o7r)" height="46.5938" style="stroke: #A80036; stroke-width: 1.5;" width="114" x="1064.5" y="1367.2188"/><text fill="#000000" font-family="sans-serif" font-size="14" font-style="italic" lengthAdjust="spacingAndGlyphs" textLength="79" x="1082" y="1387.2139">«Backend»</text><text fill="#000000" font-family="sans-serif" font-size="14" lengthAdjust="spacingAndGlyphs" textLength="100" x="1071.5" y="1403.5107">TaskController</text><rect fill="#FEFECE" filter="url(#f1heams3io7o7r)" height="46.5938" style="stroke: #A80036; stroke-width: 1.5;" width="97" x="1294" y="34.7031"/><text fill="#000000" font-family="sans-serif" font-size="14" font-style="italic" lengthAdjust="spacingAndGlyphs" textLength="79" x="1303" y="54.6982">«Backend»</text><text fill="#000000" font-family="sans-serif" font-size="14" lengthAdjust="spacingAndGlyphs" textLength="83" x="1301" y="70.9951">TaskService</text><rect fill="#FEFECE" filter="url(#f1heams3io7o7r)" height="46.5938" style="stroke: #A80036; stroke-width: 1.5;" width="97" x="1294" y="1367.2188"/><text fill="#000000" font-family="sans-serif" font-size="14" font-style="italic" lengthAdjust="spacingAndGlyphs" textLength="79" x="1303" y="1387.2139">«Backend»</text><text fill="#000000" font-family="sans-serif" font-size="14" lengthAdjust="spacingAndGlyphs" textLength="83" x="1301" y="1403.5107">TaskService</text><text fill="#000000" font-family="sans-serif" font-size="14" font-style="italic" lengthAdjust="spacingAndGlyphs" textLength="83" x="1510" y="66.6982">«Database»</text><text fill="#000000" font-family="sans-serif" font-size="14" lengthAdjust="spacingAndGlyphs" textLength="69" x="1517" y="82.9951">MongoDB</text><path d="M1536.5,17.7031 C1536.5,7.7031 1554.5,7.7031 1554.5,7.7031 C1554.5,7.7031 1572.5,7.7031 1572.5,17.7031 L1572.5,43.7031 C1572.5,53.7031 1554.5,53.7031 1554.5,53.7031 C1554.5,53.7031 1536.5,53.7031 1536.5,43.7031 L1536.5,17.7031 " fill="#FEFECE" filter="url(#f1heams3io7o7r)" style="stroke: #000000; stroke-width: 1.5;"/><path d="M1536.5,17.7031 C1536.5,27.7031 1554.5,27.7031 1554.5,27.7031 C1554.5,27.7031 1572.5,27.7031 1572.5,17.7031 " fill="none" style="stroke: #000000; stroke-width: 1.5;"/><text fill="#000000" font-family="sans-serif" font-size="14" font-style="italic" lengthAdjust="spacingAndGlyphs" textLength="83" x="1510" y="1380.2139">«Database»</text><text fill="#000000" font-family="sans-serif" font-size="14" lengthAdjust="spacingAndGlyphs" textLength="69" x="1517" y="1396.5107">MongoDB</text><path d="M1536.5,1409.8125 C1536.5,1399.8125 1554.5,1399.8125 1554.5,1399.8125 C1554.5,1399.8125 1572.5,1399.8125 1572.5,1409.8125 L1572.5,1435.8125 C1572.5,1445.8125 1554.5,1445.8125 1554.5,1445.8125 C1554.5,1445.8125 1536.5,1445.8125 1536.5,1435.8125 L1536.5,1409.8125 " fill="#FEFECE" filter="url(#f1heams3io7o7r)" style="stroke: #000000; stroke-width: 1.5;"/><path d="M1536.5,1409.8125 C1536.5,1419.8125 1554.5,1419.8125 1554.5,1419.8125 C1554.5,1419.8125 1572.5,1419.8125 1572.5,1409.8125 " fill="none" style="stroke: #000000; stroke-width: 1.5;"/><rect fill="#FFFFFF" filter="url(#f1heams3io7o7r)" height="1240.7891" style="stroke: #A80036; stroke-width: 1.0;" width="10" x="234" y="117.4297"/><rect fill="#FFFFFF" filter="url(#f1heams3io7o7r)" height="87.3984" style="stroke: #A80036; stroke-width: 1.0;" width="10" x="449" y="185.6953"/><rect fill="#FFFFFF" filter="url(#f1heams3io7o7r)" height="87.3984" style="stroke: #A80036; stroke-width: 1.0;" width="10" x="449" y="891.4219"/><rect fill="#FFFFFF" filter="url(#f1heams3io7o7r)" height="29.1328" style="stroke: #A80036; stroke-width: 1.0;" width="10" x="600.5" y="214.8281"/><rect fill="#FFFFFF" filter="url(#f1heams3io7o7r)" height="29.1328" style="stroke: #A80036; stroke-width: 1.0;" width="10" x="600.5" y="920.5547"/><rect fill="#FFFFFF" filter="url(#f1heams3io7o7r)" height="29.1328" style="stroke: #A80036; stroke-width: 1.0;" width="10" x="729.5" y="554.4219"/><rect fill="#FFFFFF" filter="url(#f1heams3io7o7r)" height="29.1328" style="stroke: #A80036; stroke-width: 1.0;" width="10" x="729.5" y="804.0234"/><rect fill="#FFFFFF" filter="url(#f1heams3io7o7r)" height="29.1328" style="stroke: #A80036; stroke-width: 1.0;" width="10" x="729.5" y="1211.8828"/><rect fill="#FFFFFF" filter="url(#f1heams3io7o7r)" height="29.1328" style="stroke: #A80036; stroke-width: 1.0;" width="10" x="729.5" y="1314.0859"/><rect fill="#FFFFFF" filter="url(#f1heams3io7o7r)" height="53.2656" style="stroke: #A80036; stroke-width: 1.0;" width="10" x="919.5" y="273.0938"/><rect fill="#FFFFFF" filter="url(#f1heams3io7o7r)" height="29.1328" style="stroke: #A80036; stroke-width: 1.0;" width="10" x="919.5" y="978.8203"/><rect fill="#FFFFFF" filter="url(#f1heams3io7o7r)" height="169.7969" style="stroke: #A80036; stroke-width: 1.0;" width="10" x="1118.5" y="326.3594"/><rect fill="#FFFFFF" filter="url(#f1heams3io7o7r)" height="59.1328" style="stroke: #A80036; stroke-width: 1.0;" width="10" x="1118.5" y="686.625"/><rect fill="#FFFFFF" filter="url(#f1heams3io7o7r)" height="145.6641" style="stroke: #A80036; stroke-width: 1.0;" width="10" x="1118.5" y="1007.9531"/><rect fill="#FFFFFF" filter="url(#f1heams3io7o7r)" height="111.5313" style="stroke: #A80036; stroke-width: 1.0;" width="10" x="1339.5" y="355.4922"/><rect fill="#FFFFFF" filter="url(#f1heams3io7o7r)" height="89.1328" style="stroke: #A80036; stroke-width: 1.0;" width="10" x="1339.5" y="627.4922"/><rect fill="#FFFFFF" filter="url(#f1heams3io7o7r)" height="87.3984" style="stroke: #A80036; stroke-width: 1.0;" width="10" x="1339.5" y="1037.0859"/><rect fill="#FFFFFF" filter="url(#f1heams3io7o7r)" height="53.2656" style="stroke: #A80036; stroke-width: 1.0;" width="10" x="1549.5" y="384.625"/><rect fill="#FFFFFF" filter="url(#f1heams3io7o7r)" height="73.9375" style="stroke: #A80036; stroke-width: 1.0;" width="10" x="1549.5" y="583.5547"/><rect fill="#FFFFFF" filter="url(#f1heams3io7o7r)" height="29.1328" style="stroke: #A80036; stroke-width: 1.0;" width="10" x="1549.5" y="1066.2188"/><polygon fill="#A80036" points="222,113.4297,232,117.4297,222,121.4297,226,117.4297" style="stroke: #A80036; stroke-width: 1.0;"/><line style="stroke: #A80036; stroke-width: 1.0;" x1="52" x2="228" y1="117.4297" y2="117.4297"/><text fill="#000000" font-family="sans-serif" font-size="13" lengthAdjust="spacingAndGlyphs" textLength="135" x="59" y="112.3638">Access Approve Task</text><path d="M57,130.4297 L57,155.4297 L227,155.4297 L227,140.4297 L217,130.4297 L57,130.4297 " fill="#FBFB77" filter="url(#f1heams3io7o7r)" style="stroke: #A80036; stroke-width: 1.0;"/><path d="M217,130.4297 L217,140.4297 L227,140.4297 L217,130.4297 " fill="#FBFB77" style="stroke: #A80036; stroke-width: 1.0;"/><text fill="#000000" font-family="sans-serif" font-size="13" lengthAdjust="spacingAndGlyphs" textLength="149" x="63" y="147.4966">User must be logged in</text><polygon fill="#A80036" points="437,181.6953,447,185.6953,437,189.6953,441,185.6953" style="stroke: #A80036; stroke-width: 1.0;"/><line style="stroke: #A80036; stroke-width: 1.0;" x1="244" x2="443" y1="185.6953" y2="185.6953"/><text fill="#000000" font-family="sans-serif" font-size="13" lengthAdjust="spacingAndGlyphs" textLength="168" x="251" y="180.6294">Prepare HTTP GET request</text><polygon fill="#A80036" points="588.5,210.8281,598.5,214.8281,588.5,218.8281,592.5,214.8281" style="stroke: #A80036; stroke-width: 1.0;"/><line style="stroke: #A80036; stroke-width: 1.0;" x1="459" x2="594.5" y1="214.8281" y2="214.8281"/><text fill="#000000" font-family="sans-serif" font-size="13" lengthAdjust="spacingAndGlyphs" textLength="119" x="466" y="209.7622">Retrieve JWT Token</text><polygon fill="#A80036" points="470,239.9609,460,243.9609,470,247.9609,466,243.9609" style="stroke: #A80036; stroke-width: 1.0;"/><line style="stroke: #A80036; stroke-width: 1.0; stroke-dasharray: 2.0,2.0;" x1="464" x2="604.5" y1="243.9609" y2="243.9609"/><text fill="#000000" font-family="sans-serif" font-size="13" lengthAdjust="spacingAndGlyphs" textLength="63" x="476" y="238.895">JWT Token</text><polygon fill="#A80036" points="907.5,269.0938,917.5,273.0938,907.5,277.0938,911.5,273.0938" style="stroke: #A80036; stroke-width: 1.0;"/><line style="stroke: #A80036; stroke-width: 1.0;" x1="454" x2="913.5" y1="273.0938" y2="273.0938"/><text fill="#000000" font-family="sans-serif" font-size="13" lengthAdjust="spacingAndGlyphs" textLength="270" x="461" y="268.0278">Forward request with Authorization header</text><polygon fill="#A80036" points="1106.5,322.3594,1116.5,326.3594,1106.5,330.3594,1110.5,326.3594" style="stroke: #A80036; stroke-width: 1.0;"/><line style="stroke: #A80036; stroke-width: 1.0;" x1="924.5" x2="1112.5" y1="326.3594" y2="326.3594"/><text fill="#000000" font-family="sans-serif" font-size="13" lengthAdjust="spacingAndGlyphs" textLength="170" x="931.5" y="321.2935">Forward Validated Request</text><polygon fill="#A80036" points="1327.5,351.4922,1337.5,355.4922,1327.5,359.4922,1331.5,355.4922" style="stroke: #A80036; stroke-width: 1.0;"/><line style="stroke: #A80036; stroke-width: 1.0;" x1="1128.5" x2="1333.5" y1="355.4922" y2="355.4922"/><text fill="#000000" font-family="sans-serif" font-size="13" lengthAdjust="spacingAndGlyphs" textLength="186" x="1135.5" y="350.4263">GetTasksNonAprovedAsync()</text><polygon fill="#A80036" points="1537.5,380.625,1547.5,384.625,1537.5,388.625,1541.5,384.625" style="stroke: #A80036; stroke-width: 1.0;"/><line style="stroke: #A80036; stroke-width: 1.0;" x1="1349.5" x2="1543.5" y1="384.625" y2="384.625"/><text fill="#000000" font-family="sans-serif" font-size="13" lengthAdjust="spacingAndGlyphs" textLength="135" x="1356.5" y="379.5591">GetAllNonApproved()</text><path d="M23,399.625 L87,399.625 L87,406.625 L77,416.625 L23,416.625 L23,399.625 " fill="#EEEEEE" style="stroke: #000000; stroke-width: 1.0;"/><rect fill="none" height="951.5938" style="stroke: #000000; stroke-width: 2.0;" width="1586" x="23" y="399.625"/><text fill="#000000" font-family="sans-serif" font-size="13" font-weight="bold" lengthAdjust="spacingAndGlyphs" textLength="19" x="38" y="412.6919">alt</text><text fill="#000000" font-family="sans-serif" font-size="11" font-weight="bold" lengthAdjust="spacingAndGlyphs" textLength="100" x="102" y="411.8354">[Backend Error]</text><polygon fill="#A80036" points="1360.5,433.8906,1350.5,437.8906,1360.5,441.8906,1356.5,437.8906" style="stroke: #A80036; stroke-width: 1.0;"/><line style="stroke: #A80036; stroke-width: 1.0;" x1="1354.5" x2="1553.5" y1="437.8906" y2="437.8906"/><text fill="#000000" font-family="sans-serif" font-size="13" lengthAdjust="spacingAndGlyphs" textLength="97" x="1366.5" y="432.8247">Error Response</text><polygon fill="#A80036" points="1139.5,463.0234,1129.5,467.0234,1139.5,471.0234,1135.5,467.0234" style="stroke: #A80036; stroke-width: 1.0;"/><line style="stroke: #A80036; stroke-width: 1.0; stroke-dasharray: 2.0,2.0;" x1="1133.5" x2="1343.5" y1="467.0234" y2="467.0234"/><text fill="#000000" font-family="sans-serif" font-size="13" lengthAdjust="spacingAndGlyphs" textLength="97" x="1145.5" y="461.9575">Error Response</text><polygon fill="#A80036" points="935.5,492.1563,925.5,496.1563,935.5,500.1563,931.5,496.1563" style="stroke: #A80036; stroke-width: 1.0;"/><line style="stroke: #A80036; stroke-width: 1.0; stroke-dasharray: 2.0,2.0;" x1="929.5" x2="1122.5" y1="496.1563" y2="496.1563"/><text fill="#000000" font-family="sans-serif" font-size="13" lengthAdjust="spacingAndGlyphs" textLength="97" x="941.5" y="491.0903">Error Response</text><polygon fill="#A80036" points="255,521.2891,245,525.2891,255,529.2891,251,525.2891" style="stroke: #A80036; stroke-width: 1.0;"/><line style="stroke: #A80036; stroke-width: 1.0; stroke-dasharray: 2.0,2.0;" x1="249" x2="923.5" y1="525.2891" y2="525.2891"/><text fill="#000000" font-family="sans-serif" font-size="13" lengthAdjust="spacingAndGlyphs" textLength="97" x="261" y="520.2231">Error Response</text><polygon fill="#A80036" points="717.5,550.4219,727.5,554.4219,717.5,558.4219,721.5,554.4219" style="stroke: #A80036; stroke-width: 1.0;"/><line style="stroke: #A80036; stroke-width: 1.0;" x1="244" x2="723.5" y1="554.4219" y2="554.4219"/><text fill="#000000" font-family="sans-serif" font-size="13" lengthAdjust="spacingAndGlyphs" textLength="147" x="251" y="549.356">"Server error occurred"</text><polygon fill="#A80036" points="255,579.5547,245,583.5547,255,587.5547,251,583.5547" style="stroke: #A80036; stroke-width: 1.0;"/><line style="stroke: #A80036; stroke-width: 1.0;" x1="249" x2="733.5" y1="583.5547" y2="583.5547"/><text fill="#000000" font-family="sans-serif" font-size="13" lengthAdjust="spacingAndGlyphs" textLength="144" x="261" y="578.4888">Display error message</text><line style="stroke: #000000; stroke-width: 1.0; stroke-dasharray: 2.0,2.0;" x1="23" x2="1609" y1="592.5547" y2="592.5547"/><text fill="#000000" font-family="sans-serif" font-size="11" font-weight="bold" lengthAdjust="spacingAndGlyphs" textLength="121" x="28" y="602.7651">[No Backend Error]</text><polygon fill="#A80036" points="1360.5,623.4922,1350.5,627.4922,1360.5,631.4922,1356.5,627.4922" style="stroke: #A80036; stroke-width: 1.0;"/><line style="stroke: #A80036; stroke-width: 1.0;" x1="1354.5" x2="1548.5" y1="627.4922" y2="627.4922"/><text fill="#000000" font-family="sans-serif" font-size="13" lengthAdjust="spacingAndGlyphs" textLength="181" x="1366.5" y="622.4263">List with non approved tasks</text><polygon fill="#A80036" points="1139.5,682.625,1129.5,686.625,1139.5,690.625,1135.5,686.625" style="stroke: #A80036; stroke-width: 1.0;"/><line style="stroke: #A80036; stroke-width: 1.0; stroke-dasharray: 2.0,2.0;" x1="1133.5" x2="1338.5" y1="686.625" y2="686.625"/><text fill="#000000" font-family="sans-serif" font-size="13" lengthAdjust="spacingAndGlyphs" textLength="132" x="1145.5" y="681.5591">Non-Approved Tasks</text><polygon fill="#A80036" points="935.5,741.7578,925.5,745.7578,935.5,749.7578,931.5,745.7578" style="stroke: #A80036; stroke-width: 1.0;"/><line style="stroke: #A80036; stroke-width: 1.0; stroke-dasharray: 2.0,2.0;" x1="929.5" x2="1122.5" y1="745.7578" y2="745.7578"/><text fill="#000000" font-family="sans-serif" font-size="13" lengthAdjust="spacingAndGlyphs" textLength="64" x="941.5" y="740.6919">Task Data</text><polygon fill="#A80036" points="255,770.8906,245,774.8906,255,778.8906,251,774.8906" style="stroke: #A80036; stroke-width: 1.0;"/><line style="stroke: #A80036; stroke-width: 1.0; stroke-dasharray: 2.0,2.0;" x1="249" x2="923.5" y1="774.8906" y2="774.8906"/><text fill="#000000" font-family="sans-serif" font-size="13" lengthAdjust="spacingAndGlyphs" textLength="64" x="261" y="769.8247">Task Data</text><polygon fill="#A80036" points="717.5,800.0234,727.5,804.0234,717.5,808.0234,721.5,804.0234" style="stroke: #A80036; stroke-width: 1.0;"/><line style="stroke: #A80036; stroke-width: 1.0;" x1="244" x2="723.5" y1="804.0234" y2="804.0234"/><text fill="#000000" font-family="sans-serif" font-size="13" lengthAdjust="spacingAndGlyphs" textLength="173" x="251" y="798.9575">"Tasks loaded successfully"</text><polygon fill="#A80036" points="255,829.1563,245,833.1563,255,837.1563,251,833.1563" style="stroke: #A80036; stroke-width: 1.0;"/><line style="stroke: #A80036; stroke-width: 1.0;" x1="249" x2="733.5" y1="833.1563" y2="833.1563"/><text fill="#000000" font-family="sans-serif" font-size="13" lengthAdjust="spacingAndGlyphs" textLength="106" x="261" y="828.0903">Display tasks list</text><polygon fill="#A80036" points="222,858.2891,232,862.2891,222,866.2891,226,862.2891" style="stroke: #A80036; stroke-width: 1.0;"/><line style="stroke: #A80036; stroke-width: 1.0;" x1="52" x2="228" y1="862.2891" y2="862.2891"/><text fill="#000000" font-family="sans-serif" font-size="13" lengthAdjust="spacingAndGlyphs" textLength="158" x="59" y="857.2231">Approve or Denny a task</text><polygon fill="#A80036" points="437,887.4219,447,891.4219,437,895.4219,441,891.4219" style="stroke: #A80036; stroke-width: 1.0;"/><line style="stroke: #A80036; stroke-width: 1.0;" x1="244" x2="443" y1="891.4219" y2="891.4219"/><text fill="#000000" font-family="sans-serif" font-size="13" lengthAdjust="spacingAndGlyphs" textLength="186" x="251" y="886.356">Prepare HTTP PATCH request</text><polygon fill="#A80036" points="588.5,916.5547,598.5,920.5547,588.5,924.5547,592.5,920.5547" style="stroke: #A80036; stroke-width: 1.0;"/><line style="stroke: #A80036; stroke-width: 1.0;" x1="459" x2="594.5" y1="920.5547" y2="920.5547"/><text fill="#000000" font-family="sans-serif" font-size="13" lengthAdjust="spacingAndGlyphs" textLength="119" x="466" y="915.4888">Retrieve JWT Token</text><polygon fill="#A80036" points="470,945.6875,460,949.6875,470,953.6875,466,949.6875" style="stroke: #A80036; stroke-width: 1.0;"/><line style="stroke: #A80036; stroke-width: 1.0; stroke-dasharray: 2.0,2.0;" x1="464" x2="604.5" y1="949.6875" y2="949.6875"/><text fill="#000000" font-family="sans-serif" font-size="13" lengthAdjust="spacingAndGlyphs" textLength="63" x="476" y="944.6216">JWT Token</text><polygon fill="#A80036" points="907.5,974.8203,917.5,978.8203,907.5,982.8203,911.5,978.8203" style="stroke: #A80036; stroke-width: 1.0;"/><line style="stroke: #A80036; stroke-width: 1.0;" x1="454" x2="913.5" y1="978.8203" y2="978.8203"/><text fill="#000000" font-family="sans-serif" font-size="13" lengthAdjust="spacingAndGlyphs" textLength="270" x="461" y="973.7544">Forward request with Authorization header</text><polygon fill="#A80036" points="1106.5,1003.9531,1116.5,1007.9531,1106.5,1011.9531,1110.5,1007.9531" style="stroke: #A80036; stroke-width: 1.0;"/><line style="stroke: #A80036; stroke-width: 1.0;" x1="924.5" x2="1112.5" y1="1007.9531" y2="1007.9531"/><text fill="#000000" font-family="sans-serif" font-size="13" lengthAdjust="spacingAndGlyphs" textLength="170" x="931.5" y="1002.8872">Forward Validated Request</text><polygon fill="#A80036" points="1327.5,1033.0859,1337.5,1037.0859,1327.5,1041.0859,1331.5,1037.0859" style="stroke: #A80036; stroke-width: 1.0;"/><line style="stroke: #A80036; stroke-width: 1.0;" x1="1128.5" x2="1333.5" y1="1037.0859" y2="1037.0859"/><text fill="#000000" font-family="sans-serif" font-size="13" lengthAdjust="spacingAndGlyphs" textLength="192" x="1135.5" y="1032.02">Approve or Dany taks method</text><polygon fill="#A80036" points="1537.5,1062.2188,1547.5,1066.2188,1537.5,1070.2188,1541.5,1066.2188" style="stroke: #A80036; stroke-width: 1.0;"/><line style="stroke: #A80036; stroke-width: 1.0;" x1="1349.5" x2="1543.5" y1="1066.2188" y2="1066.2188"/><text fill="#000000" font-family="sans-serif" font-size="13" lengthAdjust="spacingAndGlyphs" textLength="149" x="1356.5" y="1061.1528">Change the task status</text><polygon fill="#A80036" points="1360.5,1091.3516,1350.5,1095.3516,1360.5,1099.3516,1356.5,1095.3516" style="stroke: #A80036; stroke-width: 1.0;"/><line style="stroke: #A80036; stroke-width: 1.0;" x1="1354.5" x2="1553.5" y1="1095.3516" y2="1095.3516"/><text fill="#000000" font-family="sans-serif" font-size="13" lengthAdjust="spacingAndGlyphs" textLength="114" x="1366.5" y="1090.2856">Success Message</text><polygon fill="#A80036" points="1139.5,1120.4844,1129.5,1124.4844,1139.5,1128.4844,1135.5,1124.4844" style="stroke: #A80036; stroke-width: 1.0;"/><line style="stroke: #A80036; stroke-width: 1.0;" x1="1133.5" x2="1343.5" y1="1124.4844" y2="1124.4844"/><text fill="#000000" font-family="sans-serif" font-size="13" lengthAdjust="spacingAndGlyphs" textLength="107" x="1145.5" y="1119.4185">Sucess Message</text><polygon fill="#A80036" points="935.5,1149.6172,925.5,1153.6172,935.5,1157.6172,931.5,1153.6172" style="stroke: #A80036; stroke-width: 1.0;"/><line style="stroke: #A80036; stroke-width: 1.0;" x1="929.5" x2="1122.5" y1="1153.6172" y2="1153.6172"/><text fill="#000000" font-family="sans-serif" font-size="13" lengthAdjust="spacingAndGlyphs" textLength="107" x="941.5" y="1148.5513">Sucess Message</text><polygon fill="#A80036" points="255,1178.75,245,1182.75,255,1186.75,251,1182.75" style="stroke: #A80036; stroke-width: 1.0;"/><line style="stroke: #A80036; stroke-width: 1.0; stroke-dasharray: 2.0,2.0;" x1="249" x2="923.5" y1="1182.75" y2="1182.75"/><text fill="#000000" font-family="sans-serif" font-size="13" lengthAdjust="spacingAndGlyphs" textLength="107" x="261" y="1177.6841">Sucess Message</text><polygon fill="#A80036" points="717.5,1207.8828,727.5,1211.8828,717.5,1215.8828,721.5,1211.8828" style="stroke: #A80036; stroke-width: 1.0;"/><line style="stroke: #A80036; stroke-width: 1.0;" x1="244" x2="723.5" y1="1211.8828" y2="1211.8828"/><text fill="#000000" font-family="sans-serif" font-size="13" lengthAdjust="spacingAndGlyphs" textLength="177" x="251" y="1206.8169">"Tasks Approved or Denied"</text><polygon fill="#A80036" points="255,1237.0156,245,1241.0156,255,1245.0156,251,1241.0156" style="stroke: #A80036; stroke-width: 1.0;"/><line style="stroke: #A80036; stroke-width: 1.0;" x1="249" x2="733.5" y1="1241.0156" y2="1241.0156"/><text fill="#000000" font-family="sans-serif" font-size="13" lengthAdjust="spacingAndGlyphs" textLength="107" x="261" y="1235.9497">Display Message</text><line style="stroke: #000000; stroke-width: 1.0; stroke-dasharray: 2.0,2.0;" x1="23" x2="1609" y1="1250.0156" y2="1250.0156"/><text fill="#000000" font-family="sans-serif" font-size="11" font-weight="bold" lengthAdjust="spacingAndGlyphs" textLength="125" x="28" y="1260.2261">[JWT Token Invalid]</text><polygon fill="#A80036" points="255,1280.9531,245,1284.9531,255,1288.9531,251,1284.9531" style="stroke: #A80036; stroke-width: 1.0;"/><line style="stroke: #A80036; stroke-width: 1.0; stroke-dasharray: 2.0,2.0;" x1="249" x2="923.5" y1="1284.9531" y2="1284.9531"/><text fill="#000000" font-family="sans-serif" font-size="13" lengthAdjust="spacingAndGlyphs" textLength="152" x="261" y="1279.8872">Unauthorized Response</text><polygon fill="#A80036" points="717.5,1310.0859,727.5,1314.0859,717.5,1318.0859,721.5,1314.0859" style="stroke: #A80036; stroke-width: 1.0;"/><line style="stroke: #A80036; stroke-width: 1.0;" x1="244" x2="723.5" y1="1314.0859" y2="1314.0859"/><text fill="#000000" font-family="sans-serif" font-size="13" lengthAdjust="spacingAndGlyphs" textLength="138" x="251" y="1309.02">"Authentication error"</text><polygon fill="#A80036" points="255,1339.2188,245,1343.2188,255,1347.2188,251,1343.2188" style="stroke: #A80036; stroke-width: 1.0;"/><line style="stroke: #A80036; stroke-width: 1.0;" x1="249" x2="733.5" y1="1343.2188" y2="1343.2188"/><text fill="#000000" font-family="sans-serif" font-size="13" lengthAdjust="spacingAndGlyphs" textLength="240" x="261" y="1338.1528">Display authentication error message</text><!--MD5=[6decf25a32cd4fd91b65148bef4419de]
@startuml
actor User
participant "Frontend\n(Angular)" as Frontend
participant "AuthInterceptorService" as AuthInterceptor <<Frontend>>
participant "LocalStorage" as LocalStorage <<Frontend>>
participant "MessageService" as MessageService <<Frontend>>
participant "JWT Authentication Middleware" as JwtAuth <<Backend>>
participant "TaskController" as Controller <<Backend>>
participant "TaskService" as TaskService <<Backend>>
database "MongoDB" as Database <<Database>>

User -> Frontend: Access Approve Task
note right of User: User must be logged in
activate Frontend

Frontend -> AuthInterceptor: Prepare HTTP GET request
activate AuthInterceptor
AuthInterceptor -> LocalStorage: Retrieve JWT Token
activate LocalStorage
LocalStorage - -> AuthInterceptor: JWT Token
deactivate LocalStorage

AuthInterceptor -> JwtAuth: Forward request with Authorization header
deactivate AuthInterceptor
activate JwtAuth

alt JWT Token Valid
    JwtAuth -> Controller: Forward Validated Request
    deactivate JwtAuth
    activate Controller

    Controller -> TaskService: GetTasksNonAprovedAsync()
    activate TaskService

    TaskService -> Database: GetAllNonApproved()
    activate Database

    alt Backend Error
        Database -> TaskService: Error Response
        deactivate Database
        TaskService - -> Controller: Error Response
        deactivate TaskService

        Controller - -> JwtAuth: Error Response
        deactivate Controller

        JwtAuth - -> Frontend: Error Response
        deactivate JwtAuth

        Frontend -> MessageService: "Server error occurred"
        activate MessageService
        MessageService -> Frontend: Display error message
        deactivate MessageService
    else No Backend Error

        activate Database
        Database -> TaskService: List with non approved tasks

        activate TaskService
        deactivate Database
        TaskService - -> Controller: Non-Approved Tasks
        activate Controller

        deactivate TaskService

        Controller - -> JwtAuth: Task Data
        deactivate Controller

        JwtAuth - -> Frontend: Task Data
        deactivate JwtAuth

        Frontend -> MessageService: "Tasks loaded successfully"
        activate MessageService
        MessageService -> Frontend: Display tasks list
        deactivate MessageService
        User -> Frontend: Approve or Denny a task

        Frontend -> AuthInterceptor: Prepare HTTP PATCH request
        activate AuthInterceptor
        AuthInterceptor -> LocalStorage: Retrieve JWT Token
        activate LocalStorage
        LocalStorage - -> AuthInterceptor: JWT Token
        deactivate LocalStorage

        AuthInterceptor -> JwtAuth: Forward request with Authorization header
        deactivate AuthInterceptor
        activate JwtAuth

       
            JwtAuth -> Controller: Forward Validated Request
            deactivate JwtAuth
            activate Controller

            Controller -> TaskService: Approve or Dany taks method
            activate TaskService

            TaskService -> Database: Change the task status
            activate Database
            Database -> TaskService: Success Message
            deactivate Database
            TaskService -> Controller: Sucess Message
            deactivate TaskService
            Controller -> JwtAuth: Sucess Message
            deactivate Controller
            JwtAuth - -> Frontend: Sucess Message
            deactivate JwtAuth

            Frontend -> MessageService: "Tasks Approved or Denied"
            activate MessageService
            MessageService -> Frontend: Display Message
            deactivate MessageService

    else JWT Token Invalid
        JwtAuth - -> Frontend: Unauthorized Response
        deactivate JwtAuth

        Frontend -> MessageService: "Authentication error"
        activate MessageService
        MessageService -> Frontend: Display authentication error message
        deactivate MessageService
    end

    deactivate Frontend
    @enduml

PlantUML version 1.2020.02(Sun Mar 01 10:22:07 UTC 2020)
(GPL source distribution)
Java Runtime: OpenJDK Runtime Environment
JVM: OpenJDK 64-Bit Server VM
Java Version: 11.0.21+9
Operating System: Linux
Default Encoding: UTF-8
Language: en
Country: null
--></g></svg>