<?xml version="1.0" encoding="UTF-8" standalone="no"?><svg xmlns="http://www.w3.org/2000/svg" xmlns:xlink="http://www.w3.org/1999/xlink" contentScriptType="application/ecmascript" contentStyleType="text/css" height="310px" preserveAspectRatio="none" style="width:489px;height:310px;" version="1.1" viewBox="0 0 489 310" width="489px" zoomAndPan="magnify"><defs><filter height="300%" id="fdp6l8ucus5v0" width="300%" x="-1" y="-1"><feGaussianBlur result="blurOut" stdDeviation="2.0"/><feColorMatrix in="blurOut" result="blurOut2" type="matrix" values="0 0 0 0 0 0 0 0 0 0 0 0 0 0 0 0 0 0 .4 0"/><feOffset dx="4.0" dy="4.0" in="blurOut2" result="blurOut3"/><feBlend in="SourceGraphic" in2="blurOut3" mode="normal"/></filter></defs><g><rect fill="#FFFFFF" filter="url(#fdp6l8ucus5v0)" height="87.3984" style="stroke: #A80036; stroke-width: 1.0;" width="10" x="236.5" y="117.4297"/><rect fill="#FFFFFF" filter="url(#fdp6l8ucus5v0)" height="29.1328" style="stroke: #A80036; stroke-width: 1.0;" width="10" x="407.5" y="146.5625"/><line style="stroke: #A80036; stroke-width: 1.0; stroke-dasharray: 5.0,5.0;" x1="32" x2="32" y1="86.2969" y2="222.8281"/><line style="stroke: #A80036; stroke-width: 1.0; stroke-dasharray: 5.0,5.0;" x1="241" x2="241" y1="86.2969" y2="222.8281"/><line style="stroke: #A80036; stroke-width: 1.0; stroke-dasharray: 5.0,5.0;" x1="412" x2="412" y1="86.2969" y2="222.8281"/><text fill="#000000" font-family="sans-serif" font-size="14" lengthAdjust="spacingAndGlyphs" textLength="43" x="8" y="82.9951">Admin</text><ellipse cx="32.5" cy="13" fill="#FEFECE" filter="url(#fdp6l8ucus5v0)" rx="8" ry="8" style="stroke: #A80036; stroke-width: 2.0;"/><path d="M32.5,21 L32.5,48 M19.5,29 L45.5,29 M32.5,48 L19.5,63 M32.5,48 L45.5,63 " fill="none" filter="url(#fdp6l8ucus5v0)" style="stroke: #A80036; stroke-width: 2.0;"/><text fill="#000000" font-family="sans-serif" font-size="14" lengthAdjust="spacingAndGlyphs" textLength="43" x="8" y="234.8232">Admin</text><ellipse cx="32.5" cy="248.125" fill="#FEFECE" filter="url(#fdp6l8ucus5v0)" rx="8" ry="8" style="stroke: #A80036; stroke-width: 2.0;"/><path d="M32.5,256.125 L32.5,283.125 M19.5,264.125 L45.5,264.125 M32.5,283.125 L19.5,298.125 M32.5,283.125 L45.5,298.125 " fill="none" filter="url(#fdp6l8ucus5v0)" style="stroke: #A80036; stroke-width: 2.0;"/><rect fill="#FEFECE" filter="url(#fdp6l8ucus5v0)" height="30.2969" style="stroke: #A80036; stroke-width: 1.5;" width="137" x="171" y="51"/><text fill="#000000" font-family="sans-serif" font-size="14" lengthAdjust="spacingAndGlyphs" textLength="123" x="178" y="70.9951">Front-End System</text><rect fill="#FEFECE" filter="url(#fdp6l8ucus5v0)" height="30.2969" style="stroke: #A80036; stroke-width: 1.5;" width="137" x="171" y="221.8281"/><text fill="#000000" font-family="sans-serif" font-size="14" lengthAdjust="spacingAndGlyphs" textLength="123" x="178" y="241.8232">Front-End System</text><rect fill="#FEFECE" filter="url(#fdp6l8ucus5v0)" height="30.2969" style="stroke: #A80036; stroke-width: 1.5;" width="135" x="343" y="51"/><text fill="#000000" font-family="sans-serif" font-size="14" lengthAdjust="spacingAndGlyphs" textLength="121" x="350" y="70.9951">Back-End System</text><rect fill="#FEFECE" filter="url(#fdp6l8ucus5v0)" height="30.2969" style="stroke: #A80036; stroke-width: 1.5;" width="135" x="343" y="221.8281"/><text fill="#000000" font-family="sans-serif" font-size="14" lengthAdjust="spacingAndGlyphs" textLength="121" x="350" y="241.8232">Back-End System</text><rect fill="#FFFFFF" filter="url(#fdp6l8ucus5v0)" height="87.3984" style="stroke: #A80036; stroke-width: 1.0;" width="10" x="236.5" y="117.4297"/><rect fill="#FFFFFF" filter="url(#fdp6l8ucus5v0)" height="29.1328" style="stroke: #A80036; stroke-width: 1.0;" width="10" x="407.5" y="146.5625"/><polygon fill="#A80036" points="224.5,113.4297,234.5,117.4297,224.5,121.4297,228.5,117.4297" style="stroke: #A80036; stroke-width: 1.0;"/><line style="stroke: #A80036; stroke-width: 1.0;" x1="32.5" x2="230.5" y1="117.4297" y2="117.4297"/><text fill="#000000" font-family="sans-serif" font-size="13" lengthAdjust="spacingAndGlyphs" textLength="185" x="39.5" y="112.3638">Request Robot State Change</text><polygon fill="#A80036" points="395.5,142.5625,405.5,146.5625,395.5,150.5625,399.5,146.5625" style="stroke: #A80036; stroke-width: 1.0;"/><line style="stroke: #A80036; stroke-width: 1.0;" x1="246.5" x2="401.5" y1="146.5625" y2="146.5625"/><text fill="#000000" font-family="sans-serif" font-size="13" lengthAdjust="spacingAndGlyphs" textLength="142" x="253.5" y="141.4966">Process State Change</text><polygon fill="#A80036" points="257.5,171.6953,247.5,175.6953,257.5,179.6953,253.5,175.6953" style="stroke: #A80036; stroke-width: 1.0;"/><line style="stroke: #A80036; stroke-width: 1.0; stroke-dasharray: 2.0,2.0;" x1="251.5" x2="411.5" y1="175.6953" y2="175.6953"/><text fill="#000000" font-family="sans-serif" font-size="13" lengthAdjust="spacingAndGlyphs" textLength="131" x="263.5" y="170.6294">State Change Result</text><polygon fill="#A80036" points="43.5,200.8281,33.5,204.8281,43.5,208.8281,39.5,204.8281" style="stroke: #A80036; stroke-width: 1.0;"/><line style="stroke: #A80036; stroke-width: 1.0;" x1="37.5" x2="240.5" y1="204.8281" y2="204.8281"/><text fill="#000000" font-family="sans-serif" font-size="13" lengthAdjust="spacingAndGlyphs" textLength="109" x="49.5" y="199.7622">Display Outcome</text><!--MD5=[69dacbde8ba7f996ffb04d17cc5c6ae8]
@startuml
actor Admin
participant "Front-End System" as FrontEnd
participant "Back-End System" as BackEnd

Admin -> FrontEnd: Request Robot State Change
activate FrontEnd

FrontEnd -> BackEnd: Process State Change
activate BackEnd

BackEnd - -> FrontEnd: State Change Result
deactivate BackEnd

FrontEnd -> Admin: Display Outcome
deactivate FrontEnd
@enduml

PlantUML version 1.2020.02(Sun Mar 01 10:22:07 UTC 2020)
(GPL source distribution)
Java Runtime: OpenJDK Runtime Environment
JVM: OpenJDK 64-Bit Server VM
Java Version: 11.0.21+9
Operating System: Linux
Default Encoding: UTF-8
Language: en
Country: null
--></g></svg>