<?xml version="1.0" encoding="UTF-8" standalone="no"?><svg xmlns="http://www.w3.org/2000/svg" xmlns:xlink="http://www.w3.org/1999/xlink" contentScriptType="application/ecmascript" contentStyleType="text/css" height="659px" preserveAspectRatio="none" style="width:1049px;height:659px;" version="1.1" viewBox="0 0 1049 659" width="1049px" zoomAndPan="magnify"><defs><filter height="300%" id="f1dvtmsqpzpuum" width="300%" x="-1" y="-1"><feGaussianBlur result="blurOut" stdDeviation="2.0"/><feColorMatrix in="blurOut" result="blurOut2" type="matrix" values="0 0 0 0 0 0 0 0 0 0 0 0 0 0 0 0 0 0 .4 0"/><feOffset dx="4.0" dy="4.0" in="blurOut2" result="blurOut3"/><feBlend in="SourceGraphic" in2="blurOut3" mode="normal"/></filter></defs><g><rect fill="#FFFFFF" filter="url(#f1dvtmsqpzpuum)" height="436.9922" style="stroke: #A80036; stroke-width: 1.0;" width="10" x="234.5" y="117.4297"/><rect fill="#FFFFFF" filter="url(#f1dvtmsqpzpuum)" height="378.7266" style="stroke: #A80036; stroke-width: 1.0;" width="10" x="407.5" y="146.5625"/><rect fill="#FFFFFF" filter="url(#f1dvtmsqpzpuum)" height="145.6641" style="stroke: #A80036; stroke-width: 1.0;" width="10" x="579.5" y="175.6953"/><rect fill="#FFFFFF" filter="url(#f1dvtmsqpzpuum)" height="145.6641" style="stroke: #A80036; stroke-width: 1.0;" width="10" x="579.5" y="350.4922"/><rect fill="#FFFFFF" filter="url(#f1dvtmsqpzpuum)" height="87.3984" style="stroke: #A80036; stroke-width: 1.0;" width="10" x="750.5" y="204.8281"/><rect fill="#FFFFFF" filter="url(#f1dvtmsqpzpuum)" height="87.3984" style="stroke: #A80036; stroke-width: 1.0;" width="10" x="750.5" y="379.625"/><rect fill="#FFFFFF" filter="url(#f1dvtmsqpzpuum)" height="29.1328" style="stroke: #A80036; stroke-width: 1.0;" width="10" x="956.5" y="233.9609"/><rect fill="#FFFFFF" filter="url(#f1dvtmsqpzpuum)" height="29.1328" style="stroke: #A80036; stroke-width: 1.0;" width="10" x="956.5" y="408.7578"/><line style="stroke: #A80036; stroke-width: 1.0; stroke-dasharray: 5.0,5.0;" x1="32" x2="32" y1="86.2969" y2="572.4219"/><line style="stroke: #A80036; stroke-width: 1.0; stroke-dasharray: 5.0,5.0;" x1="239.5" x2="239.5" y1="86.2969" y2="572.4219"/><line style="stroke: #A80036; stroke-width: 1.0; stroke-dasharray: 5.0,5.0;" x1="412.5" x2="412.5" y1="86.2969" y2="572.4219"/><line style="stroke: #A80036; stroke-width: 1.0; stroke-dasharray: 5.0,5.0;" x1="584.5" x2="584.5" y1="86.2969" y2="572.4219"/><line style="stroke: #A80036; stroke-width: 1.0; stroke-dasharray: 5.0,5.0;" x1="755" x2="755" y1="86.2969" y2="572.4219"/><line style="stroke: #A80036; stroke-width: 1.0; stroke-dasharray: 5.0,5.0;" x1="961.5" x2="961.5" y1="86.2969" y2="572.4219"/><text fill="#000000" font-family="sans-serif" font-size="14" lengthAdjust="spacingAndGlyphs" textLength="43" x="8" y="82.9951">Admin</text><ellipse cx="32.5" cy="13" fill="#FEFECE" filter="url(#f1dvtmsqpzpuum)" rx="8" ry="8" style="stroke: #A80036; stroke-width: 2.0;"/><path d="M32.5,21 L32.5,48 M19.5,29 L45.5,29 M32.5,48 L19.5,63 M32.5,48 L45.5,63 " fill="none" filter="url(#f1dvtmsqpzpuum)" style="stroke: #A80036; stroke-width: 2.0;"/><text fill="#000000" font-family="sans-serif" font-size="14" lengthAdjust="spacingAndGlyphs" textLength="43" x="8" y="584.417">Admin</text><ellipse cx="32.5" cy="597.7188" fill="#FEFECE" filter="url(#f1dvtmsqpzpuum)" rx="8" ry="8" style="stroke: #A80036; stroke-width: 2.0;"/><path d="M32.5,605.7188 L32.5,632.7188 M19.5,613.7188 L45.5,613.7188 M32.5,632.7188 L19.5,647.7188 M32.5,632.7188 L45.5,647.7188 " fill="none" filter="url(#f1dvtmsqpzpuum)" style="stroke: #A80036; stroke-width: 2.0;"/><rect fill="#FEFECE" filter="url(#f1dvtmsqpzpuum)" height="30.2969" style="stroke: #A80036; stroke-width: 1.5;" width="154" x="160.5" y="51"/><text fill="#000000" font-family="sans-serif" font-size="14" lengthAdjust="spacingAndGlyphs" textLength="140" x="167.5" y="70.9951">FE: ViewComponent</text><rect fill="#FEFECE" filter="url(#f1dvtmsqpzpuum)" height="30.2969" style="stroke: #A80036; stroke-width: 1.5;" width="154" x="160.5" y="571.4219"/><text fill="#000000" font-family="sans-serif" font-size="14" lengthAdjust="spacingAndGlyphs" textLength="140" x="167.5" y="591.417">FE: ViewComponent</text><rect fill="#FEFECE" filter="url(#f1dvtmsqpzpuum)" height="30.2969" style="stroke: #A80036; stroke-width: 1.5;" width="164" x="328.5" y="51"/><text fill="#000000" font-family="sans-serif" font-size="14" lengthAdjust="spacingAndGlyphs" textLength="150" x="335.5" y="70.9951">FE: RobotComponent</text><rect fill="#FEFECE" filter="url(#f1dvtmsqpzpuum)" height="30.2969" style="stroke: #A80036; stroke-width: 1.5;" width="164" x="328.5" y="571.4219"/><text fill="#000000" font-family="sans-serif" font-size="14" lengthAdjust="spacingAndGlyphs" textLength="150" x="335.5" y="591.417">FE: RobotComponent</text><rect fill="#FEFECE" filter="url(#f1dvtmsqpzpuum)" height="30.2969" style="stroke: #A80036; stroke-width: 1.5;" width="132" x="516.5" y="51"/><text fill="#000000" font-family="sans-serif" font-size="14" lengthAdjust="spacingAndGlyphs" textLength="118" x="523.5" y="70.9951">FE: RobotService</text><rect fill="#FEFECE" filter="url(#f1dvtmsqpzpuum)" height="30.2969" style="stroke: #A80036; stroke-width: 1.5;" width="132" x="516.5" y="571.4219"/><text fill="#000000" font-family="sans-serif" font-size="14" lengthAdjust="spacingAndGlyphs" textLength="118" x="523.5" y="591.417">FE: RobotService</text><rect fill="#FEFECE" filter="url(#f1dvtmsqpzpuum)" height="30.2969" style="stroke: #A80036; stroke-width: 1.5;" width="151" x="678" y="51"/><text fill="#000000" font-family="sans-serif" font-size="14" lengthAdjust="spacingAndGlyphs" textLength="137" x="685" y="70.9951">BE: RobotController</text><rect fill="#FEFECE" filter="url(#f1dvtmsqpzpuum)" height="30.2969" style="stroke: #A80036; stroke-width: 1.5;" width="151" x="678" y="571.4219"/><text fill="#000000" font-family="sans-serif" font-size="14" lengthAdjust="spacingAndGlyphs" textLength="137" x="685" y="591.417">BE: RobotController</text><rect fill="#FEFECE" filter="url(#f1dvtmsqpzpuum)" height="30.2969" style="stroke: #A80036; stroke-width: 1.5;" width="158" x="880.5" y="51"/><text fill="#000000" font-family="sans-serif" font-size="14" lengthAdjust="spacingAndGlyphs" textLength="144" x="887.5" y="70.9951">BE: RobotRepository</text><rect fill="#FEFECE" filter="url(#f1dvtmsqpzpuum)" height="30.2969" style="stroke: #A80036; stroke-width: 1.5;" width="158" x="880.5" y="571.4219"/><text fill="#000000" font-family="sans-serif" font-size="14" lengthAdjust="spacingAndGlyphs" textLength="144" x="887.5" y="591.417">BE: RobotRepository</text><rect fill="#FFFFFF" filter="url(#f1dvtmsqpzpuum)" height="436.9922" style="stroke: #A80036; stroke-width: 1.0;" width="10" x="234.5" y="117.4297"/><rect fill="#FFFFFF" filter="url(#f1dvtmsqpzpuum)" height="378.7266" style="stroke: #A80036; stroke-width: 1.0;" width="10" x="407.5" y="146.5625"/><rect fill="#FFFFFF" filter="url(#f1dvtmsqpzpuum)" height="145.6641" style="stroke: #A80036; stroke-width: 1.0;" width="10" x="579.5" y="175.6953"/><rect fill="#FFFFFF" filter="url(#f1dvtmsqpzpuum)" height="145.6641" style="stroke: #A80036; stroke-width: 1.0;" width="10" x="579.5" y="350.4922"/><rect fill="#FFFFFF" filter="url(#f1dvtmsqpzpuum)" height="87.3984" style="stroke: #A80036; stroke-width: 1.0;" width="10" x="750.5" y="204.8281"/><rect fill="#FFFFFF" filter="url(#f1dvtmsqpzpuum)" height="87.3984" style="stroke: #A80036; stroke-width: 1.0;" width="10" x="750.5" y="379.625"/><rect fill="#FFFFFF" filter="url(#f1dvtmsqpzpuum)" height="29.1328" style="stroke: #A80036; stroke-width: 1.0;" width="10" x="956.5" y="233.9609"/><rect fill="#FFFFFF" filter="url(#f1dvtmsqpzpuum)" height="29.1328" style="stroke: #A80036; stroke-width: 1.0;" width="10" x="956.5" y="408.7578"/><polygon fill="#A80036" points="222.5,113.4297,232.5,117.4297,222.5,121.4297,226.5,117.4297" style="stroke: #A80036; stroke-width: 1.0;"/><line style="stroke: #A80036; stroke-width: 1.0;" x1="32.5" x2="228.5" y1="117.4297" y2="117.4297"/><text fill="#000000" font-family="sans-serif" font-size="13" lengthAdjust="spacingAndGlyphs" textLength="183" x="39.5" y="112.3638">wantsToChangeRobotState()</text><polygon fill="#A80036" points="395.5,142.5625,405.5,146.5625,395.5,150.5625,399.5,146.5625" style="stroke: #A80036; stroke-width: 1.0;"/><line style="stroke: #A80036; stroke-width: 1.0;" x1="244.5" x2="401.5" y1="146.5625" y2="146.5625"/><text fill="#000000" font-family="sans-serif" font-size="13" lengthAdjust="spacingAndGlyphs" textLength="114" x="251.5" y="141.4966">getActiveRobots()</text><polygon fill="#A80036" points="567.5,171.6953,577.5,175.6953,567.5,179.6953,571.5,175.6953" style="stroke: #A80036; stroke-width: 1.0;"/><line style="stroke: #A80036; stroke-width: 1.0;" x1="417.5" x2="573.5" y1="175.6953" y2="175.6953"/><text fill="#000000" font-family="sans-serif" font-size="13" lengthAdjust="spacingAndGlyphs" textLength="143" x="424.5" y="170.6294">Request Active Robots</text><polygon fill="#A80036" points="738.5,200.8281,748.5,204.8281,738.5,208.8281,742.5,204.8281" style="stroke: #A80036; stroke-width: 1.0;"/><line style="stroke: #A80036; stroke-width: 1.0;" x1="589.5" x2="744.5" y1="204.8281" y2="204.8281"/><text fill="#000000" font-family="sans-serif" font-size="13" lengthAdjust="spacingAndGlyphs" textLength="126" x="596.5" y="199.7622">Fetch Active Robots</text><polygon fill="#A80036" points="944.5,229.9609,954.5,233.9609,944.5,237.9609,948.5,233.9609" style="stroke: #A80036; stroke-width: 1.0;"/><line style="stroke: #A80036; stroke-width: 1.0;" x1="760.5" x2="950.5" y1="233.9609" y2="233.9609"/><text fill="#000000" font-family="sans-serif" font-size="13" lengthAdjust="spacingAndGlyphs" textLength="125" x="767.5" y="228.895">Query Robot States</text><polygon fill="#A80036" points="771.5,259.0938,761.5,263.0938,771.5,267.0938,767.5,263.0938" style="stroke: #A80036; stroke-width: 1.0;"/><line style="stroke: #A80036; stroke-width: 1.0; stroke-dasharray: 2.0,2.0;" x1="765.5" x2="960.5" y1="263.0938" y2="263.0938"/><text fill="#000000" font-family="sans-serif" font-size="13" lengthAdjust="spacingAndGlyphs" textLength="129" x="777.5" y="258.0278">Return Robot States</text><polygon fill="#A80036" points="600.5,288.2266,590.5,292.2266,600.5,296.2266,596.5,292.2266" style="stroke: #A80036; stroke-width: 1.0;"/><line style="stroke: #A80036; stroke-width: 1.0; stroke-dasharray: 2.0,2.0;" x1="594.5" x2="754.5" y1="292.2266" y2="292.2266"/><text fill="#000000" font-family="sans-serif" font-size="13" lengthAdjust="spacingAndGlyphs" textLength="122" x="606.5" y="287.1606">Active Robots Data</text><polygon fill="#A80036" points="428.5,317.3594,418.5,321.3594,428.5,325.3594,424.5,321.3594" style="stroke: #A80036; stroke-width: 1.0;"/><line style="stroke: #A80036; stroke-width: 1.0; stroke-dasharray: 2.0,2.0;" x1="422.5" x2="583.5" y1="321.3594" y2="321.3594"/><text fill="#000000" font-family="sans-serif" font-size="13" lengthAdjust="spacingAndGlyphs" textLength="113" x="434.5" y="316.2935">Active Robots List</text><polygon fill="#A80036" points="567.5,346.4922,577.5,350.4922,567.5,354.4922,571.5,350.4922" style="stroke: #A80036; stroke-width: 1.0;"/><line style="stroke: #A80036; stroke-width: 1.0;" x1="417.5" x2="573.5" y1="350.4922" y2="350.4922"/><text fill="#000000" font-family="sans-serif" font-size="13" lengthAdjust="spacingAndGlyphs" textLength="129" x="424.5" y="345.4263">Change Robot State</text><polygon fill="#A80036" points="738.5,375.625,748.5,379.625,738.5,383.625,742.5,379.625" style="stroke: #A80036; stroke-width: 1.0;"/><line style="stroke: #A80036; stroke-width: 1.0;" x1="589.5" x2="744.5" y1="379.625" y2="379.625"/><text fill="#000000" font-family="sans-serif" font-size="13" lengthAdjust="spacingAndGlyphs" textLength="142" x="596.5" y="374.5591">Update State Request</text><polygon fill="#A80036" points="944.5,404.7578,954.5,408.7578,944.5,412.7578,948.5,408.7578" style="stroke: #A80036; stroke-width: 1.0;"/><line style="stroke: #A80036; stroke-width: 1.0;" x1="760.5" x2="950.5" y1="408.7578" y2="408.7578"/><text fill="#000000" font-family="sans-serif" font-size="13" lengthAdjust="spacingAndGlyphs" textLength="86" x="767.5" y="403.6919">Update State</text><polygon fill="#A80036" points="771.5,433.8906,761.5,437.8906,771.5,441.8906,767.5,437.8906" style="stroke: #A80036; stroke-width: 1.0;"/><line style="stroke: #A80036; stroke-width: 1.0; stroke-dasharray: 2.0,2.0;" x1="765.5" x2="960.5" y1="437.8906" y2="437.8906"/><text fill="#000000" font-family="sans-serif" font-size="13" lengthAdjust="spacingAndGlyphs" textLength="172" x="777.5" y="432.8247">State Update Confirmation</text><polygon fill="#A80036" points="600.5,463.0234,590.5,467.0234,600.5,471.0234,596.5,467.0234" style="stroke: #A80036; stroke-width: 1.0;"/><line style="stroke: #A80036; stroke-width: 1.0; stroke-dasharray: 2.0,2.0;" x1="594.5" x2="754.5" y1="467.0234" y2="467.0234"/><text fill="#000000" font-family="sans-serif" font-size="13" lengthAdjust="spacingAndGlyphs" textLength="131" x="606.5" y="461.9575">State Change Result</text><polygon fill="#A80036" points="428.5,492.1563,418.5,496.1563,428.5,500.1563,424.5,496.1563" style="stroke: #A80036; stroke-width: 1.0;"/><line style="stroke: #A80036; stroke-width: 1.0; stroke-dasharray: 2.0,2.0;" x1="422.5" x2="583.5" y1="496.1563" y2="496.1563"/><text fill="#000000" font-family="sans-serif" font-size="13" lengthAdjust="spacingAndGlyphs" textLength="129" x="434.5" y="491.0903">Notify State Change</text><polygon fill="#A80036" points="255.5,521.2891,245.5,525.2891,255.5,529.2891,251.5,525.2891" style="stroke: #A80036; stroke-width: 1.0;"/><line style="stroke: #A80036; stroke-width: 1.0;" x1="249.5" x2="411.5" y1="525.2891" y2="525.2891"/><text fill="#000000" font-family="sans-serif" font-size="13" lengthAdjust="spacingAndGlyphs" textLength="89" x="261.5" y="520.2231">Display Result</text><polygon fill="#A80036" points="43.5,550.4219,33.5,554.4219,43.5,558.4219,39.5,554.4219" style="stroke: #A80036; stroke-width: 1.0;"/><line style="stroke: #A80036; stroke-width: 1.0;" x1="37.5" x2="238.5" y1="554.4219" y2="554.4219"/><text fill="#000000" font-family="sans-serif" font-size="13" lengthAdjust="spacingAndGlyphs" textLength="47" x="49.5" y="549.356">Finalize</text><!--MD5=[36686e621e7071ec842a81bf06a3bcf8]
@startuml
actor Admin
participant "FE: ViewComponent" as View
participant "FE: RobotComponent" as RobotComponent
participant "FE: RobotService" as RobotService
participant "BE: RobotController" as RobotController
participant "BE: RobotRepository" as RobotRepo

Admin -> View: wantsToChangeRobotState()
activate View

View -> RobotComponent: getActiveRobots()
activate RobotComponent

RobotComponent -> RobotService: Request Active Robots
activate RobotService

RobotService -> RobotController: Fetch Active Robots
activate RobotController

RobotController -> RobotRepo: Query Robot States
activate RobotRepo

RobotRepo - -> RobotController: Return Robot States
deactivate RobotRepo

RobotController - -> RobotService: Active Robots Data
deactivate RobotController

RobotService - -> RobotComponent: Active Robots List
deactivate RobotService

RobotComponent -> RobotService: Change Robot State
activate RobotService

RobotService -> RobotController: Update State Request
activate RobotController

RobotController -> RobotRepo: Update State
activate RobotRepo

RobotRepo - -> RobotController: State Update Confirmation
deactivate RobotRepo

RobotController - -> RobotService: State Change Result
deactivate RobotController

RobotService - -> RobotComponent: Notify State Change
deactivate RobotService

RobotComponent -> View: Display Result
deactivate RobotComponent

View -> Admin: Finalize
deactivate View
@enduml

PlantUML version 1.2020.02(Sun Mar 01 10:22:07 UTC 2020)
(GPL source distribution)
Java Runtime: OpenJDK Runtime Environment
JVM: OpenJDK 64-Bit Server VM
Java Version: 11.0.21+9
Operating System: Linux
Default Encoding: UTF-8
Language: en
Country: null
--></g></svg>