<?xml version="1.0" encoding="UTF-8" standalone="no"?><svg xmlns="http://www.w3.org/2000/svg" xmlns:xlink="http://www.w3.org/1999/xlink" contentScriptType="application/ecmascript" contentStyleType="text/css" height="1215px" preserveAspectRatio="none" style="width:1874px;height:1215px;" version="1.1" viewBox="0 0 1874 1215" width="1874px" zoomAndPan="magnify"><defs><filter height="300%" id="frzf9trbzf1du" width="300%" x="-1" y="-1"><feGaussianBlur result="blurOut" stdDeviation="2.0"/><feColorMatrix in="blurOut" result="blurOut2" type="matrix" values="0 0 0 0 0 0 0 0 0 0 0 0 0 0 0 0 0 0 .4 0"/><feOffset dx="4.0" dy="4.0" in="blurOut2" result="blurOut3"/><feBlend in="SourceGraphic" in2="blurOut3" mode="normal"/></filter></defs><g><rect fill="#FFFFFF" filter="url(#frzf9trbzf1du)" height="992.7266" style="stroke: #A80036; stroke-width: 1.0;" width="10" x="234.5" y="117.4297"/><rect fill="#FFFFFF" filter="url(#frzf9trbzf1du)" height="431.5313" style="stroke: #A80036; stroke-width: 1.0;" width="10" x="509.5" y="146.5625"/><rect fill="#FFFFFF" filter="url(#frzf9trbzf1du)" height="481.7969" style="stroke: #A80036; stroke-width: 1.0;" width="10" x="509.5" y="599.2266"/><rect fill="#FFFFFF" filter="url(#frzf9trbzf1du)" height="14" style="stroke: #A80036; stroke-width: 1.0;" width="10" x="786.5" y="491.1563"/><rect fill="#FFFFFF" filter="url(#frzf9trbzf1du)" height="14" style="stroke: #A80036; stroke-width: 1.0;" width="10" x="786.5" y="972.9531"/><rect fill="#FFFFFF" filter="url(#frzf9trbzf1du)" height="14" style="stroke: #A80036; stroke-width: 1.0;" width="10" x="786.5" y="1030.8906"/><rect fill="#FFFFFF" filter="url(#frzf9trbzf1du)" height="262.1953" style="stroke: #A80036; stroke-width: 1.0;" width="10" x="943" y="175.6953"/><rect fill="#FFFFFF" filter="url(#frzf9trbzf1du)" height="320.4609" style="stroke: #A80036; stroke-width: 1.0;" width="10" x="943" y="599.2266"/><rect fill="#FFFFFF" filter="url(#frzf9trbzf1du)" height="203.9297" style="stroke: #A80036; stroke-width: 1.0;" width="10" x="1188" y="204.8281"/><rect fill="#FFFFFF" filter="url(#frzf9trbzf1du)" height="262.1953" style="stroke: #A80036; stroke-width: 1.0;" width="10" x="1188" y="628.3594"/><rect fill="#FFFFFF" filter="url(#frzf9trbzf1du)" height="145.6641" style="stroke: #A80036; stroke-width: 1.0;" width="10" x="1416" y="233.9609"/><rect fill="#FFFFFF" filter="url(#frzf9trbzf1du)" height="203.9297" style="stroke: #A80036; stroke-width: 1.0;" width="10" x="1416" y="657.4922"/><rect fill="#FFFFFF" filter="url(#frzf9trbzf1du)" height="87.3984" style="stroke: #A80036; stroke-width: 1.0;" width="10" x="1621" y="263.0938"/><rect fill="#FFFFFF" filter="url(#frzf9trbzf1du)" height="145.6641" style="stroke: #A80036; stroke-width: 1.0;" width="10" x="1621" y="686.625"/><rect fill="#FFFFFF" filter="url(#frzf9trbzf1du)" height="29.1328" style="stroke: #A80036; stroke-width: 1.0;" width="10" x="1781" y="292.2266"/><rect fill="#FFFFFF" filter="url(#frzf9trbzf1du)" height="29.1328" style="stroke: #A80036; stroke-width: 1.0;" width="10" x="1781" y="715.7578"/><rect fill="#FFFFFF" filter="url(#frzf9trbzf1du)" height="29.1328" style="stroke: #A80036; stroke-width: 1.0;" width="10" x="1781" y="774.0234"/><rect fill="#FFFFFF" filter="url(#frzf9trbzf1du)" height="118.2031" style="stroke: #000000; stroke-width: 2.0;" width="729.5" x="150.5" y="452.8906"/><rect fill="#FFFFFF" height="57.9375" style="stroke: none; stroke-width: 1.0;" width="729.5" x="150.5" y="513.1563"/><rect fill="#FFFFFF" filter="url(#frzf9trbzf1du)" height="118.2031" style="stroke: #000000; stroke-width: 2.0;" width="459.5" x="420.5" y="934.6875"/><rect fill="#FFFFFF" height="57.9375" style="stroke: none; stroke-width: 1.0;" width="459.5" x="420.5" y="994.9531"/><line style="stroke: #A80036; stroke-width: 1.0; stroke-dasharray: 5.0,5.0;" x1="32" x2="32" y1="86.2969" y2="1128.1563"/><line style="stroke: #A80036; stroke-width: 1.0; stroke-dasharray: 5.0,5.0;" x1="239.5" x2="239.5" y1="86.2969" y2="1128.1563"/><line style="stroke: #A80036; stroke-width: 1.0; stroke-dasharray: 5.0,5.0;" x1="514.5" x2="514.5" y1="86.2969" y2="1128.1563"/><line style="stroke: #A80036; stroke-width: 1.0; stroke-dasharray: 5.0,5.0;" x1="791" x2="791" y1="86.2969" y2="1128.1563"/><line style="stroke: #A80036; stroke-width: 1.0; stroke-dasharray: 5.0,5.0;" x1="948" x2="948" y1="86.2969" y2="1128.1563"/><line style="stroke: #A80036; stroke-width: 1.0; stroke-dasharray: 5.0,5.0;" x1="1193" x2="1193" y1="86.2969" y2="1128.1563"/><line style="stroke: #A80036; stroke-width: 1.0; stroke-dasharray: 5.0,5.0;" x1="1420.5" x2="1420.5" y1="86.2969" y2="1128.1563"/><line style="stroke: #A80036; stroke-width: 1.0; stroke-dasharray: 5.0,5.0;" x1="1626" x2="1626" y1="86.2969" y2="1128.1563"/><line style="stroke: #A80036; stroke-width: 1.0; stroke-dasharray: 5.0,5.0;" x1="1786" x2="1786" y1="86.2969" y2="1128.1563"/><text fill="#000000" font-family="sans-serif" font-size="14" lengthAdjust="spacingAndGlyphs" textLength="43" x="8" y="82.9951">Admin</text><ellipse cx="32.5" cy="13" fill="#FEFECE" filter="url(#frzf9trbzf1du)" rx="8" ry="8" style="stroke: #A80036; stroke-width: 2.0;"/><path d="M32.5,21 L32.5,48 M19.5,29 L45.5,29 M32.5,48 L19.5,63 M32.5,48 L45.5,63 " fill="none" filter="url(#frzf9trbzf1du)" style="stroke: #A80036; stroke-width: 2.0;"/><text fill="#000000" font-family="sans-serif" font-size="14" lengthAdjust="spacingAndGlyphs" textLength="43" x="8" y="1140.1514">Admin</text><ellipse cx="32.5" cy="1153.4531" fill="#FEFECE" filter="url(#frzf9trbzf1du)" rx="8" ry="8" style="stroke: #A80036; stroke-width: 2.0;"/><path d="M32.5,1161.4531 L32.5,1188.4531 M19.5,1169.4531 L45.5,1169.4531 M32.5,1188.4531 L19.5,1203.4531 M32.5,1188.4531 L45.5,1203.4531 " fill="none" filter="url(#frzf9trbzf1du)" style="stroke: #A80036; stroke-width: 2.0;"/><rect fill="#FEFECE" filter="url(#frzf9trbzf1du)" height="30.2969" style="stroke: #A80036; stroke-width: 1.5;" width="154" x="160.5" y="51"/><text fill="#000000" font-family="sans-serif" font-size="14" lengthAdjust="spacingAndGlyphs" textLength="140" x="167.5" y="70.9951">FE: ViewComponent</text><rect fill="#FEFECE" filter="url(#frzf9trbzf1du)" height="30.2969" style="stroke: #A80036; stroke-width: 1.5;" width="154" x="160.5" y="1127.1563"/><text fill="#000000" font-family="sans-serif" font-size="14" lengthAdjust="spacingAndGlyphs" textLength="140" x="167.5" y="1147.1514">FE: ViewComponent</text><rect fill="#FEFECE" filter="url(#frzf9trbzf1du)" height="30.2969" style="stroke: #A80036; stroke-width: 1.5;" width="164" x="430.5" y="51"/><text fill="#000000" font-family="sans-serif" font-size="14" lengthAdjust="spacingAndGlyphs" textLength="150" x="437.5" y="70.9951">FE: RobotComponent</text><rect fill="#FEFECE" filter="url(#frzf9trbzf1du)" height="30.2969" style="stroke: #A80036; stroke-width: 1.5;" width="164" x="430.5" y="1127.1563"/><text fill="#000000" font-family="sans-serif" font-size="14" lengthAdjust="spacingAndGlyphs" textLength="150" x="437.5" y="1147.1514">FE: RobotComponent</text><rect fill="#FEFECE" filter="url(#frzf9trbzf1du)" height="30.2969" style="stroke: #A80036; stroke-width: 1.5;" width="153" x="713" y="51"/><text fill="#000000" font-family="sans-serif" font-size="14" lengthAdjust="spacingAndGlyphs" textLength="139" x="720" y="70.9951">FE: MessageService</text><rect fill="#FEFECE" filter="url(#frzf9trbzf1du)" height="30.2969" style="stroke: #A80036; stroke-width: 1.5;" width="153" x="713" y="1127.1563"/><text fill="#000000" font-family="sans-serif" font-size="14" lengthAdjust="spacingAndGlyphs" textLength="139" x="720" y="1147.1514">FE: MessageService</text><rect fill="#FEFECE" filter="url(#frzf9trbzf1du)" height="30.2969" style="stroke: #A80036; stroke-width: 1.5;" width="132" x="880" y="51"/><text fill="#000000" font-family="sans-serif" font-size="14" lengthAdjust="spacingAndGlyphs" textLength="118" x="887" y="70.9951">FE: RobotService</text><rect fill="#FEFECE" filter="url(#frzf9trbzf1du)" height="30.2969" style="stroke: #A80036; stroke-width: 1.5;" width="132" x="880" y="1127.1563"/><text fill="#000000" font-family="sans-serif" font-size="14" lengthAdjust="spacingAndGlyphs" textLength="118" x="887" y="1147.1514">FE: RobotService</text><rect fill="#FEFECE" filter="url(#frzf9trbzf1du)" height="30.2969" style="stroke: #A80036; stroke-width: 1.5;" width="144" x="1119" y="51"/><text fill="#000000" font-family="sans-serif" font-size="14" lengthAdjust="spacingAndGlyphs" textLength="130" x="1126" y="70.9951">FE: RoutingService</text><rect fill="#FEFECE" filter="url(#frzf9trbzf1du)" height="30.2969" style="stroke: #A80036; stroke-width: 1.5;" width="144" x="1119" y="1127.1563"/><text fill="#000000" font-family="sans-serif" font-size="14" lengthAdjust="spacingAndGlyphs" textLength="130" x="1126" y="1147.1514">FE: RoutingService</text><rect fill="#FEFECE" filter="url(#frzf9trbzf1du)" height="30.2969" style="stroke: #A80036; stroke-width: 1.5;" width="151" x="1343.5" y="51"/><text fill="#000000" font-family="sans-serif" font-size="14" lengthAdjust="spacingAndGlyphs" textLength="137" x="1350.5" y="70.9951">BE: RobotController</text><rect fill="#FEFECE" filter="url(#frzf9trbzf1du)" height="30.2969" style="stroke: #A80036; stroke-width: 1.5;" width="151" x="1343.5" y="1127.1563"/><text fill="#000000" font-family="sans-serif" font-size="14" lengthAdjust="spacingAndGlyphs" textLength="137" x="1350.5" y="1147.1514">BE: RobotController</text><rect fill="#FEFECE" filter="url(#frzf9trbzf1du)" height="30.2969" style="stroke: #A80036; stroke-width: 1.5;" width="134" x="1557" y="51"/><text fill="#000000" font-family="sans-serif" font-size="14" lengthAdjust="spacingAndGlyphs" textLength="120" x="1564" y="70.9951">BE: RobotService</text><rect fill="#FEFECE" filter="url(#frzf9trbzf1du)" height="30.2969" style="stroke: #A80036; stroke-width: 1.5;" width="134" x="1557" y="1127.1563"/><text fill="#000000" font-family="sans-serif" font-size="14" lengthAdjust="spacingAndGlyphs" textLength="120" x="1564" y="1147.1514">BE: RobotService</text><rect fill="#FEFECE" filter="url(#frzf9trbzf1du)" height="30.2969" style="stroke: #A80036; stroke-width: 1.5;" width="158" x="1705" y="51"/><text fill="#000000" font-family="sans-serif" font-size="14" lengthAdjust="spacingAndGlyphs" textLength="144" x="1712" y="70.9951">BE: RobotRepository</text><rect fill="#FEFECE" filter="url(#frzf9trbzf1du)" height="30.2969" style="stroke: #A80036; stroke-width: 1.5;" width="158" x="1705" y="1127.1563"/><text fill="#000000" font-family="sans-serif" font-size="14" lengthAdjust="spacingAndGlyphs" textLength="144" x="1712" y="1147.1514">BE: RobotRepository</text><rect fill="#FFFFFF" filter="url(#frzf9trbzf1du)" height="992.7266" style="stroke: #A80036; stroke-width: 1.0;" width="10" x="234.5" y="117.4297"/><rect fill="#FFFFFF" filter="url(#frzf9trbzf1du)" height="431.5313" style="stroke: #A80036; stroke-width: 1.0;" width="10" x="509.5" y="146.5625"/><rect fill="#FFFFFF" filter="url(#frzf9trbzf1du)" height="481.7969" style="stroke: #A80036; stroke-width: 1.0;" width="10" x="509.5" y="599.2266"/><rect fill="#FFFFFF" filter="url(#frzf9trbzf1du)" height="14" style="stroke: #A80036; stroke-width: 1.0;" width="10" x="786.5" y="491.1563"/><rect fill="#FFFFFF" filter="url(#frzf9trbzf1du)" height="14" style="stroke: #A80036; stroke-width: 1.0;" width="10" x="786.5" y="972.9531"/><rect fill="#FFFFFF" filter="url(#frzf9trbzf1du)" height="14" style="stroke: #A80036; stroke-width: 1.0;" width="10" x="786.5" y="1030.8906"/><rect fill="#FFFFFF" filter="url(#frzf9trbzf1du)" height="262.1953" style="stroke: #A80036; stroke-width: 1.0;" width="10" x="943" y="175.6953"/><rect fill="#FFFFFF" filter="url(#frzf9trbzf1du)" height="320.4609" style="stroke: #A80036; stroke-width: 1.0;" width="10" x="943" y="599.2266"/><rect fill="#FFFFFF" filter="url(#frzf9trbzf1du)" height="203.9297" style="stroke: #A80036; stroke-width: 1.0;" width="10" x="1188" y="204.8281"/><rect fill="#FFFFFF" filter="url(#frzf9trbzf1du)" height="262.1953" style="stroke: #A80036; stroke-width: 1.0;" width="10" x="1188" y="628.3594"/><rect fill="#FFFFFF" filter="url(#frzf9trbzf1du)" height="145.6641" style="stroke: #A80036; stroke-width: 1.0;" width="10" x="1416" y="233.9609"/><rect fill="#FFFFFF" filter="url(#frzf9trbzf1du)" height="203.9297" style="stroke: #A80036; stroke-width: 1.0;" width="10" x="1416" y="657.4922"/><rect fill="#FFFFFF" filter="url(#frzf9trbzf1du)" height="87.3984" style="stroke: #A80036; stroke-width: 1.0;" width="10" x="1621" y="263.0938"/><rect fill="#FFFFFF" filter="url(#frzf9trbzf1du)" height="145.6641" style="stroke: #A80036; stroke-width: 1.0;" width="10" x="1621" y="686.625"/><rect fill="#FFFFFF" filter="url(#frzf9trbzf1du)" height="29.1328" style="stroke: #A80036; stroke-width: 1.0;" width="10" x="1781" y="292.2266"/><rect fill="#FFFFFF" filter="url(#frzf9trbzf1du)" height="29.1328" style="stroke: #A80036; stroke-width: 1.0;" width="10" x="1781" y="715.7578"/><rect fill="#FFFFFF" filter="url(#frzf9trbzf1du)" height="29.1328" style="stroke: #A80036; stroke-width: 1.0;" width="10" x="1781" y="774.0234"/><polygon fill="#A80036" points="222.5,113.4297,232.5,117.4297,222.5,121.4297,226.5,117.4297" style="stroke: #A80036; stroke-width: 1.0;"/><line style="stroke: #A80036; stroke-width: 1.0;" x1="32.5" x2="228.5" y1="117.4297" y2="117.4297"/><text fill="#000000" font-family="sans-serif" font-size="13" lengthAdjust="spacingAndGlyphs" textLength="183" x="39.5" y="112.3638">wantsToChangeRobotState()</text><polygon fill="#A80036" points="497.5,142.5625,507.5,146.5625,497.5,150.5625,501.5,146.5625" style="stroke: #A80036; stroke-width: 1.0;"/><line style="stroke: #A80036; stroke-width: 1.0;" x1="244.5" x2="503.5" y1="146.5625" y2="146.5625"/><text fill="#000000" font-family="sans-serif" font-size="13" lengthAdjust="spacingAndGlyphs" textLength="114" x="251.5" y="141.4966">getActiveRobots()</text><polygon fill="#A80036" points="931,171.6953,941,175.6953,931,179.6953,935,175.6953" style="stroke: #A80036; stroke-width: 1.0;"/><line style="stroke: #A80036; stroke-width: 1.0;" x1="519.5" x2="937" y1="175.6953" y2="175.6953"/><text fill="#000000" font-family="sans-serif" font-size="13" lengthAdjust="spacingAndGlyphs" textLength="117" x="526.5" y="170.6294">GET(activeRobots)</text><polygon fill="#A80036" points="1176,200.8281,1186,204.8281,1176,208.8281,1180,204.8281" style="stroke: #A80036; stroke-width: 1.0;"/><line style="stroke: #A80036; stroke-width: 1.0;" x1="953" x2="1182" y1="204.8281" y2="204.8281"/><text fill="#000000" font-family="sans-serif" font-size="13" lengthAdjust="spacingAndGlyphs" textLength="152" x="960" y="199.7622">GET(routeActiveRobots)</text><polygon fill="#A80036" points="1404,229.9609,1414,233.9609,1404,237.9609,1408,233.9609" style="stroke: #A80036; stroke-width: 1.0;"/><line style="stroke: #A80036; stroke-width: 1.0;" x1="1198" x2="1410" y1="233.9609" y2="233.9609"/><text fill="#000000" font-family="sans-serif" font-size="13" lengthAdjust="spacingAndGlyphs" textLength="114" x="1205" y="228.895">getActiveRobots()</text><polygon fill="#A80036" points="1609,259.0938,1619,263.0938,1609,267.0938,1613,263.0938" style="stroke: #A80036; stroke-width: 1.0;"/><line style="stroke: #A80036; stroke-width: 1.0;" x1="1426" x2="1615" y1="263.0938" y2="263.0938"/><text fill="#000000" font-family="sans-serif" font-size="13" lengthAdjust="spacingAndGlyphs" textLength="125" x="1433" y="258.0278">fetchActiveRobots()</text><polygon fill="#A80036" points="1769,288.2266,1779,292.2266,1769,296.2266,1773,292.2266" style="stroke: #A80036; stroke-width: 1.0;"/><line style="stroke: #A80036; stroke-width: 1.0;" x1="1631" x2="1775" y1="292.2266" y2="292.2266"/><text fill="#000000" font-family="sans-serif" font-size="13" lengthAdjust="spacingAndGlyphs" textLength="48" x="1638" y="287.1606">findAll()</text><polygon fill="#A80036" points="1642,317.3594,1632,321.3594,1642,325.3594,1638,321.3594" style="stroke: #A80036; stroke-width: 1.0;"/><line style="stroke: #A80036; stroke-width: 1.0; stroke-dasharray: 2.0,2.0;" x1="1636" x2="1785" y1="321.3594" y2="321.3594"/><text fill="#000000" font-family="sans-serif" font-size="13" lengthAdjust="spacingAndGlyphs" textLength="104" x="1648" y="316.2935">activeRobotsList</text><polygon fill="#A80036" points="1437,346.4922,1427,350.4922,1437,354.4922,1433,350.4922" style="stroke: #A80036; stroke-width: 1.0;"/><line style="stroke: #A80036; stroke-width: 1.0; stroke-dasharray: 2.0,2.0;" x1="1431" x2="1625" y1="350.4922" y2="350.4922"/><text fill="#000000" font-family="sans-serif" font-size="13" lengthAdjust="spacingAndGlyphs" textLength="104" x="1443" y="345.4263">activeRobotsList</text><polygon fill="#A80036" points="1209,375.625,1199,379.625,1209,383.625,1205,379.625" style="stroke: #A80036; stroke-width: 1.0;"/><line style="stroke: #A80036; stroke-width: 1.0; stroke-dasharray: 2.0,2.0;" x1="1203" x2="1420" y1="379.625" y2="379.625"/><text fill="#000000" font-family="sans-serif" font-size="13" lengthAdjust="spacingAndGlyphs" textLength="104" x="1215" y="374.5591">activeRobotsList</text><polygon fill="#A80036" points="964,404.7578,954,408.7578,964,412.7578,960,408.7578" style="stroke: #A80036; stroke-width: 1.0;"/><line style="stroke: #A80036; stroke-width: 1.0; stroke-dasharray: 2.0,2.0;" x1="958" x2="1192" y1="408.7578" y2="408.7578"/><text fill="#000000" font-family="sans-serif" font-size="13" lengthAdjust="spacingAndGlyphs" textLength="104" x="970" y="403.6919">activeRobotsList</text><polygon fill="#A80036" points="530.5,433.8906,520.5,437.8906,530.5,441.8906,526.5,437.8906" style="stroke: #A80036; stroke-width: 1.0;"/><line style="stroke: #A80036; stroke-width: 1.0; stroke-dasharray: 2.0,2.0;" x1="524.5" x2="947" y1="437.8906" y2="437.8906"/><text fill="#000000" font-family="sans-serif" font-size="13" lengthAdjust="spacingAndGlyphs" textLength="104" x="536.5" y="432.8247">activeRobotsList</text><path d="M150.5,452.8906 L214.5,452.8906 L214.5,459.8906 L204.5,469.8906 L150.5,469.8906 L150.5,452.8906 " fill="#EEEEEE" style="stroke: #000000; stroke-width: 1.0;"/><rect fill="none" height="118.2031" style="stroke: #000000; stroke-width: 2.0;" width="729.5" x="150.5" y="452.8906"/><text fill="#000000" font-family="sans-serif" font-size="13" font-weight="bold" lengthAdjust="spacingAndGlyphs" textLength="19" x="165.5" y="465.9575">alt</text><text fill="#000000" font-family="sans-serif" font-size="11" font-weight="bold" lengthAdjust="spacingAndGlyphs" textLength="187" x="229.5" y="465.1011">[if activeRobotsList is empty]</text><polygon fill="#A80036" points="774.5,487.1563,784.5,491.1563,774.5,495.1563,778.5,491.1563" style="stroke: #A80036; stroke-width: 1.0;"/><line style="stroke: #A80036; stroke-width: 1.0;" x1="519.5" x2="780.5" y1="491.1563" y2="491.1563"/><text fill="#000000" font-family="sans-serif" font-size="13" lengthAdjust="spacingAndGlyphs" textLength="212" x="526.5" y="486.0903">displayNoActiveRobotsMessage()</text><polygon fill="#A80036" points="530.5,501.1563,520.5,505.1563,530.5,509.1563,526.5,505.1563" style="stroke: #A80036; stroke-width: 1.0;"/><line style="stroke: #A80036; stroke-width: 1.0; stroke-dasharray: 2.0,2.0;" x1="524.5" x2="790.5" y1="505.1563" y2="505.1563"/><line style="stroke: #000000; stroke-width: 1.0; stroke-dasharray: 2.0,2.0;" x1="150.5" x2="880" y1="514.1563" y2="514.1563"/><text fill="#000000" font-family="sans-serif" font-size="11" font-weight="bold" lengthAdjust="spacingAndGlyphs" textLength="212" x="155.5" y="524.3667">[if activeRobotsList is not empty]</text><polygon fill="#A80036" points="255.5,545.0938,245.5,549.0938,255.5,553.0938,251.5,549.0938" style="stroke: #A80036; stroke-width: 1.0;"/><line style="stroke: #A80036; stroke-width: 1.0;" x1="249.5" x2="508.5" y1="549.0938" y2="549.0938"/><text fill="#000000" font-family="sans-serif" font-size="13" lengthAdjust="spacingAndGlyphs" textLength="241" x="261.5" y="544.0278">displayActiveRobots(activeRobotsList)</text><polygon fill="#A80036" points="497.5,559.0938,507.5,563.0938,497.5,567.0938,501.5,563.0938" style="stroke: #A80036; stroke-width: 1.0;"/><line style="stroke: #A80036; stroke-width: 1.0; stroke-dasharray: 2.0,2.0;" x1="244.5" x2="503.5" y1="563.0938" y2="563.0938"/><polygon fill="#A80036" points="931,595.2266,941,599.2266,931,603.2266,935,599.2266" style="stroke: #A80036; stroke-width: 1.0;"/><line style="stroke: #A80036; stroke-width: 1.0;" x1="519.5" x2="937" y1="599.2266" y2="599.2266"/><text fill="#000000" font-family="sans-serif" font-size="13" lengthAdjust="spacingAndGlyphs" textLength="139" x="526.5" y="594.1606">changeState(robotID)</text><polygon fill="#A80036" points="1176,624.3594,1186,628.3594,1176,632.3594,1180,628.3594" style="stroke: #A80036; stroke-width: 1.0;"/><line style="stroke: #A80036; stroke-width: 1.0;" x1="953" x2="1182" y1="628.3594" y2="628.3594"/><text fill="#000000" font-family="sans-serif" font-size="13" lengthAdjust="spacingAndGlyphs" textLength="216" x="960" y="623.2935">PUT(routeChangeState{robotID})</text><polygon fill="#A80036" points="1404,653.4922,1414,657.4922,1404,661.4922,1408,657.4922" style="stroke: #A80036; stroke-width: 1.0;"/><line style="stroke: #A80036; stroke-width: 1.0;" x1="1198" x2="1410" y1="657.4922" y2="657.4922"/><text fill="#000000" font-family="sans-serif" font-size="13" lengthAdjust="spacingAndGlyphs" textLength="139" x="1205" y="652.4263">changeState(robotID)</text><polygon fill="#A80036" points="1609,682.625,1619,686.625,1609,690.625,1613,686.625" style="stroke: #A80036; stroke-width: 1.0;"/><line style="stroke: #A80036; stroke-width: 1.0;" x1="1426" x2="1615" y1="686.625" y2="686.625"/><text fill="#000000" font-family="sans-serif" font-size="13" lengthAdjust="spacingAndGlyphs" textLength="176" x="1433" y="681.5591">changeRobotState(robotID)</text><polygon fill="#A80036" points="1769,711.7578,1779,715.7578,1769,719.7578,1773,715.7578" style="stroke: #A80036; stroke-width: 1.0;"/><line style="stroke: #A80036; stroke-width: 1.0;" x1="1631" x2="1775" y1="715.7578" y2="715.7578"/><text fill="#000000" font-family="sans-serif" font-size="13" lengthAdjust="spacingAndGlyphs" textLength="107" x="1638" y="710.6919">findById(robotID)</text><polygon fill="#A80036" points="1642,740.8906,1632,744.8906,1642,748.8906,1638,744.8906" style="stroke: #A80036; stroke-width: 1.0;"/><line style="stroke: #A80036; stroke-width: 1.0; stroke-dasharray: 2.0,2.0;" x1="1636" x2="1785" y1="744.8906" y2="744.8906"/><text fill="#000000" font-family="sans-serif" font-size="13" lengthAdjust="spacingAndGlyphs" textLength="78" x="1648" y="739.8247">robotDetails</text><polygon fill="#A80036" points="1769,770.0234,1779,774.0234,1769,778.0234,1773,774.0234" style="stroke: #A80036; stroke-width: 1.0;"/><line style="stroke: #A80036; stroke-width: 1.0;" x1="1631" x2="1775" y1="774.0234" y2="774.0234"/><text fill="#000000" font-family="sans-serif" font-size="13" lengthAdjust="spacingAndGlyphs" textLength="124" x="1638" y="768.9575">updateState(robot)</text><polygon fill="#A80036" points="1642,799.1563,1632,803.1563,1642,807.1563,1638,803.1563" style="stroke: #A80036; stroke-width: 1.0;"/><line style="stroke: #A80036; stroke-width: 1.0; stroke-dasharray: 2.0,2.0;" x1="1636" x2="1785" y1="803.1563" y2="803.1563"/><text fill="#000000" font-family="sans-serif" font-size="13" lengthAdjust="spacingAndGlyphs" textLength="90" x="1648" y="798.0903">stateChanged</text><polygon fill="#A80036" points="1437,828.2891,1427,832.2891,1437,836.2891,1433,832.2891" style="stroke: #A80036; stroke-width: 1.0;"/><line style="stroke: #A80036; stroke-width: 1.0; stroke-dasharray: 2.0,2.0;" x1="1431" x2="1625" y1="832.2891" y2="832.2891"/><text fill="#000000" font-family="sans-serif" font-size="13" lengthAdjust="spacingAndGlyphs" textLength="129" x="1443" y="827.2231">stateChangedResult</text><polygon fill="#A80036" points="1209,857.4219,1199,861.4219,1209,865.4219,1205,861.4219" style="stroke: #A80036; stroke-width: 1.0;"/><line style="stroke: #A80036; stroke-width: 1.0; stroke-dasharray: 2.0,2.0;" x1="1203" x2="1420" y1="861.4219" y2="861.4219"/><text fill="#000000" font-family="sans-serif" font-size="13" lengthAdjust="spacingAndGlyphs" textLength="194" x="1215" y="856.356">HTTP: 200/400 (Success/Error)</text><polygon fill="#A80036" points="964,886.5547,954,890.5547,964,894.5547,960,890.5547" style="stroke: #A80036; stroke-width: 1.0;"/><line style="stroke: #A80036; stroke-width: 1.0; stroke-dasharray: 2.0,2.0;" x1="958" x2="1192" y1="890.5547" y2="890.5547"/><text fill="#000000" font-family="sans-serif" font-size="13" lengthAdjust="spacingAndGlyphs" textLength="194" x="970" y="885.4888">HTTP: 200/400 (Success/Error)</text><polygon fill="#A80036" points="530.5,915.6875,520.5,919.6875,530.5,923.6875,526.5,919.6875" style="stroke: #A80036; stroke-width: 1.0;"/><line style="stroke: #A80036; stroke-width: 1.0; stroke-dasharray: 2.0,2.0;" x1="524.5" x2="947" y1="919.6875" y2="919.6875"/><text fill="#000000" font-family="sans-serif" font-size="13" lengthAdjust="spacingAndGlyphs" textLength="194" x="536.5" y="914.6216">HTTP: 200/400 (Success/Error)</text><path d="M420.5,934.6875 L484.5,934.6875 L484.5,941.6875 L474.5,951.6875 L420.5,951.6875 L420.5,934.6875 " fill="#EEEEEE" style="stroke: #000000; stroke-width: 1.0;"/><rect fill="none" height="118.2031" style="stroke: #000000; stroke-width: 2.0;" width="459.5" x="420.5" y="934.6875"/><text fill="#000000" font-family="sans-serif" font-size="13" font-weight="bold" lengthAdjust="spacingAndGlyphs" textLength="19" x="435.5" y="947.7544">alt</text><text fill="#000000" font-family="sans-serif" font-size="11" font-weight="bold" lengthAdjust="spacingAndGlyphs" textLength="162" x="499.5" y="946.8979">[if state change success]</text><polygon fill="#A80036" points="774.5,968.9531,784.5,972.9531,774.5,976.9531,778.5,972.9531" style="stroke: #A80036; stroke-width: 1.0;"/><line style="stroke: #A80036; stroke-width: 1.0;" x1="519.5" x2="780.5" y1="972.9531" y2="972.9531"/><text fill="#000000" font-family="sans-serif" font-size="13" lengthAdjust="spacingAndGlyphs" textLength="248" x="526.5" y="967.8872">displayStateChangeSuccessMessage()</text><polygon fill="#A80036" points="530.5,982.9531,520.5,986.9531,530.5,990.9531,526.5,986.9531" style="stroke: #A80036; stroke-width: 1.0;"/><line style="stroke: #A80036; stroke-width: 1.0; stroke-dasharray: 2.0,2.0;" x1="524.5" x2="790.5" y1="986.9531" y2="986.9531"/><line style="stroke: #000000; stroke-width: 1.0; stroke-dasharray: 2.0,2.0;" x1="420.5" x2="880" y1="995.9531" y2="995.9531"/><text fill="#000000" font-family="sans-serif" font-size="11" font-weight="bold" lengthAdjust="spacingAndGlyphs" textLength="142" x="425.5" y="1006.1636">[if state change error]</text><polygon fill="#A80036" points="774.5,1026.8906,784.5,1030.8906,774.5,1034.8906,778.5,1030.8906" style="stroke: #A80036; stroke-width: 1.0;"/><line style="stroke: #A80036; stroke-width: 1.0;" x1="519.5" x2="780.5" y1="1030.8906" y2="1030.8906"/><text fill="#000000" font-family="sans-serif" font-size="13" lengthAdjust="spacingAndGlyphs" textLength="226" x="526.5" y="1025.8247">displayStateChangeErrorMessage()</text><polygon fill="#A80036" points="530.5,1040.8906,520.5,1044.8906,530.5,1048.8906,526.5,1044.8906" style="stroke: #A80036; stroke-width: 1.0;"/><line style="stroke: #A80036; stroke-width: 1.0; stroke-dasharray: 2.0,2.0;" x1="524.5" x2="790.5" y1="1044.8906" y2="1044.8906"/><polygon fill="#A80036" points="255.5,1077.0234,245.5,1081.0234,255.5,1085.0234,251.5,1081.0234" style="stroke: #A80036; stroke-width: 1.0;"/><line style="stroke: #A80036; stroke-width: 1.0;" x1="249.5" x2="513.5" y1="1081.0234" y2="1081.0234"/><text fill="#000000" font-family="sans-serif" font-size="13" lengthAdjust="spacingAndGlyphs" textLength="99" x="261.5" y="1075.9575">showMessage()</text><polygon fill="#A80036" points="43.5,1106.1563,33.5,1110.1563,43.5,1114.1563,39.5,1110.1563" style="stroke: #A80036; stroke-width: 1.0;"/><line style="stroke: #A80036; stroke-width: 1.0;" x1="37.5" x2="238.5" y1="1110.1563" y2="1110.1563"/><text fill="#000000" font-family="sans-serif" font-size="13" lengthAdjust="spacingAndGlyphs" textLength="93" x="49.5" y="1105.0903">displayResult()</text><!--MD5=[f0855d76771f4cf119bd559ff456d2ae]
@startuml
actor Admin
participant "FE: ViewComponent" as View
participant "FE: RobotComponent" as RobotComponent
participant "FE: MessageService" as MessageService
participant "FE: RobotService" as RobotService
participant "FE: RoutingService" as RoutingService
participant "BE: RobotController" as RobotController
participant "BE: RobotService" as BackendRobotService
participant "BE: RobotRepository" as RobotRepo

Admin -> View: wantsToChangeRobotState()
activate View

View -> RobotComponent: getActiveRobots()
activate RobotComponent

RobotComponent -> RobotService: GET(activeRobots)
activate RobotService

RobotService -> RoutingService: GET(routeActiveRobots)
activate RoutingService

RoutingService -> RobotController: getActiveRobots()
activate RobotController

RobotController -> BackendRobotService: fetchActiveRobots()
activate BackendRobotService

BackendRobotService -> RobotRepo: findAll()
activate RobotRepo

RobotRepo - -> BackendRobotService: activeRobotsList
deactivate RobotRepo

BackendRobotService - -> RobotController: activeRobotsList
deactivate BackendRobotService

RobotController - -> RoutingService: activeRobotsList
deactivate RobotController

RoutingService - -> RobotService: activeRobotsList
deactivate RoutingService

RobotService - -> RobotComponent: activeRobotsList
deactivate RobotService

alt if activeRobotsList is empty
    RobotComponent -> MessageService: displayNoActiveRobotsMessage()
    activate MessageService
    MessageService - -> RobotComponent
    deactivate MessageService
else if activeRobotsList is not empty
    RobotComponent -> View: displayActiveRobots(activeRobotsList)
    View - -> RobotComponent
end

deactivate RobotComponent

RobotComponent -> RobotService: changeState(robotID)
activate RobotComponent
activate RobotService

RobotService -> RoutingService: PUT(routeChangeState{robotID})
activate RoutingService

RoutingService -> RobotController: changeState(robotID)
activate RobotController

RobotController -> BackendRobotService: changeRobotState(robotID)
activate BackendRobotService

BackendRobotService -> RobotRepo: findById(robotID)
activate RobotRepo

RobotRepo - -> BackendRobotService: robotDetails
deactivate RobotRepo

BackendRobotService -> RobotRepo: updateState(robot)
activate RobotRepo

RobotRepo - -> BackendRobotService: stateChanged
deactivate RobotRepo

BackendRobotService - -> RobotController: stateChangedResult
deactivate BackendRobotService

RobotController - -> RoutingService: HTTP: 200/400 (Success/Error)
deactivate RobotController

RoutingService - -> RobotService: HTTP: 200/400 (Success/Error)
deactivate RoutingService

RobotService - -> RobotComponent: HTTP: 200/400 (Success/Error)
deactivate RobotService

alt if state change success
    RobotComponent -> MessageService: displayStateChangeSuccessMessage()
    activate MessageService
    MessageService - -> RobotComponent
    deactivate MessageService
else if state change error
    RobotComponent -> MessageService: displayStateChangeErrorMessage()
    activate MessageService
    MessageService - -> RobotComponent
    deactivate MessageService
end

RobotComponent -> View: showMessage()
deactivate RobotComponent

View -> Admin: displayResult()
deactivate View
@enduml

PlantUML version 1.2020.02(Sun Mar 01 10:22:07 UTC 2020)
(GPL source distribution)
Java Runtime: OpenJDK Runtime Environment
JVM: OpenJDK 64-Bit Server VM
Java Version: 11.0.21+9
Operating System: Linux
Default Encoding: UTF-8
Language: en
Country: null
--></g></svg>