<?xml version="1.0" encoding="UTF-8" standalone="no"?><svg xmlns="http://www.w3.org/2000/svg" xmlns:xlink="http://www.w3.org/1999/xlink" contentScriptType="application/ecmascript" contentStyleType="text/css" height="528px" preserveAspectRatio="none" style="width:1152px;height:528px;" version="1.1" viewBox="0 0 1152 528" width="1152px" zoomAndPan="magnify"><defs><filter height="300%" id="fd0nxb3wrwmfl" width="300%" x="-1" y="-1"><feGaussianBlur result="blurOut" stdDeviation="2.0"/><feColorMatrix in="blurOut" result="blurOut2" type="matrix" values="0 0 0 0 0 0 0 0 0 0 0 0 0 0 0 0 0 0 .4 0"/><feOffset dx="4.0" dy="4.0" in="blurOut2" result="blurOut3"/><feBlend in="SourceGraphic" in2="blurOut3" mode="normal"/></filter></defs><g><rect fill="#FFFFFF" filter="url(#fd0nxb3wrwmfl)" height="305.3281" style="stroke: #A80036; stroke-width: 1.0;" width="10" x="146.5" y="117.4297"/><rect fill="#FFFFFF" filter="url(#fd0nxb3wrwmfl)" height="203.9297" style="stroke: #A80036; stroke-width: 1.0;" width="10" x="308.5" y="146.5625"/><rect fill="#FFFFFF" filter="url(#fd0nxb3wrwmfl)" height="14" style="stroke: #A80036; stroke-width: 1.0;" width="10" x="453.5" y="379.625"/><rect fill="#FFFFFF" filter="url(#fd0nxb3wrwmfl)" height="145.6641" style="stroke: #A80036; stroke-width: 1.0;" width="10" x="608" y="175.6953"/><rect fill="#FFFFFF" filter="url(#fd0nxb3wrwmfl)" height="87.3984" style="stroke: #A80036; stroke-width: 1.0;" width="10" x="816" y="204.8281"/><rect fill="#FFFFFF" filter="url(#fd0nxb3wrwmfl)" height="29.1328" style="stroke: #A80036; stroke-width: 1.0;" width="10" x="1065" y="233.9609"/><line style="stroke: #A80036; stroke-width: 1.0; stroke-dasharray: 5.0,5.0;" x1="27" x2="27" y1="86.2969" y2="440.7578"/><line style="stroke: #A80036; stroke-width: 1.0; stroke-dasharray: 5.0,5.0;" x1="151" x2="151" y1="86.2969" y2="440.7578"/><line style="stroke: #A80036; stroke-width: 1.0; stroke-dasharray: 5.0,5.0;" x1="313" x2="313" y1="86.2969" y2="440.7578"/><line style="stroke: #A80036; stroke-width: 1.0; stroke-dasharray: 5.0,5.0;" x1="458" x2="458" y1="86.2969" y2="440.7578"/><line style="stroke: #A80036; stroke-width: 1.0; stroke-dasharray: 5.0,5.0;" x1="613" x2="613" y1="86.2969" y2="440.7578"/><line style="stroke: #A80036; stroke-width: 1.0; stroke-dasharray: 5.0,5.0;" x1="820.5" x2="820.5" y1="86.2969" y2="440.7578"/><line style="stroke: #A80036; stroke-width: 1.0; stroke-dasharray: 5.0,5.0;" x1="1069.5" x2="1069.5" y1="86.2969" y2="440.7578"/><text fill="#000000" font-family="sans-serif" font-size="14" lengthAdjust="spacingAndGlyphs" textLength="32" x="8" y="82.9951">User</text><ellipse cx="27" cy="13" fill="#FEFECE" filter="url(#fd0nxb3wrwmfl)" rx="8" ry="8" style="stroke: #A80036; stroke-width: 2.0;"/><path d="M27,21 L27,48 M14,29 L40,29 M27,48 L14,63 M27,48 L40,63 " fill="none" filter="url(#fd0nxb3wrwmfl)" style="stroke: #A80036; stroke-width: 2.0;"/><text fill="#000000" font-family="sans-serif" font-size="14" lengthAdjust="spacingAndGlyphs" textLength="32" x="8" y="452.7529">User</text><ellipse cx="27" cy="466.0547" fill="#FEFECE" filter="url(#fd0nxb3wrwmfl)" rx="8" ry="8" style="stroke: #A80036; stroke-width: 2.0;"/><path d="M27,474.0547 L27,501.0547 M14,482.0547 L40,482.0547 M27,501.0547 L14,516.0547 M27,501.0547 L40,516.0547 " fill="none" filter="url(#fd0nxb3wrwmfl)" style="stroke: #A80036; stroke-width: 2.0;"/><rect fill="#FEFECE" filter="url(#fd0nxb3wrwmfl)" height="30.2969" style="stroke: #A80036; stroke-width: 1.5;" width="187" x="56" y="51"/><text fill="#000000" font-family="sans-serif" font-size="14" lengthAdjust="spacingAndGlyphs" textLength="173" x="63" y="70.9951">FE: CreateLiftComponent</text><rect fill="#FEFECE" filter="url(#fd0nxb3wrwmfl)" height="30.2969" style="stroke: #A80036; stroke-width: 1.5;" width="187" x="56" y="439.7578"/><text fill="#000000" font-family="sans-serif" font-size="14" lengthAdjust="spacingAndGlyphs" textLength="173" x="63" y="459.7529">FE: CreateLiftComponent</text><rect fill="#FEFECE" filter="url(#fd0nxb3wrwmfl)" height="30.2969" style="stroke: #A80036; stroke-width: 1.5;" width="109" x="257" y="51"/><text fill="#000000" font-family="sans-serif" font-size="14" lengthAdjust="spacingAndGlyphs" textLength="95" x="264" y="70.9951">FE: LiftService</text><rect fill="#FEFECE" filter="url(#fd0nxb3wrwmfl)" height="30.2969" style="stroke: #A80036; stroke-width: 1.5;" width="109" x="257" y="439.7578"/><text fill="#000000" font-family="sans-serif" font-size="14" lengthAdjust="spacingAndGlyphs" textLength="95" x="264" y="459.7529">FE: LiftService</text><rect fill="#FEFECE" filter="url(#fd0nxb3wrwmfl)" height="30.2969" style="stroke: #A80036; stroke-width: 1.5;" width="153" x="380" y="51"/><text fill="#000000" font-family="sans-serif" font-size="14" lengthAdjust="spacingAndGlyphs" textLength="139" x="387" y="70.9951">FE: MessageService</text><rect fill="#FEFECE" filter="url(#fd0nxb3wrwmfl)" height="30.2969" style="stroke: #A80036; stroke-width: 1.5;" width="153" x="380" y="439.7578"/><text fill="#000000" font-family="sans-serif" font-size="14" lengthAdjust="spacingAndGlyphs" textLength="139" x="387" y="459.7529">FE: MessageService</text><rect fill="#FEFECE" filter="url(#fd0nxb3wrwmfl)" height="30.2969" style="stroke: #A80036; stroke-width: 1.5;" width="128" x="547" y="51"/><text fill="#000000" font-family="sans-serif" font-size="14" lengthAdjust="spacingAndGlyphs" textLength="114" x="554" y="70.9951">BE: LiftController</text><rect fill="#FEFECE" filter="url(#fd0nxb3wrwmfl)" height="30.2969" style="stroke: #A80036; stroke-width: 1.5;" width="128" x="547" y="439.7578"/><text fill="#000000" font-family="sans-serif" font-size="14" lengthAdjust="spacingAndGlyphs" textLength="114" x="554" y="459.7529">BE: LiftController</text><rect fill="#FEFECE" filter="url(#fd0nxb3wrwmfl)" height="30.2969" style="stroke: #A80036; stroke-width: 1.5;" width="111" x="763.5" y="51"/><text fill="#000000" font-family="sans-serif" font-size="14" lengthAdjust="spacingAndGlyphs" textLength="97" x="770.5" y="70.9951">BE: LiftService</text><rect fill="#FEFECE" filter="url(#fd0nxb3wrwmfl)" height="30.2969" style="stroke: #A80036; stroke-width: 1.5;" width="111" x="763.5" y="439.7578"/><text fill="#000000" font-family="sans-serif" font-size="14" lengthAdjust="spacingAndGlyphs" textLength="97" x="770.5" y="459.7529">BE: LiftService</text><rect fill="#FEFECE" filter="url(#fd0nxb3wrwmfl)" height="30.2969" style="stroke: #A80036; stroke-width: 1.5;" width="147" x="994.5" y="51"/><text fill="#000000" font-family="sans-serif" font-size="14" lengthAdjust="spacingAndGlyphs" textLength="133" x="1001.5" y="70.9951">BE: BuildingService</text><rect fill="#FEFECE" filter="url(#fd0nxb3wrwmfl)" height="30.2969" style="stroke: #A80036; stroke-width: 1.5;" width="147" x="994.5" y="439.7578"/><text fill="#000000" font-family="sans-serif" font-size="14" lengthAdjust="spacingAndGlyphs" textLength="133" x="1001.5" y="459.7529">BE: BuildingService</text><rect fill="#FFFFFF" filter="url(#fd0nxb3wrwmfl)" height="305.3281" style="stroke: #A80036; stroke-width: 1.0;" width="10" x="146.5" y="117.4297"/><rect fill="#FFFFFF" filter="url(#fd0nxb3wrwmfl)" height="203.9297" style="stroke: #A80036; stroke-width: 1.0;" width="10" x="308.5" y="146.5625"/><rect fill="#FFFFFF" filter="url(#fd0nxb3wrwmfl)" height="14" style="stroke: #A80036; stroke-width: 1.0;" width="10" x="453.5" y="379.625"/><rect fill="#FFFFFF" filter="url(#fd0nxb3wrwmfl)" height="145.6641" style="stroke: #A80036; stroke-width: 1.0;" width="10" x="608" y="175.6953"/><rect fill="#FFFFFF" filter="url(#fd0nxb3wrwmfl)" height="87.3984" style="stroke: #A80036; stroke-width: 1.0;" width="10" x="816" y="204.8281"/><rect fill="#FFFFFF" filter="url(#fd0nxb3wrwmfl)" height="29.1328" style="stroke: #A80036; stroke-width: 1.0;" width="10" x="1065" y="233.9609"/><polygon fill="#A80036" points="134.5,113.4297,144.5,117.4297,134.5,121.4297,138.5,117.4297" style="stroke: #A80036; stroke-width: 1.0;"/><line style="stroke: #A80036; stroke-width: 1.0;" x1="27" x2="140.5" y1="117.4297" y2="117.4297"/><text fill="#000000" font-family="sans-serif" font-size="13" lengthAdjust="spacingAndGlyphs" textLength="56" x="34" y="112.3638">fillForm()</text><polygon fill="#A80036" points="296.5,142.5625,306.5,146.5625,296.5,150.5625,300.5,146.5625" style="stroke: #A80036; stroke-width: 1.0;"/><line style="stroke: #A80036; stroke-width: 1.0;" x1="156.5" x2="302.5" y1="146.5625" y2="146.5625"/><text fill="#000000" font-family="sans-serif" font-size="13" lengthAdjust="spacingAndGlyphs" textLength="116" x="163.5" y="141.4966">createLift(liftData)</text><polygon fill="#A80036" points="596,171.6953,606,175.6953,596,179.6953,600,175.6953" style="stroke: #A80036; stroke-width: 1.0;"/><line style="stroke: #A80036; stroke-width: 1.0;" x1="318.5" x2="602" y1="175.6953" y2="175.6953"/><text fill="#000000" font-family="sans-serif" font-size="13" lengthAdjust="spacingAndGlyphs" textLength="182" x="325.5" y="170.6294">sendCreateRequest(liftData)</text><polygon fill="#A80036" points="804,200.8281,814,204.8281,804,208.8281,808,204.8281" style="stroke: #A80036; stroke-width: 1.0;"/><line style="stroke: #A80036; stroke-width: 1.0;" x1="618" x2="810" y1="204.8281" y2="204.8281"/><text fill="#000000" font-family="sans-serif" font-size="13" lengthAdjust="spacingAndGlyphs" textLength="179" x="625" y="199.7622">processLiftCreation(liftData)</text><polygon fill="#A80036" points="1053,229.9609,1063,233.9609,1053,237.9609,1057,233.9609" style="stroke: #A80036; stroke-width: 1.0;"/><line style="stroke: #A80036; stroke-width: 1.0;" x1="826" x2="1059" y1="233.9609" y2="233.9609"/><text fill="#000000" font-family="sans-serif" font-size="13" lengthAdjust="spacingAndGlyphs" textLength="220" x="833" y="228.895">validateBuilding(liftData.buildingId)</text><polygon fill="#A80036" points="837,259.0938,827,263.0938,837,267.0938,833,263.0938" style="stroke: #A80036; stroke-width: 1.0;"/><line style="stroke: #A80036; stroke-width: 1.0; stroke-dasharray: 2.0,2.0;" x1="831" x2="1069" y1="263.0938" y2="263.0938"/><text fill="#000000" font-family="sans-serif" font-size="13" lengthAdjust="spacingAndGlyphs" textLength="125" x="843" y="258.0278">ValidationResponse</text><polygon fill="#A80036" points="629,288.2266,619,292.2266,629,296.2266,625,292.2266" style="stroke: #A80036; stroke-width: 1.0;"/><line style="stroke: #A80036; stroke-width: 1.0; stroke-dasharray: 2.0,2.0;" x1="623" x2="820" y1="292.2266" y2="292.2266"/><text fill="#000000" font-family="sans-serif" font-size="13" lengthAdjust="spacingAndGlyphs" textLength="116" x="635" y="287.1606">CreationResponse</text><polygon fill="#A80036" points="329.5,317.3594,319.5,321.3594,329.5,325.3594,325.5,321.3594" style="stroke: #A80036; stroke-width: 1.0;"/><line style="stroke: #A80036; stroke-width: 1.0; stroke-dasharray: 2.0,2.0;" x1="323.5" x2="612" y1="321.3594" y2="321.3594"/><text fill="#000000" font-family="sans-serif" font-size="13" lengthAdjust="spacingAndGlyphs" textLength="62" x="335.5" y="316.2935">Response</text><polygon fill="#A80036" points="167.5,346.4922,157.5,350.4922,167.5,354.4922,163.5,350.4922" style="stroke: #A80036; stroke-width: 1.0;"/><line style="stroke: #A80036; stroke-width: 1.0; stroke-dasharray: 2.0,2.0;" x1="161.5" x2="312.5" y1="350.4922" y2="350.4922"/><text fill="#000000" font-family="sans-serif" font-size="13" lengthAdjust="spacingAndGlyphs" textLength="62" x="173.5" y="345.4263">Response</text><polygon fill="#A80036" points="441.5,375.625,451.5,379.625,441.5,383.625,445.5,379.625" style="stroke: #A80036; stroke-width: 1.0;"/><line style="stroke: #A80036; stroke-width: 1.0;" x1="156.5" x2="447.5" y1="379.625" y2="379.625"/><text fill="#000000" font-family="sans-serif" font-size="13" lengthAdjust="spacingAndGlyphs" textLength="173" x="163.5" y="374.5591">displayMessage(Response)</text><polygon fill="#A80036" points="167.5,389.625,157.5,393.625,167.5,397.625,163.5,393.625" style="stroke: #A80036; stroke-width: 1.0;"/><line style="stroke: #A80036; stroke-width: 1.0; stroke-dasharray: 2.0,2.0;" x1="161.5" x2="457.5" y1="393.625" y2="393.625"/><polygon fill="#A80036" points="38,418.7578,28,422.7578,38,426.7578,34,422.7578" style="stroke: #A80036; stroke-width: 1.0;"/><line style="stroke: #A80036; stroke-width: 1.0;" x1="32" x2="150.5" y1="422.7578" y2="422.7578"/><text fill="#000000" font-family="sans-serif" font-size="13" lengthAdjust="spacingAndGlyphs" textLength="83" x="44" y="417.6919">ShowResult()</text><!--MD5=[bef3b80f444ed6c1182c955cbfaef5c6]
@startuml
actor User
participant "FE: CreateLiftComponent" as FrontEnd
participant "FE: LiftService" as LiftService
participant "FE: MessageService" as MessageService
participant "BE: LiftController" as LiftController
participant "BE: LiftService" as BackendLiftService
participant "BE: BuildingService" as BuildingService

User -> FrontEnd: fillForm()
activate FrontEnd

FrontEnd -> LiftService: createLift(liftData)
activate LiftService
LiftService -> LiftController: sendCreateRequest(liftData)
activate LiftController

LiftController -> BackendLiftService: processLiftCreation(liftData)
activate BackendLiftService
BackendLiftService -> BuildingService: validateBuilding(liftData.buildingId)
activate BuildingService
BuildingService - -> BackendLiftService: ValidationResponse
deactivate BuildingService
BackendLiftService - -> LiftController: CreationResponse
deactivate BackendLiftService
LiftController - -> LiftService: Response
deactivate LiftController
LiftService - -> FrontEnd: Response
deactivate LiftService

FrontEnd -> MessageService: displayMessage(Response)
activate MessageService
MessageService - -> FrontEnd
deactivate MessageService

FrontEnd -> User: ShowResult()
deactivate FrontEnd
@enduml

PlantUML version 1.2020.02(Sun Mar 01 10:22:07 UTC 2020)
(GPL source distribution)
Java Runtime: OpenJDK Runtime Environment
JVM: OpenJDK 64-Bit Server VM
Java Version: 11.0.21+9
Operating System: Linux
Default Encoding: UTF-8
Language: en
Country: null
--></g></svg>