<?xml version="1.0" encoding="UTF-8" standalone="no"?><svg xmlns="http://www.w3.org/2000/svg" xmlns:xlink="http://www.w3.org/1999/xlink" contentScriptType="application/ecmascript" contentStyleType="text/css" height="518px" preserveAspectRatio="none" style="width:666px;height:518px;" version="1.1" viewBox="0 0 666 518" width="666px" zoomAndPan="magnify"><defs><filter height="300%" id="f1cx7g8mfy5vtd" width="300%" x="-1" y="-1"><feGaussianBlur result="blurOut" stdDeviation="2.0"/><feColorMatrix in="blurOut" result="blurOut2" type="matrix" values="0 0 0 0 0 0 0 0 0 0 0 0 0 0 0 0 0 0 .4 0"/><feOffset dx="4.0" dy="4.0" in="blurOut2" result="blurOut3"/><feBlend in="SourceGraphic" in2="blurOut3" mode="normal"/></filter></defs><g><rect fill="#FFFFFF" filter="url(#f1cx7g8mfy5vtd)" height="303.8047" style="stroke: #A80036; stroke-width: 1.0;" width="10" x="228" y="117.4297"/><rect fill="#FFFFFF" filter="url(#f1cx7g8mfy5vtd)" height="170.4688" style="stroke: #A80036; stroke-width: 1.0;" width="10" x="420" y="146.5625"/><rect fill="#FFFFFF" filter="url(#f1cx7g8mfy5vtd)" height="29.1328" style="stroke: #A80036; stroke-width: 1.0;" width="10" x="603" y="199.8281"/><rect fill="#FFFFFF" filter="url(#f1cx7g8mfy5vtd)" height="148.4688" style="stroke: #000000; stroke-width: 2.0;" width="517" x="137" y="161.5625"/><rect fill="#FFFFFF" height="43.9375" style="stroke: none; stroke-width: 1.0;" width="517" x="137" y="266.0938"/><rect fill="#FFFFFF" filter="url(#f1cx7g8mfy5vtd)" height="90.2031" style="stroke: #000000; stroke-width: 2.0;" width="316" x="13" y="324.0313"/><rect fill="#FFFFFF" height="43.9375" style="stroke: none; stroke-width: 1.0;" width="316" x="13" y="370.2969"/><line style="stroke: #A80036; stroke-width: 1.0; stroke-dasharray: 5.0,5.0;" x1="42" x2="42" y1="86.2969" y2="431.2344"/><line style="stroke: #A80036; stroke-width: 1.0; stroke-dasharray: 5.0,5.0;" x1="233" x2="233" y1="86.2969" y2="431.2344"/><line style="stroke: #A80036; stroke-width: 1.0; stroke-dasharray: 5.0,5.0;" x1="425" x2="425" y1="86.2969" y2="431.2344"/><line style="stroke: #A80036; stroke-width: 1.0; stroke-dasharray: 5.0,5.0;" x1="608" x2="608" y1="86.2969" y2="431.2344"/><text fill="#000000" font-family="sans-serif" font-size="14" lengthAdjust="spacingAndGlyphs" textLength="32" x="23" y="82.9951">User</text><ellipse cx="42" cy="13" fill="#FEFECE" filter="url(#f1cx7g8mfy5vtd)" rx="8" ry="8" style="stroke: #A80036; stroke-width: 2.0;"/><path d="M42,21 L42,48 M29,29 L55,29 M42,48 L29,63 M42,48 L55,63 " fill="none" filter="url(#f1cx7g8mfy5vtd)" style="stroke: #A80036; stroke-width: 2.0;"/><text fill="#000000" font-family="sans-serif" font-size="14" lengthAdjust="spacingAndGlyphs" textLength="32" x="23" y="443.2295">User</text><ellipse cx="42" cy="456.5313" fill="#FEFECE" filter="url(#f1cx7g8mfy5vtd)" rx="8" ry="8" style="stroke: #A80036; stroke-width: 2.0;"/><path d="M42,464.5313 L42,491.5313 M29,472.5313 L55,472.5313 M42,491.5313 L29,506.5313 M42,491.5313 L55,506.5313 " fill="none" filter="url(#f1cx7g8mfy5vtd)" style="stroke: #A80036; stroke-width: 2.0;"/><rect fill="#FEFECE" filter="url(#f1cx7g8mfy5vtd)" height="46.5938" style="stroke: #A80036; stroke-width: 1.5;" width="168" x="147" y="34.7031"/><text fill="#000000" font-family="sans-serif" font-size="14" lengthAdjust="spacingAndGlyphs" textLength="63" x="199.5" y="54.6982">Frontend</text><text fill="#000000" font-family="sans-serif" font-size="14" lengthAdjust="spacingAndGlyphs" textLength="154" x="154" y="70.9951">(Register Component)</text><rect fill="#FEFECE" filter="url(#f1cx7g8mfy5vtd)" height="46.5938" style="stroke: #A80036; stroke-width: 1.5;" width="168" x="147" y="430.2344"/><text fill="#000000" font-family="sans-serif" font-size="14" lengthAdjust="spacingAndGlyphs" textLength="63" x="199.5" y="450.2295">Frontend</text><text fill="#000000" font-family="sans-serif" font-size="14" lengthAdjust="spacingAndGlyphs" textLength="154" x="154" y="466.5264">(Register Component)</text><rect fill="#FEFECE" filter="url(#f1cx7g8mfy5vtd)" height="46.5938" style="stroke: #A80036; stroke-width: 1.5;" width="110" x="368" y="34.7031"/><text fill="#000000" font-family="sans-serif" font-size="14" lengthAdjust="spacingAndGlyphs" textLength="61" x="392.5" y="54.6982">Backend</text><text fill="#000000" font-family="sans-serif" font-size="14" lengthAdjust="spacingAndGlyphs" textLength="96" x="375" y="70.9951">(User Service)</text><rect fill="#FEFECE" filter="url(#f1cx7g8mfy5vtd)" height="46.5938" style="stroke: #A80036; stroke-width: 1.5;" width="110" x="368" y="430.2344"/><text fill="#000000" font-family="sans-serif" font-size="14" lengthAdjust="spacingAndGlyphs" textLength="61" x="392.5" y="450.2295">Backend</text><text fill="#000000" font-family="sans-serif" font-size="14" lengthAdjust="spacingAndGlyphs" textLength="96" x="375" y="466.5264">(User Service)</text><text fill="#000000" font-family="sans-serif" font-size="14" lengthAdjust="spacingAndGlyphs" textLength="66" x="572" y="82.9951">Database</text><path d="M590,34 C590,24 608,24 608,24 C608,24 626,24 626,34 L626,60 C626,70 608,70 608,70 C608,70 590,70 590,60 L590,34 " fill="#FEFECE" filter="url(#f1cx7g8mfy5vtd)" style="stroke: #000000; stroke-width: 1.5;"/><path d="M590,34 C590,44 608,44 608,44 C608,44 626,44 626,34 " fill="none" style="stroke: #000000; stroke-width: 1.5;"/><text fill="#000000" font-family="sans-serif" font-size="14" lengthAdjust="spacingAndGlyphs" textLength="66" x="572" y="443.2295">Database</text><path d="M590,456.5313 C590,446.5313 608,446.5313 608,446.5313 C608,446.5313 626,446.5313 626,456.5313 L626,482.5313 C626,492.5313 608,492.5313 608,492.5313 C608,492.5313 590,492.5313 590,482.5313 L590,456.5313 " fill="#FEFECE" filter="url(#f1cx7g8mfy5vtd)" style="stroke: #000000; stroke-width: 1.5;"/><path d="M590,456.5313 C590,466.5313 608,466.5313 608,466.5313 C608,466.5313 626,466.5313 626,456.5313 " fill="none" style="stroke: #000000; stroke-width: 1.5;"/><rect fill="#FFFFFF" filter="url(#f1cx7g8mfy5vtd)" height="303.8047" style="stroke: #A80036; stroke-width: 1.0;" width="10" x="228" y="117.4297"/><rect fill="#FFFFFF" filter="url(#f1cx7g8mfy5vtd)" height="170.4688" style="stroke: #A80036; stroke-width: 1.0;" width="10" x="420" y="146.5625"/><rect fill="#FFFFFF" filter="url(#f1cx7g8mfy5vtd)" height="29.1328" style="stroke: #A80036; stroke-width: 1.0;" width="10" x="603" y="199.8281"/><polygon fill="#A80036" points="216,113.4297,226,117.4297,216,121.4297,220,117.4297" style="stroke: #A80036; stroke-width: 1.0;"/><line style="stroke: #A80036; stroke-width: 1.0;" x1="42" x2="222" y1="117.4297" y2="117.4297"/><text fill="#000000" font-family="sans-serif" font-size="13" lengthAdjust="spacingAndGlyphs" textLength="167" x="49" y="112.3638">"Enter registration details"</text><polygon fill="#A80036" points="408,142.5625,418,146.5625,408,150.5625,412,146.5625" style="stroke: #A80036; stroke-width: 1.0;"/><line style="stroke: #A80036; stroke-width: 1.0;" x1="238" x2="414" y1="146.5625" y2="146.5625"/><text fill="#000000" font-family="sans-serif" font-size="13" lengthAdjust="spacingAndGlyphs" textLength="94" x="245" y="141.4966">"Register user"</text><path d="M137,161.5625 L201,161.5625 L201,168.5625 L191,178.5625 L137,178.5625 L137,161.5625 " fill="#EEEEEE" style="stroke: #000000; stroke-width: 1.0;"/><rect fill="none" height="148.4688" style="stroke: #000000; stroke-width: 2.0;" width="517" x="137" y="161.5625"/><text fill="#000000" font-family="sans-serif" font-size="13" font-weight="bold" lengthAdjust="spacingAndGlyphs" textLength="19" x="152" y="174.6294">alt</text><text fill="#000000" font-family="sans-serif" font-size="11" font-weight="bold" lengthAdjust="spacingAndGlyphs" textLength="148" x="216" y="173.7729">[Successful Validation]</text><polygon fill="#A80036" points="591,195.8281,601,199.8281,591,203.8281,595,199.8281" style="stroke: #A80036; stroke-width: 1.0;"/><line style="stroke: #A80036; stroke-width: 1.0;" x1="430" x2="597" y1="199.8281" y2="199.8281"/><text fill="#000000" font-family="sans-serif" font-size="13" lengthAdjust="spacingAndGlyphs" textLength="114" x="437" y="194.7622">"Store User Data"</text><polygon fill="#A80036" points="441,224.9609,431,228.9609,441,232.9609,437,228.9609" style="stroke: #A80036; stroke-width: 1.0;"/><line style="stroke: #A80036; stroke-width: 1.0; stroke-dasharray: 2.0,2.0;" x1="435" x2="607" y1="228.9609" y2="228.9609"/><text fill="#000000" font-family="sans-serif" font-size="13" lengthAdjust="spacingAndGlyphs" textLength="149" x="447" y="223.895">"Success Confirmation"</text><polygon fill="#A80036" points="249,254.0938,239,258.0938,249,262.0938,245,258.0938" style="stroke: #A80036; stroke-width: 1.0;"/><line style="stroke: #A80036; stroke-width: 1.0; stroke-dasharray: 2.0,2.0;" x1="243" x2="419" y1="258.0938" y2="258.0938"/><text fill="#000000" font-family="sans-serif" font-size="13" lengthAdjust="spacingAndGlyphs" textLength="158" x="255" y="253.0278">"Registration Successful"</text><line style="stroke: #000000; stroke-width: 1.0; stroke-dasharray: 2.0,2.0;" x1="137" x2="654" y1="267.0938" y2="267.0938"/><text fill="#000000" font-family="sans-serif" font-size="11" font-weight="bold" lengthAdjust="spacingAndGlyphs" textLength="119" x="142" y="277.3042">[Validation Failed]</text><polygon fill="#A80036" points="249,298.0313,239,302.0313,249,306.0313,245,302.0313" style="stroke: #A80036; stroke-width: 1.0;"/><line style="stroke: #A80036; stroke-width: 1.0; stroke-dasharray: 2.0,2.0;" x1="243" x2="419" y1="302.0313" y2="302.0313"/><text fill="#000000" font-family="sans-serif" font-size="13" lengthAdjust="spacingAndGlyphs" textLength="127" x="255" y="296.9653">"Registration Failed"</text><path d="M13,324.0313 L77,324.0313 L77,331.0313 L67,341.0313 L13,341.0313 L13,324.0313 " fill="#EEEEEE" style="stroke: #000000; stroke-width: 1.0;"/><rect fill="none" height="90.2031" style="stroke: #000000; stroke-width: 2.0;" width="316" x="13" y="324.0313"/><text fill="#000000" font-family="sans-serif" font-size="13" font-weight="bold" lengthAdjust="spacingAndGlyphs" textLength="19" x="28" y="337.0981">alt</text><text fill="#000000" font-family="sans-serif" font-size="11" font-weight="bold" lengthAdjust="spacingAndGlyphs" textLength="161" x="92" y="336.2417">[Registration Successful]</text><polygon fill="#A80036" points="53,358.2969,43,362.2969,53,366.2969,49,362.2969" style="stroke: #A80036; stroke-width: 1.0;"/><line style="stroke: #A80036; stroke-width: 1.0;" x1="47" x2="227" y1="362.2969" y2="362.2969"/><text fill="#000000" font-family="sans-serif" font-size="13" lengthAdjust="spacingAndGlyphs" textLength="162" x="59" y="357.231">"Show Success Message"</text><line style="stroke: #000000; stroke-width: 1.0; stroke-dasharray: 2.0,2.0;" x1="13" x2="329" y1="371.2969" y2="371.2969"/><text fill="#000000" font-family="sans-serif" font-size="11" font-weight="bold" lengthAdjust="spacingAndGlyphs" textLength="132" x="18" y="381.5073">[Registration Failed]</text><polygon fill="#A80036" points="53,402.2344,43,406.2344,53,410.2344,49,406.2344" style="stroke: #A80036; stroke-width: 1.0;"/><line style="stroke: #A80036; stroke-width: 1.0;" x1="47" x2="227" y1="406.2344" y2="406.2344"/><text fill="#000000" font-family="sans-serif" font-size="13" lengthAdjust="spacingAndGlyphs" textLength="140" x="59" y="401.1685">"Show Error Message"</text><!--MD5=[0734f2fe5d16ef33ac480bd2a2c0d348]
@startuml
actor User

participant "Frontend\n(Register Component)" as Frontend
participant "Backend\n(User Service)" as Backend
database "Database" as Database

User -> Frontend: "Enter registration details"
activate Frontend

Frontend -> Backend: "Register user"
activate Backend

alt Successful Validation
    Backend -> Database: "Store User Data"
    activate Database
    Database - -> Backend: "Success Confirmation"
    deactivate Database

    Backend - -> Frontend: "Registration Successful"
else Validation Failed
    Backend - -> Frontend: "Registration Failed"
end
deactivate Backend

alt Registration Successful
    Frontend -> User: "Show Success Message"
else Registration Failed
    Frontend -> User: "Show Error Message"
end
deactivate Frontend
@enduml

PlantUML version 1.2020.02(Sun Mar 01 10:22:07 UTC 2020)
(GPL source distribution)
Java Runtime: OpenJDK Runtime Environment
JVM: OpenJDK 64-Bit Server VM
Java Version: 11.0.21+9
Operating System: Linux
Default Encoding: UTF-8
Language: en
Country: null
--></g></svg>