<?xml version="1.0" encoding="UTF-8" standalone="no"?><svg xmlns="http://www.w3.org/2000/svg" xmlns:xlink="http://www.w3.org/1999/xlink" contentScriptType="application/ecmascript" contentStyleType="text/css" height="1113px" preserveAspectRatio="none" style="width:1754px;height:1113px;" version="1.1" viewBox="0 0 1754 1113" width="1754px" zoomAndPan="magnify"><defs><filter height="300%" id="f1cf8e2cl2suf6" width="300%" x="-1" y="-1"><feGaussianBlur result="blurOut" stdDeviation="2.0"/><feColorMatrix in="blurOut" result="blurOut2" type="matrix" values="0 0 0 0 0 0 0 0 0 0 0 0 0 0 0 0 0 0 .4 0"/><feOffset dx="4.0" dy="4.0" in="blurOut2" result="blurOut3"/><feBlend in="SourceGraphic" in2="blurOut3" mode="normal"/></filter></defs><g><rect fill="#FFFFFF" filter="url(#f1cf8e2cl2suf6)" height="896.3281" style="stroke: #A80036; stroke-width: 1.0;" width="10" x="213" y="117.4297"/><rect fill="#FFFFFF" filter="url(#f1cf8e2cl2suf6)" height="736.9922" style="stroke: #A80036; stroke-width: 1.0;" width="10" x="458" y="212.8281"/><rect fill="#FFFFFF" filter="url(#f1cf8e2cl2suf6)" height="461.125" style="stroke: #A80036; stroke-width: 1.0;" width="10" x="638" y="241.9609"/><rect fill="#FFFFFF" filter="url(#f1cf8e2cl2suf6)" height="402.8594" style="stroke: #A80036; stroke-width: 1.0;" width="10" x="835" y="271.0938"/><rect fill="#FFFFFF" filter="url(#f1cf8e2cl2suf6)" height="344.5938" style="stroke: #A80036; stroke-width: 1.0;" width="10" x="974" y="300.2266"/><rect fill="#FFFFFF" filter="url(#f1cf8e2cl2suf6)" height="286.3281" style="stroke: #A80036; stroke-width: 1.0;" width="10" x="1207" y="329.3594"/><rect fill="#FFFFFF" filter="url(#f1cf8e2cl2suf6)" height="87.3984" style="stroke: #A80036; stroke-width: 1.0;" width="10" x="1494" y="358.4922"/><rect fill="#FFFFFF" filter="url(#f1cf8e2cl2suf6)" height="29.1328" style="stroke: #A80036; stroke-width: 1.0;" width="10" x="1494" y="499.1563"/><rect fill="#FFFFFF" filter="url(#f1cf8e2cl2suf6)" height="29.1328" style="stroke: #A80036; stroke-width: 1.0;" width="10" x="1494" y="557.4219"/><rect fill="#FFFFFF" filter="url(#f1cf8e2cl2suf6)" height="29.1328" style="stroke: #A80036; stroke-width: 1.0;" width="10" x="1683" y="387.625"/><rect fill="#FFFFFF" filter="url(#f1cf8e2cl2suf6)" height="832.1953" style="stroke: #000000; stroke-width: 2.0;" width="1623.5" x="119" y="174.5625"/><rect fill="#FFFFFF" filter="url(#f1cf8e2cl2suf6)" height="481.9297" style="stroke: #000000; stroke-width: 2.0;" width="1500.5" x="129" y="460.8906"/><rect fill="#FFFFFF" height="160.4688" style="stroke: none; stroke-width: 1.0;" width="1500.5" x="129" y="782.3516"/><rect fill="#FFFFFF" height="56.9375" style="stroke: none; stroke-width: 1.0;" width="1623.5" x="119" y="949.8203"/><line style="stroke: #A80036; stroke-width: 1.0; stroke-dasharray: 5.0,5.0;" x1="27" x2="27" y1="86.2969" y2="1023.7578"/><line style="stroke: #A80036; stroke-width: 1.0; stroke-dasharray: 5.0,5.0;" x1="218" x2="218" y1="86.2969" y2="1023.7578"/><line style="stroke: #A80036; stroke-width: 1.0; stroke-dasharray: 5.0,5.0;" x1="463" x2="463" y1="86.2969" y2="1023.7578"/><line style="stroke: #A80036; stroke-width: 1.0; stroke-dasharray: 5.0,5.0;" x1="642.5" x2="642.5" y1="86.2969" y2="1023.7578"/><line style="stroke: #A80036; stroke-width: 1.0; stroke-dasharray: 5.0,5.0;" x1="839.5" x2="839.5" y1="86.2969" y2="1023.7578"/><line style="stroke: #A80036; stroke-width: 1.0; stroke-dasharray: 5.0,5.0;" x1="979" x2="979" y1="86.2969" y2="1023.7578"/><line style="stroke: #A80036; stroke-width: 1.0; stroke-dasharray: 5.0,5.0;" x1="1211.5" x2="1211.5" y1="86.2969" y2="1023.7578"/><line style="stroke: #A80036; stroke-width: 1.0; stroke-dasharray: 5.0,5.0;" x1="1498.5" x2="1498.5" y1="86.2969" y2="1023.7578"/><line style="stroke: #A80036; stroke-width: 1.0; stroke-dasharray: 5.0,5.0;" x1="1687.5" x2="1687.5" y1="86.2969" y2="1023.7578"/><text fill="#000000" font-family="sans-serif" font-size="14" lengthAdjust="spacingAndGlyphs" textLength="32" x="8" y="82.9951">User</text><ellipse cx="27" cy="13" fill="#FEFECE" filter="url(#f1cf8e2cl2suf6)" rx="8" ry="8" style="stroke: #A80036; stroke-width: 2.0;"/><path d="M27,21 L27,48 M14,29 L40,29 M27,48 L14,63 M27,48 L40,63 " fill="none" filter="url(#f1cf8e2cl2suf6)" style="stroke: #A80036; stroke-width: 2.0;"/><text fill="#000000" font-family="sans-serif" font-size="14" lengthAdjust="spacingAndGlyphs" textLength="32" x="8" y="1035.7529">User</text><ellipse cx="27" cy="1049.0547" fill="#FEFECE" filter="url(#f1cf8e2cl2suf6)" rx="8" ry="8" style="stroke: #A80036; stroke-width: 2.0;"/><path d="M27,1057.0547 L27,1084.0547 M14,1065.0547 L40,1065.0547 M27,1084.0547 L14,1099.0547 M27,1084.0547 L40,1099.0547 " fill="none" filter="url(#f1cf8e2cl2suf6)" style="stroke: #A80036; stroke-width: 2.0;"/><rect fill="#FEFECE" filter="url(#f1cf8e2cl2suf6)" height="62.8906" style="stroke: #A80036; stroke-width: 1.5;" width="154" x="139" y="18.4063"/><text fill="#000000" font-family="sans-serif" font-size="14" font-style="italic" lengthAdjust="spacingAndGlyphs" textLength="81" x="175.5" y="38.4014">«Frontend»</text><text fill="#000000" font-family="sans-serif" font-size="14" lengthAdjust="spacingAndGlyphs" textLength="52" x="190" y="54.6982">Angular</text><text fill="#000000" font-family="sans-serif" font-size="14" lengthAdjust="spacingAndGlyphs" textLength="140" x="146" y="70.9951">RegisterComponent</text><rect fill="#FEFECE" filter="url(#f1cf8e2cl2suf6)" height="62.8906" style="stroke: #A80036; stroke-width: 1.5;" width="154" x="139" y="1022.7578"/><text fill="#000000" font-family="sans-serif" font-size="14" font-style="italic" lengthAdjust="spacingAndGlyphs" textLength="81" x="175.5" y="1042.7529">«Frontend»</text><text fill="#000000" font-family="sans-serif" font-size="14" lengthAdjust="spacingAndGlyphs" textLength="52" x="190" y="1059.0498">Angular</text><text fill="#000000" font-family="sans-serif" font-size="14" lengthAdjust="spacingAndGlyphs" textLength="140" x="146" y="1075.3467">RegisterComponent</text><rect fill="#FEFECE" filter="url(#f1cf8e2cl2suf6)" height="46.5938" style="stroke: #A80036; stroke-width: 1.5;" width="96" x="413" y="34.7031"/><text fill="#000000" font-family="sans-serif" font-size="14" font-style="italic" lengthAdjust="spacingAndGlyphs" textLength="81" x="420.5" y="54.6982">«Frontend»</text><text fill="#000000" font-family="sans-serif" font-size="14" lengthAdjust="spacingAndGlyphs" textLength="82" x="420" y="70.9951">AuthService</text><rect fill="#FEFECE" filter="url(#f1cf8e2cl2suf6)" height="46.5938" style="stroke: #A80036; stroke-width: 1.5;" width="96" x="413" y="1022.7578"/><text fill="#000000" font-family="sans-serif" font-size="14" font-style="italic" lengthAdjust="spacingAndGlyphs" textLength="81" x="420.5" y="1042.7529">«Frontend»</text><text fill="#000000" font-family="sans-serif" font-size="14" lengthAdjust="spacingAndGlyphs" textLength="82" x="420" y="1059.0498">AuthService</text><rect fill="#FEFECE" filter="url(#f1cf8e2cl2suf6)" height="46.5938" style="stroke: #A80036; stroke-width: 1.5;" width="95" x="593.5" y="34.7031"/><text fill="#000000" font-family="sans-serif" font-size="14" font-style="italic" lengthAdjust="spacingAndGlyphs" textLength="81" x="600.5" y="54.6982">«Frontend»</text><text fill="#000000" font-family="sans-serif" font-size="14" lengthAdjust="spacingAndGlyphs" textLength="76" x="603" y="70.9951">HTTPClient</text><rect fill="#FEFECE" filter="url(#f1cf8e2cl2suf6)" height="46.5938" style="stroke: #A80036; stroke-width: 1.5;" width="95" x="593.5" y="1022.7578"/><text fill="#000000" font-family="sans-serif" font-size="14" font-style="italic" lengthAdjust="spacingAndGlyphs" textLength="81" x="600.5" y="1042.7529">«Frontend»</text><text fill="#000000" font-family="sans-serif" font-size="14" lengthAdjust="spacingAndGlyphs" textLength="76" x="603" y="1059.0498">HTTPClient</text><rect fill="#FEFECE" filter="url(#f1cf8e2cl2suf6)" height="46.5938" style="stroke: #A80036; stroke-width: 1.5;" width="113" x="781.5" y="34.7031"/><text fill="#000000" font-family="sans-serif" font-size="14" font-style="italic" lengthAdjust="spacingAndGlyphs" textLength="79" x="798.5" y="54.6982">«Backend»</text><text fill="#000000" font-family="sans-serif" font-size="14" lengthAdjust="spacingAndGlyphs" textLength="99" x="788.5" y="70.9951">UserController</text><rect fill="#FEFECE" filter="url(#f1cf8e2cl2suf6)" height="46.5938" style="stroke: #A80036; stroke-width: 1.5;" width="113" x="781.5" y="1022.7578"/><text fill="#000000" font-family="sans-serif" font-size="14" font-style="italic" lengthAdjust="spacingAndGlyphs" textLength="79" x="798.5" y="1042.7529">«Backend»</text><text fill="#000000" font-family="sans-serif" font-size="14" lengthAdjust="spacingAndGlyphs" textLength="99" x="788.5" y="1059.0498">UserController</text><rect fill="#FEFECE" filter="url(#f1cf8e2cl2suf6)" height="46.5938" style="stroke: #A80036; stroke-width: 1.5;" width="126" x="914" y="34.7031"/><text fill="#000000" font-family="sans-serif" font-size="14" font-style="italic" lengthAdjust="spacingAndGlyphs" textLength="79" x="937.5" y="54.6982">«Backend»</text><text fill="#000000" font-family="sans-serif" font-size="14" lengthAdjust="spacingAndGlyphs" textLength="112" x="921" y="70.9951">IUserAppService</text><rect fill="#FEFECE" filter="url(#f1cf8e2cl2suf6)" height="46.5938" style="stroke: #A80036; stroke-width: 1.5;" width="126" x="914" y="1022.7578"/><text fill="#000000" font-family="sans-serif" font-size="14" font-style="italic" lengthAdjust="spacingAndGlyphs" textLength="79" x="937.5" y="1042.7529">«Backend»</text><text fill="#000000" font-family="sans-serif" font-size="14" lengthAdjust="spacingAndGlyphs" textLength="112" x="921" y="1059.0498">IUserAppService</text><rect fill="#FEFECE" filter="url(#f1cf8e2cl2suf6)" height="46.5938" style="stroke: #A80036; stroke-width: 1.5;" width="123" x="1148.5" y="34.7031"/><text fill="#000000" font-family="sans-serif" font-size="14" font-style="italic" lengthAdjust="spacingAndGlyphs" textLength="79" x="1170.5" y="54.6982">«Backend»</text><text fill="#000000" font-family="sans-serif" font-size="14" lengthAdjust="spacingAndGlyphs" textLength="109" x="1155.5" y="70.9951">UserAppService</text><rect fill="#FEFECE" filter="url(#f1cf8e2cl2suf6)" height="46.5938" style="stroke: #A80036; stroke-width: 1.5;" width="123" x="1148.5" y="1022.7578"/><text fill="#000000" font-family="sans-serif" font-size="14" font-style="italic" lengthAdjust="spacingAndGlyphs" textLength="79" x="1170.5" y="1042.7529">«Backend»</text><text fill="#000000" font-family="sans-serif" font-size="14" lengthAdjust="spacingAndGlyphs" textLength="109" x="1155.5" y="1059.0498">UserAppService</text><rect fill="#FEFECE" filter="url(#f1cf8e2cl2suf6)" height="46.5938" style="stroke: #A80036; stroke-width: 1.5;" width="237" x="1378.5" y="34.7031"/><text fill="#000000" font-family="sans-serif" font-size="14" font-style="italic" lengthAdjust="spacingAndGlyphs" textLength="79" x="1457.5" y="54.6982">«Backend»</text><text fill="#000000" font-family="sans-serif" font-size="14" lengthAdjust="spacingAndGlyphs" textLength="223" x="1385.5" y="70.9951">UserManager&lt;ApplicationUser&gt;</text><rect fill="#FEFECE" filter="url(#f1cf8e2cl2suf6)" height="46.5938" style="stroke: #A80036; stroke-width: 1.5;" width="237" x="1378.5" y="1022.7578"/><text fill="#000000" font-family="sans-serif" font-size="14" font-style="italic" lengthAdjust="spacingAndGlyphs" textLength="79" x="1457.5" y="1042.7529">«Backend»</text><text fill="#000000" font-family="sans-serif" font-size="14" lengthAdjust="spacingAndGlyphs" textLength="223" x="1385.5" y="1059.0498">UserManager&lt;ApplicationUser&gt;</text><text fill="#000000" font-family="sans-serif" font-size="14" font-style="italic" lengthAdjust="spacingAndGlyphs" textLength="83" x="1643.5" y="66.6982">«Database»</text><text fill="#000000" font-family="sans-serif" font-size="14" lengthAdjust="spacingAndGlyphs" textLength="69" x="1650.5" y="82.9951">MongoDB</text><path d="M1670,17.7031 C1670,7.7031 1688,7.7031 1688,7.7031 C1688,7.7031 1706,7.7031 1706,17.7031 L1706,43.7031 C1706,53.7031 1688,53.7031 1688,53.7031 C1688,53.7031 1670,53.7031 1670,43.7031 L1670,17.7031 " fill="#FEFECE" filter="url(#f1cf8e2cl2suf6)" style="stroke: #000000; stroke-width: 1.5;"/><path d="M1670,17.7031 C1670,27.7031 1688,27.7031 1688,27.7031 C1688,27.7031 1706,27.7031 1706,17.7031 " fill="none" style="stroke: #000000; stroke-width: 1.5;"/><text fill="#000000" font-family="sans-serif" font-size="14" font-style="italic" lengthAdjust="spacingAndGlyphs" textLength="83" x="1643.5" y="1035.7529">«Database»</text><text fill="#000000" font-family="sans-serif" font-size="14" lengthAdjust="spacingAndGlyphs" textLength="69" x="1650.5" y="1052.0498">MongoDB</text><path d="M1670,1065.3516 C1670,1055.3516 1688,1055.3516 1688,1055.3516 C1688,1055.3516 1706,1055.3516 1706,1065.3516 L1706,1091.3516 C1706,1101.3516 1688,1101.3516 1688,1101.3516 C1688,1101.3516 1670,1101.3516 1670,1091.3516 L1670,1065.3516 " fill="#FEFECE" filter="url(#f1cf8e2cl2suf6)" style="stroke: #000000; stroke-width: 1.5;"/><path d="M1670,1065.3516 C1670,1075.3516 1688,1075.3516 1688,1075.3516 C1688,1075.3516 1706,1075.3516 1706,1065.3516 " fill="none" style="stroke: #000000; stroke-width: 1.5;"/><rect fill="#FFFFFF" filter="url(#f1cf8e2cl2suf6)" height="896.3281" style="stroke: #A80036; stroke-width: 1.0;" width="10" x="213" y="117.4297"/><rect fill="#FFFFFF" filter="url(#f1cf8e2cl2suf6)" height="736.9922" style="stroke: #A80036; stroke-width: 1.0;" width="10" x="458" y="212.8281"/><rect fill="#FFFFFF" filter="url(#f1cf8e2cl2suf6)" height="461.125" style="stroke: #A80036; stroke-width: 1.0;" width="10" x="638" y="241.9609"/><rect fill="#FFFFFF" filter="url(#f1cf8e2cl2suf6)" height="402.8594" style="stroke: #A80036; stroke-width: 1.0;" width="10" x="835" y="271.0938"/><rect fill="#FFFFFF" filter="url(#f1cf8e2cl2suf6)" height="344.5938" style="stroke: #A80036; stroke-width: 1.0;" width="10" x="974" y="300.2266"/><rect fill="#FFFFFF" filter="url(#f1cf8e2cl2suf6)" height="286.3281" style="stroke: #A80036; stroke-width: 1.0;" width="10" x="1207" y="329.3594"/><rect fill="#FFFFFF" filter="url(#f1cf8e2cl2suf6)" height="87.3984" style="stroke: #A80036; stroke-width: 1.0;" width="10" x="1494" y="358.4922"/><rect fill="#FFFFFF" filter="url(#f1cf8e2cl2suf6)" height="29.1328" style="stroke: #A80036; stroke-width: 1.0;" width="10" x="1494" y="499.1563"/><rect fill="#FFFFFF" filter="url(#f1cf8e2cl2suf6)" height="29.1328" style="stroke: #A80036; stroke-width: 1.0;" width="10" x="1494" y="557.4219"/><rect fill="#FFFFFF" filter="url(#f1cf8e2cl2suf6)" height="29.1328" style="stroke: #A80036; stroke-width: 1.0;" width="10" x="1683" y="387.625"/><polygon fill="#A80036" points="201,113.4297,211,117.4297,201,121.4297,205,117.4297" style="stroke: #A80036; stroke-width: 1.0;"/><line style="stroke: #A80036; stroke-width: 1.0;" x1="27" x2="207" y1="117.4297" y2="117.4297"/><text fill="#000000" font-family="sans-serif" font-size="13" lengthAdjust="spacingAndGlyphs" textLength="167" x="34" y="112.3638">"Enter registration details"</text><line style="stroke: #A80036; stroke-width: 1.0;" x1="223" x2="265" y1="146.5625" y2="146.5625"/><line style="stroke: #A80036; stroke-width: 1.0;" x1="265" x2="265" y1="146.5625" y2="159.5625"/><line style="stroke: #A80036; stroke-width: 1.0;" x1="224" x2="265" y1="159.5625" y2="159.5625"/><polygon fill="#A80036" points="234,155.5625,224,159.5625,234,163.5625,230,159.5625" style="stroke: #A80036; stroke-width: 1.0;"/><text fill="#000000" font-family="sans-serif" font-size="13" lengthAdjust="spacingAndGlyphs" textLength="155" x="230" y="141.4966">"Validate input (HTML5)"</text><path d="M119,174.5625 L183,174.5625 L183,181.5625 L173,191.5625 L119,191.5625 L119,174.5625 " fill="#EEEEEE" style="stroke: #000000; stroke-width: 1.0;"/><rect fill="none" height="832.1953" style="stroke: #000000; stroke-width: 2.0;" width="1623.5" x="119" y="174.5625"/><text fill="#000000" font-family="sans-serif" font-size="13" font-weight="bold" lengthAdjust="spacingAndGlyphs" textLength="19" x="134" y="187.6294">alt</text><text fill="#000000" font-family="sans-serif" font-size="11" font-weight="bold" lengthAdjust="spacingAndGlyphs" textLength="148" x="198" y="186.7729">[Validation Successful]</text><polygon fill="#A80036" points="446,208.8281,456,212.8281,446,216.8281,450,212.8281" style="stroke: #A80036; stroke-width: 1.0;"/><line style="stroke: #A80036; stroke-width: 1.0;" x1="223" x2="452" y1="212.8281" y2="212.8281"/><text fill="#000000" font-family="sans-serif" font-size="13" lengthAdjust="spacingAndGlyphs" textLength="127" x="230" y="207.7622">"registerUser(user)"</text><polygon fill="#A80036" points="626,237.9609,636,241.9609,626,245.9609,630,241.9609" style="stroke: #A80036; stroke-width: 1.0;"/><line style="stroke: #A80036; stroke-width: 1.0;" x1="468" x2="632" y1="241.9609" y2="241.9609"/><text fill="#000000" font-family="sans-serif" font-size="13" lengthAdjust="spacingAndGlyphs" textLength="104" x="475" y="236.895">"POST /Register"</text><polygon fill="#A80036" points="823,267.0938,833,271.0938,823,275.0938,827,271.0938" style="stroke: #A80036; stroke-width: 1.0;"/><line style="stroke: #A80036; stroke-width: 1.0;" x1="648" x2="829" y1="271.0938" y2="271.0938"/><text fill="#000000" font-family="sans-serif" font-size="13" lengthAdjust="spacingAndGlyphs" textLength="168" x="655" y="266.0278">"Register(CreateUserDto)"</text><polygon fill="#A80036" points="962,296.2266,972,300.2266,962,304.2266,966,300.2266" style="stroke: #A80036; stroke-width: 1.0;"/><line style="stroke: #A80036; stroke-width: 1.0;" x1="845" x2="968" y1="300.2266" y2="300.2266"/><text fill="#000000" font-family="sans-serif" font-size="13" lengthAdjust="spacingAndGlyphs" textLength="100" x="852" y="295.1606">"Register(user)"</text><polygon fill="#A80036" points="1195,325.3594,1205,329.3594,1195,333.3594,1199,329.3594" style="stroke: #A80036; stroke-width: 1.0;"/><line style="stroke: #A80036; stroke-width: 1.0;" x1="984" x2="1201" y1="329.3594" y2="329.3594"/><text fill="#000000" font-family="sans-serif" font-size="13" lengthAdjust="spacingAndGlyphs" textLength="100" x="991" y="324.2935">"Register(user)"</text><polygon fill="#A80036" points="1482,354.4922,1492,358.4922,1482,362.4922,1486,358.4922" style="stroke: #A80036; stroke-width: 1.0;"/><line style="stroke: #A80036; stroke-width: 1.0;" x1="1217" x2="1488" y1="358.4922" y2="358.4922"/><text fill="#000000" font-family="sans-serif" font-size="13" lengthAdjust="spacingAndGlyphs" textLength="255" x="1224" y="353.4263">"CreateAsync(appUser, user.Password)"</text><polygon fill="#A80036" points="1671,383.625,1681,387.625,1671,391.625,1675,387.625" style="stroke: #A80036; stroke-width: 1.0;"/><line style="stroke: #A80036; stroke-width: 1.0;" x1="1504" x2="1677" y1="387.625" y2="387.625"/><text fill="#000000" font-family="sans-serif" font-size="13" lengthAdjust="spacingAndGlyphs" textLength="80" x="1511" y="382.5591">"Insert User"</text><polygon fill="#A80036" points="1515,412.7578,1505,416.7578,1515,420.7578,1511,416.7578" style="stroke: #A80036; stroke-width: 1.0;"/><line style="stroke: #A80036; stroke-width: 1.0; stroke-dasharray: 2.0,2.0;" x1="1509" x2="1687" y1="416.7578" y2="416.7578"/><text fill="#000000" font-family="sans-serif" font-size="13" lengthAdjust="spacingAndGlyphs" textLength="155" x="1521" y="411.6919">"Confirmation message"</text><polygon fill="#A80036" points="1228,441.8906,1218,445.8906,1228,449.8906,1224,445.8906" style="stroke: #A80036; stroke-width: 1.0;"/><line style="stroke: #A80036; stroke-width: 1.0; stroke-dasharray: 2.0,2.0;" x1="1222" x2="1498" y1="445.8906" y2="445.8906"/><text fill="#000000" font-family="sans-serif" font-size="13" lengthAdjust="spacingAndGlyphs" textLength="141" x="1234" y="440.8247">"User Creation Result"</text><path d="M129,460.8906 L193,460.8906 L193,467.8906 L183,477.8906 L129,477.8906 L129,460.8906 " fill="#EEEEEE" style="stroke: #000000; stroke-width: 1.0;"/><rect fill="none" height="481.9297" style="stroke: #000000; stroke-width: 2.0;" width="1500.5" x="129" y="460.8906"/><text fill="#000000" font-family="sans-serif" font-size="13" font-weight="bold" lengthAdjust="spacingAndGlyphs" textLength="19" x="144" y="473.9575">alt</text><text fill="#000000" font-family="sans-serif" font-size="11" font-weight="bold" lengthAdjust="spacingAndGlyphs" textLength="214" x="208" y="473.1011">[CreateAsync returns Succeeded]</text><polygon fill="#A80036" points="1482,495.1563,1492,499.1563,1482,503.1563,1486,499.1563" style="stroke: #A80036; stroke-width: 1.0;"/><line style="stroke: #A80036; stroke-width: 1.0;" x1="1217" x2="1488" y1="499.1563" y2="499.1563"/><text fill="#000000" font-family="sans-serif" font-size="13" lengthAdjust="spacingAndGlyphs" textLength="258" x="1224" y="494.0903">"AddToRoleAsync(appUser, defaultRole)"</text><polygon fill="#A80036" points="1228,524.2891,1218,528.2891,1228,532.2891,1224,528.2891" style="stroke: #A80036; stroke-width: 1.0;"/><line style="stroke: #A80036; stroke-width: 1.0; stroke-dasharray: 2.0,2.0;" x1="1222" x2="1498" y1="528.2891" y2="528.2891"/><text fill="#000000" font-family="sans-serif" font-size="13" lengthAdjust="spacingAndGlyphs" textLength="160" x="1234" y="523.2231">"Role Assignment Result"</text><polygon fill="#A80036" points="1482,553.4219,1492,557.4219,1482,561.4219,1486,557.4219" style="stroke: #A80036; stroke-width: 1.0;"/><line style="stroke: #A80036; stroke-width: 1.0;" x1="1217" x2="1488" y1="557.4219" y2="557.4219"/><text fill="#000000" font-family="sans-serif" font-size="13" lengthAdjust="spacingAndGlyphs" textLength="239" x="1224" y="552.356">"SetLockoutEndDateAsync(appUser)"</text><polygon fill="#A80036" points="1228,582.5547,1218,586.5547,1228,590.5547,1224,586.5547" style="stroke: #A80036; stroke-width: 1.0;"/><line style="stroke: #A80036; stroke-width: 1.0; stroke-dasharray: 2.0,2.0;" x1="1222" x2="1498" y1="586.5547" y2="586.5547"/><text fill="#000000" font-family="sans-serif" font-size="13" lengthAdjust="spacingAndGlyphs" textLength="153" x="1234" y="581.4888">"Lockout Setting Result"</text><polygon fill="#A80036" points="995,611.6875,985,615.6875,995,619.6875,991,615.6875" style="stroke: #A80036; stroke-width: 1.0;"/><line style="stroke: #A80036; stroke-width: 1.0; stroke-dasharray: 2.0,2.0;" x1="989" x2="1211" y1="615.6875" y2="615.6875"/><text fill="#000000" font-family="sans-serif" font-size="13" lengthAdjust="spacingAndGlyphs" textLength="199" x="1001" y="610.6216">"RegisteredDTO(appUser, null)"</text><polygon fill="#A80036" points="856,640.8203,846,644.8203,856,648.8203,852,644.8203" style="stroke: #A80036; stroke-width: 1.0;"/><line style="stroke: #A80036; stroke-width: 1.0; stroke-dasharray: 2.0,2.0;" x1="850" x2="978" y1="644.8203" y2="644.8203"/><text fill="#000000" font-family="sans-serif" font-size="13" lengthAdjust="spacingAndGlyphs" textLength="105" x="862" y="639.7544">"RegisteredDTO"</text><polygon fill="#A80036" points="659,669.9531,649,673.9531,659,677.9531,655,673.9531" style="stroke: #A80036; stroke-width: 1.0;"/><line style="stroke: #A80036; stroke-width: 1.0; stroke-dasharray: 2.0,2.0;" x1="653" x2="839" y1="673.9531" y2="673.9531"/><text fill="#000000" font-family="sans-serif" font-size="13" lengthAdjust="spacingAndGlyphs" textLength="105" x="665" y="668.8872">"RegisteredDTO"</text><polygon fill="#A80036" points="479,699.0859,469,703.0859,479,707.0859,475,703.0859" style="stroke: #A80036; stroke-width: 1.0;"/><line style="stroke: #A80036; stroke-width: 1.0; stroke-dasharray: 2.0,2.0;" x1="473" x2="642" y1="703.0859" y2="703.0859"/><text fill="#000000" font-family="sans-serif" font-size="13" lengthAdjust="spacingAndGlyphs" textLength="106" x="485" y="698.02">"userRegistered"</text><polygon fill="#A80036" points="234,728.2188,224,732.2188,234,736.2188,230,732.2188" style="stroke: #A80036; stroke-width: 1.0;"/><line style="stroke: #A80036; stroke-width: 1.0;" x1="228" x2="457" y1="732.2188" y2="732.2188"/><text fill="#000000" font-family="sans-serif" font-size="13" lengthAdjust="spacingAndGlyphs" textLength="211" x="240" y="727.1528">"Notify user registration success"</text><line style="stroke: #A80036; stroke-width: 1.0;" x1="223" x2="265" y1="761.3516" y2="761.3516"/><line style="stroke: #A80036; stroke-width: 1.0;" x1="265" x2="265" y1="761.3516" y2="774.3516"/><line style="stroke: #A80036; stroke-width: 1.0;" x1="224" x2="265" y1="774.3516" y2="774.3516"/><polygon fill="#A80036" points="234,770.3516,224,774.3516,234,778.3516,230,774.3516" style="stroke: #A80036; stroke-width: 1.0;"/><text fill="#000000" font-family="sans-serif" font-size="13" lengthAdjust="spacingAndGlyphs" textLength="154" x="230" y="756.2856">"Navigate to login page"</text><line style="stroke: #000000; stroke-width: 1.0; stroke-dasharray: 2.0,2.0;" x1="129" x2="1629.5" y1="783.3516" y2="783.3516"/><text fill="#000000" font-family="sans-serif" font-size="11" font-weight="bold" lengthAdjust="spacingAndGlyphs" textLength="184" x="134" y="793.562">[CreateAsync returns Failed]</text><polygon fill="#A80036" points="990,814.2891,980,818.2891,990,822.2891,986,818.2891" style="stroke: #A80036; stroke-width: 1.0;"/><line style="stroke: #A80036; stroke-width: 1.0; stroke-dasharray: 2.0,2.0;" x1="984" x2="1211" y1="818.2891" y2="818.2891"/><text fill="#000000" font-family="sans-serif" font-size="13" lengthAdjust="spacingAndGlyphs" textLength="183" x="996" y="813.2231">"RegisteredDTO(null, Errors)"</text><polygon fill="#A80036" points="851,843.4219,841,847.4219,851,851.4219,847,847.4219" style="stroke: #A80036; stroke-width: 1.0;"/><line style="stroke: #A80036; stroke-width: 1.0; stroke-dasharray: 2.0,2.0;" x1="845" x2="978" y1="847.4219" y2="847.4219"/><text fill="#000000" font-family="sans-serif" font-size="13" lengthAdjust="spacingAndGlyphs" textLength="105" x="857" y="842.356">"RegisteredDTO"</text><polygon fill="#A80036" points="654,872.5547,644,876.5547,654,880.5547,650,876.5547" style="stroke: #A80036; stroke-width: 1.0;"/><line style="stroke: #A80036; stroke-width: 1.0; stroke-dasharray: 2.0,2.0;" x1="648" x2="839" y1="876.5547" y2="876.5547"/><text fill="#000000" font-family="sans-serif" font-size="13" lengthAdjust="spacingAndGlyphs" textLength="105" x="660" y="871.4888">"RegisteredDTO"</text><polygon fill="#A80036" points="479,901.6875,469,905.6875,479,909.6875,475,905.6875" style="stroke: #A80036; stroke-width: 1.0;"/><line style="stroke: #A80036; stroke-width: 1.0; stroke-dasharray: 2.0,2.0;" x1="473" x2="642" y1="905.6875" y2="905.6875"/><text fill="#000000" font-family="sans-serif" font-size="13" lengthAdjust="spacingAndGlyphs" textLength="151" x="485" y="900.6216">"userRegistrationFailed"</text><polygon fill="#A80036" points="234,930.8203,224,934.8203,234,938.8203,230,934.8203" style="stroke: #A80036; stroke-width: 1.0;"/><line style="stroke: #A80036; stroke-width: 1.0;" x1="228" x2="457" y1="934.8203" y2="934.8203"/><text fill="#000000" font-family="sans-serif" font-size="13" lengthAdjust="spacingAndGlyphs" textLength="154" x="240" y="929.7544">"Display error message"</text><line style="stroke: #000000; stroke-width: 1.0; stroke-dasharray: 2.0,2.0;" x1="119" x2="1742.5" y1="950.8203" y2="950.8203"/><text fill="#000000" font-family="sans-serif" font-size="11" font-weight="bold" lengthAdjust="spacingAndGlyphs" textLength="119" x="124" y="961.0308">[Validation Failed]</text><line style="stroke: #A80036; stroke-width: 1.0;" x1="223" x2="265" y1="985.7578" y2="985.7578"/><line style="stroke: #A80036; stroke-width: 1.0;" x1="265" x2="265" y1="985.7578" y2="998.7578"/><line style="stroke: #A80036; stroke-width: 1.0;" x1="224" x2="265" y1="998.7578" y2="998.7578"/><polygon fill="#A80036" points="234,994.7578,224,998.7578,234,1002.7578,230,998.7578" style="stroke: #A80036; stroke-width: 1.0;"/><text fill="#000000" font-family="sans-serif" font-size="13" lengthAdjust="spacingAndGlyphs" textLength="197" x="230" y="980.6919">"Display form validation errors"</text><!--MD5=[4b1bcd13961c65c825fc576d97ab9cb8]
@startuml
actor User

participant "Angular\nRegisterComponent" as Frontend <<Frontend>>
participant "AuthService" as AuthService <<Frontend>>
participant "HTTPClient" as HttpClient <<Frontend>>

participant "UserController" as Controller <<Backend>>
participant "IUserAppService" as IUserAppService <<Backend>>
participant "UserAppService" as UserAppService <<Backend>>
participant "UserManager<ApplicationUser>" as UserManager <<Backend>>
database "MongoDB" as MongoDB <<Database>>

User -> Frontend: "Enter registration details"
activate Frontend

Frontend -> Frontend: "Validate input (HTML5)"
alt Validation Successful
    Frontend -> AuthService: "registerUser(user)"
    activate AuthService

    AuthService -> HttpClient: "POST /Register"
    activate HttpClient
    HttpClient -> Controller: "Register(CreateUserDto)"
    activate Controller

    Controller -> IUserAppService: "Register(user)"
    activate IUserAppService

    IUserAppService -> UserAppService: "Register(user)"
    activate UserAppService

    UserAppService -> UserManager: "CreateAsync(appUser, user.Password)"
    activate UserManager
    UserManager -> MongoDB: "Insert User"
    activate MongoDB
    MongoDB - -> UserManager: "Confirmation message"
    deactivate MongoDB
    UserManager - -> UserAppService: "User Creation Result"
    deactivate UserManager

    alt CreateAsync returns Succeeded
        UserAppService -> UserManager: "AddToRoleAsync(appUser, defaultRole)"
        activate UserManager
        UserManager - -> UserAppService: "Role Assignment Result"
        deactivate UserManager
        
        UserAppService -> UserManager: "SetLockoutEndDateAsync(appUser)"
        activate UserManager
        UserManager - -> UserAppService: "Lockout Setting Result"
        deactivate UserManager

        UserAppService - -> IUserAppService: "RegisteredDTO(appUser, null)"
        deactivate UserAppService
        IUserAppService - -> Controller: "RegisteredDTO"
        deactivate IUserAppService
        Controller - -> HttpClient: "RegisteredDTO"
        deactivate Controller
        HttpClient - -> AuthService: "userRegistered"
        deactivate HttpClient

        AuthService -> Frontend: "Notify user registration success"
        Frontend -> Frontend: "Navigate to login page"
    else CreateAsync returns Failed
        UserAppService - -> IUserAppService: "RegisteredDTO(null, Errors)"
        deactivate UserAppService
        IUserAppService - -> Controller: "RegisteredDTO"
        deactivate IUserAppService
        Controller - -> HttpClient: "RegisteredDTO"
        deactivate Controller
        HttpClient - -> AuthService: "userRegistrationFailed"
        deactivate HttpClient

        AuthService -> Frontend: "Display error message"
    end

    deactivate AuthService
else Validation Failed
    Frontend -> Frontend: "Display form validation errors"
end
deactivate Frontend
@enduml

PlantUML version 1.2020.02(Sun Mar 01 10:22:07 UTC 2020)
(GPL source distribution)
Java Runtime: OpenJDK Runtime Environment
JVM: OpenJDK 64-Bit Server VM
Java Version: 11.0.21+9
Operating System: Linux
Default Encoding: UTF-8
Language: en
Country: null
--></g></svg>