<?xml version="1.0" encoding="UTF-8" standalone="no"?><svg xmlns="http://www.w3.org/2000/svg" xmlns:xlink="http://www.w3.org/1999/xlink" contentScriptType="application/ecmascript" contentStyleType="text/css" height="543px" preserveAspectRatio="none" style="width:1288px;height:543px;" version="1.1" viewBox="0 0 1288 543" width="1288px" zoomAndPan="magnify"><defs><filter height="300%" id="f1of7z1p9001dw" width="300%" x="-1" y="-1"><feGaussianBlur result="blurOut" stdDeviation="2.0"/><feColorMatrix in="blurOut" result="blurOut2" type="matrix" values="0 0 0 0 0 0 0 0 0 0 0 0 0 0 0 0 0 0 .4 0"/><feOffset dx="4.0" dy="4.0" in="blurOut2" result="blurOut3"/><feBlend in="SourceGraphic" in2="blurOut3" mode="normal"/></filter></defs><g><rect fill="#FFFFFF" filter="url(#f1of7z1p9001dw)" height="320.4609" style="stroke: #A80036; stroke-width: 1.0;" width="10" x="275.5" y="117.4297"/><rect fill="#FFFFFF" filter="url(#f1of7z1p9001dw)" height="262.1953" style="stroke: #A80036; stroke-width: 1.0;" width="10" x="470.5" y="146.5625"/><rect fill="#FFFFFF" filter="url(#f1of7z1p9001dw)" height="203.9297" style="stroke: #A80036; stroke-width: 1.0;" width="10" x="630" y="175.6953"/><rect fill="#FFFFFF" filter="url(#f1of7z1p9001dw)" height="145.6641" style="stroke: #A80036; stroke-width: 1.0;" width="10" x="893" y="204.8281"/><rect fill="#FFFFFF" filter="url(#f1of7z1p9001dw)" height="87.3984" style="stroke: #A80036; stroke-width: 1.0;" width="10" x="1069" y="233.9609"/><line style="stroke: #A80036; stroke-width: 1.0; stroke-dasharray: 5.0,5.0;" x1="59" x2="59" y1="86.2969" y2="455.8906"/><line style="stroke: #A80036; stroke-width: 1.0; stroke-dasharray: 5.0,5.0;" x1="280.5" x2="280.5" y1="86.2969" y2="455.8906"/><line style="stroke: #A80036; stroke-width: 1.0; stroke-dasharray: 5.0,5.0;" x1="475.5" x2="475.5" y1="86.2969" y2="455.8906"/><line style="stroke: #A80036; stroke-width: 1.0; stroke-dasharray: 5.0,5.0;" x1="634.5" x2="634.5" y1="86.2969" y2="455.8906"/><line style="stroke: #A80036; stroke-width: 1.0; stroke-dasharray: 5.0,5.0;" x1="898" x2="898" y1="86.2969" y2="455.8906"/><line style="stroke: #A80036; stroke-width: 1.0; stroke-dasharray: 5.0,5.0;" x1="1073.5" x2="1073.5" y1="86.2969" y2="455.8906"/><line style="stroke: #A80036; stroke-width: 1.0; stroke-dasharray: 5.0,5.0;" x1="1244.5" x2="1244.5" y1="86.2969" y2="455.8906"/><text fill="#000000" font-family="sans-serif" font-size="14" lengthAdjust="spacingAndGlyphs" textLength="97" x="8" y="82.9951">Task Manager</text><ellipse cx="59.5" cy="13" fill="#FEFECE" filter="url(#f1of7z1p9001dw)" rx="8" ry="8" style="stroke: #A80036; stroke-width: 2.0;"/><path d="M59.5,21 L59.5,48 M46.5,29 L72.5,29 M59.5,48 L46.5,63 M59.5,48 L72.5,63 " fill="none" filter="url(#f1of7z1p9001dw)" style="stroke: #A80036; stroke-width: 2.0;"/><text fill="#000000" font-family="sans-serif" font-size="14" lengthAdjust="spacingAndGlyphs" textLength="97" x="8" y="467.8857">Task Manager</text><ellipse cx="59.5" cy="481.1875" fill="#FEFECE" filter="url(#f1of7z1p9001dw)" rx="8" ry="8" style="stroke: #A80036; stroke-width: 2.0;"/><path d="M59.5,489.1875 L59.5,516.1875 M46.5,497.1875 L72.5,497.1875 M59.5,516.1875 L46.5,531.1875 M59.5,516.1875 L72.5,531.1875 " fill="none" filter="url(#f1of7z1p9001dw)" style="stroke: #A80036; stroke-width: 2.0;"/><rect fill="#FEFECE" filter="url(#f1of7z1p9001dw)" height="30.2969" style="stroke: #A80036; stroke-width: 1.5;" width="150" x="203.5" y="51"/><text fill="#000000" font-family="sans-serif" font-size="14" lengthAdjust="spacingAndGlyphs" textLength="136" x="210.5" y="70.9951">ApproveTasksHTML</text><rect fill="#FEFECE" filter="url(#f1of7z1p9001dw)" height="30.2969" style="stroke: #A80036; stroke-width: 1.5;" width="150" x="203.5" y="454.8906"/><text fill="#000000" font-family="sans-serif" font-size="14" lengthAdjust="spacingAndGlyphs" textLength="136" x="210.5" y="474.8857">ApproveTasksHTML</text><rect fill="#FEFECE" filter="url(#f1of7z1p9001dw)" height="30.2969" style="stroke: #A80036; stroke-width: 1.5;" width="194" x="376.5" y="51"/><text fill="#000000" font-family="sans-serif" font-size="14" lengthAdjust="spacingAndGlyphs" textLength="180" x="383.5" y="70.9951">ApproveTasksComponent</text><rect fill="#FEFECE" filter="url(#f1of7z1p9001dw)" height="30.2969" style="stroke: #A80036; stroke-width: 1.5;" width="194" x="376.5" y="454.8906"/><text fill="#000000" font-family="sans-serif" font-size="14" lengthAdjust="spacingAndGlyphs" textLength="180" x="383.5" y="474.8857">ApproveTasksComponent</text><rect fill="#FEFECE" filter="url(#f1of7z1p9001dw)" height="46.5938" style="stroke: #A80036; stroke-width: 1.5;" width="97" x="584.5" y="34.7031"/><text fill="#000000" font-family="sans-serif" font-size="14" font-style="italic" lengthAdjust="spacingAndGlyphs" textLength="81" x="592.5" y="54.6982">«FrontEnd»</text><text fill="#000000" font-family="sans-serif" font-size="14" lengthAdjust="spacingAndGlyphs" textLength="83" x="591.5" y="70.9951">TaskService</text><rect fill="#FEFECE" filter="url(#f1of7z1p9001dw)" height="46.5938" style="stroke: #A80036; stroke-width: 1.5;" width="97" x="584.5" y="454.8906"/><text fill="#000000" font-family="sans-serif" font-size="14" font-style="italic" lengthAdjust="spacingAndGlyphs" textLength="81" x="592.5" y="474.8857">«FrontEnd»</text><text fill="#000000" font-family="sans-serif" font-size="14" lengthAdjust="spacingAndGlyphs" textLength="83" x="591.5" y="491.1826">TaskService</text><rect fill="#FEFECE" filter="url(#f1of7z1p9001dw)" height="30.2969" style="stroke: #A80036; stroke-width: 1.5;" width="122" x="835" y="51"/><text fill="#000000" font-family="sans-serif" font-size="14" lengthAdjust="spacingAndGlyphs" textLength="108" x="842" y="70.9951">TasksController</text><rect fill="#FEFECE" filter="url(#f1of7z1p9001dw)" height="30.2969" style="stroke: #A80036; stroke-width: 1.5;" width="122" x="835" y="454.8906"/><text fill="#000000" font-family="sans-serif" font-size="14" lengthAdjust="spacingAndGlyphs" textLength="108" x="842" y="474.8857">TasksController</text><rect fill="#FEFECE" filter="url(#f1of7z1p9001dw)" height="46.5938" style="stroke: #A80036; stroke-width: 1.5;" width="97" x="1023.5" y="34.7031"/><text fill="#000000" font-family="sans-serif" font-size="14" font-style="italic" lengthAdjust="spacingAndGlyphs" textLength="79" x="1032.5" y="54.6982">«BackEnd»</text><text fill="#000000" font-family="sans-serif" font-size="14" lengthAdjust="spacingAndGlyphs" textLength="83" x="1030.5" y="70.9951">TaskService</text><rect fill="#FEFECE" filter="url(#f1of7z1p9001dw)" height="46.5938" style="stroke: #A80036; stroke-width: 1.5;" width="97" x="1023.5" y="454.8906"/><text fill="#000000" font-family="sans-serif" font-size="14" font-style="italic" lengthAdjust="spacingAndGlyphs" textLength="79" x="1032.5" y="474.8857">«BackEnd»</text><text fill="#000000" font-family="sans-serif" font-size="14" lengthAdjust="spacingAndGlyphs" textLength="83" x="1030.5" y="491.1826">TaskService</text><text fill="#000000" font-family="sans-serif" font-size="14" lengthAdjust="spacingAndGlyphs" textLength="69" x="1207.5" y="82.9951">MongoDB</text><path d="M1227,34 C1227,24 1245,24 1245,24 C1245,24 1263,24 1263,34 L1263,60 C1263,70 1245,70 1245,70 C1245,70 1227,70 1227,60 L1227,34 " fill="#FEFECE" filter="url(#f1of7z1p9001dw)" style="stroke: #000000; stroke-width: 1.5;"/><path d="M1227,34 C1227,44 1245,44 1245,44 C1245,44 1263,44 1263,34 " fill="none" style="stroke: #000000; stroke-width: 1.5;"/><text fill="#000000" font-family="sans-serif" font-size="14" lengthAdjust="spacingAndGlyphs" textLength="69" x="1207.5" y="467.8857">MongoDB</text><path d="M1227,481.1875 C1227,471.1875 1245,471.1875 1245,471.1875 C1245,471.1875 1263,471.1875 1263,481.1875 L1263,507.1875 C1263,517.1875 1245,517.1875 1245,517.1875 C1245,517.1875 1227,517.1875 1227,507.1875 L1227,481.1875 " fill="#FEFECE" filter="url(#f1of7z1p9001dw)" style="stroke: #000000; stroke-width: 1.5;"/><path d="M1227,481.1875 C1227,491.1875 1245,491.1875 1245,491.1875 C1245,491.1875 1263,491.1875 1263,481.1875 " fill="none" style="stroke: #000000; stroke-width: 1.5;"/><rect fill="#FFFFFF" filter="url(#f1of7z1p9001dw)" height="320.4609" style="stroke: #A80036; stroke-width: 1.0;" width="10" x="275.5" y="117.4297"/><rect fill="#FFFFFF" filter="url(#f1of7z1p9001dw)" height="262.1953" style="stroke: #A80036; stroke-width: 1.0;" width="10" x="470.5" y="146.5625"/><rect fill="#FFFFFF" filter="url(#f1of7z1p9001dw)" height="203.9297" style="stroke: #A80036; stroke-width: 1.0;" width="10" x="630" y="175.6953"/><rect fill="#FFFFFF" filter="url(#f1of7z1p9001dw)" height="145.6641" style="stroke: #A80036; stroke-width: 1.0;" width="10" x="893" y="204.8281"/><rect fill="#FFFFFF" filter="url(#f1of7z1p9001dw)" height="87.3984" style="stroke: #A80036; stroke-width: 1.0;" width="10" x="1069" y="233.9609"/><polygon fill="#A80036" points="263.5,113.4297,273.5,117.4297,263.5,121.4297,267.5,117.4297" style="stroke: #A80036; stroke-width: 1.0;"/><line style="stroke: #A80036; stroke-width: 1.0;" x1="59.5" x2="269.5" y1="117.4297" y2="117.4297"/><text fill="#000000" font-family="sans-serif" font-size="13" lengthAdjust="spacingAndGlyphs" textLength="158" x="66.5" y="112.3638">Request to Search Tasks</text><polygon fill="#A80036" points="458.5,142.5625,468.5,146.5625,458.5,150.5625,462.5,146.5625" style="stroke: #A80036; stroke-width: 1.0;"/><line style="stroke: #A80036; stroke-width: 1.0;" x1="285.5" x2="464.5" y1="146.5625" y2="146.5625"/><text fill="#000000" font-family="sans-serif" font-size="13" lengthAdjust="spacingAndGlyphs" textLength="166" x="292.5" y="141.4966">Receive the HTTP Request</text><polygon fill="#A80036" points="618,171.6953,628,175.6953,618,179.6953,622,175.6953" style="stroke: #A80036; stroke-width: 1.0;"/><line style="stroke: #A80036; stroke-width: 1.0;" x1="480.5" x2="624" y1="175.6953" y2="175.6953"/><text fill="#000000" font-family="sans-serif" font-size="13" lengthAdjust="spacingAndGlyphs" textLength="79" x="487.5" y="170.6294">searchTasks</text><polygon fill="#A80036" points="881,200.8281,891,204.8281,881,208.8281,885,204.8281" style="stroke: #A80036; stroke-width: 1.0;"/><line style="stroke: #A80036; stroke-width: 1.0;" x1="640" x2="887" y1="204.8281" y2="204.8281"/><text fill="#000000" font-family="sans-serif" font-size="13" lengthAdjust="spacingAndGlyphs" textLength="230" x="647" y="199.7622">HTTP GET searchTasks(searchTerm)</text><polygon fill="#A80036" points="1057,229.9609,1067,233.9609,1057,237.9609,1061,233.9609" style="stroke: #A80036; stroke-width: 1.0;"/><line style="stroke: #A80036; stroke-width: 1.0;" x1="903" x2="1063" y1="233.9609" y2="233.9609"/><text fill="#000000" font-family="sans-serif" font-size="13" lengthAdjust="spacingAndGlyphs" textLength="131" x="910" y="228.895">Search(searchTerm)</text><polygon fill="#A80036" points="1233,259.0938,1243,263.0938,1233,267.0938,1237,263.0938" style="stroke: #A80036; stroke-width: 1.0;"/><line style="stroke: #A80036; stroke-width: 1.0;" x1="1079" x2="1239" y1="263.0938" y2="263.0938"/><text fill="#000000" font-family="sans-serif" font-size="13" lengthAdjust="spacingAndGlyphs" textLength="131" x="1086" y="258.0278">Search(searchTerm)</text><polygon fill="#A80036" points="1090,288.2266,1080,292.2266,1090,296.2266,1086,292.2266" style="stroke: #A80036; stroke-width: 1.0;"/><line style="stroke: #A80036; stroke-width: 1.0; stroke-dasharray: 2.0,2.0;" x1="1084" x2="1244" y1="292.2266" y2="292.2266"/><text fill="#000000" font-family="sans-serif" font-size="13" lengthAdjust="spacingAndGlyphs" textLength="142" x="1096" y="287.1606">List of matching Tasks</text><polygon fill="#A80036" points="914,317.3594,904,321.3594,914,325.3594,910,321.3594" style="stroke: #A80036; stroke-width: 1.0;"/><line style="stroke: #A80036; stroke-width: 1.0; stroke-dasharray: 2.0,2.0;" x1="908" x2="1073" y1="321.3594" y2="321.3594"/><text fill="#000000" font-family="sans-serif" font-size="13" lengthAdjust="spacingAndGlyphs" textLength="142" x="920" y="316.2935">List of matching Tasks</text><polygon fill="#A80036" points="651,346.4922,641,350.4922,651,354.4922,647,350.4922" style="stroke: #A80036; stroke-width: 1.0;"/><line style="stroke: #A80036; stroke-width: 1.0; stroke-dasharray: 2.0,2.0;" x1="645" x2="897" y1="350.4922" y2="350.4922"/><text fill="#000000" font-family="sans-serif" font-size="13" lengthAdjust="spacingAndGlyphs" textLength="229" x="657" y="345.4263">HTTP OK with List of matching Tasks</text><polygon fill="#A80036" points="491.5,375.625,481.5,379.625,491.5,383.625,487.5,379.625" style="stroke: #A80036; stroke-width: 1.0;"/><line style="stroke: #A80036; stroke-width: 1.0;" x1="485.5" x2="634" y1="379.625" y2="379.625"/><text fill="#000000" font-family="sans-serif" font-size="13" lengthAdjust="spacingAndGlyphs" textLength="114" x="497.5" y="374.5591">Console.log Tasks</text><polygon fill="#A80036" points="296.5,404.7578,286.5,408.7578,296.5,412.7578,292.5,408.7578" style="stroke: #A80036; stroke-width: 1.0;"/><line style="stroke: #A80036; stroke-width: 1.0;" x1="290.5" x2="474.5" y1="408.7578" y2="408.7578"/><text fill="#000000" font-family="sans-serif" font-size="13" lengthAdjust="spacingAndGlyphs" textLength="36" x="302.5" y="403.6919">Tasks</text><polygon fill="#A80036" points="70.5,433.8906,60.5,437.8906,70.5,441.8906,66.5,437.8906" style="stroke: #A80036; stroke-width: 1.0;"/><line style="stroke: #A80036; stroke-width: 1.0; stroke-dasharray: 2.0,2.0;" x1="64.5" x2="279.5" y1="437.8906" y2="437.8906"/><text fill="#000000" font-family="sans-serif" font-size="13" lengthAdjust="spacingAndGlyphs" textLength="192" x="76.5" y="432.8247">Display List of matching Tasks</text><!--MD5=[ef3f30b8ccaa15d1aaeff1985547e53a]
@startuml
actor "Task Manager" as user
participant "ApproveTasksHTML" as ui
participant "ApproveTasksComponent" as component
participant "TaskService" as servicefe <<FrontEnd>>
participant "TasksController" as controller
participant "TaskService" as service <<BackEnd>>


database "MongoDB" as db

user -> ui: Request to Search Tasks
activate ui
ui -> component: Receive the HTTP Request
activate component
component -> servicefe: searchTasks
activate servicefe
servicefe -> controller: HTTP GET searchTasks(searchTerm)
activate controller
controller -> service: Search(searchTerm)
activate service
service -> db: Search(searchTerm)
db - -> service: List of matching Tasks
service - -> controller: List of matching Tasks
deactivate service
controller - -> servicefe: HTTP OK with List of matching Tasks
deactivate controller
servicefe -> component: Console.log Tasks
deactivate servicefe
component -> ui: Tasks
deactivate component
ui - -> user: Display List of matching Tasks

deactivate ui

@enduml

PlantUML version 1.2020.02(Sun Mar 01 10:22:07 UTC 2020)
(GPL source distribution)
Java Runtime: OpenJDK Runtime Environment
JVM: OpenJDK 64-Bit Server VM
Java Version: 11.0.21+9
Operating System: Linux
Default Encoding: UTF-8
Language: en
Country: null
--></g></svg>