<?xml version="1.0" encoding="UTF-8" standalone="no"?><svg xmlns="http://www.w3.org/2000/svg" xmlns:xlink="http://www.w3.org/1999/xlink" contentScriptType="application/ecmascript" contentStyleType="text/css" height="1049px" preserveAspectRatio="none" style="width:1503px;height:1049px;" version="1.1" viewBox="0 0 1503 1049" width="1503px" zoomAndPan="magnify"><defs><filter height="300%" id="f1t9qpl3yg29s8" width="300%" x="-1" y="-1"><feGaussianBlur result="blurOut" stdDeviation="2.0"/><feColorMatrix in="blurOut" result="blurOut2" type="matrix" values="0 0 0 0 0 0 0 0 0 0 0 0 0 0 0 0 0 0 .4 0"/><feOffset dx="4.0" dy="4.0" in="blurOut2" result="blurOut3"/><feBlend in="SourceGraphic" in2="blurOut3" mode="normal"/></filter></defs><g><rect fill="#FFFFFF" filter="url(#f1t9qpl3yg29s8)" height="832.9297" style="stroke: #A80036; stroke-width: 1.0;" width="10" x="173" y="117.4297"/><rect fill="#FFFFFF" filter="url(#f1t9qpl3yg29s8)" height="87.3984" style="stroke: #A80036; stroke-width: 1.0;" width="10" x="370" y="185.6953"/><rect fill="#FFFFFF" filter="url(#f1t9qpl3yg29s8)" height="29.1328" style="stroke: #A80036; stroke-width: 1.0;" width="10" x="521.5" y="214.8281"/><rect fill="#FFFFFF" filter="url(#f1t9qpl3yg29s8)" height="29.1328" style="stroke: #A80036; stroke-width: 1.0;" width="10" x="650.5" y="554.4219"/><rect fill="#FFFFFF" filter="url(#f1t9qpl3yg29s8)" height="29.1328" style="stroke: #A80036; stroke-width: 1.0;" width="10" x="650.5" y="804.0234"/><rect fill="#FFFFFF" filter="url(#f1t9qpl3yg29s8)" height="29.1328" style="stroke: #A80036; stroke-width: 1.0;" width="10" x="650.5" y="906.2266"/><rect fill="#FFFFFF" filter="url(#f1t9qpl3yg29s8)" height="53.2656" style="stroke: #A80036; stroke-width: 1.0;" width="10" x="840.5" y="273.0938"/><rect fill="#FFFFFF" filter="url(#f1t9qpl3yg29s8)" height="169.7969" style="stroke: #A80036; stroke-width: 1.0;" width="10" x="1039.5" y="326.3594"/><rect fill="#FFFFFF" filter="url(#f1t9qpl3yg29s8)" height="59.1328" style="stroke: #A80036; stroke-width: 1.0;" width="10" x="1039.5" y="686.625"/><rect fill="#FFFFFF" filter="url(#f1t9qpl3yg29s8)" height="111.5313" style="stroke: #A80036; stroke-width: 1.0;" width="10" x="1235.5" y="355.4922"/><rect fill="#FFFFFF" filter="url(#f1t9qpl3yg29s8)" height="89.1328" style="stroke: #A80036; stroke-width: 1.0;" width="10" x="1235.5" y="627.4922"/><rect fill="#FFFFFF" filter="url(#f1t9qpl3yg29s8)" height="53.2656" style="stroke: #A80036; stroke-width: 1.0;" width="10" x="1431.5" y="384.625"/><rect fill="#FFFFFF" filter="url(#f1t9qpl3yg29s8)" height="73.9375" style="stroke: #A80036; stroke-width: 1.0;" width="10" x="1431.5" y="583.5547"/><rect fill="#FFFFFF" filter="url(#f1t9qpl3yg29s8)" height="543.7344" style="stroke: #000000; stroke-width: 2.0;" width="1363.5" x="127.5" y="399.625"/><rect fill="#FFFFFF" height="249.6016" style="stroke: none; stroke-width: 1.0;" width="1363.5" x="127.5" y="591.5547"/><rect fill="#FFFFFF" height="102.2031" style="stroke: none; stroke-width: 1.0;" width="1363.5" x="127.5" y="841.1563"/><line style="stroke: #A80036; stroke-width: 1.0; stroke-dasharray: 5.0,5.0;" x1="27" x2="27" y1="86.2969" y2="960.3594"/><line style="stroke: #A80036; stroke-width: 1.0; stroke-dasharray: 5.0,5.0;" x1="177.5" x2="177.5" y1="86.2969" y2="960.3594"/><line style="stroke: #A80036; stroke-width: 1.0; stroke-dasharray: 5.0,5.0;" x1="375" x2="375" y1="86.2969" y2="960.3594"/><line style="stroke: #A80036; stroke-width: 1.0; stroke-dasharray: 5.0,5.0;" x1="526" x2="526" y1="86.2969" y2="960.3594"/><line style="stroke: #A80036; stroke-width: 1.0; stroke-dasharray: 5.0,5.0;" x1="655" x2="655" y1="86.2969" y2="960.3594"/><line style="stroke: #A80036; stroke-width: 1.0; stroke-dasharray: 5.0,5.0;" x1="845" x2="845" y1="86.2969" y2="960.3594"/><line style="stroke: #A80036; stroke-width: 1.0; stroke-dasharray: 5.0,5.0;" x1="1044.5" x2="1044.5" y1="86.2969" y2="960.3594"/><line style="stroke: #A80036; stroke-width: 1.0; stroke-dasharray: 5.0,5.0;" x1="1240" x2="1240" y1="86.2969" y2="960.3594"/><line style="stroke: #A80036; stroke-width: 1.0; stroke-dasharray: 5.0,5.0;" x1="1436" x2="1436" y1="86.2969" y2="960.3594"/><text fill="#000000" font-family="sans-serif" font-size="14" lengthAdjust="spacingAndGlyphs" textLength="32" x="8" y="82.9951">User</text><ellipse cx="27" cy="13" fill="#FEFECE" filter="url(#f1t9qpl3yg29s8)" rx="8" ry="8" style="stroke: #A80036; stroke-width: 2.0;"/><path d="M27,21 L27,48 M14,29 L40,29 M27,48 L14,63 M27,48 L40,63 " fill="none" filter="url(#f1t9qpl3yg29s8)" style="stroke: #A80036; stroke-width: 2.0;"/><text fill="#000000" font-family="sans-serif" font-size="14" lengthAdjust="spacingAndGlyphs" textLength="32" x="8" y="972.3545">User</text><ellipse cx="27" cy="985.6563" fill="#FEFECE" filter="url(#f1t9qpl3yg29s8)" rx="8" ry="8" style="stroke: #A80036; stroke-width: 2.0;"/><path d="M27,993.6563 L27,1020.6563 M14,1001.6563 L40,1001.6563 M27,1020.6563 L14,1035.6563 M27,1020.6563 L40,1035.6563 " fill="none" filter="url(#f1t9qpl3yg29s8)" style="stroke: #A80036; stroke-width: 2.0;"/><rect fill="#FEFECE" filter="url(#f1t9qpl3yg29s8)" height="46.5938" style="stroke: #A80036; stroke-width: 1.5;" width="77" x="137.5" y="34.7031"/><text fill="#000000" font-family="sans-serif" font-size="14" lengthAdjust="spacingAndGlyphs" textLength="63" x="144.5" y="54.6982">Frontend</text><text fill="#000000" font-family="sans-serif" font-size="14" lengthAdjust="spacingAndGlyphs" textLength="62" x="145" y="70.9951">(Angular)</text><rect fill="#FEFECE" filter="url(#f1t9qpl3yg29s8)" height="46.5938" style="stroke: #A80036; stroke-width: 1.5;" width="77" x="137.5" y="959.3594"/><text fill="#000000" font-family="sans-serif" font-size="14" lengthAdjust="spacingAndGlyphs" textLength="63" x="144.5" y="979.3545">Frontend</text><text fill="#000000" font-family="sans-serif" font-size="14" lengthAdjust="spacingAndGlyphs" textLength="62" x="145" y="995.6514">(Angular)</text><rect fill="#FEFECE" filter="url(#f1t9qpl3yg29s8)" height="46.5938" style="stroke: #A80036; stroke-width: 1.5;" width="172" x="287" y="34.7031"/><text fill="#000000" font-family="sans-serif" font-size="14" font-style="italic" lengthAdjust="spacingAndGlyphs" textLength="81" x="332.5" y="54.6982">«Frontend»</text><text fill="#000000" font-family="sans-serif" font-size="14" lengthAdjust="spacingAndGlyphs" textLength="158" x="294" y="70.9951">AuthInterceptorService</text><rect fill="#FEFECE" filter="url(#f1t9qpl3yg29s8)" height="46.5938" style="stroke: #A80036; stroke-width: 1.5;" width="172" x="287" y="959.3594"/><text fill="#000000" font-family="sans-serif" font-size="14" font-style="italic" lengthAdjust="spacingAndGlyphs" textLength="81" x="332.5" y="979.3545">«Frontend»</text><text fill="#000000" font-family="sans-serif" font-size="14" lengthAdjust="spacingAndGlyphs" textLength="158" x="294" y="995.6514">AuthInterceptorService</text><rect fill="#FEFECE" filter="url(#f1t9qpl3yg29s8)" height="46.5938" style="stroke: #A80036; stroke-width: 1.5;" width="103" x="473" y="34.7031"/><text fill="#000000" font-family="sans-serif" font-size="14" font-style="italic" lengthAdjust="spacingAndGlyphs" textLength="81" x="484" y="54.6982">«Frontend»</text><text fill="#000000" font-family="sans-serif" font-size="14" lengthAdjust="spacingAndGlyphs" textLength="89" x="480" y="70.9951">LocalStorage</text><rect fill="#FEFECE" filter="url(#f1t9qpl3yg29s8)" height="46.5938" style="stroke: #A80036; stroke-width: 1.5;" width="103" x="473" y="959.3594"/><text fill="#000000" font-family="sans-serif" font-size="14" font-style="italic" lengthAdjust="spacingAndGlyphs" textLength="81" x="484" y="979.3545">«Frontend»</text><text fill="#000000" font-family="sans-serif" font-size="14" lengthAdjust="spacingAndGlyphs" textLength="89" x="480" y="995.6514">LocalStorage</text><rect fill="#FEFECE" filter="url(#f1t9qpl3yg29s8)" height="46.5938" style="stroke: #A80036; stroke-width: 1.5;" width="127" x="590" y="34.7031"/><text fill="#000000" font-family="sans-serif" font-size="14" font-style="italic" lengthAdjust="spacingAndGlyphs" textLength="81" x="613" y="54.6982">«Frontend»</text><text fill="#000000" font-family="sans-serif" font-size="14" lengthAdjust="spacingAndGlyphs" textLength="113" x="597" y="70.9951">MessageService</text><rect fill="#FEFECE" filter="url(#f1t9qpl3yg29s8)" height="46.5938" style="stroke: #A80036; stroke-width: 1.5;" width="127" x="590" y="959.3594"/><text fill="#000000" font-family="sans-serif" font-size="14" font-style="italic" lengthAdjust="spacingAndGlyphs" textLength="81" x="613" y="979.3545">«Frontend»</text><text fill="#000000" font-family="sans-serif" font-size="14" lengthAdjust="spacingAndGlyphs" textLength="113" x="597" y="995.6514">MessageService</text><rect fill="#FEFECE" filter="url(#f1t9qpl3yg29s8)" height="46.5938" style="stroke: #A80036; stroke-width: 1.5;" width="225" x="731" y="34.7031"/><text fill="#000000" font-family="sans-serif" font-size="14" font-style="italic" lengthAdjust="spacingAndGlyphs" textLength="79" x="804" y="54.6982">«Backend»</text><text fill="#000000" font-family="sans-serif" font-size="14" lengthAdjust="spacingAndGlyphs" textLength="211" x="738" y="70.9951">JWT Authentication Middleware</text><rect fill="#FEFECE" filter="url(#f1t9qpl3yg29s8)" height="46.5938" style="stroke: #A80036; stroke-width: 1.5;" width="225" x="731" y="959.3594"/><text fill="#000000" font-family="sans-serif" font-size="14" font-style="italic" lengthAdjust="spacingAndGlyphs" textLength="79" x="804" y="979.3545">«Backend»</text><text fill="#000000" font-family="sans-serif" font-size="14" lengthAdjust="spacingAndGlyphs" textLength="211" x="738" y="995.6514">JWT Authentication Middleware</text><rect fill="#FEFECE" filter="url(#f1t9qpl3yg29s8)" height="46.5938" style="stroke: #A80036; stroke-width: 1.5;" width="114" x="985.5" y="34.7031"/><text fill="#000000" font-family="sans-serif" font-size="14" font-style="italic" lengthAdjust="spacingAndGlyphs" textLength="79" x="1003" y="54.6982">«Backend»</text><text fill="#000000" font-family="sans-serif" font-size="14" lengthAdjust="spacingAndGlyphs" textLength="100" x="992.5" y="70.9951">TaskController</text><rect fill="#FEFECE" filter="url(#f1t9qpl3yg29s8)" height="46.5938" style="stroke: #A80036; stroke-width: 1.5;" width="114" x="985.5" y="959.3594"/><text fill="#000000" font-family="sans-serif" font-size="14" font-style="italic" lengthAdjust="spacingAndGlyphs" textLength="79" x="1003" y="979.3545">«Backend»</text><text fill="#000000" font-family="sans-serif" font-size="14" lengthAdjust="spacingAndGlyphs" textLength="100" x="992.5" y="995.6514">TaskController</text><rect fill="#FEFECE" filter="url(#f1t9qpl3yg29s8)" height="46.5938" style="stroke: #A80036; stroke-width: 1.5;" width="97" x="1190" y="34.7031"/><text fill="#000000" font-family="sans-serif" font-size="14" font-style="italic" lengthAdjust="spacingAndGlyphs" textLength="79" x="1199" y="54.6982">«Backend»</text><text fill="#000000" font-family="sans-serif" font-size="14" lengthAdjust="spacingAndGlyphs" textLength="83" x="1197" y="70.9951">TaskService</text><rect fill="#FEFECE" filter="url(#f1t9qpl3yg29s8)" height="46.5938" style="stroke: #A80036; stroke-width: 1.5;" width="97" x="1190" y="959.3594"/><text fill="#000000" font-family="sans-serif" font-size="14" font-style="italic" lengthAdjust="spacingAndGlyphs" textLength="79" x="1199" y="979.3545">«Backend»</text><text fill="#000000" font-family="sans-serif" font-size="14" lengthAdjust="spacingAndGlyphs" textLength="83" x="1197" y="995.6514">TaskService</text><text fill="#000000" font-family="sans-serif" font-size="14" font-style="italic" lengthAdjust="spacingAndGlyphs" textLength="83" x="1392" y="66.6982">«Database»</text><text fill="#000000" font-family="sans-serif" font-size="14" lengthAdjust="spacingAndGlyphs" textLength="69" x="1399" y="82.9951">MongoDB</text><path d="M1418.5,17.7031 C1418.5,7.7031 1436.5,7.7031 1436.5,7.7031 C1436.5,7.7031 1454.5,7.7031 1454.5,17.7031 L1454.5,43.7031 C1454.5,53.7031 1436.5,53.7031 1436.5,53.7031 C1436.5,53.7031 1418.5,53.7031 1418.5,43.7031 L1418.5,17.7031 " fill="#FEFECE" filter="url(#f1t9qpl3yg29s8)" style="stroke: #000000; stroke-width: 1.5;"/><path d="M1418.5,17.7031 C1418.5,27.7031 1436.5,27.7031 1436.5,27.7031 C1436.5,27.7031 1454.5,27.7031 1454.5,17.7031 " fill="none" style="stroke: #000000; stroke-width: 1.5;"/><text fill="#000000" font-family="sans-serif" font-size="14" font-style="italic" lengthAdjust="spacingAndGlyphs" textLength="83" x="1392" y="972.3545">«Database»</text><text fill="#000000" font-family="sans-serif" font-size="14" lengthAdjust="spacingAndGlyphs" textLength="69" x="1399" y="988.6514">MongoDB</text><path d="M1418.5,1001.9531 C1418.5,991.9531 1436.5,991.9531 1436.5,991.9531 C1436.5,991.9531 1454.5,991.9531 1454.5,1001.9531 L1454.5,1027.9531 C1454.5,1037.9531 1436.5,1037.9531 1436.5,1037.9531 C1436.5,1037.9531 1418.5,1037.9531 1418.5,1027.9531 L1418.5,1001.9531 " fill="#FEFECE" filter="url(#f1t9qpl3yg29s8)" style="stroke: #000000; stroke-width: 1.5;"/><path d="M1418.5,1001.9531 C1418.5,1011.9531 1436.5,1011.9531 1436.5,1011.9531 C1436.5,1011.9531 1454.5,1011.9531 1454.5,1001.9531 " fill="none" style="stroke: #000000; stroke-width: 1.5;"/><rect fill="#FFFFFF" filter="url(#f1t9qpl3yg29s8)" height="832.9297" style="stroke: #A80036; stroke-width: 1.0;" width="10" x="173" y="117.4297"/><rect fill="#FFFFFF" filter="url(#f1t9qpl3yg29s8)" height="87.3984" style="stroke: #A80036; stroke-width: 1.0;" width="10" x="370" y="185.6953"/><rect fill="#FFFFFF" filter="url(#f1t9qpl3yg29s8)" height="29.1328" style="stroke: #A80036; stroke-width: 1.0;" width="10" x="521.5" y="214.8281"/><rect fill="#FFFFFF" filter="url(#f1t9qpl3yg29s8)" height="29.1328" style="stroke: #A80036; stroke-width: 1.0;" width="10" x="650.5" y="554.4219"/><rect fill="#FFFFFF" filter="url(#f1t9qpl3yg29s8)" height="29.1328" style="stroke: #A80036; stroke-width: 1.0;" width="10" x="650.5" y="804.0234"/><rect fill="#FFFFFF" filter="url(#f1t9qpl3yg29s8)" height="29.1328" style="stroke: #A80036; stroke-width: 1.0;" width="10" x="650.5" y="906.2266"/><rect fill="#FFFFFF" filter="url(#f1t9qpl3yg29s8)" height="53.2656" style="stroke: #A80036; stroke-width: 1.0;" width="10" x="840.5" y="273.0938"/><rect fill="#FFFFFF" filter="url(#f1t9qpl3yg29s8)" height="169.7969" style="stroke: #A80036; stroke-width: 1.0;" width="10" x="1039.5" y="326.3594"/><rect fill="#FFFFFF" filter="url(#f1t9qpl3yg29s8)" height="59.1328" style="stroke: #A80036; stroke-width: 1.0;" width="10" x="1039.5" y="686.625"/><rect fill="#FFFFFF" filter="url(#f1t9qpl3yg29s8)" height="111.5313" style="stroke: #A80036; stroke-width: 1.0;" width="10" x="1235.5" y="355.4922"/><rect fill="#FFFFFF" filter="url(#f1t9qpl3yg29s8)" height="89.1328" style="stroke: #A80036; stroke-width: 1.0;" width="10" x="1235.5" y="627.4922"/><rect fill="#FFFFFF" filter="url(#f1t9qpl3yg29s8)" height="53.2656" style="stroke: #A80036; stroke-width: 1.0;" width="10" x="1431.5" y="384.625"/><rect fill="#FFFFFF" filter="url(#f1t9qpl3yg29s8)" height="73.9375" style="stroke: #A80036; stroke-width: 1.0;" width="10" x="1431.5" y="583.5547"/><polygon fill="#A80036" points="161,113.4297,171,117.4297,161,121.4297,165,117.4297" style="stroke: #A80036; stroke-width: 1.0;"/><line style="stroke: #A80036; stroke-width: 1.0;" x1="27" x2="167" y1="117.4297" y2="117.4297"/><text fill="#000000" font-family="sans-serif" font-size="13" lengthAdjust="spacingAndGlyphs" textLength="127" x="34" y="112.3638">Access Search Task</text><path d="M32,130.4297 L32,155.4297 L202,155.4297 L202,140.4297 L192,130.4297 L32,130.4297 " fill="#FBFB77" filter="url(#f1t9qpl3yg29s8)" style="stroke: #A80036; stroke-width: 1.0;"/><path d="M192,130.4297 L192,140.4297 L202,140.4297 L192,130.4297 " fill="#FBFB77" style="stroke: #A80036; stroke-width: 1.0;"/><text fill="#000000" font-family="sans-serif" font-size="13" lengthAdjust="spacingAndGlyphs" textLength="149" x="38" y="147.4966">User must be logged in</text><polygon fill="#A80036" points="358,181.6953,368,185.6953,358,189.6953,362,185.6953" style="stroke: #A80036; stroke-width: 1.0;"/><line style="stroke: #A80036; stroke-width: 1.0;" x1="183" x2="364" y1="185.6953" y2="185.6953"/><text fill="#000000" font-family="sans-serif" font-size="13" lengthAdjust="spacingAndGlyphs" textLength="168" x="190" y="180.6294">Prepare HTTP GET request</text><polygon fill="#A80036" points="509.5,210.8281,519.5,214.8281,509.5,218.8281,513.5,214.8281" style="stroke: #A80036; stroke-width: 1.0;"/><line style="stroke: #A80036; stroke-width: 1.0;" x1="380" x2="515.5" y1="214.8281" y2="214.8281"/><text fill="#000000" font-family="sans-serif" font-size="13" lengthAdjust="spacingAndGlyphs" textLength="119" x="387" y="209.7622">Retrieve JWT Token</text><polygon fill="#A80036" points="391,239.9609,381,243.9609,391,247.9609,387,243.9609" style="stroke: #A80036; stroke-width: 1.0;"/><line style="stroke: #A80036; stroke-width: 1.0; stroke-dasharray: 2.0,2.0;" x1="385" x2="525.5" y1="243.9609" y2="243.9609"/><text fill="#000000" font-family="sans-serif" font-size="13" lengthAdjust="spacingAndGlyphs" textLength="63" x="397" y="238.895">JWT Token</text><polygon fill="#A80036" points="828.5,269.0938,838.5,273.0938,828.5,277.0938,832.5,273.0938" style="stroke: #A80036; stroke-width: 1.0;"/><line style="stroke: #A80036; stroke-width: 1.0;" x1="375" x2="834.5" y1="273.0938" y2="273.0938"/><text fill="#000000" font-family="sans-serif" font-size="13" lengthAdjust="spacingAndGlyphs" textLength="270" x="382" y="268.0278">Forward request with Authorization header</text><polygon fill="#A80036" points="1027.5,322.3594,1037.5,326.3594,1027.5,330.3594,1031.5,326.3594" style="stroke: #A80036; stroke-width: 1.0;"/><line style="stroke: #A80036; stroke-width: 1.0;" x1="845.5" x2="1033.5" y1="326.3594" y2="326.3594"/><text fill="#000000" font-family="sans-serif" font-size="13" lengthAdjust="spacingAndGlyphs" textLength="170" x="852.5" y="321.2935">Forward Validated Request</text><polygon fill="#A80036" points="1223.5,351.4922,1233.5,355.4922,1223.5,359.4922,1227.5,355.4922" style="stroke: #A80036; stroke-width: 1.0;"/><line style="stroke: #A80036; stroke-width: 1.0;" x1="1049.5" x2="1229.5" y1="355.4922" y2="355.4922"/><text fill="#000000" font-family="sans-serif" font-size="13" lengthAdjust="spacingAndGlyphs" textLength="167" x="1056.5" y="350.4263">SearchTasks(searchTerm)</text><polygon fill="#A80036" points="1419.5,380.625,1429.5,384.625,1419.5,388.625,1423.5,384.625" style="stroke: #A80036; stroke-width: 1.0;"/><line style="stroke: #A80036; stroke-width: 1.0;" x1="1245.5" x2="1425.5" y1="384.625" y2="384.625"/><text fill="#000000" font-family="sans-serif" font-size="13" lengthAdjust="spacingAndGlyphs" textLength="167" x="1252.5" y="379.5591">SearchTasks(searchTerm)</text><path d="M127.5,399.625 L191.5,399.625 L191.5,406.625 L181.5,416.625 L127.5,416.625 L127.5,399.625 " fill="#EEEEEE" style="stroke: #000000; stroke-width: 1.0;"/><rect fill="none" height="543.7344" style="stroke: #000000; stroke-width: 2.0;" width="1363.5" x="127.5" y="399.625"/><text fill="#000000" font-family="sans-serif" font-size="13" font-weight="bold" lengthAdjust="spacingAndGlyphs" textLength="19" x="142.5" y="412.6919">alt</text><text fill="#000000" font-family="sans-serif" font-size="11" font-weight="bold" lengthAdjust="spacingAndGlyphs" textLength="100" x="206.5" y="411.8354">[Backend Error]</text><polygon fill="#A80036" points="1256.5,433.8906,1246.5,437.8906,1256.5,441.8906,1252.5,437.8906" style="stroke: #A80036; stroke-width: 1.0;"/><line style="stroke: #A80036; stroke-width: 1.0;" x1="1250.5" x2="1435.5" y1="437.8906" y2="437.8906"/><text fill="#000000" font-family="sans-serif" font-size="13" lengthAdjust="spacingAndGlyphs" textLength="97" x="1262.5" y="432.8247">Error Response</text><polygon fill="#A80036" points="1060.5,463.0234,1050.5,467.0234,1060.5,471.0234,1056.5,467.0234" style="stroke: #A80036; stroke-width: 1.0;"/><line style="stroke: #A80036; stroke-width: 1.0; stroke-dasharray: 2.0,2.0;" x1="1054.5" x2="1239.5" y1="467.0234" y2="467.0234"/><text fill="#000000" font-family="sans-serif" font-size="13" lengthAdjust="spacingAndGlyphs" textLength="97" x="1066.5" y="461.9575">Error Response</text><polygon fill="#A80036" points="856.5,492.1563,846.5,496.1563,856.5,500.1563,852.5,496.1563" style="stroke: #A80036; stroke-width: 1.0;"/><line style="stroke: #A80036; stroke-width: 1.0; stroke-dasharray: 2.0,2.0;" x1="850.5" x2="1043.5" y1="496.1563" y2="496.1563"/><text fill="#000000" font-family="sans-serif" font-size="13" lengthAdjust="spacingAndGlyphs" textLength="97" x="862.5" y="491.0903">Error Response</text><polygon fill="#A80036" points="194,521.2891,184,525.2891,194,529.2891,190,525.2891" style="stroke: #A80036; stroke-width: 1.0;"/><line style="stroke: #A80036; stroke-width: 1.0; stroke-dasharray: 2.0,2.0;" x1="188" x2="844.5" y1="525.2891" y2="525.2891"/><text fill="#000000" font-family="sans-serif" font-size="13" lengthAdjust="spacingAndGlyphs" textLength="97" x="200" y="520.2231">Error Response</text><polygon fill="#A80036" points="638.5,550.4219,648.5,554.4219,638.5,558.4219,642.5,554.4219" style="stroke: #A80036; stroke-width: 1.0;"/><line style="stroke: #A80036; stroke-width: 1.0;" x1="183" x2="644.5" y1="554.4219" y2="554.4219"/><text fill="#000000" font-family="sans-serif" font-size="13" lengthAdjust="spacingAndGlyphs" textLength="147" x="190" y="549.356">"Server error occurred"</text><polygon fill="#A80036" points="194,579.5547,184,583.5547,194,587.5547,190,583.5547" style="stroke: #A80036; stroke-width: 1.0;"/><line style="stroke: #A80036; stroke-width: 1.0;" x1="188" x2="654.5" y1="583.5547" y2="583.5547"/><text fill="#000000" font-family="sans-serif" font-size="13" lengthAdjust="spacingAndGlyphs" textLength="144" x="200" y="578.4888">Display error message</text><line style="stroke: #000000; stroke-width: 1.0; stroke-dasharray: 2.0,2.0;" x1="127.5" x2="1491" y1="592.5547" y2="592.5547"/><text fill="#000000" font-family="sans-serif" font-size="11" font-weight="bold" lengthAdjust="spacingAndGlyphs" textLength="121" x="132.5" y="602.7651">[No Backend Error]</text><polygon fill="#A80036" points="1256.5,623.4922,1246.5,627.4922,1256.5,631.4922,1252.5,627.4922" style="stroke: #A80036; stroke-width: 1.0;"/><line style="stroke: #A80036; stroke-width: 1.0;" x1="1250.5" x2="1430.5" y1="627.4922" y2="627.4922"/><text fill="#000000" font-family="sans-serif" font-size="13" lengthAdjust="spacingAndGlyphs" textLength="153" x="1262.5" y="622.4263">List with matching tasks</text><polygon fill="#A80036" points="1060.5,682.625,1050.5,686.625,1060.5,690.625,1056.5,686.625" style="stroke: #A80036; stroke-width: 1.0;"/><line style="stroke: #A80036; stroke-width: 1.0; stroke-dasharray: 2.0,2.0;" x1="1054.5" x2="1234.5" y1="686.625" y2="686.625"/><text fill="#000000" font-family="sans-serif" font-size="13" lengthAdjust="spacingAndGlyphs" textLength="96" x="1066.5" y="681.5591">Matching tasks</text><polygon fill="#A80036" points="856.5,741.7578,846.5,745.7578,856.5,749.7578,852.5,745.7578" style="stroke: #A80036; stroke-width: 1.0;"/><line style="stroke: #A80036; stroke-width: 1.0; stroke-dasharray: 2.0,2.0;" x1="850.5" x2="1043.5" y1="745.7578" y2="745.7578"/><text fill="#000000" font-family="sans-serif" font-size="13" lengthAdjust="spacingAndGlyphs" textLength="71" x="862.5" y="740.6919">Tasks Data</text><polygon fill="#A80036" points="194,770.8906,184,774.8906,194,778.8906,190,774.8906" style="stroke: #A80036; stroke-width: 1.0;"/><line style="stroke: #A80036; stroke-width: 1.0; stroke-dasharray: 2.0,2.0;" x1="188" x2="844.5" y1="774.8906" y2="774.8906"/><text fill="#000000" font-family="sans-serif" font-size="13" lengthAdjust="spacingAndGlyphs" textLength="71" x="200" y="769.8247">Tasks Data</text><polygon fill="#A80036" points="638.5,800.0234,648.5,804.0234,638.5,808.0234,642.5,804.0234" style="stroke: #A80036; stroke-width: 1.0;"/><line style="stroke: #A80036; stroke-width: 1.0;" x1="183" x2="644.5" y1="804.0234" y2="804.0234"/><text fill="#000000" font-family="sans-serif" font-size="13" lengthAdjust="spacingAndGlyphs" textLength="173" x="190" y="798.9575">"Tasks loaded successfully"</text><polygon fill="#A80036" points="194,829.1563,184,833.1563,194,837.1563,190,833.1563" style="stroke: #A80036; stroke-width: 1.0;"/><line style="stroke: #A80036; stroke-width: 1.0;" x1="188" x2="654.5" y1="833.1563" y2="833.1563"/><text fill="#000000" font-family="sans-serif" font-size="13" lengthAdjust="spacingAndGlyphs" textLength="106" x="200" y="828.0903">Display tasks list</text><line style="stroke: #000000; stroke-width: 1.0; stroke-dasharray: 2.0,2.0;" x1="127.5" x2="1491" y1="842.1563" y2="842.1563"/><text fill="#000000" font-family="sans-serif" font-size="11" font-weight="bold" lengthAdjust="spacingAndGlyphs" textLength="125" x="132.5" y="852.3667">[JWT Token Invalid]</text><polygon fill="#A80036" points="194,873.0938,184,877.0938,194,881.0938,190,877.0938" style="stroke: #A80036; stroke-width: 1.0;"/><line style="stroke: #A80036; stroke-width: 1.0; stroke-dasharray: 2.0,2.0;" x1="188" x2="844.5" y1="877.0938" y2="877.0938"/><text fill="#000000" font-family="sans-serif" font-size="13" lengthAdjust="spacingAndGlyphs" textLength="152" x="200" y="872.0278">Unauthorized Response</text><polygon fill="#A80036" points="638.5,902.2266,648.5,906.2266,638.5,910.2266,642.5,906.2266" style="stroke: #A80036; stroke-width: 1.0;"/><line style="stroke: #A80036; stroke-width: 1.0;" x1="183" x2="644.5" y1="906.2266" y2="906.2266"/><text fill="#000000" font-family="sans-serif" font-size="13" lengthAdjust="spacingAndGlyphs" textLength="138" x="190" y="901.1606">"Authentication error"</text><polygon fill="#A80036" points="194,931.3594,184,935.3594,194,939.3594,190,935.3594" style="stroke: #A80036; stroke-width: 1.0;"/><line style="stroke: #A80036; stroke-width: 1.0;" x1="188" x2="654.5" y1="935.3594" y2="935.3594"/><text fill="#000000" font-family="sans-serif" font-size="13" lengthAdjust="spacingAndGlyphs" textLength="240" x="200" y="930.2935">Display authentication error message</text><!--MD5=[3c5eda5f8ebe27b176263507682e6f1b]
@startuml
actor User
participant "Frontend\n(Angular)" as Frontend
participant "AuthInterceptorService" as AuthInterceptor <<Frontend>>
participant "LocalStorage" as LocalStorage <<Frontend>>
participant "MessageService" as MessageService <<Frontend>>
participant "JWT Authentication Middleware" as JwtAuth <<Backend>>
participant "TaskController" as Controller <<Backend>>
participant "TaskService" as TaskService <<Backend>>
database "MongoDB" as Database <<Database>>

User -> Frontend: Access Search Task
note right of User: User must be logged in
activate Frontend

Frontend -> AuthInterceptor: Prepare HTTP GET request
activate AuthInterceptor
AuthInterceptor -> LocalStorage: Retrieve JWT Token
activate LocalStorage
LocalStorage - -> AuthInterceptor: JWT Token
deactivate LocalStorage

AuthInterceptor -> JwtAuth: Forward request with Authorization header
deactivate AuthInterceptor
activate JwtAuth

alt JWT Token Valid
    JwtAuth -> Controller: Forward Validated Request
    deactivate JwtAuth
    activate Controller

    Controller -> TaskService: SearchTasks(searchTerm)
    activate TaskService

    TaskService -> Database: SearchTasks(searchTerm)
    activate Database

    alt Backend Error
        Database -> TaskService: Error Response
        deactivate Database
        TaskService - -> Controller: Error Response
        deactivate TaskService

        Controller - -> JwtAuth: Error Response
        deactivate Controller

        JwtAuth - -> Frontend: Error Response
        deactivate JwtAuth

        Frontend -> MessageService: "Server error occurred"
        activate MessageService
        MessageService -> Frontend: Display error message
        deactivate MessageService
    else No Backend Error

        activate Database
        Database -> TaskService: List with matching tasks

        activate TaskService
        deactivate Database
        TaskService - -> Controller: Matching tasks
        activate Controller

        deactivate TaskService

        Controller - -> JwtAuth: Tasks Data
        deactivate Controller

        JwtAuth - -> Frontend: Tasks Data
        deactivate JwtAuth

        Frontend -> MessageService: "Tasks loaded successfully"
        activate MessageService
        MessageService -> Frontend: Display tasks list
        deactivate MessageService

    else JWT Token Invalid
        JwtAuth - -> Frontend: Unauthorized Response
        deactivate JwtAuth

        Frontend -> MessageService: "Authentication error"
        activate MessageService
        MessageService -> Frontend: Display authentication error message
        deactivate MessageService
    end

    deactivate Frontend
    @enduml

PlantUML version 1.2020.02(Sun Mar 01 10:22:07 UTC 2020)
(GPL source distribution)
Java Runtime: OpenJDK Runtime Environment
JVM: OpenJDK 64-Bit Server VM
Java Version: 11.0.21+9
Operating System: Linux
Default Encoding: UTF-8
Language: en
Country: null
--></g></svg>