<?xml version="1.0" encoding="UTF-8" standalone="no"?><svg xmlns="http://www.w3.org/2000/svg" xmlns:xlink="http://www.w3.org/1999/xlink" contentScriptType="application/ecmascript" contentStyleType="text/css" height="565px" preserveAspectRatio="none" style="width:514px;height:565px;" version="1.1" viewBox="0 0 514 565" width="514px" zoomAndPan="magnify"><defs><filter height="300%" id="f5kbyan308o3p" width="300%" x="-1" y="-1"><feGaussianBlur result="blurOut" stdDeviation="2.0"/><feColorMatrix in="blurOut" result="blurOut2" type="matrix" values="0 0 0 0 0 0 0 0 0 0 0 0 0 0 0 0 0 0 .4 0"/><feOffset dx="4.0" dy="4.0" in="blurOut2" result="blurOut3"/><feBlend in="SourceGraphic" in2="blurOut3" mode="normal"/></filter></defs><g><rect fill="#FFFFFF" filter="url(#f5kbyan308o3p)" height="221.5391" style="stroke: #000000; stroke-width: 2.0;" width="489" x="13" y="239.8281"/><rect fill="#FFFFFF" height="73.0703" style="stroke: none; stroke-width: 1.0;" width="489" x="13" y="315.2266"/><rect fill="#FFFFFF" height="73.0703" style="stroke: none; stroke-width: 1.0;" width="489" x="13" y="388.2969"/><line style="stroke: #A80036; stroke-width: 1.0; stroke-dasharray: 5.0,5.0;" x1="42" x2="42" y1="86.2969" y2="478.3672"/><line style="stroke: #A80036; stroke-width: 1.0; stroke-dasharray: 5.0,5.0;" x1="243.5" x2="243.5" y1="86.2969" y2="478.3672"/><line style="stroke: #A80036; stroke-width: 1.0; stroke-dasharray: 5.0,5.0;" x1="422" x2="422" y1="86.2969" y2="478.3672"/><text fill="#000000" font-family="sans-serif" font-size="14" lengthAdjust="spacingAndGlyphs" textLength="32" x="23" y="82.9951">User</text><ellipse cx="42" cy="13" fill="#FEFECE" filter="url(#f5kbyan308o3p)" rx="8" ry="8" style="stroke: #A80036; stroke-width: 2.0;"/><path d="M42,21 L42,48 M29,29 L55,29 M42,48 L29,63 M42,48 L55,63 " fill="none" filter="url(#f5kbyan308o3p)" style="stroke: #A80036; stroke-width: 2.0;"/><text fill="#000000" font-family="sans-serif" font-size="14" lengthAdjust="spacingAndGlyphs" textLength="32" x="23" y="490.3623">User</text><ellipse cx="42" cy="503.6641" fill="#FEFECE" filter="url(#f5kbyan308o3p)" rx="8" ry="8" style="stroke: #A80036; stroke-width: 2.0;"/><path d="M42,511.6641 L42,538.6641 M29,519.6641 L55,519.6641 M42,538.6641 L29,553.6641 M42,538.6641 L55,553.6641 " fill="none" filter="url(#f5kbyan308o3p)" style="stroke: #A80036; stroke-width: 2.0;"/><rect fill="#FEFECE" filter="url(#f5kbyan308o3p)" height="46.5938" style="stroke: #A80036; stroke-width: 1.5;" width="95" x="194.5" y="34.7031"/><text fill="#000000" font-family="sans-serif" font-size="14" font-style="italic" lengthAdjust="spacingAndGlyphs" textLength="81" x="201.5" y="54.6982">«Frontend»</text><text fill="#000000" font-family="sans-serif" font-size="14" lengthAdjust="spacingAndGlyphs" textLength="52" x="216" y="70.9951">Angular</text><rect fill="#FEFECE" filter="url(#f5kbyan308o3p)" height="46.5938" style="stroke: #A80036; stroke-width: 1.5;" width="95" x="194.5" y="477.3672"/><text fill="#000000" font-family="sans-serif" font-size="14" font-style="italic" lengthAdjust="spacingAndGlyphs" textLength="81" x="201.5" y="497.3623">«Frontend»</text><text fill="#000000" font-family="sans-serif" font-size="14" lengthAdjust="spacingAndGlyphs" textLength="52" x="216" y="513.6592">Angular</text><rect fill="#FEFECE" filter="url(#f5kbyan308o3p)" height="46.5938" style="stroke: #A80036; stroke-width: 1.5;" width="136" x="352" y="34.7031"/><text fill="#000000" font-family="sans-serif" font-size="14" font-style="italic" lengthAdjust="spacingAndGlyphs" textLength="79" x="380.5" y="54.6982">«Backend»</text><text fill="#000000" font-family="sans-serif" font-size="14" lengthAdjust="spacingAndGlyphs" textLength="122" x="359" y="70.9951">C# ASP.NET Core</text><rect fill="#FEFECE" filter="url(#f5kbyan308o3p)" height="46.5938" style="stroke: #A80036; stroke-width: 1.5;" width="136" x="352" y="477.3672"/><text fill="#000000" font-family="sans-serif" font-size="14" font-style="italic" lengthAdjust="spacingAndGlyphs" textLength="79" x="380.5" y="497.3623">«Backend»</text><text fill="#000000" font-family="sans-serif" font-size="14" lengthAdjust="spacingAndGlyphs" textLength="122" x="359" y="513.6592">C# ASP.NET Core</text><polygon fill="#A80036" points="232,113.4297,242,117.4297,232,121.4297,236,117.4297" style="stroke: #A80036; stroke-width: 1.0;"/><line style="stroke: #A80036; stroke-width: 1.0;" x1="42" x2="238" y1="117.4297" y2="117.4297"/><text fill="#000000" font-family="sans-serif" font-size="13" lengthAdjust="spacingAndGlyphs" textLength="127" x="49" y="112.3638">Access Search Task</text><path d="M47,130.4297 L47,155.4297 L217,155.4297 L217,140.4297 L207,130.4297 L47,130.4297 " fill="#FBFB77" filter="url(#f5kbyan308o3p)" style="stroke: #A80036; stroke-width: 1.0;"/><path d="M207,130.4297 L207,140.4297 L217,140.4297 L207,130.4297 " fill="#FBFB77" style="stroke: #A80036; stroke-width: 1.0;"/><text fill="#000000" font-family="sans-serif" font-size="13" lengthAdjust="spacingAndGlyphs" textLength="149" x="53" y="147.4966">User must be logged in</text><polygon fill="#A80036" points="410,181.6953,420,185.6953,410,189.6953,414,185.6953" style="stroke: #A80036; stroke-width: 1.0;"/><line style="stroke: #A80036; stroke-width: 1.0;" x1="244" x2="416" y1="185.6953" y2="185.6953"/><text fill="#000000" font-family="sans-serif" font-size="13" lengthAdjust="spacingAndGlyphs" textLength="134" x="251" y="180.6294">Request Search Task</text><path d="M249,198.6953 L249,223.6953 L389,223.6953 L389,208.6953 L379,198.6953 L249,198.6953 " fill="#FBFB77" filter="url(#f5kbyan308o3p)" style="stroke: #A80036; stroke-width: 1.0;"/><path d="M379,198.6953 L379,208.6953 L389,208.6953 L379,198.6953 " fill="#FBFB77" style="stroke: #A80036; stroke-width: 1.0;"/><text fill="#000000" font-family="sans-serif" font-size="13" lengthAdjust="spacingAndGlyphs" textLength="119" x="255" y="215.7622">Includes JWT Token</text><path d="M13,239.8281 L77,239.8281 L77,246.8281 L67,256.8281 L13,256.8281 L13,239.8281 " fill="#EEEEEE" style="stroke: #000000; stroke-width: 1.0;"/><rect fill="none" height="221.5391" style="stroke: #000000; stroke-width: 2.0;" width="489" x="13" y="239.8281"/><text fill="#000000" font-family="sans-serif" font-size="13" font-weight="bold" lengthAdjust="spacingAndGlyphs" textLength="19" x="28" y="252.895">alt</text><text fill="#000000" font-family="sans-serif" font-size="11" font-weight="bold" lengthAdjust="spacingAndGlyphs" textLength="257" x="92" y="252.0386">[JWT Token Valid and No Backend Error]</text><polygon fill="#A80036" points="255,274.0938,245,278.0938,255,282.0938,251,278.0938" style="stroke: #A80036; stroke-width: 1.0;"/><line style="stroke: #A80036; stroke-width: 1.0;" x1="249" x2="421" y1="278.0938" y2="278.0938"/><text fill="#000000" font-family="sans-serif" font-size="13" lengthAdjust="spacingAndGlyphs" textLength="154" x="261" y="273.0278">Response with the tasks</text><polygon fill="#A80036" points="53,303.2266,43,307.2266,53,311.2266,49,307.2266" style="stroke: #A80036; stroke-width: 1.0;"/><line style="stroke: #A80036; stroke-width: 1.0;" x1="47" x2="243" y1="307.2266" y2="307.2266"/><text fill="#000000" font-family="sans-serif" font-size="13" lengthAdjust="spacingAndGlyphs" textLength="84" x="59" y="302.1606">Display tasks</text><line style="stroke: #000000; stroke-width: 1.0; stroke-dasharray: 2.0,2.0;" x1="13" x2="502" y1="316.2266" y2="316.2266"/><text fill="#000000" font-family="sans-serif" font-size="11" font-weight="bold" lengthAdjust="spacingAndGlyphs" textLength="125" x="18" y="326.437">[JWT Token Invalid]</text><polygon fill="#A80036" points="255,347.1641,245,351.1641,255,355.1641,251,351.1641" style="stroke: #A80036; stroke-width: 1.0;"/><line style="stroke: #A80036; stroke-width: 1.0;" x1="249" x2="421" y1="351.1641" y2="351.1641"/><text fill="#000000" font-family="sans-serif" font-size="13" lengthAdjust="spacingAndGlyphs" textLength="152" x="261" y="346.0981">Unauthorized Response</text><polygon fill="#A80036" points="53,376.2969,43,380.2969,53,384.2969,49,380.2969" style="stroke: #A80036; stroke-width: 1.0;"/><line style="stroke: #A80036; stroke-width: 1.0;" x1="47" x2="243" y1="380.2969" y2="380.2969"/><text fill="#000000" font-family="sans-serif" font-size="13" lengthAdjust="spacingAndGlyphs" textLength="178" x="59" y="375.231">Display Authentication Error</text><line style="stroke: #000000; stroke-width: 1.0; stroke-dasharray: 2.0,2.0;" x1="13" x2="502" y1="389.2969" y2="389.2969"/><text fill="#000000" font-family="sans-serif" font-size="11" font-weight="bold" lengthAdjust="spacingAndGlyphs" textLength="100" x="18" y="399.5073">[Backend Error]</text><polygon fill="#A80036" points="255,420.2344,245,424.2344,255,428.2344,251,424.2344" style="stroke: #A80036; stroke-width: 1.0;"/><line style="stroke: #A80036; stroke-width: 1.0;" x1="249" x2="421" y1="424.2344" y2="424.2344"/><text fill="#000000" font-family="sans-serif" font-size="13" lengthAdjust="spacingAndGlyphs" textLength="97" x="261" y="419.1685">Error Response</text><polygon fill="#A80036" points="53,449.3672,43,453.3672,53,457.3672,49,453.3672" style="stroke: #A80036; stroke-width: 1.0;"/><line style="stroke: #A80036; stroke-width: 1.0;" x1="47" x2="243" y1="453.3672" y2="453.3672"/><text fill="#000000" font-family="sans-serif" font-size="13" lengthAdjust="spacingAndGlyphs" textLength="134" x="59" y="448.3013">Display System Error</text><!--MD5=[99951b0e7f58147ad0c75e8a0a279837]
@startuml
actor User
participant "Angular" as Frontend <<Frontend>>
participant "C# ASP.NET Core" as Backend <<Backend>>

User -> Frontend: Access Search Task
note right of User: User must be logged in

Frontend -> Backend: Request Search Task
note right of Frontend: Includes JWT Token

alt JWT Token Valid and No Backend Error
    Backend -> Frontend: Response with the tasks
    Frontend -> User: Display tasks
else JWT Token Invalid
    Backend -> Frontend: Unauthorized Response
    Frontend -> User: Display Authentication Error
else Backend Error
    Backend -> Frontend: Error Response
    Frontend -> User: Display System Error
end
@enduml

PlantUML version 1.2020.02(Sun Mar 01 10:22:07 UTC 2020)
(GPL source distribution)
Java Runtime: OpenJDK Runtime Environment
JVM: OpenJDK 64-Bit Server VM
Java Version: 11.0.21+9
Operating System: Linux
Default Encoding: UTF-8
Language: en
Country: null
--></g></svg>