<?xml version="1.0" encoding="UTF-8" standalone="no"?><svg xmlns="http://www.w3.org/2000/svg" xmlns:xlink="http://www.w3.org/1999/xlink" contentStyleType="text/css" height="416px" preserveAspectRatio="none" style="width:885px;height:416px;background:#FFFFFF;" version="1.1" viewBox="0 0 885 416" width="885px" zoomAndPan="magnify"><defs/><g><rect fill="#FFFFFF" height="205.1738" style="stroke:#181818;stroke-width:1.0;" width="10" x="307.5" y="112.7988"/><rect fill="#FFFFFF" height="146.5527" style="stroke:#181818;stroke-width:1.0;" width="10" x="497.5" y="142.1094"/><rect fill="#FFFFFF" height="87.9316" style="stroke:#181818;stroke-width:1.0;" width="10" x="673.5" y="171.4199"/><line style="stroke:#181818;stroke-width:0.5;stroke-dasharray:5.0,5.0;" x1="23" x2="23" y1="81.4883" y2="335.9727"/><line style="stroke:#181818;stroke-width:0.5;stroke-dasharray:5.0,5.0;" x1="312" x2="312" y1="81.4883" y2="335.9727"/><line style="stroke:#181818;stroke-width:0.5;stroke-dasharray:5.0,5.0;" x1="502" x2="502" y1="81.4883" y2="335.9727"/><line style="stroke:#181818;stroke-width:0.5;stroke-dasharray:5.0,5.0;" x1="678.5" x2="678.5" y1="81.4883" y2="335.9727"/><line style="stroke:#181818;stroke-width:0.5;stroke-dasharray:5.0,5.0;" x1="849" x2="849" y1="81.4883" y2="335.9727"/><text fill="#000000" font-family="sans-serif" font-size="14" lengthAdjust="spacing" textLength="31" x="5" y="78.5352">User</text><ellipse cx="23.5" cy="13.5" fill="#E2E2F0" rx="8" ry="8" style="stroke:#181818;stroke-width:0.5;"/><path d="M23.5,21.5 L23.5,48.5 M10.5,29.5 L36.5,29.5 M23.5,48.5 L10.5,63.5 M23.5,48.5 L36.5,63.5 " fill="none" style="stroke:#181818;stroke-width:0.5;"/><text fill="#000000" font-family="sans-serif" font-size="14" lengthAdjust="spacing" textLength="31" x="5" y="348.5078">User</text><ellipse cx="23.5" cy="359.9609" fill="#E2E2F0" rx="8" ry="8" style="stroke:#181818;stroke-width:0.5;"/><path d="M23.5,367.9609 L23.5,394.9609 M10.5,375.9609 L36.5,375.9609 M23.5,394.9609 L10.5,409.9609 M23.5,394.9609 L36.5,409.9609 " fill="none" style="stroke:#181818;stroke-width:0.5;"/><rect fill="#E2E2F0" height="30.4883" rx="2.5" ry="2.5" style="stroke:#181818;stroke-width:0.5;" width="81" x="272" y="50"/><text fill="#000000" font-family="sans-serif" font-size="14" lengthAdjust="spacing" textLength="67" x="279" y="70.5352">:FrontEnd</text><rect fill="#E2E2F0" height="30.4883" rx="2.5" ry="2.5" style="stroke:#181818;stroke-width:0.5;" width="81" x="272" y="334.9727"/><text fill="#000000" font-family="sans-serif" font-size="14" lengthAdjust="spacing" textLength="67" x="279" y="355.5078">:FrontEnd</text><rect fill="#E2E2F0" height="30.4883" rx="2.5" ry="2.5" style="stroke:#181818;stroke-width:0.5;" width="151" x="427" y="50"/><text fill="#000000" font-family="sans-serif" font-size="14" lengthAdjust="spacing" textLength="137" x="434" y="70.5352">:BuildingsController</text><rect fill="#E2E2F0" height="30.4883" rx="2.5" ry="2.5" style="stroke:#181818;stroke-width:0.5;" width="151" x="427" y="334.9727"/><text fill="#000000" font-family="sans-serif" font-size="14" lengthAdjust="spacing" textLength="137" x="434" y="355.5078">:BuildingsController</text><rect fill="#E2E2F0" height="30.4883" rx="2.5" ry="2.5" style="stroke:#181818;stroke-width:0.5;" width="122" x="617.5" y="50"/><text fill="#000000" font-family="sans-serif" font-size="14" lengthAdjust="spacing" textLength="108" x="624.5" y="70.5352">:BuildingService</text><rect fill="#E2E2F0" height="30.4883" rx="2.5" ry="2.5" style="stroke:#181818;stroke-width:0.5;" width="122" x="617.5" y="334.9727"/><text fill="#000000" font-family="sans-serif" font-size="14" lengthAdjust="spacing" textLength="108" x="624.5" y="355.5078">:BuildingService</text><text fill="#000000" font-family="sans-serif" font-size="14" lengthAdjust="spacing" textLength="63" x="815" y="78.5352">Database</text><path d="M831.5,29 C831.5,19 849.5,19 849.5,19 C849.5,19 867.5,19 867.5,29 L867.5,55 C867.5,65 849.5,65 849.5,65 C849.5,65 831.5,65 831.5,55 L831.5,29 " fill="#E2E2F0" style="stroke:#181818;stroke-width:1.5;"/><path d="M831.5,29 C831.5,39 849.5,39 849.5,39 C849.5,39 867.5,39 867.5,29 " fill="none" style="stroke:#181818;stroke-width:1.5;"/><text fill="#000000" font-family="sans-serif" font-size="14" lengthAdjust="spacing" textLength="63" x="815" y="348.5078">Database</text><path d="M831.5,361.4609 C831.5,351.4609 849.5,351.4609 849.5,351.4609 C849.5,351.4609 867.5,351.4609 867.5,361.4609 L867.5,387.4609 C867.5,397.4609 849.5,397.4609 849.5,397.4609 C849.5,397.4609 831.5,397.4609 831.5,387.4609 L831.5,361.4609 " fill="#E2E2F0" style="stroke:#181818;stroke-width:1.5;"/><path d="M831.5,361.4609 C831.5,371.4609 849.5,371.4609 849.5,371.4609 C849.5,371.4609 867.5,371.4609 867.5,361.4609 " fill="none" style="stroke:#181818;stroke-width:1.5;"/><rect fill="#FFFFFF" height="205.1738" style="stroke:#181818;stroke-width:1.0;" width="10" x="307.5" y="112.7988"/><rect fill="#FFFFFF" height="146.5527" style="stroke:#181818;stroke-width:1.0;" width="10" x="497.5" y="142.1094"/><rect fill="#FFFFFF" height="87.9316" style="stroke:#181818;stroke-width:1.0;" width="10" x="673.5" y="171.4199"/><polygon fill="#181818" points="295.5,108.7988,305.5,112.7988,295.5,116.7988,299.5,112.7988" style="stroke:#181818;stroke-width:1.0;"/><line style="stroke:#181818;stroke-width:1.0;" x1="23.5" x2="301.5" y1="112.7988" y2="112.7988"/><text fill="#000000" font-family="sans-serif" font-size="13" lengthAdjust="spacing" textLength="131" x="30.5" y="108.0566">HTTP GET /buildings</text><polygon fill="#181818" points="485.5,138.1094,495.5,142.1094,485.5,146.1094,489.5,142.1094" style="stroke:#181818;stroke-width:1.0;"/><line style="stroke:#181818;stroke-width:1.0;" x1="317.5" x2="491.5" y1="142.1094" y2="142.1094"/><text fill="#000000" font-family="sans-serif" font-size="13" lengthAdjust="spacing" textLength="135" x="324.5" y="137.3672">Handle HTTP Request</text><polygon fill="#181818" points="661.5,167.4199,671.5,171.4199,661.5,175.4199,665.5,171.4199" style="stroke:#181818;stroke-width:1.0;"/><line style="stroke:#181818;stroke-width:1.0;" x1="507.5" x2="667.5" y1="171.4199" y2="171.4199"/><text fill="#000000" font-family="sans-serif" font-size="13" lengthAdjust="spacing" textLength="98" x="514.5" y="166.6777">Handle Request</text><polygon fill="#181818" points="837.5,196.7305,847.5,200.7305,837.5,204.7305,841.5,200.7305" style="stroke:#181818;stroke-width:1.0;"/><line style="stroke:#181818;stroke-width:1.0;" x1="683.5" x2="843.5" y1="200.7305" y2="200.7305"/><text fill="#000000" font-family="sans-serif" font-size="13" lengthAdjust="spacing" textLength="136" x="690.5" y="195.9883">Fetch Building Names</text><polygon fill="#181818" points="694.5,226.041,684.5,230.041,694.5,234.041,690.5,230.041" style="stroke:#181818;stroke-width:1.0;"/><line style="stroke:#181818;stroke-width:1.0;stroke-dasharray:2.0,2.0;" x1="688.5" x2="848.5" y1="230.041" y2="230.041"/><text fill="#000000" font-family="sans-serif" font-size="13" lengthAdjust="spacing" textLength="142" x="700.5" y="225.2988">List of Building Names</text><polygon fill="#181818" points="518.5,255.3516,508.5,259.3516,518.5,263.3516,514.5,259.3516" style="stroke:#181818;stroke-width:1.0;"/><line style="stroke:#181818;stroke-width:1.0;stroke-dasharray:2.0,2.0;" x1="512.5" x2="677.5" y1="259.3516" y2="259.3516"/><text fill="#000000" font-family="sans-serif" font-size="13" lengthAdjust="spacing" textLength="142" x="524.5" y="254.6094">List of Building Names</text><polygon fill="#181818" points="328.5,284.6621,318.5,288.6621,328.5,292.6621,324.5,288.6621" style="stroke:#181818;stroke-width:1.0;"/><line style="stroke:#181818;stroke-width:1.0;stroke-dasharray:2.0,2.0;" x1="322.5" x2="501.5" y1="288.6621" y2="288.6621"/><text fill="#000000" font-family="sans-serif" font-size="13" lengthAdjust="spacing" textLength="156" x="334.5" y="283.9199">Generate HTTP Response</text><polygon fill="#181818" points="34.5,313.9727,24.5,317.9727,34.5,321.9727,30.5,317.9727" style="stroke:#181818;stroke-width:1.0;"/><line style="stroke:#181818;stroke-width:1.0;stroke-dasharray:2.0,2.0;" x1="28.5" x2="311.5" y1="317.9727" y2="317.9727"/><text fill="#000000" font-family="sans-serif" font-size="13" lengthAdjust="spacing" textLength="260" x="40.5" y="313.2305">HTTP 200 OK with List of Building Names</text><!--MD5=[5534d88860b265782dec3ef1d2d0f81d]
@startuml
actor "User" as user
participant ":FrontEnd" as frontend
participant ":BuildingsController" as controller
participant ":BuildingService" as service
database "Database" as db

user -> frontend: HTTP GET /buildings
activate frontend
frontend -> controller: Handle HTTP Request
activate controller
controller -> service: Handle Request
activate service
service -> db: Fetch Building Names
db - -> service: List of Building Names
service - -> controller: List of Building Names
deactivate service
controller - -> frontend: Generate HTTP Response
deactivate controller
frontend - -> user: HTTP 200 OK with List of Building Names
deactivate frontend
@enduml

PlantUML version 1.2022.7(Mon Aug 22 18:01:30 WEST 2022)
(GPL source distribution)
Java Runtime: OpenJDK Runtime Environment
JVM: OpenJDK 64-Bit Server VM
Default Encoding: UTF-8
Language: pt
Country: PT
--></g></svg>