<?xml version="1.0" encoding="UTF-8" standalone="no"?><svg xmlns="http://www.w3.org/2000/svg" xmlns:xlink="http://www.w3.org/1999/xlink" contentScriptType="application/ecmascript" contentStyleType="text/css" height="1131px" preserveAspectRatio="none" style="width:2039px;height:1131px;" version="1.1" viewBox="0 0 2039 1131" width="2039px" zoomAndPan="magnify"><defs><filter height="300%" id="f143njy0jhuy9t" width="300%" x="-1" y="-1"><feGaussianBlur result="blurOut" stdDeviation="2.0"/><feColorMatrix in="blurOut" result="blurOut2" type="matrix" values="0 0 0 0 0 0 0 0 0 0 0 0 0 0 0 0 0 0 .4 0"/><feOffset dx="4.0" dy="4.0" in="blurOut2" result="blurOut3"/><feBlend in="SourceGraphic" in2="blurOut3" mode="normal"/></filter></defs><g><rect fill="#FFFFFF" filter="url(#f143njy0jhuy9t)" height="938.25" style="stroke: #A80036; stroke-width: 1.0;" width="10" x="42.5" y="96.2969"/><rect fill="#FFFFFF" filter="url(#f143njy0jhuy9t)" height="917.1172" style="stroke: #A80036; stroke-width: 1.0;" width="10" x="284.5" y="117.4297"/><rect fill="#FFFFFF" filter="url(#f143njy0jhuy9t)" height="858.8516" style="stroke: #A80036; stroke-width: 1.0;" width="10" x="478.5" y="175.6953"/><rect fill="#FFFFFF" filter="url(#f143njy0jhuy9t)" height="145.6641" style="stroke: #A80036; stroke-width: 1.0;" width="10" x="778.5" y="204.8281"/><rect fill="#FFFFFF" filter="url(#f143njy0jhuy9t)" height="654.9219" style="stroke: #A80036; stroke-width: 1.0;" width="10" x="778.5" y="379.625"/><rect fill="#FFFFFF" filter="url(#f143njy0jhuy9t)" height="116.5313" style="stroke: #A80036; stroke-width: 1.0;" width="10" x="957.5" y="233.9609"/><rect fill="#FFFFFF" filter="url(#f143njy0jhuy9t)" height="625.7891" style="stroke: #A80036; stroke-width: 1.0;" width="10" x="957.5" y="408.7578"/><rect fill="#FFFFFF" filter="url(#f143njy0jhuy9t)" height="87.3984" style="stroke: #A80036; stroke-width: 1.0;" width="10" x="1189.5" y="263.0938"/><rect fill="#FFFFFF" filter="url(#f143njy0jhuy9t)" height="596.6563" style="stroke: #A80036; stroke-width: 1.0;" width="10" x="1189.5" y="437.8906"/><rect fill="#FFFFFF" filter="url(#f143njy0jhuy9t)" height="58.2656" style="stroke: #A80036; stroke-width: 1.0;" width="10" x="1456.5" y="292.2266"/><rect fill="#FFFFFF" filter="url(#f143njy0jhuy9t)" height="568.5234" style="stroke: #A80036; stroke-width: 1.0;" width="10" x="1456.5" y="467.0234"/><rect fill="#FFFFFF" filter="url(#f143njy0jhuy9t)" height="29.1328" style="stroke: #A80036; stroke-width: 1.0;" width="10" x="1680.5" y="321.3594"/><rect fill="#FFFFFF" filter="url(#f143njy0jhuy9t)" height="538.3906" style="stroke: #A80036; stroke-width: 1.0;" width="10" x="1680.5" y="496.1563"/><rect fill="#FFFFFF" filter="url(#f143njy0jhuy9t)" height="419.8594" style="stroke: #A80036; stroke-width: 1.0;" width="10" x="1861.5" y="614.6875"/><rect fill="#FFFFFF" filter="url(#f143njy0jhuy9t)" height="938.25" style="stroke: #A80036; stroke-width: 1.0;" width="10" x="1971" y="96.2969"/><rect fill="#FFFFFF" filter="url(#f143njy0jhuy9t)" height="46.2656" style="stroke: #000000; stroke-width: 2.0;" width="344.5" x="1398" y="540.2891"/><rect fill="#FFFFFF" filter="url(#f143njy0jhuy9t)" height="310.4609" style="stroke: #000000; stroke-width: 2.0;" width="1253.5" x="13" y="717.0859"/><rect fill="#FFFFFF" height="147.6641" style="stroke: none; stroke-width: 1.0;" width="1253.5" x="13" y="879.8828"/><line style="stroke: #A80036; stroke-width: 1.0; stroke-dasharray: 5.0,5.0;" x1="47" x2="47" y1="86.2969" y2="1044.5469"/><line style="stroke: #A80036; stroke-width: 1.0; stroke-dasharray: 5.0,5.0;" x1="289" x2="289" y1="86.2969" y2="1044.5469"/><line style="stroke: #A80036; stroke-width: 1.0; stroke-dasharray: 5.0,5.0;" x1="483" x2="483" y1="86.2969" y2="1044.5469"/><line style="stroke: #A80036; stroke-width: 1.0; stroke-dasharray: 5.0,5.0;" x1="783" x2="783" y1="86.2969" y2="1044.5469"/><line style="stroke: #A80036; stroke-width: 1.0; stroke-dasharray: 5.0,5.0;" x1="962" x2="962" y1="86.2969" y2="1044.5469"/><line style="stroke: #A80036; stroke-width: 1.0; stroke-dasharray: 5.0,5.0;" x1="1194.5" x2="1194.5" y1="86.2969" y2="1044.5469"/><line style="stroke: #A80036; stroke-width: 1.0; stroke-dasharray: 5.0,5.0;" x1="1461" x2="1461" y1="86.2969" y2="1044.5469"/><line style="stroke: #A80036; stroke-width: 1.0; stroke-dasharray: 5.0,5.0;" x1="1685.5" x2="1685.5" y1="86.2969" y2="1044.5469"/><line style="stroke: #A80036; stroke-width: 1.0; stroke-dasharray: 5.0,5.0;" x1="1866.5" x2="1866.5" y1="86.2969" y2="1044.5469"/><line style="stroke: #A80036; stroke-width: 1.0; stroke-dasharray: 5.0,5.0;" x1="1975.5" x2="1975.5" y1="86.2969" y2="1044.5469"/><text fill="#000000" font-family="sans-serif" font-size="14" lengthAdjust="spacingAndGlyphs" textLength="43" x="23" y="82.9951">Admin</text><ellipse cx="47.5" cy="13" fill="#FEFECE" filter="url(#f143njy0jhuy9t)" rx="8" ry="8" style="stroke: #A80036; stroke-width: 2.0;"/><path d="M47.5,21 L47.5,48 M34.5,29 L60.5,29 M47.5,48 L34.5,63 M47.5,48 L60.5,63 " fill="none" filter="url(#f143njy0jhuy9t)" style="stroke: #A80036; stroke-width: 2.0;"/><text fill="#000000" font-family="sans-serif" font-size="14" lengthAdjust="spacingAndGlyphs" textLength="43" x="23" y="1056.542">Admin</text><ellipse cx="47.5" cy="1069.8438" fill="#FEFECE" filter="url(#f143njy0jhuy9t)" rx="8" ry="8" style="stroke: #A80036; stroke-width: 2.0;"/><path d="M47.5,1077.8438 L47.5,1104.8438 M34.5,1085.8438 L60.5,1085.8438 M47.5,1104.8438 L34.5,1119.8438 M47.5,1104.8438 L60.5,1119.8438 " fill="none" filter="url(#f143njy0jhuy9t)" style="stroke: #A80036; stroke-width: 2.0;"/><rect fill="#FEFECE" filter="url(#f143njy0jhuy9t)" height="30.2969" style="stroke: #A80036; stroke-width: 1.5;" width="51" x="262" y="51"/><text fill="#000000" font-family="sans-serif" font-size="14" lengthAdjust="spacingAndGlyphs" textLength="37" x="269" y="70.9951">:View</text><rect fill="#FEFECE" filter="url(#f143njy0jhuy9t)" height="30.2969" style="stroke: #A80036; stroke-width: 1.5;" width="51" x="262" y="1043.5469"/><text fill="#000000" font-family="sans-serif" font-size="14" lengthAdjust="spacingAndGlyphs" textLength="37" x="269" y="1063.542">:View</text><rect fill="#FEFECE" filter="url(#f143njy0jhuy9t)" height="30.2969" style="stroke: #A80036; stroke-width: 1.5;" width="125" x="419" y="51"/><text fill="#000000" font-family="sans-serif" font-size="14" lengthAdjust="spacingAndGlyphs" textLength="111" x="426" y="70.9951">:FE_Component</text><rect fill="#FEFECE" filter="url(#f143njy0jhuy9t)" height="30.2969" style="stroke: #A80036; stroke-width: 1.5;" width="125" x="419" y="1043.5469"/><text fill="#000000" font-family="sans-serif" font-size="14" lengthAdjust="spacingAndGlyphs" textLength="111" x="426" y="1063.542">:FE_Component</text><rect fill="#FEFECE" filter="url(#f143njy0jhuy9t)" height="30.2969" style="stroke: #A80036; stroke-width: 1.5;" width="127" x="718" y="51"/><text fill="#000000" font-family="sans-serif" font-size="14" lengthAdjust="spacingAndGlyphs" textLength="113" x="725" y="70.9951">:FE_FloorService</text><rect fill="#FEFECE" filter="url(#f143njy0jhuy9t)" height="30.2969" style="stroke: #A80036; stroke-width: 1.5;" width="127" x="718" y="1043.5469"/><text fill="#000000" font-family="sans-serif" font-size="14" lengthAdjust="spacingAndGlyphs" textLength="113" x="725" y="1063.542">:FE_FloorService</text><rect fill="#FEFECE" filter="url(#f143njy0jhuy9t)" height="30.2969" style="stroke: #A80036; stroke-width: 1.5;" width="73" x="924" y="51"/><text fill="#000000" font-family="sans-serif" font-size="14" lengthAdjust="spacingAndGlyphs" textLength="59" x="931" y="70.9951">:Routing</text><rect fill="#FEFECE" filter="url(#f143njy0jhuy9t)" height="30.2969" style="stroke: #A80036; stroke-width: 1.5;" width="73" x="924" y="1043.5469"/><text fill="#000000" font-family="sans-serif" font-size="14" lengthAdjust="spacingAndGlyphs" textLength="59" x="931" y="1063.542">:Routing</text><rect fill="#FEFECE" filter="url(#f143njy0jhuy9t)" height="30.2969" style="stroke: #A80036; stroke-width: 1.5;" width="120" x="1132.5" y="51"/><text fill="#000000" font-family="sans-serif" font-size="14" lengthAdjust="spacingAndGlyphs" textLength="106" x="1139.5" y="70.9951">:FloorController</text><rect fill="#FEFECE" filter="url(#f143njy0jhuy9t)" height="30.2969" style="stroke: #A80036; stroke-width: 1.5;" width="120" x="1132.5" y="1043.5469"/><text fill="#000000" font-family="sans-serif" font-size="14" lengthAdjust="spacingAndGlyphs" textLength="106" x="1139.5" y="1063.542">:FloorController</text><rect fill="#FEFECE" filter="url(#f143njy0jhuy9t)" height="30.2969" style="stroke: #A80036; stroke-width: 1.5;" width="103" x="1408" y="51"/><text fill="#000000" font-family="sans-serif" font-size="14" lengthAdjust="spacingAndGlyphs" textLength="89" x="1415" y="70.9951">:FloorService</text><rect fill="#FEFECE" filter="url(#f143njy0jhuy9t)" height="30.2969" style="stroke: #A80036; stroke-width: 1.5;" width="103" x="1408" y="1043.5469"/><text fill="#000000" font-family="sans-serif" font-size="14" lengthAdjust="spacingAndGlyphs" textLength="89" x="1415" y="1063.542">:FloorService</text><rect fill="#FEFECE" filter="url(#f143njy0jhuy9t)" height="30.2969" style="stroke: #A80036; stroke-width: 1.5;" width="90" x="1638.5" y="51"/><text fill="#000000" font-family="sans-serif" font-size="14" lengthAdjust="spacingAndGlyphs" textLength="76" x="1645.5" y="70.9951">:FloorRepo</text><rect fill="#FEFECE" filter="url(#f143njy0jhuy9t)" height="30.2969" style="stroke: #A80036; stroke-width: 1.5;" width="90" x="1638.5" y="1043.5469"/><text fill="#000000" font-family="sans-serif" font-size="14" lengthAdjust="spacingAndGlyphs" textLength="76" x="1645.5" y="1063.542">:FloorRepo</text><rect fill="#FEFECE" filter="url(#f143njy0jhuy9t)" height="30.2969" style="stroke: #A80036; stroke-width: 1.5;" width="82" x="1823.5" y="51"/><text fill="#000000" font-family="sans-serif" font-size="14" lengthAdjust="spacingAndGlyphs" textLength="68" x="1830.5" y="70.9951">:FloorMap</text><rect fill="#FEFECE" filter="url(#f143njy0jhuy9t)" height="30.2969" style="stroke: #A80036; stroke-width: 1.5;" width="82" x="1823.5" y="1043.5469"/><text fill="#000000" font-family="sans-serif" font-size="14" lengthAdjust="spacingAndGlyphs" textLength="68" x="1830.5" y="1063.542">:FloorMap</text><rect fill="#FEFECE" filter="url(#f143njy0jhuy9t)" height="30.2969" style="stroke: #A80036; stroke-width: 1.5;" width="109" x="1919.5" y="51"/><text fill="#000000" font-family="sans-serif" font-size="14" lengthAdjust="spacingAndGlyphs" textLength="95" x="1926.5" y="70.9951">:FloorSchema</text><rect fill="#FEFECE" filter="url(#f143njy0jhuy9t)" height="30.2969" style="stroke: #A80036; stroke-width: 1.5;" width="109" x="1919.5" y="1043.5469"/><text fill="#000000" font-family="sans-serif" font-size="14" lengthAdjust="spacingAndGlyphs" textLength="95" x="1926.5" y="1063.542">:FloorSchema</text><rect fill="#FFFFFF" filter="url(#f143njy0jhuy9t)" height="938.25" style="stroke: #A80036; stroke-width: 1.0;" width="10" x="42.5" y="96.2969"/><rect fill="#FFFFFF" filter="url(#f143njy0jhuy9t)" height="917.1172" style="stroke: #A80036; stroke-width: 1.0;" width="10" x="284.5" y="117.4297"/><rect fill="#FFFFFF" filter="url(#f143njy0jhuy9t)" height="858.8516" style="stroke: #A80036; stroke-width: 1.0;" width="10" x="478.5" y="175.6953"/><rect fill="#FFFFFF" filter="url(#f143njy0jhuy9t)" height="145.6641" style="stroke: #A80036; stroke-width: 1.0;" width="10" x="778.5" y="204.8281"/><rect fill="#FFFFFF" filter="url(#f143njy0jhuy9t)" height="654.9219" style="stroke: #A80036; stroke-width: 1.0;" width="10" x="778.5" y="379.625"/><rect fill="#FFFFFF" filter="url(#f143njy0jhuy9t)" height="116.5313" style="stroke: #A80036; stroke-width: 1.0;" width="10" x="957.5" y="233.9609"/><rect fill="#FFFFFF" filter="url(#f143njy0jhuy9t)" height="625.7891" style="stroke: #A80036; stroke-width: 1.0;" width="10" x="957.5" y="408.7578"/><rect fill="#FFFFFF" filter="url(#f143njy0jhuy9t)" height="87.3984" style="stroke: #A80036; stroke-width: 1.0;" width="10" x="1189.5" y="263.0938"/><rect fill="#FFFFFF" filter="url(#f143njy0jhuy9t)" height="596.6563" style="stroke: #A80036; stroke-width: 1.0;" width="10" x="1189.5" y="437.8906"/><rect fill="#FFFFFF" filter="url(#f143njy0jhuy9t)" height="58.2656" style="stroke: #A80036; stroke-width: 1.0;" width="10" x="1456.5" y="292.2266"/><rect fill="#FFFFFF" filter="url(#f143njy0jhuy9t)" height="568.5234" style="stroke: #A80036; stroke-width: 1.0;" width="10" x="1456.5" y="467.0234"/><rect fill="#FFFFFF" filter="url(#f143njy0jhuy9t)" height="29.1328" style="stroke: #A80036; stroke-width: 1.0;" width="10" x="1680.5" y="321.3594"/><rect fill="#FFFFFF" filter="url(#f143njy0jhuy9t)" height="538.3906" style="stroke: #A80036; stroke-width: 1.0;" width="10" x="1680.5" y="496.1563"/><rect fill="#FFFFFF" filter="url(#f143njy0jhuy9t)" height="419.8594" style="stroke: #A80036; stroke-width: 1.0;" width="10" x="1861.5" y="614.6875"/><rect fill="#FFFFFF" filter="url(#f143njy0jhuy9t)" height="938.25" style="stroke: #A80036; stroke-width: 1.0;" width="10" x="1971" y="96.2969"/><polygon fill="#A80036" points="272.5,113.4297,282.5,117.4297,272.5,121.4297,276.5,117.4297" style="stroke: #A80036; stroke-width: 1.0;"/><line style="stroke: #A80036; stroke-width: 1.0;" x1="52.5" x2="278.5" y1="117.4297" y2="117.4297"/><text fill="#000000" font-family="sans-serif" font-size="13" font-weight="bold" lengthAdjust="spacingAndGlyphs" textLength="9" x="59.5" y="112.3638">1</text><text fill="#000000" font-family="sans-serif" font-size="13" lengthAdjust="spacingAndGlyphs" textLength="200" x="72.5" y="112.3638">wants to update floor passages</text><polygon fill="#A80036" points="63.5,142.5625,53.5,146.5625,63.5,150.5625,59.5,146.5625" style="stroke: #A80036; stroke-width: 1.0;"/><line style="stroke: #A80036; stroke-width: 1.0; stroke-dasharray: 2.0,2.0;" x1="57.5" x2="283.5" y1="146.5625" y2="146.5625"/><text fill="#000000" font-family="sans-serif" font-size="13" font-weight="bold" lengthAdjust="spacingAndGlyphs" textLength="9" x="69.5" y="141.4966">2</text><text fill="#000000" font-family="sans-serif" font-size="13" lengthAdjust="spacingAndGlyphs" textLength="161" x="82.5" y="141.4966">request necessary data()</text><polygon fill="#A80036" points="272.5,171.6953,282.5,175.6953,272.5,179.6953,276.5,175.6953" style="stroke: #A80036; stroke-width: 1.0;"/><line style="stroke: #A80036; stroke-width: 1.0;" x1="52.5" x2="278.5" y1="175.6953" y2="175.6953"/><text fill="#000000" font-family="sans-serif" font-size="13" font-weight="bold" lengthAdjust="spacingAndGlyphs" textLength="9" x="59.5" y="170.6294">3</text><text fill="#000000" font-family="sans-serif" font-size="13" lengthAdjust="spacingAndGlyphs" textLength="112" x="72.5" y="170.6294">insert all the data</text><polygon fill="#A80036" points="466.5,200.8281,476.5,204.8281,466.5,208.8281,470.5,204.8281" style="stroke: #A80036; stroke-width: 1.0;"/><line style="stroke: #A80036; stroke-width: 1.0;" x1="294.5" x2="472.5" y1="204.8281" y2="204.8281"/><text fill="#000000" font-family="sans-serif" font-size="13" font-weight="bold" lengthAdjust="spacingAndGlyphs" textLength="9" x="301.5" y="199.7622">4</text><text fill="#000000" font-family="sans-serif" font-size="13" lengthAdjust="spacingAndGlyphs" textLength="69" x="314.5" y="199.7622">getFloors()</text><polygon fill="#A80036" points="766.5,229.9609,776.5,233.9609,766.5,237.9609,770.5,233.9609" style="stroke: #A80036; stroke-width: 1.0;"/><line style="stroke: #A80036; stroke-width: 1.0;" x1="488.5" x2="772.5" y1="233.9609" y2="233.9609"/><text fill="#000000" font-family="sans-serif" font-size="13" font-weight="bold" lengthAdjust="spacingAndGlyphs" textLength="9" x="495.5" y="228.895">5</text><text fill="#000000" font-family="sans-serif" font-size="13" lengthAdjust="spacingAndGlyphs" textLength="66" x="508.5" y="228.895">listFloors()</text><polygon fill="#A80036" points="945.5,259.0938,955.5,263.0938,945.5,267.0938,949.5,263.0938" style="stroke: #A80036; stroke-width: 1.0;"/><line style="stroke: #A80036; stroke-width: 1.0;" x1="788.5" x2="951.5" y1="263.0938" y2="263.0938"/><text fill="#000000" font-family="sans-serif" font-size="13" font-weight="bold" lengthAdjust="spacingAndGlyphs" textLength="9" x="795.5" y="258.0278">6</text><text fill="#000000" font-family="sans-serif" font-size="13" lengthAdjust="spacingAndGlyphs" textLength="79" x="808.5" y="258.0278">GET route{}</text><polygon fill="#A80036" points="1177.5,288.2266,1187.5,292.2266,1177.5,296.2266,1181.5,292.2266" style="stroke: #A80036; stroke-width: 1.0;"/><line style="stroke: #A80036; stroke-width: 1.0;" x1="967.5" x2="1183.5" y1="292.2266" y2="292.2266"/><text fill="#000000" font-family="sans-serif" font-size="13" font-weight="bold" lengthAdjust="spacingAndGlyphs" textLength="9" x="974.5" y="287.1606">7</text><text fill="#000000" font-family="sans-serif" font-size="13" lengthAdjust="spacingAndGlyphs" textLength="81" x="987.5" y="287.1606">listAllFloors()</text><polygon fill="#A80036" points="1444.5,317.3594,1454.5,321.3594,1444.5,325.3594,1448.5,321.3594" style="stroke: #A80036; stroke-width: 1.0;"/><line style="stroke: #A80036; stroke-width: 1.0;" x1="1199.5" x2="1450.5" y1="321.3594" y2="321.3594"/><text fill="#000000" font-family="sans-serif" font-size="13" font-weight="bold" lengthAdjust="spacingAndGlyphs" textLength="9" x="1206.5" y="316.2935">8</text><text fill="#000000" font-family="sans-serif" font-size="13" lengthAdjust="spacingAndGlyphs" textLength="48" x="1219.5" y="316.2935">findAll()</text><polygon fill="#A80036" points="1673.5,346.4922,1683.5,350.4922,1673.5,354.4922,1677.5,350.4922" style="stroke: #A80036; stroke-width: 1.0;"/><line style="stroke: #A80036; stroke-width: 1.0;" x1="1461.5" x2="1679.5" y1="350.4922" y2="350.4922"/><text fill="#000000" font-family="sans-serif" font-size="13" font-weight="bold" lengthAdjust="spacingAndGlyphs" textLength="9" x="1468.5" y="345.4263">9</text><text fill="#000000" font-family="sans-serif" font-size="13" lengthAdjust="spacingAndGlyphs" textLength="48" x="1481.5" y="345.4263">findAll()</text><polygon fill="#A80036" points="466.5,375.625,476.5,379.625,466.5,383.625,470.5,379.625" style="stroke: #A80036; stroke-width: 1.0;"/><line style="stroke: #A80036; stroke-width: 1.0;" x1="294.5" x2="472.5" y1="379.625" y2="379.625"/><text fill="#000000" font-family="sans-serif" font-size="13" font-weight="bold" lengthAdjust="spacingAndGlyphs" textLength="18" x="301.5" y="374.5591">10</text><text fill="#000000" font-family="sans-serif" font-size="13" lengthAdjust="spacingAndGlyphs" textLength="138" x="323.5" y="374.5591">patchFloorPassages()</text><polygon fill="#A80036" points="766.5,404.7578,776.5,408.7578,766.5,412.7578,770.5,408.7578" style="stroke: #A80036; stroke-width: 1.0;"/><line style="stroke: #A80036; stroke-width: 1.0;" x1="488.5" x2="772.5" y1="408.7578" y2="408.7578"/><text fill="#000000" font-family="sans-serif" font-size="13" font-weight="bold" lengthAdjust="spacingAndGlyphs" textLength="18" x="495.5" y="403.6919">11</text><text fill="#000000" font-family="sans-serif" font-size="13" lengthAdjust="spacingAndGlyphs" textLength="244" x="517.5" y="403.6919">patchPassages(Object{id, passages})</text><polygon fill="#A80036" points="945.5,433.8906,955.5,437.8906,945.5,441.8906,949.5,437.8906" style="stroke: #A80036; stroke-width: 1.0;"/><line style="stroke: #A80036; stroke-width: 1.0;" x1="788.5" x2="951.5" y1="437.8906" y2="437.8906"/><text fill="#000000" font-family="sans-serif" font-size="13" font-weight="bold" lengthAdjust="spacingAndGlyphs" textLength="18" x="795.5" y="432.8247">12</text><text fill="#000000" font-family="sans-serif" font-size="13" lengthAdjust="spacingAndGlyphs" textLength="123" x="817.5" y="432.8247">PATCH route{json}</text><polygon fill="#A80036" points="1177.5,463.0234,1187.5,467.0234,1177.5,471.0234,1181.5,467.0234" style="stroke: #A80036; stroke-width: 1.0;"/><line style="stroke: #A80036; stroke-width: 1.0;" x1="967.5" x2="1183.5" y1="467.0234" y2="467.0234"/><text fill="#000000" font-family="sans-serif" font-size="13" font-weight="bold" lengthAdjust="spacingAndGlyphs" textLength="18" x="974.5" y="461.9575">13</text><text fill="#000000" font-family="sans-serif" font-size="13" lengthAdjust="spacingAndGlyphs" textLength="176" x="996.5" y="461.9575">patchPassageBuilding(json)</text><polygon fill="#A80036" points="1444.5,492.1563,1454.5,496.1563,1444.5,500.1563,1448.5,496.1563" style="stroke: #A80036; stroke-width: 1.0;"/><line style="stroke: #A80036; stroke-width: 1.0;" x1="1199.5" x2="1450.5" y1="496.1563" y2="496.1563"/><text fill="#000000" font-family="sans-serif" font-size="13" font-weight="bold" lengthAdjust="spacingAndGlyphs" textLength="18" x="1206.5" y="491.0903">14</text><text fill="#000000" font-family="sans-serif" font-size="13" lengthAdjust="spacingAndGlyphs" textLength="211" x="1228.5" y="491.0903">patchPassageBuilding(IFloorDTO)</text><polygon fill="#A80036" points="1668.5,521.2891,1678.5,525.2891,1668.5,529.2891,1672.5,525.2891" style="stroke: #A80036; stroke-width: 1.0;"/><line style="stroke: #A80036; stroke-width: 1.0;" x1="1466.5" x2="1674.5" y1="525.2891" y2="525.2891"/><text fill="#000000" font-family="sans-serif" font-size="13" font-weight="bold" lengthAdjust="spacingAndGlyphs" textLength="18" x="1473.5" y="520.2231">15</text><text fill="#000000" font-family="sans-serif" font-size="13" lengthAdjust="spacingAndGlyphs" textLength="103" x="1495.5" y="520.2231">findById(floor.id)</text><path d="M1398,540.2891 L1475,540.2891 L1475,547.2891 L1465,557.2891 L1398,557.2891 L1398,540.2891 " fill="#EEEEEE" style="stroke: #000000; stroke-width: 1.0;"/><rect fill="none" height="46.2656" style="stroke: #000000; stroke-width: 2.0;" width="344.5" x="1398" y="540.2891"/><text fill="#000000" font-family="sans-serif" font-size="13" font-weight="bold" lengthAdjust="spacingAndGlyphs" textLength="32" x="1413" y="553.356">loop</text><text fill="#000000" font-family="sans-serif" font-size="11" font-weight="bold" lengthAdjust="spacingAndGlyphs" textLength="91" x="1490" y="552.4995">[all passages]</text><polygon fill="#A80036" points="1668.5,574.5547,1678.5,578.5547,1668.5,582.5547,1672.5,578.5547" style="stroke: #A80036; stroke-width: 1.0;"/><line style="stroke: #A80036; stroke-width: 1.0;" x1="1466.5" x2="1674.5" y1="578.5547" y2="578.5547"/><text fill="#000000" font-family="sans-serif" font-size="13" font-weight="bold" lengthAdjust="spacingAndGlyphs" textLength="18" x="1473.5" y="573.4888">16</text><text fill="#000000" font-family="sans-serif" font-size="13" lengthAdjust="spacingAndGlyphs" textLength="168" x="1495.5" y="573.4888">findById(floor.passages.id)</text><polygon fill="#A80036" points="1668.5,610.6875,1678.5,614.6875,1668.5,618.6875,1672.5,614.6875" style="stroke: #A80036; stroke-width: 1.0;"/><line style="stroke: #A80036; stroke-width: 1.0;" x1="1466.5" x2="1674.5" y1="614.6875" y2="614.6875"/><text fill="#000000" font-family="sans-serif" font-size="13" font-weight="bold" lengthAdjust="spacingAndGlyphs" textLength="18" x="1473.5" y="609.6216">17</text><text fill="#000000" font-family="sans-serif" font-size="13" lengthAdjust="spacingAndGlyphs" textLength="68" x="1495.5" y="609.6216">save(floor)</text><polygon fill="#A80036" points="1849.5,639.8203,1859.5,643.8203,1849.5,647.8203,1853.5,643.8203" style="stroke: #A80036; stroke-width: 1.0;"/><line style="stroke: #A80036; stroke-width: 1.0;" x1="1690.5" x2="1855.5" y1="643.8203" y2="643.8203"/><text fill="#000000" font-family="sans-serif" font-size="13" font-weight="bold" lengthAdjust="spacingAndGlyphs" textLength="18" x="1697.5" y="638.7544">18</text><text fill="#000000" font-family="sans-serif" font-size="13" lengthAdjust="spacingAndGlyphs" textLength="125" x="1719.5" y="638.7544">toPersistance(floor)</text><polygon fill="#A80036" points="1959,668.9531,1969,672.9531,1959,676.9531,1963,672.9531" style="stroke: #A80036; stroke-width: 1.0;"/><line style="stroke: #A80036; stroke-width: 1.0;" x1="1690.5" x2="1965" y1="672.9531" y2="672.9531"/><text fill="#000000" font-family="sans-serif" font-size="13" font-weight="bold" lengthAdjust="spacingAndGlyphs" textLength="18" x="1697.5" y="667.8872">19</text><text fill="#000000" font-family="sans-serif" font-size="13" lengthAdjust="spacingAndGlyphs" textLength="79" x="1719.5" y="667.8872">create(floor)</text><polygon fill="#A80036" points="1477.5,698.0859,1467.5,702.0859,1477.5,706.0859,1473.5,702.0859" style="stroke: #A80036; stroke-width: 1.0;"/><line style="stroke: #A80036; stroke-width: 1.0; stroke-dasharray: 2.0,2.0;" x1="1471.5" x2="1679.5" y1="702.0859" y2="702.0859"/><text fill="#000000" font-family="sans-serif" font-size="13" font-weight="bold" lengthAdjust="spacingAndGlyphs" textLength="18" x="1483.5" y="697.02">20</text><text fill="#000000" font-family="sans-serif" font-size="13" lengthAdjust="spacingAndGlyphs" textLength="28" x="1505.5" y="697.02">floor</text><path d="M13,717.0859 L77,717.0859 L77,724.0859 L67,734.0859 L13,734.0859 L13,717.0859 " fill="#EEEEEE" style="stroke: #000000; stroke-width: 1.0;"/><rect fill="none" height="310.4609" style="stroke: #000000; stroke-width: 2.0;" width="1253.5" x="13" y="717.0859"/><text fill="#000000" font-family="sans-serif" font-size="13" font-weight="bold" lengthAdjust="spacingAndGlyphs" textLength="19" x="28" y="730.1528">alt</text><text fill="#000000" font-family="sans-serif" font-size="11" font-weight="bold" lengthAdjust="spacingAndGlyphs" textLength="135" x="92" y="729.2964">[saved with success]</text><polygon fill="#A80036" points="978.5,751.3516,968.5,755.3516,978.5,759.3516,974.5,755.3516" style="stroke: #A80036; stroke-width: 1.0;"/><line style="stroke: #A80036; stroke-width: 1.0; stroke-dasharray: 2.0,2.0;" x1="972.5" x2="1188.5" y1="755.3516" y2="755.3516"/><text fill="#000000" font-family="sans-serif" font-size="13" font-weight="bold" lengthAdjust="spacingAndGlyphs" textLength="18" x="984.5" y="750.2856">21</text><text fill="#000000" font-family="sans-serif" font-size="13" lengthAdjust="spacingAndGlyphs" textLength="64" x="1006.5" y="750.2856">HTTP: 201</text><polygon fill="#A80036" points="799.5,780.4844,789.5,784.4844,799.5,788.4844,795.5,784.4844" style="stroke: #A80036; stroke-width: 1.0;"/><line style="stroke: #A80036; stroke-width: 1.0; stroke-dasharray: 2.0,2.0;" x1="793.5" x2="956.5" y1="784.4844" y2="784.4844"/><text fill="#000000" font-family="sans-serif" font-size="13" font-weight="bold" lengthAdjust="spacingAndGlyphs" textLength="18" x="805.5" y="779.4185">22</text><text fill="#000000" font-family="sans-serif" font-size="13" lengthAdjust="spacingAndGlyphs" textLength="64" x="827.5" y="779.4185">HTTP: 201</text><polygon fill="#A80036" points="499.5,809.6172,489.5,813.6172,499.5,817.6172,495.5,813.6172" style="stroke: #A80036; stroke-width: 1.0;"/><line style="stroke: #A80036; stroke-width: 1.0; stroke-dasharray: 2.0,2.0;" x1="493.5" x2="777.5" y1="813.6172" y2="813.6172"/><text fill="#000000" font-family="sans-serif" font-size="13" font-weight="bold" lengthAdjust="spacingAndGlyphs" textLength="18" x="505.5" y="808.5513">23</text><text fill="#000000" font-family="sans-serif" font-size="13" lengthAdjust="spacingAndGlyphs" textLength="64" x="527.5" y="808.5513">HTTP: 201</text><polygon fill="#A80036" points="305.5,838.75,295.5,842.75,305.5,846.75,301.5,842.75" style="stroke: #A80036; stroke-width: 1.0;"/><line style="stroke: #A80036; stroke-width: 1.0; stroke-dasharray: 2.0,2.0;" x1="299.5" x2="477.5" y1="842.75" y2="842.75"/><text fill="#000000" font-family="sans-serif" font-size="13" font-weight="bold" lengthAdjust="spacingAndGlyphs" textLength="18" x="311.5" y="837.6841">24</text><text fill="#000000" font-family="sans-serif" font-size="13" lengthAdjust="spacingAndGlyphs" textLength="64" x="333.5" y="837.6841">HTTP: 201</text><polygon fill="#A80036" points="63.5,867.8828,53.5,871.8828,63.5,875.8828,59.5,871.8828" style="stroke: #A80036; stroke-width: 1.0;"/><line style="stroke: #A80036; stroke-width: 1.0; stroke-dasharray: 2.0,2.0;" x1="57.5" x2="283.5" y1="871.8828" y2="871.8828"/><text fill="#000000" font-family="sans-serif" font-size="13" font-weight="bold" lengthAdjust="spacingAndGlyphs" textLength="18" x="69.5" y="866.8169">25</text><text fill="#000000" font-family="sans-serif" font-size="13" lengthAdjust="spacingAndGlyphs" textLength="150" x="91.5" y="866.8169">show success message</text><line style="stroke: #000000; stroke-width: 1.0; stroke-dasharray: 2.0,2.0;" x1="13" x2="1266.5" y1="880.8828" y2="880.8828"/><polygon fill="#A80036" points="978.5,899.0156,968.5,903.0156,978.5,907.0156,974.5,903.0156" style="stroke: #A80036; stroke-width: 1.0;"/><line style="stroke: #A80036; stroke-width: 1.0; stroke-dasharray: 2.0,2.0;" x1="972.5" x2="1188.5" y1="903.0156" y2="903.0156"/><text fill="#000000" font-family="sans-serif" font-size="13" font-weight="bold" lengthAdjust="spacingAndGlyphs" textLength="18" x="984.5" y="897.9497">26</text><text fill="#000000" font-family="sans-serif" font-size="13" lengthAdjust="spacingAndGlyphs" textLength="64" x="1006.5" y="897.9497">HTTP: 400</text><polygon fill="#A80036" points="799.5,928.1484,789.5,932.1484,799.5,936.1484,795.5,932.1484" style="stroke: #A80036; stroke-width: 1.0;"/><line style="stroke: #A80036; stroke-width: 1.0; stroke-dasharray: 2.0,2.0;" x1="793.5" x2="956.5" y1="932.1484" y2="932.1484"/><text fill="#000000" font-family="sans-serif" font-size="13" font-weight="bold" lengthAdjust="spacingAndGlyphs" textLength="18" x="805.5" y="927.0825">27</text><text fill="#000000" font-family="sans-serif" font-size="13" lengthAdjust="spacingAndGlyphs" textLength="64" x="827.5" y="927.0825">HTTP: 400</text><polygon fill="#A80036" points="499.5,957.2813,489.5,961.2813,499.5,965.2813,495.5,961.2813" style="stroke: #A80036; stroke-width: 1.0;"/><line style="stroke: #A80036; stroke-width: 1.0; stroke-dasharray: 2.0,2.0;" x1="493.5" x2="777.5" y1="961.2813" y2="961.2813"/><text fill="#000000" font-family="sans-serif" font-size="13" font-weight="bold" lengthAdjust="spacingAndGlyphs" textLength="18" x="505.5" y="956.2153">28</text><text fill="#000000" font-family="sans-serif" font-size="13" lengthAdjust="spacingAndGlyphs" textLength="64" x="527.5" y="956.2153">HTTP: 400</text><polygon fill="#A80036" points="305.5,986.4141,295.5,990.4141,305.5,994.4141,301.5,990.4141" style="stroke: #A80036; stroke-width: 1.0;"/><line style="stroke: #A80036; stroke-width: 1.0; stroke-dasharray: 2.0,2.0;" x1="299.5" x2="477.5" y1="990.4141" y2="990.4141"/><text fill="#000000" font-family="sans-serif" font-size="13" font-weight="bold" lengthAdjust="spacingAndGlyphs" textLength="18" x="311.5" y="985.3481">29</text><text fill="#000000" font-family="sans-serif" font-size="13" lengthAdjust="spacingAndGlyphs" textLength="64" x="333.5" y="985.3481">HTTP: 400</text><polygon fill="#A80036" points="63.5,1015.5469,53.5,1019.5469,63.5,1023.5469,59.5,1019.5469" style="stroke: #A80036; stroke-width: 1.0;"/><line style="stroke: #A80036; stroke-width: 1.0; stroke-dasharray: 2.0,2.0;" x1="57.5" x2="283.5" y1="1019.5469" y2="1019.5469"/><text fill="#000000" font-family="sans-serif" font-size="13" font-weight="bold" lengthAdjust="spacingAndGlyphs" textLength="18" x="69.5" y="1014.481">30</text><text fill="#000000" font-family="sans-serif" font-size="13" lengthAdjust="spacingAndGlyphs" textLength="138" x="91.5" y="1014.481">show failure message</text><!--MD5=[f8c42409cbb2109f1186c5ec002bd7a0]
@startuml
autonumber
actor "Admin" as admin

participant ":View" as sys
participant ":FE_Component" as comp
participant ":FE_FloorService" as FEsrvc
participant ":Routing" as route
participant ":FloorController" as ctrl
participant ":FloorService" as srvc
participant ":FloorRepo" as repo
participant ":FloorMap" as rtMap
participant ":FloorSchema" as rtSchema

activate admin

admin -> sys: wants to update floor passages
activate sys
sys - -> admin: request necessary data()
admin -> sys : insert all the data
activate comp

sys -> comp : getFloors()
activate FEsrvc
comp -> FEsrvc : listFloors()
activate route
FEsrvc -> route: GET route{}
activate ctrl
route -> ctrl: listAllFloors()
activate srvc
ctrl -> srvc: findAll()
activate repo
srvc -> repo: findAll()
deactivate FEsrvc
deactivate route
deactivate ctrl
deactivate srvc
deactivate repo

sys -> comp : patchFloorPassages()
activate FEsrvc
comp -> FEsrvc : patchPassages(Object{id, passages})
activate route
FEsrvc -> route: PATCH route{json}
activate ctrl
route -> ctrl: patchPassageBuilding(json)
activate srvc
ctrl -> srvc: patchPassageBuilding(IFloorDTO)
activate repo
srvc -> repo: findById(floor.id)
loop all passages
    srvc -> repo: findById(floor.passages.id)
end
activate rtSchema
srvc -> repo: save(floor)
activate rtMap
repo -> rtMap: toPersistance(floor)
repo -> rtSchema: create(floor)
repo - -> srvc: floor

alt saved with success
    ctrl - -> route : HTTP: 201
    route - -> FEsrvc: HTTP: 201
    FEsrvc - -> comp: HTTP: 201
    comp - -> sys: HTTP: 201
    sys - -> admin: show success message
else
    ctrl - -> route : HTTP: 400
    route - -> FEsrvc: HTTP: 400
    FEsrvc - -> comp: HTTP: 400
    comp - -> sys: HTTP: 400
    sys - -> admin: show failure message
end

deactivate rtSchema
deactivate rtMap
deactivate repo
deactivate ctrl
deactivate route
deactivate FEsrvc
deactivate comp
deactivate sys
deactivate admin
@enduml

PlantUML version 1.2020.02(Sun Mar 01 10:22:07 UTC 2020)
(GPL source distribution)
Java Runtime: OpenJDK Runtime Environment
JVM: OpenJDK 64-Bit Server VM
Java Version: 11.0.21+9
Operating System: Linux
Default Encoding: UTF-8
Language: en
Country: null
--></g></svg>