<?xml version="1.0" encoding="windows-1252" standalone="no"?>
<svg xmlns="http://www.w3.org/2000/svg" xmlns:xlink="http://www.w3.org/1999/xlink" contentStyleType="text/css" height="1250px" preserveAspectRatio="none" style="width:2279px;height:1250px;background:#FFFFFF;" version="1.1" viewBox="0 0 2279 1250" width="2279px" zoomAndPan="magnify"><defs/><g><rect fill="#FFFFFF" height="1068.6484" style="stroke:#181818;stroke-width:1.0;" width="10" x="41" y="91.2969"/><rect fill="#FFFFFF" height="1047.5156" style="stroke:#181818;stroke-width:1.0;" width="10" x="286" y="112.4297"/><rect fill="#FFFFFF" height="989.25" style="stroke:#181818;stroke-width:1.0;" width="10" x="432" y="170.6953"/><rect fill="#FFFFFF" height="785.3203" style="stroke:#181818;stroke-width:1.0;" width="10" x="611" y="374.625"/><rect fill="#FFFFFF" height="145.6641" style="stroke:#181818;stroke-width:1.0;" width="10" x="756" y="199.8281"/><rect fill="#FFFFFF" height="116.5313" style="stroke:#181818;stroke-width:1.0;" width="10" x="885" y="228.9609"/><rect fill="#FFFFFF" height="756.1875" style="stroke:#181818;stroke-width:1.0;" width="10" x="885" y="403.7578"/><rect fill="#FFFFFF" height="727.0547" style="stroke:#181818;stroke-width:1.0;" width="10" x="1055" y="432.8906"/><rect fill="#FFFFFF" height="87.3984" style="stroke:#181818;stroke-width:1.0;" width="10" x="1196" y="258.0938"/><rect fill="#FFFFFF" height="58.2656" style="stroke:#181818;stroke-width:1.0;" width="10" x="1324" y="287.2266"/><rect fill="#FFFFFF" height="698.9219" style="stroke:#181818;stroke-width:1.0;" width="10" x="1445" y="462.0234"/><rect fill="#FFFFFF" height="29.1328" style="stroke:#181818;stroke-width:1.0;" width="10" x="1606" y="316.3594"/><rect fill="#FFFFFF" height="640.6563" style="stroke:#181818;stroke-width:1.0;" width="10" x="1606" y="520.2891"/><rect fill="#FFFFFF" height="580.5234" style="stroke:#181818;stroke-width:1.0;" width="10" x="1773" y="579.4219"/><rect fill="#FFFFFF" height="1068.6484" style="stroke:#181818;stroke-width:1.0;" width="10" x="2024" y="91.2969"/><rect fill="#FFFFFF" height="395.7266" style="stroke:#181818;stroke-width:1.0;" width="10" x="2138.5" y="764.2188"/><rect fill="#FFFFFF" height="59.1328" style="stroke:#181818;stroke-width:1.0;" width="10" x="2238" y="491.1563"/><rect fill="none" height="59.2656" style="stroke:#000000;stroke-width:1.5;" width="310.5" x="1718.5" y="652.6875"/><rect fill="none" height="426.9922" style="stroke:#000000;stroke-width:1.5;" width="2202.5" x="10" y="725.9531"/><line style="stroke:#181818;stroke-width:0.5;stroke-dasharray:5.0,5.0;" x1="46" x2="46" y1="81.2969" y2="1169.9453"/><line style="stroke:#181818;stroke-width:0.5;stroke-dasharray:5.0,5.0;" x1="290.5" x2="290.5" y1="81.2969" y2="1169.9453"/><line style="stroke:#181818;stroke-width:0.5;stroke-dasharray:5.0,5.0;" x1="436.5" x2="436.5" y1="81.2969" y2="1169.9453"/><line style="stroke:#181818;stroke-width:0.5;stroke-dasharray:5.0,5.0;" x1="616" x2="616" y1="81.2969" y2="1169.9453"/><line style="stroke:#181818;stroke-width:0.5;stroke-dasharray:5.0,5.0;" x1="761" x2="761" y1="81.2969" y2="1169.9453"/><line style="stroke:#181818;stroke-width:0.5;stroke-dasharray:5.0,5.0;" x1="889.5" x2="889.5" y1="81.2969" y2="1169.9453"/><line style="stroke:#181818;stroke-width:0.5;stroke-dasharray:5.0,5.0;" x1="1060" x2="1060" y1="81.2969" y2="1169.9453"/><line style="stroke:#181818;stroke-width:0.5;stroke-dasharray:5.0,5.0;" x1="1201" x2="1201" y1="81.2969" y2="1169.9453"/><line style="stroke:#181818;stroke-width:0.5;stroke-dasharray:5.0,5.0;" x1="1329" x2="1329" y1="81.2969" y2="1169.9453"/><line style="stroke:#181818;stroke-width:0.5;stroke-dasharray:5.0,5.0;" x1="1450" x2="1450" y1="81.2969" y2="1169.9453"/><line style="stroke:#181818;stroke-width:0.5;stroke-dasharray:5.0,5.0;" x1="1610.5" x2="1610.5" y1="81.2969" y2="1169.9453"/><line style="stroke:#181818;stroke-width:0.5;stroke-dasharray:5.0,5.0;" x1="1777.5" x2="1777.5" y1="81.2969" y2="1169.9453"/><line style="stroke:#181818;stroke-width:0.5;stroke-dasharray:5.0,5.0;" x1="2028.5" x2="2028.5" y1="81.2969" y2="1169.9453"/><line style="stroke:#181818;stroke-width:0.5;stroke-dasharray:5.0,5.0;" x1="2143.5" x2="2143.5" y1="81.2969" y2="1169.9453"/><line style="stroke:#181818;stroke-width:0.5;stroke-dasharray:5.0,5.0;" x1="2242.5" x2="2242.5" y1="81.2969" y2="1169.9453"/><text fill="#000000" font-family="sans-serif" font-size="14" lengthAdjust="spacing" textLength="46" x="20" y="77.9951">Admin</text><ellipse cx="46" cy="13.5" fill="#E2E2F0" rx="8" ry="8" style="stroke:#181818;stroke-width:0.5;"/><path d="M46,21.5 L46,48.5 M33,29.5 L59,29.5 M46,48.5 L33,63.5 M46,48.5 L59,63.5 " fill="none" style="stroke:#181818;stroke-width:0.5;"/><text fill="#000000" font-family="sans-serif" font-size="14" lengthAdjust="spacing" textLength="46" x="20" y="1181.9404">Admin</text><ellipse cx="46" cy="1193.7422" fill="#E2E2F0" rx="8" ry="8" style="stroke:#181818;stroke-width:0.5;"/><path d="M46,1201.7422 L46,1228.7422 M33,1209.7422 L59,1209.7422 M46,1228.7422 L33,1243.7422 M46,1228.7422 L59,1243.7422 " fill="none" style="stroke:#181818;stroke-width:0.5;"/><rect fill="#E2E2F0" height="30.2969" rx="2.5" ry="2.5" style="stroke:#181818;stroke-width:0.5;" width="53" x="264.5" y="50"/><text fill="#000000" font-family="sans-serif" font-size="14" lengthAdjust="spacing" textLength="39" x="271.5" y="69.9951">:View</text><rect fill="#E2E2F0" height="30.2969" rx="2.5" ry="2.5" style="stroke:#181818;stroke-width:0.5;" width="53" x="264.5" y="1168.9453"/><text fill="#000000" font-family="sans-serif" font-size="14" lengthAdjust="spacing" textLength="39" x="271.5" y="1188.9404">:View</text><rect fill="#E2E2F0" height="30.2969" rx="2.5" ry="2.5" style="stroke:#181818;stroke-width:0.5;" width="129" x="372.5" y="50"/><text fill="#000000" font-family="sans-serif" font-size="14" lengthAdjust="spacing" textLength="115" x="379.5" y="69.9951">:FE_Component</text><rect fill="#E2E2F0" height="30.2969" rx="2.5" ry="2.5" style="stroke:#181818;stroke-width:0.5;" width="129" x="372.5" y="1168.9453"/><text fill="#000000" font-family="sans-serif" font-size="14" lengthAdjust="spacing" textLength="115" x="379.5" y="1188.9404">:FE_Component</text><rect fill="#E2E2F0" height="30.2969" rx="2.5" ry="2.5" style="stroke:#181818;stroke-width:0.5;" width="138" x="547" y="50"/><text fill="#000000" font-family="sans-serif" font-size="14" lengthAdjust="spacing" textLength="124" x="554" y="69.9951">:FE_RoomService</text><rect fill="#E2E2F0" height="30.2969" rx="2.5" ry="2.5" style="stroke:#181818;stroke-width:0.5;" width="138" x="547" y="1168.9453"/><text fill="#000000" font-family="sans-serif" font-size="14" lengthAdjust="spacing" textLength="124" x="554" y="1188.9404">:FE_RoomService</text><rect fill="#E2E2F0" height="30.2969" rx="2.5" ry="2.5" style="stroke:#181818;stroke-width:0.5;" width="132" x="695" y="50"/><text fill="#000000" font-family="sans-serif" font-size="14" lengthAdjust="spacing" textLength="118" x="702" y="69.9951">:FE_FloorService</text><rect fill="#E2E2F0" height="30.2969" rx="2.5" ry="2.5" style="stroke:#181818;stroke-width:0.5;" width="132" x="695" y="1168.9453"/><text fill="#000000" font-family="sans-serif" font-size="14" lengthAdjust="spacing" textLength="118" x="702" y="1188.9404">:FE_FloorService</text><rect fill="#E2E2F0" height="30.2969" rx="2.5" ry="2.5" style="stroke:#181818;stroke-width:0.5;" width="75" x="852.5" y="50"/><text fill="#000000" font-family="sans-serif" font-size="14" lengthAdjust="spacing" textLength="61" x="859.5" y="69.9951">:Routing</text><rect fill="#E2E2F0" height="30.2969" rx="2.5" ry="2.5" style="stroke:#181818;stroke-width:0.5;" width="75" x="852.5" y="1168.9453"/><text fill="#000000" font-family="sans-serif" font-size="14" lengthAdjust="spacing" textLength="61" x="859.5" y="1188.9404">:Routing</text><rect fill="#E2E2F0" height="30.2969" rx="2.5" ry="2.5" style="stroke:#181818;stroke-width:0.5;" width="134" x="993" y="50"/><text fill="#000000" font-family="sans-serif" font-size="14" lengthAdjust="spacing" textLength="120" x="1000" y="69.9951">:RoomController</text><rect fill="#E2E2F0" height="30.2969" rx="2.5" ry="2.5" style="stroke:#181818;stroke-width:0.5;" width="134" x="993" y="1168.9453"/><text fill="#000000" font-family="sans-serif" font-size="14" lengthAdjust="spacing" textLength="120" x="1000" y="1188.9404">:RoomController</text><rect fill="#E2E2F0" height="30.2969" rx="2.5" ry="2.5" style="stroke:#181818;stroke-width:0.5;" width="128" x="1137" y="50"/><text fill="#000000" font-family="sans-serif" font-size="14" lengthAdjust="spacing" textLength="114" x="1144" y="69.9951">:FloorController</text><rect fill="#E2E2F0" height="30.2969" rx="2.5" ry="2.5" style="stroke:#181818;stroke-width:0.5;" width="128" x="1137" y="1168.9453"/><text fill="#000000" font-family="sans-serif" font-size="14" lengthAdjust="spacing" textLength="114" x="1144" y="1188.9404">:FloorController</text><rect fill="#E2E2F0" height="30.2969" rx="2.5" ry="2.5" style="stroke:#181818;stroke-width:0.5;" width="108" x="1275" y="50"/><text fill="#000000" font-family="sans-serif" font-size="14" lengthAdjust="spacing" textLength="94" x="1282" y="69.9951">:FloorService</text><rect fill="#E2E2F0" height="30.2969" rx="2.5" ry="2.5" style="stroke:#181818;stroke-width:0.5;" width="108" x="1275" y="1168.9453"/><text fill="#000000" font-family="sans-serif" font-size="14" lengthAdjust="spacing" textLength="94" x="1282" y="1188.9404">:FloorService</text><rect fill="#E2E2F0" height="30.2969" rx="2.5" ry="2.5" style="stroke:#181818;stroke-width:0.5;" width="114" x="1393" y="50"/><text fill="#000000" font-family="sans-serif" font-size="14" lengthAdjust="spacing" textLength="100" x="1400" y="69.9951">:RoomService</text><rect fill="#E2E2F0" height="30.2969" rx="2.5" ry="2.5" style="stroke:#181818;stroke-width:0.5;" width="114" x="1393" y="1168.9453"/><text fill="#000000" font-family="sans-serif" font-size="14" lengthAdjust="spacing" textLength="100" x="1400" y="1188.9404">:RoomService</text><rect fill="#E2E2F0" height="30.2969" rx="2.5" ry="2.5" style="stroke:#181818;stroke-width:0.5;" width="93" x="1564.5" y="50"/><text fill="#000000" font-family="sans-serif" font-size="14" lengthAdjust="spacing" textLength="79" x="1571.5" y="69.9951">:FloorRepo</text><rect fill="#E2E2F0" height="30.2969" rx="2.5" ry="2.5" style="stroke:#181818;stroke-width:0.5;" width="93" x="1564.5" y="1168.9453"/><text fill="#000000" font-family="sans-serif" font-size="14" lengthAdjust="spacing" textLength="79" x="1571.5" y="1188.9404">:FloorRepo</text><rect fill="#E2E2F0" height="30.2969" rx="2.5" ry="2.5" style="stroke:#181818;stroke-width:0.5;" width="99" x="1728.5" y="50"/><text fill="#000000" font-family="sans-serif" font-size="14" lengthAdjust="spacing" textLength="85" x="1735.5" y="69.9951">:RoomRepo</text><rect fill="#E2E2F0" height="30.2969" rx="2.5" ry="2.5" style="stroke:#181818;stroke-width:0.5;" width="99" x="1728.5" y="1168.9453"/><text fill="#000000" font-family="sans-serif" font-size="14" lengthAdjust="spacing" textLength="85" x="1735.5" y="1188.9404">:RoomRepo</text><rect fill="#E2E2F0" height="30.2969" rx="2.5" ry="2.5" style="stroke:#181818;stroke-width:0.5;" width="91" x="1983.5" y="50"/><text fill="#000000" font-family="sans-serif" font-size="14" lengthAdjust="spacing" textLength="77" x="1990.5" y="69.9951">:RoomMap</text><rect fill="#E2E2F0" height="30.2969" rx="2.5" ry="2.5" style="stroke:#181818;stroke-width:0.5;" width="91" x="1983.5" y="1168.9453"/><text fill="#000000" font-family="sans-serif" font-size="14" lengthAdjust="spacing" textLength="77" x="1990.5" y="1188.9404">:RoomMap</text><rect fill="#E2E2F0" height="30.2969" rx="2.5" ry="2.5" style="stroke:#181818;stroke-width:0.5;" width="118" x="2084.5" y="50"/><text fill="#000000" font-family="sans-serif" font-size="14" lengthAdjust="spacing" textLength="104" x="2091.5" y="69.9951">:RoomSchema</text><rect fill="#E2E2F0" height="30.2969" rx="2.5" ry="2.5" style="stroke:#181818;stroke-width:0.5;" width="118" x="2084.5" y="1168.9453"/><text fill="#000000" font-family="sans-serif" font-size="14" lengthAdjust="spacing" textLength="104" x="2091.5" y="1188.9404">:RoomSchema</text><rect fill="#E2E2F0" height="30.2969" rx="2.5" ry="2.5" style="stroke:#181818;stroke-width:0.5;" width="61" x="2212.5" y="50"/><text fill="#000000" font-family="sans-serif" font-size="14" lengthAdjust="spacing" textLength="47" x="2219.5" y="69.9951">:Room</text><rect fill="#E2E2F0" height="30.2969" rx="2.5" ry="2.5" style="stroke:#181818;stroke-width:0.5;" width="61" x="2212.5" y="1168.9453"/><text fill="#000000" font-family="sans-serif" font-size="14" lengthAdjust="spacing" textLength="47" x="2219.5" y="1188.9404">:Room</text><rect fill="#FFFFFF" height="1068.6484" style="stroke:#181818;stroke-width:1.0;" width="10" x="41" y="91.2969"/><rect fill="#FFFFFF" height="1047.5156" style="stroke:#181818;stroke-width:1.0;" width="10" x="286" y="112.4297"/><rect fill="#FFFFFF" height="989.25" style="stroke:#181818;stroke-width:1.0;" width="10" x="432" y="170.6953"/><rect fill="#FFFFFF" height="785.3203" style="stroke:#181818;stroke-width:1.0;" width="10" x="611" y="374.625"/><rect fill="#FFFFFF" height="145.6641" style="stroke:#181818;stroke-width:1.0;" width="10" x="756" y="199.8281"/><rect fill="#FFFFFF" height="116.5313" style="stroke:#181818;stroke-width:1.0;" width="10" x="885" y="228.9609"/><rect fill="#FFFFFF" height="756.1875" style="stroke:#181818;stroke-width:1.0;" width="10" x="885" y="403.7578"/><rect fill="#FFFFFF" height="727.0547" style="stroke:#181818;stroke-width:1.0;" width="10" x="1055" y="432.8906"/><rect fill="#FFFFFF" height="87.3984" style="stroke:#181818;stroke-width:1.0;" width="10" x="1196" y="258.0938"/><rect fill="#FFFFFF" height="58.2656" style="stroke:#181818;stroke-width:1.0;" width="10" x="1324" y="287.2266"/><rect fill="#FFFFFF" height="698.9219" style="stroke:#181818;stroke-width:1.0;" width="10" x="1445" y="462.0234"/><rect fill="#FFFFFF" height="29.1328" style="stroke:#181818;stroke-width:1.0;" width="10" x="1606" y="316.3594"/><rect fill="#FFFFFF" height="640.6563" style="stroke:#181818;stroke-width:1.0;" width="10" x="1606" y="520.2891"/><rect fill="#FFFFFF" height="580.5234" style="stroke:#181818;stroke-width:1.0;" width="10" x="1773" y="579.4219"/><rect fill="#FFFFFF" height="1068.6484" style="stroke:#181818;stroke-width:1.0;" width="10" x="2024" y="91.2969"/><rect fill="#FFFFFF" height="395.7266" style="stroke:#181818;stroke-width:1.0;" width="10" x="2138.5" y="764.2188"/><rect fill="#FFFFFF" height="59.1328" style="stroke:#181818;stroke-width:1.0;" width="10" x="2238" y="491.1563"/><polygon fill="#181818" points="274,108.4297,284,112.4297,274,116.4297,278,112.4297" style="stroke:#181818;stroke-width:1.0;"/><line style="stroke:#181818;stroke-width:1.0;" x1="51" x2="280" y1="112.4297" y2="112.4297"/><text fill="#000000" font-family="sans-serif" font-size="13" font-weight="bold" lengthAdjust="spacing" textLength="9" x="58" y="107.3638">1</text><text fill="#000000" font-family="sans-serif" font-size="13" lengthAdjust="spacing" textLength="203" x="71" y="107.3638">wants to update floor passages</text><polygon fill="#181818" points="62,137.5625,52,141.5625,62,145.5625,58,141.5625" style="stroke:#181818;stroke-width:1.0;"/><line style="stroke:#181818;stroke-width:1.0;stroke-dasharray:2.0,2.0;" x1="56" x2="285" y1="141.5625" y2="141.5625"/><text fill="#000000" font-family="sans-serif" font-size="13" font-weight="bold" lengthAdjust="spacing" textLength="9" x="68" y="136.4966">2</text><text fill="#000000" font-family="sans-serif" font-size="13" lengthAdjust="spacing" textLength="162" x="81" y="136.4966">request necessary data()</text><polygon fill="#181818" points="274,166.6953,284,170.6953,274,174.6953,278,170.6953" style="stroke:#181818;stroke-width:1.0;"/><line style="stroke:#181818;stroke-width:1.0;" x1="51" x2="280" y1="170.6953" y2="170.6953"/><text fill="#000000" font-family="sans-serif" font-size="13" font-weight="bold" lengthAdjust="spacing" textLength="8" x="58" y="165.6294">3</text><text fill="#000000" font-family="sans-serif" font-size="13" lengthAdjust="spacing" textLength="112" x="70" y="165.6294">insert all the data</text><polygon fill="#181818" points="420,195.8281,430,199.8281,420,203.8281,424,199.8281" style="stroke:#181818;stroke-width:1.0;"/><line style="stroke:#181818;stroke-width:1.0;" x1="296" x2="426" y1="199.8281" y2="199.8281"/><text fill="#000000" font-family="sans-serif" font-size="13" font-weight="bold" lengthAdjust="spacing" textLength="9" x="303" y="194.7622">4</text><text fill="#000000" font-family="sans-serif" font-size="13" lengthAdjust="spacing" textLength="69" x="316" y="194.7622">getFloors()</text><polygon fill="#181818" points="744,224.9609,754,228.9609,744,232.9609,748,228.9609" style="stroke:#181818;stroke-width:1.0;"/><line style="stroke:#181818;stroke-width:1.0;" x1="442" x2="750" y1="228.9609" y2="228.9609"/><text fill="#000000" font-family="sans-serif" font-size="13" font-weight="bold" lengthAdjust="spacing" textLength="9" x="449" y="223.895">5</text><text fill="#000000" font-family="sans-serif" font-size="13" lengthAdjust="spacing" textLength="66" x="462" y="223.895">listFloors()</text><polygon fill="#181818" points="873,254.0938,883,258.0938,873,262.0938,877,258.0938" style="stroke:#181818;stroke-width:1.0;"/><line style="stroke:#181818;stroke-width:1.0;" x1="766" x2="879" y1="258.0938" y2="258.0938"/><text fill="#000000" font-family="sans-serif" font-size="13" font-weight="bold" lengthAdjust="spacing" textLength="9" x="773" y="253.0278">6</text><text fill="#000000" font-family="sans-serif" font-size="13" lengthAdjust="spacing" textLength="82" x="786" y="253.0278">GET route{}</text><polygon fill="#181818" points="1184,283.2266,1194,287.2266,1184,291.2266,1188,287.2266" style="stroke:#181818;stroke-width:1.0;"/><line style="stroke:#181818;stroke-width:1.0;" x1="895" x2="1190" y1="287.2266" y2="287.2266"/><text fill="#000000" font-family="sans-serif" font-size="13" font-weight="bold" lengthAdjust="spacing" textLength="9" x="902" y="282.1606">7</text><text fill="#000000" font-family="sans-serif" font-size="13" lengthAdjust="spacing" textLength="81" x="915" y="282.1606">listAllFloors()</text><polygon fill="#181818" points="1312,312.3594,1322,316.3594,1312,320.3594,1316,316.3594" style="stroke:#181818;stroke-width:1.0;"/><line style="stroke:#181818;stroke-width:1.0;" x1="1060" x2="1318" y1="316.3594" y2="316.3594"/><text fill="#000000" font-family="sans-serif" font-size="13" font-weight="bold" lengthAdjust="spacing" textLength="9" x="1067" y="311.2935">8</text><text fill="#000000" font-family="sans-serif" font-size="13" lengthAdjust="spacing" textLength="49" x="1080" y="311.2935">findAll()</text><polygon fill="#181818" points="1599,341.4922,1609,345.4922,1599,349.4922,1603,345.4922" style="stroke:#181818;stroke-width:1.0;"/><line style="stroke:#181818;stroke-width:1.0;" x1="1329" x2="1605" y1="345.4922" y2="345.4922"/><text fill="#000000" font-family="sans-serif" font-size="13" font-weight="bold" lengthAdjust="spacing" textLength="9" x="1336" y="340.4263">9</text><text fill="#000000" font-family="sans-serif" font-size="13" lengthAdjust="spacing" textLength="49" x="1349" y="340.4263">findAll()</text><polygon fill="#181818" points="420,370.625,430,374.625,420,378.625,424,374.625" style="stroke:#181818;stroke-width:1.0;"/><line style="stroke:#181818;stroke-width:1.0;" x1="296" x2="426" y1="374.625" y2="374.625"/><text fill="#000000" font-family="sans-serif" font-size="13" font-weight="bold" lengthAdjust="spacing" textLength="19" x="303" y="369.5591">10</text><text fill="#000000" font-family="sans-serif" font-size="13" lengthAdjust="spacing" textLength="89" x="326" y="369.5591">createRoom()</text><polygon fill="#181818" points="599,399.7578,609,403.7578,599,407.7578,603,403.7578" style="stroke:#181818;stroke-width:1.0;"/><line style="stroke:#181818;stroke-width:1.0;" x1="442" x2="605" y1="403.7578" y2="403.7578"/><text fill="#000000" font-family="sans-serif" font-size="13" font-weight="bold" lengthAdjust="spacing" textLength="18" x="449" y="398.6919">11</text><text fill="#000000" font-family="sans-serif" font-size="13" lengthAdjust="spacing" textLength="123" x="471" y="398.6919">createRoom(room)</text><polygon fill="#181818" points="873,428.8906,883,432.8906,873,436.8906,877,432.8906" style="stroke:#181818;stroke-width:1.0;"/><line style="stroke:#181818;stroke-width:1.0;" x1="621" x2="879" y1="432.8906" y2="432.8906"/><text fill="#000000" font-family="sans-serif" font-size="13" font-weight="bold" lengthAdjust="spacing" textLength="18" x="628" y="427.8247">12</text><text fill="#000000" font-family="sans-serif" font-size="13" lengthAdjust="spacing" textLength="116" x="650" y="427.8247">POST route{json}</text><polygon fill="#181818" points="1043,458.0234,1053,462.0234,1043,466.0234,1047,462.0234" style="stroke:#181818;stroke-width:1.0;"/><line style="stroke:#181818;stroke-width:1.0;" x1="895" x2="1049" y1="462.0234" y2="462.0234"/><text fill="#000000" font-family="sans-serif" font-size="13" font-weight="bold" lengthAdjust="spacing" textLength="17" x="902" y="456.9575">13</text><text fill="#000000" font-family="sans-serif" font-size="13" lengthAdjust="spacing" textLength="115" x="923" y="456.9575">createRoom(json)</text><polygon fill="#181818" points="1433,487.1563,1443,491.1563,1433,495.1563,1437,491.1563" style="stroke:#181818;stroke-width:1.0;"/><line style="stroke:#181818;stroke-width:1.0;" x1="1065" x2="1439" y1="491.1563" y2="491.1563"/><text fill="#000000" font-family="sans-serif" font-size="13" font-weight="bold" lengthAdjust="spacing" textLength="18" x="1072" y="486.0903">14</text><text fill="#000000" font-family="sans-serif" font-size="13" lengthAdjust="spacing" textLength="158" x="1094" y="486.0903">createRoom(IRoomDTO)</text><polygon fill="#181818" points="2226,516.2891,2236,520.2891,2226,524.2891,2230,520.2891" style="stroke:#181818;stroke-width:1.0;"/><line style="stroke:#181818;stroke-width:1.0;" x1="1455" x2="2232" y1="520.2891" y2="520.2891"/><text fill="#000000" font-family="sans-serif" font-size="13" font-weight="bold" lengthAdjust="spacing" textLength="18" x="1462" y="515.2231">15</text><text fill="#000000" font-family="sans-serif" font-size="13" lengthAdjust="spacing" textLength="51" x="1484" y="515.2231">create()</text><polygon fill="#181818" points="1594,575.4219,1604,579.4219,1594,583.4219,1598,579.4219" style="stroke:#181818;stroke-width:1.0;"/><line style="stroke:#181818;stroke-width:1.0;" x1="1455" x2="1600" y1="579.4219" y2="579.4219"/><text fill="#000000" font-family="sans-serif" font-size="13" font-weight="bold" lengthAdjust="spacing" textLength="18" x="1462" y="574.356">16</text><text fill="#000000" font-family="sans-serif" font-size="13" lengthAdjust="spacing" textLength="105" x="1484" y="574.356">findById(floor.id)</text><polygon fill="#181818" points="1761,604.5547,1771,608.5547,1761,612.5547,1765,608.5547" style="stroke:#181818;stroke-width:1.0;"/><line style="stroke:#181818;stroke-width:1.0;" x1="1455" x2="1767" y1="608.5547" y2="608.5547"/><text fill="#000000" font-family="sans-serif" font-size="13" font-weight="bold" lengthAdjust="spacing" textLength="18" x="1462" y="603.4888">17</text><text fill="#000000" font-family="sans-serif" font-size="13" lengthAdjust="spacing" textLength="70" x="1484" y="603.4888">save(floor)</text><polygon fill="#181818" points="2131.5,633.6875,2141.5,637.6875,2131.5,641.6875,2135.5,637.6875" style="stroke:#181818;stroke-width:1.0;"/><line style="stroke:#181818;stroke-width:1.0;" x1="1783" x2="2137.5" y1="637.6875" y2="637.6875"/><text fill="#000000" font-family="sans-serif" font-size="13" font-weight="bold" lengthAdjust="spacing" textLength="18" x="1790" y="632.6216">18</text><text fill="#000000" font-family="sans-serif" font-size="13" lengthAdjust="spacing" textLength="116" x="1812" y="632.6216">find(room.floor.id)</text><path d="M1718.5,652.6875 L1796.5,652.6875 L1796.5,659.8203 L1786.5,669.8203 L1718.5,669.8203 L1718.5,652.6875 " fill="#EEEEEE" style="stroke:#000000;stroke-width:1.5;"/><rect fill="none" height="59.2656" style="stroke:#000000;stroke-width:1.5;" width="310.5" x="1718.5" y="652.6875"/><text fill="#000000" font-family="sans-serif" font-size="13" font-weight="bold" lengthAdjust="spacing" textLength="33" x="1733.5" y="665.7544">loop</text><text fill="#000000" font-family="sans-serif" font-size="11" font-weight="bold" lengthAdjust="spacing" textLength="155" x="1811.5" y="664.8979">[All Rooms Same Floor]</text><line style="stroke:#181818;stroke-width:1.0;" x1="1783" x2="1825" y1="690.9531" y2="690.9531"/><line style="stroke:#181818;stroke-width:1.0;" x1="1825" x2="1825" y1="690.9531" y2="703.9531"/><line style="stroke:#181818;stroke-width:1.0;" x1="1784" x2="1825" y1="703.9531" y2="703.9531"/><polygon fill="#181818" points="1794,699.9531,1784,703.9531,1794,707.9531,1790,703.9531" style="stroke:#181818;stroke-width:1.0;"/><text fill="#000000" font-family="sans-serif" font-size="13" font-weight="bold" lengthAdjust="spacing" textLength="18" x="1790" y="685.8872">19</text><text fill="#000000" font-family="sans-serif" font-size="13" lengthAdjust="spacing" textLength="205" x="1812" y="685.8872">doRoomsOverlap(Room, Room)</text><path d="M10,725.9531 L76,725.9531 L76,733.0859 L66,743.0859 L10,743.0859 L10,725.9531 " fill="#EEEEEE" style="stroke:#000000;stroke-width:1.5;"/><rect fill="none" height="426.9922" style="stroke:#000000;stroke-width:1.5;" width="2202.5" x="10" y="725.9531"/><text fill="#000000" font-family="sans-serif" font-size="13" font-weight="bold" lengthAdjust="spacing" textLength="21" x="25" y="739.02">alt</text><text fill="#000000" font-family="sans-serif" font-size="11" font-weight="bold" lengthAdjust="spacing" textLength="81" x="91" y="738.1636">[no overlap]</text><polygon fill="#181818" points="2012,760.2188,2022,764.2188,2012,768.2188,2016,764.2188" style="stroke:#181818;stroke-width:1.0;"/><line style="stroke:#181818;stroke-width:1.0;" x1="1783" x2="2018" y1="764.2188" y2="764.2188"/><text fill="#000000" font-family="sans-serif" font-size="13" font-weight="bold" lengthAdjust="spacing" textLength="19" x="1790" y="759.1528">20</text><text fill="#000000" font-family="sans-serif" font-size="13" lengthAdjust="spacing" textLength="126" x="1813" y="759.1528">toPersistance(floor)</text><polygon fill="#181818" points="2126.5,789.3516,2136.5,793.3516,2126.5,797.3516,2130.5,793.3516" style="stroke:#181818;stroke-width:1.0;"/><line style="stroke:#181818;stroke-width:1.0;" x1="1783" x2="2132.5" y1="793.3516" y2="793.3516"/><text fill="#000000" font-family="sans-serif" font-size="13" font-weight="bold" lengthAdjust="spacing" textLength="18" x="1790" y="788.2856">21</text><text fill="#000000" font-family="sans-serif" font-size="13" lengthAdjust="spacing" textLength="80" x="1812" y="788.2856">create(floor)</text><polygon fill="#181818" points="1466,818.4844,1456,822.4844,1466,826.4844,1462,822.4844" style="stroke:#181818;stroke-width:1.0;"/><line style="stroke:#181818;stroke-width:1.0;stroke-dasharray:2.0,2.0;" x1="1460" x2="1772" y1="822.4844" y2="822.4844"/><text fill="#000000" font-family="sans-serif" font-size="13" font-weight="bold" lengthAdjust="spacing" textLength="18" x="1472" y="817.4185">22</text><text fill="#000000" font-family="sans-serif" font-size="13" lengthAdjust="spacing" textLength="29" x="1494" y="817.4185">floor</text><polygon fill="#181818" points="906,847.6172,896,851.6172,906,855.6172,902,851.6172" style="stroke:#181818;stroke-width:1.0;"/><line style="stroke:#181818;stroke-width:1.0;stroke-dasharray:2.0,2.0;" x1="900" x2="1054" y1="851.6172" y2="851.6172"/><text fill="#000000" font-family="sans-serif" font-size="13" font-weight="bold" lengthAdjust="spacing" textLength="17" x="912" y="846.5513">23</text><text fill="#000000" font-family="sans-serif" font-size="13" lengthAdjust="spacing" textLength="66" x="933" y="846.5513">HTTP: 201</text><polygon fill="#181818" points="632,876.75,622,880.75,632,884.75,628,880.75" style="stroke:#181818;stroke-width:1.0;"/><line style="stroke:#181818;stroke-width:1.0;stroke-dasharray:2.0,2.0;" x1="626" x2="884" y1="880.75" y2="880.75"/><text fill="#000000" font-family="sans-serif" font-size="13" font-weight="bold" lengthAdjust="spacing" textLength="18" x="638" y="875.6841">24</text><text fill="#000000" font-family="sans-serif" font-size="13" lengthAdjust="spacing" textLength="66" x="660" y="875.6841">HTTP: 201</text><polygon fill="#181818" points="453,905.8828,443,909.8828,453,913.8828,449,909.8828" style="stroke:#181818;stroke-width:1.0;"/><line style="stroke:#181818;stroke-width:1.0;stroke-dasharray:2.0,2.0;" x1="447" x2="610" y1="909.8828" y2="909.8828"/><text fill="#000000" font-family="sans-serif" font-size="13" font-weight="bold" lengthAdjust="spacing" textLength="18" x="459" y="904.8169">25</text><text fill="#000000" font-family="sans-serif" font-size="13" lengthAdjust="spacing" textLength="66" x="481" y="904.8169">HTTP: 201</text><polygon fill="#181818" points="307,935.0156,297,939.0156,307,943.0156,303,939.0156" style="stroke:#181818;stroke-width:1.0;"/><line style="stroke:#181818;stroke-width:1.0;stroke-dasharray:2.0,2.0;" x1="301" x2="431" y1="939.0156" y2="939.0156"/><text fill="#000000" font-family="sans-serif" font-size="13" font-weight="bold" lengthAdjust="spacing" textLength="18" x="313" y="933.9497">26</text><text fill="#000000" font-family="sans-serif" font-size="13" lengthAdjust="spacing" textLength="66" x="335" y="933.9497">HTTP: 201</text><polygon fill="#181818" points="62,964.1484,52,968.1484,62,972.1484,58,968.1484" style="stroke:#181818;stroke-width:1.0;"/><line style="stroke:#181818;stroke-width:1.0;stroke-dasharray:2.0,2.0;" x1="56" x2="285" y1="968.1484" y2="968.1484"/><text fill="#000000" font-family="sans-serif" font-size="13" font-weight="bold" lengthAdjust="spacing" textLength="18" x="68" y="963.0825">27</text><text fill="#000000" font-family="sans-serif" font-size="13" lengthAdjust="spacing" textLength="152" x="90" y="963.0825">show success message</text><line style="stroke:#000000;stroke-width:1.0;stroke-dasharray:2.0,2.0;" x1="10" x2="2212.5" y1="977.1484" y2="977.1484"/><polygon fill="#181818" points="1466,995.2813,1456,999.2813,1466,1003.2813,1462,999.2813" style="stroke:#181818;stroke-width:1.0;"/><line style="stroke:#181818;stroke-width:1.0;stroke-dasharray:2.0,2.0;" x1="1460" x2="1772" y1="999.2813" y2="999.2813"/><text fill="#000000" font-family="sans-serif" font-size="13" font-weight="bold" lengthAdjust="spacing" textLength="18" x="1472" y="994.2153">28</text><text fill="#000000" font-family="sans-serif" font-size="13" lengthAdjust="spacing" textLength="272" x="1494" y="994.2153">Error(Room overlaps with existing rooms.)</text><polygon fill="#181818" points="906,1024.4141,896,1028.4141,906,1032.4141,902,1028.4141" style="stroke:#181818;stroke-width:1.0;"/><line style="stroke:#181818;stroke-width:1.0;stroke-dasharray:2.0,2.0;" x1="900" x2="1054" y1="1028.4141" y2="1028.4141"/><text fill="#000000" font-family="sans-serif" font-size="13" font-weight="bold" lengthAdjust="spacing" textLength="18" x="912" y="1023.3481">29</text><text fill="#000000" font-family="sans-serif" font-size="13" lengthAdjust="spacing" textLength="66" x="934" y="1023.3481">HTTP: 400</text><polygon fill="#181818" points="632,1053.5469,622,1057.5469,632,1061.5469,628,1057.5469" style="stroke:#181818;stroke-width:1.0;"/><line style="stroke:#181818;stroke-width:1.0;stroke-dasharray:2.0,2.0;" x1="626" x2="884" y1="1057.5469" y2="1057.5469"/><text fill="#000000" font-family="sans-serif" font-size="13" font-weight="bold" lengthAdjust="spacing" textLength="18" x="638" y="1052.481">30</text><text fill="#000000" font-family="sans-serif" font-size="13" lengthAdjust="spacing" textLength="66" x="660" y="1052.481">HTTP: 400</text><polygon fill="#181818" points="453,1082.6797,443,1086.6797,453,1090.6797,449,1086.6797" style="stroke:#181818;stroke-width:1.0;"/><line style="stroke:#181818;stroke-width:1.0;stroke-dasharray:2.0,2.0;" x1="447" x2="610" y1="1086.6797" y2="1086.6797"/><text fill="#000000" font-family="sans-serif" font-size="13" font-weight="bold" lengthAdjust="spacing" textLength="17" x="459" y="1081.6138">31</text><text fill="#000000" font-family="sans-serif" font-size="13" lengthAdjust="spacing" textLength="66" x="480" y="1081.6138">HTTP: 400</text><polygon fill="#181818" points="307,1111.8125,297,1115.8125,307,1119.8125,303,1115.8125" style="stroke:#181818;stroke-width:1.0;"/><line style="stroke:#181818;stroke-width:1.0;stroke-dasharray:2.0,2.0;" x1="301" x2="431" y1="1115.8125" y2="1115.8125"/><text fill="#000000" font-family="sans-serif" font-size="13" font-weight="bold" lengthAdjust="spacing" textLength="17" x="313" y="1110.7466">32</text><text fill="#000000" font-family="sans-serif" font-size="13" lengthAdjust="spacing" textLength="66" x="334" y="1110.7466">HTTP: 400</text><polygon fill="#181818" points="62,1140.9453,52,1144.9453,62,1148.9453,58,1144.9453" style="stroke:#181818;stroke-width:1.0;"/><line style="stroke:#181818;stroke-width:1.0;stroke-dasharray:2.0,2.0;" x1="56" x2="285" y1="1144.9453" y2="1144.9453"/><text fill="#000000" font-family="sans-serif" font-size="13" font-weight="bold" lengthAdjust="spacing" textLength="16" x="68" y="1139.8794">33</text><text fill="#000000" font-family="sans-serif" font-size="13" lengthAdjust="spacing" textLength="141" x="88" y="1139.8794">show failure message</text><!--SRC=[VLN1Rjim3BtxAuXUrW1hqGqx-L2WwvAjXw556-nQg3RJQB0jJvAJ5iF-VHGLEPBija0JKNny9XzfHWnMTKFxXBhui9KrmaOf-wHU2b5PfU7agcvbTmB2W72dekY5jhAIlUWid9I_9ExPQrvDvbej7wzLswiEEykGYgmfvbwfzW7rJbR8gDNIw5qrnQqQfNG2d4NUgy7AxfaHciuuyQlsMdLMgwP1xVEokicVvnwMmLPluPAaPbDAAvohp_7SOwyyYQRJ3Ca8UCF_K_JURUaqbqIrnLOS8DwOGNb_uGP0xeJ5q7Z-WhDBr-eIzXHWm2eO-jg1Dgu2w8KnuXdDCTZD1Vt36GKoGqdP_ndGMEYmGeBhLo06SRf8dW0boCwWjY2Q1kmM6NJavM7op9TiKC0pMXRIEAu036F26C8UR88tqipW_T0450NmHGdVbsj__Fil8kUPu6lcTgOdlcgQcLny9WHYjBDAsCYk9dI2umQlGWPini0Q9-L5Lxw26CDPnXTvY7zW9cUbaNnk99BSCZc3cX5QqyTKqLpGkzk7eEXlexf8rLHKhsb4xz0HVQAfbpG2txZFR-lRE9zYp2H0f-B7UXOpZVZwUbEVyj2VopecTy4ZFyEDsA67BWftmvx3- -V9MB7p8niTUg1MWqlUm8DeAItdBO3-HWvchnM3RdUe6z6VEkCZnoqAxEf2DFIYAL3UpV77N7bF99JkfgJN-WwreIaMNJMcdeKUzaSQ7Oewg1f5UipOeSrOZUzS60iQf1_hzLq9doy- -JW_1kEavVumLeUnpTr-JCFIIdtPMZ9RjGSpL6ufGOkyo0fi3CxblzHQQHOxI6jWB-qMy8LaenyWS2qrvultQlnoSV5kZS7_Het1FLTZyCtLk16o6JGUQwGnIUOzz3QvSwCINsGlIRvYfajeigTuXKUs-wc8J4xvFm00]--></g></svg>