<?xml version="1.0" encoding="windows-1252" standalone="no"?>
<svg xmlns="http://www.w3.org/2000/svg" xmlns:xlink="http://www.w3.org/1999/xlink" contentStyleType="text/css" height="1324px" preserveAspectRatio="none" style="width:1931px;height:1324px;background:#FFFFFF;" version="1.1" viewBox="0 0 1931 1324" width="1931px" zoomAndPan="magnify"><defs/><g><rect fill="#FFFFFF" height="1142.1797" style="stroke:#181818;stroke-width:1.0;" width="10" x="41" y="91.2969"/><rect fill="#FFFFFF" height="1121.0469" style="stroke:#181818;stroke-width:1.0;" width="10" x="250" y="112.4297"/><rect fill="#FFFFFF" height="1062.7813" style="stroke:#181818;stroke-width:1.0;" width="10" x="377" y="170.6953"/><rect fill="#FFFFFF" height="145.6641" style="stroke:#181818;stroke-width:1.0;" width="10" x="527" y="374.625"/><rect fill="#FFFFFF" height="684.0547" style="stroke:#181818;stroke-width:1.0;" width="10" x="527" y="549.4219"/><rect fill="#FFFFFF" height="145.6641" style="stroke:#181818;stroke-width:1.0;" width="10" x="679.5" y="199.8281"/><rect fill="#FFFFFF" height="116.5313" style="stroke:#181818;stroke-width:1.0;" width="10" x="808.5" y="228.9609"/><rect fill="#FFFFFF" height="116.5313" style="stroke:#181818;stroke-width:1.0;" width="10" x="808.5" y="403.7578"/><rect fill="#FFFFFF" height="654.9219" style="stroke:#181818;stroke-width:1.0;" width="10" x="808.5" y="578.5547"/><rect fill="#FFFFFF" height="87.3984" style="stroke:#181818;stroke-width:1.0;" width="10" x="976.5" y="258.0938"/><rect fill="#FFFFFF" height="87.3984" style="stroke:#181818;stroke-width:1.0;" width="10" x="976.5" y="432.8906"/><rect fill="#FFFFFF" height="625.7891" style="stroke:#181818;stroke-width:1.0;" width="10" x="976.5" y="607.6875"/><rect fill="#FFFFFF" height="58.2656" style="stroke:#181818;stroke-width:1.0;" width="10" x="1181.5" y="287.2266"/><rect fill="#FFFFFF" height="58.2656" style="stroke:#181818;stroke-width:1.0;" width="10" x="1181.5" y="462.0234"/><rect fill="#FFFFFF" height="597.6563" style="stroke:#181818;stroke-width:1.0;" width="10" x="1181.5" y="636.8203"/><rect fill="#FFFFFF" height="29.1328" style="stroke:#181818;stroke-width:1.0;" width="10" x="1532.5" y="491.1563"/><rect fill="#FFFFFF" height="567.5234" style="stroke:#181818;stroke-width:1.0;" width="10" x="1532.5" y="665.9531"/><rect fill="#FFFFFF" height="29.1328" style="stroke:#181818;stroke-width:1.0;" width="10" x="1646" y="316.3594"/><rect fill="#FFFFFF" height="448.9922" style="stroke:#181818;stroke-width:1.0;" width="10" x="1755.5" y="784.4844"/><rect fill="#FFFFFF" height="1142.1797" style="stroke:#181818;stroke-width:1.0;" width="10" x="1864" y="91.2969"/><rect fill="none" height="46.2656" style="stroke:#000000;stroke-width:1.5;" width="471.5" x="1122.5" y="710.0859"/><rect fill="none" height="339.5938" style="stroke:#000000;stroke-width:1.5;" width="1584" x="10" y="886.8828"/><line style="stroke:#181818;stroke-width:0.5;stroke-dasharray:5.0,5.0;" x1="46" x2="46" y1="81.2969" y2="1243.4766"/><line style="stroke:#181818;stroke-width:0.5;stroke-dasharray:5.0,5.0;" x1="254.5" x2="254.5" y1="81.2969" y2="1243.4766"/><line style="stroke:#181818;stroke-width:0.5;stroke-dasharray:5.0,5.0;" x1="381.5" x2="381.5" y1="81.2969" y2="1243.4766"/><line style="stroke:#181818;stroke-width:0.5;stroke-dasharray:5.0,5.0;" x1="532" x2="532" y1="81.2969" y2="1243.4766"/><line style="stroke:#181818;stroke-width:0.5;stroke-dasharray:5.0,5.0;" x1="684" x2="684" y1="81.2969" y2="1243.4766"/><line style="stroke:#181818;stroke-width:0.5;stroke-dasharray:5.0,5.0;" x1="813" x2="813" y1="81.2969" y2="1243.4766"/><line style="stroke:#181818;stroke-width:0.5;stroke-dasharray:5.0,5.0;" x1="981.5" x2="981.5" y1="81.2969" y2="1243.4766"/><line style="stroke:#181818;stroke-width:0.5;stroke-dasharray:5.0,5.0;" x1="1186.5" x2="1186.5" y1="81.2969" y2="1243.4766"/><line style="stroke:#181818;stroke-width:0.5;stroke-dasharray:5.0,5.0;" x1="1537" x2="1537" y1="81.2969" y2="1243.4766"/><line style="stroke:#181818;stroke-width:0.5;stroke-dasharray:5.0,5.0;" x1="1651" x2="1651" y1="81.2969" y2="1243.4766"/><line style="stroke:#181818;stroke-width:0.5;stroke-dasharray:5.0,5.0;" x1="1760" x2="1760" y1="81.2969" y2="1243.4766"/><line style="stroke:#181818;stroke-width:0.5;stroke-dasharray:5.0,5.0;" x1="1869" x2="1869" y1="81.2969" y2="1243.4766"/><text fill="#000000" font-family="sans-serif" font-size="14" lengthAdjust="spacing" textLength="46" x="20" y="77.9951">Admin</text><ellipse cx="46" cy="13.5" fill="#E2E2F0" rx="8" ry="8" style="stroke:#181818;stroke-width:0.5;"/><path d="M46,21.5 L46,48.5 M33,29.5 L59,29.5 M46,48.5 L33,63.5 M46,48.5 L59,63.5 " fill="none" style="stroke:#181818;stroke-width:0.5;"/><text fill="#000000" font-family="sans-serif" font-size="14" lengthAdjust="spacing" textLength="46" x="20" y="1255.4717">Admin</text><ellipse cx="46" cy="1267.2734" fill="#E2E2F0" rx="8" ry="8" style="stroke:#181818;stroke-width:0.5;"/><path d="M46,1275.2734 L46,1302.2734 M33,1283.2734 L59,1283.2734 M46,1302.2734 L33,1317.2734 M46,1302.2734 L59,1317.2734 " fill="none" style="stroke:#181818;stroke-width:0.5;"/><rect fill="#E2E2F0" height="30.2969" rx="2.5" ry="2.5" style="stroke:#181818;stroke-width:0.5;" width="53" x="228.5" y="50"/><text fill="#000000" font-family="sans-serif" font-size="14" lengthAdjust="spacing" textLength="39" x="235.5" y="69.9951">:View</text><rect fill="#E2E2F0" height="30.2969" rx="2.5" ry="2.5" style="stroke:#181818;stroke-width:0.5;" width="53" x="228.5" y="1242.4766"/><text fill="#000000" font-family="sans-serif" font-size="14" lengthAdjust="spacing" textLength="39" x="235.5" y="1262.4717">:View</text><rect fill="#E2E2F0" height="30.2969" rx="2.5" ry="2.5" style="stroke:#181818;stroke-width:0.5;" width="129" x="317.5" y="50"/><text fill="#000000" font-family="sans-serif" font-size="14" lengthAdjust="spacing" textLength="115" x="324.5" y="69.9951">:FE_Component</text><rect fill="#E2E2F0" height="30.2969" rx="2.5" ry="2.5" style="stroke:#181818;stroke-width:0.5;" width="129" x="317.5" y="1242.4766"/><text fill="#000000" font-family="sans-serif" font-size="14" lengthAdjust="spacing" textLength="115" x="324.5" y="1262.4717">:FE_Component</text><rect fill="#E2E2F0" height="30.2969" rx="2.5" ry="2.5" style="stroke:#181818;stroke-width:0.5;" width="132" x="466" y="50"/><text fill="#000000" font-family="sans-serif" font-size="14" lengthAdjust="spacing" textLength="118" x="473" y="69.9951">:FE_FloorService</text><rect fill="#E2E2F0" height="30.2969" rx="2.5" ry="2.5" style="stroke:#181818;stroke-width:0.5;" width="132" x="466" y="1242.4766"/><text fill="#000000" font-family="sans-serif" font-size="14" lengthAdjust="spacing" textLength="118" x="473" y="1262.4717">:FE_FloorService</text><rect fill="#E2E2F0" height="30.2969" rx="2.5" ry="2.5" style="stroke:#181818;stroke-width:0.5;" width="153" x="608" y="50"/><text fill="#000000" font-family="sans-serif" font-size="14" lengthAdjust="spacing" textLength="139" x="615" y="69.9951">:FE_BuildingService</text><rect fill="#E2E2F0" height="30.2969" rx="2.5" ry="2.5" style="stroke:#181818;stroke-width:0.5;" width="153" x="608" y="1242.4766"/><text fill="#000000" font-family="sans-serif" font-size="14" lengthAdjust="spacing" textLength="139" x="615" y="1262.4717">:FE_BuildingService</text><rect fill="#E2E2F0" height="30.2969" rx="2.5" ry="2.5" style="stroke:#181818;stroke-width:0.5;" width="75" x="776" y="50"/><text fill="#000000" font-family="sans-serif" font-size="14" lengthAdjust="spacing" textLength="61" x="783" y="69.9951">:Routing</text><rect fill="#E2E2F0" height="30.2969" rx="2.5" ry="2.5" style="stroke:#181818;stroke-width:0.5;" width="75" x="776" y="1242.4766"/><text fill="#000000" font-family="sans-serif" font-size="14" lengthAdjust="spacing" textLength="61" x="783" y="1262.4717">:Routing</text><rect fill="#E2E2F0" height="30.2969" rx="2.5" ry="2.5" style="stroke:#181818;stroke-width:0.5;" width="128" x="917.5" y="50"/><text fill="#000000" font-family="sans-serif" font-size="14" lengthAdjust="spacing" textLength="114" x="924.5" y="69.9951">:FloorController</text><rect fill="#E2E2F0" height="30.2969" rx="2.5" ry="2.5" style="stroke:#181818;stroke-width:0.5;" width="128" x="917.5" y="1242.4766"/><text fill="#000000" font-family="sans-serif" font-size="14" lengthAdjust="spacing" textLength="114" x="924.5" y="1262.4717">:FloorController</text><rect fill="#E2E2F0" height="30.2969" rx="2.5" ry="2.5" style="stroke:#181818;stroke-width:0.5;" width="108" x="1132.5" y="50"/><text fill="#000000" font-family="sans-serif" font-size="14" lengthAdjust="spacing" textLength="94" x="1139.5" y="69.9951">:FloorService</text><rect fill="#E2E2F0" height="30.2969" rx="2.5" ry="2.5" style="stroke:#181818;stroke-width:0.5;" width="108" x="1132.5" y="1242.4766"/><text fill="#000000" font-family="sans-serif" font-size="14" lengthAdjust="spacing" textLength="94" x="1139.5" y="1262.4717">:FloorService</text><rect fill="#E2E2F0" height="30.2969" rx="2.5" ry="2.5" style="stroke:#181818;stroke-width:0.5;" width="93" x="1491" y="50"/><text fill="#000000" font-family="sans-serif" font-size="14" lengthAdjust="spacing" textLength="79" x="1498" y="69.9951">:FloorRepo</text><rect fill="#E2E2F0" height="30.2969" rx="2.5" ry="2.5" style="stroke:#181818;stroke-width:0.5;" width="93" x="1491" y="1242.4766"/><text fill="#000000" font-family="sans-serif" font-size="14" lengthAdjust="spacing" textLength="79" x="1498" y="1262.4717">:FloorRepo</text><rect fill="#E2E2F0" height="30.2969" rx="2.5" ry="2.5" style="stroke:#181818;stroke-width:0.5;" width="114" x="1594" y="50"/><text fill="#000000" font-family="sans-serif" font-size="14" lengthAdjust="spacing" textLength="100" x="1601" y="69.9951">:BuildingRepo</text><rect fill="#E2E2F0" height="30.2969" rx="2.5" ry="2.5" style="stroke:#181818;stroke-width:0.5;" width="114" x="1594" y="1242.4766"/><text fill="#000000" font-family="sans-serif" font-size="14" lengthAdjust="spacing" textLength="100" x="1601" y="1262.4717">:BuildingRepo</text><rect fill="#E2E2F0" height="30.2969" rx="2.5" ry="2.5" style="stroke:#181818;stroke-width:0.5;" width="85" x="1718" y="50"/><text fill="#000000" font-family="sans-serif" font-size="14" lengthAdjust="spacing" textLength="71" x="1725" y="69.9951">:FloorMap</text><rect fill="#E2E2F0" height="30.2969" rx="2.5" ry="2.5" style="stroke:#181818;stroke-width:0.5;" width="85" x="1718" y="1242.4766"/><text fill="#000000" font-family="sans-serif" font-size="14" lengthAdjust="spacing" textLength="71" x="1725" y="1262.4717">:FloorMap</text><rect fill="#E2E2F0" height="30.2969" rx="2.5" ry="2.5" style="stroke:#181818;stroke-width:0.5;" width="112" x="1813" y="50"/><text fill="#000000" font-family="sans-serif" font-size="14" lengthAdjust="spacing" textLength="98" x="1820" y="69.9951">:FloorSchema</text><rect fill="#E2E2F0" height="30.2969" rx="2.5" ry="2.5" style="stroke:#181818;stroke-width:0.5;" width="112" x="1813" y="1242.4766"/><text fill="#000000" font-family="sans-serif" font-size="14" lengthAdjust="spacing" textLength="98" x="1820" y="1262.4717">:FloorSchema</text><rect fill="#FFFFFF" height="1142.1797" style="stroke:#181818;stroke-width:1.0;" width="10" x="41" y="91.2969"/><rect fill="#FFFFFF" height="1121.0469" style="stroke:#181818;stroke-width:1.0;" width="10" x="250" y="112.4297"/><rect fill="#FFFFFF" height="1062.7813" style="stroke:#181818;stroke-width:1.0;" width="10" x="377" y="170.6953"/><rect fill="#FFFFFF" height="145.6641" style="stroke:#181818;stroke-width:1.0;" width="10" x="527" y="374.625"/><rect fill="#FFFFFF" height="684.0547" style="stroke:#181818;stroke-width:1.0;" width="10" x="527" y="549.4219"/><rect fill="#FFFFFF" height="145.6641" style="stroke:#181818;stroke-width:1.0;" width="10" x="679.5" y="199.8281"/><rect fill="#FFFFFF" height="116.5313" style="stroke:#181818;stroke-width:1.0;" width="10" x="808.5" y="228.9609"/><rect fill="#FFFFFF" height="116.5313" style="stroke:#181818;stroke-width:1.0;" width="10" x="808.5" y="403.7578"/><rect fill="#FFFFFF" height="654.9219" style="stroke:#181818;stroke-width:1.0;" width="10" x="808.5" y="578.5547"/><rect fill="#FFFFFF" height="87.3984" style="stroke:#181818;stroke-width:1.0;" width="10" x="976.5" y="258.0938"/><rect fill="#FFFFFF" height="87.3984" style="stroke:#181818;stroke-width:1.0;" width="10" x="976.5" y="432.8906"/><rect fill="#FFFFFF" height="625.7891" style="stroke:#181818;stroke-width:1.0;" width="10" x="976.5" y="607.6875"/><rect fill="#FFFFFF" height="58.2656" style="stroke:#181818;stroke-width:1.0;" width="10" x="1181.5" y="287.2266"/><rect fill="#FFFFFF" height="58.2656" style="stroke:#181818;stroke-width:1.0;" width="10" x="1181.5" y="462.0234"/><rect fill="#FFFFFF" height="597.6563" style="stroke:#181818;stroke-width:1.0;" width="10" x="1181.5" y="636.8203"/><rect fill="#FFFFFF" height="29.1328" style="stroke:#181818;stroke-width:1.0;" width="10" x="1532.5" y="491.1563"/><rect fill="#FFFFFF" height="567.5234" style="stroke:#181818;stroke-width:1.0;" width="10" x="1532.5" y="665.9531"/><rect fill="#FFFFFF" height="29.1328" style="stroke:#181818;stroke-width:1.0;" width="10" x="1646" y="316.3594"/><rect fill="#FFFFFF" height="448.9922" style="stroke:#181818;stroke-width:1.0;" width="10" x="1755.5" y="784.4844"/><rect fill="#FFFFFF" height="1142.1797" style="stroke:#181818;stroke-width:1.0;" width="10" x="1864" y="91.2969"/><polygon fill="#181818" points="238,108.4297,248,112.4297,238,116.4297,242,112.4297" style="stroke:#181818;stroke-width:1.0;"/><line style="stroke:#181818;stroke-width:1.0;" x1="51" x2="244" y1="112.4297" y2="112.4297"/><text fill="#000000" font-family="sans-serif" font-size="13" font-weight="bold" lengthAdjust="spacing" textLength="9" x="58" y="107.3638">1</text><text fill="#000000" font-family="sans-serif" font-size="13" lengthAdjust="spacing" textLength="165" x="71" y="107.3638">wants to introduce a floor</text><polygon fill="#181818" points="62,137.5625,52,141.5625,62,145.5625,58,141.5625" style="stroke:#181818;stroke-width:1.0;"/><line style="stroke:#181818;stroke-width:1.0;stroke-dasharray:2.0,2.0;" x1="56" x2="249" y1="141.5625" y2="141.5625"/><text fill="#000000" font-family="sans-serif" font-size="13" font-weight="bold" lengthAdjust="spacing" textLength="9" x="68" y="136.4966">2</text><text fill="#000000" font-family="sans-serif" font-size="13" lengthAdjust="spacing" textLength="162" x="81" y="136.4966">request necessary data()</text><polygon fill="#181818" points="238,166.6953,248,170.6953,238,174.6953,242,170.6953" style="stroke:#181818;stroke-width:1.0;"/><line style="stroke:#181818;stroke-width:1.0;" x1="51" x2="244" y1="170.6953" y2="170.6953"/><text fill="#000000" font-family="sans-serif" font-size="13" font-weight="bold" lengthAdjust="spacing" textLength="8" x="58" y="165.6294">3</text><text fill="#000000" font-family="sans-serif" font-size="13" lengthAdjust="spacing" textLength="112" x="70" y="165.6294">insert all the data</text><polygon fill="#181818" points="365,195.8281,375,199.8281,365,203.8281,369,199.8281" style="stroke:#181818;stroke-width:1.0;"/><line style="stroke:#181818;stroke-width:1.0;" x1="260" x2="371" y1="199.8281" y2="199.8281"/><text fill="#000000" font-family="sans-serif" font-size="13" font-weight="bold" lengthAdjust="spacing" textLength="9" x="267" y="194.7622">4</text><text fill="#000000" font-family="sans-serif" font-size="13" lengthAdjust="spacing" textLength="80" x="280" y="194.7622">getBuilding()</text><polygon fill="#181818" points="667.5,224.9609,677.5,228.9609,667.5,232.9609,671.5,228.9609" style="stroke:#181818;stroke-width:1.0;"/><line style="stroke:#181818;stroke-width:1.0;" x1="387" x2="673.5" y1="228.9609" y2="228.9609"/><text fill="#000000" font-family="sans-serif" font-size="13" font-weight="bold" lengthAdjust="spacing" textLength="9" x="394" y="223.895">5</text><text fill="#000000" font-family="sans-serif" font-size="13" lengthAdjust="spacing" textLength="87" x="407" y="223.895">getBuildings()</text><polygon fill="#181818" points="796.5,254.0938,806.5,258.0938,796.5,262.0938,800.5,258.0938" style="stroke:#181818;stroke-width:1.0;"/><line style="stroke:#181818;stroke-width:1.0;" x1="689.5" x2="802.5" y1="258.0938" y2="258.0938"/><text fill="#000000" font-family="sans-serif" font-size="13" font-weight="bold" lengthAdjust="spacing" textLength="9" x="696.5" y="253.0278">6</text><text fill="#000000" font-family="sans-serif" font-size="13" lengthAdjust="spacing" textLength="82" x="709.5" y="253.0278">GET route{}</text><polygon fill="#181818" points="964.5,283.2266,974.5,287.2266,964.5,291.2266,968.5,287.2266" style="stroke:#181818;stroke-width:1.0;"/><line style="stroke:#181818;stroke-width:1.0;" x1="818.5" x2="970.5" y1="287.2266" y2="287.2266"/><text fill="#000000" font-family="sans-serif" font-size="13" font-weight="bold" lengthAdjust="spacing" textLength="9" x="825.5" y="282.1606">7</text><text fill="#000000" font-family="sans-serif" font-size="13" lengthAdjust="spacing" textLength="49" x="838.5" y="282.1606">findAll()</text><polygon fill="#181818" points="1169.5,312.3594,1179.5,316.3594,1169.5,320.3594,1173.5,316.3594" style="stroke:#181818;stroke-width:1.0;"/><line style="stroke:#181818;stroke-width:1.0;" x1="986.5" x2="1175.5" y1="316.3594" y2="316.3594"/><text fill="#000000" font-family="sans-serif" font-size="13" font-weight="bold" lengthAdjust="spacing" textLength="9" x="993.5" y="311.2935">8</text><text fill="#000000" font-family="sans-serif" font-size="13" lengthAdjust="spacing" textLength="49" x="1006.5" y="311.2935">findAll()</text><polygon fill="#181818" points="1639,341.4922,1649,345.4922,1639,349.4922,1643,345.4922" style="stroke:#181818;stroke-width:1.0;"/><line style="stroke:#181818;stroke-width:1.0;" x1="1186.5" x2="1645" y1="345.4922" y2="345.4922"/><text fill="#000000" font-family="sans-serif" font-size="13" font-weight="bold" lengthAdjust="spacing" textLength="9" x="1193.5" y="340.4263">9</text><text fill="#000000" font-family="sans-serif" font-size="13" lengthAdjust="spacing" textLength="49" x="1206.5" y="340.4263">findAll()</text><polygon fill="#181818" points="365,370.625,375,374.625,365,378.625,369,374.625" style="stroke:#181818;stroke-width:1.0;"/><line style="stroke:#181818;stroke-width:1.0;" x1="260" x2="371" y1="374.625" y2="374.625"/><text fill="#000000" font-family="sans-serif" font-size="13" font-weight="bold" lengthAdjust="spacing" textLength="19" x="267" y="369.5591">10</text><text fill="#000000" font-family="sans-serif" font-size="13" lengthAdjust="spacing" textLength="69" x="290" y="369.5591">getFloors()</text><polygon fill="#181818" points="515,399.7578,525,403.7578,515,407.7578,519,403.7578" style="stroke:#181818;stroke-width:1.0;"/><line style="stroke:#181818;stroke-width:1.0;" x1="387" x2="521" y1="403.7578" y2="403.7578"/><text fill="#000000" font-family="sans-serif" font-size="13" font-weight="bold" lengthAdjust="spacing" textLength="18" x="394" y="398.6919">11</text><text fill="#000000" font-family="sans-serif" font-size="13" lengthAdjust="spacing" textLength="66" x="416" y="398.6919">listFloors()</text><polygon fill="#181818" points="796.5,428.8906,806.5,432.8906,796.5,436.8906,800.5,432.8906" style="stroke:#181818;stroke-width:1.0;"/><line style="stroke:#181818;stroke-width:1.0;" x1="537" x2="802.5" y1="432.8906" y2="432.8906"/><text fill="#000000" font-family="sans-serif" font-size="13" font-weight="bold" lengthAdjust="spacing" textLength="18" x="544" y="427.8247">12</text><text fill="#000000" font-family="sans-serif" font-size="13" lengthAdjust="spacing" textLength="82" x="566" y="427.8247">GET route{}</text><polygon fill="#181818" points="964.5,458.0234,974.5,462.0234,964.5,466.0234,968.5,462.0234" style="stroke:#181818;stroke-width:1.0;"/><line style="stroke:#181818;stroke-width:1.0;" x1="818.5" x2="970.5" y1="462.0234" y2="462.0234"/><text fill="#000000" font-family="sans-serif" font-size="13" font-weight="bold" lengthAdjust="spacing" textLength="17" x="825.5" y="456.9575">13</text><text fill="#000000" font-family="sans-serif" font-size="13" lengthAdjust="spacing" textLength="81" x="846.5" y="456.9575">listAllFloors()</text><polygon fill="#181818" points="1169.5,487.1563,1179.5,491.1563,1169.5,495.1563,1173.5,491.1563" style="stroke:#181818;stroke-width:1.0;"/><line style="stroke:#181818;stroke-width:1.0;" x1="986.5" x2="1175.5" y1="491.1563" y2="491.1563"/><text fill="#000000" font-family="sans-serif" font-size="13" font-weight="bold" lengthAdjust="spacing" textLength="18" x="993.5" y="486.0903">14</text><text fill="#000000" font-family="sans-serif" font-size="13" lengthAdjust="spacing" textLength="49" x="1015.5" y="486.0903">findAll()</text><polygon fill="#181818" points="1525.5,516.2891,1535.5,520.2891,1525.5,524.2891,1529.5,520.2891" style="stroke:#181818;stroke-width:1.0;"/><line style="stroke:#181818;stroke-width:1.0;" x1="1186.5" x2="1531.5" y1="520.2891" y2="520.2891"/><text fill="#000000" font-family="sans-serif" font-size="13" font-weight="bold" lengthAdjust="spacing" textLength="18" x="1193.5" y="515.2231">15</text><text fill="#000000" font-family="sans-serif" font-size="13" lengthAdjust="spacing" textLength="49" x="1215.5" y="515.2231">findAll()</text><polygon fill="#181818" points="365,545.4219,375,549.4219,365,553.4219,369,549.4219" style="stroke:#181818;stroke-width:1.0;"/><line style="stroke:#181818;stroke-width:1.0;" x1="260" x2="371" y1="549.4219" y2="549.4219"/><text fill="#000000" font-family="sans-serif" font-size="13" font-weight="bold" lengthAdjust="spacing" textLength="18" x="267" y="544.356">16</text><text fill="#000000" font-family="sans-serif" font-size="13" lengthAdjust="spacing" textLength="65" x="289" y="544.356">editFloor()</text><polygon fill="#181818" points="515,574.5547,525,578.5547,515,582.5547,519,578.5547" style="stroke:#181818;stroke-width:1.0;"/><line style="stroke:#181818;stroke-width:1.0;" x1="387" x2="521" y1="578.5547" y2="578.5547"/><text fill="#000000" font-family="sans-serif" font-size="13" font-weight="bold" lengthAdjust="spacing" textLength="18" x="394" y="573.4888">17</text><text fill="#000000" font-family="sans-serif" font-size="13" lengthAdjust="spacing" textLength="94" x="416" y="573.4888">editFloor(floor)</text><polygon fill="#181818" points="796.5,603.6875,806.5,607.6875,796.5,611.6875,800.5,607.6875" style="stroke:#181818;stroke-width:1.0;"/><line style="stroke:#181818;stroke-width:1.0;" x1="537" x2="802.5" y1="607.6875" y2="607.6875"/><text fill="#000000" font-family="sans-serif" font-size="13" font-weight="bold" lengthAdjust="spacing" textLength="18" x="544" y="602.6216">18</text><text fill="#000000" font-family="sans-serif" font-size="13" lengthAdjust="spacing" textLength="116" x="566" y="602.6216">POST route{json}</text><polygon fill="#181818" points="964.5,632.8203,974.5,636.8203,964.5,640.8203,968.5,636.8203" style="stroke:#181818;stroke-width:1.0;"/><line style="stroke:#181818;stroke-width:1.0;" x1="818.5" x2="970.5" y1="636.8203" y2="636.8203"/><text fill="#000000" font-family="sans-serif" font-size="13" font-weight="bold" lengthAdjust="spacing" textLength="18" x="825.5" y="631.7544">19</text><text fill="#000000" font-family="sans-serif" font-size="13" lengthAdjust="spacing" textLength="112" x="847.5" y="631.7544">updateFloor(json)</text><polygon fill="#181818" points="1169.5,661.9531,1179.5,665.9531,1169.5,669.9531,1173.5,665.9531" style="stroke:#181818;stroke-width:1.0;"/><line style="stroke:#181818;stroke-width:1.0;" x1="986.5" x2="1175.5" y1="665.9531" y2="665.9531"/><text fill="#000000" font-family="sans-serif" font-size="13" font-weight="bold" lengthAdjust="spacing" textLength="19" x="993.5" y="660.8872">20</text><text fill="#000000" font-family="sans-serif" font-size="13" lengthAdjust="spacing" textLength="148" x="1016.5" y="660.8872">updateFloor(IFloorDTO)</text><polygon fill="#181818" points="1520.5,691.0859,1530.5,695.0859,1520.5,699.0859,1524.5,695.0859" style="stroke:#181818;stroke-width:1.0;"/><line style="stroke:#181818;stroke-width:1.0;" x1="1191.5" x2="1526.5" y1="695.0859" y2="695.0859"/><text fill="#000000" font-family="sans-serif" font-size="13" font-weight="bold" lengthAdjust="spacing" textLength="18" x="1198.5" y="690.02">21</text><text fill="#000000" font-family="sans-serif" font-size="13" lengthAdjust="spacing" textLength="105" x="1220.5" y="690.02">findById(floor.id)</text><path d="M1122.5,710.0859 L1200.5,710.0859 L1200.5,717.2188 L1190.5,727.2188 L1122.5,727.2188 L1122.5,710.0859 " fill="#EEEEEE" style="stroke:#000000;stroke-width:1.5;"/><rect fill="none" height="46.2656" style="stroke:#000000;stroke-width:1.5;" width="471.5" x="1122.5" y="710.0859"/><text fill="#000000" font-family="sans-serif" font-size="13" font-weight="bold" lengthAdjust="spacing" textLength="33" x="1137.5" y="723.1528">loop</text><text fill="#000000" font-family="sans-serif" font-size="11" font-weight="bold" lengthAdjust="spacing" textLength="91" x="1215.5" y="722.2964">[all passages]</text><polygon fill="#181818" points="1520.5,744.3516,1530.5,748.3516,1520.5,752.3516,1524.5,748.3516" style="stroke:#181818;stroke-width:1.0;"/><line style="stroke:#181818;stroke-width:1.0;" x1="1191.5" x2="1526.5" y1="748.3516" y2="748.3516"/><text fill="#000000" font-family="sans-serif" font-size="13" font-weight="bold" lengthAdjust="spacing" textLength="18" x="1198.5" y="743.2856">22</text><text fill="#000000" font-family="sans-serif" font-size="13" lengthAdjust="spacing" textLength="170" x="1220.5" y="743.2856">findById(floor.passages.id)</text><polygon fill="#181818" points="1520.5,780.4844,1530.5,784.4844,1520.5,788.4844,1524.5,784.4844" style="stroke:#181818;stroke-width:1.0;"/><line style="stroke:#181818;stroke-width:1.0;" x1="1191.5" x2="1526.5" y1="784.4844" y2="784.4844"/><text fill="#000000" font-family="sans-serif" font-size="13" font-weight="bold" lengthAdjust="spacing" textLength="17" x="1198.5" y="779.4185">23</text><text fill="#000000" font-family="sans-serif" font-size="13" lengthAdjust="spacing" textLength="70" x="1219.5" y="779.4185">save(floor)</text><polygon fill="#181818" points="1743.5,809.6172,1753.5,813.6172,1743.5,817.6172,1747.5,813.6172" style="stroke:#181818;stroke-width:1.0;"/><line style="stroke:#181818;stroke-width:1.0;" x1="1542.5" x2="1749.5" y1="813.6172" y2="813.6172"/><text fill="#000000" font-family="sans-serif" font-size="13" font-weight="bold" lengthAdjust="spacing" textLength="18" x="1549.5" y="808.5513">24</text><text fill="#000000" font-family="sans-serif" font-size="13" lengthAdjust="spacing" textLength="126" x="1571.5" y="808.5513">toPersistance(floor)</text><polygon fill="#181818" points="1852,838.75,1862,842.75,1852,846.75,1856,842.75" style="stroke:#181818;stroke-width:1.0;"/><line style="stroke:#181818;stroke-width:1.0;" x1="1542.5" x2="1858" y1="842.75" y2="842.75"/><text fill="#000000" font-family="sans-serif" font-size="13" font-weight="bold" lengthAdjust="spacing" textLength="18" x="1549.5" y="837.6841">25</text><text fill="#000000" font-family="sans-serif" font-size="13" lengthAdjust="spacing" textLength="80" x="1571.5" y="837.6841">create(floor)</text><polygon fill="#181818" points="1202.5,867.8828,1192.5,871.8828,1202.5,875.8828,1198.5,871.8828" style="stroke:#181818;stroke-width:1.0;"/><line style="stroke:#181818;stroke-width:1.0;stroke-dasharray:2.0,2.0;" x1="1196.5" x2="1531.5" y1="871.8828" y2="871.8828"/><text fill="#000000" font-family="sans-serif" font-size="13" font-weight="bold" lengthAdjust="spacing" textLength="18" x="1208.5" y="866.8169">26</text><text fill="#000000" font-family="sans-serif" font-size="13" lengthAdjust="spacing" textLength="29" x="1230.5" y="866.8169">floor</text><path d="M10,886.8828 L76,886.8828 L76,894.0156 L66,904.0156 L10,904.0156 L10,886.8828 " fill="#EEEEEE" style="stroke:#000000;stroke-width:1.5;"/><rect fill="none" height="339.5938" style="stroke:#000000;stroke-width:1.5;" width="1584" x="10" y="886.8828"/><text fill="#000000" font-family="sans-serif" font-size="13" font-weight="bold" lengthAdjust="spacing" textLength="21" x="25" y="899.9497">alt</text><text fill="#000000" font-family="sans-serif" font-size="11" font-weight="bold" lengthAdjust="spacing" textLength="136" x="91" y="899.0933">[saved with success]</text><polygon fill="#181818" points="829.5,921.1484,819.5,925.1484,829.5,929.1484,825.5,925.1484" style="stroke:#181818;stroke-width:1.0;"/><line style="stroke:#181818;stroke-width:1.0;stroke-dasharray:2.0,2.0;" x1="823.5" x2="975.5" y1="925.1484" y2="925.1484"/><text fill="#000000" font-family="sans-serif" font-size="13" font-weight="bold" lengthAdjust="spacing" textLength="18" x="835.5" y="920.0825">27</text><text fill="#000000" font-family="sans-serif" font-size="13" lengthAdjust="spacing" textLength="66" x="857.5" y="920.0825">HTTP: 201</text><polygon fill="#181818" points="548,950.2813,538,954.2813,548,958.2813,544,954.2813" style="stroke:#181818;stroke-width:1.0;"/><line style="stroke:#181818;stroke-width:1.0;stroke-dasharray:2.0,2.0;" x1="542" x2="807.5" y1="954.2813" y2="954.2813"/><text fill="#000000" font-family="sans-serif" font-size="13" font-weight="bold" lengthAdjust="spacing" textLength="18" x="554" y="949.2153">28</text><text fill="#000000" font-family="sans-serif" font-size="13" lengthAdjust="spacing" textLength="66" x="576" y="949.2153">HTTP: 201</text><polygon fill="#181818" points="398,979.4141,388,983.4141,398,987.4141,394,983.4141" style="stroke:#181818;stroke-width:1.0;"/><line style="stroke:#181818;stroke-width:1.0;stroke-dasharray:2.0,2.0;" x1="392" x2="526" y1="983.4141" y2="983.4141"/><text fill="#000000" font-family="sans-serif" font-size="13" font-weight="bold" lengthAdjust="spacing" textLength="18" x="404" y="978.3481">29</text><text fill="#000000" font-family="sans-serif" font-size="13" lengthAdjust="spacing" textLength="66" x="426" y="978.3481">HTTP: 201</text><polygon fill="#181818" points="271,1008.5469,261,1012.5469,271,1016.5469,267,1012.5469" style="stroke:#181818;stroke-width:1.0;"/><line style="stroke:#181818;stroke-width:1.0;stroke-dasharray:2.0,2.0;" x1="265" x2="376" y1="1012.5469" y2="1012.5469"/><text fill="#000000" font-family="sans-serif" font-size="13" font-weight="bold" lengthAdjust="spacing" textLength="18" x="277" y="1007.481">30</text><text fill="#000000" font-family="sans-serif" font-size="13" lengthAdjust="spacing" textLength="66" x="299" y="1007.481">HTTP: 201</text><polygon fill="#181818" points="62,1037.6797,52,1041.6797,62,1045.6797,58,1041.6797" style="stroke:#181818;stroke-width:1.0;"/><line style="stroke:#181818;stroke-width:1.0;stroke-dasharray:2.0,2.0;" x1="56" x2="249" y1="1041.6797" y2="1041.6797"/><text fill="#000000" font-family="sans-serif" font-size="13" font-weight="bold" lengthAdjust="spacing" textLength="17" x="68" y="1036.6138">31</text><text fill="#000000" font-family="sans-serif" font-size="13" lengthAdjust="spacing" textLength="152" x="89" y="1036.6138">show success message</text><line style="stroke:#000000;stroke-width:1.0;stroke-dasharray:2.0,2.0;" x1="10" x2="1594" y1="1050.6797" y2="1050.6797"/><polygon fill="#181818" points="1202.5,1068.8125,1192.5,1072.8125,1202.5,1076.8125,1198.5,1072.8125" style="stroke:#181818;stroke-width:1.0;"/><line style="stroke:#181818;stroke-width:1.0;stroke-dasharray:2.0,2.0;" x1="1196.5" x2="1531.5" y1="1072.8125" y2="1072.8125"/><text fill="#000000" font-family="sans-serif" font-size="13" font-weight="bold" lengthAdjust="spacing" textLength="17" x="1208.5" y="1067.7466">32</text><text fill="#000000" font-family="sans-serif" font-size="13" lengthAdjust="spacing" textLength="296" x="1229.5" y="1067.7466">Error(nickname or serialNumber already exist)</text><polygon fill="#181818" points="829.5,1097.9453,819.5,1101.9453,829.5,1105.9453,825.5,1101.9453" style="stroke:#181818;stroke-width:1.0;"/><line style="stroke:#181818;stroke-width:1.0;stroke-dasharray:2.0,2.0;" x1="823.5" x2="975.5" y1="1101.9453" y2="1101.9453"/><text fill="#000000" font-family="sans-serif" font-size="13" font-weight="bold" lengthAdjust="spacing" textLength="16" x="835.5" y="1096.8794">33</text><text fill="#000000" font-family="sans-serif" font-size="13" lengthAdjust="spacing" textLength="66" x="855.5" y="1096.8794">HTTP: 400</text><polygon fill="#181818" points="548,1127.0781,538,1131.0781,548,1135.0781,544,1131.0781" style="stroke:#181818;stroke-width:1.0;"/><line style="stroke:#181818;stroke-width:1.0;stroke-dasharray:2.0,2.0;" x1="542" x2="807.5" y1="1131.0781" y2="1131.0781"/><text fill="#000000" font-family="sans-serif" font-size="13" font-weight="bold" lengthAdjust="spacing" textLength="17" x="554" y="1126.0122">34</text><text fill="#000000" font-family="sans-serif" font-size="13" lengthAdjust="spacing" textLength="66" x="575" y="1126.0122">HTTP: 400</text><polygon fill="#181818" points="398,1156.2109,388,1160.2109,398,1164.2109,394,1160.2109" style="stroke:#181818;stroke-width:1.0;"/><line style="stroke:#181818;stroke-width:1.0;stroke-dasharray:2.0,2.0;" x1="392" x2="526" y1="1160.2109" y2="1160.2109"/><text fill="#000000" font-family="sans-serif" font-size="13" font-weight="bold" lengthAdjust="spacing" textLength="17" x="404" y="1155.145">35</text><text fill="#000000" font-family="sans-serif" font-size="13" lengthAdjust="spacing" textLength="66" x="425" y="1155.145">HTTP: 400</text><polygon fill="#181818" points="271,1185.3438,261,1189.3438,271,1193.3438,267,1189.3438" style="stroke:#181818;stroke-width:1.0;"/><line style="stroke:#181818;stroke-width:1.0;stroke-dasharray:2.0,2.0;" x1="265" x2="376" y1="1189.3438" y2="1189.3438"/><text fill="#000000" font-family="sans-serif" font-size="13" font-weight="bold" lengthAdjust="spacing" textLength="17" x="277" y="1184.2778">36</text><text fill="#000000" font-family="sans-serif" font-size="13" lengthAdjust="spacing" textLength="66" x="298" y="1184.2778">HTTP: 400</text><polygon fill="#181818" points="62,1214.4766,52,1218.4766,62,1222.4766,58,1218.4766" style="stroke:#181818;stroke-width:1.0;"/><line style="stroke:#181818;stroke-width:1.0;stroke-dasharray:2.0,2.0;" x1="56" x2="249" y1="1218.4766" y2="1218.4766"/><text fill="#000000" font-family="sans-serif" font-size="13" font-weight="bold" lengthAdjust="spacing" textLength="17" x="68" y="1213.4106">37</text><text fill="#000000" font-family="sans-serif" font-size="13" lengthAdjust="spacing" textLength="141" x="89" y="1213.4106">show failure message</text><!--SRC=[hLNVRnCn37w_lyBQ2_HXQ22Uxc7IDZhO0wpQAbwdxEAkWJGvabox2l6_upZDUh_MJOXArSNnPyV-x3YY2TOqgtjqnPkbaWWBQyEzVIn45Qo3epEvKkO8X0SHLqLH2nTKfMfX0XoLtnLkMEktlgUwdDvTs5Lj3Ph0a8ga8UPIM-jkqQrLXGoxd7gtheR0yqPfgSn35ti-0hwnJI0W8nojiUyi7dbXJN1MQtGfkE3q6AnzsbXS4NE3jKs7qQ87o55tCFCnBrz5dG21LgEXL4jSYHqc2KKiargBWBay_87ZqrYG4ZPaxY5OK35PsLI4WqLqjZUCbQC_79CHMvSKuwy6VG235Nelt1Qa2EBjfECTIlBgqGKGMaDO8eFsVhdSoVCf2sJmW24J4hrbQ2uZemYzaxi6lcsHoffnPC8R9NoUpjFozvzM9B6slCkXa5J2GXbvfdNRPmg1j9mW2QEeLB-dOwFKnaaSPDNQIc6tDZYqbZmmuDD6QEIEy5qIUnpkADJAZw0pWV_AN_HA6GyTlvx53edFSlXVAEmJY58bJbv3u1xCD-Tb4cVNjvd57zwQ5vXiQhetc0w8yCDSjj5N_FaqltwPsFFjbKpXlrDoKj2YvcjR2xhV3-WBeDz1iunaUpIoTMGUHbrxBzOuP8o7MmGmC4ebpQSPEayD9KprPBB79EybL0x9HLU_xp4UQZJ_TE2J9MnKM89lgZZ2EBr4P2uJ5VRBV3uhuSF9UrRlol9K-Ru-btdNHNrrQfiyUBkwtdZrIxl9aS4AcTS2jSSKHpUngNDKQgEgdqQi4EXDffchXFx6ZpOLaLYHMy17uczoAC-F9oS7yypwP_BCwh4yisuipuLGkd6upvDQftCzS_TqzcANzE_mWJi_60h3kS7FKNjCqBFN4Zdalm00]--></g></svg>