<?xml version="1.0" encoding="UTF-8" standalone="no"?><svg xmlns="http://www.w3.org/2000/svg" xmlns:xlink="http://www.w3.org/1999/xlink" contentStyleType="text/css" height="1152px" preserveAspectRatio="none" style="width:1107px;height:1152px;background:#FFFFFF;" version="1.1" viewBox="0 0 1107 1152" width="1107px" zoomAndPan="magnify"><defs/><g><!--MD5=[c3c65af69787c9548d8258e3b57a042b]
cluster Front-End Application--><g id="cluster_Front-End Application"><path d="M8.5,6 L161.5,6 A3.75,3.75 0 0 1 164,8.5 L171,29.6094 L581.5,29.6094 A2.5,2.5 0 0 1 584,32.1094 L584,554.5 A2.5,2.5 0 0 1 581.5,557 L8.5,557 A2.5,2.5 0 0 1 6,554.5 L6,8.5 A2.5,2.5 0 0 1 8.5,6 " fill="none" style="stroke:#000000;stroke-width:1.5;"/><line style="stroke:#000000;stroke-width:1.5;" x1="6" x2="171" y1="29.6094" y2="29.6094"/><text fill="#000000" font-family="sans-serif" font-size="14" font-weight="bold" lengthAdjust="spacing" textLength="152" x="10" y="22.5332">Front-End Application</text></g><!--MD5=[223cc52c6bab4d119dd1fde3f3de42b8]
cluster ASP NET Core C# Authentication Service--><g id="cluster_ASP NET Core C# Authentication Service"><path d="M417.5,607 L700.5,607 A3.75,3.75 0 0 1 703,609.5 L710,630.6094 L1097.5,630.6094 A2.5,2.5 0 0 1 1100,633.1094 L1100,935.5 A2.5,2.5 0 0 1 1097.5,938 L417.5,938 A2.5,2.5 0 0 1 415,935.5 L415,609.5 A2.5,2.5 0 0 1 417.5,607 " fill="none" style="stroke:#000000;stroke-width:1.5;"/><line style="stroke:#000000;stroke-width:1.5;" x1="415" x2="710" y1="630.6094" y2="630.6094"/><text fill="#000000" font-family="sans-serif" font-size="14" font-weight="bold" lengthAdjust="spacing" textLength="282" x="419" y="623.5332">ASP NET Core C# Authentication Service</text></g><!--MD5=[81f969dab4564ca3db46003287b47e09]
cluster Nodejs Backend Service--><g id="cluster_Nodejs Backend Service"><path d="M147.5,615.5 L320.5,615.5 A3.75,3.75 0 0 1 323,618 L330,639.1094 L388.5,639.1094 A2.5,2.5 0 0 1 391,641.6094 L391,918 A2.5,2.5 0 0 1 388.5,920.5 L147.5,920.5 A2.5,2.5 0 0 1 145,918 L145,618 A2.5,2.5 0 0 1 147.5,615.5 " fill="none" style="stroke:#000000;stroke-width:1.5;"/><line style="stroke:#000000;stroke-width:1.5;" x1="145" x2="330" y1="639.1094" y2="639.1094"/><text fill="#000000" font-family="sans-serif" font-size="14" font-weight="bold" lengthAdjust="spacing" textLength="172" x="149" y="632.0332">Nodejs Backend Service</text></g><!--MD5=[815249f79c2c08157ac02b3106e03757]
cluster Database--><g id="cluster_Database"><path d="M533,1006 C533,996 702,996 702,996 C702,996 871,996 871,1006 L871,1125 C871,1135 702,1135 702,1135 C702,1135 533,1135 533,1125 L533,1006 " fill="none" style="stroke:#181818;stroke-width:1.0;"/><path d="M533,1006 C533,1016 702,1016 702,1016 C702,1016 871,1016 871,1006 " fill="none" style="stroke:#181818;stroke-width:1.0;"/><text fill="#000000" font-family="sans-serif" font-size="14" font-weight="bold" lengthAdjust="spacing" textLength="65" x="669.5" y="1032.5332">Database</text></g><!--MD5=[e17b787d69906b3f274da0ab749c8979]
class ComponentA--><g id="elem_ComponentA"><rect codeLine="5" fill="#F1F1F1" height="65.6094" id="ComponentA" rx="2.5" ry="2.5" style="stroke:#181818;stroke-width:0.5;" width="145" x="385.5" y="331"/><ellipse cx="414.45" cy="347" fill="#ADD1B2" rx="11" ry="11" style="stroke:#181818;stroke-width:1.0;"/><path d="M417.2156,342.875 Q417.3719,342.6563 417.5594,342.5469 Q417.7469,342.4375 417.9656,342.4375 Q418.3406,342.4375 418.575,342.7031 Q418.8094,342.9531 418.8094,343.5625 L418.8094,345.0156 Q418.8094,345.625 418.575,345.8906 Q418.3406,346.1563 417.9656,346.1563 Q417.6219,346.1563 417.4188,345.9531 Q417.2156,345.7656 417.1063,345.25 Q417.0594,344.8906 416.8719,344.7031 Q416.5438,344.3281 415.9344,344.1094 Q415.325,343.8906 414.7,343.8906 Q413.9344,343.8906 413.2938,344.2188 Q412.6688,344.5469 412.1688,345.2969 Q411.6844,346.0469 411.6844,347.0781 L411.6844,348.1719 Q411.6844,349.4063 412.575,350.2344 Q413.4656,351.0469 415.0594,351.0469 Q415.9969,351.0469 416.6531,350.7969 Q417.0438,350.6406 417.4656,350.2031 Q417.7313,349.9375 417.8719,349.8594 Q418.0281,349.7813 418.2313,349.7813 Q418.5594,349.7813 418.8094,350.0469 Q419.075,350.2969 419.075,350.6406 Q419.075,350.9844 418.7313,351.3906 Q418.2313,351.9688 417.4344,352.2969 Q416.3563,352.75 415.0594,352.75 Q413.5438,352.75 412.3406,352.125 Q411.3563,351.625 410.6688,350.5625 Q409.9813,349.4844 409.9813,348.2031 L409.9813,347.0469 Q409.9813,345.7188 410.5906,344.5781 Q411.2156,343.4219 412.3094,342.8125 Q413.4031,342.1875 414.6375,342.1875 Q415.3719,342.1875 416.0125,342.3594 Q416.6688,342.5156 417.2156,342.875 Z " fill="#000000"/><text fill="#000000" font-family="sans-serif" font-size="14" lengthAdjust="spacing" textLength="82" x="431.55" y="352.7285">ComponentA</text><line style="stroke:#181818;stroke-width:0.5;" x1="386.5" x2="529.5" y1="363" y2="363"/><line style="stroke:#181818;stroke-width:0.5;" x1="386.5" x2="529.5" y1="371" y2="371"/><ellipse cx="396.5" cy="385.3047" fill="#84BE84" rx="3" ry="3" style="stroke:#038048;stroke-width:1.0;"/><text fill="#000000" font-family="sans-serif" font-size="14" lengthAdjust="spacing" textLength="119" x="405.5" y="389.5332">specificRequestA()</text></g><!--MD5=[2d23e4e546ad390fcff8976b2772dab8]
class ComponentB--><g id="elem_ComponentB"><rect codeLine="8" fill="#F1F1F1" height="65.6094" id="ComponentB" rx="2.5" ry="2.5" style="stroke:#181818;stroke-width:0.5;" width="145" x="23.5" y="331"/><ellipse cx="52.45" cy="347" fill="#ADD1B2" rx="11" ry="11" style="stroke:#181818;stroke-width:1.0;"/><path d="M55.2156,342.875 Q55.3719,342.6563 55.5594,342.5469 Q55.7469,342.4375 55.9656,342.4375 Q56.3406,342.4375 56.575,342.7031 Q56.8094,342.9531 56.8094,343.5625 L56.8094,345.0156 Q56.8094,345.625 56.575,345.8906 Q56.3406,346.1563 55.9656,346.1563 Q55.6219,346.1563 55.4188,345.9531 Q55.2156,345.7656 55.1063,345.25 Q55.0594,344.8906 54.8719,344.7031 Q54.5438,344.3281 53.9344,344.1094 Q53.325,343.8906 52.7,343.8906 Q51.9344,343.8906 51.2938,344.2188 Q50.6688,344.5469 50.1688,345.2969 Q49.6844,346.0469 49.6844,347.0781 L49.6844,348.1719 Q49.6844,349.4063 50.575,350.2344 Q51.4656,351.0469 53.0594,351.0469 Q53.9969,351.0469 54.6531,350.7969 Q55.0438,350.6406 55.4656,350.2031 Q55.7313,349.9375 55.8719,349.8594 Q56.0281,349.7813 56.2313,349.7813 Q56.5594,349.7813 56.8094,350.0469 Q57.075,350.2969 57.075,350.6406 Q57.075,350.9844 56.7313,351.3906 Q56.2313,351.9688 55.4344,352.2969 Q54.3563,352.75 53.0594,352.75 Q51.5438,352.75 50.3406,352.125 Q49.3563,351.625 48.6688,350.5625 Q47.9813,349.4844 47.9813,348.2031 L47.9813,347.0469 Q47.9813,345.7188 48.5906,344.5781 Q49.2156,343.4219 50.3094,342.8125 Q51.4031,342.1875 52.6375,342.1875 Q53.3719,342.1875 54.0125,342.3594 Q54.6688,342.5156 55.2156,342.875 Z " fill="#000000"/><text fill="#000000" font-family="sans-serif" font-size="14" lengthAdjust="spacing" textLength="82" x="69.55" y="352.7285">ComponentB</text><line style="stroke:#181818;stroke-width:0.5;" x1="24.5" x2="167.5" y1="363" y2="363"/><line style="stroke:#181818;stroke-width:0.5;" x1="24.5" x2="167.5" y1="371" y2="371"/><ellipse cx="34.5" cy="385.3047" fill="#84BE84" rx="3" ry="3" style="stroke:#038048;stroke-width:1.0;"/><text fill="#000000" font-family="sans-serif" font-size="14" lengthAdjust="spacing" textLength="119" x="43.5" y="389.5332">specificRequestB()</text></g><!--MD5=[e6d1a495bc7bb1d100b4f2c4ad4e5681]
class ComponentC--><g id="elem_ComponentC"><rect codeLine="11" fill="#F1F1F1" height="65.6094" id="ComponentC" rx="2.5" ry="2.5" style="stroke:#181818;stroke-width:0.5;" width="146" x="204" y="331"/><ellipse cx="232.95" cy="347" fill="#ADD1B2" rx="11" ry="11" style="stroke:#181818;stroke-width:1.0;"/><path d="M235.7156,342.875 Q235.8719,342.6563 236.0594,342.5469 Q236.2469,342.4375 236.4656,342.4375 Q236.8406,342.4375 237.075,342.7031 Q237.3094,342.9531 237.3094,343.5625 L237.3094,345.0156 Q237.3094,345.625 237.075,345.8906 Q236.8406,346.1563 236.4656,346.1563 Q236.1219,346.1563 235.9188,345.9531 Q235.7156,345.7656 235.6063,345.25 Q235.5594,344.8906 235.3719,344.7031 Q235.0438,344.3281 234.4344,344.1094 Q233.825,343.8906 233.2,343.8906 Q232.4344,343.8906 231.7938,344.2188 Q231.1688,344.5469 230.6688,345.2969 Q230.1844,346.0469 230.1844,347.0781 L230.1844,348.1719 Q230.1844,349.4063 231.075,350.2344 Q231.9656,351.0469 233.5594,351.0469 Q234.4969,351.0469 235.1531,350.7969 Q235.5438,350.6406 235.9656,350.2031 Q236.2313,349.9375 236.3719,349.8594 Q236.5281,349.7813 236.7313,349.7813 Q237.0594,349.7813 237.3094,350.0469 Q237.575,350.2969 237.575,350.6406 Q237.575,350.9844 237.2313,351.3906 Q236.7313,351.9688 235.9344,352.2969 Q234.8563,352.75 233.5594,352.75 Q232.0438,352.75 230.8406,352.125 Q229.8563,351.625 229.1688,350.5625 Q228.4813,349.4844 228.4813,348.2031 L228.4813,347.0469 Q228.4813,345.7188 229.0906,344.5781 Q229.7156,343.4219 230.8094,342.8125 Q231.9031,342.1875 233.1375,342.1875 Q233.8719,342.1875 234.5125,342.3594 Q235.1688,342.5156 235.7156,342.875 Z " fill="#000000"/><text fill="#000000" font-family="sans-serif" font-size="14" lengthAdjust="spacing" textLength="83" x="250.05" y="352.7285">ComponentC</text><line style="stroke:#181818;stroke-width:0.5;" x1="205" x2="349" y1="363" y2="363"/><line style="stroke:#181818;stroke-width:0.5;" x1="205" x2="349" y1="371" y2="371"/><ellipse cx="215" cy="385.3047" fill="#84BE84" rx="3" ry="3" style="stroke:#038048;stroke-width:1.0;"/><text fill="#000000" font-family="sans-serif" font-size="14" lengthAdjust="spacing" textLength="120" x="224" y="389.5332">specificRequestC()</text></g><!--MD5=[81a1b4587c44d2d0cfc5dd147889dce9]
class RoleBasedRouter--><g id="elem_RoleBasedRouter"><rect codeLine="14" fill="#F1F1F1" height="65.6094" id="RoleBasedRouter" rx="2.5" ry="2.5" style="stroke:#181818;stroke-width:0.5;" width="545" x="22.5" y="204"/><ellipse cx="234.75" cy="220" fill="#ADD1B2" rx="11" ry="11" style="stroke:#181818;stroke-width:1.0;"/><path d="M237.5156,215.875 Q237.6719,215.6563 237.8594,215.5469 Q238.0469,215.4375 238.2656,215.4375 Q238.6406,215.4375 238.875,215.7031 Q239.1094,215.9531 239.1094,216.5625 L239.1094,218.0156 Q239.1094,218.625 238.875,218.8906 Q238.6406,219.1563 238.2656,219.1563 Q237.9219,219.1563 237.7188,218.9531 Q237.5156,218.7656 237.4063,218.25 Q237.3594,217.8906 237.1719,217.7031 Q236.8438,217.3281 236.2344,217.1094 Q235.625,216.8906 235,216.8906 Q234.2344,216.8906 233.5938,217.2188 Q232.9688,217.5469 232.4688,218.2969 Q231.9844,219.0469 231.9844,220.0781 L231.9844,221.1719 Q231.9844,222.4063 232.875,223.2344 Q233.7656,224.0469 235.3594,224.0469 Q236.2969,224.0469 236.9531,223.7969 Q237.3438,223.6406 237.7656,223.2031 Q238.0313,222.9375 238.1719,222.8594 Q238.3281,222.7813 238.5313,222.7813 Q238.8594,222.7813 239.1094,223.0469 Q239.375,223.2969 239.375,223.6406 Q239.375,223.9844 239.0313,224.3906 Q238.5313,224.9688 237.7344,225.2969 Q236.6563,225.75 235.3594,225.75 Q233.8438,225.75 232.6406,225.125 Q231.6563,224.625 230.9688,223.5625 Q230.2813,222.4844 230.2813,221.2031 L230.2813,220.0469 Q230.2813,218.7188 230.8906,217.5781 Q231.5156,216.4219 232.6094,215.8125 Q233.7031,215.1875 234.9375,215.1875 Q235.6719,215.1875 236.3125,215.3594 Q236.9688,215.5156 237.5156,215.875 Z " fill="#000000"/><text fill="#000000" font-family="sans-serif" font-size="14" lengthAdjust="spacing" textLength="112" x="255.25" y="225.7285">RoleBasedRouter</text><line style="stroke:#181818;stroke-width:0.5;" x1="23.5" x2="566.5" y1="236" y2="236"/><line style="stroke:#181818;stroke-width:0.5;" x1="23.5" x2="566.5" y1="244" y2="244"/><ellipse cx="33.5" cy="258.3047" fill="#84BE84" rx="3" ry="3" style="stroke:#038048;stroke-width:1.0;"/><text fill="#000000" font-family="sans-serif" font-size="14" lengthAdjust="spacing" textLength="519" x="42.5" y="262.5332">checkAccess(component, userRole): boolean // Determines access to components</text></g><!--MD5=[6805b36f06db60eb9f0ea8a9d1374c9d]
class HTTPInterceptor--><g id="elem_HTTPInterceptor"><rect codeLine="17" fill="#F1F1F1" height="65.6094" id="HTTPInterceptor" rx="2.5" ry="2.5" style="stroke:#181818;stroke-width:0.5;" width="232" x="152" y="475"/><ellipse cx="211.75" cy="491" fill="#ADD1B2" rx="11" ry="11" style="stroke:#181818;stroke-width:1.0;"/><path d="M214.5156,486.875 Q214.6719,486.6563 214.8594,486.5469 Q215.0469,486.4375 215.2656,486.4375 Q215.6406,486.4375 215.875,486.7031 Q216.1094,486.9531 216.1094,487.5625 L216.1094,489.0156 Q216.1094,489.625 215.875,489.8906 Q215.6406,490.1563 215.2656,490.1563 Q214.9219,490.1563 214.7188,489.9531 Q214.5156,489.7656 214.4063,489.25 Q214.3594,488.8906 214.1719,488.7031 Q213.8438,488.3281 213.2344,488.1094 Q212.625,487.8906 212,487.8906 Q211.2344,487.8906 210.5938,488.2188 Q209.9688,488.5469 209.4688,489.2969 Q208.9844,490.0469 208.9844,491.0781 L208.9844,492.1719 Q208.9844,493.4063 209.875,494.2344 Q210.7656,495.0469 212.3594,495.0469 Q213.2969,495.0469 213.9531,494.7969 Q214.3438,494.6406 214.7656,494.2031 Q215.0313,493.9375 215.1719,493.8594 Q215.3281,493.7813 215.5313,493.7813 Q215.8594,493.7813 216.1094,494.0469 Q216.375,494.2969 216.375,494.6406 Q216.375,494.9844 216.0313,495.3906 Q215.5313,495.9688 214.7344,496.2969 Q213.6563,496.75 212.3594,496.75 Q210.8438,496.75 209.6406,496.125 Q208.6563,495.625 207.9688,494.5625 Q207.2813,493.4844 207.2813,492.2031 L207.2813,491.0469 Q207.2813,489.7188 207.8906,488.5781 Q208.5156,487.4219 209.6094,486.8125 Q210.7031,486.1875 211.9375,486.1875 Q212.6719,486.1875 213.3125,486.3594 Q213.9688,486.5156 214.5156,486.875 Z " fill="#000000"/><text fill="#000000" font-family="sans-serif" font-size="14" lengthAdjust="spacing" textLength="104" x="232.25" y="496.7285">HTTPInterceptor</text><line style="stroke:#181818;stroke-width:0.5;" x1="153" x2="383" y1="507" y2="507"/><line style="stroke:#181818;stroke-width:0.5;" x1="153" x2="383" y1="515" y2="515"/><ellipse cx="163" cy="529.3047" fill="#84BE84" rx="3" ry="3" style="stroke:#038048;stroke-width:1.0;"/><text fill="#000000" font-family="sans-serif" font-size="14" lengthAdjust="spacing" textLength="206" x="172" y="533.5332">interceptRequest(): append JWT</text></g><!--MD5=[a7661dae5b0d701614a666888c8235ba]
class UserInterface--><g id="elem_UserInterface"><rect codeLine="20" fill="#F1F1F1" height="100.8281" id="UserInterface" rx="2.5" ry="2.5" style="stroke:#181818;stroke-width:0.5;" width="318" x="193" y="42"/><ellipse cx="305.75" cy="58" fill="#ADD1B2" rx="11" ry="11" style="stroke:#181818;stroke-width:1.0;"/><path d="M308.5156,53.875 Q308.6719,53.6563 308.8594,53.5469 Q309.0469,53.4375 309.2656,53.4375 Q309.6406,53.4375 309.875,53.7031 Q310.1094,53.9531 310.1094,54.5625 L310.1094,56.0156 Q310.1094,56.625 309.875,56.8906 Q309.6406,57.1563 309.2656,57.1563 Q308.9219,57.1563 308.7188,56.9531 Q308.5156,56.7656 308.4063,56.25 Q308.3594,55.8906 308.1719,55.7031 Q307.8438,55.3281 307.2344,55.1094 Q306.625,54.8906 306,54.8906 Q305.2344,54.8906 304.5938,55.2188 Q303.9688,55.5469 303.4688,56.2969 Q302.9844,57.0469 302.9844,58.0781 L302.9844,59.1719 Q302.9844,60.4063 303.875,61.2344 Q304.7656,62.0469 306.3594,62.0469 Q307.2969,62.0469 307.9531,61.7969 Q308.3438,61.6406 308.7656,61.2031 Q309.0313,60.9375 309.1719,60.8594 Q309.3281,60.7813 309.5313,60.7813 Q309.8594,60.7813 310.1094,61.0469 Q310.375,61.2969 310.375,61.6406 Q310.375,61.9844 310.0313,62.3906 Q309.5313,62.9688 308.7344,63.2969 Q307.6563,63.75 306.3594,63.75 Q304.8438,63.75 303.6406,63.125 Q302.6563,62.625 301.9688,61.5625 Q301.2813,60.4844 301.2813,59.2031 L301.2813,58.0469 Q301.2813,56.7188 301.8906,55.5781 Q302.5156,54.4219 303.6094,53.8125 Q304.7031,53.1875 305.9375,53.1875 Q306.6719,53.1875 307.3125,53.3594 Q307.9688,53.5156 308.5156,53.875 Z " fill="#000000"/><text fill="#000000" font-family="sans-serif" font-size="14" lengthAdjust="spacing" textLength="84" x="326.25" y="63.7285">UserInterface</text><line style="stroke:#181818;stroke-width:0.5;" x1="194" x2="510" y1="74" y2="74"/><line style="stroke:#181818;stroke-width:0.5;" x1="194" x2="510" y1="82" y2="82"/><ellipse cx="204" cy="96.3047" fill="#84BE84" rx="3" ry="3" style="stroke:#038048;stroke-width:1.0;"/><text fill="#000000" font-family="sans-serif" font-size="14" lengthAdjust="spacing" textLength="171" x="213" y="100.5332">login(username, password)</text><ellipse cx="204" cy="113.9141" fill="#84BE84" rx="3" ry="3" style="stroke:#038048;stroke-width:1.0;"/><text fill="#000000" font-family="sans-serif" font-size="14" lengthAdjust="spacing" textLength="292" x="213" y="118.1426">register(firstName, lastName, email, password)</text><ellipse cx="204" cy="131.5234" fill="#84BE84" rx="3" ry="3" style="stroke:#038048;stroke-width:1.0;"/><text fill="#000000" font-family="sans-serif" font-size="14" lengthAdjust="spacing" textLength="86" x="213" y="135.752">receiveData()</text></g><!--MD5=[29f97d496cbdc4ec81664c6d94dc9bf6]
class UserController--><g id="elem_UserController"><rect codeLine="28" fill="#F1F1F1" height="83.2188" id="UserController" rx="2.5" ry="2.5" style="stroke:#181818;stroke-width:0.5;" width="377" x="432.5" y="643"/><ellipse cx="571.25" cy="659" fill="#ADD1B2" rx="11" ry="11" style="stroke:#181818;stroke-width:1.0;"/><path d="M574.0156,654.875 Q574.1719,654.6563 574.3594,654.5469 Q574.5469,654.4375 574.7656,654.4375 Q575.1406,654.4375 575.375,654.7031 Q575.6094,654.9531 575.6094,655.5625 L575.6094,657.0156 Q575.6094,657.625 575.375,657.8906 Q575.1406,658.1563 574.7656,658.1563 Q574.4219,658.1563 574.2188,657.9531 Q574.0156,657.7656 573.9063,657.25 Q573.8594,656.8906 573.6719,656.7031 Q573.3438,656.3281 572.7344,656.1094 Q572.125,655.8906 571.5,655.8906 Q570.7344,655.8906 570.0938,656.2188 Q569.4688,656.5469 568.9688,657.2969 Q568.4844,658.0469 568.4844,659.0781 L568.4844,660.1719 Q568.4844,661.4063 569.375,662.2344 Q570.2656,663.0469 571.8594,663.0469 Q572.7969,663.0469 573.4531,662.7969 Q573.8438,662.6406 574.2656,662.2031 Q574.5313,661.9375 574.6719,661.8594 Q574.8281,661.7813 575.0313,661.7813 Q575.3594,661.7813 575.6094,662.0469 Q575.875,662.2969 575.875,662.6406 Q575.875,662.9844 575.5313,663.3906 Q575.0313,663.9688 574.2344,664.2969 Q573.1563,664.75 571.8594,664.75 Q570.3438,664.75 569.1406,664.125 Q568.1563,663.625 567.4688,662.5625 Q566.7813,661.4844 566.7813,660.2031 L566.7813,659.0469 Q566.7813,657.7188 567.3906,656.5781 Q568.0156,655.4219 569.1094,654.8125 Q570.2031,654.1875 571.4375,654.1875 Q572.1719,654.1875 572.8125,654.3594 Q573.4688,654.5156 574.0156,654.875 Z " fill="#000000"/><text fill="#000000" font-family="sans-serif" font-size="14" lengthAdjust="spacing" textLength="91" x="591.75" y="664.7285">UserController</text><line style="stroke:#181818;stroke-width:0.5;" x1="433.5" x2="808.5" y1="675" y2="675"/><line style="stroke:#181818;stroke-width:0.5;" x1="433.5" x2="808.5" y1="683" y2="683"/><ellipse cx="443.5" cy="697.3047" fill="#84BE84" rx="3" ry="3" style="stroke:#038048;stroke-width:1.0;"/><text fill="#000000" font-family="sans-serif" font-size="14" lengthAdjust="spacing" textLength="177" x="452.5" y="701.5332">login(email, password): JWT</text><ellipse cx="443.5" cy="714.9141" fill="#84BE84" rx="3" ry="3" style="stroke:#038048;stroke-width:1.0;"/><text fill="#000000" font-family="sans-serif" font-size="14" lengthAdjust="spacing" textLength="351" x="452.5" y="719.1426">register(firstName, lastName, email, password): boolean</text></g><!--MD5=[e4ac4745f81aec2db60ad4ddae80b659]
class UserService--><g id="elem_UserService"><rect codeLine="32" fill="#F1F1F1" height="118.4375" id="UserService" rx="2.5" ry="2.5" style="stroke:#181818;stroke-width:0.5;" width="398" x="686" y="804"/><ellipse cx="842.75" cy="820" fill="#ADD1B2" rx="11" ry="11" style="stroke:#181818;stroke-width:1.0;"/><path d="M845.5156,815.875 Q845.6719,815.6563 845.8594,815.5469 Q846.0469,815.4375 846.2656,815.4375 Q846.6406,815.4375 846.875,815.7031 Q847.1094,815.9531 847.1094,816.5625 L847.1094,818.0156 Q847.1094,818.625 846.875,818.8906 Q846.6406,819.1563 846.2656,819.1563 Q845.9219,819.1563 845.7188,818.9531 Q845.5156,818.7656 845.4063,818.25 Q845.3594,817.8906 845.1719,817.7031 Q844.8438,817.3281 844.2344,817.1094 Q843.625,816.8906 843,816.8906 Q842.2344,816.8906 841.5938,817.2188 Q840.9688,817.5469 840.4688,818.2969 Q839.9844,819.0469 839.9844,820.0781 L839.9844,821.1719 Q839.9844,822.4063 840.875,823.2344 Q841.7656,824.0469 843.3594,824.0469 Q844.2969,824.0469 844.9531,823.7969 Q845.3438,823.6406 845.7656,823.2031 Q846.0313,822.9375 846.1719,822.8594 Q846.3281,822.7813 846.5313,822.7813 Q846.8594,822.7813 847.1094,823.0469 Q847.375,823.2969 847.375,823.6406 Q847.375,823.9844 847.0313,824.3906 Q846.5313,824.9688 845.7344,825.2969 Q844.6563,825.75 843.3594,825.75 Q841.8438,825.75 840.6406,825.125 Q839.6563,824.625 838.9688,823.5625 Q838.2813,822.4844 838.2813,821.2031 L838.2813,820.0469 Q838.2813,818.7188 838.8906,817.5781 Q839.5156,816.4219 840.6094,815.8125 Q841.7031,815.1875 842.9375,815.1875 Q843.6719,815.1875 844.3125,815.3594 Q844.9688,815.5156 845.5156,815.875 Z " fill="#000000"/><text fill="#000000" font-family="sans-serif" font-size="14" lengthAdjust="spacing" textLength="76" x="863.25" y="825.7285">UserService</text><line style="stroke:#181818;stroke-width:0.5;" x1="687" x2="1083" y1="836" y2="836"/><line style="stroke:#181818;stroke-width:0.5;" x1="687" x2="1083" y1="844" y2="844"/><ellipse cx="697" cy="858.3047" fill="#84BE84" rx="3" ry="3" style="stroke:#038048;stroke-width:1.0;"/><text fill="#000000" font-family="sans-serif" font-size="14" lengthAdjust="spacing" textLength="291" x="706" y="862.5332">validateCredentials(email, password): boolean</text><ellipse cx="697" cy="875.9141" fill="#84BE84" rx="3" ry="3" style="stroke:#038048;stroke-width:1.0;"/><text fill="#000000" font-family="sans-serif" font-size="14" lengthAdjust="spacing" textLength="372" x="706" y="880.1426">createUser(firstName, lastName, email, password): boolean</text><ellipse cx="697" cy="893.5234" fill="#84BE84" rx="3" ry="3" style="stroke:#038048;stroke-width:1.0;"/><text fill="#000000" font-family="sans-serif" font-size="14" lengthAdjust="spacing" textLength="177" x="706" y="897.752">isValidEmail(email): boolean</text><ellipse cx="697" cy="911.1328" fill="#84BE84" rx="3" ry="3" style="stroke:#038048;stroke-width:1.0;"/><text fill="#000000" font-family="sans-serif" font-size="14" lengthAdjust="spacing" textLength="242" x="706" y="915.3613">isStrongPassword(password): boolean</text></g><!--MD5=[47498f7a67132d2f5a0d4e8eae8ae39c]
class JWTService--><g id="elem_JWTService"><rect codeLine="38" fill="#F1F1F1" height="83.2188" id="JWTService" rx="2.5" ry="2.5" style="stroke:#181818;stroke-width:0.5;" width="219" x="431.5" y="821.5"/><ellipse cx="499.25" cy="837.5" fill="#ADD1B2" rx="11" ry="11" style="stroke:#181818;stroke-width:1.0;"/><path d="M502.0156,833.375 Q502.1719,833.1563 502.3594,833.0469 Q502.5469,832.9375 502.7656,832.9375 Q503.1406,832.9375 503.375,833.2031 Q503.6094,833.4531 503.6094,834.0625 L503.6094,835.5156 Q503.6094,836.125 503.375,836.3906 Q503.1406,836.6563 502.7656,836.6563 Q502.4219,836.6563 502.2188,836.4531 Q502.0156,836.2656 501.9063,835.75 Q501.8594,835.3906 501.6719,835.2031 Q501.3438,834.8281 500.7344,834.6094 Q500.125,834.3906 499.5,834.3906 Q498.7344,834.3906 498.0938,834.7188 Q497.4688,835.0469 496.9688,835.7969 Q496.4844,836.5469 496.4844,837.5781 L496.4844,838.6719 Q496.4844,839.9063 497.375,840.7344 Q498.2656,841.5469 499.8594,841.5469 Q500.7969,841.5469 501.4531,841.2969 Q501.8438,841.1406 502.2656,840.7031 Q502.5313,840.4375 502.6719,840.3594 Q502.8281,840.2813 503.0313,840.2813 Q503.3594,840.2813 503.6094,840.5469 Q503.875,840.7969 503.875,841.1406 Q503.875,841.4844 503.5313,841.8906 Q503.0313,842.4688 502.2344,842.7969 Q501.1563,843.25 499.8594,843.25 Q498.3438,843.25 497.1406,842.625 Q496.1563,842.125 495.4688,841.0625 Q494.7813,839.9844 494.7813,838.7031 L494.7813,837.5469 Q494.7813,836.2188 495.3906,835.0781 Q496.0156,833.9219 497.1094,833.3125 Q498.2031,832.6875 499.4375,832.6875 Q500.1719,832.6875 500.8125,832.8594 Q501.4688,833.0156 502.0156,833.375 Z " fill="#000000"/><text fill="#000000" font-family="sans-serif" font-size="14" lengthAdjust="spacing" textLength="75" x="519.75" y="843.2285">JWTService</text><line style="stroke:#181818;stroke-width:0.5;" x1="432.5" x2="649.5" y1="853.5" y2="853.5"/><line style="stroke:#181818;stroke-width:0.5;" x1="432.5" x2="649.5" y1="861.5" y2="861.5"/><ellipse cx="442.5" cy="875.8047" fill="#84BE84" rx="3" ry="3" style="stroke:#038048;stroke-width:1.0;"/><text fill="#000000" font-family="sans-serif" font-size="14" lengthAdjust="spacing" textLength="154" x="451.5" y="880.0332">createToken(user): JWT</text><ellipse cx="442.5" cy="893.4141" fill="#84BE84" rx="3" ry="3" style="stroke:#038048;stroke-width:1.0;"/><text fill="#000000" font-family="sans-serif" font-size="14" lengthAdjust="spacing" textLength="193" x="451.5" y="897.6426">validateToken(token): boolean</text></g><!--MD5=[a3367105b15dcd4f5736d4be15178d86]
class JWTMiddleware--><g id="elem_JWTMiddleware"><rect codeLine="45" fill="#F1F1F1" height="65.6094" id="JWTMiddleware" rx="2.5" ry="2.5" style="stroke:#181818;stroke-width:0.5;" width="213" x="161.5" y="651.5"/><ellipse cx="214.25" cy="667.5" fill="#ADD1B2" rx="11" ry="11" style="stroke:#181818;stroke-width:1.0;"/><path d="M217.0156,663.375 Q217.1719,663.1563 217.3594,663.0469 Q217.5469,662.9375 217.7656,662.9375 Q218.1406,662.9375 218.375,663.2031 Q218.6094,663.4531 218.6094,664.0625 L218.6094,665.5156 Q218.6094,666.125 218.375,666.3906 Q218.1406,666.6563 217.7656,666.6563 Q217.4219,666.6563 217.2188,666.4531 Q217.0156,666.2656 216.9063,665.75 Q216.8594,665.3906 216.6719,665.2031 Q216.3438,664.8281 215.7344,664.6094 Q215.125,664.3906 214.5,664.3906 Q213.7344,664.3906 213.0938,664.7188 Q212.4688,665.0469 211.9688,665.7969 Q211.4844,666.5469 211.4844,667.5781 L211.4844,668.6719 Q211.4844,669.9063 212.375,670.7344 Q213.2656,671.5469 214.8594,671.5469 Q215.7969,671.5469 216.4531,671.2969 Q216.8438,671.1406 217.2656,670.7031 Q217.5313,670.4375 217.6719,670.3594 Q217.8281,670.2813 218.0313,670.2813 Q218.3594,670.2813 218.6094,670.5469 Q218.875,670.7969 218.875,671.1406 Q218.875,671.4844 218.5313,671.8906 Q218.0313,672.4688 217.2344,672.7969 Q216.1563,673.25 214.8594,673.25 Q213.3438,673.25 212.1406,672.625 Q211.1563,672.125 210.4688,671.0625 Q209.7813,669.9844 209.7813,668.7031 L209.7813,667.5469 Q209.7813,666.2188 210.3906,665.0781 Q211.0156,663.9219 212.1094,663.3125 Q213.2031,662.6875 214.4375,662.6875 Q215.1719,662.6875 215.8125,662.8594 Q216.4688,663.0156 217.0156,663.375 Z " fill="#000000"/><text fill="#000000" font-family="sans-serif" font-size="14" lengthAdjust="spacing" textLength="99" x="234.75" y="673.2285">JWTMiddleware</text><line style="stroke:#181818;stroke-width:0.5;" x1="162.5" x2="373.5" y1="683.5" y2="683.5"/><line style="stroke:#181818;stroke-width:0.5;" x1="162.5" x2="373.5" y1="691.5" y2="691.5"/><ellipse cx="172.5" cy="705.8047" fill="#84BE84" rx="3" ry="3" style="stroke:#038048;stroke-width:1.0;"/><text fill="#000000" font-family="sans-serif" font-size="14" lengthAdjust="spacing" textLength="187" x="181.5" y="710.0332">validateJWT(token): userRole</text></g><!--MD5=[5d027b2cfe067d0deeb679fdca23b54e]
class ResourceController--><g id="elem_ResourceController"><rect codeLine="48" fill="#F1F1F1" height="83.2188" id="ResourceController" rx="2.5" ry="2.5" style="stroke:#181818;stroke-width:0.5;" width="209" x="164.5" y="821.5"/><ellipse cx="203.8" cy="837.5" fill="#ADD1B2" rx="11" ry="11" style="stroke:#181818;stroke-width:1.0;"/><path d="M206.5656,833.375 Q206.7219,833.1563 206.9094,833.0469 Q207.0969,832.9375 207.3156,832.9375 Q207.6906,832.9375 207.925,833.2031 Q208.1594,833.4531 208.1594,834.0625 L208.1594,835.5156 Q208.1594,836.125 207.925,836.3906 Q207.6906,836.6563 207.3156,836.6563 Q206.9719,836.6563 206.7688,836.4531 Q206.5656,836.2656 206.4563,835.75 Q206.4094,835.3906 206.2219,835.2031 Q205.8938,834.8281 205.2844,834.6094 Q204.675,834.3906 204.05,834.3906 Q203.2844,834.3906 202.6438,834.7188 Q202.0188,835.0469 201.5188,835.7969 Q201.0344,836.5469 201.0344,837.5781 L201.0344,838.6719 Q201.0344,839.9063 201.925,840.7344 Q202.8156,841.5469 204.4094,841.5469 Q205.3469,841.5469 206.0031,841.2969 Q206.3938,841.1406 206.8156,840.7031 Q207.0813,840.4375 207.2219,840.3594 Q207.3781,840.2813 207.5813,840.2813 Q207.9094,840.2813 208.1594,840.5469 Q208.425,840.7969 208.425,841.1406 Q208.425,841.4844 208.0813,841.8906 Q207.5813,842.4688 206.7844,842.7969 Q205.7063,843.25 204.4094,843.25 Q202.8938,843.25 201.6906,842.625 Q200.7063,842.125 200.0188,841.0625 Q199.3313,839.9844 199.3313,838.7031 L199.3313,837.5469 Q199.3313,836.2188 199.9406,835.0781 Q200.5656,833.9219 201.6594,833.3125 Q202.7531,832.6875 203.9875,832.6875 Q204.7219,832.6875 205.3625,832.8594 Q206.0188,833.0156 206.5656,833.375 Z " fill="#000000"/><text fill="#000000" font-family="sans-serif" font-size="14" lengthAdjust="spacing" textLength="123" x="223.2" y="843.2285">ResourceController</text><line style="stroke:#181818;stroke-width:0.5;" x1="165.5" x2="372.5" y1="853.5" y2="853.5"/><line style="stroke:#181818;stroke-width:0.5;" x1="165.5" x2="372.5" y1="861.5" y2="861.5"/><ellipse cx="175.5" cy="875.8047" fill="#84BE84" rx="3" ry="3" style="stroke:#038048;stroke-width:1.0;"/><text fill="#000000" font-family="sans-serif" font-size="14" lengthAdjust="spacing" textLength="106" x="184.5" y="880.0332">handleRequest()</text><ellipse cx="175.5" cy="893.4141" fill="#84BE84" rx="3" ry="3" style="stroke:#038048;stroke-width:1.0;"/><text fill="#000000" font-family="sans-serif" font-size="14" lengthAdjust="spacing" textLength="183" x="184.5" y="897.6426">accessProtectedResources()</text></g><!--MD5=[e69b582cd1b7007d3736a8dd0fccc43d]
entity User Credentials--><g id="elem_User Credentials"><path d="M714,1055 L755,1055 A3.75,3.75 0 0 1 757.5,1057.5 L764.5,1076 L844,1076 A2.5,2.5 0 0 1 846.5,1078.5 L846.5,1108.1094 A2.5,2.5 0 0 1 844,1110.6094 L714,1110.6094 A2.5,2.5 0 0 1 711.5,1108.1094 L711.5,1057.5 A2.5,2.5 0 0 1 714,1055 " fill="#F1F1F1" style="stroke:#181818;stroke-width:0.5;"/><line style="stroke:#181818;stroke-width:0.5;" x1="711.5" x2="764.5" y1="1076" y2="1076"/><text fill="#000000" font-family="sans-serif" font-size="14" lengthAdjust="spacing" textLength="105" x="721.5" y="1097.5332">User Credentials</text></g><!--MD5=[65d360cd9f0138b136b1e8e21012c82c]
entity Other Data--><g id="elem_Other Data"><path d="M578.5,1055 L619.5,1055 A3.75,3.75 0 0 1 622,1057.5 L629,1076 L673.5,1076 A2.5,2.5 0 0 1 676,1078.5 L676,1108.1094 A2.5,2.5 0 0 1 673.5,1110.6094 L578.5,1110.6094 A2.5,2.5 0 0 1 576,1108.1094 L576,1057.5 A2.5,2.5 0 0 1 578.5,1055 " fill="#F1F1F1" style="stroke:#181818;stroke-width:0.5;"/><line style="stroke:#181818;stroke-width:0.5;" x1="576" x2="629" y1="1076" y2="1076"/><text fill="#000000" font-family="sans-serif" font-size="14" lengthAdjust="spacing" textLength="70" x="586" y="1097.5332">Other Data</text></g><!--MD5=[c2e638dc09527b1612255ec757bf351f]
link UserInterface to RoleBasedRouter--><g id="link_UserInterface_RoleBasedRouter"><path codeLine="60" d="M332.06,143.34 C324.73,161.68 316.56,182.11 309.76,199.1 " fill="none" id="UserInterface-to-RoleBasedRouter" style="stroke:#181818;stroke-width:1.0;"/><polygon fill="#181818" points="307.88,203.8,314.9364,196.9293,309.737,199.1576,307.5086,193.9581,307.88,203.8" style="stroke:#181818;stroke-width:1.0;"/></g><!--MD5=[c60ae6c0f3e81bb5da072e6f3c899f0f]
link RoleBasedRouter to ComponentA--><g id="link_RoleBasedRouter_ComponentA"><path codeLine="61" d="M336.98,270.19 C359.98,287.83 388.53,309.73 412.12,327.82 " fill="none" id="RoleBasedRouter-to-ComponentA" style="stroke:#181818;stroke-width:1.0;"/><polygon fill="#181818" points="416.17,330.92,411.4737,322.2629,412.2063,327.8721,406.5971,328.6048,416.17,330.92" style="stroke:#181818;stroke-width:1.0;"/></g><!--MD5=[e3d60ffa42305513cd03a9041b625d9b]
link RoleBasedRouter to ComponentB--><g id="link_RoleBasedRouter_ComponentB"><path codeLine="62" d="M244.01,270.03 C215.81,287.74 180.72,309.78 151.79,327.96 " fill="none" id="RoleBasedRouter-to-ComponentB" style="stroke:#181818;stroke-width:1.0;"/><polygon fill="#181818" points="147.2,330.84,156.9486,329.4384,151.4336,328.1797,152.6922,322.6647,147.2,330.84" style="stroke:#181818;stroke-width:1.0;"/></g><!--MD5=[3ab752a46b887c273e8bc882fa037e63]
link RoleBasedRouter to ComponentC--><g id="link_RoleBasedRouter_ComponentC"><path codeLine="63" d="M290.36,270.19 C287.93,287.1 284.93,307.92 282.39,325.56 " fill="none" id="RoleBasedRouter-to-ComponentC" style="stroke:#181818;stroke-width:1.0;"/><polygon fill="#181818" points="281.62,330.92,286.8661,322.5846,282.3351,325.9714,278.9483,321.4404,281.62,330.92" style="stroke:#181818;stroke-width:1.0;"/></g><!--MD5=[b5b4f836be4ba2fa78254c4090ba0e13]
link ComponentA to HTTPInterceptor--><g id="link_ComponentA_HTTPInterceptor"><path codeLine="64" d="M439.53,397.21 C429.18,413.13 415.12,431.73 399,445 C386.24,455.51 371.39,464.7 356.38,472.57 " fill="none" id="ComponentA-to-HTTPInterceptor" style="stroke:#181818;stroke-width:1.0;"/><polygon fill="#181818" points="351.72,474.97,361.5529,474.4096,356.1661,472.6826,357.8931,467.2958,351.72,474.97" style="stroke:#181818;stroke-width:1.0;"/><text fill="#000000" font-family="sans-serif" font-size="13" lengthAdjust="spacing" textLength="128" x="417" y="441.4951">intercepts all requests</text></g><!--MD5=[178dfd53b1e9c5f58bd4510a67a04f16]
link ComponentB to HTTPInterceptor--><g id="link_ComponentB_HTTPInterceptor"><path codeLine="65" d="M102.27,397.02 C106.81,413.08 114.44,431.87 127,445 C137.38,455.85 149.99,464.93 163.35,472.48 " fill="none" id="ComponentB-to-HTTPInterceptor" style="stroke:#181818;stroke-width:1.0;"/><polygon fill="#181818" points="167.91,474.98,161.9547,467.1356,163.5298,472.5688,158.0967,474.1439,167.91,474.98" style="stroke:#181818;stroke-width:1.0;"/><text fill="#000000" font-family="sans-serif" font-size="13" lengthAdjust="spacing" textLength="128" x="128" y="441.4951">intercepts all requests</text></g><!--MD5=[66bda9aa4727497f27dc2c7d763a1b4c]
link ComponentC to HTTPInterceptor--><g id="link_ComponentC_HTTPInterceptor"><path codeLine="66" d="M269.59,397.01 C267.7,406.6 265.94,417.18 265,427 C263.68,440.8 263.84,455.99 264.53,469.4 " fill="none" id="ComponentC-to-HTTPInterceptor" style="stroke:#181818;stroke-width:1.0;"/><polygon fill="#181818" points="264.83,474.64,268.3085,465.4259,264.5439,469.6482,260.3216,465.8836,264.83,474.64" style="stroke:#181818;stroke-width:1.0;"/><text fill="#000000" font-family="sans-serif" font-size="13" lengthAdjust="spacing" textLength="128" x="266" y="441.4951">intercepts all requests</text></g><!--MD5=[e4a0edefca9ef017371037d37d48b534]
link UserInterface to UserController--><g id="link_UserInterface_UserController"><path codeLine="67" d="M511.2,121.72 C569.28,141.98 621,176.68 621,236 C621,236 621,236 621,509 C621,552.75 621,602.66 621,637.87 " fill="none" id="UserInterface-to-UserController" style="stroke:#181818;stroke-width:1.0;"/><polygon fill="#181818" points="621,642.95,625,633.95,621,637.95,617,633.95,621,642.95" style="stroke:#181818;stroke-width:1.0;"/><text fill="#000000" font-family="sans-serif" font-size="13" lengthAdjust="spacing" textLength="128" x="622" y="369.4951">requests login/register</text></g><!--MD5=[24950bc54895f33afc2647af6e65f42d]
link UserController to UserService--><g id="link_UserController_UserService"><path codeLine="68" d="M681.9,726.21 C715.04,748.37 756.71,776.23 793.66,800.94 " fill="none" id="UserController-to-UserService" style="stroke:#181818;stroke-width:1.0;"/><polygon fill="#181818" points="798.15,803.93,792.8803,795.6095,793.9897,801.1565,788.4427,802.2659,798.15,803.93" style="stroke:#181818;stroke-width:1.0;"/><text fill="#000000" font-family="sans-serif" font-size="13" lengthAdjust="spacing" textLength="152" x="754" y="770.4951">validate &amp; create new user</text></g><!--MD5=[5ac72f942c0674b7e512fc3dd300d952]
link UserService to Database--><g id="link_UserService_Database"><path codeLine="69" d="M820.42,922.26 C794.99,941.72 764.37,961.19 733,972 C714.81,978.27 574.51,967.36 560,980 C555.7213,983.7262 552.2078,988.0798 549.3361,992.85 C548.9772,993.4462 548.6282,994.049 548.2891,994.6579 C548.1195,994.9623 547.9524,995.2683 547.7877,995.5757 " fill="none" id="UserService-to-Database" style="stroke:#181818;stroke-width:1.0;"/><polygon fill="#181818" points="547.7877,995.5757,555.5638,989.5316,550.1489,991.1684,548.5121,985.7535,547.7877,995.5757" style="stroke:#181818;stroke-width:1.0;"/><text fill="#000000" font-family="sans-serif" font-size="13" lengthAdjust="spacing" textLength="132" x="770" y="968.4951">store/retrieve user data</text></g><!--MD5=[4d7edacdf2aa1f335cf7f2e8e4d7ff3b]
link UserController to JWTService--><g id="link_UserController_JWTService"><path codeLine="70" d="M602.45,726.44 C590.23,753.39 574.22,788.71 561.61,816.53 " fill="none" id="UserController-to-JWTService" style="stroke:#181818;stroke-width:1.0;"/><polygon fill="#181818" points="559.45,821.29,566.7987,814.7328,561.5072,816.7328,559.5071,811.4413,559.45,821.29" style="stroke:#181818;stroke-width:1.0;"/><text fill="#000000" font-family="sans-serif" font-size="13" lengthAdjust="spacing" textLength="66" x="589" y="770.4951">create JWT</text></g><!--MD5=[a81374d51a179c7a9f01f476f6858a23]
link JWTService to Database--><g id="link_JWTService_Database"><path codeLine="71" d="M541,904.75 C541,920.2775 541,938.8975 541,958.1475 C541,967.7725 541,977.555 541,987.1872 C541,989.5952 541,991.9939 541,994.3783 C541,994.6764 541,994.9742 541,995.2718 " fill="none" id="JWTService-to-Database" style="stroke:#181818;stroke-width:1.0;"/><polygon fill="#181818" points="541,995.2718,545,986.2718,541,990.2718,537,986.2718,541,995.2718" style="stroke:#181818;stroke-width:1.0;"/><text fill="#000000" font-family="sans-serif" font-size="13" lengthAdjust="spacing" textLength="182" x="542" y="968.4951">retrieve signing key/user claims</text></g><!--MD5=[215609a8048e32617bf1eb50aea6a401]
link HTTPInterceptor to JWTMiddleware--><g id="link_HTTPInterceptor_JWTMiddleware"><path codeLine="72" d="M268,541.01 C268,570.68 268,614.83 268,646.11 " fill="none" id="HTTPInterceptor-to-JWTMiddleware" style="stroke:#181818;stroke-width:1.0;"/><polygon fill="#181818" points="268,651.4,272,642.4,268,646.4,264,642.4,268,651.4" style="stroke:#181818;stroke-width:1.0;"/><text fill="#000000" font-family="sans-serif" font-size="13" lengthAdjust="spacing" textLength="146" x="269" y="587.4951">sends requests with JWT</text></g><!--MD5=[ac4c62ffb50331ef9ee1e2ab4ecb2bef]
link JWTMiddleware to ResourceController--><g id="link_JWTMiddleware_ResourceController"><path codeLine="73" d="M268.18,717.87 C268.34,745.44 268.57,785.36 268.74,816.2 " fill="none" id="JWTMiddleware-to-ResourceController" style="stroke:#181818;stroke-width:1.0;"/><polygon fill="#181818" points="268.77,821.46,272.7185,812.4373,268.7414,816.4601,264.7186,812.483,268.77,821.46" style="stroke:#181818;stroke-width:1.0;"/><text fill="#000000" font-family="sans-serif" font-size="13" lengthAdjust="spacing" textLength="73" x="270" y="770.4951">on valid JWT</text></g><!--MD5=[67cbe0c1d85eb99e680490353aad59f0]
link JWTMiddleware to JWTService--><g id="link_JWTMiddleware_JWTService"><path codeLine="74" d="M317.75,717.67 C361.5,745.95 425.53,787.35 473.81,818.56 " fill="none" id="JWTMiddleware-to-JWTService" style="stroke:#181818;stroke-width:1.0;stroke-dasharray:7.0,7.0;"/><polygon fill="#181818" points="478.14,821.36,472.7522,813.1155,473.9406,818.6461,468.41,819.8345,478.14,821.36" style="stroke:#181818;stroke-width:1.0;"/><text fill="#000000" font-family="sans-serif" font-size="13" lengthAdjust="spacing" textLength="127" x="405" y="770.4951">share JWT secret key</text></g><!--MD5=[4311fe831d319643efecfe4501bbfac8]
link ResourceController to Database--><g id="link_ResourceController_Database"><path codeLine="75" d="M319.84,904.75 C358.59,935.805 412.77,979.23 457.805,1015.325 C480.3225,1033.3725 500.5537,1049.5875 515.4269,1061.5075 C519.1452,1064.4875 522.5286,1067.1991 525.5291,1069.6037 C527.0293,1070.806 528.4339,1071.9316 529.7367,1072.9757 C530.3881,1073.4977 531.0141,1073.9994 531.6139,1074.48 C531.9138,1074.7203 532.2071,1074.9554 532.4938,1075.1852 C532.6372,1075.3001 532.7789,1075.4136 532.9189,1075.5258 " fill="none" id="ResourceController-to-Database" style="stroke:#181818;stroke-width:1.0;stroke-dasharray:7.0,7.0;"/><polygon fill="#181818" points="532.9189,1075.5258,528.3971,1066.7764,529.0172,1072.3992,523.3944,1073.0192,532.9189,1075.5258" style="stroke:#181818;stroke-width:1.0;"/><text fill="#000000" font-family="sans-serif" font-size="13" lengthAdjust="spacing" textLength="71" x="397" y="968.4951">access data</text></g><!--MD5=[8e9b8874ab40d15d07701f4f6c56122b]
@startuml

!define RECTANGLE class

package "Front-End Application" {
    RECTANGLE ComponentA {
        +specificRequestA()
    }
    RECTANGLE ComponentB {
        +specificRequestB()
    }
    RECTANGLE ComponentC {
        +specificRequestC()
    }
    RECTANGLE RoleBasedRouter {
        +checkAccess(component, userRole): boolean // Determines access to components
    }
    RECTANGLE HTTPInterceptor {
        +interceptRequest(): append JWT
    }
    RECTANGLE UserInterface {
        +login(username, password)
        +register(firstName, lastName, email, password)
        +receiveData()
    }
}

package "ASP NET Core C# Authentication Service" {
    RECTANGLE UserController {
        +login(email, password): JWT
        +register(firstName, lastName, email, password): boolean
    }
    RECTANGLE UserService {
        +validateCredentials(email, password): boolean
        +createUser(firstName, lastName, email, password): boolean
        +isValidEmail(email): boolean
        +isStrongPassword(password): boolean
    }
    RECTANGLE JWTService {
        +createToken(user): JWT
        +validateToken(token): boolean
    }
}

package "Nodejs Backend Service" {
    RECTANGLE JWTMiddleware {
        +validateJWT(token): userRole
    }
    RECTANGLE ResourceController {
        +handleRequest()
        +accessProtectedResources()
    }
}

database "Database" {
    folder "User Credentials" {
    }
    folder "Other Data" {
    }
}
UserInterface - -> RoleBasedRouter
RoleBasedRouter - -> ComponentA
RoleBasedRouter - -> ComponentB
RoleBasedRouter - -> ComponentC
ComponentA - -> HTTPInterceptor : intercepts all requests
ComponentB - -> HTTPInterceptor : intercepts all requests
ComponentC - -> HTTPInterceptor : intercepts all requests
UserInterface - -> UserController : requests login/register
UserController - -> UserService : validate & create new user
UserService - -> Database : store/retrieve user data
UserController - -> JWTService : create JWT
JWTService - -> Database : retrieve signing key/user claims
HTTPInterceptor - -> JWTMiddleware : sends requests with JWT
JWTMiddleware - -> ResourceController : on valid JWT
JWTMiddleware ..> JWTService : share JWT secret key
ResourceController ..> Database : access data

@enduml

@startuml


package "Front-End Application" {
    class ComponentA {
        +specificRequestA()
    }
    class ComponentB {
        +specificRequestB()
    }
    class ComponentC {
        +specificRequestC()
    }
    class RoleBasedRouter {
        +checkAccess(component, userRole): boolean // Determines access to components
    }
    class HTTPInterceptor {
        +interceptRequest(): append JWT
    }
    class UserInterface {
        +login(username, password)
        +register(firstName, lastName, email, password)
        +receiveData()
    }
}

package "ASP NET Core C# Authentication Service" {
    class UserController {
        +login(email, password): JWT
        +register(firstName, lastName, email, password): boolean
    }
    class UserService {
        +validateCredentials(email, password): boolean
        +createUser(firstName, lastName, email, password): boolean
        +isValidEmail(email): boolean
        +isStrongPassword(password): boolean
    }
    class JWTService {
        +createToken(user): JWT
        +validateToken(token): boolean
    }
}

package "Nodejs Backend Service" {
    class JWTMiddleware {
        +validateJWT(token): userRole
    }
    class ResourceController {
        +handleRequest()
        +accessProtectedResources()
    }
}

database "Database" {
    folder "User Credentials" {
    }
    folder "Other Data" {
    }
}
UserInterface - -> RoleBasedRouter
RoleBasedRouter - -> ComponentA
RoleBasedRouter - -> ComponentB
RoleBasedRouter - -> ComponentC
ComponentA - -> HTTPInterceptor : intercepts all requests
ComponentB - -> HTTPInterceptor : intercepts all requests
ComponentC - -> HTTPInterceptor : intercepts all requests
UserInterface - -> UserController : requests login/register
UserController - -> UserService : validate & create new user
UserService - -> Database : store/retrieve user data
UserController - -> JWTService : create JWT
JWTService - -> Database : retrieve signing key/user claims
HTTPInterceptor - -> JWTMiddleware : sends requests with JWT
JWTMiddleware - -> ResourceController : on valid JWT
JWTMiddleware ..> JWTService : share JWT secret key
ResourceController ..> Database : access data

@enduml

PlantUML version 1.2022.7(Mon Aug 22 18:01:30 WEST 2022)
(GPL source distribution)
Java Runtime: Java(TM) SE Runtime Environment
JVM: Java HotSpot(TM) 64-Bit Server VM
Default Encoding: Cp1252
Language: pt
Country: PT
--></g></svg>