<?xml version="1.0" encoding="UTF-8" standalone="no"?><svg xmlns="http://www.w3.org/2000/svg" xmlns:xlink="http://www.w3.org/1999/xlink" contentStyleType="text/css" height="1170px" preserveAspectRatio="none" style="width:1309px;height:1170px;background:#FFFFFF;" version="1.1" viewBox="0 0 1309 1170" width="1309px" zoomAndPan="magnify"><defs/><g><!--MD5=[c3c65af69787c9548d8258e3b57a042b]
cluster Front-End Application--><g id="cluster_Front-End Application"><path d="M8.5,6 L161.5,6 A3.75,3.75 0 0 1 164,8.5 L171,29.6094 L542.5,29.6094 A2.5,2.5 0 0 1 545,32.1094 L545,571.5 A2.5,2.5 0 0 1 542.5,574 L8.5,574 A2.5,2.5 0 0 1 6,571.5 L6,8.5 A2.5,2.5 0 0 1 8.5,6 " fill="none" style="stroke:#000000;stroke-width:1.5;"/><line style="stroke:#000000;stroke-width:1.5;" x1="6" x2="171" y1="29.6094" y2="29.6094"/><text fill="#000000" font-family="sans-serif" font-size="14" font-weight="bold" lengthAdjust="spacing" textLength="152" x="10" y="22.5332">Front-End Application</text></g><!--MD5=[223cc52c6bab4d119dd1fde3f3de42b8]
cluster ASP NET Core C# Authentication Service--><g id="cluster_ASP NET Core C# Authentication Service"><path d="M376.5,624 L659.5,624 A3.75,3.75 0 0 1 662,626.5 L669,647.6094 L1163.5,647.6094 A2.5,2.5 0 0 1 1166,650.1094 L1166,953.5 A2.5,2.5 0 0 1 1163.5,956 L376.5,956 A2.5,2.5 0 0 1 374,953.5 L374,626.5 A2.5,2.5 0 0 1 376.5,624 " fill="none" style="stroke:#000000;stroke-width:1.5;"/><line style="stroke:#000000;stroke-width:1.5;" x1="374" x2="669" y1="647.6094" y2="647.6094"/><text fill="#000000" font-family="sans-serif" font-size="14" font-weight="bold" lengthAdjust="spacing" textLength="282" x="378" y="640.5332">ASP NET Core C# Authentication Service</text></g><!--MD5=[81f969dab4564ca3db46003287b47e09]
cluster Nodejs Backend Service--><g id="cluster_Nodejs Backend Service"><path d="M110.5,641.5 L283.5,641.5 A3.75,3.75 0 0 1 286,644 L293,665.1094 L347.5,665.1094 A2.5,2.5 0 0 1 350,667.6094 L350,944.5 A2.5,2.5 0 0 1 347.5,947 L110.5,947 A2.5,2.5 0 0 1 108,944.5 L108,644 A2.5,2.5 0 0 1 110.5,641.5 " fill="none" style="stroke:#000000;stroke-width:1.5;"/><line style="stroke:#000000;stroke-width:1.5;" x1="108" x2="293" y1="665.1094" y2="665.1094"/><text fill="#000000" font-family="sans-serif" font-size="14" font-weight="bold" lengthAdjust="spacing" textLength="172" x="112" y="658.0332">Nodejs Backend Service</text></g><!--MD5=[815249f79c2c08157ac02b3106e03757]
cluster Database--><g id="cluster_Database"><path d="M579,1024 C579,1014 748,1014 748,1014 C748,1014 917,1014 917,1024 L917,1143 C917,1153 748,1153 748,1153 C748,1153 579,1153 579,1143 L579,1024 " fill="none" style="stroke:#181818;stroke-width:1.0;"/><path d="M579,1024 C579,1034 748,1034 748,1034 C748,1034 917,1034 917,1024 " fill="none" style="stroke:#181818;stroke-width:1.0;"/><text fill="#000000" font-family="sans-serif" font-size="14" font-weight="bold" lengthAdjust="spacing" textLength="65" x="715.5" y="1050.5332">Database</text></g><!--MD5=[e17b787d69906b3f274da0ab749c8979]
class ComponentA--><g id="elem_ComponentA"><rect codeLine="5" fill="#F1F1F1" height="65.6094" id="ComponentA" rx="2.5" ry="2.5" style="stroke:#181818;stroke-width:0.5;" width="145" x="22.5" y="348"/><ellipse cx="51.45" cy="364" fill="#ADD1B2" rx="11" ry="11" style="stroke:#181818;stroke-width:1.0;"/><path d="M54.2156,359.875 Q54.3719,359.6563 54.5594,359.5469 Q54.7469,359.4375 54.9656,359.4375 Q55.3406,359.4375 55.575,359.7031 Q55.8094,359.9531 55.8094,360.5625 L55.8094,362.0156 Q55.8094,362.625 55.575,362.8906 Q55.3406,363.1563 54.9656,363.1563 Q54.6219,363.1563 54.4188,362.9531 Q54.2156,362.7656 54.1063,362.25 Q54.0594,361.8906 53.8719,361.7031 Q53.5438,361.3281 52.9344,361.1094 Q52.325,360.8906 51.7,360.8906 Q50.9344,360.8906 50.2938,361.2188 Q49.6688,361.5469 49.1688,362.2969 Q48.6844,363.0469 48.6844,364.0781 L48.6844,365.1719 Q48.6844,366.4063 49.575,367.2344 Q50.4656,368.0469 52.0594,368.0469 Q52.9969,368.0469 53.6531,367.7969 Q54.0438,367.6406 54.4656,367.2031 Q54.7313,366.9375 54.8719,366.8594 Q55.0281,366.7813 55.2313,366.7813 Q55.5594,366.7813 55.8094,367.0469 Q56.075,367.2969 56.075,367.6406 Q56.075,367.9844 55.7313,368.3906 Q55.2313,368.9688 54.4344,369.2969 Q53.3563,369.75 52.0594,369.75 Q50.5438,369.75 49.3406,369.125 Q48.3563,368.625 47.6688,367.5625 Q46.9813,366.4844 46.9813,365.2031 L46.9813,364.0469 Q46.9813,362.7188 47.5906,361.5781 Q48.2156,360.4219 49.3094,359.8125 Q50.4031,359.1875 51.6375,359.1875 Q52.3719,359.1875 53.0125,359.3594 Q53.6688,359.5156 54.2156,359.875 Z " fill="#000000"/><text fill="#000000" font-family="sans-serif" font-size="14" lengthAdjust="spacing" textLength="82" x="68.55" y="369.7285">ComponentA</text><line style="stroke:#181818;stroke-width:0.5;" x1="23.5" x2="166.5" y1="380" y2="380"/><line style="stroke:#181818;stroke-width:0.5;" x1="23.5" x2="166.5" y1="388" y2="388"/><ellipse cx="33.5" cy="402.3047" fill="#84BE84" rx="3" ry="3" style="stroke:#038048;stroke-width:1.0;"/><text fill="#000000" font-family="sans-serif" font-size="14" lengthAdjust="spacing" textLength="119" x="42.5" y="406.5332">specificRequestA()</text></g><!--MD5=[2d23e4e546ad390fcff8976b2772dab8]
class ComponentB--><g id="elem_ComponentB"><rect codeLine="8" fill="#F1F1F1" height="65.6094" id="ComponentB" rx="2.5" ry="2.5" style="stroke:#181818;stroke-width:0.5;" width="145" x="202.5" y="348"/><ellipse cx="231.45" cy="364" fill="#ADD1B2" rx="11" ry="11" style="stroke:#181818;stroke-width:1.0;"/><path d="M234.2156,359.875 Q234.3719,359.6563 234.5594,359.5469 Q234.7469,359.4375 234.9656,359.4375 Q235.3406,359.4375 235.575,359.7031 Q235.8094,359.9531 235.8094,360.5625 L235.8094,362.0156 Q235.8094,362.625 235.575,362.8906 Q235.3406,363.1563 234.9656,363.1563 Q234.6219,363.1563 234.4188,362.9531 Q234.2156,362.7656 234.1063,362.25 Q234.0594,361.8906 233.8719,361.7031 Q233.5438,361.3281 232.9344,361.1094 Q232.325,360.8906 231.7,360.8906 Q230.9344,360.8906 230.2938,361.2188 Q229.6688,361.5469 229.1688,362.2969 Q228.6844,363.0469 228.6844,364.0781 L228.6844,365.1719 Q228.6844,366.4063 229.575,367.2344 Q230.4656,368.0469 232.0594,368.0469 Q232.9969,368.0469 233.6531,367.7969 Q234.0438,367.6406 234.4656,367.2031 Q234.7313,366.9375 234.8719,366.8594 Q235.0281,366.7813 235.2313,366.7813 Q235.5594,366.7813 235.8094,367.0469 Q236.075,367.2969 236.075,367.6406 Q236.075,367.9844 235.7313,368.3906 Q235.2313,368.9688 234.4344,369.2969 Q233.3563,369.75 232.0594,369.75 Q230.5438,369.75 229.3406,369.125 Q228.3563,368.625 227.6688,367.5625 Q226.9813,366.4844 226.9813,365.2031 L226.9813,364.0469 Q226.9813,362.7188 227.5906,361.5781 Q228.2156,360.4219 229.3094,359.8125 Q230.4031,359.1875 231.6375,359.1875 Q232.3719,359.1875 233.0125,359.3594 Q233.6688,359.5156 234.2156,359.875 Z " fill="#000000"/><text fill="#000000" font-family="sans-serif" font-size="14" lengthAdjust="spacing" textLength="82" x="248.55" y="369.7285">ComponentB</text><line style="stroke:#181818;stroke-width:0.5;" x1="203.5" x2="346.5" y1="380" y2="380"/><line style="stroke:#181818;stroke-width:0.5;" x1="203.5" x2="346.5" y1="388" y2="388"/><ellipse cx="213.5" cy="402.3047" fill="#84BE84" rx="3" ry="3" style="stroke:#038048;stroke-width:1.0;"/><text fill="#000000" font-family="sans-serif" font-size="14" lengthAdjust="spacing" textLength="119" x="222.5" y="406.5332">specificRequestB()</text></g><!--MD5=[e6d1a495bc7bb1d100b4f2c4ad4e5681]
class ComponentC--><g id="elem_ComponentC"><rect codeLine="11" fill="#F1F1F1" height="65.6094" id="ComponentC" rx="2.5" ry="2.5" style="stroke:#181818;stroke-width:0.5;" width="146" x="383" y="348"/><ellipse cx="411.95" cy="364" fill="#ADD1B2" rx="11" ry="11" style="stroke:#181818;stroke-width:1.0;"/><path d="M414.7156,359.875 Q414.8719,359.6563 415.0594,359.5469 Q415.2469,359.4375 415.4656,359.4375 Q415.8406,359.4375 416.075,359.7031 Q416.3094,359.9531 416.3094,360.5625 L416.3094,362.0156 Q416.3094,362.625 416.075,362.8906 Q415.8406,363.1563 415.4656,363.1563 Q415.1219,363.1563 414.9188,362.9531 Q414.7156,362.7656 414.6063,362.25 Q414.5594,361.8906 414.3719,361.7031 Q414.0438,361.3281 413.4344,361.1094 Q412.825,360.8906 412.2,360.8906 Q411.4344,360.8906 410.7938,361.2188 Q410.1688,361.5469 409.6688,362.2969 Q409.1844,363.0469 409.1844,364.0781 L409.1844,365.1719 Q409.1844,366.4063 410.075,367.2344 Q410.9656,368.0469 412.5594,368.0469 Q413.4969,368.0469 414.1531,367.7969 Q414.5438,367.6406 414.9656,367.2031 Q415.2313,366.9375 415.3719,366.8594 Q415.5281,366.7813 415.7313,366.7813 Q416.0594,366.7813 416.3094,367.0469 Q416.575,367.2969 416.575,367.6406 Q416.575,367.9844 416.2313,368.3906 Q415.7313,368.9688 414.9344,369.2969 Q413.8563,369.75 412.5594,369.75 Q411.0438,369.75 409.8406,369.125 Q408.8563,368.625 408.1688,367.5625 Q407.4813,366.4844 407.4813,365.2031 L407.4813,364.0469 Q407.4813,362.7188 408.0906,361.5781 Q408.7156,360.4219 409.8094,359.8125 Q410.9031,359.1875 412.1375,359.1875 Q412.8719,359.1875 413.5125,359.3594 Q414.1688,359.5156 414.7156,359.875 Z " fill="#000000"/><text fill="#000000" font-family="sans-serif" font-size="14" lengthAdjust="spacing" textLength="83" x="429.05" y="369.7285">ComponentC</text><line style="stroke:#181818;stroke-width:0.5;" x1="384" x2="528" y1="380" y2="380"/><line style="stroke:#181818;stroke-width:0.5;" x1="384" x2="528" y1="388" y2="388"/><ellipse cx="394" cy="402.3047" fill="#84BE84" rx="3" ry="3" style="stroke:#038048;stroke-width:1.0;"/><text fill="#000000" font-family="sans-serif" font-size="14" lengthAdjust="spacing" textLength="120" x="403" y="406.5332">specificRequestC()</text></g><!--MD5=[81a1b4587c44d2d0cfc5dd147889dce9]
class RoleBasedRouter--><g id="elem_RoleBasedRouter"><rect codeLine="14" fill="#F1F1F1" height="65.6094" id="RoleBasedRouter" rx="2.5" ry="2.5" style="stroke:#181818;stroke-width:0.5;" width="312" x="155" y="221"/><ellipse cx="250.75" cy="237" fill="#ADD1B2" rx="11" ry="11" style="stroke:#181818;stroke-width:1.0;"/><path d="M253.5156,232.875 Q253.6719,232.6563 253.8594,232.5469 Q254.0469,232.4375 254.2656,232.4375 Q254.6406,232.4375 254.875,232.7031 Q255.1094,232.9531 255.1094,233.5625 L255.1094,235.0156 Q255.1094,235.625 254.875,235.8906 Q254.6406,236.1563 254.2656,236.1563 Q253.9219,236.1563 253.7188,235.9531 Q253.5156,235.7656 253.4063,235.25 Q253.3594,234.8906 253.1719,234.7031 Q252.8438,234.3281 252.2344,234.1094 Q251.625,233.8906 251,233.8906 Q250.2344,233.8906 249.5938,234.2188 Q248.9688,234.5469 248.4688,235.2969 Q247.9844,236.0469 247.9844,237.0781 L247.9844,238.1719 Q247.9844,239.4063 248.875,240.2344 Q249.7656,241.0469 251.3594,241.0469 Q252.2969,241.0469 252.9531,240.7969 Q253.3438,240.6406 253.7656,240.2031 Q254.0313,239.9375 254.1719,239.8594 Q254.3281,239.7813 254.5313,239.7813 Q254.8594,239.7813 255.1094,240.0469 Q255.375,240.2969 255.375,240.6406 Q255.375,240.9844 255.0313,241.3906 Q254.5313,241.9688 253.7344,242.2969 Q252.6563,242.75 251.3594,242.75 Q249.8438,242.75 248.6406,242.125 Q247.6563,241.625 246.9688,240.5625 Q246.2813,239.4844 246.2813,238.2031 L246.2813,237.0469 Q246.2813,235.7188 246.8906,234.5781 Q247.5156,233.4219 248.6094,232.8125 Q249.7031,232.1875 250.9375,232.1875 Q251.6719,232.1875 252.3125,232.3594 Q252.9688,232.5156 253.5156,232.875 Z " fill="#000000"/><text fill="#000000" font-family="sans-serif" font-size="14" lengthAdjust="spacing" textLength="112" x="271.25" y="242.7285">RoleBasedRouter</text><line style="stroke:#181818;stroke-width:0.5;" x1="156" x2="466" y1="253" y2="253"/><line style="stroke:#181818;stroke-width:0.5;" x1="156" x2="466" y1="261" y2="261"/><ellipse cx="166" cy="275.3047" fill="#84BE84" rx="3" ry="3" style="stroke:#038048;stroke-width:1.0;"/><text fill="#000000" font-family="sans-serif" font-size="14" lengthAdjust="spacing" textLength="286" x="175" y="279.5332">checkAccess(component, userRole): boolean</text></g><!--MD5=[6805b36f06db60eb9f0ea8a9d1374c9d]
class HTTPInterceptor--><g id="elem_HTTPInterceptor"><rect codeLine="17" fill="#F1F1F1" height="65.6094" id="HTTPInterceptor" rx="2.5" ry="2.5" style="stroke:#181818;stroke-width:0.5;" width="232" x="113" y="492"/><ellipse cx="172.75" cy="508" fill="#ADD1B2" rx="11" ry="11" style="stroke:#181818;stroke-width:1.0;"/><path d="M175.5156,503.875 Q175.6719,503.6563 175.8594,503.5469 Q176.0469,503.4375 176.2656,503.4375 Q176.6406,503.4375 176.875,503.7031 Q177.1094,503.9531 177.1094,504.5625 L177.1094,506.0156 Q177.1094,506.625 176.875,506.8906 Q176.6406,507.1563 176.2656,507.1563 Q175.9219,507.1563 175.7188,506.9531 Q175.5156,506.7656 175.4063,506.25 Q175.3594,505.8906 175.1719,505.7031 Q174.8438,505.3281 174.2344,505.1094 Q173.625,504.8906 173,504.8906 Q172.2344,504.8906 171.5938,505.2188 Q170.9688,505.5469 170.4688,506.2969 Q169.9844,507.0469 169.9844,508.0781 L169.9844,509.1719 Q169.9844,510.4063 170.875,511.2344 Q171.7656,512.0469 173.3594,512.0469 Q174.2969,512.0469 174.9531,511.7969 Q175.3438,511.6406 175.7656,511.2031 Q176.0313,510.9375 176.1719,510.8594 Q176.3281,510.7813 176.5313,510.7813 Q176.8594,510.7813 177.1094,511.0469 Q177.375,511.2969 177.375,511.6406 Q177.375,511.9844 177.0313,512.3906 Q176.5313,512.9688 175.7344,513.2969 Q174.6563,513.75 173.3594,513.75 Q171.8438,513.75 170.6406,513.125 Q169.6563,512.625 168.9688,511.5625 Q168.2813,510.4844 168.2813,509.2031 L168.2813,508.0469 Q168.2813,506.7188 168.8906,505.5781 Q169.5156,504.4219 170.6094,503.8125 Q171.7031,503.1875 172.9375,503.1875 Q173.6719,503.1875 174.3125,503.3594 Q174.9688,503.5156 175.5156,503.875 Z " fill="#000000"/><text fill="#000000" font-family="sans-serif" font-size="14" lengthAdjust="spacing" textLength="104" x="193.25" y="513.7285">HTTPInterceptor</text><line style="stroke:#181818;stroke-width:0.5;" x1="114" x2="344" y1="524" y2="524"/><line style="stroke:#181818;stroke-width:0.5;" x1="114" x2="344" y1="532" y2="532"/><ellipse cx="124" cy="546.3047" fill="#84BE84" rx="3" ry="3" style="stroke:#038048;stroke-width:1.0;"/><text fill="#000000" font-family="sans-serif" font-size="14" lengthAdjust="spacing" textLength="206" x="133" y="550.5332">interceptRequest(): append JWT</text></g><!--MD5=[a7661dae5b0d701614a666888c8235ba]
class UserInterface--><g id="elem_UserInterface"><rect codeLine="20" fill="#F1F1F1" height="118.4375" id="UserInterface" rx="2.5" ry="2.5" style="stroke:#181818;stroke-width:0.5;" width="318" x="164" y="42"/><ellipse cx="276.75" cy="58" fill="#ADD1B2" rx="11" ry="11" style="stroke:#181818;stroke-width:1.0;"/><path d="M279.5156,53.875 Q279.6719,53.6563 279.8594,53.5469 Q280.0469,53.4375 280.2656,53.4375 Q280.6406,53.4375 280.875,53.7031 Q281.1094,53.9531 281.1094,54.5625 L281.1094,56.0156 Q281.1094,56.625 280.875,56.8906 Q280.6406,57.1563 280.2656,57.1563 Q279.9219,57.1563 279.7188,56.9531 Q279.5156,56.7656 279.4063,56.25 Q279.3594,55.8906 279.1719,55.7031 Q278.8438,55.3281 278.2344,55.1094 Q277.625,54.8906 277,54.8906 Q276.2344,54.8906 275.5938,55.2188 Q274.9688,55.5469 274.4688,56.2969 Q273.9844,57.0469 273.9844,58.0781 L273.9844,59.1719 Q273.9844,60.4063 274.875,61.2344 Q275.7656,62.0469 277.3594,62.0469 Q278.2969,62.0469 278.9531,61.7969 Q279.3438,61.6406 279.7656,61.2031 Q280.0313,60.9375 280.1719,60.8594 Q280.3281,60.7813 280.5313,60.7813 Q280.8594,60.7813 281.1094,61.0469 Q281.375,61.2969 281.375,61.6406 Q281.375,61.9844 281.0313,62.3906 Q280.5313,62.9688 279.7344,63.2969 Q278.6563,63.75 277.3594,63.75 Q275.8438,63.75 274.6406,63.125 Q273.6563,62.625 272.9688,61.5625 Q272.2813,60.4844 272.2813,59.2031 L272.2813,58.0469 Q272.2813,56.7188 272.8906,55.5781 Q273.5156,54.4219 274.6094,53.8125 Q275.7031,53.1875 276.9375,53.1875 Q277.6719,53.1875 278.3125,53.3594 Q278.9688,53.5156 279.5156,53.875 Z " fill="#000000"/><text fill="#000000" font-family="sans-serif" font-size="14" lengthAdjust="spacing" textLength="84" x="297.25" y="63.7285">UserInterface</text><line style="stroke:#181818;stroke-width:0.5;" x1="165" x2="481" y1="74" y2="74"/><line style="stroke:#181818;stroke-width:0.5;" x1="165" x2="481" y1="82" y2="82"/><ellipse cx="175" cy="96.3047" fill="#84BE84" rx="3" ry="3" style="stroke:#038048;stroke-width:1.0;"/><text fill="#000000" font-family="sans-serif" font-size="14" lengthAdjust="spacing" textLength="171" x="184" y="100.5332">login(username, password)</text><ellipse cx="175" cy="113.9141" fill="#84BE84" rx="3" ry="3" style="stroke:#038048;stroke-width:1.0;"/><text fill="#000000" font-family="sans-serif" font-size="14" lengthAdjust="spacing" textLength="292" x="184" y="118.1426">register(firstName, lastName, email, password)</text><ellipse cx="175" cy="131.5234" fill="#84BE84" rx="3" ry="3" style="stroke:#038048;stroke-width:1.0;"/><text fill="#000000" font-family="sans-serif" font-size="14" lengthAdjust="spacing" textLength="243" x="184" y="135.752">deleteAccount(userID, token): boolean</text><ellipse cx="175" cy="149.1328" fill="#84BE84" rx="3" ry="3" style="stroke:#038048;stroke-width:1.0;"/><text fill="#000000" font-family="sans-serif" font-size="14" lengthAdjust="spacing" textLength="86" x="184" y="153.3613">receiveData()</text></g><!--MD5=[dd9f07b33c9809f2f023aa52193c054c]
class AuthenticationBuilder--><g id="elem_AuthenticationBuilder"><rect codeLine="29" fill="#F1F1F1" height="65.6094" id="AuthenticationBuilder" rx="2.5" ry="2.5" style="stroke:#181818;stroke-width:0.5;" width="213" x="936.5" y="677.5"/><ellipse cx="972.65" cy="693.5" fill="#ADD1B2" rx="11" ry="11" style="stroke:#181818;stroke-width:1.0;"/><path d="M975.4156,689.375 Q975.5719,689.1563 975.7594,689.0469 Q975.9469,688.9375 976.1656,688.9375 Q976.5406,688.9375 976.775,689.2031 Q977.0094,689.4531 977.0094,690.0625 L977.0094,691.5156 Q977.0094,692.125 976.775,692.3906 Q976.5406,692.6563 976.1656,692.6563 Q975.8219,692.6563 975.6188,692.4531 Q975.4156,692.2656 975.3063,691.75 Q975.2594,691.3906 975.0719,691.2031 Q974.7438,690.8281 974.1344,690.6094 Q973.525,690.3906 972.9,690.3906 Q972.1344,690.3906 971.4938,690.7188 Q970.8688,691.0469 970.3688,691.7969 Q969.8844,692.5469 969.8844,693.5781 L969.8844,694.6719 Q969.8844,695.9063 970.775,696.7344 Q971.6656,697.5469 973.2594,697.5469 Q974.1969,697.5469 974.8531,697.2969 Q975.2438,697.1406 975.6656,696.7031 Q975.9313,696.4375 976.0719,696.3594 Q976.2281,696.2813 976.4313,696.2813 Q976.7594,696.2813 977.0094,696.5469 Q977.275,696.7969 977.275,697.1406 Q977.275,697.4844 976.9313,697.8906 Q976.4313,698.4688 975.6344,698.7969 Q974.5563,699.25 973.2594,699.25 Q971.7438,699.25 970.5406,698.625 Q969.5563,698.125 968.8688,697.0625 Q968.1813,695.9844 968.1813,694.7031 L968.1813,693.5469 Q968.1813,692.2188 968.7906,691.0781 Q969.4156,689.9219 970.5094,689.3125 Q971.6031,688.6875 972.8375,688.6875 Q973.5719,688.6875 974.2125,688.8594 Q974.8688,689.0156 975.4156,689.375 Z " fill="#000000"/><text fill="#000000" font-family="sans-serif" font-size="14" lengthAdjust="spacing" textLength="134" x="991.35" y="699.2285">AuthenticationBuilder</text><line style="stroke:#181818;stroke-width:0.5;" x1="937.5" x2="1148.5" y1="709.5" y2="709.5"/><line style="stroke:#181818;stroke-width:0.5;" x1="937.5" x2="1148.5" y1="717.5" y2="717.5"/><ellipse cx="947.5" cy="731.8047" fill="#84BE84" rx="3" ry="3" style="stroke:#038048;stroke-width:1.0;"/><text fill="#000000" font-family="sans-serif" font-size="14" lengthAdjust="spacing" textLength="187" x="956.5" y="736.0332">configureJWTAuthentication()</text></g><!--MD5=[29f97d496cbdc4ec81664c6d94dc9bf6]
class UserController--><g id="elem_UserController"><rect codeLine="32" fill="#F1F1F1" height="100.8281" id="UserController" rx="2.5" ry="2.5" style="stroke:#181818;stroke-width:0.5;" width="365" x="416.5" y="660"/><ellipse cx="549.25" cy="676" fill="#ADD1B2" rx="11" ry="11" style="stroke:#181818;stroke-width:1.0;"/><path d="M552.0156,671.875 Q552.1719,671.6563 552.3594,671.5469 Q552.5469,671.4375 552.7656,671.4375 Q553.1406,671.4375 553.375,671.7031 Q553.6094,671.9531 553.6094,672.5625 L553.6094,674.0156 Q553.6094,674.625 553.375,674.8906 Q553.1406,675.1563 552.7656,675.1563 Q552.4219,675.1563 552.2188,674.9531 Q552.0156,674.7656 551.9063,674.25 Q551.8594,673.8906 551.6719,673.7031 Q551.3438,673.3281 550.7344,673.1094 Q550.125,672.8906 549.5,672.8906 Q548.7344,672.8906 548.0938,673.2188 Q547.4688,673.5469 546.9688,674.2969 Q546.4844,675.0469 546.4844,676.0781 L546.4844,677.1719 Q546.4844,678.4063 547.375,679.2344 Q548.2656,680.0469 549.8594,680.0469 Q550.7969,680.0469 551.4531,679.7969 Q551.8438,679.6406 552.2656,679.2031 Q552.5313,678.9375 552.6719,678.8594 Q552.8281,678.7813 553.0313,678.7813 Q553.3594,678.7813 553.6094,679.0469 Q553.875,679.2969 553.875,679.6406 Q553.875,679.9844 553.5313,680.3906 Q553.0313,680.9688 552.2344,681.2969 Q551.1563,681.75 549.8594,681.75 Q548.3438,681.75 547.1406,681.125 Q546.1563,680.625 545.4688,679.5625 Q544.7813,678.4844 544.7813,677.2031 L544.7813,676.0469 Q544.7813,674.7188 545.3906,673.5781 Q546.0156,672.4219 547.1094,671.8125 Q548.2031,671.1875 549.4375,671.1875 Q550.1719,671.1875 550.8125,671.3594 Q551.4688,671.5156 552.0156,671.875 Z " fill="#000000"/><text fill="#000000" font-family="sans-serif" font-size="14" lengthAdjust="spacing" textLength="91" x="569.75" y="681.7285">UserController</text><line style="stroke:#181818;stroke-width:0.5;" x1="417.5" x2="780.5" y1="692" y2="692"/><line style="stroke:#181818;stroke-width:0.5;" x1="417.5" x2="780.5" y1="700" y2="700"/><ellipse cx="427.5" cy="714.3047" fill="#84BE84" rx="3" ry="3" style="stroke:#038048;stroke-width:1.0;"/><text fill="#000000" font-family="sans-serif" font-size="14" lengthAdjust="spacing" textLength="252" x="436.5" y="718.5332">Login(LoginUserDTO):Task&lt;TokenDto&gt;</text><ellipse cx="427.5" cy="731.9141" fill="#84BE84" rx="3" ry="3" style="stroke:#038048;stroke-width:1.0;"/><text fill="#000000" font-family="sans-serif" font-size="14" lengthAdjust="spacing" textLength="311" x="436.5" y="736.1426">Register(CreateUserDto): Task&lt;RegisteredDTO&gt;</text><ellipse cx="427.5" cy="749.5234" fill="#84BE84" rx="3" ry="3" style="stroke:#038048;stroke-width:1.0;"/><text fill="#000000" font-family="sans-serif" font-size="14" lengthAdjust="spacing" textLength="339" x="436.5" y="753.752">DeleteAcc(AccountDeletionDto): Task&lt;IdentityResult&gt;</text></g><!--MD5=[e4ac4745f81aec2db60ad4ddae80b659]
class UserService--><g id="elem_UserService"><rect codeLine="37" fill="#F1F1F1" height="100.8281" id="UserService" rx="2.5" ry="2.5" style="stroke:#181818;stroke-width:0.5;" width="393" x="390.5" y="839"/><ellipse cx="544.75" cy="855" fill="#ADD1B2" rx="11" ry="11" style="stroke:#181818;stroke-width:1.0;"/><path d="M547.5156,850.875 Q547.6719,850.6563 547.8594,850.5469 Q548.0469,850.4375 548.2656,850.4375 Q548.6406,850.4375 548.875,850.7031 Q549.1094,850.9531 549.1094,851.5625 L549.1094,853.0156 Q549.1094,853.625 548.875,853.8906 Q548.6406,854.1563 548.2656,854.1563 Q547.9219,854.1563 547.7188,853.9531 Q547.5156,853.7656 547.4063,853.25 Q547.3594,852.8906 547.1719,852.7031 Q546.8438,852.3281 546.2344,852.1094 Q545.625,851.8906 545,851.8906 Q544.2344,851.8906 543.5938,852.2188 Q542.9688,852.5469 542.4688,853.2969 Q541.9844,854.0469 541.9844,855.0781 L541.9844,856.1719 Q541.9844,857.4063 542.875,858.2344 Q543.7656,859.0469 545.3594,859.0469 Q546.2969,859.0469 546.9531,858.7969 Q547.3438,858.6406 547.7656,858.2031 Q548.0313,857.9375 548.1719,857.8594 Q548.3281,857.7813 548.5313,857.7813 Q548.8594,857.7813 549.1094,858.0469 Q549.375,858.2969 549.375,858.6406 Q549.375,858.9844 549.0313,859.3906 Q548.5313,859.9688 547.7344,860.2969 Q546.6563,860.75 545.3594,860.75 Q543.8438,860.75 542.6406,860.125 Q541.6563,859.625 540.9688,858.5625 Q540.2813,857.4844 540.2813,856.2031 L540.2813,855.0469 Q540.2813,853.7188 540.8906,852.5781 Q541.5156,851.4219 542.6094,850.8125 Q543.7031,850.1875 544.9375,850.1875 Q545.6719,850.1875 546.3125,850.3594 Q546.9688,850.5156 547.5156,850.875 Z " fill="#000000"/><text fill="#000000" font-family="sans-serif" font-size="14" lengthAdjust="spacing" textLength="76" x="565.25" y="860.7285">UserService</text><line style="stroke:#181818;stroke-width:0.5;" x1="391.5" x2="782.5" y1="871" y2="871"/><line style="stroke:#181818;stroke-width:0.5;" x1="391.5" x2="782.5" y1="879" y2="879"/><ellipse cx="401.5" cy="893.3047" fill="#84BE84" rx="3" ry="3" style="stroke:#038048;stroke-width:1.0;"/><text fill="#000000" font-family="sans-serif" font-size="14" lengthAdjust="spacing" textLength="248" x="410.5" y="897.5332">Login(LoginUserDto): Task&lt;TokenDto&gt;</text><ellipse cx="401.5" cy="910.9141" fill="#84BE84" rx="3" ry="3" style="stroke:#038048;stroke-width:1.0;"/><text fill="#000000" font-family="sans-serif" font-size="14" lengthAdjust="spacing" textLength="311" x="410.5" y="915.1426">Register(CreateUserDto): Task&lt;RegisteredDTO&gt;</text><ellipse cx="401.5" cy="928.5234" fill="#84BE84" rx="3" ry="3" style="stroke:#038048;stroke-width:1.0;"/><text fill="#000000" font-family="sans-serif" font-size="14" lengthAdjust="spacing" textLength="367" x="410.5" y="932.752">DeleteAccount(AccountDeletionDto): Task&lt;IdentityResult&gt;</text></g><!--MD5=[47498f7a67132d2f5a0d4e8eae8ae39c]
class JWTService--><g id="elem_JWTService"><rect codeLine="42" fill="#F1F1F1" height="65.6094" id="JWTService" rx="2.5" ry="2.5" style="stroke:#181818;stroke-width:0.5;" width="331" x="818.5" y="856.5"/><ellipse cx="942.25" cy="872.5" fill="#ADD1B2" rx="11" ry="11" style="stroke:#181818;stroke-width:1.0;"/><path d="M945.0156,868.375 Q945.1719,868.1563 945.3594,868.0469 Q945.5469,867.9375 945.7656,867.9375 Q946.1406,867.9375 946.375,868.2031 Q946.6094,868.4531 946.6094,869.0625 L946.6094,870.5156 Q946.6094,871.125 946.375,871.3906 Q946.1406,871.6563 945.7656,871.6563 Q945.4219,871.6563 945.2188,871.4531 Q945.0156,871.2656 944.9063,870.75 Q944.8594,870.3906 944.6719,870.2031 Q944.3438,869.8281 943.7344,869.6094 Q943.125,869.3906 942.5,869.3906 Q941.7344,869.3906 941.0938,869.7188 Q940.4688,870.0469 939.9688,870.7969 Q939.4844,871.5469 939.4844,872.5781 L939.4844,873.6719 Q939.4844,874.9063 940.375,875.7344 Q941.2656,876.5469 942.8594,876.5469 Q943.7969,876.5469 944.4531,876.2969 Q944.8438,876.1406 945.2656,875.7031 Q945.5313,875.4375 945.6719,875.3594 Q945.8281,875.2813 946.0313,875.2813 Q946.3594,875.2813 946.6094,875.5469 Q946.875,875.7969 946.875,876.1406 Q946.875,876.4844 946.5313,876.8906 Q946.0313,877.4688 945.2344,877.7969 Q944.1563,878.25 942.8594,878.25 Q941.3438,878.25 940.1406,877.625 Q939.1563,877.125 938.4688,876.0625 Q937.7813,874.9844 937.7813,873.7031 L937.7813,872.5469 Q937.7813,871.2188 938.3906,870.0781 Q939.0156,868.9219 940.1094,868.3125 Q941.2031,867.6875 942.4375,867.6875 Q943.1719,867.6875 943.8125,867.8594 Q944.4688,868.0156 945.0156,868.375 Z " fill="#000000"/><text fill="#000000" font-family="sans-serif" font-size="14" lengthAdjust="spacing" textLength="75" x="962.75" y="878.2285">JWTService</text><line style="stroke:#181818;stroke-width:0.5;" x1="819.5" x2="1148.5" y1="888.5" y2="888.5"/><line style="stroke:#181818;stroke-width:0.5;" x1="819.5" x2="1148.5" y1="896.5" y2="896.5"/><ellipse cx="829.5" cy="910.8047" fill="#84BE84" rx="3" ry="3" style="stroke:#038048;stroke-width:1.0;"/><text fill="#000000" font-family="sans-serif" font-size="14" lengthAdjust="spacing" textLength="305" x="838.5" y="915.0332">createToken(ApplicationUser): Task&lt;TokenDto&gt;</text></g><!--MD5=[a3367105b15dcd4f5736d4be15178d86]
class JWTMiddleware--><g id="elem_JWTMiddleware"><rect codeLine="48" fill="#F1F1F1" height="65.6094" id="JWTMiddleware" rx="2.5" ry="2.5" style="stroke:#181818;stroke-width:0.5;" width="148" x="155" y="677.5"/><ellipse cx="177.65" cy="693.5" fill="#ADD1B2" rx="11" ry="11" style="stroke:#181818;stroke-width:1.0;"/><path d="M180.4156,689.375 Q180.5719,689.1563 180.7594,689.0469 Q180.9469,688.9375 181.1656,688.9375 Q181.5406,688.9375 181.775,689.2031 Q182.0094,689.4531 182.0094,690.0625 L182.0094,691.5156 Q182.0094,692.125 181.775,692.3906 Q181.5406,692.6563 181.1656,692.6563 Q180.8219,692.6563 180.6188,692.4531 Q180.4156,692.2656 180.3063,691.75 Q180.2594,691.3906 180.0719,691.2031 Q179.7438,690.8281 179.1344,690.6094 Q178.525,690.3906 177.9,690.3906 Q177.1344,690.3906 176.4938,690.7188 Q175.8688,691.0469 175.3688,691.7969 Q174.8844,692.5469 174.8844,693.5781 L174.8844,694.6719 Q174.8844,695.9063 175.775,696.7344 Q176.6656,697.5469 178.2594,697.5469 Q179.1969,697.5469 179.8531,697.2969 Q180.2438,697.1406 180.6656,696.7031 Q180.9313,696.4375 181.0719,696.3594 Q181.2281,696.2813 181.4313,696.2813 Q181.7594,696.2813 182.0094,696.5469 Q182.275,696.7969 182.275,697.1406 Q182.275,697.4844 181.9313,697.8906 Q181.4313,698.4688 180.6344,698.7969 Q179.5563,699.25 178.2594,699.25 Q176.7438,699.25 175.5406,698.625 Q174.5563,698.125 173.8688,697.0625 Q173.1813,695.9844 173.1813,694.7031 L173.1813,693.5469 Q173.1813,692.2188 173.7906,691.0781 Q174.4156,689.9219 175.5094,689.3125 Q176.6031,688.6875 177.8375,688.6875 Q178.5719,688.6875 179.2125,688.8594 Q179.8688,689.0156 180.4156,689.375 Z " fill="#000000"/><text fill="#000000" font-family="sans-serif" font-size="14" lengthAdjust="spacing" textLength="99" x="193.35" y="699.2285">JWTMiddleware</text><line style="stroke:#181818;stroke-width:0.5;" x1="156" x2="302" y1="709.5" y2="709.5"/><line style="stroke:#181818;stroke-width:0.5;" x1="156" x2="302" y1="717.5" y2="717.5"/><ellipse cx="166" cy="731.8047" fill="#84BE84" rx="3" ry="3" style="stroke:#038048;stroke-width:1.0;"/><text fill="#000000" font-family="sans-serif" font-size="14" lengthAdjust="spacing" textLength="122" x="175" y="736.0332">validateJWT(token)</text></g><!--MD5=[5d027b2cfe067d0deeb679fdca23b54e]
class ResourceController--><g id="elem_ResourceController"><rect codeLine="51" fill="#F1F1F1" height="83.2188" id="ResourceController" rx="2.5" ry="2.5" style="stroke:#181818;stroke-width:0.5;" width="209" x="124.5" y="848"/><ellipse cx="163.8" cy="864" fill="#ADD1B2" rx="11" ry="11" style="stroke:#181818;stroke-width:1.0;"/><path d="M166.5656,859.875 Q166.7219,859.6563 166.9094,859.5469 Q167.0969,859.4375 167.3156,859.4375 Q167.6906,859.4375 167.925,859.7031 Q168.1594,859.9531 168.1594,860.5625 L168.1594,862.0156 Q168.1594,862.625 167.925,862.8906 Q167.6906,863.1563 167.3156,863.1563 Q166.9719,863.1563 166.7688,862.9531 Q166.5656,862.7656 166.4563,862.25 Q166.4094,861.8906 166.2219,861.7031 Q165.8938,861.3281 165.2844,861.1094 Q164.675,860.8906 164.05,860.8906 Q163.2844,860.8906 162.6438,861.2188 Q162.0188,861.5469 161.5188,862.2969 Q161.0344,863.0469 161.0344,864.0781 L161.0344,865.1719 Q161.0344,866.4063 161.925,867.2344 Q162.8156,868.0469 164.4094,868.0469 Q165.3469,868.0469 166.0031,867.7969 Q166.3938,867.6406 166.8156,867.2031 Q167.0813,866.9375 167.2219,866.8594 Q167.3781,866.7813 167.5813,866.7813 Q167.9094,866.7813 168.1594,867.0469 Q168.425,867.2969 168.425,867.6406 Q168.425,867.9844 168.0813,868.3906 Q167.5813,868.9688 166.7844,869.2969 Q165.7063,869.75 164.4094,869.75 Q162.8938,869.75 161.6906,869.125 Q160.7063,868.625 160.0188,867.5625 Q159.3313,866.4844 159.3313,865.2031 L159.3313,864.0469 Q159.3313,862.7188 159.9406,861.5781 Q160.5656,860.4219 161.6594,859.8125 Q162.7531,859.1875 163.9875,859.1875 Q164.7219,859.1875 165.3625,859.3594 Q166.0188,859.5156 166.5656,859.875 Z " fill="#000000"/><text fill="#000000" font-family="sans-serif" font-size="14" lengthAdjust="spacing" textLength="123" x="183.2" y="869.7285">ResourceController</text><line style="stroke:#181818;stroke-width:0.5;" x1="125.5" x2="332.5" y1="880" y2="880"/><line style="stroke:#181818;stroke-width:0.5;" x1="125.5" x2="332.5" y1="888" y2="888"/><ellipse cx="135.5" cy="902.3047" fill="#84BE84" rx="3" ry="3" style="stroke:#038048;stroke-width:1.0;"/><text fill="#000000" font-family="sans-serif" font-size="14" lengthAdjust="spacing" textLength="106" x="144.5" y="906.5332">handleRequest()</text><ellipse cx="135.5" cy="919.9141" fill="#84BE84" rx="3" ry="3" style="stroke:#038048;stroke-width:1.0;"/><text fill="#000000" font-family="sans-serif" font-size="14" lengthAdjust="spacing" textLength="183" x="144.5" y="924.1426">accessProtectedResources()</text></g><!--MD5=[e69b582cd1b7007d3736a8dd0fccc43d]
entity User Credentials--><g id="elem_User Credentials"><path d="M760,1073 L801,1073 A3.75,3.75 0 0 1 803.5,1075.5 L810.5,1094 L890,1094 A2.5,2.5 0 0 1 892.5,1096.5 L892.5,1126.1094 A2.5,2.5 0 0 1 890,1128.6094 L760,1128.6094 A2.5,2.5 0 0 1 757.5,1126.1094 L757.5,1075.5 A2.5,2.5 0 0 1 760,1073 " fill="#F1F1F1" style="stroke:#181818;stroke-width:0.5;"/><line style="stroke:#181818;stroke-width:0.5;" x1="757.5" x2="810.5" y1="1094" y2="1094"/><text fill="#000000" font-family="sans-serif" font-size="14" lengthAdjust="spacing" textLength="105" x="767.5" y="1115.5332">User Credentials</text></g><!--MD5=[65d360cd9f0138b136b1e8e21012c82c]
entity Other Data--><g id="elem_Other Data"><path d="M624.5,1073 L665.5,1073 A3.75,3.75 0 0 1 668,1075.5 L675,1094 L719.5,1094 A2.5,2.5 0 0 1 722,1096.5 L722,1126.1094 A2.5,2.5 0 0 1 719.5,1128.6094 L624.5,1128.6094 A2.5,2.5 0 0 1 622,1126.1094 L622,1075.5 A2.5,2.5 0 0 1 624.5,1073 " fill="#F1F1F1" style="stroke:#181818;stroke-width:0.5;"/><line style="stroke:#181818;stroke-width:0.5;" x1="622" x2="675" y1="1094" y2="1094"/><text fill="#000000" font-family="sans-serif" font-size="14" lengthAdjust="spacing" textLength="70" x="632" y="1115.5332">Other Data</text></g><!--MD5=[c2e638dc09527b1612255ec757bf351f]
link UserInterface to RoleBasedRouter--><g id="link_UserInterface_RoleBasedRouter"><path codeLine="64" d="M318.36,160.38 C316.88,179.03 315.28,199.16 313.95,215.87 " fill="none" id="UserInterface-to-RoleBasedRouter" style="stroke:#181818;stroke-width:1.0;"/><polygon fill="#181818" points="313.55,220.94,318.2569,212.2887,313.9499,215.956,310.2826,211.6489,313.55,220.94" style="stroke:#181818;stroke-width:1.0;"/></g><!--MD5=[c60ae6c0f3e81bb5da072e6f3c899f0f]
link RoleBasedRouter to ComponentA--><g id="link_RoleBasedRouter_ComponentA"><path codeLine="65" d="M255.66,287.03 C224.92,304.82 186.65,326.96 155.17,345.18 " fill="none" id="RoleBasedRouter-to-ComponentA" style="stroke:#181818;stroke-width:1.0;"/><polygon fill="#181818" points="150.58,347.84,160.3741,346.8026,154.9097,345.3393,156.373,339.875,150.58,347.84" style="stroke:#181818;stroke-width:1.0;"/></g><!--MD5=[e3d60ffa42305513cd03a9041b625d9b]
link RoleBasedRouter to ComponentB--><g id="link_RoleBasedRouter_ComponentB"><path codeLine="66" d="M301.73,287.19 C296.82,304.25 290.76,325.28 285.65,343.01 " fill="none" id="RoleBasedRouter-to-ComponentB" style="stroke:#181818;stroke-width:1.0;"/><polygon fill="#181818" points="284.24,347.92,290.5793,340.3826,285.6268,343.1162,282.8932,338.1637,284.24,347.92" style="stroke:#181818;stroke-width:1.0;"/></g><!--MD5=[3ab752a46b887c273e8bc882fa037e63]
link RoleBasedRouter to ComponentC--><g id="link_RoleBasedRouter_ComponentC"><path codeLine="67" d="M348.34,287.19 C368.72,304.76 393.99,326.55 414.93,344.59 " fill="none" id="RoleBasedRouter-to-ComponentC" style="stroke:#181818;stroke-width:1.0;"/><polygon fill="#181818" points="418.79,347.92,414.5764,339.018,414.9998,344.659,409.3588,345.0823,418.79,347.92" style="stroke:#181818;stroke-width:1.0;"/></g><!--MD5=[b5b4f836be4ba2fa78254c4090ba0e13]
link ComponentA to HTTPInterceptor--><g id="link_ComponentA_HTTPInterceptor"><path codeLine="68" d="M81.03,414.25 C76.54,429.81 74.81,448.08 84,462 C91.12,472.79 100.55,481.71 111.2,489.08 " fill="none" id="ComponentA-to-HTTPInterceptor" style="stroke:#181818;stroke-width:1.0;"/><polygon fill="#181818" points="115.5,491.94,110.2303,483.6195,111.3397,489.1665,105.7927,490.2759,115.5,491.94" style="stroke:#181818;stroke-width:1.0;"/><text fill="#000000" font-family="sans-serif" font-size="13" lengthAdjust="spacing" textLength="128" x="85" y="458.4951">intercepts all requests</text></g><!--MD5=[178dfd53b1e9c5f58bd4510a67a04f16]
link ComponentB to HTTPInterceptor--><g id="link_ComponentB_HTTPInterceptor"><path codeLine="69" d="M242.98,414.26 C236.05,423.19 229.69,433.37 226,444 C221.33,457.45 220.87,472.94 222.01,486.69 " fill="none" id="ComponentB-to-HTTPInterceptor" style="stroke:#181818;stroke-width:1.0;"/><polygon fill="#181818" points="222.5,491.67,225.6059,482.3237,222.0138,486.6937,217.6438,483.1016,222.5,491.67" style="stroke:#181818;stroke-width:1.0;"/><text fill="#000000" font-family="sans-serif" font-size="13" lengthAdjust="spacing" textLength="128" x="227" y="458.4951">intercepts all requests</text></g><!--MD5=[66bda9aa4727497f27dc2c7d763a1b4c]
link ComponentC to HTTPInterceptor--><g id="link_ComponentC_HTTPInterceptor"><path codeLine="70" d="M421.64,414.27 C404.03,429.84 381.76,448.1 360,462 C344.4,471.97 326.94,481.33 309.99,489.6 " fill="none" id="ComponentC-to-HTTPInterceptor" style="stroke:#181818;stroke-width:1.0;"/><polygon fill="#181818" points="305.22,491.91,315.064,491.6012,309.7231,489.7371,311.5873,484.3962,305.22,491.91" style="stroke:#181818;stroke-width:1.0;"/><text fill="#000000" font-family="sans-serif" font-size="13" lengthAdjust="spacing" textLength="128" x="386" y="458.4951">intercepts all requests</text></g><!--MD5=[e4a0edefca9ef017371037d37d48b534]
link UserInterface to UserController--><g id="link_UserInterface_UserController"><path codeLine="71" d="M482.35,131.94 C543.55,153.5 599,190.32 599,253 C599,253 599,253 599,526 C599,569.12 599,617.93 599,654.37 " fill="none" id="UserInterface-to-UserController" style="stroke:#181818;stroke-width:1.0;"/><polygon fill="#181818" points="599,659.66,603,650.66,599,654.66,595,650.66,599,659.66" style="stroke:#181818;stroke-width:1.0;"/><text fill="#000000" font-family="sans-serif" font-size="13" lengthAdjust="spacing" textLength="167" x="600" y="386.4951">requests login/register/delete</text></g><!--MD5=[24950bc54895f33afc2647af6e65f42d]
link UserController to UserService--><g id="link_UserController_UserService"><path codeLine="72" d="M595.63,761.28 C594.1,783.8 592.29,810.5 590.72,833.61 " fill="none" id="UserController-to-UserService" style="stroke:#181818;stroke-width:1.0;"/><polygon fill="#181818" points="590.37,838.79,594.978,830.0856,590.713,833.8018,586.9969,829.5368,590.37,838.79" style="stroke:#181818;stroke-width:1.0;"/><text fill="#000000" font-family="sans-serif" font-size="13" lengthAdjust="spacing" textLength="142" x="594" y="805.4951">validate &amp; manage users</text></g><!--MD5=[5ac72f942c0674b7e512fc3dd300d952]
link UserService to Database--><g id="link_UserService_Database"><path codeLine="73" d="M587,940.15 C587,955.395 587,972.8175 587,990.4225 C587,994.8238 587,999.2364 587,1003.6293 C587,1005.8257 587,1008.0172 587,1010.1999 C587,1011.2912 587,1012.3804 587,1013.4668 " fill="none" id="UserService-to-Database" style="stroke:#181818;stroke-width:1.0;"/><polygon fill="#181818" points="587,1013.4668,591,1004.4668,587,1008.4668,583,1004.4668,587,1013.4668" style="stroke:#181818;stroke-width:1.0;"/><text fill="#000000" font-family="sans-serif" font-size="13" lengthAdjust="spacing" textLength="171" x="588" y="986.4951">store/retrieve/delete user data</text></g><!--MD5=[4d7edacdf2aa1f335cf7f2e8e4d7ff3b]
link UserController to JWTService--><g id="link_UserController_JWTService"><path codeLine="74" d="M706.76,761.04 C771.34,790.73 851.83,827.74 909.42,854.21 " fill="none" id="UserController-to-JWTService" style="stroke:#181818;stroke-width:1.0;"/><polygon fill="#181818" points="914.22,856.42,907.7098,849.0296,909.676,854.3338,904.3719,856.3,914.22,856.42" style="stroke:#181818;stroke-width:1.0;"/><text fill="#000000" font-family="sans-serif" font-size="13" lengthAdjust="spacing" textLength="66" x="804" y="805.4951">create JWT</text></g><!--MD5=[65c51d7e888c9f115f0fc5a1676622be]
link AuthenticationBuilder to Database--><g id="link_AuthenticationBuilder_Database"><path codeLine="75" d="M1088.78,743.63 C1117.19,766.54 1151.2,800.09 1167,839 C1187.9,890.47 1204.99,923.46 1167,964 C1136.62,996.42 812.35,987.46 768,990 C759,990.52 612.79,992.07 606,998 C601.7262,1001.7325 598.2166,1006.0908 595.3476,1010.8643 C594.989,1011.461 594.6404,1012.0642 594.3016,1012.6735 C594.1321,1012.9781 593.9652,1013.2843 593.8006,1013.5919 " fill="none" id="AuthenticationBuilder-to-Database" style="stroke:#181818;stroke-width:1.0;stroke-dasharray:7.0,7.0;"/><polygon fill="#181818" points="593.8006,1013.5919,601.573,1007.5429,596.1591,1009.1831,594.5189,1003.7692,593.8006,1013.5919" style="stroke:#181818;stroke-width:1.0;"/><text fill="#000000" font-family="sans-serif" font-size="13" lengthAdjust="spacing" textLength="111" x="1190" y="894.9951">retrieve signing key</text></g><!--MD5=[215609a8048e32617bf1eb50aea6a401]
link HTTPInterceptor to JWTMiddleware--><g id="link_HTTPInterceptor_JWTMiddleware"><path codeLine="76" d="M229,558.38 C229,590.22 229,638.78 229,672.21 " fill="none" id="HTTPInterceptor-to-JWTMiddleware" style="stroke:#181818;stroke-width:1.0;"/><polygon fill="#181818" points="229,677.44,233,668.44,229,672.44,225,668.44,229,677.44" style="stroke:#181818;stroke-width:1.0;"/><text fill="#000000" font-family="sans-serif" font-size="13" lengthAdjust="spacing" textLength="146" x="230" y="604.4951">sends requests with JWT</text></g><!--MD5=[ac4c62ffb50331ef9ee1e2ab4ecb2bef]
link JWTMiddleware to ResourceController--><g id="link_JWTMiddleware_ResourceController"><path codeLine="77" d="M229,743.55 C229,771.24 229,811.58 229,842.67 " fill="none" id="JWTMiddleware-to-ResourceController" style="stroke:#181818;stroke-width:1.0;"/><polygon fill="#181818" points="229,847.97,233,838.97,229,842.97,225,838.97,229,847.97" style="stroke:#181818;stroke-width:1.0;"/><text fill="#000000" font-family="sans-serif" font-size="13" lengthAdjust="spacing" textLength="73" x="230" y="805.4951">on valid JWT</text></g><!--MD5=[4311fe831d319643efecfe4501bbfac8]
link ResourceController to Database--><g id="link_ResourceController_Database"><path codeLine="78" d="M298.45,931.14 C349.69,961.125 420.3925,1002.5 478.9863,1036.7888 C508.2831,1053.9331 534.5528,1069.3059 553.8489,1080.5977 C563.497,1086.2435 571.4016,1090.8691 577.0696,1094.1857 C577.4238,1094.393 577.7693,1094.5952 578.106,1094.7922 C578.2743,1094.8907 578.4404,1094.9879 578.6043,1095.0838 " fill="none" id="ResourceController-to-Database" style="stroke:#181818;stroke-width:1.0;stroke-dasharray:7.0,7.0;"/><polygon fill="#181818" points="578.6043,1095.0838,572.8566,1087.086,574.2888,1092.5586,568.8163,1093.9908,578.6043,1095.0838" style="stroke:#181818;stroke-width:1.0;"/><text fill="#000000" font-family="sans-serif" font-size="13" lengthAdjust="spacing" textLength="71" x="398" y="986.4951">access data</text></g><!--MD5=[35bcb45ae8d66f12cec0aa118f69f442]
@startuml

!define RECTANGLE class

package "Front-End Application" {
    RECTANGLE ComponentA {
        +specificRequestA()
    }
    RECTANGLE ComponentB {
        +specificRequestB()
    }
    RECTANGLE ComponentC {
        +specificRequestC()
    }
    RECTANGLE RoleBasedRouter {
        +checkAccess(component, userRole): boolean 
    }
    RECTANGLE HTTPInterceptor {
        +interceptRequest(): append JWT
    }
    RECTANGLE UserInterface {
        +login(username, password)
        +register(firstName, lastName, email, password)
        +deleteAccount(userID, token): boolean 
        +receiveData()
    }
}

package "ASP NET Core C# Authentication Service" {
    RECTANGLE AuthenticationBuilder {
        +configureJWTAuthentication() 
    }
    RECTANGLE UserController {
        +Login(LoginUserDTO):Task<TokenDto>
        +Register(CreateUserDto): Task<RegisteredDTO>
        +DeleteAcc(AccountDeletionDto): Task<IdentityResult>
    }
    RECTANGLE UserService {
        +Login(LoginUserDto): Task<TokenDto>
        +Register(CreateUserDto): Task<RegisteredDTO>
        +DeleteAccount(AccountDeletionDto): Task<IdentityResult>
    }
    RECTANGLE JWTService {
        +createToken(ApplicationUser): Task<TokenDto>
    }
}

package "Nodejs Backend Service" {
    RECTANGLE JWTMiddleware {
        +validateJWT(token)
    }
    RECTANGLE ResourceController {
        +handleRequest()
        +accessProtectedResources()
    }
}

database "Database" {
    folder "User Credentials" {
    }
    folder "Other Data" {
    }
}

UserInterface - -> RoleBasedRouter
RoleBasedRouter - -> ComponentA
RoleBasedRouter - -> ComponentB
RoleBasedRouter - -> ComponentC
ComponentA - -> HTTPInterceptor : intercepts all requests
ComponentB - -> HTTPInterceptor : intercepts all requests
ComponentC - -> HTTPInterceptor : intercepts all requests
UserInterface - -> UserController : requests login/register/delete
UserController - -> UserService : validate & manage users
UserService - -> Database : store/retrieve/delete user data
UserController - -> JWTService : create JWT
AuthenticationBuilder ..> Database : retrieve signing key
HTTPInterceptor - -> JWTMiddleware : sends requests with JWT
JWTMiddleware - -> ResourceController : on valid JWT
ResourceController ..> Database : access data

@enduml

@startuml


package "Front-End Application" {
    class ComponentA {
        +specificRequestA()
    }
    class ComponentB {
        +specificRequestB()
    }
    class ComponentC {
        +specificRequestC()
    }
    class RoleBasedRouter {
        +checkAccess(component, userRole): boolean 
    }
    class HTTPInterceptor {
        +interceptRequest(): append JWT
    }
    class UserInterface {
        +login(username, password)
        +register(firstName, lastName, email, password)
        +deleteAccount(userID, token): boolean 
        +receiveData()
    }
}

package "ASP NET Core C# Authentication Service" {
    class AuthenticationBuilder {
        +configureJWTAuthentication() 
    }
    class UserController {
        +Login(LoginUserDTO):Task<TokenDto>
        +Register(CreateUserDto): Task<RegisteredDTO>
        +DeleteAcc(AccountDeletionDto): Task<IdentityResult>
    }
    class UserService {
        +Login(LoginUserDto): Task<TokenDto>
        +Register(CreateUserDto): Task<RegisteredDTO>
        +DeleteAccount(AccountDeletionDto): Task<IdentityResult>
    }
    class JWTService {
        +createToken(ApplicationUser): Task<TokenDto>
    }
}

package "Nodejs Backend Service" {
    class JWTMiddleware {
        +validateJWT(token)
    }
    class ResourceController {
        +handleRequest()
        +accessProtectedResources()
    }
}

database "Database" {
    folder "User Credentials" {
    }
    folder "Other Data" {
    }
}

UserInterface - -> RoleBasedRouter
RoleBasedRouter - -> ComponentA
RoleBasedRouter - -> ComponentB
RoleBasedRouter - -> ComponentC
ComponentA - -> HTTPInterceptor : intercepts all requests
ComponentB - -> HTTPInterceptor : intercepts all requests
ComponentC - -> HTTPInterceptor : intercepts all requests
UserInterface - -> UserController : requests login/register/delete
UserController - -> UserService : validate & manage users
UserService - -> Database : store/retrieve/delete user data
UserController - -> JWTService : create JWT
AuthenticationBuilder ..> Database : retrieve signing key
HTTPInterceptor - -> JWTMiddleware : sends requests with JWT
JWTMiddleware - -> ResourceController : on valid JWT
ResourceController ..> Database : access data

@enduml

PlantUML version 1.2022.7(Mon Aug 22 18:01:30 WEST 2022)
(GPL source distribution)
Java Runtime: Java(TM) SE Runtime Environment
JVM: Java HotSpot(TM) 64-Bit Server VM
Default Encoding: Cp1252
Language: pt
Country: PT
--></g></svg>