<?xml version="1.0" encoding="windows-1252" standalone="no"?>
<svg xmlns="http://www.w3.org/2000/svg" xmlns:xlink="http://www.w3.org/1999/xlink" contentStyleType="text/css" height="1060px" preserveAspectRatio="none" style="width:1798px;height:1060px;background:#FFFFFF;" version="1.1" viewBox="0 0 1798 1060" width="1798px" zoomAndPan="magnify"><defs/><g><rect fill="#FFFFFF" height="877.9844" style="stroke:#181818;stroke-width:1.0;" width="10" x="41" y="91.2969"/><rect fill="#FFFFFF" height="856.8516" style="stroke:#181818;stroke-width:1.0;" width="10" x="254" y="112.4297"/><rect fill="#FFFFFF" height="798.5859" style="stroke:#181818;stroke-width:1.0;" width="10" x="402" y="170.6953"/><rect fill="#FFFFFF" height="145.6641" style="stroke:#181818;stroke-width:1.0;" width="10" x="694" y="199.8281"/><rect fill="#FFFFFF" height="594.6563" style="stroke:#181818;stroke-width:1.0;" width="10" x="694" y="374.625"/><rect fill="#FFFFFF" height="116.5313" style="stroke:#181818;stroke-width:1.0;" width="10" x="875" y="228.9609"/><rect fill="#FFFFFF" height="565.5234" style="stroke:#181818;stroke-width:1.0;" width="10" x="875" y="403.7578"/><rect fill="#FFFFFF" height="87.3984" style="stroke:#181818;stroke-width:1.0;" width="10" x="1059" y="258.0938"/><rect fill="#FFFFFF" height="536.3906" style="stroke:#181818;stroke-width:1.0;" width="10" x="1059" y="432.8906"/><rect fill="#FFFFFF" height="58.2656" style="stroke:#181818;stroke-width:1.0;" width="10" x="1280" y="287.2266"/><rect fill="#FFFFFF" height="508.2578" style="stroke:#181818;stroke-width:1.0;" width="10" x="1280" y="462.0234"/><rect fill="#FFFFFF" height="29.1328" style="stroke:#181818;stroke-width:1.0;" width="10" x="1441" y="316.3594"/><rect fill="#FFFFFF" height="478.125" style="stroke:#181818;stroke-width:1.0;" width="10" x="1441" y="491.1563"/><rect fill="#FFFFFF" height="419.8594" style="stroke:#181818;stroke-width:1.0;" width="10" x="1623" y="549.4219"/><rect fill="#FFFFFF" height="448.9922" style="stroke:#181818;stroke-width:1.0;" width="10" x="1731.5" y="520.2891"/><rect fill="none" height="310.4609" style="stroke:#000000;stroke-width:1.5;" width="1128" x="10" y="651.8203"/><line style="stroke:#181818;stroke-width:0.5;stroke-dasharray:5.0,5.0;" x1="46" x2="46" y1="81.2969" y2="979.2813"/><line style="stroke:#181818;stroke-width:0.5;stroke-dasharray:5.0,5.0;" x1="258.5" x2="258.5" y1="81.2969" y2="979.2813"/><line style="stroke:#181818;stroke-width:0.5;stroke-dasharray:5.0,5.0;" x1="406.5" x2="406.5" y1="81.2969" y2="979.2813"/><line style="stroke:#181818;stroke-width:0.5;stroke-dasharray:5.0,5.0;" x1="699" x2="699" y1="81.2969" y2="979.2813"/><line style="stroke:#181818;stroke-width:0.5;stroke-dasharray:5.0,5.0;" x1="879.5" x2="879.5" y1="81.2969" y2="979.2813"/><line style="stroke:#181818;stroke-width:0.5;stroke-dasharray:5.0,5.0;" x1="1064" x2="1064" y1="81.2969" y2="979.2813"/><line style="stroke:#181818;stroke-width:0.5;stroke-dasharray:5.0,5.0;" x1="1285" x2="1285" y1="81.2969" y2="979.2813"/><line style="stroke:#181818;stroke-width:0.5;stroke-dasharray:5.0,5.0;" x1="1445.5" x2="1445.5" y1="81.2969" y2="979.2813"/><line style="stroke:#181818;stroke-width:0.5;stroke-dasharray:5.0,5.0;" x1="1627.5" x2="1627.5" y1="81.2969" y2="979.2813"/><line style="stroke:#181818;stroke-width:0.5;stroke-dasharray:5.0,5.0;" x1="1736.5" x2="1736.5" y1="81.2969" y2="979.2813"/><text fill="#000000" font-family="sans-serif" font-size="14" lengthAdjust="spacing" textLength="46" x="20" y="77.9951">Admin</text><ellipse cx="46" cy="13.5" fill="#E2E2F0" rx="8" ry="8" style="stroke:#181818;stroke-width:0.5;"/><path d="M46,21.5 L46,48.5 M33,29.5 L59,29.5 M46,48.5 L33,63.5 M46,48.5 L59,63.5 " fill="none" style="stroke:#181818;stroke-width:0.5;"/><text fill="#000000" font-family="sans-serif" font-size="14" lengthAdjust="spacing" textLength="46" x="20" y="991.2764">Admin</text><ellipse cx="46" cy="1003.0781" fill="#E2E2F0" rx="8" ry="8" style="stroke:#181818;stroke-width:0.5;"/><path d="M46,1011.0781 L46,1038.0781 M33,1019.0781 L59,1019.0781 M46,1038.0781 L33,1053.0781 M46,1038.0781 L59,1053.0781 " fill="none" style="stroke:#181818;stroke-width:0.5;"/><rect fill="#E2E2F0" height="30.2969" rx="2.5" ry="2.5" style="stroke:#181818;stroke-width:0.5;" width="53" x="232.5" y="50"/><text fill="#000000" font-family="sans-serif" font-size="14" lengthAdjust="spacing" textLength="39" x="239.5" y="69.9951">:View</text><rect fill="#E2E2F0" height="30.2969" rx="2.5" ry="2.5" style="stroke:#181818;stroke-width:0.5;" width="53" x="232.5" y="978.2813"/><text fill="#000000" font-family="sans-serif" font-size="14" lengthAdjust="spacing" textLength="39" x="239.5" y="998.2764">:View</text><rect fill="#E2E2F0" height="30.2969" rx="2.5" ry="2.5" style="stroke:#181818;stroke-width:0.5;" width="129" x="342.5" y="50"/><text fill="#000000" font-family="sans-serif" font-size="14" lengthAdjust="spacing" textLength="115" x="349.5" y="69.9951">:FE_Component</text><rect fill="#E2E2F0" height="30.2969" rx="2.5" ry="2.5" style="stroke:#181818;stroke-width:0.5;" width="129" x="342.5" y="978.2813"/><text fill="#000000" font-family="sans-serif" font-size="14" lengthAdjust="spacing" textLength="115" x="349.5" y="998.2764">:FE_Component</text><rect fill="#E2E2F0" height="30.2969" rx="2.5" ry="2.5" style="stroke:#181818;stroke-width:0.5;" width="132" x="633" y="50"/><text fill="#000000" font-family="sans-serif" font-size="14" lengthAdjust="spacing" textLength="118" x="640" y="69.9951">:FE_FloorService</text><rect fill="#E2E2F0" height="30.2969" rx="2.5" ry="2.5" style="stroke:#181818;stroke-width:0.5;" width="132" x="633" y="978.2813"/><text fill="#000000" font-family="sans-serif" font-size="14" lengthAdjust="spacing" textLength="118" x="640" y="998.2764">:FE_FloorService</text><rect fill="#E2E2F0" height="30.2969" rx="2.5" ry="2.5" style="stroke:#181818;stroke-width:0.5;" width="75" x="842.5" y="50"/><text fill="#000000" font-family="sans-serif" font-size="14" lengthAdjust="spacing" textLength="61" x="849.5" y="69.9951">:Routing</text><rect fill="#E2E2F0" height="30.2969" rx="2.5" ry="2.5" style="stroke:#181818;stroke-width:0.5;" width="75" x="842.5" y="978.2813"/><text fill="#000000" font-family="sans-serif" font-size="14" lengthAdjust="spacing" textLength="61" x="849.5" y="998.2764">:Routing</text><rect fill="#E2E2F0" height="30.2969" rx="2.5" ry="2.5" style="stroke:#181818;stroke-width:0.5;" width="128" x="1000" y="50"/><text fill="#000000" font-family="sans-serif" font-size="14" lengthAdjust="spacing" textLength="114" x="1007" y="69.9951">:FloorController</text><rect fill="#E2E2F0" height="30.2969" rx="2.5" ry="2.5" style="stroke:#181818;stroke-width:0.5;" width="128" x="1000" y="978.2813"/><text fill="#000000" font-family="sans-serif" font-size="14" lengthAdjust="spacing" textLength="114" x="1007" y="998.2764">:FloorController</text><rect fill="#E2E2F0" height="30.2969" rx="2.5" ry="2.5" style="stroke:#181818;stroke-width:0.5;" width="108" x="1231" y="50"/><text fill="#000000" font-family="sans-serif" font-size="14" lengthAdjust="spacing" textLength="94" x="1238" y="69.9951">:FloorService</text><rect fill="#E2E2F0" height="30.2969" rx="2.5" ry="2.5" style="stroke:#181818;stroke-width:0.5;" width="108" x="1231" y="978.2813"/><text fill="#000000" font-family="sans-serif" font-size="14" lengthAdjust="spacing" textLength="94" x="1238" y="998.2764">:FloorService</text><rect fill="#E2E2F0" height="30.2969" rx="2.5" ry="2.5" style="stroke:#181818;stroke-width:0.5;" width="93" x="1399.5" y="50"/><text fill="#000000" font-family="sans-serif" font-size="14" lengthAdjust="spacing" textLength="79" x="1406.5" y="69.9951">:FloorRepo</text><rect fill="#E2E2F0" height="30.2969" rx="2.5" ry="2.5" style="stroke:#181818;stroke-width:0.5;" width="93" x="1399.5" y="978.2813"/><text fill="#000000" font-family="sans-serif" font-size="14" lengthAdjust="spacing" textLength="79" x="1406.5" y="998.2764">:FloorRepo</text><rect fill="#E2E2F0" height="30.2969" rx="2.5" ry="2.5" style="stroke:#181818;stroke-width:0.5;" width="85" x="1585.5" y="50"/><text fill="#000000" font-family="sans-serif" font-size="14" lengthAdjust="spacing" textLength="71" x="1592.5" y="69.9951">:FloorMap</text><rect fill="#E2E2F0" height="30.2969" rx="2.5" ry="2.5" style="stroke:#181818;stroke-width:0.5;" width="85" x="1585.5" y="978.2813"/><text fill="#000000" font-family="sans-serif" font-size="14" lengthAdjust="spacing" textLength="71" x="1592.5" y="998.2764">:FloorMap</text><rect fill="#E2E2F0" height="30.2969" rx="2.5" ry="2.5" style="stroke:#181818;stroke-width:0.5;" width="112" x="1680.5" y="50"/><text fill="#000000" font-family="sans-serif" font-size="14" lengthAdjust="spacing" textLength="98" x="1687.5" y="69.9951">:FloorSchema</text><rect fill="#E2E2F0" height="30.2969" rx="2.5" ry="2.5" style="stroke:#181818;stroke-width:0.5;" width="112" x="1680.5" y="978.2813"/><text fill="#000000" font-family="sans-serif" font-size="14" lengthAdjust="spacing" textLength="98" x="1687.5" y="998.2764">:FloorSchema</text><rect fill="#FFFFFF" height="877.9844" style="stroke:#181818;stroke-width:1.0;" width="10" x="41" y="91.2969"/><rect fill="#FFFFFF" height="856.8516" style="stroke:#181818;stroke-width:1.0;" width="10" x="254" y="112.4297"/><rect fill="#FFFFFF" height="798.5859" style="stroke:#181818;stroke-width:1.0;" width="10" x="402" y="170.6953"/><rect fill="#FFFFFF" height="145.6641" style="stroke:#181818;stroke-width:1.0;" width="10" x="694" y="199.8281"/><rect fill="#FFFFFF" height="594.6563" style="stroke:#181818;stroke-width:1.0;" width="10" x="694" y="374.625"/><rect fill="#FFFFFF" height="116.5313" style="stroke:#181818;stroke-width:1.0;" width="10" x="875" y="228.9609"/><rect fill="#FFFFFF" height="565.5234" style="stroke:#181818;stroke-width:1.0;" width="10" x="875" y="403.7578"/><rect fill="#FFFFFF" height="87.3984" style="stroke:#181818;stroke-width:1.0;" width="10" x="1059" y="258.0938"/><rect fill="#FFFFFF" height="536.3906" style="stroke:#181818;stroke-width:1.0;" width="10" x="1059" y="432.8906"/><rect fill="#FFFFFF" height="58.2656" style="stroke:#181818;stroke-width:1.0;" width="10" x="1280" y="287.2266"/><rect fill="#FFFFFF" height="508.2578" style="stroke:#181818;stroke-width:1.0;" width="10" x="1280" y="462.0234"/><rect fill="#FFFFFF" height="29.1328" style="stroke:#181818;stroke-width:1.0;" width="10" x="1441" y="316.3594"/><rect fill="#FFFFFF" height="478.125" style="stroke:#181818;stroke-width:1.0;" width="10" x="1441" y="491.1563"/><rect fill="#FFFFFF" height="419.8594" style="stroke:#181818;stroke-width:1.0;" width="10" x="1623" y="549.4219"/><rect fill="#FFFFFF" height="448.9922" style="stroke:#181818;stroke-width:1.0;" width="10" x="1731.5" y="520.2891"/><polygon fill="#181818" points="242,108.4297,252,112.4297,242,116.4297,246,112.4297" style="stroke:#181818;stroke-width:1.0;"/><line style="stroke:#181818;stroke-width:1.0;" x1="51" x2="248" y1="112.4297" y2="112.4297"/><text fill="#000000" font-family="sans-serif" font-size="13" font-weight="bold" lengthAdjust="spacing" textLength="9" x="58" y="107.3638">1</text><text fill="#000000" font-family="sans-serif" font-size="13" lengthAdjust="spacing" textLength="171" x="71" y="107.3638">wants to update floor map</text><polygon fill="#181818" points="62,137.5625,52,141.5625,62,145.5625,58,141.5625" style="stroke:#181818;stroke-width:1.0;"/><line style="stroke:#181818;stroke-width:1.0;stroke-dasharray:2.0,2.0;" x1="56" x2="253" y1="141.5625" y2="141.5625"/><text fill="#000000" font-family="sans-serif" font-size="13" font-weight="bold" lengthAdjust="spacing" textLength="9" x="68" y="136.4966">2</text><text fill="#000000" font-family="sans-serif" font-size="13" lengthAdjust="spacing" textLength="162" x="81" y="136.4966">request necessary data()</text><polygon fill="#181818" points="242,166.6953,252,170.6953,242,174.6953,246,170.6953" style="stroke:#181818;stroke-width:1.0;"/><line style="stroke:#181818;stroke-width:1.0;" x1="51" x2="248" y1="170.6953" y2="170.6953"/><text fill="#000000" font-family="sans-serif" font-size="13" font-weight="bold" lengthAdjust="spacing" textLength="8" x="58" y="165.6294">3</text><text fill="#000000" font-family="sans-serif" font-size="13" lengthAdjust="spacing" textLength="112" x="70" y="165.6294">insert all the data</text><polygon fill="#181818" points="390,195.8281,400,199.8281,390,203.8281,394,199.8281" style="stroke:#181818;stroke-width:1.0;"/><line style="stroke:#181818;stroke-width:1.0;" x1="264" x2="396" y1="199.8281" y2="199.8281"/><text fill="#000000" font-family="sans-serif" font-size="13" font-weight="bold" lengthAdjust="spacing" textLength="9" x="271" y="194.7622">4</text><text fill="#000000" font-family="sans-serif" font-size="13" lengthAdjust="spacing" textLength="69" x="284" y="194.7622">getFloors()</text><polygon fill="#181818" points="682,224.9609,692,228.9609,682,232.9609,686,228.9609" style="stroke:#181818;stroke-width:1.0;"/><line style="stroke:#181818;stroke-width:1.0;" x1="412" x2="688" y1="228.9609" y2="228.9609"/><text fill="#000000" font-family="sans-serif" font-size="13" font-weight="bold" lengthAdjust="spacing" textLength="9" x="419" y="223.895">5</text><text fill="#000000" font-family="sans-serif" font-size="13" lengthAdjust="spacing" textLength="66" x="432" y="223.895">listFloors()</text><polygon fill="#181818" points="863,254.0938,873,258.0938,863,262.0938,867,258.0938" style="stroke:#181818;stroke-width:1.0;"/><line style="stroke:#181818;stroke-width:1.0;" x1="704" x2="869" y1="258.0938" y2="258.0938"/><text fill="#000000" font-family="sans-serif" font-size="13" font-weight="bold" lengthAdjust="spacing" textLength="9" x="711" y="253.0278">6</text><text fill="#000000" font-family="sans-serif" font-size="13" lengthAdjust="spacing" textLength="82" x="724" y="253.0278">GET route{}</text><polygon fill="#181818" points="1047,283.2266,1057,287.2266,1047,291.2266,1051,287.2266" style="stroke:#181818;stroke-width:1.0;"/><line style="stroke:#181818;stroke-width:1.0;" x1="885" x2="1053" y1="287.2266" y2="287.2266"/><text fill="#000000" font-family="sans-serif" font-size="13" font-weight="bold" lengthAdjust="spacing" textLength="9" x="892" y="282.1606">7</text><text fill="#000000" font-family="sans-serif" font-size="13" lengthAdjust="spacing" textLength="81" x="905" y="282.1606">listAllFloors()</text><polygon fill="#181818" points="1268,312.3594,1278,316.3594,1268,320.3594,1272,316.3594" style="stroke:#181818;stroke-width:1.0;"/><line style="stroke:#181818;stroke-width:1.0;" x1="1069" x2="1274" y1="316.3594" y2="316.3594"/><text fill="#000000" font-family="sans-serif" font-size="13" font-weight="bold" lengthAdjust="spacing" textLength="9" x="1076" y="311.2935">8</text><text fill="#000000" font-family="sans-serif" font-size="13" lengthAdjust="spacing" textLength="49" x="1089" y="311.2935">findAll()</text><polygon fill="#181818" points="1434,341.4922,1444,345.4922,1434,349.4922,1438,345.4922" style="stroke:#181818;stroke-width:1.0;"/><line style="stroke:#181818;stroke-width:1.0;" x1="1285" x2="1440" y1="345.4922" y2="345.4922"/><text fill="#000000" font-family="sans-serif" font-size="13" font-weight="bold" lengthAdjust="spacing" textLength="9" x="1292" y="340.4263">9</text><text fill="#000000" font-family="sans-serif" font-size="13" lengthAdjust="spacing" textLength="49" x="1305" y="340.4263">findAll()</text><polygon fill="#181818" points="390,370.625,400,374.625,390,378.625,394,374.625" style="stroke:#181818;stroke-width:1.0;"/><line style="stroke:#181818;stroke-width:1.0;" x1="264" x2="396" y1="374.625" y2="374.625"/><text fill="#000000" font-family="sans-serif" font-size="13" font-weight="bold" lengthAdjust="spacing" textLength="19" x="271" y="369.5591">10</text><text fill="#000000" font-family="sans-serif" font-size="13" lengthAdjust="spacing" textLength="91" x="294" y="369.5591">editFloorMap()</text><polygon fill="#181818" points="682,399.7578,692,403.7578,682,407.7578,686,403.7578" style="stroke:#181818;stroke-width:1.0;"/><line style="stroke:#181818;stroke-width:1.0;" x1="412" x2="688" y1="403.7578" y2="403.7578"/><text fill="#000000" font-family="sans-serif" font-size="13" font-weight="bold" lengthAdjust="spacing" textLength="18" x="419" y="398.6919">11</text><text fill="#000000" font-family="sans-serif" font-size="13" lengthAdjust="spacing" textLength="236" x="441" y="398.6919">patchFloorMap(Object{id, floorMap})</text><polygon fill="#181818" points="863,428.8906,873,432.8906,863,436.8906,867,432.8906" style="stroke:#181818;stroke-width:1.0;"/><line style="stroke:#181818;stroke-width:1.0;" x1="704" x2="869" y1="432.8906" y2="432.8906"/><text fill="#000000" font-family="sans-serif" font-size="13" font-weight="bold" lengthAdjust="spacing" textLength="18" x="711" y="427.8247">12</text><text fill="#000000" font-family="sans-serif" font-size="13" lengthAdjust="spacing" textLength="125" x="733" y="427.8247">PATCH route{json}</text><polygon fill="#181818" points="1047,458.0234,1057,462.0234,1047,466.0234,1051,462.0234" style="stroke:#181818;stroke-width:1.0;"/><line style="stroke:#181818;stroke-width:1.0;" x1="885" x2="1053" y1="462.0234" y2="462.0234"/><text fill="#000000" font-family="sans-serif" font-size="13" font-weight="bold" lengthAdjust="spacing" textLength="17" x="892" y="456.9575">13</text><text fill="#000000" font-family="sans-serif" font-size="13" lengthAdjust="spacing" textLength="129" x="913" y="456.9575">patchFloorMap(json)</text><polygon fill="#181818" points="1268,487.1563,1278,491.1563,1268,495.1563,1272,491.1563" style="stroke:#181818;stroke-width:1.0;"/><line style="stroke:#181818;stroke-width:1.0;" x1="1069" x2="1274" y1="491.1563" y2="491.1563"/><text fill="#000000" font-family="sans-serif" font-size="13" font-weight="bold" lengthAdjust="spacing" textLength="18" x="1076" y="486.0903">14</text><text fill="#000000" font-family="sans-serif" font-size="13" lengthAdjust="spacing" textLength="165" x="1098" y="486.0903">patchFloorMap(IFloorDTO)</text><polygon fill="#181818" points="1429,516.2891,1439,520.2891,1429,524.2891,1433,520.2891" style="stroke:#181818;stroke-width:1.0;"/><line style="stroke:#181818;stroke-width:1.0;" x1="1290" x2="1435" y1="520.2891" y2="520.2891"/><text fill="#000000" font-family="sans-serif" font-size="13" font-weight="bold" lengthAdjust="spacing" textLength="18" x="1297" y="515.2231">15</text><text fill="#000000" font-family="sans-serif" font-size="13" lengthAdjust="spacing" textLength="105" x="1319" y="515.2231">findById(floor.id)</text><polygon fill="#181818" points="1429,545.4219,1439,549.4219,1429,553.4219,1433,549.4219" style="stroke:#181818;stroke-width:1.0;"/><line style="stroke:#181818;stroke-width:1.0;" x1="1290" x2="1435" y1="549.4219" y2="549.4219"/><text fill="#000000" font-family="sans-serif" font-size="13" font-weight="bold" lengthAdjust="spacing" textLength="18" x="1297" y="544.356">16</text><text fill="#000000" font-family="sans-serif" font-size="13" lengthAdjust="spacing" textLength="70" x="1319" y="544.356">save(floor)</text><polygon fill="#181818" points="1611,574.5547,1621,578.5547,1611,582.5547,1615,578.5547" style="stroke:#181818;stroke-width:1.0;"/><line style="stroke:#181818;stroke-width:1.0;" x1="1451" x2="1617" y1="578.5547" y2="578.5547"/><text fill="#000000" font-family="sans-serif" font-size="13" font-weight="bold" lengthAdjust="spacing" textLength="18" x="1458" y="573.4888">17</text><text fill="#000000" font-family="sans-serif" font-size="13" lengthAdjust="spacing" textLength="126" x="1480" y="573.4888">toPersistance(floor)</text><polygon fill="#181818" points="1719.5,603.6875,1729.5,607.6875,1719.5,611.6875,1723.5,607.6875" style="stroke:#181818;stroke-width:1.0;"/><line style="stroke:#181818;stroke-width:1.0;" x1="1451" x2="1725.5" y1="607.6875" y2="607.6875"/><text fill="#000000" font-family="sans-serif" font-size="13" font-weight="bold" lengthAdjust="spacing" textLength="18" x="1458" y="602.6216">18</text><text fill="#000000" font-family="sans-serif" font-size="13" lengthAdjust="spacing" textLength="80" x="1480" y="602.6216">create(floor)</text><polygon fill="#181818" points="1301,632.8203,1291,636.8203,1301,640.8203,1297,636.8203" style="stroke:#181818;stroke-width:1.0;"/><line style="stroke:#181818;stroke-width:1.0;stroke-dasharray:2.0,2.0;" x1="1295" x2="1440" y1="636.8203" y2="636.8203"/><text fill="#000000" font-family="sans-serif" font-size="13" font-weight="bold" lengthAdjust="spacing" textLength="18" x="1307" y="631.7544">19</text><text fill="#000000" font-family="sans-serif" font-size="13" lengthAdjust="spacing" textLength="29" x="1329" y="631.7544">floor</text><path d="M10,651.8203 L76,651.8203 L76,658.9531 L66,668.9531 L10,668.9531 L10,651.8203 " fill="#EEEEEE" style="stroke:#000000;stroke-width:1.5;"/><rect fill="none" height="310.4609" style="stroke:#000000;stroke-width:1.5;" width="1128" x="10" y="651.8203"/><text fill="#000000" font-family="sans-serif" font-size="13" font-weight="bold" lengthAdjust="spacing" textLength="21" x="25" y="664.8872">alt</text><text fill="#000000" font-family="sans-serif" font-size="11" font-weight="bold" lengthAdjust="spacing" textLength="136" x="91" y="664.0308">[saved with success]</text><polygon fill="#181818" points="896,686.0859,886,690.0859,896,694.0859,892,690.0859" style="stroke:#181818;stroke-width:1.0;"/><line style="stroke:#181818;stroke-width:1.0;stroke-dasharray:2.0,2.0;" x1="890" x2="1058" y1="690.0859" y2="690.0859"/><text fill="#000000" font-family="sans-serif" font-size="13" font-weight="bold" lengthAdjust="spacing" textLength="19" x="902" y="685.02">20</text><text fill="#000000" font-family="sans-serif" font-size="13" lengthAdjust="spacing" textLength="66" x="925" y="685.02">HTTP: 201</text><polygon fill="#181818" points="715,715.2188,705,719.2188,715,723.2188,711,719.2188" style="stroke:#181818;stroke-width:1.0;"/><line style="stroke:#181818;stroke-width:1.0;stroke-dasharray:2.0,2.0;" x1="709" x2="874" y1="719.2188" y2="719.2188"/><text fill="#000000" font-family="sans-serif" font-size="13" font-weight="bold" lengthAdjust="spacing" textLength="18" x="721" y="714.1528">21</text><text fill="#000000" font-family="sans-serif" font-size="13" lengthAdjust="spacing" textLength="66" x="743" y="714.1528">HTTP: 201</text><polygon fill="#181818" points="423,744.3516,413,748.3516,423,752.3516,419,748.3516" style="stroke:#181818;stroke-width:1.0;"/><line style="stroke:#181818;stroke-width:1.0;stroke-dasharray:2.0,2.0;" x1="417" x2="693" y1="748.3516" y2="748.3516"/><text fill="#000000" font-family="sans-serif" font-size="13" font-weight="bold" lengthAdjust="spacing" textLength="18" x="429" y="743.2856">22</text><text fill="#000000" font-family="sans-serif" font-size="13" lengthAdjust="spacing" textLength="66" x="451" y="743.2856">HTTP: 201</text><polygon fill="#181818" points="275,773.4844,265,777.4844,275,781.4844,271,777.4844" style="stroke:#181818;stroke-width:1.0;"/><line style="stroke:#181818;stroke-width:1.0;stroke-dasharray:2.0,2.0;" x1="269" x2="401" y1="777.4844" y2="777.4844"/><text fill="#000000" font-family="sans-serif" font-size="13" font-weight="bold" lengthAdjust="spacing" textLength="17" x="281" y="772.4185">23</text><text fill="#000000" font-family="sans-serif" font-size="13" lengthAdjust="spacing" textLength="66" x="302" y="772.4185">HTTP: 201</text><polygon fill="#181818" points="62,802.6172,52,806.6172,62,810.6172,58,806.6172" style="stroke:#181818;stroke-width:1.0;"/><line style="stroke:#181818;stroke-width:1.0;stroke-dasharray:2.0,2.0;" x1="56" x2="253" y1="806.6172" y2="806.6172"/><text fill="#000000" font-family="sans-serif" font-size="13" font-weight="bold" lengthAdjust="spacing" textLength="18" x="68" y="801.5513">24</text><text fill="#000000" font-family="sans-serif" font-size="13" lengthAdjust="spacing" textLength="152" x="90" y="801.5513">show success message</text><line style="stroke:#000000;stroke-width:1.0;stroke-dasharray:2.0,2.0;" x1="10" x2="1138" y1="815.6172" y2="815.6172"/><polygon fill="#181818" points="896,833.75,886,837.75,896,841.75,892,837.75" style="stroke:#181818;stroke-width:1.0;"/><line style="stroke:#181818;stroke-width:1.0;stroke-dasharray:2.0,2.0;" x1="890" x2="1058" y1="837.75" y2="837.75"/><text fill="#000000" font-family="sans-serif" font-size="13" font-weight="bold" lengthAdjust="spacing" textLength="18" x="902" y="832.6841">25</text><text fill="#000000" font-family="sans-serif" font-size="13" lengthAdjust="spacing" textLength="66" x="924" y="832.6841">HTTP: 400</text><polygon fill="#181818" points="715,862.8828,705,866.8828,715,870.8828,711,866.8828" style="stroke:#181818;stroke-width:1.0;"/><line style="stroke:#181818;stroke-width:1.0;stroke-dasharray:2.0,2.0;" x1="709" x2="874" y1="866.8828" y2="866.8828"/><text fill="#000000" font-family="sans-serif" font-size="13" font-weight="bold" lengthAdjust="spacing" textLength="18" x="721" y="861.8169">26</text><text fill="#000000" font-family="sans-serif" font-size="13" lengthAdjust="spacing" textLength="66" x="743" y="861.8169">HTTP: 400</text><polygon fill="#181818" points="423,892.0156,413,896.0156,423,900.0156,419,896.0156" style="stroke:#181818;stroke-width:1.0;"/><line style="stroke:#181818;stroke-width:1.0;stroke-dasharray:2.0,2.0;" x1="417" x2="693" y1="896.0156" y2="896.0156"/><text fill="#000000" font-family="sans-serif" font-size="13" font-weight="bold" lengthAdjust="spacing" textLength="18" x="429" y="890.9497">27</text><text fill="#000000" font-family="sans-serif" font-size="13" lengthAdjust="spacing" textLength="66" x="451" y="890.9497">HTTP: 400</text><polygon fill="#181818" points="275,921.1484,265,925.1484,275,929.1484,271,925.1484" style="stroke:#181818;stroke-width:1.0;"/><line style="stroke:#181818;stroke-width:1.0;stroke-dasharray:2.0,2.0;" x1="269" x2="401" y1="925.1484" y2="925.1484"/><text fill="#000000" font-family="sans-serif" font-size="13" font-weight="bold" lengthAdjust="spacing" textLength="18" x="281" y="920.0825">28</text><text fill="#000000" font-family="sans-serif" font-size="13" lengthAdjust="spacing" textLength="66" x="303" y="920.0825">HTTP: 400</text><polygon fill="#181818" points="62,950.2813,52,954.2813,62,958.2813,58,954.2813" style="stroke:#181818;stroke-width:1.0;"/><line style="stroke:#181818;stroke-width:1.0;stroke-dasharray:2.0,2.0;" x1="56" x2="253" y1="954.2813" y2="954.2813"/><text fill="#000000" font-family="sans-serif" font-size="13" font-weight="bold" lengthAdjust="spacing" textLength="18" x="68" y="949.2153">29</text><text fill="#000000" font-family="sans-serif" font-size="13" lengthAdjust="spacing" textLength="141" x="90" y="949.2153">show failure message</text><!--SRC=[ZLJ1Zjem4BtdAqPSkfMw5Qrwoc4bIg6xXshH5lMwCiv0l39sQZjGjDf_xzYE8Gaf52d2utapy_p6OrOxhUhj2atshXG5mbfhjz9_CiQTDZ2Q55kXHi0iCB_AieeP9xYec78mody9t0UlFTYUQpvxdkfjfHKg5o2Sh7FCN6fjVgBP2Ou1DfzPi-Czu9EkdL2R032qnduYdsMgbJDQIZIndZDo2DOkDb0gO9wmqh4OBOO0FrWL_OvMWrLuYLlMOAAHUL75ZZbCOeO_kBtpykMmft0BJaDT5HwqzdbWI_cFSLvc-k2MOa9mJWn_rsWTAEHeBJC7e61syxwJ778Gog9nmAG4Ls80dVA6tiJCTy6WW0swS1BhSoLWqvq08MWq2Io57K37LZKWWWSxX- -pPLo-lhKe-7Q5tS21h9Xr8kLvuaY2CE5yPEIm5geWRAUyRzwnDXbjL87zGxLs8l7MHc3Niiy2VAcUW5W8boxB_sXOCSVBOy3ZwWMvUnN5XtWHQE_jkhIBoN9wtuZxOhMw8d2tf0-uB78N_n1MtvQFrpN_UdWeRi8vFegY3K-pqGsnR8SHti7wMVE00FHMJkEoG6FfdZ35Zo4dJCoU0pT8ARh-qzNnkncDetIXSW5xuKgmDVSZbG7zeWn9PshM_NAvoE7p-5DmDx8UkzdtfpurbwFlZbSXlGDTNs_SRQdtYHbi_SHlC4DfyHBDB-FnHPh9_m-QoJr4C_c6QAwPaBN14qrLP9sXIStlxFaczoVhmYIUZUhvD8VNhJsyz8gsp43vBm00]--></g></svg>