<?xml version="1.0" encoding="UTF-8" standalone="no"?><svg xmlns="http://www.w3.org/2000/svg" xmlns:xlink="http://www.w3.org/1999/xlink" contentScriptType="application/ecmascript" contentStyleType="text/css" height="310px" preserveAspectRatio="none" style="width:479px;height:310px;" version="1.1" viewBox="0 0 479 310" width="479px" zoomAndPan="magnify"><defs><filter height="300%" id="f1mfj4uq6pmlxt" width="300%" x="-1" y="-1"><feGaussianBlur result="blurOut" stdDeviation="2.0"/><feColorMatrix in="blurOut" result="blurOut2" type="matrix" values="0 0 0 0 0 0 0 0 0 0 0 0 0 0 0 0 0 0 .4 0"/><feOffset dx="4.0" dy="4.0" in="blurOut2" result="blurOut3"/><feBlend in="SourceGraphic" in2="blurOut3" mode="normal"/></filter></defs><g><rect fill="#FFFFFF" filter="url(#f1mfj4uq6pmlxt)" height="87.3984" style="stroke: #A80036; stroke-width: 1.0;" width="10" x="179" y="117.4297"/><rect fill="#FFFFFF" filter="url(#f1mfj4uq6pmlxt)" height="29.1328" style="stroke: #A80036; stroke-width: 1.0;" width="10" x="388" y="146.5625"/><line style="stroke: #A80036; stroke-width: 1.0; stroke-dasharray: 5.0,5.0;" x1="27" x2="27" y1="86.2969" y2="222.8281"/><line style="stroke: #A80036; stroke-width: 1.0; stroke-dasharray: 5.0,5.0;" x1="183.5" x2="183.5" y1="86.2969" y2="222.8281"/><line style="stroke: #A80036; stroke-width: 1.0; stroke-dasharray: 5.0,5.0;" x1="393" x2="393" y1="86.2969" y2="222.8281"/><text fill="#000000" font-family="sans-serif" font-size="14" lengthAdjust="spacingAndGlyphs" textLength="32" x="8" y="82.9951">User</text><ellipse cx="27" cy="13" fill="#FEFECE" filter="url(#f1mfj4uq6pmlxt)" rx="8" ry="8" style="stroke: #A80036; stroke-width: 2.0;"/><path d="M27,21 L27,48 M14,29 L40,29 M27,48 L14,63 M27,48 L40,63 " fill="none" filter="url(#f1mfj4uq6pmlxt)" style="stroke: #A80036; stroke-width: 2.0;"/><text fill="#000000" font-family="sans-serif" font-size="14" lengthAdjust="spacingAndGlyphs" textLength="32" x="8" y="234.8232">User</text><ellipse cx="27" cy="248.125" fill="#FEFECE" filter="url(#f1mfj4uq6pmlxt)" rx="8" ry="8" style="stroke: #A80036; stroke-width: 2.0;"/><path d="M27,256.125 L27,283.125 M14,264.125 L40,264.125 M27,283.125 L14,298.125 M27,283.125 L40,298.125 " fill="none" filter="url(#f1mfj4uq6pmlxt)" style="stroke: #A80036; stroke-width: 2.0;"/><rect fill="#FEFECE" filter="url(#f1mfj4uq6pmlxt)" height="30.2969" style="stroke: #A80036; stroke-width: 1.5;" width="233" x="65.5" y="51"/><text fill="#000000" font-family="sans-serif" font-size="14" lengthAdjust="spacingAndGlyphs" textLength="219" x="72.5" y="70.9951">FrontEnd: CreateLiftComponent</text><rect fill="#FEFECE" filter="url(#f1mfj4uq6pmlxt)" height="30.2969" style="stroke: #A80036; stroke-width: 1.5;" width="233" x="65.5" y="221.8281"/><text fill="#000000" font-family="sans-serif" font-size="14" lengthAdjust="spacingAndGlyphs" textLength="219" x="72.5" y="241.8232">FrontEnd: CreateLiftComponent</text><rect fill="#FEFECE" filter="url(#f1mfj4uq6pmlxt)" height="30.2969" style="stroke: #A80036; stroke-width: 1.5;" width="154" x="314" y="51"/><text fill="#000000" font-family="sans-serif" font-size="14" lengthAdjust="spacingAndGlyphs" textLength="140" x="321" y="70.9951">BackEnd: LiftSystem</text><rect fill="#FEFECE" filter="url(#f1mfj4uq6pmlxt)" height="30.2969" style="stroke: #A80036; stroke-width: 1.5;" width="154" x="314" y="221.8281"/><text fill="#000000" font-family="sans-serif" font-size="14" lengthAdjust="spacingAndGlyphs" textLength="140" x="321" y="241.8232">BackEnd: LiftSystem</text><rect fill="#FFFFFF" filter="url(#f1mfj4uq6pmlxt)" height="87.3984" style="stroke: #A80036; stroke-width: 1.0;" width="10" x="179" y="117.4297"/><rect fill="#FFFFFF" filter="url(#f1mfj4uq6pmlxt)" height="29.1328" style="stroke: #A80036; stroke-width: 1.0;" width="10" x="388" y="146.5625"/><polygon fill="#A80036" points="167,113.4297,177,117.4297,167,121.4297,171,117.4297" style="stroke: #A80036; stroke-width: 1.0;"/><line style="stroke: #A80036; stroke-width: 1.0;" x1="27" x2="173" y1="117.4297" y2="117.4297"/><text fill="#000000" font-family="sans-serif" font-size="13" lengthAdjust="spacingAndGlyphs" textLength="133" x="34" y="112.3638">Request Lift Creation</text><polygon fill="#A80036" points="376,142.5625,386,146.5625,376,150.5625,380,146.5625" style="stroke: #A80036; stroke-width: 1.0;"/><line style="stroke: #A80036; stroke-width: 1.0;" x1="189" x2="382" y1="146.5625" y2="146.5625"/><text fill="#000000" font-family="sans-serif" font-size="13" lengthAdjust="spacingAndGlyphs" textLength="122" x="196" y="141.4966">Create Lift(liftData)</text><polygon fill="#A80036" points="200,171.6953,190,175.6953,200,179.6953,196,175.6953" style="stroke: #A80036; stroke-width: 1.0;"/><line style="stroke: #A80036; stroke-width: 1.0; stroke-dasharray: 2.0,2.0;" x1="194" x2="392" y1="175.6953" y2="175.6953"/><text fill="#000000" font-family="sans-serif" font-size="13" lengthAdjust="spacingAndGlyphs" textLength="175" x="206" y="170.6294">Response (Success/Failure)</text><polygon fill="#A80036" points="38,200.8281,28,204.8281,38,208.8281,34,204.8281" style="stroke: #A80036; stroke-width: 1.0;"/><line style="stroke: #A80036; stroke-width: 1.0; stroke-dasharray: 2.0,2.0;" x1="32" x2="183" y1="204.8281" y2="204.8281"/><text fill="#000000" font-family="sans-serif" font-size="13" lengthAdjust="spacingAndGlyphs" textLength="89" x="44" y="199.7622">Display Result</text><!--MD5=[3239088d8d4f65c19180b7dacc5ae53e]
@startuml
actor User
participant "FrontEnd: CreateLiftComponent" as FrontEnd
participant "BackEnd: LiftSystem" as BackEnd

User -> FrontEnd: Request Lift Creation
activate FrontEnd
FrontEnd -> BackEnd: Create Lift(liftData)
activate BackEnd
BackEnd - -> FrontEnd: Response (Success/Failure)
deactivate BackEnd
FrontEnd - -> User: Display Result
deactivate FrontEnd
@enduml

PlantUML version 1.2020.02(Sun Mar 01 10:22:07 UTC 2020)
(GPL source distribution)
Java Runtime: OpenJDK Runtime Environment
JVM: OpenJDK 64-Bit Server VM
Java Version: 11.0.21+9
Operating System: Linux
Default Encoding: UTF-8
Language: en
Country: null
--></g></svg>