<?xml version="1.0" encoding="UTF-8" standalone="no"?><svg xmlns="http://www.w3.org/2000/svg" xmlns:xlink="http://www.w3.org/1999/xlink" contentScriptType="application/ecmascript" contentStyleType="text/css" height="808px" preserveAspectRatio="none" style="width:1503px;height:808px;" version="1.1" viewBox="0 0 1503 808" width="1503px" zoomAndPan="magnify"><defs><filter height="300%" id="f2zy75skhthj0" width="300%" x="-1" y="-1"><feGaussianBlur result="blurOut" stdDeviation="2.0"/><feColorMatrix in="blurOut" result="blurOut2" type="matrix" values="0 0 0 0 0 0 0 0 0 0 0 0 0 0 0 0 0 0 .4 0"/><feOffset dx="4.0" dy="4.0" in="blurOut2" result="blurOut3"/><feBlend in="SourceGraphic" in2="blurOut3" mode="normal"/></filter></defs><g><rect fill="#FFFFFF" filter="url(#f2zy75skhthj0)" height="586" style="stroke: #A80036; stroke-width: 1.0;" width="10" x="146.5" y="117.4297"/><rect fill="#FFFFFF" filter="url(#f2zy75skhthj0)" height="395.5313" style="stroke: #A80036; stroke-width: 1.0;" width="10" x="308.5" y="146.5625"/><rect fill="#FFFFFF" filter="url(#f2zy75skhthj0)" height="14" style="stroke: #A80036; stroke-width: 1.0;" width="10" x="453.5" y="595.3594"/><rect fill="#FFFFFF" filter="url(#f2zy75skhthj0)" height="14" style="stroke: #A80036; stroke-width: 1.0;" width="10" x="453.5" y="653.2969"/><rect fill="#FFFFFF" filter="url(#f2zy75skhthj0)" height="337.2656" style="stroke: #A80036; stroke-width: 1.0;" width="10" x="608" y="175.6953"/><rect fill="#FFFFFF" filter="url(#f2zy75skhthj0)" height="287" style="stroke: #A80036; stroke-width: 1.0;" width="10" x="833" y="204.8281"/><rect fill="#FFFFFF" filter="url(#f2zy75skhthj0)" height="87.3984" style="stroke: #A80036; stroke-width: 1.0;" width="10" x="1082" y="233.9609"/><rect fill="#FFFFFF" filter="url(#f2zy75skhthj0)" height="29.1328" style="stroke: #A80036; stroke-width: 1.0;" width="10" x="1237" y="374.625"/><rect fill="#FFFFFF" filter="url(#f2zy75skhthj0)" height="29.1328" style="stroke: #A80036; stroke-width: 1.0;" width="10" x="1404" y="263.0938"/><rect fill="#FFFFFF" filter="url(#f2zy75skhthj0)" height="148.4688" style="stroke: #000000; stroke-width: 2.0;" width="784.5" x="537" y="336.3594"/><rect fill="#FFFFFF" height="43.9375" style="stroke: none; stroke-width: 1.0;" width="784.5" x="537" y="440.8906"/><rect fill="#FFFFFF" filter="url(#f2zy75skhthj0)" height="118.2031" style="stroke: #000000; stroke-width: 2.0;" width="501" x="46" y="557.0938"/><rect fill="#FFFFFF" height="57.9375" style="stroke: none; stroke-width: 1.0;" width="501" x="46" y="617.3594"/><line style="stroke: #A80036; stroke-width: 1.0; stroke-dasharray: 5.0,5.0;" x1="27" x2="27" y1="86.2969" y2="721.4297"/><line style="stroke: #A80036; stroke-width: 1.0; stroke-dasharray: 5.0,5.0;" x1="151" x2="151" y1="86.2969" y2="721.4297"/><line style="stroke: #A80036; stroke-width: 1.0; stroke-dasharray: 5.0,5.0;" x1="313" x2="313" y1="86.2969" y2="721.4297"/><line style="stroke: #A80036; stroke-width: 1.0; stroke-dasharray: 5.0,5.0;" x1="458" x2="458" y1="86.2969" y2="721.4297"/><line style="stroke: #A80036; stroke-width: 1.0; stroke-dasharray: 5.0,5.0;" x1="613" x2="613" y1="86.2969" y2="721.4297"/><line style="stroke: #A80036; stroke-width: 1.0; stroke-dasharray: 5.0,5.0;" x1="837.5" x2="837.5" y1="86.2969" y2="721.4297"/><line style="stroke: #A80036; stroke-width: 1.0; stroke-dasharray: 5.0,5.0;" x1="1086.5" x2="1086.5" y1="86.2969" y2="721.4297"/><line style="stroke: #A80036; stroke-width: 1.0; stroke-dasharray: 5.0,5.0;" x1="1241.5" x2="1241.5" y1="86.2969" y2="721.4297"/><line style="stroke: #A80036; stroke-width: 1.0; stroke-dasharray: 5.0,5.0;" x1="1408.5" x2="1408.5" y1="86.2969" y2="721.4297"/><text fill="#000000" font-family="sans-serif" font-size="14" lengthAdjust="spacingAndGlyphs" textLength="32" x="8" y="82.9951">User</text><ellipse cx="27" cy="13" fill="#FEFECE" filter="url(#f2zy75skhthj0)" rx="8" ry="8" style="stroke: #A80036; stroke-width: 2.0;"/><path d="M27,21 L27,48 M14,29 L40,29 M27,48 L14,63 M27,48 L40,63 " fill="none" filter="url(#f2zy75skhthj0)" style="stroke: #A80036; stroke-width: 2.0;"/><text fill="#000000" font-family="sans-serif" font-size="14" lengthAdjust="spacingAndGlyphs" textLength="32" x="8" y="733.4248">User</text><ellipse cx="27" cy="746.7266" fill="#FEFECE" filter="url(#f2zy75skhthj0)" rx="8" ry="8" style="stroke: #A80036; stroke-width: 2.0;"/><path d="M27,754.7266 L27,781.7266 M14,762.7266 L40,762.7266 M27,781.7266 L14,796.7266 M27,781.7266 L40,796.7266 " fill="none" filter="url(#f2zy75skhthj0)" style="stroke: #A80036; stroke-width: 2.0;"/><rect fill="#FEFECE" filter="url(#f2zy75skhthj0)" height="30.2969" style="stroke: #A80036; stroke-width: 1.5;" width="187" x="56" y="51"/><text fill="#000000" font-family="sans-serif" font-size="14" lengthAdjust="spacingAndGlyphs" textLength="173" x="63" y="70.9951">FE: CreateLiftComponent</text><rect fill="#FEFECE" filter="url(#f2zy75skhthj0)" height="30.2969" style="stroke: #A80036; stroke-width: 1.5;" width="187" x="56" y="720.4297"/><text fill="#000000" font-family="sans-serif" font-size="14" lengthAdjust="spacingAndGlyphs" textLength="173" x="63" y="740.4248">FE: CreateLiftComponent</text><rect fill="#FEFECE" filter="url(#f2zy75skhthj0)" height="30.2969" style="stroke: #A80036; stroke-width: 1.5;" width="109" x="257" y="51"/><text fill="#000000" font-family="sans-serif" font-size="14" lengthAdjust="spacingAndGlyphs" textLength="95" x="264" y="70.9951">FE: LiftService</text><rect fill="#FEFECE" filter="url(#f2zy75skhthj0)" height="30.2969" style="stroke: #A80036; stroke-width: 1.5;" width="109" x="257" y="720.4297"/><text fill="#000000" font-family="sans-serif" font-size="14" lengthAdjust="spacingAndGlyphs" textLength="95" x="264" y="740.4248">FE: LiftService</text><rect fill="#FEFECE" filter="url(#f2zy75skhthj0)" height="30.2969" style="stroke: #A80036; stroke-width: 1.5;" width="153" x="380" y="51"/><text fill="#000000" font-family="sans-serif" font-size="14" lengthAdjust="spacingAndGlyphs" textLength="139" x="387" y="70.9951">FE: MessageService</text><rect fill="#FEFECE" filter="url(#f2zy75skhthj0)" height="30.2969" style="stroke: #A80036; stroke-width: 1.5;" width="153" x="380" y="720.4297"/><text fill="#000000" font-family="sans-serif" font-size="14" lengthAdjust="spacingAndGlyphs" textLength="139" x="387" y="740.4248">FE: MessageService</text><rect fill="#FEFECE" filter="url(#f2zy75skhthj0)" height="30.2969" style="stroke: #A80036; stroke-width: 1.5;" width="128" x="547" y="51"/><text fill="#000000" font-family="sans-serif" font-size="14" lengthAdjust="spacingAndGlyphs" textLength="114" x="554" y="70.9951">BE: LiftController</text><rect fill="#FEFECE" filter="url(#f2zy75skhthj0)" height="30.2969" style="stroke: #A80036; stroke-width: 1.5;" width="128" x="547" y="720.4297"/><text fill="#000000" font-family="sans-serif" font-size="14" lengthAdjust="spacingAndGlyphs" textLength="114" x="554" y="740.4248">BE: LiftController</text><rect fill="#FEFECE" filter="url(#f2zy75skhthj0)" height="30.2969" style="stroke: #A80036; stroke-width: 1.5;" width="111" x="780.5" y="51"/><text fill="#000000" font-family="sans-serif" font-size="14" lengthAdjust="spacingAndGlyphs" textLength="97" x="787.5" y="70.9951">BE: LiftService</text><rect fill="#FEFECE" filter="url(#f2zy75skhthj0)" height="30.2969" style="stroke: #A80036; stroke-width: 1.5;" width="111" x="780.5" y="720.4297"/><text fill="#000000" font-family="sans-serif" font-size="14" lengthAdjust="spacingAndGlyphs" textLength="97" x="787.5" y="740.4248">BE: LiftService</text><rect fill="#FEFECE" filter="url(#f2zy75skhthj0)" height="30.2969" style="stroke: #A80036; stroke-width: 1.5;" width="147" x="1011.5" y="51"/><text fill="#000000" font-family="sans-serif" font-size="14" lengthAdjust="spacingAndGlyphs" textLength="133" x="1018.5" y="70.9951">BE: BuildingService</text><rect fill="#FEFECE" filter="url(#f2zy75skhthj0)" height="30.2969" style="stroke: #A80036; stroke-width: 1.5;" width="147" x="1011.5" y="720.4297"/><text fill="#000000" font-family="sans-serif" font-size="14" lengthAdjust="spacingAndGlyphs" textLength="133" x="1018.5" y="740.4248">BE: BuildingService</text><rect fill="#FEFECE" filter="url(#f2zy75skhthj0)" height="30.2969" style="stroke: #A80036; stroke-width: 1.5;" width="135" x="1172.5" y="51"/><text fill="#000000" font-family="sans-serif" font-size="14" lengthAdjust="spacingAndGlyphs" textLength="121" x="1179.5" y="70.9951">BE: LiftRepository</text><rect fill="#FEFECE" filter="url(#f2zy75skhthj0)" height="30.2969" style="stroke: #A80036; stroke-width: 1.5;" width="135" x="1172.5" y="720.4297"/><text fill="#000000" font-family="sans-serif" font-size="14" lengthAdjust="spacingAndGlyphs" textLength="121" x="1179.5" y="740.4248">BE: LiftRepository</text><rect fill="#FEFECE" filter="url(#f2zy75skhthj0)" height="30.2969" style="stroke: #A80036; stroke-width: 1.5;" width="171" x="1321.5" y="51"/><text fill="#000000" font-family="sans-serif" font-size="14" lengthAdjust="spacingAndGlyphs" textLength="157" x="1328.5" y="70.9951">BE: BuildingRepository</text><rect fill="#FEFECE" filter="url(#f2zy75skhthj0)" height="30.2969" style="stroke: #A80036; stroke-width: 1.5;" width="171" x="1321.5" y="720.4297"/><text fill="#000000" font-family="sans-serif" font-size="14" lengthAdjust="spacingAndGlyphs" textLength="157" x="1328.5" y="740.4248">BE: BuildingRepository</text><rect fill="#FFFFFF" filter="url(#f2zy75skhthj0)" height="586" style="stroke: #A80036; stroke-width: 1.0;" width="10" x="146.5" y="117.4297"/><rect fill="#FFFFFF" filter="url(#f2zy75skhthj0)" height="395.5313" style="stroke: #A80036; stroke-width: 1.0;" width="10" x="308.5" y="146.5625"/><rect fill="#FFFFFF" filter="url(#f2zy75skhthj0)" height="14" style="stroke: #A80036; stroke-width: 1.0;" width="10" x="453.5" y="595.3594"/><rect fill="#FFFFFF" filter="url(#f2zy75skhthj0)" height="14" style="stroke: #A80036; stroke-width: 1.0;" width="10" x="453.5" y="653.2969"/><rect fill="#FFFFFF" filter="url(#f2zy75skhthj0)" height="337.2656" style="stroke: #A80036; stroke-width: 1.0;" width="10" x="608" y="175.6953"/><rect fill="#FFFFFF" filter="url(#f2zy75skhthj0)" height="287" style="stroke: #A80036; stroke-width: 1.0;" width="10" x="833" y="204.8281"/><rect fill="#FFFFFF" filter="url(#f2zy75skhthj0)" height="87.3984" style="stroke: #A80036; stroke-width: 1.0;" width="10" x="1082" y="233.9609"/><rect fill="#FFFFFF" filter="url(#f2zy75skhthj0)" height="29.1328" style="stroke: #A80036; stroke-width: 1.0;" width="10" x="1237" y="374.625"/><rect fill="#FFFFFF" filter="url(#f2zy75skhthj0)" height="29.1328" style="stroke: #A80036; stroke-width: 1.0;" width="10" x="1404" y="263.0938"/><polygon fill="#A80036" points="134.5,113.4297,144.5,117.4297,134.5,121.4297,138.5,117.4297" style="stroke: #A80036; stroke-width: 1.0;"/><line style="stroke: #A80036; stroke-width: 1.0;" x1="27" x2="140.5" y1="117.4297" y2="117.4297"/><text fill="#000000" font-family="sans-serif" font-size="13" lengthAdjust="spacingAndGlyphs" textLength="56" x="34" y="112.3638">fillForm()</text><polygon fill="#A80036" points="296.5,142.5625,306.5,146.5625,296.5,150.5625,300.5,146.5625" style="stroke: #A80036; stroke-width: 1.0;"/><line style="stroke: #A80036; stroke-width: 1.0;" x1="156.5" x2="302.5" y1="146.5625" y2="146.5625"/><text fill="#000000" font-family="sans-serif" font-size="13" lengthAdjust="spacingAndGlyphs" textLength="116" x="163.5" y="141.4966">createLift(liftData)</text><polygon fill="#A80036" points="596,171.6953,606,175.6953,596,179.6953,600,175.6953" style="stroke: #A80036; stroke-width: 1.0;"/><line style="stroke: #A80036; stroke-width: 1.0;" x1="318.5" x2="602" y1="175.6953" y2="175.6953"/><text fill="#000000" font-family="sans-serif" font-size="13" lengthAdjust="spacingAndGlyphs" textLength="168" x="325.5" y="170.6294">createLiftRequest(liftData)</text><polygon fill="#A80036" points="821,200.8281,831,204.8281,821,208.8281,825,204.8281" style="stroke: #A80036; stroke-width: 1.0;"/><line style="stroke: #A80036; stroke-width: 1.0;" x1="618" x2="827" y1="204.8281" y2="204.8281"/><text fill="#000000" font-family="sans-serif" font-size="13" lengthAdjust="spacingAndGlyphs" textLength="116" x="625" y="199.7622">createLift(liftData)</text><polygon fill="#A80036" points="1070,229.9609,1080,233.9609,1070,237.9609,1074,233.9609" style="stroke: #A80036; stroke-width: 1.0;"/><line style="stroke: #A80036; stroke-width: 1.0;" x1="843" x2="1076" y1="233.9609" y2="233.9609"/><text fill="#000000" font-family="sans-serif" font-size="13" lengthAdjust="spacingAndGlyphs" textLength="220" x="850" y="228.895">validateBuilding(liftData.buildingId)</text><polygon fill="#A80036" points="1392,259.0938,1402,263.0938,1392,267.0938,1396,263.0938" style="stroke: #A80036; stroke-width: 1.0;"/><line style="stroke: #A80036; stroke-width: 1.0;" x1="1092" x2="1398" y1="263.0938" y2="263.0938"/><text fill="#000000" font-family="sans-serif" font-size="13" lengthAdjust="spacingAndGlyphs" textLength="120" x="1099" y="258.0278">findById(buildingId)</text><polygon fill="#A80036" points="1103,288.2266,1093,292.2266,1103,296.2266,1099,292.2266" style="stroke: #A80036; stroke-width: 1.0;"/><line style="stroke: #A80036; stroke-width: 1.0; stroke-dasharray: 2.0,2.0;" x1="1097" x2="1408" y1="292.2266" y2="292.2266"/><text fill="#000000" font-family="sans-serif" font-size="13" lengthAdjust="spacingAndGlyphs" textLength="93" x="1109" y="287.1606">buildingDetails</text><polygon fill="#A80036" points="854,317.3594,844,321.3594,854,325.3594,850,321.3594" style="stroke: #A80036; stroke-width: 1.0;"/><line style="stroke: #A80036; stroke-width: 1.0; stroke-dasharray: 2.0,2.0;" x1="848" x2="1086" y1="321.3594" y2="321.3594"/><text fill="#000000" font-family="sans-serif" font-size="13" lengthAdjust="spacingAndGlyphs" textLength="151" x="860" y="316.2935">buildingValidationResult</text><path d="M537,336.3594 L601,336.3594 L601,343.3594 L591,353.3594 L537,353.3594 L537,336.3594 " fill="#EEEEEE" style="stroke: #000000; stroke-width: 1.0;"/><rect fill="none" height="148.4688" style="stroke: #000000; stroke-width: 2.0;" width="784.5" x="537" y="336.3594"/><text fill="#000000" font-family="sans-serif" font-size="13" font-weight="bold" lengthAdjust="spacingAndGlyphs" textLength="19" x="552" y="349.4263">alt</text><text fill="#000000" font-family="sans-serif" font-size="11" font-weight="bold" lengthAdjust="spacingAndGlyphs" textLength="205" x="616" y="348.5698">[Building Validation Successful]</text><polygon fill="#A80036" points="1225,370.625,1235,374.625,1225,378.625,1229,374.625" style="stroke: #A80036; stroke-width: 1.0;"/><line style="stroke: #A80036; stroke-width: 1.0;" x1="843" x2="1231" y1="374.625" y2="374.625"/><text fill="#000000" font-family="sans-serif" font-size="13" lengthAdjust="spacingAndGlyphs" textLength="118" x="850" y="369.5591">saveLift(liftDetails)</text><polygon fill="#A80036" points="854,399.7578,844,403.7578,854,407.7578,850,403.7578" style="stroke: #A80036; stroke-width: 1.0;"/><line style="stroke: #A80036; stroke-width: 1.0; stroke-dasharray: 2.0,2.0;" x1="848" x2="1241" y1="403.7578" y2="403.7578"/><text fill="#000000" font-family="sans-serif" font-size="13" lengthAdjust="spacingAndGlyphs" textLength="137" x="860" y="398.6919">liftSavedConfirmation</text><polygon fill="#A80036" points="629,428.8906,619,432.8906,629,436.8906,625,432.8906" style="stroke: #A80036; stroke-width: 1.0;"/><line style="stroke: #A80036; stroke-width: 1.0; stroke-dasharray: 2.0,2.0;" x1="623" x2="832" y1="432.8906" y2="432.8906"/><text fill="#000000" font-family="sans-serif" font-size="13" lengthAdjust="spacingAndGlyphs" textLength="191" x="635" y="427.8247">liftCreationSuccess(liftDetails)</text><line style="stroke: #000000; stroke-width: 1.0; stroke-dasharray: 2.0,2.0;" x1="537" x2="1321.5" y1="441.8906" y2="441.8906"/><text fill="#000000" font-family="sans-serif" font-size="11" font-weight="bold" lengthAdjust="spacingAndGlyphs" textLength="176" x="542" y="452.1011">[Building Validation Failed]</text><polygon fill="#A80036" points="629,472.8281,619,476.8281,629,480.8281,625,476.8281" style="stroke: #A80036; stroke-width: 1.0;"/><line style="stroke: #A80036; stroke-width: 1.0; stroke-dasharray: 2.0,2.0;" x1="623" x2="832" y1="476.8281" y2="476.8281"/><text fill="#000000" font-family="sans-serif" font-size="13" lengthAdjust="spacingAndGlyphs" textLength="143" x="635" y="471.7622">buildingValidationError</text><polygon fill="#A80036" points="329.5,508.9609,319.5,512.9609,329.5,516.9609,325.5,512.9609" style="stroke: #A80036; stroke-width: 1.0;"/><line style="stroke: #A80036; stroke-width: 1.0; stroke-dasharray: 2.0,2.0;" x1="323.5" x2="612" y1="512.9609" y2="512.9609"/><text fill="#000000" font-family="sans-serif" font-size="13" lengthAdjust="spacingAndGlyphs" textLength="77" x="335.5" y="507.895">liftResponse</text><polygon fill="#A80036" points="167.5,538.0938,157.5,542.0938,167.5,546.0938,163.5,542.0938" style="stroke: #A80036; stroke-width: 1.0;"/><line style="stroke: #A80036; stroke-width: 1.0; stroke-dasharray: 2.0,2.0;" x1="161.5" x2="312.5" y1="542.0938" y2="542.0938"/><text fill="#000000" font-family="sans-serif" font-size="13" lengthAdjust="spacingAndGlyphs" textLength="77" x="173.5" y="537.0278">liftResponse</text><path d="M46,557.0938 L110,557.0938 L110,564.0938 L100,574.0938 L46,574.0938 L46,557.0938 " fill="#EEEEEE" style="stroke: #000000; stroke-width: 1.0;"/><rect fill="none" height="118.2031" style="stroke: #000000; stroke-width: 2.0;" width="501" x="46" y="557.0938"/><text fill="#000000" font-family="sans-serif" font-size="13" font-weight="bold" lengthAdjust="spacingAndGlyphs" textLength="19" x="61" y="570.1606">alt</text><text fill="#000000" font-family="sans-serif" font-size="11" font-weight="bold" lengthAdjust="spacingAndGlyphs" textLength="95" x="125" y="569.3042">[success case]</text><polygon fill="#A80036" points="441.5,591.3594,451.5,595.3594,441.5,599.3594,445.5,595.3594" style="stroke: #A80036; stroke-width: 1.0;"/><line style="stroke: #A80036; stroke-width: 1.0;" x1="156.5" x2="447.5" y1="595.3594" y2="595.3594"/><text fill="#000000" font-family="sans-serif" font-size="13" lengthAdjust="spacingAndGlyphs" textLength="250" x="163.5" y="590.2935">add("Lift created successfully, liftData")</text><polygon fill="#A80036" points="167.5,605.3594,157.5,609.3594,167.5,613.3594,163.5,609.3594" style="stroke: #A80036; stroke-width: 1.0;"/><line style="stroke: #A80036; stroke-width: 1.0; stroke-dasharray: 2.0,2.0;" x1="161.5" x2="457.5" y1="609.3594" y2="609.3594"/><line style="stroke: #000000; stroke-width: 1.0; stroke-dasharray: 2.0,2.0;" x1="46" x2="547" y1="618.3594" y2="618.3594"/><text fill="#000000" font-family="sans-serif" font-size="11" font-weight="bold" lengthAdjust="spacingAndGlyphs" textLength="75" x="51" y="628.5698">[error case]</text><polygon fill="#A80036" points="441.5,649.2969,451.5,653.2969,441.5,657.2969,445.5,653.2969" style="stroke: #A80036; stroke-width: 1.0;"/><line style="stroke: #A80036; stroke-width: 1.0;" x1="156.5" x2="447.5" y1="653.2969" y2="653.2969"/><text fill="#000000" font-family="sans-serif" font-size="13" lengthAdjust="spacingAndGlyphs" textLength="251" x="163.5" y="648.231">add("Error creating lift, errorResponse")</text><polygon fill="#A80036" points="167.5,663.2969,157.5,667.2969,167.5,671.2969,163.5,667.2969" style="stroke: #A80036; stroke-width: 1.0;"/><line style="stroke: #A80036; stroke-width: 1.0; stroke-dasharray: 2.0,2.0;" x1="161.5" x2="457.5" y1="667.2969" y2="667.2969"/><polygon fill="#A80036" points="38,699.4297,28,703.4297,38,707.4297,34,703.4297" style="stroke: #A80036; stroke-width: 1.0;"/><line style="stroke: #A80036; stroke-width: 1.0;" x1="32" x2="150.5" y1="703.4297" y2="703.4297"/><text fill="#000000" font-family="sans-serif" font-size="13" lengthAdjust="spacingAndGlyphs" textLength="93" x="44" y="698.3638">displayResult()</text><!--MD5=[513892318fe4883e44178cdd09e5cd89]
@startuml
actor User
participant "FE: CreateLiftComponent" as FrontEnd
participant "FE: LiftService" as LiftService
participant "FE: MessageService" as MessageService
participant "BE: LiftController" as LiftController
participant "BE: LiftService" as BackendLiftService
participant "BE: BuildingService" as BuildingService
participant "BE: LiftRepository" as LiftRepo
participant "BE: BuildingRepository" as BuildingRepo

User -> FrontEnd: fillForm()
activate FrontEnd

FrontEnd -> LiftService: createLift(liftData)
activate LiftService
LiftService -> LiftController: createLiftRequest(liftData)
activate LiftController

LiftController -> BackendLiftService: createLift(liftData)
activate BackendLiftService
BackendLiftService -> BuildingService: validateBuilding(liftData.buildingId)
activate BuildingService
BuildingService -> BuildingRepo: findById(buildingId)
activate BuildingRepo
BuildingRepo - -> BuildingService: buildingDetails
deactivate BuildingRepo
BuildingService - -> BackendLiftService: buildingValidationResult
deactivate BuildingService

alt Building Validation Successful
    BackendLiftService -> LiftRepo: saveLift(liftDetails)
    activate LiftRepo
    LiftRepo - -> BackendLiftService: liftSavedConfirmation
    deactivate LiftRepo
    BackendLiftService - -> LiftController: liftCreationSuccess(liftDetails)
else Building Validation Failed
    BackendLiftService - -> LiftController: buildingValidationError
end
deactivate BackendLiftService

LiftController - -> LiftService: liftResponse
deactivate LiftController
LiftService - -> FrontEnd: liftResponse
deactivate LiftService

alt success case
    FrontEnd -> MessageService: add("Lift created successfully, liftData")
    activate MessageService
    MessageService - -> FrontEnd
    deactivate MessageService
else error case
    FrontEnd -> MessageService: add("Error creating lift, errorResponse")
    activate MessageService
    MessageService - -> FrontEnd
    deactivate MessageService
end

FrontEnd -> User: displayResult()
deactivate FrontEnd
@enduml

PlantUML version 1.2020.02(Sun Mar 01 10:22:07 UTC 2020)
(GPL source distribution)
Java Runtime: OpenJDK Runtime Environment
JVM: OpenJDK 64-Bit Server VM
Java Version: 11.0.21+9
Operating System: Linux
Default Encoding: UTF-8
Language: en
Country: null
--></g></svg>