<?xml version="1.0" encoding="UTF-8" standalone="no"?><svg xmlns="http://www.w3.org/2000/svg" xmlns:xlink="http://www.w3.org/1999/xlink" contentScriptType="application/ecmascript" contentStyleType="text/css" height="459px" preserveAspectRatio="none" style="width:539px;height:459px;" version="1.1" viewBox="0 0 539 459" width="539px" zoomAndPan="magnify"><defs><filter height="300%" id="f1m1ee71pyojdk" width="300%" x="-1" y="-1"><feGaussianBlur result="blurOut" stdDeviation="2.0"/><feColorMatrix in="blurOut" result="blurOut2" type="matrix" values="0 0 0 0 0 0 0 0 0 0 0 0 0 0 0 0 0 0 .4 0"/><feOffset dx="4.0" dy="4.0" in="blurOut2" result="blurOut3"/><feBlend in="SourceGraphic" in2="blurOut3" mode="normal"/></filter></defs><g><rect fill="#FFFFFF" filter="url(#f1m1ee71pyojdk)" height="267.1953" style="stroke: #A80036; stroke-width: 1.0;" width="10" x="37" y="96.2969"/><rect fill="#FFFFFF" filter="url(#f1m1ee71pyojdk)" height="245.0625" style="stroke: #A80036; stroke-width: 1.0;" width="10" x="245" y="117.4297"/><rect fill="#FFFFFF" filter="url(#f1m1ee71pyojdk)" height="186.7969" style="stroke: #A80036; stroke-width: 1.0;" width="10" x="447" y="175.6953"/><rect fill="#FFFFFF" filter="url(#f1m1ee71pyojdk)" height="135.6641" style="stroke: #000000; stroke-width: 2.0;" width="514.5" x="13" y="219.8281"/><rect fill="#FFFFFF" height="60.2656" style="stroke: none; stroke-width: 1.0;" width="514.5" x="13" y="295.2266"/><line style="stroke: #A80036; stroke-width: 1.0; stroke-dasharray: 5.0,5.0;" x1="42" x2="42" y1="86.2969" y2="372.4922"/><line style="stroke: #A80036; stroke-width: 1.0; stroke-dasharray: 5.0,5.0;" x1="250" x2="250" y1="86.2969" y2="372.4922"/><line style="stroke: #A80036; stroke-width: 1.0; stroke-dasharray: 5.0,5.0;" x1="451.5" x2="451.5" y1="86.2969" y2="372.4922"/><text fill="#000000" font-family="sans-serif" font-size="14" lengthAdjust="spacingAndGlyphs" textLength="32" x="23" y="82.9951">User</text><ellipse cx="42" cy="13" fill="#FEFECE" filter="url(#f1m1ee71pyojdk)" rx="8" ry="8" style="stroke: #A80036; stroke-width: 2.0;"/><path d="M42,21 L42,48 M29,29 L55,29 M42,48 L29,63 M42,48 L55,63 " fill="none" filter="url(#f1m1ee71pyojdk)" style="stroke: #A80036; stroke-width: 2.0;"/><text fill="#000000" font-family="sans-serif" font-size="14" lengthAdjust="spacingAndGlyphs" textLength="32" x="23" y="384.4873">User</text><ellipse cx="42" cy="397.7891" fill="#FEFECE" filter="url(#f1m1ee71pyojdk)" rx="8" ry="8" style="stroke: #A80036; stroke-width: 2.0;"/><path d="M42,405.7891 L42,432.7891 M29,413.7891 L55,413.7891 M42,432.7891 L29,447.7891 M42,432.7891 L55,447.7891 " fill="none" filter="url(#f1m1ee71pyojdk)" style="stroke: #A80036; stroke-width: 2.0;"/><rect fill="#FEFECE" filter="url(#f1m1ee71pyojdk)" height="46.5938" style="stroke: #A80036; stroke-width: 1.5;" width="136" x="180" y="34.7031"/><text fill="#000000" font-family="sans-serif" font-size="14" lengthAdjust="spacingAndGlyphs" textLength="111" x="192.5" y="54.6982">&lt;&lt;Frontend&gt;&gt;</text><text fill="#000000" font-family="sans-serif" font-size="14" lengthAdjust="spacingAndGlyphs" textLength="122" x="187" y="70.9951">(Edit Component)</text><rect fill="#FEFECE" filter="url(#f1m1ee71pyojdk)" height="46.5938" style="stroke: #A80036; stroke-width: 1.5;" width="136" x="180" y="371.4922"/><text fill="#000000" font-family="sans-serif" font-size="14" lengthAdjust="spacingAndGlyphs" textLength="111" x="192.5" y="391.4873">&lt;&lt;Frontend&gt;&gt;</text><text fill="#000000" font-family="sans-serif" font-size="14" lengthAdjust="spacingAndGlyphs" textLength="122" x="187" y="407.7842">(Edit Component)</text><rect fill="#FEFECE" filter="url(#f1m1ee71pyojdk)" height="46.5938" style="stroke: #A80036; stroke-width: 1.5;" width="127" x="386.5" y="34.7031"/><text fill="#000000" font-family="sans-serif" font-size="14" lengthAdjust="spacingAndGlyphs" textLength="109" x="395.5" y="54.6982">&lt;&lt;Backend&gt;&gt;</text><text fill="#000000" font-family="sans-serif" font-size="14" lengthAdjust="spacingAndGlyphs" textLength="113" x="393.5" y="70.9951">(User Controller)</text><rect fill="#FEFECE" filter="url(#f1m1ee71pyojdk)" height="46.5938" style="stroke: #A80036; stroke-width: 1.5;" width="127" x="386.5" y="371.4922"/><text fill="#000000" font-family="sans-serif" font-size="14" lengthAdjust="spacingAndGlyphs" textLength="109" x="395.5" y="391.4873">&lt;&lt;Backend&gt;&gt;</text><text fill="#000000" font-family="sans-serif" font-size="14" lengthAdjust="spacingAndGlyphs" textLength="113" x="393.5" y="407.7842">(User Controller)</text><rect fill="#FFFFFF" filter="url(#f1m1ee71pyojdk)" height="267.1953" style="stroke: #A80036; stroke-width: 1.0;" width="10" x="37" y="96.2969"/><rect fill="#FFFFFF" filter="url(#f1m1ee71pyojdk)" height="245.0625" style="stroke: #A80036; stroke-width: 1.0;" width="10" x="245" y="117.4297"/><rect fill="#FFFFFF" filter="url(#f1m1ee71pyojdk)" height="186.7969" style="stroke: #A80036; stroke-width: 1.0;" width="10" x="447" y="175.6953"/><polygon fill="#A80036" points="233,113.4297,243,117.4297,233,121.4297,237,117.4297" style="stroke: #A80036; stroke-width: 1.0;"/><line style="stroke: #A80036; stroke-width: 1.0;" x1="47" x2="239" y1="117.4297" y2="117.4297"/><text fill="#000000" font-family="sans-serif" font-size="13" font-weight="bold" lengthAdjust="spacingAndGlyphs" textLength="9" x="54" y="112.3638">1</text><text fill="#000000" font-family="sans-serif" font-size="13" lengthAdjust="spacingAndGlyphs" textLength="56" x="67" y="112.3638">edit user</text><polygon fill="#A80036" points="58,142.5625,48,146.5625,58,150.5625,54,146.5625" style="stroke: #A80036; stroke-width: 1.0;"/><line style="stroke: #A80036; stroke-width: 1.0; stroke-dasharray: 2.0,2.0;" x1="52" x2="244" y1="146.5625" y2="146.5625"/><text fill="#000000" font-family="sans-serif" font-size="13" font-weight="bold" lengthAdjust="spacingAndGlyphs" textLength="9" x="64" y="141.4966">2</text><text fill="#000000" font-family="sans-serif" font-size="13" lengthAdjust="spacingAndGlyphs" textLength="161" x="77" y="141.4966">request necessary data()</text><polygon fill="#A80036" points="233,171.6953,243,175.6953,233,179.6953,237,175.6953" style="stroke: #A80036; stroke-width: 1.0;"/><line style="stroke: #A80036; stroke-width: 1.0;" x1="47" x2="239" y1="175.6953" y2="175.6953"/><text fill="#000000" font-family="sans-serif" font-size="13" font-weight="bold" lengthAdjust="spacingAndGlyphs" textLength="9" x="54" y="170.6294">3</text><text fill="#000000" font-family="sans-serif" font-size="13" lengthAdjust="spacingAndGlyphs" textLength="112" x="67" y="170.6294">insert all the data</text><polygon fill="#A80036" points="435,200.8281,445,204.8281,435,208.8281,439,204.8281" style="stroke: #A80036; stroke-width: 1.0;"/><line style="stroke: #A80036; stroke-width: 1.0;" x1="255" x2="441" y1="204.8281" y2="204.8281"/><text fill="#000000" font-family="sans-serif" font-size="13" font-weight="bold" lengthAdjust="spacingAndGlyphs" textLength="9" x="262" y="199.7622">4</text><text fill="#000000" font-family="sans-serif" font-size="13" lengthAdjust="spacingAndGlyphs" textLength="155" x="275" y="199.7622">POST edit{editUserDto}</text><path d="M13,219.8281 L77,219.8281 L77,226.8281 L67,236.8281 L13,236.8281 L13,219.8281 " fill="#EEEEEE" style="stroke: #000000; stroke-width: 1.0;"/><rect fill="none" height="135.6641" style="stroke: #000000; stroke-width: 2.0;" width="514.5" x="13" y="219.8281"/><text fill="#000000" font-family="sans-serif" font-size="13" font-weight="bold" lengthAdjust="spacingAndGlyphs" textLength="19" x="28" y="232.895">alt</text><text fill="#000000" font-family="sans-serif" font-size="11" font-weight="bold" lengthAdjust="spacingAndGlyphs" textLength="112" x="92" y="232.0386">[successful case]</text><polygon fill="#A80036" points="266,254.0938,256,258.0938,266,262.0938,262,258.0938" style="stroke: #A80036; stroke-width: 1.0;"/><line style="stroke: #A80036; stroke-width: 1.0; stroke-dasharray: 2.0,2.0;" x1="260" x2="446" y1="258.0938" y2="258.0938"/><text fill="#000000" font-family="sans-serif" font-size="13" font-weight="bold" lengthAdjust="spacingAndGlyphs" textLength="9" x="272" y="253.0278">5</text><text fill="#000000" font-family="sans-serif" font-size="13" lengthAdjust="spacingAndGlyphs" textLength="114" x="285" y="253.0278">success message</text><polygon fill="#A80036" points="58,283.2266,48,287.2266,58,291.2266,54,287.2266" style="stroke: #A80036; stroke-width: 1.0;"/><line style="stroke: #A80036; stroke-width: 1.0; stroke-dasharray: 2.0,2.0;" x1="52" x2="244" y1="287.2266" y2="287.2266"/><text fill="#000000" font-family="sans-serif" font-size="13" font-weight="bold" lengthAdjust="spacingAndGlyphs" textLength="9" x="64" y="282.1606">6</text><text fill="#000000" font-family="sans-serif" font-size="13" lengthAdjust="spacingAndGlyphs" textLength="150" x="77" y="282.1606">show success message</text><line style="stroke: #000000; stroke-width: 1.0; stroke-dasharray: 2.0,2.0;" x1="13" x2="527.5" y1="296.2266" y2="296.2266"/><polygon fill="#A80036" points="266,314.3594,256,318.3594,266,322.3594,262,318.3594" style="stroke: #A80036; stroke-width: 1.0;"/><line style="stroke: #A80036; stroke-width: 1.0; stroke-dasharray: 2.0,2.0;" x1="260" x2="446" y1="318.3594" y2="318.3594"/><text fill="#000000" font-family="sans-serif" font-size="13" font-weight="bold" lengthAdjust="spacingAndGlyphs" textLength="9" x="272" y="313.2935">7</text><text fill="#000000" font-family="sans-serif" font-size="13" lengthAdjust="spacingAndGlyphs" textLength="102" x="285" y="313.2935">failure message</text><polygon fill="#A80036" points="58,343.4922,48,347.4922,58,351.4922,54,347.4922" style="stroke: #A80036; stroke-width: 1.0;"/><line style="stroke: #A80036; stroke-width: 1.0; stroke-dasharray: 2.0,2.0;" x1="52" x2="244" y1="347.4922" y2="347.4922"/><text fill="#000000" font-family="sans-serif" font-size="13" font-weight="bold" lengthAdjust="spacingAndGlyphs" textLength="9" x="64" y="342.4263">8</text><text fill="#000000" font-family="sans-serif" font-size="13" lengthAdjust="spacingAndGlyphs" textLength="138" x="77" y="342.4263">show failure message</text><!--MD5=[e09a1e42ed2fc0a6c5d0e9e29e6b7963]
@startuml
autonumber
actor "User" as admin

participant "<<Frontend>>\n(Edit Component)" as f
participant "<<Backend>>\n(User Controller)" as c

activate admin

admin -> f: edit user
activate f

f - -> admin: request necessary data()
admin -> f : insert all the data
activate c
f -> c: POST edit{editUserDto}

alt successful case
    c - -> f: success message
    f - -> admin: show success message
else
    c - -> f: failure message
    f - -> admin: show failure message
end
deactivate c
deactivate f
@enduml

PlantUML version 1.2020.02(Sun Mar 01 10:22:07 UTC 2020)
(GPL source distribution)
Java Runtime: OpenJDK Runtime Environment
JVM: OpenJDK 64-Bit Server VM
Java Version: 11.0.21+9
Operating System: Linux
Default Encoding: UTF-8
Language: en
Country: null
--></g></svg>