<?xml version="1.0" encoding="windows-1252" standalone="no"?>
<svg xmlns="http://www.w3.org/2000/svg" xmlns:xlink="http://www.w3.org/1999/xlink" contentStyleType="text/css" height="1120px" preserveAspectRatio="none" style="width:2044px;height:1120px;background:#FFFFFF;" version="1.1" viewBox="0 0 2044 1120" width="2044px" zoomAndPan="magnify"><defs/><g><rect fill="#FFFFFF" height="938.25" style="stroke:#181818;stroke-width:1.0;" width="10" x="41" y="91.2969"/><rect fill="#FFFFFF" height="917.1172" style="stroke:#181818;stroke-width:1.0;" width="10" x="286" y="112.4297"/><rect fill="#FFFFFF" height="858.8516" style="stroke:#181818;stroke-width:1.0;" width="10" x="481" y="170.6953"/><rect fill="#FFFFFF" height="145.6641" style="stroke:#181818;stroke-width:1.0;" width="10" x="783" y="199.8281"/><rect fill="#FFFFFF" height="654.9219" style="stroke:#181818;stroke-width:1.0;" width="10" x="783" y="374.625"/><rect fill="#FFFFFF" height="116.5313" style="stroke:#181818;stroke-width:1.0;" width="10" x="964" y="228.9609"/><rect fill="#FFFFFF" height="625.7891" style="stroke:#181818;stroke-width:1.0;" width="10" x="964" y="403.7578"/><rect fill="#FFFFFF" height="87.3984" style="stroke:#181818;stroke-width:1.0;" width="10" x="1194" y="258.0938"/><rect fill="#FFFFFF" height="596.6563" style="stroke:#181818;stroke-width:1.0;" width="10" x="1194" y="432.8906"/><rect fill="#FFFFFF" height="58.2656" style="stroke:#181818;stroke-width:1.0;" width="10" x="1461" y="287.2266"/><rect fill="#FFFFFF" height="568.5234" style="stroke:#181818;stroke-width:1.0;" width="10" x="1461" y="462.0234"/><rect fill="#FFFFFF" height="29.1328" style="stroke:#181818;stroke-width:1.0;" width="10" x="1687" y="316.3594"/><rect fill="#FFFFFF" height="538.3906" style="stroke:#181818;stroke-width:1.0;" width="10" x="1687" y="491.1563"/><rect fill="#FFFFFF" height="419.8594" style="stroke:#181818;stroke-width:1.0;" width="10" x="1869" y="609.6875"/><rect fill="#FFFFFF" height="938.25" style="stroke:#181818;stroke-width:1.0;" width="10" x="1977.5" y="91.2969"/><rect fill="none" height="46.2656" style="stroke:#000000;stroke-width:1.5;" width="346.5" x="1402" y="535.2891"/><rect fill="none" height="310.4609" style="stroke:#000000;stroke-width:1.5;" width="1263" x="10" y="712.0859"/><line style="stroke:#181818;stroke-width:0.5;stroke-dasharray:5.0,5.0;" x1="46" x2="46" y1="81.2969" y2="1039.5469"/><line style="stroke:#181818;stroke-width:0.5;stroke-dasharray:5.0,5.0;" x1="290.5" x2="290.5" y1="81.2969" y2="1039.5469"/><line style="stroke:#181818;stroke-width:0.5;stroke-dasharray:5.0,5.0;" x1="485.5" x2="485.5" y1="81.2969" y2="1039.5469"/><line style="stroke:#181818;stroke-width:0.5;stroke-dasharray:5.0,5.0;" x1="788" x2="788" y1="81.2969" y2="1039.5469"/><line style="stroke:#181818;stroke-width:0.5;stroke-dasharray:5.0,5.0;" x1="968.5" x2="968.5" y1="81.2969" y2="1039.5469"/><line style="stroke:#181818;stroke-width:0.5;stroke-dasharray:5.0,5.0;" x1="1199" x2="1199" y1="81.2969" y2="1039.5469"/><line style="stroke:#181818;stroke-width:0.5;stroke-dasharray:5.0,5.0;" x1="1466" x2="1466" y1="81.2969" y2="1039.5469"/><line style="stroke:#181818;stroke-width:0.5;stroke-dasharray:5.0,5.0;" x1="1691.5" x2="1691.5" y1="81.2969" y2="1039.5469"/><line style="stroke:#181818;stroke-width:0.5;stroke-dasharray:5.0,5.0;" x1="1873.5" x2="1873.5" y1="81.2969" y2="1039.5469"/><line style="stroke:#181818;stroke-width:0.5;stroke-dasharray:5.0,5.0;" x1="1982.5" x2="1982.5" y1="81.2969" y2="1039.5469"/><text fill="#000000" font-family="sans-serif" font-size="14" lengthAdjust="spacing" textLength="46" x="20" y="77.9951">Admin</text><ellipse cx="46" cy="13.5" fill="#E2E2F0" rx="8" ry="8" style="stroke:#181818;stroke-width:0.5;"/><path d="M46,21.5 L46,48.5 M33,29.5 L59,29.5 M46,48.5 L33,63.5 M46,48.5 L59,63.5 " fill="none" style="stroke:#181818;stroke-width:0.5;"/><text fill="#000000" font-family="sans-serif" font-size="14" lengthAdjust="spacing" textLength="46" x="20" y="1051.542">Admin</text><ellipse cx="46" cy="1063.3438" fill="#E2E2F0" rx="8" ry="8" style="stroke:#181818;stroke-width:0.5;"/><path d="M46,1071.3438 L46,1098.3438 M33,1079.3438 L59,1079.3438 M46,1098.3438 L33,1113.3438 M46,1098.3438 L59,1113.3438 " fill="none" style="stroke:#181818;stroke-width:0.5;"/><rect fill="#E2E2F0" height="30.2969" rx="2.5" ry="2.5" style="stroke:#181818;stroke-width:0.5;" width="53" x="264.5" y="50"/><text fill="#000000" font-family="sans-serif" font-size="14" lengthAdjust="spacing" textLength="39" x="271.5" y="69.9951">:View</text><rect fill="#E2E2F0" height="30.2969" rx="2.5" ry="2.5" style="stroke:#181818;stroke-width:0.5;" width="53" x="264.5" y="1038.5469"/><text fill="#000000" font-family="sans-serif" font-size="14" lengthAdjust="spacing" textLength="39" x="271.5" y="1058.542">:View</text><rect fill="#E2E2F0" height="30.2969" rx="2.5" ry="2.5" style="stroke:#181818;stroke-width:0.5;" width="129" x="421.5" y="50"/><text fill="#000000" font-family="sans-serif" font-size="14" lengthAdjust="spacing" textLength="115" x="428.5" y="69.9951">:FE_Component</text><rect fill="#E2E2F0" height="30.2969" rx="2.5" ry="2.5" style="stroke:#181818;stroke-width:0.5;" width="129" x="421.5" y="1038.5469"/><text fill="#000000" font-family="sans-serif" font-size="14" lengthAdjust="spacing" textLength="115" x="428.5" y="1058.542">:FE_Component</text><rect fill="#E2E2F0" height="30.2969" rx="2.5" ry="2.5" style="stroke:#181818;stroke-width:0.5;" width="132" x="722" y="50"/><text fill="#000000" font-family="sans-serif" font-size="14" lengthAdjust="spacing" textLength="118" x="729" y="69.9951">:FE_FloorService</text><rect fill="#E2E2F0" height="30.2969" rx="2.5" ry="2.5" style="stroke:#181818;stroke-width:0.5;" width="132" x="722" y="1038.5469"/><text fill="#000000" font-family="sans-serif" font-size="14" lengthAdjust="spacing" textLength="118" x="729" y="1058.542">:FE_FloorService</text><rect fill="#E2E2F0" height="30.2969" rx="2.5" ry="2.5" style="stroke:#181818;stroke-width:0.5;" width="75" x="931.5" y="50"/><text fill="#000000" font-family="sans-serif" font-size="14" lengthAdjust="spacing" textLength="61" x="938.5" y="69.9951">:Routing</text><rect fill="#E2E2F0" height="30.2969" rx="2.5" ry="2.5" style="stroke:#181818;stroke-width:0.5;" width="75" x="931.5" y="1038.5469"/><text fill="#000000" font-family="sans-serif" font-size="14" lengthAdjust="spacing" textLength="61" x="938.5" y="1058.542">:Routing</text><rect fill="#E2E2F0" height="30.2969" rx="2.5" ry="2.5" style="stroke:#181818;stroke-width:0.5;" width="128" x="1135" y="50"/><text fill="#000000" font-family="sans-serif" font-size="14" lengthAdjust="spacing" textLength="114" x="1142" y="69.9951">:FloorController</text><rect fill="#E2E2F0" height="30.2969" rx="2.5" ry="2.5" style="stroke:#181818;stroke-width:0.5;" width="128" x="1135" y="1038.5469"/><text fill="#000000" font-family="sans-serif" font-size="14" lengthAdjust="spacing" textLength="114" x="1142" y="1058.542">:FloorController</text><rect fill="#E2E2F0" height="30.2969" rx="2.5" ry="2.5" style="stroke:#181818;stroke-width:0.5;" width="108" x="1412" y="50"/><text fill="#000000" font-family="sans-serif" font-size="14" lengthAdjust="spacing" textLength="94" x="1419" y="69.9951">:FloorService</text><rect fill="#E2E2F0" height="30.2969" rx="2.5" ry="2.5" style="stroke:#181818;stroke-width:0.5;" width="108" x="1412" y="1038.5469"/><text fill="#000000" font-family="sans-serif" font-size="14" lengthAdjust="spacing" textLength="94" x="1419" y="1058.542">:FloorService</text><rect fill="#E2E2F0" height="30.2969" rx="2.5" ry="2.5" style="stroke:#181818;stroke-width:0.5;" width="93" x="1645.5" y="50"/><text fill="#000000" font-family="sans-serif" font-size="14" lengthAdjust="spacing" textLength="79" x="1652.5" y="69.9951">:FloorRepo</text><rect fill="#E2E2F0" height="30.2969" rx="2.5" ry="2.5" style="stroke:#181818;stroke-width:0.5;" width="93" x="1645.5" y="1038.5469"/><text fill="#000000" font-family="sans-serif" font-size="14" lengthAdjust="spacing" textLength="79" x="1652.5" y="1058.542">:FloorRepo</text><rect fill="#E2E2F0" height="30.2969" rx="2.5" ry="2.5" style="stroke:#181818;stroke-width:0.5;" width="85" x="1831.5" y="50"/><text fill="#000000" font-family="sans-serif" font-size="14" lengthAdjust="spacing" textLength="71" x="1838.5" y="69.9951">:FloorMap</text><rect fill="#E2E2F0" height="30.2969" rx="2.5" ry="2.5" style="stroke:#181818;stroke-width:0.5;" width="85" x="1831.5" y="1038.5469"/><text fill="#000000" font-family="sans-serif" font-size="14" lengthAdjust="spacing" textLength="71" x="1838.5" y="1058.542">:FloorMap</text><rect fill="#E2E2F0" height="30.2969" rx="2.5" ry="2.5" style="stroke:#181818;stroke-width:0.5;" width="112" x="1926.5" y="50"/><text fill="#000000" font-family="sans-serif" font-size="14" lengthAdjust="spacing" textLength="98" x="1933.5" y="69.9951">:FloorSchema</text><rect fill="#E2E2F0" height="30.2969" rx="2.5" ry="2.5" style="stroke:#181818;stroke-width:0.5;" width="112" x="1926.5" y="1038.5469"/><text fill="#000000" font-family="sans-serif" font-size="14" lengthAdjust="spacing" textLength="98" x="1933.5" y="1058.542">:FloorSchema</text><rect fill="#FFFFFF" height="938.25" style="stroke:#181818;stroke-width:1.0;" width="10" x="41" y="91.2969"/><rect fill="#FFFFFF" height="917.1172" style="stroke:#181818;stroke-width:1.0;" width="10" x="286" y="112.4297"/><rect fill="#FFFFFF" height="858.8516" style="stroke:#181818;stroke-width:1.0;" width="10" x="481" y="170.6953"/><rect fill="#FFFFFF" height="145.6641" style="stroke:#181818;stroke-width:1.0;" width="10" x="783" y="199.8281"/><rect fill="#FFFFFF" height="654.9219" style="stroke:#181818;stroke-width:1.0;" width="10" x="783" y="374.625"/><rect fill="#FFFFFF" height="116.5313" style="stroke:#181818;stroke-width:1.0;" width="10" x="964" y="228.9609"/><rect fill="#FFFFFF" height="625.7891" style="stroke:#181818;stroke-width:1.0;" width="10" x="964" y="403.7578"/><rect fill="#FFFFFF" height="87.3984" style="stroke:#181818;stroke-width:1.0;" width="10" x="1194" y="258.0938"/><rect fill="#FFFFFF" height="596.6563" style="stroke:#181818;stroke-width:1.0;" width="10" x="1194" y="432.8906"/><rect fill="#FFFFFF" height="58.2656" style="stroke:#181818;stroke-width:1.0;" width="10" x="1461" y="287.2266"/><rect fill="#FFFFFF" height="568.5234" style="stroke:#181818;stroke-width:1.0;" width="10" x="1461" y="462.0234"/><rect fill="#FFFFFF" height="29.1328" style="stroke:#181818;stroke-width:1.0;" width="10" x="1687" y="316.3594"/><rect fill="#FFFFFF" height="538.3906" style="stroke:#181818;stroke-width:1.0;" width="10" x="1687" y="491.1563"/><rect fill="#FFFFFF" height="419.8594" style="stroke:#181818;stroke-width:1.0;" width="10" x="1869" y="609.6875"/><rect fill="#FFFFFF" height="938.25" style="stroke:#181818;stroke-width:1.0;" width="10" x="1977.5" y="91.2969"/><polygon fill="#181818" points="274,108.4297,284,112.4297,274,116.4297,278,112.4297" style="stroke:#181818;stroke-width:1.0;"/><line style="stroke:#181818;stroke-width:1.0;" x1="51" x2="280" y1="112.4297" y2="112.4297"/><text fill="#000000" font-family="sans-serif" font-size="13" font-weight="bold" lengthAdjust="spacing" textLength="9" x="58" y="107.3638">1</text><text fill="#000000" font-family="sans-serif" font-size="13" lengthAdjust="spacing" textLength="203" x="71" y="107.3638">wants to update floor passages</text><polygon fill="#181818" points="62,137.5625,52,141.5625,62,145.5625,58,141.5625" style="stroke:#181818;stroke-width:1.0;"/><line style="stroke:#181818;stroke-width:1.0;stroke-dasharray:2.0,2.0;" x1="56" x2="285" y1="141.5625" y2="141.5625"/><text fill="#000000" font-family="sans-serif" font-size="13" font-weight="bold" lengthAdjust="spacing" textLength="9" x="68" y="136.4966">2</text><text fill="#000000" font-family="sans-serif" font-size="13" lengthAdjust="spacing" textLength="162" x="81" y="136.4966">request necessary data()</text><polygon fill="#181818" points="274,166.6953,284,170.6953,274,174.6953,278,170.6953" style="stroke:#181818;stroke-width:1.0;"/><line style="stroke:#181818;stroke-width:1.0;" x1="51" x2="280" y1="170.6953" y2="170.6953"/><text fill="#000000" font-family="sans-serif" font-size="13" font-weight="bold" lengthAdjust="spacing" textLength="8" x="58" y="165.6294">3</text><text fill="#000000" font-family="sans-serif" font-size="13" lengthAdjust="spacing" textLength="112" x="70" y="165.6294">insert all the data</text><polygon fill="#181818" points="469,195.8281,479,199.8281,469,203.8281,473,199.8281" style="stroke:#181818;stroke-width:1.0;"/><line style="stroke:#181818;stroke-width:1.0;" x1="296" x2="475" y1="199.8281" y2="199.8281"/><text fill="#000000" font-family="sans-serif" font-size="13" font-weight="bold" lengthAdjust="spacing" textLength="9" x="303" y="194.7622">4</text><text fill="#000000" font-family="sans-serif" font-size="13" lengthAdjust="spacing" textLength="69" x="316" y="194.7622">getFloors()</text><polygon fill="#181818" points="771,224.9609,781,228.9609,771,232.9609,775,228.9609" style="stroke:#181818;stroke-width:1.0;"/><line style="stroke:#181818;stroke-width:1.0;" x1="491" x2="777" y1="228.9609" y2="228.9609"/><text fill="#000000" font-family="sans-serif" font-size="13" font-weight="bold" lengthAdjust="spacing" textLength="9" x="498" y="223.895">5</text><text fill="#000000" font-family="sans-serif" font-size="13" lengthAdjust="spacing" textLength="66" x="511" y="223.895">listFloors()</text><polygon fill="#181818" points="952,254.0938,962,258.0938,952,262.0938,956,258.0938" style="stroke:#181818;stroke-width:1.0;"/><line style="stroke:#181818;stroke-width:1.0;" x1="793" x2="958" y1="258.0938" y2="258.0938"/><text fill="#000000" font-family="sans-serif" font-size="13" font-weight="bold" lengthAdjust="spacing" textLength="9" x="800" y="253.0278">6</text><text fill="#000000" font-family="sans-serif" font-size="13" lengthAdjust="spacing" textLength="82" x="813" y="253.0278">GET route{}</text><polygon fill="#181818" points="1182,283.2266,1192,287.2266,1182,291.2266,1186,287.2266" style="stroke:#181818;stroke-width:1.0;"/><line style="stroke:#181818;stroke-width:1.0;" x1="974" x2="1188" y1="287.2266" y2="287.2266"/><text fill="#000000" font-family="sans-serif" font-size="13" font-weight="bold" lengthAdjust="spacing" textLength="9" x="981" y="282.1606">7</text><text fill="#000000" font-family="sans-serif" font-size="13" lengthAdjust="spacing" textLength="81" x="994" y="282.1606">listAllFloors()</text><polygon fill="#181818" points="1449,312.3594,1459,316.3594,1449,320.3594,1453,316.3594" style="stroke:#181818;stroke-width:1.0;"/><line style="stroke:#181818;stroke-width:1.0;" x1="1204" x2="1455" y1="316.3594" y2="316.3594"/><text fill="#000000" font-family="sans-serif" font-size="13" font-weight="bold" lengthAdjust="spacing" textLength="9" x="1211" y="311.2935">8</text><text fill="#000000" font-family="sans-serif" font-size="13" lengthAdjust="spacing" textLength="49" x="1224" y="311.2935">findAll()</text><polygon fill="#181818" points="1680,341.4922,1690,345.4922,1680,349.4922,1684,345.4922" style="stroke:#181818;stroke-width:1.0;"/><line style="stroke:#181818;stroke-width:1.0;" x1="1466" x2="1686" y1="345.4922" y2="345.4922"/><text fill="#000000" font-family="sans-serif" font-size="13" font-weight="bold" lengthAdjust="spacing" textLength="9" x="1473" y="340.4263">9</text><text fill="#000000" font-family="sans-serif" font-size="13" lengthAdjust="spacing" textLength="49" x="1486" y="340.4263">findAll()</text><polygon fill="#181818" points="469,370.625,479,374.625,469,378.625,473,374.625" style="stroke:#181818;stroke-width:1.0;"/><line style="stroke:#181818;stroke-width:1.0;" x1="296" x2="475" y1="374.625" y2="374.625"/><text fill="#000000" font-family="sans-serif" font-size="13" font-weight="bold" lengthAdjust="spacing" textLength="19" x="303" y="369.5591">10</text><text fill="#000000" font-family="sans-serif" font-size="13" lengthAdjust="spacing" textLength="138" x="326" y="369.5591">patchFloorPassages()</text><polygon fill="#181818" points="771,399.7578,781,403.7578,771,407.7578,775,403.7578" style="stroke:#181818;stroke-width:1.0;"/><line style="stroke:#181818;stroke-width:1.0;" x1="491" x2="777" y1="403.7578" y2="403.7578"/><text fill="#000000" font-family="sans-serif" font-size="13" font-weight="bold" lengthAdjust="spacing" textLength="18" x="498" y="398.6919">11</text><text fill="#000000" font-family="sans-serif" font-size="13" lengthAdjust="spacing" textLength="246" x="520" y="398.6919">patchPassages(Object{id, passages})</text><polygon fill="#181818" points="952,428.8906,962,432.8906,952,436.8906,956,432.8906" style="stroke:#181818;stroke-width:1.0;"/><line style="stroke:#181818;stroke-width:1.0;" x1="793" x2="958" y1="432.8906" y2="432.8906"/><text fill="#000000" font-family="sans-serif" font-size="13" font-weight="bold" lengthAdjust="spacing" textLength="18" x="800" y="427.8247">12</text><text fill="#000000" font-family="sans-serif" font-size="13" lengthAdjust="spacing" textLength="125" x="822" y="427.8247">PATCH route{json}</text><polygon fill="#181818" points="1182,458.0234,1192,462.0234,1182,466.0234,1186,462.0234" style="stroke:#181818;stroke-width:1.0;"/><line style="stroke:#181818;stroke-width:1.0;" x1="974" x2="1188" y1="462.0234" y2="462.0234"/><text fill="#000000" font-family="sans-serif" font-size="13" font-weight="bold" lengthAdjust="spacing" textLength="17" x="981" y="456.9575">13</text><text fill="#000000" font-family="sans-serif" font-size="13" lengthAdjust="spacing" textLength="175" x="1002" y="456.9575">patchPassageBuilding(json)</text><polygon fill="#181818" points="1449,487.1563,1459,491.1563,1449,495.1563,1453,491.1563" style="stroke:#181818;stroke-width:1.0;"/><line style="stroke:#181818;stroke-width:1.0;" x1="1204" x2="1455" y1="491.1563" y2="491.1563"/><text fill="#000000" font-family="sans-serif" font-size="13" font-weight="bold" lengthAdjust="spacing" textLength="18" x="1211" y="486.0903">14</text><text fill="#000000" font-family="sans-serif" font-size="13" lengthAdjust="spacing" textLength="211" x="1233" y="486.0903">patchPassageBuilding(IFloorDTO)</text><polygon fill="#181818" points="1675,516.2891,1685,520.2891,1675,524.2891,1679,520.2891" style="stroke:#181818;stroke-width:1.0;"/><line style="stroke:#181818;stroke-width:1.0;" x1="1471" x2="1681" y1="520.2891" y2="520.2891"/><text fill="#000000" font-family="sans-serif" font-size="13" font-weight="bold" lengthAdjust="spacing" textLength="18" x="1478" y="515.2231">15</text><text fill="#000000" font-family="sans-serif" font-size="13" lengthAdjust="spacing" textLength="105" x="1500" y="515.2231">findById(floor.id)</text><path d="M1402,535.2891 L1480,535.2891 L1480,542.4219 L1470,552.4219 L1402,552.4219 L1402,535.2891 " fill="#EEEEEE" style="stroke:#000000;stroke-width:1.5;"/><rect fill="none" height="46.2656" style="stroke:#000000;stroke-width:1.5;" width="346.5" x="1402" y="535.2891"/><text fill="#000000" font-family="sans-serif" font-size="13" font-weight="bold" lengthAdjust="spacing" textLength="33" x="1417" y="548.356">loop</text><text fill="#000000" font-family="sans-serif" font-size="11" font-weight="bold" lengthAdjust="spacing" textLength="91" x="1495" y="547.4995">[all passages]</text><polygon fill="#181818" points="1675,569.5547,1685,573.5547,1675,577.5547,1679,573.5547" style="stroke:#181818;stroke-width:1.0;"/><line style="stroke:#181818;stroke-width:1.0;" x1="1471" x2="1681" y1="573.5547" y2="573.5547"/><text fill="#000000" font-family="sans-serif" font-size="13" font-weight="bold" lengthAdjust="spacing" textLength="18" x="1478" y="568.4888">16</text><text fill="#000000" font-family="sans-serif" font-size="13" lengthAdjust="spacing" textLength="170" x="1500" y="568.4888">findById(floor.passages.id)</text><polygon fill="#181818" points="1675,605.6875,1685,609.6875,1675,613.6875,1679,609.6875" style="stroke:#181818;stroke-width:1.0;"/><line style="stroke:#181818;stroke-width:1.0;" x1="1471" x2="1681" y1="609.6875" y2="609.6875"/><text fill="#000000" font-family="sans-serif" font-size="13" font-weight="bold" lengthAdjust="spacing" textLength="18" x="1478" y="604.6216">17</text><text fill="#000000" font-family="sans-serif" font-size="13" lengthAdjust="spacing" textLength="70" x="1500" y="604.6216">save(floor)</text><polygon fill="#181818" points="1857,634.8203,1867,638.8203,1857,642.8203,1861,638.8203" style="stroke:#181818;stroke-width:1.0;"/><line style="stroke:#181818;stroke-width:1.0;" x1="1697" x2="1863" y1="638.8203" y2="638.8203"/><text fill="#000000" font-family="sans-serif" font-size="13" font-weight="bold" lengthAdjust="spacing" textLength="18" x="1704" y="633.7544">18</text><text fill="#000000" font-family="sans-serif" font-size="13" lengthAdjust="spacing" textLength="126" x="1726" y="633.7544">toPersistance(floor)</text><polygon fill="#181818" points="1965.5,663.9531,1975.5,667.9531,1965.5,671.9531,1969.5,667.9531" style="stroke:#181818;stroke-width:1.0;"/><line style="stroke:#181818;stroke-width:1.0;" x1="1697" x2="1971.5" y1="667.9531" y2="667.9531"/><text fill="#000000" font-family="sans-serif" font-size="13" font-weight="bold" lengthAdjust="spacing" textLength="18" x="1704" y="662.8872">19</text><text fill="#000000" font-family="sans-serif" font-size="13" lengthAdjust="spacing" textLength="80" x="1726" y="662.8872">create(floor)</text><polygon fill="#181818" points="1482,693.0859,1472,697.0859,1482,701.0859,1478,697.0859" style="stroke:#181818;stroke-width:1.0;"/><line style="stroke:#181818;stroke-width:1.0;stroke-dasharray:2.0,2.0;" x1="1476" x2="1686" y1="697.0859" y2="697.0859"/><text fill="#000000" font-family="sans-serif" font-size="13" font-weight="bold" lengthAdjust="spacing" textLength="19" x="1488" y="692.02">20</text><text fill="#000000" font-family="sans-serif" font-size="13" lengthAdjust="spacing" textLength="29" x="1511" y="692.02">floor</text><path d="M10,712.0859 L76,712.0859 L76,719.2188 L66,729.2188 L10,729.2188 L10,712.0859 " fill="#EEEEEE" style="stroke:#000000;stroke-width:1.5;"/><rect fill="none" height="310.4609" style="stroke:#000000;stroke-width:1.5;" width="1263" x="10" y="712.0859"/><text fill="#000000" font-family="sans-serif" font-size="13" font-weight="bold" lengthAdjust="spacing" textLength="21" x="25" y="725.1528">alt</text><text fill="#000000" font-family="sans-serif" font-size="11" font-weight="bold" lengthAdjust="spacing" textLength="136" x="91" y="724.2964">[saved with success]</text><polygon fill="#181818" points="985,746.3516,975,750.3516,985,754.3516,981,750.3516" style="stroke:#181818;stroke-width:1.0;"/><line style="stroke:#181818;stroke-width:1.0;stroke-dasharray:2.0,2.0;" x1="979" x2="1193" y1="750.3516" y2="750.3516"/><text fill="#000000" font-family="sans-serif" font-size="13" font-weight="bold" lengthAdjust="spacing" textLength="18" x="991" y="745.2856">21</text><text fill="#000000" font-family="sans-serif" font-size="13" lengthAdjust="spacing" textLength="66" x="1013" y="745.2856">HTTP: 201</text><polygon fill="#181818" points="804,775.4844,794,779.4844,804,783.4844,800,779.4844" style="stroke:#181818;stroke-width:1.0;"/><line style="stroke:#181818;stroke-width:1.0;stroke-dasharray:2.0,2.0;" x1="798" x2="963" y1="779.4844" y2="779.4844"/><text fill="#000000" font-family="sans-serif" font-size="13" font-weight="bold" lengthAdjust="spacing" textLength="18" x="810" y="774.4185">22</text><text fill="#000000" font-family="sans-serif" font-size="13" lengthAdjust="spacing" textLength="66" x="832" y="774.4185">HTTP: 201</text><polygon fill="#181818" points="502,804.6172,492,808.6172,502,812.6172,498,808.6172" style="stroke:#181818;stroke-width:1.0;"/><line style="stroke:#181818;stroke-width:1.0;stroke-dasharray:2.0,2.0;" x1="496" x2="782" y1="808.6172" y2="808.6172"/><text fill="#000000" font-family="sans-serif" font-size="13" font-weight="bold" lengthAdjust="spacing" textLength="17" x="508" y="803.5513">23</text><text fill="#000000" font-family="sans-serif" font-size="13" lengthAdjust="spacing" textLength="66" x="529" y="803.5513">HTTP: 201</text><polygon fill="#181818" points="307,833.75,297,837.75,307,841.75,303,837.75" style="stroke:#181818;stroke-width:1.0;"/><line style="stroke:#181818;stroke-width:1.0;stroke-dasharray:2.0,2.0;" x1="301" x2="480" y1="837.75" y2="837.75"/><text fill="#000000" font-family="sans-serif" font-size="13" font-weight="bold" lengthAdjust="spacing" textLength="18" x="313" y="832.6841">24</text><text fill="#000000" font-family="sans-serif" font-size="13" lengthAdjust="spacing" textLength="66" x="335" y="832.6841">HTTP: 201</text><polygon fill="#181818" points="62,862.8828,52,866.8828,62,870.8828,58,866.8828" style="stroke:#181818;stroke-width:1.0;"/><line style="stroke:#181818;stroke-width:1.0;stroke-dasharray:2.0,2.0;" x1="56" x2="285" y1="866.8828" y2="866.8828"/><text fill="#000000" font-family="sans-serif" font-size="13" font-weight="bold" lengthAdjust="spacing" textLength="18" x="68" y="861.8169">25</text><text fill="#000000" font-family="sans-serif" font-size="13" lengthAdjust="spacing" textLength="152" x="90" y="861.8169">show success message</text><line style="stroke:#000000;stroke-width:1.0;stroke-dasharray:2.0,2.0;" x1="10" x2="1273" y1="875.8828" y2="875.8828"/><polygon fill="#181818" points="985,894.0156,975,898.0156,985,902.0156,981,898.0156" style="stroke:#181818;stroke-width:1.0;"/><line style="stroke:#181818;stroke-width:1.0;stroke-dasharray:2.0,2.0;" x1="979" x2="1193" y1="898.0156" y2="898.0156"/><text fill="#000000" font-family="sans-serif" font-size="13" font-weight="bold" lengthAdjust="spacing" textLength="18" x="991" y="892.9497">26</text><text fill="#000000" font-family="sans-serif" font-size="13" lengthAdjust="spacing" textLength="66" x="1013" y="892.9497">HTTP: 400</text><polygon fill="#181818" points="804,923.1484,794,927.1484,804,931.1484,800,927.1484" style="stroke:#181818;stroke-width:1.0;"/><line style="stroke:#181818;stroke-width:1.0;stroke-dasharray:2.0,2.0;" x1="798" x2="963" y1="927.1484" y2="927.1484"/><text fill="#000000" font-family="sans-serif" font-size="13" font-weight="bold" lengthAdjust="spacing" textLength="18" x="810" y="922.0825">27</text><text fill="#000000" font-family="sans-serif" font-size="13" lengthAdjust="spacing" textLength="66" x="832" y="922.0825">HTTP: 400</text><polygon fill="#181818" points="502,952.2813,492,956.2813,502,960.2813,498,956.2813" style="stroke:#181818;stroke-width:1.0;"/><line style="stroke:#181818;stroke-width:1.0;stroke-dasharray:2.0,2.0;" x1="496" x2="782" y1="956.2813" y2="956.2813"/><text fill="#000000" font-family="sans-serif" font-size="13" font-weight="bold" lengthAdjust="spacing" textLength="18" x="508" y="951.2153">28</text><text fill="#000000" font-family="sans-serif" font-size="13" lengthAdjust="spacing" textLength="66" x="530" y="951.2153">HTTP: 400</text><polygon fill="#181818" points="307,981.4141,297,985.4141,307,989.4141,303,985.4141" style="stroke:#181818;stroke-width:1.0;"/><line style="stroke:#181818;stroke-width:1.0;stroke-dasharray:2.0,2.0;" x1="301" x2="480" y1="985.4141" y2="985.4141"/><text fill="#000000" font-family="sans-serif" font-size="13" font-weight="bold" lengthAdjust="spacing" textLength="18" x="313" y="980.3481">29</text><text fill="#000000" font-family="sans-serif" font-size="13" lengthAdjust="spacing" textLength="66" x="335" y="980.3481">HTTP: 400</text><polygon fill="#181818" points="62,1010.5469,52,1014.5469,62,1018.5469,58,1014.5469" style="stroke:#181818;stroke-width:1.0;"/><line style="stroke:#181818;stroke-width:1.0;stroke-dasharray:2.0,2.0;" x1="56" x2="285" y1="1014.5469" y2="1014.5469"/><text fill="#000000" font-family="sans-serif" font-size="13" font-weight="bold" lengthAdjust="spacing" textLength="18" x="68" y="1009.481">30</text><text fill="#000000" font-family="sans-serif" font-size="13" lengthAdjust="spacing" textLength="141" x="90" y="1009.481">show failure message</text><!--SRC=[ZLJVRzem47xFNt7YPLHQ9pRjAG-LA8Er3rDHX_PQcUG0LyRER0U6glxlEvyJI486Guhm-Rwx-to_HEcDBhTBjCc7ZSmHLiRufVcJYCmR2uDnlfLw0CA12ASaAOJrCfE5q1u6wI-9UzQwW-kePjENYTaMHgFs3Cb8EiVCb37s9zgTp91Xiwcpkwm3V3QbbthD04jdx3eANYP6UskKGXlZUQlwOCrWFQ4Oyuo5YS7eq0Vu8OgeztJgZP9jS2igJ1IIa5Iv4nxhPF8VtDw5zAMm9tC7ta1Pv06q2dwW4Cw9DRgJSSWrVN1BXkmX9Pg_ItGUD6P8S7i0yY26Dwq8a8BK3gq7eHJu3JBev9SB53tViK06Q_Jy71TyrS2gH0mXQ1G9hAJhGSTwLI22ivp2z-aY7j_U6nH2pVYMEP0KlOwLEdSSIH26tqT22YkfSyAsmeSA7cEJq4Jbs7rKuoOIRrmmkuPyPX12TH9O29zjcFkyAkJ_P9AjZWPForVC_9lCFnwxuVrwWkVZnUIXIl6hC_fAcfiXxqkfSfgtOR2xdF5UiqT-yBV5q_Kwt1yUyo5t-YUPtoHqABWzZsqFzBjeLYFP7dNU25aFNjlUYHr6soOz7kG0O62GKfh5ELf7_ITqTZGvOQBt53ABvAAjFxLakALHLvu3vx2NVWEkpCAaykjYGkl2KVKV5ejv2bz6drbTrUdO7brzNVYgvxhgs5lrZcdhEbl4RSo-PWPRvBGcg1nUelbrDBf8izR_WsQjxgDPw_feheHKfSKJJIfyQnRhshVkGesx0tjXmCysmFcIuANPt0cqd1iYK_uB]--></g></svg>