<?xml version="1.0" encoding="UTF-8" standalone="no"?><svg xmlns="http://www.w3.org/2000/svg" xmlns:xlink="http://www.w3.org/1999/xlink" contentScriptType="application/ecmascript" contentStyleType="text/css" height="524px" preserveAspectRatio="none" style="width:312px;height:524px;" version="1.1" viewBox="0 0 312 524" width="312px" zoomAndPan="magnify"><defs><filter height="300%" id="fn6caeg5njmqm" width="300%" x="-1" y="-1"><feGaussianBlur result="blurOut" stdDeviation="2.0"/><feColorMatrix in="blurOut" result="blurOut2" type="matrix" values="0 0 0 0 0 0 0 0 0 0 0 0 0 0 0 0 0 0 .4 0"/><feOffset dx="4.0" dy="4.0" in="blurOut2" result="blurOut3"/><feBlend in="SourceGraphic" in2="blurOut3" mode="normal"/></filter></defs><g><!--MD5=[0df2137fe28bacbd4ba0a5d9026fb502]
cluster Front-End Angular Application--><rect fill="#FFFFFF" filter="url(#fn6caeg5njmqm)" height="397" style="stroke: #000000; stroke-width: 1.5;" width="279" x="22" y="24"/><text fill="#000000" font-family="sans-serif" font-size="14" font-weight="bold" lengthAdjust="spacingAndGlyphs" textLength="235" x="44" y="38.9951">Front-End Angular Application</text><!--MD5=[1c83f7d7eced6432650b94dcccc13dcb]
cluster Main Component--><rect fill="#FFFFFF" filter="url(#fn6caeg5njmqm)" height="112" style="stroke: #000000; stroke-width: 1.5;" width="170" x="79" y="67"/><text fill="#000000" font-family="sans-serif" font-size="14" font-weight="bold" lengthAdjust="spacingAndGlyphs" textLength="132" x="98" y="81.9951">Main Component</text><!--MD5=[982b7704c37f834310f46f819c83e8df]
class MainService--><rect fill="#98FB98" filter="url(#fn6caeg5njmqm)" height="48" id="MainService" style="stroke: #000000; stroke-width: 1.5;" width="106" x="84" y="223"/><ellipse cx="99" cy="239" fill="#ADD1B2" rx="11" ry="11" style="stroke: #000000; stroke-width: 1.0;"/><path d="M101.9688,244.6406 Q101.3906,244.9375 100.75,245.0781 Q100.1094,245.2344 99.4063,245.2344 Q96.9063,245.2344 95.5781,243.5938 Q94.2656,241.9375 94.2656,238.8125 Q94.2656,235.6875 95.5781,234.0313 Q96.9063,232.375 99.4063,232.375 Q100.1094,232.375 100.75,232.5313 Q101.4063,232.6875 101.9688,232.9844 L101.9688,235.7031 Q101.3438,235.125 100.75,234.8594 Q100.1563,234.5781 99.5313,234.5781 Q98.1875,234.5781 97.5,235.6563 Q96.8125,236.7188 96.8125,238.8125 Q96.8125,240.9063 97.5,241.9844 Q98.1875,243.0469 99.5313,243.0469 Q100.1563,243.0469 100.75,242.7813 Q101.3438,242.5 101.9688,241.9219 L101.9688,244.6406 Z "/><text fill="#000000" font-family="sans-serif" font-size="12" lengthAdjust="spacingAndGlyphs" textLength="74" x="113" y="243.1543">MainService</text><line style="stroke: #000000; stroke-width: 1.5;" x1="85" x2="189" y1="255" y2="255"/><line style="stroke: #000000; stroke-width: 1.5;" x1="85" x2="189" y1="263" y2="263"/><!--MD5=[7d9793a6af5c131a25af6f0766a263bb]
class HttpClient--><rect fill="#98FB98" filter="url(#fn6caeg5njmqm)" height="48" id="HttpClient" style="stroke: #000000; stroke-width: 1.5;" width="94" x="38" y="344"/><ellipse cx="53" cy="360" fill="#ADD1B2" rx="11" ry="11" style="stroke: #000000; stroke-width: 1.0;"/><path d="M55.9688,365.6406 Q55.3906,365.9375 54.75,366.0781 Q54.1094,366.2344 53.4063,366.2344 Q50.9063,366.2344 49.5781,364.5938 Q48.2656,362.9375 48.2656,359.8125 Q48.2656,356.6875 49.5781,355.0313 Q50.9063,353.375 53.4063,353.375 Q54.1094,353.375 54.75,353.5313 Q55.4063,353.6875 55.9688,353.9844 L55.9688,356.7031 Q55.3438,356.125 54.75,355.8594 Q54.1563,355.5781 53.5313,355.5781 Q52.1875,355.5781 51.5,356.6563 Q50.8125,357.7188 50.8125,359.8125 Q50.8125,361.9063 51.5,362.9844 Q52.1875,364.0469 53.5313,364.0469 Q54.1563,364.0469 54.75,363.7813 Q55.3438,363.5 55.9688,362.9219 L55.9688,365.6406 Z "/><text fill="#000000" font-family="sans-serif" font-size="12" lengthAdjust="spacingAndGlyphs" textLength="62" x="67" y="364.1543">HttpClient</text><line style="stroke: #000000; stroke-width: 1.5;" x1="39" x2="131" y1="376" y2="376"/><line style="stroke: #000000; stroke-width: 1.5;" x1="39" x2="131" y1="384" y2="384"/><!--MD5=[7afa06a9ea43726c1f861cd28aefa12e]
class GenericModel--><rect fill="#98FB98" filter="url(#fn6caeg5njmqm)" height="73.6094" id="GenericModel" style="stroke: #000000; stroke-width: 1.5;" width="117" x="167.5" y="331"/><ellipse cx="182.5" cy="347" fill="#ADD1B2" rx="11" ry="11" style="stroke: #000000; stroke-width: 1.0;"/><path d="M185.4688,352.6406 Q184.8906,352.9375 184.25,353.0781 Q183.6094,353.2344 182.9063,353.2344 Q180.4063,353.2344 179.0781,351.5938 Q177.7656,349.9375 177.7656,346.8125 Q177.7656,343.6875 179.0781,342.0313 Q180.4063,340.375 182.9063,340.375 Q183.6094,340.375 184.25,340.5313 Q184.9063,340.6875 185.4688,340.9844 L185.4688,343.7031 Q184.8438,343.125 184.25,342.8594 Q183.6563,342.5781 183.0313,342.5781 Q181.6875,342.5781 181,343.6563 Q180.3125,344.7188 180.3125,346.8125 Q180.3125,348.9063 181,349.9844 Q181.6875,351.0469 183.0313,351.0469 Q183.6563,351.0469 184.25,350.7813 Q184.8438,350.5 185.4688,349.9219 L185.4688,352.6406 Z "/><text fill="#000000" font-family="sans-serif" font-size="12" lengthAdjust="spacingAndGlyphs" textLength="85" x="196.5" y="351.1543">GenericModel</text><line style="stroke: #000000; stroke-width: 1.5;" x1="168.5" x2="283.5" y1="363" y2="363"/><text fill="#000000" font-family="sans-serif" font-size="11" lengthAdjust="spacingAndGlyphs" textLength="40" x="173.5" y="377.2104">+field1</text><text fill="#000000" font-family="sans-serif" font-size="11" lengthAdjust="spacingAndGlyphs" textLength="40" x="173.5" y="390.0151">+field2</text><line style="stroke: #000000; stroke-width: 1.5;" x1="168.5" x2="283.5" y1="396.6094" y2="396.6094"/><!--MD5=[faa98649e0f32324420ecc325c05aced]
class MainComponent--><rect fill="#98FB98" filter="url(#fn6caeg5njmqm)" height="60.8047" id="MainComponent" style="stroke: #000000; stroke-width: 1.5;" width="138" x="95" y="102"/><ellipse cx="112.25" cy="118" fill="#ADD1B2" rx="11" ry="11" style="stroke: #000000; stroke-width: 1.0;"/><path d="M115.2188,123.6406 Q114.6406,123.9375 114,124.0781 Q113.3594,124.2344 112.6563,124.2344 Q110.1563,124.2344 108.8281,122.5938 Q107.5156,120.9375 107.5156,117.8125 Q107.5156,114.6875 108.8281,113.0313 Q110.1563,111.375 112.6563,111.375 Q113.3594,111.375 114,111.5313 Q114.6563,111.6875 115.2188,111.9844 L115.2188,114.7031 Q114.5938,114.125 114,113.8594 Q113.4063,113.5781 112.7813,113.5781 Q111.4375,113.5781 110.75,114.6563 Q110.0625,115.7188 110.0625,117.8125 Q110.0625,119.9063 110.75,120.9844 Q111.4375,122.0469 112.7813,122.0469 Q113.4063,122.0469 114,121.7813 Q114.5938,121.5 115.2188,120.9219 L115.2188,123.6406 Z "/><text fill="#000000" font-family="sans-serif" font-size="12" lengthAdjust="spacingAndGlyphs" textLength="101" x="126.75" y="122.1543">MainComponent</text><line style="stroke: #000000; stroke-width: 1.5;" x1="96" x2="232" y1="134" y2="134"/><text fill="#000000" font-family="sans-serif" font-size="11" lengthAdjust="spacingAndGlyphs" textLength="126" x="101" y="148.2104">-HTML/CSS/TypeScript</text><line style="stroke: #000000; stroke-width: 1.5;" x1="96" x2="232" y1="154.8047" y2="154.8047"/><!--MD5=[19ffc815b7972f6e117e15ae1cac7b2c]
class ServerAPI--><rect fill="#98FB98" filter="url(#fn6caeg5njmqm)" height="48" id="ServerAPI" style="stroke: #000000; stroke-width: 1.5;" width="91" x="39.5" y="465"/><ellipse cx="54.5" cy="481" fill="#ADD1B2" rx="11" ry="11" style="stroke: #000000; stroke-width: 1.0;"/><path d="M57.4688,486.6406 Q56.8906,486.9375 56.25,487.0781 Q55.6094,487.2344 54.9063,487.2344 Q52.4063,487.2344 51.0781,485.5938 Q49.7656,483.9375 49.7656,480.8125 Q49.7656,477.6875 51.0781,476.0313 Q52.4063,474.375 54.9063,474.375 Q55.6094,474.375 56.25,474.5313 Q56.9063,474.6875 57.4688,474.9844 L57.4688,477.7031 Q56.8438,477.125 56.25,476.8594 Q55.6563,476.5781 55.0313,476.5781 Q53.6875,476.5781 53,477.6563 Q52.3125,478.7188 52.3125,480.8125 Q52.3125,482.9063 53,483.9844 Q53.6875,485.0469 55.0313,485.0469 Q55.6563,485.0469 56.25,484.7813 Q56.8438,484.5 57.4688,483.9219 L57.4688,486.6406 Z "/><text fill="#000000" font-family="sans-serif" font-size="12" lengthAdjust="spacingAndGlyphs" textLength="59" x="68.5" y="485.1543">ServerAPI</text><line style="stroke: #000000; stroke-width: 1.5;" x1="40.5" x2="129.5" y1="497" y2="497"/><line style="stroke: #000000; stroke-width: 1.5;" x1="40.5" x2="129.5" y1="505" y2="505"/><!--MD5=[0951be63042e8e5e3a7ad0fab83ac8c7]
link MainComponent to MainService--><path d="M156.91,163.06 C152.44,181.68 146.75,205.38 142.6,222.67 " fill="none" id="MainComponent-MainService" style="stroke: #4682B4; stroke-width: 1.0;"/><!--MD5=[5172e700fa067643ab826a50e38a388d]
link MainService to HttpClient--><path d="M126.85,271.23 C117.69,292.19 104.28,322.88 95.12,343.83 " fill="none" id="MainService-HttpClient" style="stroke: #4682B4; stroke-width: 1.0;"/><!--MD5=[4a3c87f7c68a8a6fbdac568391bccee2]
link MainComponent to GenericModel--><path d="M181.68,163.13 C190.99,180.09 201.75,202.1 208,223 C218.69,258.72 223.03,301.27 224.8,330.81 " fill="none" id="MainComponent-GenericModel" style="stroke: #4682B4; stroke-width: 1.0; stroke-dasharray: 7.0,7.0;"/><!--MD5=[88439f0efa4c2f0ad15e7eede309c1c6]
link MainService to GenericModel--><path d="M154.37,271.23 C167.02,288.14 184.39,311.37 198.86,330.71 " fill="none" id="MainService-GenericModel" style="stroke: #4682B4; stroke-width: 1.0; stroke-dasharray: 7.0,7.0;"/><!--MD5=[5f1dd5294c5ccee5c72e80366313a182]
link HttpClient to ServerAPI--><path d="M85,392.23 C85,413.19 85,443.88 85,464.83 " fill="none" id="HttpClient-ServerAPI" style="stroke: #4682B4; stroke-width: 1.0;"/><!--MD5=[88f1d3a2306363f4723063259b0c2d9e]
@startuml


skinparam packageStyle rect
skinparam class {
BackgroundColor PaleGreen
ArrowColor SteelBlue
BorderColor Black
}
skinparam classAttributeIconSize 0

package "Front-End Angular Application" {
package "Main Component" {
class MainComponent {
- HTML/CSS/TypeScript
}
}

class MainService {
}

class HttpClient {
}

class GenericModel {
+ field1
+ field2
}

MainComponent - - MainService
MainService - - HttpClient
MainComponent .. GenericModel
MainService .. GenericModel
}

class ServerAPI {
}

HttpClient - - ServerAPI

@enduml

PlantUML version 1.2020.02(Sun Mar 01 10:22:07 UTC 2020)
(GPL source distribution)
Java Runtime: OpenJDK Runtime Environment
JVM: OpenJDK 64-Bit Server VM
Java Version: 11.0.21+9
Operating System: Linux
Default Encoding: UTF-8
Language: en
Country: null
--></g></svg>