<?xml version="1.0" encoding="UTF-8" standalone="no"?><svg xmlns="http://www.w3.org/2000/svg" xmlns:xlink="http://www.w3.org/1999/xlink" contentScriptType="application/ecmascript" contentStyleType="text/css" height="561px" preserveAspectRatio="none" style="width:430px;height:561px;" version="1.1" viewBox="0 0 430 561" width="430px" zoomAndPan="magnify"><defs><filter height="300%" id="f1sscdpnr4nqe2" width="300%" x="-1" y="-1"><feGaussianBlur result="blurOut" stdDeviation="2.0"/><feColorMatrix in="blurOut" result="blurOut2" type="matrix" values="0 0 0 0 0 0 0 0 0 0 0 0 0 0 0 0 0 0 .4 0"/><feOffset dx="4.0" dy="4.0" in="blurOut2" result="blurOut3"/><feBlend in="SourceGraphic" in2="blurOut3" mode="normal"/></filter></defs><g><!--MD5=[0df2137fe28bacbd4ba0a5d9026fb502]
cluster Front-End Angular Application--><rect fill="#FFFFFF" filter="url(#f1sscdpnr4nqe2)" height="434" style="stroke: #000000; stroke-width: 1.5;" width="397" x="22" y="24"/><text fill="#000000" font-family="sans-serif" font-size="14" font-weight="bold" lengthAdjust="spacingAndGlyphs" textLength="235" x="103" y="38.9951">Front-End Angular Application</text><!--MD5=[c33db22cd91d622c105bbe7bf67b0931]
cluster Components--><rect fill="#FFFFFF" filter="url(#f1sscdpnr4nqe2)" height="137" style="stroke: #000000; stroke-width: 1.5;" width="349" x="46" y="67"/><text fill="#000000" font-family="sans-serif" font-size="14" font-weight="bold" lengthAdjust="spacingAndGlyphs" textLength="100" x="170.5" y="81.9951">Components</text><!--MD5=[c74bcaf30633f989545746e42555eb20]
class UIService--><rect fill="#DA70D6" filter="url(#f1sscdpnr4nqe2)" height="48" id="UIService" style="stroke: #000000; stroke-width: 1.5;" width="89" x="77.5" y="248"/><ellipse cx="92.5" cy="264" fill="#ADD1B2" rx="11" ry="11" style="stroke: #000000; stroke-width: 1.0;"/><path d="M95.4688,269.6406 Q94.8906,269.9375 94.25,270.0781 Q93.6094,270.2344 92.9063,270.2344 Q90.4063,270.2344 89.0781,268.5938 Q87.7656,266.9375 87.7656,263.8125 Q87.7656,260.6875 89.0781,259.0313 Q90.4063,257.375 92.9063,257.375 Q93.6094,257.375 94.25,257.5313 Q94.9063,257.6875 95.4688,257.9844 L95.4688,260.7031 Q94.8438,260.125 94.25,259.8594 Q93.6563,259.5781 93.0313,259.5781 Q91.6875,259.5781 91,260.6563 Q90.3125,261.7188 90.3125,263.8125 Q90.3125,265.9063 91,266.9844 Q91.6875,268.0469 93.0313,268.0469 Q93.6563,268.0469 94.25,267.7813 Q94.8438,267.5 95.4688,266.9219 L95.4688,269.6406 Z "/><text fill="#000000" font-family="sans-serif" font-size="12" lengthAdjust="spacingAndGlyphs" textLength="57" x="106.5" y="268.1543">UIService</text><line style="stroke: #000000; stroke-width: 1.5;" x1="78.5" x2="165.5" y1="280" y2="280"/><line style="stroke: #000000; stroke-width: 1.5;" x1="78.5" x2="165.5" y1="288" y2="288"/><!--MD5=[7d9793a6af5c131a25af6f0766a263bb]
class HttpClient--><rect fill="#DA70D6" filter="url(#f1sscdpnr4nqe2)" height="48" id="HttpClient" style="stroke: #000000; stroke-width: 1.5;" width="94" x="116" y="375"/><ellipse cx="131" cy="391" fill="#ADD1B2" rx="11" ry="11" style="stroke: #000000; stroke-width: 1.0;"/><path d="M133.9688,396.6406 Q133.3906,396.9375 132.75,397.0781 Q132.1094,397.2344 131.4063,397.2344 Q128.9063,397.2344 127.5781,395.5938 Q126.2656,393.9375 126.2656,390.8125 Q126.2656,387.6875 127.5781,386.0313 Q128.9063,384.375 131.4063,384.375 Q132.1094,384.375 132.75,384.5313 Q133.4063,384.6875 133.9688,384.9844 L133.9688,387.7031 Q133.3438,387.125 132.75,386.8594 Q132.1563,386.5781 131.5313,386.5781 Q130.1875,386.5781 129.5,387.6563 Q128.8125,388.7188 128.8125,390.8125 Q128.8125,392.9063 129.5,393.9844 Q130.1875,395.0469 131.5313,395.0469 Q132.1563,395.0469 132.75,394.7813 Q133.3438,394.5 133.9688,393.9219 L133.9688,396.6406 Z "/><text fill="#000000" font-family="sans-serif" font-size="12" lengthAdjust="spacingAndGlyphs" textLength="62" x="145" y="395.1543">HttpClient</text><line style="stroke: #000000; stroke-width: 1.5;" x1="117" x2="209" y1="407" y2="407"/><line style="stroke: #000000; stroke-width: 1.5;" x1="117" x2="209" y1="415" y2="415"/><!--MD5=[99955922ce6950369554ef2f342684bd]
class FeatureService--><rect fill="#DA70D6" filter="url(#f1sscdpnr4nqe2)" height="48" id="FeatureService" style="stroke: #000000; stroke-width: 1.5;" width="126" x="239" y="248"/><ellipse cx="254" cy="264" fill="#ADD1B2" rx="11" ry="11" style="stroke: #000000; stroke-width: 1.0;"/><path d="M256.9688,269.6406 Q256.3906,269.9375 255.75,270.0781 Q255.1094,270.2344 254.4063,270.2344 Q251.9063,270.2344 250.5781,268.5938 Q249.2656,266.9375 249.2656,263.8125 Q249.2656,260.6875 250.5781,259.0313 Q251.9063,257.375 254.4063,257.375 Q255.1094,257.375 255.75,257.5313 Q256.4063,257.6875 256.9688,257.9844 L256.9688,260.7031 Q256.3438,260.125 255.75,259.8594 Q255.1563,259.5781 254.5313,259.5781 Q253.1875,259.5781 252.5,260.6563 Q251.8125,261.7188 251.8125,263.8125 Q251.8125,265.9063 252.5,266.9844 Q253.1875,268.0469 254.5313,268.0469 Q255.1563,268.0469 255.75,267.7813 Q256.3438,267.5 256.9688,266.9219 L256.9688,269.6406 Z "/><text fill="#000000" font-family="sans-serif" font-size="12" lengthAdjust="spacingAndGlyphs" textLength="94" x="268" y="268.1543">FeatureService</text><line style="stroke: #000000; stroke-width: 1.5;" x1="240" x2="364" y1="280" y2="280"/><line style="stroke: #000000; stroke-width: 1.5;" x1="240" x2="364" y1="288" y2="288"/><!--MD5=[7afa06a9ea43726c1f861cd28aefa12e]
class GenericModel--><rect fill="#DA70D6" filter="url(#f1sscdpnr4nqe2)" height="86.4141" id="GenericModel" style="stroke: #000000; stroke-width: 1.5;" width="117" x="264.5" y="356"/><ellipse cx="279.5" cy="372" fill="#ADD1B2" rx="11" ry="11" style="stroke: #000000; stroke-width: 1.0;"/><path d="M282.4688,377.6406 Q281.8906,377.9375 281.25,378.0781 Q280.6094,378.2344 279.9063,378.2344 Q277.4063,378.2344 276.0781,376.5938 Q274.7656,374.9375 274.7656,371.8125 Q274.7656,368.6875 276.0781,367.0313 Q277.4063,365.375 279.9063,365.375 Q280.6094,365.375 281.25,365.5313 Q281.9063,365.6875 282.4688,365.9844 L282.4688,368.7031 Q281.8438,368.125 281.25,367.8594 Q280.6563,367.5781 280.0313,367.5781 Q278.6875,367.5781 278,368.6563 Q277.3125,369.7188 277.3125,371.8125 Q277.3125,373.9063 278,374.9844 Q278.6875,376.0469 280.0313,376.0469 Q280.6563,376.0469 281.25,375.7813 Q281.8438,375.5 282.4688,374.9219 L282.4688,377.6406 Z "/><text fill="#000000" font-family="sans-serif" font-size="12" lengthAdjust="spacingAndGlyphs" textLength="85" x="293.5" y="376.1543">GenericModel</text><line style="stroke: #000000; stroke-width: 1.5;" x1="265.5" x2="380.5" y1="388" y2="388"/><text fill="#000000" font-family="sans-serif" font-size="11" lengthAdjust="spacingAndGlyphs" textLength="40" x="270.5" y="402.2104">+field1</text><text fill="#000000" font-family="sans-serif" font-size="11" lengthAdjust="spacingAndGlyphs" textLength="40" x="270.5" y="415.0151">+field2</text><text fill="#000000" font-family="sans-serif" font-size="11" lengthAdjust="spacingAndGlyphs" textLength="40" x="270.5" y="427.8198">+field3</text><line style="stroke: #000000; stroke-width: 1.5;" x1="265.5" x2="380.5" y1="434.4141" y2="434.4141"/><!--MD5=[ddea70da627106f10bdcaaa15f7d8af7]
class AppComponent--><rect fill="#DA70D6" filter="url(#f1sscdpnr4nqe2)" height="86.4141" id="AppComponent" style="stroke: #000000; stroke-width: 1.5;" width="128" x="62" y="102"/><ellipse cx="77" cy="118" fill="#ADD1B2" rx="11" ry="11" style="stroke: #000000; stroke-width: 1.0;"/><path d="M79.9688,123.6406 Q79.3906,123.9375 78.75,124.0781 Q78.1094,124.2344 77.4063,124.2344 Q74.9063,124.2344 73.5781,122.5938 Q72.2656,120.9375 72.2656,117.8125 Q72.2656,114.6875 73.5781,113.0313 Q74.9063,111.375 77.4063,111.375 Q78.1094,111.375 78.75,111.5313 Q79.4063,111.6875 79.9688,111.9844 L79.9688,114.7031 Q79.3438,114.125 78.75,113.8594 Q78.1563,113.5781 77.5313,113.5781 Q76.1875,113.5781 75.5,114.6563 Q74.8125,115.7188 74.8125,117.8125 Q74.8125,119.9063 75.5,120.9844 Q76.1875,122.0469 77.5313,122.0469 Q78.1563,122.0469 78.75,121.7813 Q79.3438,121.5 79.9688,120.9219 L79.9688,123.6406 Z "/><text fill="#000000" font-family="sans-serif" font-size="12" lengthAdjust="spacingAndGlyphs" textLength="96" x="91" y="122.1543">AppComponent</text><line style="stroke: #000000; stroke-width: 1.5;" x1="63" x2="189" y1="134" y2="134"/><text fill="#000000" font-family="sans-serif" font-size="11" lengthAdjust="spacingAndGlyphs" textLength="34" x="68" y="148.2104">-HTML</text><text fill="#000000" font-family="sans-serif" font-size="11" lengthAdjust="spacingAndGlyphs" textLength="28" x="68" y="161.0151">-CSS</text><text fill="#000000" font-family="sans-serif" font-size="11" lengthAdjust="spacingAndGlyphs" textLength="64" x="68" y="173.8198">-TypeScript</text><line style="stroke: #000000; stroke-width: 1.5;" x1="63" x2="189" y1="180.4141" y2="180.4141"/><!--MD5=[0263398cf350bc2544d5f2341e67ad15]
class FeatureComponent--><rect fill="#DA70D6" filter="url(#f1sscdpnr4nqe2)" height="86.4141" id="FeatureComponent" style="stroke: #000000; stroke-width: 1.5;" width="153" x="225.5" y="102"/><ellipse cx="240.5" cy="118" fill="#ADD1B2" rx="11" ry="11" style="stroke: #000000; stroke-width: 1.0;"/><path d="M243.4688,123.6406 Q242.8906,123.9375 242.25,124.0781 Q241.6094,124.2344 240.9063,124.2344 Q238.4063,124.2344 237.0781,122.5938 Q235.7656,120.9375 235.7656,117.8125 Q235.7656,114.6875 237.0781,113.0313 Q238.4063,111.375 240.9063,111.375 Q241.6094,111.375 242.25,111.5313 Q242.9063,111.6875 243.4688,111.9844 L243.4688,114.7031 Q242.8438,114.125 242.25,113.8594 Q241.6563,113.5781 241.0313,113.5781 Q239.6875,113.5781 239,114.6563 Q238.3125,115.7188 238.3125,117.8125 Q238.3125,119.9063 239,120.9844 Q239.6875,122.0469 241.0313,122.0469 Q241.6563,122.0469 242.25,121.7813 Q242.8438,121.5 243.4688,120.9219 L243.4688,123.6406 Z "/><text fill="#000000" font-family="sans-serif" font-size="12" lengthAdjust="spacingAndGlyphs" textLength="121" x="254.5" y="122.1543">FeatureComponent</text><line style="stroke: #000000; stroke-width: 1.5;" x1="226.5" x2="377.5" y1="134" y2="134"/><text fill="#000000" font-family="sans-serif" font-size="11" lengthAdjust="spacingAndGlyphs" textLength="34" x="231.5" y="148.2104">-HTML</text><text fill="#000000" font-family="sans-serif" font-size="11" lengthAdjust="spacingAndGlyphs" textLength="28" x="231.5" y="161.0151">-CSS</text><text fill="#000000" font-family="sans-serif" font-size="11" lengthAdjust="spacingAndGlyphs" textLength="64" x="231.5" y="173.8198">-TypeScript</text><line style="stroke: #000000; stroke-width: 1.5;" x1="226.5" x2="377.5" y1="180.4141" y2="180.4141"/><!--MD5=[19ffc815b7972f6e117e15ae1cac7b2c]
class ServerAPI--><rect fill="#DA70D6" filter="url(#f1sscdpnr4nqe2)" height="48" id="ServerAPI" style="stroke: #000000; stroke-width: 1.5;" width="91" x="117.5" y="502"/><ellipse cx="132.5" cy="518" fill="#ADD1B2" rx="11" ry="11" style="stroke: #000000; stroke-width: 1.0;"/><path d="M135.4688,523.6406 Q134.8906,523.9375 134.25,524.0781 Q133.6094,524.2344 132.9063,524.2344 Q130.4063,524.2344 129.0781,522.5938 Q127.7656,520.9375 127.7656,517.8125 Q127.7656,514.6875 129.0781,513.0313 Q130.4063,511.375 132.9063,511.375 Q133.6094,511.375 134.25,511.5313 Q134.9063,511.6875 135.4688,511.9844 L135.4688,514.7031 Q134.8438,514.125 134.25,513.8594 Q133.6563,513.5781 133.0313,513.5781 Q131.6875,513.5781 131,514.6563 Q130.3125,515.7188 130.3125,517.8125 Q130.3125,519.9063 131,520.9844 Q131.6875,522.0469 133.0313,522.0469 Q133.6563,522.0469 134.25,521.7813 Q134.8438,521.5 135.4688,520.9219 L135.4688,523.6406 Z "/><text fill="#000000" font-family="sans-serif" font-size="12" lengthAdjust="spacingAndGlyphs" textLength="59" x="146.5" y="522.1543">ServerAPI</text><line style="stroke: #000000; stroke-width: 1.5;" x1="118.5" x2="207.5" y1="534" y2="534"/><line style="stroke: #000000; stroke-width: 1.5;" x1="118.5" x2="207.5" y1="542" y2="542"/><!--MD5=[dcf65f238f3260e8b95fc90a55cdeafa]
link AppComponent to UIService--><path d="M124.65,188.32 C124.01,208.15 123.28,231.02 122.75,247.67 " fill="none" id="AppComponent-UIService" style="stroke: #2E8B57; stroke-width: 1.0;"/><!--MD5=[815c0c79ab133e54f848c979caf48bd0]
link FeatureComponent to FeatureService--><path d="M302,188.32 C302,208.15 302,231.02 302,247.67 " fill="none" id="FeatureComponent-FeatureService" style="stroke: #2E8B57; stroke-width: 1.0;"/><!--MD5=[d076254b7157b17527068f331cf5988c]
link FeatureComponent to HttpClient--><path d="M264.4,188.2 C249.9,205.85 233.96,227.1 222,248 C197.74,290.38 179.14,344.68 169.76,374.96 " fill="none" id="FeatureComponent-HttpClient" style="stroke: #2E8B57; stroke-width: 1.0;"/><!--MD5=[d511d58c7c45386094d02f7691ccf040]
link UIService to HttpClient--><path d="M129.62,296.22 C136.98,318.67 148.07,352.5 155.43,374.91 " fill="none" id="UIService-HttpClient" style="stroke: #2E8B57; stroke-width: 1.0;"/><!--MD5=[1b03d0dbb7d5b8fc38e555b5a9b3e39c]
link FeatureComponent to GenericModel--><path d="M346,188.19 C360.72,205.2 375.33,226.01 383,248 C395.84,284.81 377.05,325.87 357.19,355.71 " fill="none" id="FeatureComponent-GenericModel" style="stroke: #2E8B57; stroke-width: 1.0; stroke-dasharray: 7.0,7.0;"/><!--MD5=[691f2a70bb23fe91d67b06e542d770c9]
link FeatureService to GenericModel--><path d="M305.9,296.22 C308.71,312.95 312.58,336 315.93,355.94 " fill="none" id="FeatureService-GenericModel" style="stroke: #2E8B57; stroke-width: 1.0; stroke-dasharray: 7.0,7.0;"/><!--MD5=[5f1dd5294c5ccee5c72e80366313a182]
link HttpClient to ServerAPI--><path d="M163,423.22 C163,445.67 163,479.5 163,501.91 " fill="none" id="HttpClient-ServerAPI" style="stroke: #2E8B57; stroke-width: 1.0;"/><!--MD5=[bc5582011069d6a61479ed33c996e828]
@startuml

skinparam packageStyle rect
skinparam class {
  BackgroundColor orchid
  ArrowColor SeaGreen
  BorderColor Black
}
skinparam classAttributeIconSize 0

package "Front-End Angular Application" {

  package "Components" {
    class AppComponent {
      - HTML
      - CSS
      - TypeScript
    }

    class FeatureComponent {
      - HTML
      - CSS
      - TypeScript
    }
  }

  class UIService {
  }

  class HttpClient {
  }

  class FeatureService {
  }

  class GenericModel {
    + field1
    + field2
    + field3
  }

  AppComponent - - UIService 
  FeatureComponent - - FeatureService 
  FeatureComponent - - HttpClient 
  UIService - - HttpClient 
  FeatureComponent .. GenericModel 
  FeatureService .. GenericModel 
}

class ServerAPI {
}

HttpClient - - ServerAPI

@enduml

PlantUML version 1.2020.02(Sun Mar 01 10:22:07 UTC 2020)
(GPL source distribution)
Java Runtime: OpenJDK Runtime Environment
JVM: OpenJDK 64-Bit Server VM
Java Version: 11.0.21+9
Operating System: Linux
Default Encoding: UTF-8
Language: en
Country: null
--></g></svg>