<?xml version="1.0" encoding="UTF-8" standalone="no"?><svg xmlns="http://www.w3.org/2000/svg" xmlns:xlink="http://www.w3.org/1999/xlink" contentScriptType="application/ecmascript" contentStyleType="text/css" height="1071px" preserveAspectRatio="none" style="width:1795px;height:1071px;" version="1.1" viewBox="0 0 1795 1071" width="1795px" zoomAndPan="magnify"><defs><filter height="300%" id="f1mv88w7s5fb1f" width="300%" x="-1" y="-1"><feGaussianBlur result="blurOut" stdDeviation="2.0"/><feColorMatrix in="blurOut" result="blurOut2" type="matrix" values="0 0 0 0 0 0 0 0 0 0 0 0 0 0 0 0 0 0 .4 0"/><feOffset dx="4.0" dy="4.0" in="blurOut2" result="blurOut3"/><feBlend in="SourceGraphic" in2="blurOut3" mode="normal"/></filter></defs><g><rect fill="#FFFFFF" filter="url(#f1mv88w7s5fb1f)" height="877.9844" style="stroke: #A80036; stroke-width: 1.0;" width="10" x="42.5" y="96.2969"/><rect fill="#FFFFFF" filter="url(#f1mv88w7s5fb1f)" height="856.8516" style="stroke: #A80036; stroke-width: 1.0;" width="10" x="252.5" y="117.4297"/><rect fill="#FFFFFF" filter="url(#f1mv88w7s5fb1f)" height="798.5859" style="stroke: #A80036; stroke-width: 1.0;" width="10" x="400.5" y="175.6953"/><rect fill="#FFFFFF" filter="url(#f1mv88w7s5fb1f)" height="145.6641" style="stroke: #A80036; stroke-width: 1.0;" width="10" x="691.5" y="204.8281"/><rect fill="#FFFFFF" filter="url(#f1mv88w7s5fb1f)" height="594.6563" style="stroke: #A80036; stroke-width: 1.0;" width="10" x="691.5" y="379.625"/><rect fill="#FFFFFF" filter="url(#f1mv88w7s5fb1f)" height="116.5313" style="stroke: #A80036; stroke-width: 1.0;" width="10" x="870.5" y="233.9609"/><rect fill="#FFFFFF" filter="url(#f1mv88w7s5fb1f)" height="565.5234" style="stroke: #A80036; stroke-width: 1.0;" width="10" x="870.5" y="408.7578"/><rect fill="#FFFFFF" filter="url(#f1mv88w7s5fb1f)" height="87.3984" style="stroke: #A80036; stroke-width: 1.0;" width="10" x="1056.5" y="263.0938"/><rect fill="#FFFFFF" filter="url(#f1mv88w7s5fb1f)" height="536.3906" style="stroke: #A80036; stroke-width: 1.0;" width="10" x="1056.5" y="437.8906"/><rect fill="#FFFFFF" filter="url(#f1mv88w7s5fb1f)" height="58.2656" style="stroke: #A80036; stroke-width: 1.0;" width="10" x="1277.5" y="292.2266"/><rect fill="#FFFFFF" filter="url(#f1mv88w7s5fb1f)" height="508.2578" style="stroke: #A80036; stroke-width: 1.0;" width="10" x="1277.5" y="467.0234"/><rect fill="#FFFFFF" filter="url(#f1mv88w7s5fb1f)" height="29.1328" style="stroke: #A80036; stroke-width: 1.0;" width="10" x="1436.5" y="321.3594"/><rect fill="#FFFFFF" filter="url(#f1mv88w7s5fb1f)" height="478.125" style="stroke: #A80036; stroke-width: 1.0;" width="10" x="1436.5" y="496.1563"/><rect fill="#FFFFFF" filter="url(#f1mv88w7s5fb1f)" height="419.8594" style="stroke: #A80036; stroke-width: 1.0;" width="10" x="1617.5" y="554.4219"/><rect fill="#FFFFFF" filter="url(#f1mv88w7s5fb1f)" height="448.9922" style="stroke: #A80036; stroke-width: 1.0;" width="10" x="1727" y="525.2891"/><rect fill="#FFFFFF" filter="url(#f1mv88w7s5fb1f)" height="310.4609" style="stroke: #000000; stroke-width: 2.0;" width="1120.5" x="13" y="656.8203"/><rect fill="#FFFFFF" height="147.6641" style="stroke: none; stroke-width: 1.0;" width="1120.5" x="13" y="819.6172"/><line style="stroke: #A80036; stroke-width: 1.0; stroke-dasharray: 5.0,5.0;" x1="47" x2="47" y1="86.2969" y2="984.2813"/><line style="stroke: #A80036; stroke-width: 1.0; stroke-dasharray: 5.0,5.0;" x1="257" x2="257" y1="86.2969" y2="984.2813"/><line style="stroke: #A80036; stroke-width: 1.0; stroke-dasharray: 5.0,5.0;" x1="405" x2="405" y1="86.2969" y2="984.2813"/><line style="stroke: #A80036; stroke-width: 1.0; stroke-dasharray: 5.0,5.0;" x1="696" x2="696" y1="86.2969" y2="984.2813"/><line style="stroke: #A80036; stroke-width: 1.0; stroke-dasharray: 5.0,5.0;" x1="875" x2="875" y1="86.2969" y2="984.2813"/><line style="stroke: #A80036; stroke-width: 1.0; stroke-dasharray: 5.0,5.0;" x1="1061.5" x2="1061.5" y1="86.2969" y2="984.2813"/><line style="stroke: #A80036; stroke-width: 1.0; stroke-dasharray: 5.0,5.0;" x1="1282" x2="1282" y1="86.2969" y2="984.2813"/><line style="stroke: #A80036; stroke-width: 1.0; stroke-dasharray: 5.0,5.0;" x1="1441.5" x2="1441.5" y1="86.2969" y2="984.2813"/><line style="stroke: #A80036; stroke-width: 1.0; stroke-dasharray: 5.0,5.0;" x1="1622.5" x2="1622.5" y1="86.2969" y2="984.2813"/><line style="stroke: #A80036; stroke-width: 1.0; stroke-dasharray: 5.0,5.0;" x1="1731.5" x2="1731.5" y1="86.2969" y2="984.2813"/><text fill="#000000" font-family="sans-serif" font-size="14" lengthAdjust="spacingAndGlyphs" textLength="43" x="23" y="82.9951">Admin</text><ellipse cx="47.5" cy="13" fill="#FEFECE" filter="url(#f1mv88w7s5fb1f)" rx="8" ry="8" style="stroke: #A80036; stroke-width: 2.0;"/><path d="M47.5,21 L47.5,48 M34.5,29 L60.5,29 M47.5,48 L34.5,63 M47.5,48 L60.5,63 " fill="none" filter="url(#f1mv88w7s5fb1f)" style="stroke: #A80036; stroke-width: 2.0;"/><text fill="#000000" font-family="sans-serif" font-size="14" lengthAdjust="spacingAndGlyphs" textLength="43" x="23" y="996.2764">Admin</text><ellipse cx="47.5" cy="1009.5781" fill="#FEFECE" filter="url(#f1mv88w7s5fb1f)" rx="8" ry="8" style="stroke: #A80036; stroke-width: 2.0;"/><path d="M47.5,1017.5781 L47.5,1044.5781 M34.5,1025.5781 L60.5,1025.5781 M47.5,1044.5781 L34.5,1059.5781 M47.5,1044.5781 L60.5,1059.5781 " fill="none" filter="url(#f1mv88w7s5fb1f)" style="stroke: #A80036; stroke-width: 2.0;"/><rect fill="#FEFECE" filter="url(#f1mv88w7s5fb1f)" height="30.2969" style="stroke: #A80036; stroke-width: 1.5;" width="51" x="230" y="51"/><text fill="#000000" font-family="sans-serif" font-size="14" lengthAdjust="spacingAndGlyphs" textLength="37" x="237" y="70.9951">:View</text><rect fill="#FEFECE" filter="url(#f1mv88w7s5fb1f)" height="30.2969" style="stroke: #A80036; stroke-width: 1.5;" width="51" x="230" y="983.2813"/><text fill="#000000" font-family="sans-serif" font-size="14" lengthAdjust="spacingAndGlyphs" textLength="37" x="237" y="1003.2764">:View</text><rect fill="#FEFECE" filter="url(#f1mv88w7s5fb1f)" height="30.2969" style="stroke: #A80036; stroke-width: 1.5;" width="125" x="341" y="51"/><text fill="#000000" font-family="sans-serif" font-size="14" lengthAdjust="spacingAndGlyphs" textLength="111" x="348" y="70.9951">:FE_Component</text><rect fill="#FEFECE" filter="url(#f1mv88w7s5fb1f)" height="30.2969" style="stroke: #A80036; stroke-width: 1.5;" width="125" x="341" y="983.2813"/><text fill="#000000" font-family="sans-serif" font-size="14" lengthAdjust="spacingAndGlyphs" textLength="111" x="348" y="1003.2764">:FE_Component</text><rect fill="#FEFECE" filter="url(#f1mv88w7s5fb1f)" height="30.2969" style="stroke: #A80036; stroke-width: 1.5;" width="127" x="631" y="51"/><text fill="#000000" font-family="sans-serif" font-size="14" lengthAdjust="spacingAndGlyphs" textLength="113" x="638" y="70.9951">:FE_FloorService</text><rect fill="#FEFECE" filter="url(#f1mv88w7s5fb1f)" height="30.2969" style="stroke: #A80036; stroke-width: 1.5;" width="127" x="631" y="983.2813"/><text fill="#000000" font-family="sans-serif" font-size="14" lengthAdjust="spacingAndGlyphs" textLength="113" x="638" y="1003.2764">:FE_FloorService</text><rect fill="#FEFECE" filter="url(#f1mv88w7s5fb1f)" height="30.2969" style="stroke: #A80036; stroke-width: 1.5;" width="73" x="837" y="51"/><text fill="#000000" font-family="sans-serif" font-size="14" lengthAdjust="spacingAndGlyphs" textLength="59" x="844" y="70.9951">:Routing</text><rect fill="#FEFECE" filter="url(#f1mv88w7s5fb1f)" height="30.2969" style="stroke: #A80036; stroke-width: 1.5;" width="73" x="837" y="983.2813"/><text fill="#000000" font-family="sans-serif" font-size="14" lengthAdjust="spacingAndGlyphs" textLength="59" x="844" y="1003.2764">:Routing</text><rect fill="#FEFECE" filter="url(#f1mv88w7s5fb1f)" height="30.2969" style="stroke: #A80036; stroke-width: 1.5;" width="120" x="999.5" y="51"/><text fill="#000000" font-family="sans-serif" font-size="14" lengthAdjust="spacingAndGlyphs" textLength="106" x="1006.5" y="70.9951">:FloorController</text><rect fill="#FEFECE" filter="url(#f1mv88w7s5fb1f)" height="30.2969" style="stroke: #A80036; stroke-width: 1.5;" width="120" x="999.5" y="983.2813"/><text fill="#000000" font-family="sans-serif" font-size="14" lengthAdjust="spacingAndGlyphs" textLength="106" x="1006.5" y="1003.2764">:FloorController</text><rect fill="#FEFECE" filter="url(#f1mv88w7s5fb1f)" height="30.2969" style="stroke: #A80036; stroke-width: 1.5;" width="103" x="1229" y="51"/><text fill="#000000" font-family="sans-serif" font-size="14" lengthAdjust="spacingAndGlyphs" textLength="89" x="1236" y="70.9951">:FloorService</text><rect fill="#FEFECE" filter="url(#f1mv88w7s5fb1f)" height="30.2969" style="stroke: #A80036; stroke-width: 1.5;" width="103" x="1229" y="983.2813"/><text fill="#000000" font-family="sans-serif" font-size="14" lengthAdjust="spacingAndGlyphs" textLength="89" x="1236" y="1003.2764">:FloorService</text><rect fill="#FEFECE" filter="url(#f1mv88w7s5fb1f)" height="30.2969" style="stroke: #A80036; stroke-width: 1.5;" width="90" x="1394.5" y="51"/><text fill="#000000" font-family="sans-serif" font-size="14" lengthAdjust="spacingAndGlyphs" textLength="76" x="1401.5" y="70.9951">:FloorRepo</text><rect fill="#FEFECE" filter="url(#f1mv88w7s5fb1f)" height="30.2969" style="stroke: #A80036; stroke-width: 1.5;" width="90" x="1394.5" y="983.2813"/><text fill="#000000" font-family="sans-serif" font-size="14" lengthAdjust="spacingAndGlyphs" textLength="76" x="1401.5" y="1003.2764">:FloorRepo</text><rect fill="#FEFECE" filter="url(#f1mv88w7s5fb1f)" height="30.2969" style="stroke: #A80036; stroke-width: 1.5;" width="82" x="1579.5" y="51"/><text fill="#000000" font-family="sans-serif" font-size="14" lengthAdjust="spacingAndGlyphs" textLength="68" x="1586.5" y="70.9951">:FloorMap</text><rect fill="#FEFECE" filter="url(#f1mv88w7s5fb1f)" height="30.2969" style="stroke: #A80036; stroke-width: 1.5;" width="82" x="1579.5" y="983.2813"/><text fill="#000000" font-family="sans-serif" font-size="14" lengthAdjust="spacingAndGlyphs" textLength="68" x="1586.5" y="1003.2764">:FloorMap</text><rect fill="#FEFECE" filter="url(#f1mv88w7s5fb1f)" height="30.2969" style="stroke: #A80036; stroke-width: 1.5;" width="109" x="1675.5" y="51"/><text fill="#000000" font-family="sans-serif" font-size="14" lengthAdjust="spacingAndGlyphs" textLength="95" x="1682.5" y="70.9951">:FloorSchema</text><rect fill="#FEFECE" filter="url(#f1mv88w7s5fb1f)" height="30.2969" style="stroke: #A80036; stroke-width: 1.5;" width="109" x="1675.5" y="983.2813"/><text fill="#000000" font-family="sans-serif" font-size="14" lengthAdjust="spacingAndGlyphs" textLength="95" x="1682.5" y="1003.2764">:FloorSchema</text><rect fill="#FFFFFF" filter="url(#f1mv88w7s5fb1f)" height="877.9844" style="stroke: #A80036; stroke-width: 1.0;" width="10" x="42.5" y="96.2969"/><rect fill="#FFFFFF" filter="url(#f1mv88w7s5fb1f)" height="856.8516" style="stroke: #A80036; stroke-width: 1.0;" width="10" x="252.5" y="117.4297"/><rect fill="#FFFFFF" filter="url(#f1mv88w7s5fb1f)" height="798.5859" style="stroke: #A80036; stroke-width: 1.0;" width="10" x="400.5" y="175.6953"/><rect fill="#FFFFFF" filter="url(#f1mv88w7s5fb1f)" height="145.6641" style="stroke: #A80036; stroke-width: 1.0;" width="10" x="691.5" y="204.8281"/><rect fill="#FFFFFF" filter="url(#f1mv88w7s5fb1f)" height="594.6563" style="stroke: #A80036; stroke-width: 1.0;" width="10" x="691.5" y="379.625"/><rect fill="#FFFFFF" filter="url(#f1mv88w7s5fb1f)" height="116.5313" style="stroke: #A80036; stroke-width: 1.0;" width="10" x="870.5" y="233.9609"/><rect fill="#FFFFFF" filter="url(#f1mv88w7s5fb1f)" height="565.5234" style="stroke: #A80036; stroke-width: 1.0;" width="10" x="870.5" y="408.7578"/><rect fill="#FFFFFF" filter="url(#f1mv88w7s5fb1f)" height="87.3984" style="stroke: #A80036; stroke-width: 1.0;" width="10" x="1056.5" y="263.0938"/><rect fill="#FFFFFF" filter="url(#f1mv88w7s5fb1f)" height="536.3906" style="stroke: #A80036; stroke-width: 1.0;" width="10" x="1056.5" y="437.8906"/><rect fill="#FFFFFF" filter="url(#f1mv88w7s5fb1f)" height="58.2656" style="stroke: #A80036; stroke-width: 1.0;" width="10" x="1277.5" y="292.2266"/><rect fill="#FFFFFF" filter="url(#f1mv88w7s5fb1f)" height="508.2578" style="stroke: #A80036; stroke-width: 1.0;" width="10" x="1277.5" y="467.0234"/><rect fill="#FFFFFF" filter="url(#f1mv88w7s5fb1f)" height="29.1328" style="stroke: #A80036; stroke-width: 1.0;" width="10" x="1436.5" y="321.3594"/><rect fill="#FFFFFF" filter="url(#f1mv88w7s5fb1f)" height="478.125" style="stroke: #A80036; stroke-width: 1.0;" width="10" x="1436.5" y="496.1563"/><rect fill="#FFFFFF" filter="url(#f1mv88w7s5fb1f)" height="419.8594" style="stroke: #A80036; stroke-width: 1.0;" width="10" x="1617.5" y="554.4219"/><rect fill="#FFFFFF" filter="url(#f1mv88w7s5fb1f)" height="448.9922" style="stroke: #A80036; stroke-width: 1.0;" width="10" x="1727" y="525.2891"/><polygon fill="#A80036" points="240.5,113.4297,250.5,117.4297,240.5,121.4297,244.5,117.4297" style="stroke: #A80036; stroke-width: 1.0;"/><line style="stroke: #A80036; stroke-width: 1.0;" x1="52.5" x2="246.5" y1="117.4297" y2="117.4297"/><text fill="#000000" font-family="sans-serif" font-size="13" font-weight="bold" lengthAdjust="spacingAndGlyphs" textLength="9" x="59.5" y="112.3638">1</text><text fill="#000000" font-family="sans-serif" font-size="13" lengthAdjust="spacingAndGlyphs" textLength="168" x="72.5" y="112.3638">wants to update floor map</text><polygon fill="#A80036" points="63.5,142.5625,53.5,146.5625,63.5,150.5625,59.5,146.5625" style="stroke: #A80036; stroke-width: 1.0;"/><line style="stroke: #A80036; stroke-width: 1.0; stroke-dasharray: 2.0,2.0;" x1="57.5" x2="251.5" y1="146.5625" y2="146.5625"/><text fill="#000000" font-family="sans-serif" font-size="13" font-weight="bold" lengthAdjust="spacingAndGlyphs" textLength="9" x="69.5" y="141.4966">2</text><text fill="#000000" font-family="sans-serif" font-size="13" lengthAdjust="spacingAndGlyphs" textLength="161" x="82.5" y="141.4966">request necessary data()</text><polygon fill="#A80036" points="240.5,171.6953,250.5,175.6953,240.5,179.6953,244.5,175.6953" style="stroke: #A80036; stroke-width: 1.0;"/><line style="stroke: #A80036; stroke-width: 1.0;" x1="52.5" x2="246.5" y1="175.6953" y2="175.6953"/><text fill="#000000" font-family="sans-serif" font-size="13" font-weight="bold" lengthAdjust="spacingAndGlyphs" textLength="9" x="59.5" y="170.6294">3</text><text fill="#000000" font-family="sans-serif" font-size="13" lengthAdjust="spacingAndGlyphs" textLength="112" x="72.5" y="170.6294">insert all the data</text><polygon fill="#A80036" points="388.5,200.8281,398.5,204.8281,388.5,208.8281,392.5,204.8281" style="stroke: #A80036; stroke-width: 1.0;"/><line style="stroke: #A80036; stroke-width: 1.0;" x1="262.5" x2="394.5" y1="204.8281" y2="204.8281"/><text fill="#000000" font-family="sans-serif" font-size="13" font-weight="bold" lengthAdjust="spacingAndGlyphs" textLength="9" x="269.5" y="199.7622">4</text><text fill="#000000" font-family="sans-serif" font-size="13" lengthAdjust="spacingAndGlyphs" textLength="69" x="282.5" y="199.7622">getFloors()</text><polygon fill="#A80036" points="679.5,229.9609,689.5,233.9609,679.5,237.9609,683.5,233.9609" style="stroke: #A80036; stroke-width: 1.0;"/><line style="stroke: #A80036; stroke-width: 1.0;" x1="410.5" x2="685.5" y1="233.9609" y2="233.9609"/><text fill="#000000" font-family="sans-serif" font-size="13" font-weight="bold" lengthAdjust="spacingAndGlyphs" textLength="9" x="417.5" y="228.895">5</text><text fill="#000000" font-family="sans-serif" font-size="13" lengthAdjust="spacingAndGlyphs" textLength="66" x="430.5" y="228.895">listFloors()</text><polygon fill="#A80036" points="858.5,259.0938,868.5,263.0938,858.5,267.0938,862.5,263.0938" style="stroke: #A80036; stroke-width: 1.0;"/><line style="stroke: #A80036; stroke-width: 1.0;" x1="701.5" x2="864.5" y1="263.0938" y2="263.0938"/><text fill="#000000" font-family="sans-serif" font-size="13" font-weight="bold" lengthAdjust="spacingAndGlyphs" textLength="9" x="708.5" y="258.0278">6</text><text fill="#000000" font-family="sans-serif" font-size="13" lengthAdjust="spacingAndGlyphs" textLength="79" x="721.5" y="258.0278">GET route{}</text><polygon fill="#A80036" points="1044.5,288.2266,1054.5,292.2266,1044.5,296.2266,1048.5,292.2266" style="stroke: #A80036; stroke-width: 1.0;"/><line style="stroke: #A80036; stroke-width: 1.0;" x1="880.5" x2="1050.5" y1="292.2266" y2="292.2266"/><text fill="#000000" font-family="sans-serif" font-size="13" font-weight="bold" lengthAdjust="spacingAndGlyphs" textLength="9" x="887.5" y="287.1606">7</text><text fill="#000000" font-family="sans-serif" font-size="13" lengthAdjust="spacingAndGlyphs" textLength="81" x="900.5" y="287.1606">listAllFloors()</text><polygon fill="#A80036" points="1265.5,317.3594,1275.5,321.3594,1265.5,325.3594,1269.5,321.3594" style="stroke: #A80036; stroke-width: 1.0;"/><line style="stroke: #A80036; stroke-width: 1.0;" x1="1066.5" x2="1271.5" y1="321.3594" y2="321.3594"/><text fill="#000000" font-family="sans-serif" font-size="13" font-weight="bold" lengthAdjust="spacingAndGlyphs" textLength="9" x="1073.5" y="316.2935">8</text><text fill="#000000" font-family="sans-serif" font-size="13" lengthAdjust="spacingAndGlyphs" textLength="48" x="1086.5" y="316.2935">findAll()</text><polygon fill="#A80036" points="1429.5,346.4922,1439.5,350.4922,1429.5,354.4922,1433.5,350.4922" style="stroke: #A80036; stroke-width: 1.0;"/><line style="stroke: #A80036; stroke-width: 1.0;" x1="1282.5" x2="1435.5" y1="350.4922" y2="350.4922"/><text fill="#000000" font-family="sans-serif" font-size="13" font-weight="bold" lengthAdjust="spacingAndGlyphs" textLength="9" x="1289.5" y="345.4263">9</text><text fill="#000000" font-family="sans-serif" font-size="13" lengthAdjust="spacingAndGlyphs" textLength="48" x="1302.5" y="345.4263">findAll()</text><polygon fill="#A80036" points="388.5,375.625,398.5,379.625,388.5,383.625,392.5,379.625" style="stroke: #A80036; stroke-width: 1.0;"/><line style="stroke: #A80036; stroke-width: 1.0;" x1="262.5" x2="394.5" y1="379.625" y2="379.625"/><text fill="#000000" font-family="sans-serif" font-size="13" font-weight="bold" lengthAdjust="spacingAndGlyphs" textLength="18" x="269.5" y="374.5591">10</text><text fill="#000000" font-family="sans-serif" font-size="13" lengthAdjust="spacingAndGlyphs" textLength="92" x="291.5" y="374.5591">editFloorMap()</text><polygon fill="#A80036" points="679.5,404.7578,689.5,408.7578,679.5,412.7578,683.5,408.7578" style="stroke: #A80036; stroke-width: 1.0;"/><line style="stroke: #A80036; stroke-width: 1.0;" x1="410.5" x2="685.5" y1="408.7578" y2="408.7578"/><text fill="#000000" font-family="sans-serif" font-size="13" font-weight="bold" lengthAdjust="spacingAndGlyphs" textLength="18" x="417.5" y="403.6919">11</text><text fill="#000000" font-family="sans-serif" font-size="13" lengthAdjust="spacingAndGlyphs" textLength="235" x="439.5" y="403.6919">patchFloorMap(Object{id, floorMap})</text><polygon fill="#A80036" points="858.5,433.8906,868.5,437.8906,858.5,441.8906,862.5,437.8906" style="stroke: #A80036; stroke-width: 1.0;"/><line style="stroke: #A80036; stroke-width: 1.0;" x1="701.5" x2="864.5" y1="437.8906" y2="437.8906"/><text fill="#000000" font-family="sans-serif" font-size="13" font-weight="bold" lengthAdjust="spacingAndGlyphs" textLength="18" x="708.5" y="432.8247">12</text><text fill="#000000" font-family="sans-serif" font-size="13" lengthAdjust="spacingAndGlyphs" textLength="123" x="730.5" y="432.8247">PATCH route{json}</text><polygon fill="#A80036" points="1044.5,463.0234,1054.5,467.0234,1044.5,471.0234,1048.5,467.0234" style="stroke: #A80036; stroke-width: 1.0;"/><line style="stroke: #A80036; stroke-width: 1.0;" x1="880.5" x2="1050.5" y1="467.0234" y2="467.0234"/><text fill="#000000" font-family="sans-serif" font-size="13" font-weight="bold" lengthAdjust="spacingAndGlyphs" textLength="18" x="887.5" y="461.9575">13</text><text fill="#000000" font-family="sans-serif" font-size="13" lengthAdjust="spacingAndGlyphs" textLength="130" x="909.5" y="461.9575">patchFloorMap(json)</text><polygon fill="#A80036" points="1265.5,492.1563,1275.5,496.1563,1265.5,500.1563,1269.5,496.1563" style="stroke: #A80036; stroke-width: 1.0;"/><line style="stroke: #A80036; stroke-width: 1.0;" x1="1066.5" x2="1271.5" y1="496.1563" y2="496.1563"/><text fill="#000000" font-family="sans-serif" font-size="13" font-weight="bold" lengthAdjust="spacingAndGlyphs" textLength="18" x="1073.5" y="491.0903">14</text><text fill="#000000" font-family="sans-serif" font-size="13" lengthAdjust="spacingAndGlyphs" textLength="165" x="1095.5" y="491.0903">patchFloorMap(IFloorDTO)</text><polygon fill="#A80036" points="1424.5,521.2891,1434.5,525.2891,1424.5,529.2891,1428.5,525.2891" style="stroke: #A80036; stroke-width: 1.0;"/><line style="stroke: #A80036; stroke-width: 1.0;" x1="1287.5" x2="1430.5" y1="525.2891" y2="525.2891"/><text fill="#000000" font-family="sans-serif" font-size="13" font-weight="bold" lengthAdjust="spacingAndGlyphs" textLength="18" x="1294.5" y="520.2231">15</text><text fill="#000000" font-family="sans-serif" font-size="13" lengthAdjust="spacingAndGlyphs" textLength="103" x="1316.5" y="520.2231">findById(floor.id)</text><polygon fill="#A80036" points="1424.5,550.4219,1434.5,554.4219,1424.5,558.4219,1428.5,554.4219" style="stroke: #A80036; stroke-width: 1.0;"/><line style="stroke: #A80036; stroke-width: 1.0;" x1="1287.5" x2="1430.5" y1="554.4219" y2="554.4219"/><text fill="#000000" font-family="sans-serif" font-size="13" font-weight="bold" lengthAdjust="spacingAndGlyphs" textLength="18" x="1294.5" y="549.356">16</text><text fill="#000000" font-family="sans-serif" font-size="13" lengthAdjust="spacingAndGlyphs" textLength="68" x="1316.5" y="549.356">save(floor)</text><polygon fill="#A80036" points="1605.5,579.5547,1615.5,583.5547,1605.5,587.5547,1609.5,583.5547" style="stroke: #A80036; stroke-width: 1.0;"/><line style="stroke: #A80036; stroke-width: 1.0;" x1="1446.5" x2="1611.5" y1="583.5547" y2="583.5547"/><text fill="#000000" font-family="sans-serif" font-size="13" font-weight="bold" lengthAdjust="spacingAndGlyphs" textLength="18" x="1453.5" y="578.4888">17</text><text fill="#000000" font-family="sans-serif" font-size="13" lengthAdjust="spacingAndGlyphs" textLength="125" x="1475.5" y="578.4888">toPersistance(floor)</text><polygon fill="#A80036" points="1715,608.6875,1725,612.6875,1715,616.6875,1719,612.6875" style="stroke: #A80036; stroke-width: 1.0;"/><line style="stroke: #A80036; stroke-width: 1.0;" x1="1446.5" x2="1721" y1="612.6875" y2="612.6875"/><text fill="#000000" font-family="sans-serif" font-size="13" font-weight="bold" lengthAdjust="spacingAndGlyphs" textLength="18" x="1453.5" y="607.6216">18</text><text fill="#000000" font-family="sans-serif" font-size="13" lengthAdjust="spacingAndGlyphs" textLength="79" x="1475.5" y="607.6216">create(floor)</text><polygon fill="#A80036" points="1298.5,637.8203,1288.5,641.8203,1298.5,645.8203,1294.5,641.8203" style="stroke: #A80036; stroke-width: 1.0;"/><line style="stroke: #A80036; stroke-width: 1.0; stroke-dasharray: 2.0,2.0;" x1="1292.5" x2="1435.5" y1="641.8203" y2="641.8203"/><text fill="#000000" font-family="sans-serif" font-size="13" font-weight="bold" lengthAdjust="spacingAndGlyphs" textLength="18" x="1304.5" y="636.7544">19</text><text fill="#000000" font-family="sans-serif" font-size="13" lengthAdjust="spacingAndGlyphs" textLength="28" x="1326.5" y="636.7544">floor</text><path d="M13,656.8203 L77,656.8203 L77,663.8203 L67,673.8203 L13,673.8203 L13,656.8203 " fill="#EEEEEE" style="stroke: #000000; stroke-width: 1.0;"/><rect fill="none" height="310.4609" style="stroke: #000000; stroke-width: 2.0;" width="1120.5" x="13" y="656.8203"/><text fill="#000000" font-family="sans-serif" font-size="13" font-weight="bold" lengthAdjust="spacingAndGlyphs" textLength="19" x="28" y="669.8872">alt</text><text fill="#000000" font-family="sans-serif" font-size="11" font-weight="bold" lengthAdjust="spacingAndGlyphs" textLength="135" x="92" y="669.0308">[saved with success]</text><polygon fill="#A80036" points="891.5,691.0859,881.5,695.0859,891.5,699.0859,887.5,695.0859" style="stroke: #A80036; stroke-width: 1.0;"/><line style="stroke: #A80036; stroke-width: 1.0; stroke-dasharray: 2.0,2.0;" x1="885.5" x2="1055.5" y1="695.0859" y2="695.0859"/><text fill="#000000" font-family="sans-serif" font-size="13" font-weight="bold" lengthAdjust="spacingAndGlyphs" textLength="18" x="897.5" y="690.02">20</text><text fill="#000000" font-family="sans-serif" font-size="13" lengthAdjust="spacingAndGlyphs" textLength="64" x="919.5" y="690.02">HTTP: 201</text><polygon fill="#A80036" points="712.5,720.2188,702.5,724.2188,712.5,728.2188,708.5,724.2188" style="stroke: #A80036; stroke-width: 1.0;"/><line style="stroke: #A80036; stroke-width: 1.0; stroke-dasharray: 2.0,2.0;" x1="706.5" x2="869.5" y1="724.2188" y2="724.2188"/><text fill="#000000" font-family="sans-serif" font-size="13" font-weight="bold" lengthAdjust="spacingAndGlyphs" textLength="18" x="718.5" y="719.1528">21</text><text fill="#000000" font-family="sans-serif" font-size="13" lengthAdjust="spacingAndGlyphs" textLength="64" x="740.5" y="719.1528">HTTP: 201</text><polygon fill="#A80036" points="421.5,749.3516,411.5,753.3516,421.5,757.3516,417.5,753.3516" style="stroke: #A80036; stroke-width: 1.0;"/><line style="stroke: #A80036; stroke-width: 1.0; stroke-dasharray: 2.0,2.0;" x1="415.5" x2="690.5" y1="753.3516" y2="753.3516"/><text fill="#000000" font-family="sans-serif" font-size="13" font-weight="bold" lengthAdjust="spacingAndGlyphs" textLength="18" x="427.5" y="748.2856">22</text><text fill="#000000" font-family="sans-serif" font-size="13" lengthAdjust="spacingAndGlyphs" textLength="64" x="449.5" y="748.2856">HTTP: 201</text><polygon fill="#A80036" points="273.5,778.4844,263.5,782.4844,273.5,786.4844,269.5,782.4844" style="stroke: #A80036; stroke-width: 1.0;"/><line style="stroke: #A80036; stroke-width: 1.0; stroke-dasharray: 2.0,2.0;" x1="267.5" x2="399.5" y1="782.4844" y2="782.4844"/><text fill="#000000" font-family="sans-serif" font-size="13" font-weight="bold" lengthAdjust="spacingAndGlyphs" textLength="18" x="279.5" y="777.4185">23</text><text fill="#000000" font-family="sans-serif" font-size="13" lengthAdjust="spacingAndGlyphs" textLength="64" x="301.5" y="777.4185">HTTP: 201</text><polygon fill="#A80036" points="63.5,807.6172,53.5,811.6172,63.5,815.6172,59.5,811.6172" style="stroke: #A80036; stroke-width: 1.0;"/><line style="stroke: #A80036; stroke-width: 1.0; stroke-dasharray: 2.0,2.0;" x1="57.5" x2="251.5" y1="811.6172" y2="811.6172"/><text fill="#000000" font-family="sans-serif" font-size="13" font-weight="bold" lengthAdjust="spacingAndGlyphs" textLength="18" x="69.5" y="806.5513">24</text><text fill="#000000" font-family="sans-serif" font-size="13" lengthAdjust="spacingAndGlyphs" textLength="150" x="91.5" y="806.5513">show success message</text><line style="stroke: #000000; stroke-width: 1.0; stroke-dasharray: 2.0,2.0;" x1="13" x2="1133.5" y1="820.6172" y2="820.6172"/><polygon fill="#A80036" points="891.5,838.75,881.5,842.75,891.5,846.75,887.5,842.75" style="stroke: #A80036; stroke-width: 1.0;"/><line style="stroke: #A80036; stroke-width: 1.0; stroke-dasharray: 2.0,2.0;" x1="885.5" x2="1055.5" y1="842.75" y2="842.75"/><text fill="#000000" font-family="sans-serif" font-size="13" font-weight="bold" lengthAdjust="spacingAndGlyphs" textLength="18" x="897.5" y="837.6841">25</text><text fill="#000000" font-family="sans-serif" font-size="13" lengthAdjust="spacingAndGlyphs" textLength="64" x="919.5" y="837.6841">HTTP: 400</text><polygon fill="#A80036" points="712.5,867.8828,702.5,871.8828,712.5,875.8828,708.5,871.8828" style="stroke: #A80036; stroke-width: 1.0;"/><line style="stroke: #A80036; stroke-width: 1.0; stroke-dasharray: 2.0,2.0;" x1="706.5" x2="869.5" y1="871.8828" y2="871.8828"/><text fill="#000000" font-family="sans-serif" font-size="13" font-weight="bold" lengthAdjust="spacingAndGlyphs" textLength="18" x="718.5" y="866.8169">26</text><text fill="#000000" font-family="sans-serif" font-size="13" lengthAdjust="spacingAndGlyphs" textLength="64" x="740.5" y="866.8169">HTTP: 400</text><polygon fill="#A80036" points="421.5,897.0156,411.5,901.0156,421.5,905.0156,417.5,901.0156" style="stroke: #A80036; stroke-width: 1.0;"/><line style="stroke: #A80036; stroke-width: 1.0; stroke-dasharray: 2.0,2.0;" x1="415.5" x2="690.5" y1="901.0156" y2="901.0156"/><text fill="#000000" font-family="sans-serif" font-size="13" font-weight="bold" lengthAdjust="spacingAndGlyphs" textLength="18" x="427.5" y="895.9497">27</text><text fill="#000000" font-family="sans-serif" font-size="13" lengthAdjust="spacingAndGlyphs" textLength="64" x="449.5" y="895.9497">HTTP: 400</text><polygon fill="#A80036" points="273.5,926.1484,263.5,930.1484,273.5,934.1484,269.5,930.1484" style="stroke: #A80036; stroke-width: 1.0;"/><line style="stroke: #A80036; stroke-width: 1.0; stroke-dasharray: 2.0,2.0;" x1="267.5" x2="399.5" y1="930.1484" y2="930.1484"/><text fill="#000000" font-family="sans-serif" font-size="13" font-weight="bold" lengthAdjust="spacingAndGlyphs" textLength="18" x="279.5" y="925.0825">28</text><text fill="#000000" font-family="sans-serif" font-size="13" lengthAdjust="spacingAndGlyphs" textLength="64" x="301.5" y="925.0825">HTTP: 400</text><polygon fill="#A80036" points="63.5,955.2813,53.5,959.2813,63.5,963.2813,59.5,959.2813" style="stroke: #A80036; stroke-width: 1.0;"/><line style="stroke: #A80036; stroke-width: 1.0; stroke-dasharray: 2.0,2.0;" x1="57.5" x2="251.5" y1="959.2813" y2="959.2813"/><text fill="#000000" font-family="sans-serif" font-size="13" font-weight="bold" lengthAdjust="spacingAndGlyphs" textLength="18" x="69.5" y="954.2153">29</text><text fill="#000000" font-family="sans-serif" font-size="13" lengthAdjust="spacingAndGlyphs" textLength="138" x="91.5" y="954.2153">show failure message</text><!--MD5=[7086c55a6700f1f349ded53fbc085d53]
@startuml
autonumber
actor "Admin" as admin

participant ":View" as sys
participant ":FE_Component" as comp
participant ":FE_FloorService" as FEsrvc
participant ":Routing" as route
participant ":FloorController" as ctrl
participant ":FloorService" as srvc
participant ":FloorRepo" as repo
participant ":FloorMap" as rtMap
participant ":FloorSchema" as rtSchema

activate admin

admin -> sys: wants to update floor map
activate sys
sys - -> admin: request necessary data()
admin -> sys : insert all the data
activate comp

sys -> comp : getFloors()
activate FEsrvc
comp -> FEsrvc : listFloors()
activate route
FEsrvc -> route: GET route{}
activate ctrl
route -> ctrl: listAllFloors()
activate srvc
ctrl -> srvc: findAll()
activate repo
srvc -> repo: findAll()
deactivate FEsrvc
deactivate route
deactivate ctrl
deactivate srvc
deactivate repo

sys -> comp : editFloorMap()
activate FEsrvc
comp -> FEsrvc : patchFloorMap(Object{id, floorMap})
activate route
FEsrvc -> route: PATCH route{json}
activate ctrl
route -> ctrl: patchFloorMap(json)
activate srvc
ctrl -> srvc: patchFloorMap(IFloorDTO)
activate repo
srvc -> repo: findById(floor.id)
activate rtSchema
srvc -> repo: save(floor)
activate rtMap
repo -> rtMap: toPersistance(floor)
repo -> rtSchema: create(floor)
repo - -> srvc: floor


alt saved with success
    ctrl - -> route : HTTP: 201
    route - -> FEsrvc: HTTP: 201
    FEsrvc - -> comp: HTTP: 201
    comp - -> sys: HTTP: 201
    sys - -> admin: show success message
else
    ctrl - -> route : HTTP: 400
    route - -> FEsrvc: HTTP: 400
    FEsrvc - -> comp: HTTP: 400
    comp - -> sys: HTTP: 400
    sys - -> admin: show failure message
end

deactivate rtSchema
deactivate rtMap
deactivate repo
deactivate ctrl
deactivate route
deactivate FEsrvc
deactivate comp
deactivate sys
deactivate admin
@enduml

PlantUML version 1.2020.02(Sun Mar 01 10:22:07 UTC 2020)
(GPL source distribution)
Java Runtime: OpenJDK Runtime Environment
JVM: OpenJDK 64-Bit Server VM
Java Version: 11.0.21+9
Operating System: Linux
Default Encoding: UTF-8
Language: en
Country: null
--></g></svg>